M48
; DRILL file KiCad 10.0.5 date 2026-09-14T14:47:21
; FORMAT={-:-/ absolute / metric / decimal}
; #@! TF.CreationDate,2026-09-14T14:47:21-05:00
; #@! TF.GenerationSoftware,Kicad,Pcbnew,10.0.5
; #@! TF.FileFunction,Plated,1,2,PTH
FMAT,2
METRIC
; #@! TA.AperFunction,Plated,PTH,ViaDrill
T1C0.300
; #@! TA.AperFunction,Plated,PTH,ComponentDrill
T2C0.600
; #@! TA.AperFunction,Plated,PTH,ComponentDrill
T3C1.000
; #@! TA.AperFunction,Plated,PTH,ComponentDrill
T4C1.150
%
G90
G05
T1
X1.0Y8.563
X1.403Y56.097
X1.5Y60.5
X1.5Y15.5
X1.5Y15.5
X1.609Y54.5
X1.629Y19.5
X1.631Y33.414
X1.954Y21.793
X2.0Y21.068
X2.0Y20.341
X2.0Y16.5
X2.001Y8.0
X2.122Y29.739
X2.139Y28.758
X2.348Y27.848
X2.402Y26.361
X2.429Y30.807
X2.5Y23.5
X2.5Y14.0
X2.761Y32.35
X2.776Y51.697
X2.929Y36.46
X2.957Y35.57
X3.0Y48.5
X3.0Y15.0
X3.004Y33.148
X3.24Y24.0
X3.329Y31.402
X3.396Y40.885
X3.5Y9.0
X3.628Y15.684
X3.819Y28.724
X3.932Y40.309
X3.995Y47.75
X4.0Y38.0
X4.047Y31.289
X4.171Y30.573
X4.385Y25.9
X4.434Y46.75
X4.473Y24.78
X4.686Y33.222
X4.693Y53.25
X4.706Y36.5
X4.907Y6.888
X4.947Y12.053
X4.974Y23.649
X5.01Y30.052
X5.071Y32.172
X5.5Y58.0
X5.5Y57.0
X5.637Y14.459
X5.882Y53.815
X5.901Y47.25
X5.903Y15.684
X5.91Y48.359
X5.916Y50.75
X5.917Y49.25
X5.933Y30.273
X6.0Y60.5
X6.009Y22.991
X6.071Y28.528
X6.141Y11.859
X6.299Y25.097
X6.352Y24.331
X6.602Y22.196
X6.7Y38.844
X6.702Y25.727
X7.0Y59.5
X7.0Y59.5
X7.0Y29.0
X7.098Y32.099
X7.207Y16.293
X7.5Y59.0
X7.5Y59.0
X7.555Y30.27
X7.857Y37.173
X7.97Y22.316
X7.992Y38.842
X8.082Y24.668
X8.089Y48.75
X8.18Y17.009
X8.288Y13.5
X8.49Y50.142
X8.578Y23.775
X8.671Y15.563
X8.735Y45.031
X8.882Y51.591
X9.0Y39.0
X9.0Y21.5
X9.173Y29.609
X9.485Y11.515
X9.5Y31.939
X9.559Y7.0
X9.84Y52.091
X9.842Y17.5
X9.934Y40.5
X10.0Y64.5
X10.0Y24.239
X10.269Y25.49
X10.271Y28.5
X10.272Y20.394
X10.553Y12.367
X10.75Y18.75
X10.883Y27.283
X10.975Y41.5
X11.0Y20.5
X11.465Y37.512
X11.5Y30.0
X11.5Y26.0
X11.589Y25.214
X11.99Y31.5
X12.0Y20.53
X12.25Y36.25
X12.5Y53.5
X12.5Y17.0
X12.5Y11.5
X12.854Y20.691
X13.241Y25.763
X13.3Y28.121
X13.3Y19.721
T3
X2.0Y11.0
T4
X2.5Y67.3
X2.5Y62.7
X6.5Y62.5
X6.9Y67.0
X11.1Y62.5
X11.5Y67.0
T2
X5.95Y10.21G85X7.05Y10.21
G05
X5.95Y1.57G85X7.05Y1.57
G05
X10.28Y10.21G85X11.08Y10.21
G05
X10.28Y1.57G85X11.08Y1.57
G05
M30
