%TF.GenerationSoftware,KiCad,Pcbnew,10.0.5*%
%TF.CreationDate,2026-09-14T14:41:57-05:00*%
%TF.ProjectId,arc-insight-board,6172632d-696e-4736-9967-68742d626f61,rev?*%
%TF.SameCoordinates,PX7d687e0PY87e60a0*%
%TF.FileFunction,Legend,Top*%
%TF.FilePolarity,Positive*%
%FSLAX46Y46*%
G04 Gerber Fmt 4.6, Leading zero omitted, Abs format (unit mm)*
G04 Created by KiCad (PCBNEW 10.0.5) date 2026-09-14 14:41:57*
%MOMM*%
%LPD*%
G01*
G04 APERTURE LIST*
%ADD10C,0.150000*%
%ADD11C,0.120000*%
G04 APERTURE END LIST*
D10*
X877142Y39300420D02*
X829523Y39252800D01*
X829523Y39252800D02*
X686666Y39205181D01*
X686666Y39205181D02*
X591428Y39205181D01*
X591428Y39205181D02*
X448571Y39252800D01*
X448571Y39252800D02*
X353333Y39348039D01*
X353333Y39348039D02*
X305714Y39443277D01*
X305714Y39443277D02*
X258095Y39633753D01*
X258095Y39633753D02*
X258095Y39776610D01*
X258095Y39776610D02*
X305714Y39967086D01*
X305714Y39967086D02*
X353333Y40062324D01*
X353333Y40062324D02*
X448571Y40157562D01*
X448571Y40157562D02*
X591428Y40205181D01*
X591428Y40205181D02*
X686666Y40205181D01*
X686666Y40205181D02*
X829523Y40157562D01*
X829523Y40157562D02*
X877142Y40109943D01*
X1829523Y39205181D02*
X1258095Y39205181D01*
X1543809Y39205181D02*
X1543809Y40205181D01*
X1543809Y40205181D02*
X1448571Y40062324D01*
X1448571Y40062324D02*
X1353333Y39967086D01*
X1353333Y39967086D02*
X1258095Y39919467D01*
X2781904Y39205181D02*
X2210476Y39205181D01*
X2496190Y39205181D02*
X2496190Y40205181D01*
X2496190Y40205181D02*
X2400952Y40062324D01*
X2400952Y40062324D02*
X2305714Y39967086D01*
X2305714Y39967086D02*
X2210476Y39919467D01*
X3559819Y5556667D02*
X4274104Y5556667D01*
X4274104Y5556667D02*
X4416961Y5509048D01*
X4416961Y5509048D02*
X4512200Y5413810D01*
X4512200Y5413810D02*
X4559819Y5270953D01*
X4559819Y5270953D02*
X4559819Y5175715D01*
X4559819Y6556667D02*
X4559819Y5985239D01*
X4559819Y6270953D02*
X3559819Y6270953D01*
X3559819Y6270953D02*
X3702676Y6175715D01*
X3702676Y6175715D02*
X3797914Y6080477D01*
X3797914Y6080477D02*
X3845533Y5985239D01*
X10100595Y16895181D02*
X10100595Y16085658D01*
X10100595Y16085658D02*
X10148214Y15990420D01*
X10148214Y15990420D02*
X10195833Y15942800D01*
X10195833Y15942800D02*
X10291071Y15895181D01*
X10291071Y15895181D02*
X10481547Y15895181D01*
X10481547Y15895181D02*
X10576785Y15942800D01*
X10576785Y15942800D02*
X10624404Y15990420D01*
X10624404Y15990420D02*
X10672023Y16085658D01*
X10672023Y16085658D02*
X10672023Y16895181D01*
X11576785Y16561848D02*
X11576785Y15895181D01*
X11338690Y16942800D02*
X11100595Y16228515D01*
X11100595Y16228515D02*
X11719642Y16228515D01*
X1818333Y40715181D02*
X1342143Y40715181D01*
X1342143Y40715181D02*
X1342143Y41715181D01*
X2104048Y41619943D02*
X2151667Y41667562D01*
X2151667Y41667562D02*
X2246905Y41715181D01*
X2246905Y41715181D02*
X2485000Y41715181D01*
X2485000Y41715181D02*
X2580238Y41667562D01*
X2580238Y41667562D02*
X2627857Y41619943D01*
X2627857Y41619943D02*
X2675476Y41524705D01*
X2675476Y41524705D02*
X2675476Y41429467D01*
X2675476Y41429467D02*
X2627857Y41286610D01*
X2627857Y41286610D02*
X2056429Y40715181D01*
X2056429Y40715181D02*
X2675476Y40715181D01*
X8466666Y65325181D02*
X8466666Y64610896D01*
X8466666Y64610896D02*
X8419047Y64468039D01*
X8419047Y64468039D02*
X8323809Y64372800D01*
X8323809Y64372800D02*
X8180952Y64325181D01*
X8180952Y64325181D02*
X8085714Y64325181D01*
X9371428Y64991848D02*
X9371428Y64325181D01*
X9133333Y65372800D02*
X8895238Y64658515D01*
X8895238Y64658515D02*
X9514285Y64658515D01*
X6538095Y39895181D02*
X6538095Y39085658D01*
X6538095Y39085658D02*
X6585714Y38990420D01*
X6585714Y38990420D02*
X6633333Y38942800D01*
X6633333Y38942800D02*
X6728571Y38895181D01*
X6728571Y38895181D02*
X6919047Y38895181D01*
X6919047Y38895181D02*
X7014285Y38942800D01*
X7014285Y38942800D02*
X7061904Y38990420D01*
X7061904Y38990420D02*
X7109523Y39085658D01*
X7109523Y39085658D02*
X7109523Y39895181D01*
X8109523Y38895181D02*
X7538095Y38895181D01*
X7823809Y38895181D02*
X7823809Y39895181D01*
X7823809Y39895181D02*
X7728571Y39752324D01*
X7728571Y39752324D02*
X7633333Y39657086D01*
X7633333Y39657086D02*
X7538095Y39609467D01*
X7100595Y22395181D02*
X7100595Y21585658D01*
X7100595Y21585658D02*
X7148214Y21490420D01*
X7148214Y21490420D02*
X7195833Y21442800D01*
X7195833Y21442800D02*
X7291071Y21395181D01*
X7291071Y21395181D02*
X7481547Y21395181D01*
X7481547Y21395181D02*
X7576785Y21442800D01*
X7576785Y21442800D02*
X7624404Y21490420D01*
X7624404Y21490420D02*
X7672023Y21585658D01*
X7672023Y21585658D02*
X7672023Y22395181D01*
X8576785Y22395181D02*
X8386309Y22395181D01*
X8386309Y22395181D02*
X8291071Y22347562D01*
X8291071Y22347562D02*
X8243452Y22299943D01*
X8243452Y22299943D02*
X8148214Y22157086D01*
X8148214Y22157086D02*
X8100595Y21966610D01*
X8100595Y21966610D02*
X8100595Y21585658D01*
X8100595Y21585658D02*
X8148214Y21490420D01*
X8148214Y21490420D02*
X8195833Y21442800D01*
X8195833Y21442800D02*
X8291071Y21395181D01*
X8291071Y21395181D02*
X8481547Y21395181D01*
X8481547Y21395181D02*
X8576785Y21442800D01*
X8576785Y21442800D02*
X8624404Y21490420D01*
X8624404Y21490420D02*
X8672023Y21585658D01*
X8672023Y21585658D02*
X8672023Y21823753D01*
X8672023Y21823753D02*
X8624404Y21918991D01*
X8624404Y21918991D02*
X8576785Y21966610D01*
X8576785Y21966610D02*
X8481547Y22014229D01*
X8481547Y22014229D02*
X8291071Y22014229D01*
X8291071Y22014229D02*
X8195833Y21966610D01*
X8195833Y21966610D02*
X8148214Y21918991D01*
X8148214Y21918991D02*
X8100595Y21823753D01*
X10675595Y26282681D02*
X10675595Y25473158D01*
X10675595Y25473158D02*
X10723214Y25377920D01*
X10723214Y25377920D02*
X10770833Y25330300D01*
X10770833Y25330300D02*
X10866071Y25282681D01*
X10866071Y25282681D02*
X11056547Y25282681D01*
X11056547Y25282681D02*
X11151785Y25330300D01*
X11151785Y25330300D02*
X11199404Y25377920D01*
X11199404Y25377920D02*
X11247023Y25473158D01*
X11247023Y25473158D02*
X11247023Y26282681D01*
X11627976Y26282681D02*
X12247023Y26282681D01*
X12247023Y26282681D02*
X11913690Y25901729D01*
X11913690Y25901729D02*
X12056547Y25901729D01*
X12056547Y25901729D02*
X12151785Y25854110D01*
X12151785Y25854110D02*
X12199404Y25806491D01*
X12199404Y25806491D02*
X12247023Y25711253D01*
X12247023Y25711253D02*
X12247023Y25473158D01*
X12247023Y25473158D02*
X12199404Y25377920D01*
X12199404Y25377920D02*
X12151785Y25330300D01*
X12151785Y25330300D02*
X12056547Y25282681D01*
X12056547Y25282681D02*
X11770833Y25282681D01*
X11770833Y25282681D02*
X11675595Y25330300D01*
X11675595Y25330300D02*
X11627976Y25377920D01*
X2190476Y61045181D02*
X2190476Y62045181D01*
X2190476Y62045181D02*
X2523809Y61330896D01*
X2523809Y61330896D02*
X2857142Y62045181D01*
X2857142Y62045181D02*
X2857142Y61045181D01*
X3857142Y61045181D02*
X3285714Y61045181D01*
X3571428Y61045181D02*
X3571428Y62045181D01*
X3571428Y62045181D02*
X3476190Y61902324D01*
X3476190Y61902324D02*
X3380952Y61807086D01*
X3380952Y61807086D02*
X3285714Y61759467D01*
X2699580Y51313334D02*
X2747200Y51265715D01*
X2747200Y51265715D02*
X2794819Y51122858D01*
X2794819Y51122858D02*
X2794819Y51027620D01*
X2794819Y51027620D02*
X2747200Y50884763D01*
X2747200Y50884763D02*
X2651961Y50789525D01*
X2651961Y50789525D02*
X2556723Y50741906D01*
X2556723Y50741906D02*
X2366247Y50694287D01*
X2366247Y50694287D02*
X2223390Y50694287D01*
X2223390Y50694287D02*
X2032914Y50741906D01*
X2032914Y50741906D02*
X1937676Y50789525D01*
X1937676Y50789525D02*
X1842438Y50884763D01*
X1842438Y50884763D02*
X1794819Y51027620D01*
X1794819Y51027620D02*
X1794819Y51122858D01*
X1794819Y51122858D02*
X1842438Y51265715D01*
X1842438Y51265715D02*
X1890057Y51313334D01*
X1794819Y52170477D02*
X1794819Y51980001D01*
X1794819Y51980001D02*
X1842438Y51884763D01*
X1842438Y51884763D02*
X1890057Y51837144D01*
X1890057Y51837144D02*
X2032914Y51741906D01*
X2032914Y51741906D02*
X2223390Y51694287D01*
X2223390Y51694287D02*
X2604342Y51694287D01*
X2604342Y51694287D02*
X2699580Y51741906D01*
X2699580Y51741906D02*
X2747200Y51789525D01*
X2747200Y51789525D02*
X2794819Y51884763D01*
X2794819Y51884763D02*
X2794819Y52075239D01*
X2794819Y52075239D02*
X2747200Y52170477D01*
X2747200Y52170477D02*
X2699580Y52218096D01*
X2699580Y52218096D02*
X2604342Y52265715D01*
X2604342Y52265715D02*
X2366247Y52265715D01*
X2366247Y52265715D02*
X2271009Y52218096D01*
X2271009Y52218096D02*
X2223390Y52170477D01*
X2223390Y52170477D02*
X2175771Y52075239D01*
X2175771Y52075239D02*
X2175771Y51884763D01*
X2175771Y51884763D02*
X2223390Y51789525D01*
X2223390Y51789525D02*
X2271009Y51741906D01*
X2271009Y51741906D02*
X2366247Y51694287D01*
X11784819Y26323334D02*
X11308628Y25990001D01*
X11784819Y25751906D02*
X10784819Y25751906D01*
X10784819Y25751906D02*
X10784819Y26132858D01*
X10784819Y26132858D02*
X10832438Y26228096D01*
X10832438Y26228096D02*
X10880057Y26275715D01*
X10880057Y26275715D02*
X10975295Y26323334D01*
X10975295Y26323334D02*
X11118152Y26323334D01*
X11118152Y26323334D02*
X11213390Y26275715D01*
X11213390Y26275715D02*
X11261009Y26228096D01*
X11261009Y26228096D02*
X11308628Y26132858D01*
X11308628Y26132858D02*
X11308628Y25751906D01*
X10784819Y26656668D02*
X10784819Y27275715D01*
X10784819Y27275715D02*
X11165771Y26942382D01*
X11165771Y26942382D02*
X11165771Y27085239D01*
X11165771Y27085239D02*
X11213390Y27180477D01*
X11213390Y27180477D02*
X11261009Y27228096D01*
X11261009Y27228096D02*
X11356247Y27275715D01*
X11356247Y27275715D02*
X11594342Y27275715D01*
X11594342Y27275715D02*
X11689580Y27228096D01*
X11689580Y27228096D02*
X11737200Y27180477D01*
X11737200Y27180477D02*
X11784819Y27085239D01*
X11784819Y27085239D02*
X11784819Y26799525D01*
X11784819Y26799525D02*
X11737200Y26704287D01*
X11737200Y26704287D02*
X11689580Y26656668D01*
X3199580Y54313334D02*
X3247200Y54265715D01*
X3247200Y54265715D02*
X3294819Y54122858D01*
X3294819Y54122858D02*
X3294819Y54027620D01*
X3294819Y54027620D02*
X3247200Y53884763D01*
X3247200Y53884763D02*
X3151961Y53789525D01*
X3151961Y53789525D02*
X3056723Y53741906D01*
X3056723Y53741906D02*
X2866247Y53694287D01*
X2866247Y53694287D02*
X2723390Y53694287D01*
X2723390Y53694287D02*
X2532914Y53741906D01*
X2532914Y53741906D02*
X2437676Y53789525D01*
X2437676Y53789525D02*
X2342438Y53884763D01*
X2342438Y53884763D02*
X2294819Y54027620D01*
X2294819Y54027620D02*
X2294819Y54122858D01*
X2294819Y54122858D02*
X2342438Y54265715D01*
X2342438Y54265715D02*
X2390057Y54313334D01*
X2628152Y55170477D02*
X3294819Y55170477D01*
X2247200Y54932382D02*
X2961485Y54694287D01*
X2961485Y54694287D02*
X2961485Y55313334D01*
X2333333Y2070420D02*
X2285714Y2022800D01*
X2285714Y2022800D02*
X2142857Y1975181D01*
X2142857Y1975181D02*
X2047619Y1975181D01*
X2047619Y1975181D02*
X1904762Y2022800D01*
X1904762Y2022800D02*
X1809524Y2118039D01*
X1809524Y2118039D02*
X1761905Y2213277D01*
X1761905Y2213277D02*
X1714286Y2403753D01*
X1714286Y2403753D02*
X1714286Y2546610D01*
X1714286Y2546610D02*
X1761905Y2737086D01*
X1761905Y2737086D02*
X1809524Y2832324D01*
X1809524Y2832324D02*
X1904762Y2927562D01*
X1904762Y2927562D02*
X2047619Y2975181D01*
X2047619Y2975181D02*
X2142857Y2975181D01*
X2142857Y2975181D02*
X2285714Y2927562D01*
X2285714Y2927562D02*
X2333333Y2879943D01*
X2904762Y2546610D02*
X2809524Y2594229D01*
X2809524Y2594229D02*
X2761905Y2641848D01*
X2761905Y2641848D02*
X2714286Y2737086D01*
X2714286Y2737086D02*
X2714286Y2784705D01*
X2714286Y2784705D02*
X2761905Y2879943D01*
X2761905Y2879943D02*
X2809524Y2927562D01*
X2809524Y2927562D02*
X2904762Y2975181D01*
X2904762Y2975181D02*
X3095238Y2975181D01*
X3095238Y2975181D02*
X3190476Y2927562D01*
X3190476Y2927562D02*
X3238095Y2879943D01*
X3238095Y2879943D02*
X3285714Y2784705D01*
X3285714Y2784705D02*
X3285714Y2737086D01*
X3285714Y2737086D02*
X3238095Y2641848D01*
X3238095Y2641848D02*
X3190476Y2594229D01*
X3190476Y2594229D02*
X3095238Y2546610D01*
X3095238Y2546610D02*
X2904762Y2546610D01*
X2904762Y2546610D02*
X2809524Y2498991D01*
X2809524Y2498991D02*
X2761905Y2451372D01*
X2761905Y2451372D02*
X2714286Y2356134D01*
X2714286Y2356134D02*
X2714286Y2165658D01*
X2714286Y2165658D02*
X2761905Y2070420D01*
X2761905Y2070420D02*
X2809524Y2022800D01*
X2809524Y2022800D02*
X2904762Y1975181D01*
X2904762Y1975181D02*
X3095238Y1975181D01*
X3095238Y1975181D02*
X3190476Y2022800D01*
X3190476Y2022800D02*
X3238095Y2070420D01*
X3238095Y2070420D02*
X3285714Y2165658D01*
X3285714Y2165658D02*
X3285714Y2356134D01*
X3285714Y2356134D02*
X3238095Y2451372D01*
X3238095Y2451372D02*
X3190476Y2498991D01*
X3190476Y2498991D02*
X3095238Y2546610D01*
X10833333Y18715181D02*
X10500000Y19191372D01*
X10261905Y18715181D02*
X10261905Y19715181D01*
X10261905Y19715181D02*
X10642857Y19715181D01*
X10642857Y19715181D02*
X10738095Y19667562D01*
X10738095Y19667562D02*
X10785714Y19619943D01*
X10785714Y19619943D02*
X10833333Y19524705D01*
X10833333Y19524705D02*
X10833333Y19381848D01*
X10833333Y19381848D02*
X10785714Y19286610D01*
X10785714Y19286610D02*
X10738095Y19238991D01*
X10738095Y19238991D02*
X10642857Y19191372D01*
X10642857Y19191372D02*
X10261905Y19191372D01*
X11785714Y18715181D02*
X11214286Y18715181D01*
X11500000Y18715181D02*
X11500000Y19715181D01*
X11500000Y19715181D02*
X11404762Y19572324D01*
X11404762Y19572324D02*
X11309524Y19477086D01*
X11309524Y19477086D02*
X11214286Y19429467D01*
X4738095Y16945181D02*
X4738095Y16135658D01*
X4738095Y16135658D02*
X4785714Y16040420D01*
X4785714Y16040420D02*
X4833333Y15992800D01*
X4833333Y15992800D02*
X4928571Y15945181D01*
X4928571Y15945181D02*
X5119047Y15945181D01*
X5119047Y15945181D02*
X5214285Y15992800D01*
X5214285Y15992800D02*
X5261904Y16040420D01*
X5261904Y16040420D02*
X5309523Y16135658D01*
X5309523Y16135658D02*
X5309523Y16945181D01*
X6261904Y16945181D02*
X5785714Y16945181D01*
X5785714Y16945181D02*
X5738095Y16468991D01*
X5738095Y16468991D02*
X5785714Y16516610D01*
X5785714Y16516610D02*
X5880952Y16564229D01*
X5880952Y16564229D02*
X6119047Y16564229D01*
X6119047Y16564229D02*
X6214285Y16516610D01*
X6214285Y16516610D02*
X6261904Y16468991D01*
X6261904Y16468991D02*
X6309523Y16373753D01*
X6309523Y16373753D02*
X6309523Y16135658D01*
X6309523Y16135658D02*
X6261904Y16040420D01*
X6261904Y16040420D02*
X6214285Y15992800D01*
X6214285Y15992800D02*
X6119047Y15945181D01*
X6119047Y15945181D02*
X5880952Y15945181D01*
X5880952Y15945181D02*
X5785714Y15992800D01*
X5785714Y15992800D02*
X5738095Y16040420D01*
X4066666Y29485181D02*
X4066666Y28770896D01*
X4066666Y28770896D02*
X4019047Y28628039D01*
X4019047Y28628039D02*
X3923809Y28532800D01*
X3923809Y28532800D02*
X3780952Y28485181D01*
X3780952Y28485181D02*
X3685714Y28485181D01*
X4447619Y29485181D02*
X5066666Y29485181D01*
X5066666Y29485181D02*
X4733333Y29104229D01*
X4733333Y29104229D02*
X4876190Y29104229D01*
X4876190Y29104229D02*
X4971428Y29056610D01*
X4971428Y29056610D02*
X5019047Y29008991D01*
X5019047Y29008991D02*
X5066666Y28913753D01*
X5066666Y28913753D02*
X5066666Y28675658D01*
X5066666Y28675658D02*
X5019047Y28580420D01*
X5019047Y28580420D02*
X4971428Y28532800D01*
X4971428Y28532800D02*
X4876190Y28485181D01*
X4876190Y28485181D02*
X4590476Y28485181D01*
X4590476Y28485181D02*
X4495238Y28532800D01*
X4495238Y28532800D02*
X4447619Y28580420D01*
X1199580Y52337143D02*
X1247200Y52289524D01*
X1247200Y52289524D02*
X1294819Y52146667D01*
X1294819Y52146667D02*
X1294819Y52051429D01*
X1294819Y52051429D02*
X1247200Y51908572D01*
X1247200Y51908572D02*
X1151961Y51813334D01*
X1151961Y51813334D02*
X1056723Y51765715D01*
X1056723Y51765715D02*
X866247Y51718096D01*
X866247Y51718096D02*
X723390Y51718096D01*
X723390Y51718096D02*
X532914Y51765715D01*
X532914Y51765715D02*
X437676Y51813334D01*
X437676Y51813334D02*
X342438Y51908572D01*
X342438Y51908572D02*
X294819Y52051429D01*
X294819Y52051429D02*
X294819Y52146667D01*
X294819Y52146667D02*
X342438Y52289524D01*
X342438Y52289524D02*
X390057Y52337143D01*
X1294819Y53289524D02*
X1294819Y52718096D01*
X1294819Y53003810D02*
X294819Y53003810D01*
X294819Y53003810D02*
X437676Y52908572D01*
X437676Y52908572D02*
X532914Y52813334D01*
X532914Y52813334D02*
X580533Y52718096D01*
X294819Y53908572D02*
X294819Y54003810D01*
X294819Y54003810D02*
X342438Y54099048D01*
X342438Y54099048D02*
X390057Y54146667D01*
X390057Y54146667D02*
X485295Y54194286D01*
X485295Y54194286D02*
X675771Y54241905D01*
X675771Y54241905D02*
X913866Y54241905D01*
X913866Y54241905D02*
X1104342Y54194286D01*
X1104342Y54194286D02*
X1199580Y54146667D01*
X1199580Y54146667D02*
X1247200Y54099048D01*
X1247200Y54099048D02*
X1294819Y54003810D01*
X1294819Y54003810D02*
X1294819Y53908572D01*
X1294819Y53908572D02*
X1247200Y53813334D01*
X1247200Y53813334D02*
X1199580Y53765715D01*
X1199580Y53765715D02*
X1104342Y53718096D01*
X1104342Y53718096D02*
X913866Y53670477D01*
X913866Y53670477D02*
X675771Y53670477D01*
X675771Y53670477D02*
X485295Y53718096D01*
X485295Y53718096D02*
X390057Y53765715D01*
X390057Y53765715D02*
X342438Y53813334D01*
X342438Y53813334D02*
X294819Y53908572D01*
X-325181Y64666667D02*
X389104Y64666667D01*
X389104Y64666667D02*
X531961Y64619048D01*
X531961Y64619048D02*
X627200Y64523810D01*
X627200Y64523810D02*
X674819Y64380953D01*
X674819Y64380953D02*
X674819Y64285715D01*
X-325181Y65619048D02*
X-325181Y65142858D01*
X-325181Y65142858D02*
X151009Y65095239D01*
X151009Y65095239D02*
X103390Y65142858D01*
X103390Y65142858D02*
X55771Y65238096D01*
X55771Y65238096D02*
X55771Y65476191D01*
X55771Y65476191D02*
X103390Y65571429D01*
X103390Y65571429D02*
X151009Y65619048D01*
X151009Y65619048D02*
X246247Y65666667D01*
X246247Y65666667D02*
X484342Y65666667D01*
X484342Y65666667D02*
X579580Y65619048D01*
X579580Y65619048D02*
X627200Y65571429D01*
X627200Y65571429D02*
X674819Y65476191D01*
X674819Y65476191D02*
X674819Y65238096D01*
X674819Y65238096D02*
X627200Y65142858D01*
X627200Y65142858D02*
X579580Y65095239D01*
X284819Y6333334D02*
X-191372Y6000001D01*
X284819Y5761906D02*
X-715181Y5761906D01*
X-715181Y5761906D02*
X-715181Y6142858D01*
X-715181Y6142858D02*
X-667562Y6238096D01*
X-667562Y6238096D02*
X-619943Y6285715D01*
X-619943Y6285715D02*
X-524705Y6333334D01*
X-524705Y6333334D02*
X-381848Y6333334D01*
X-381848Y6333334D02*
X-286610Y6285715D01*
X-286610Y6285715D02*
X-238991Y6238096D01*
X-238991Y6238096D02*
X-191372Y6142858D01*
X-191372Y6142858D02*
X-191372Y5761906D01*
X-715181Y6666668D02*
X-715181Y7333334D01*
X-715181Y7333334D02*
X284819Y6904763D01*
X1784819Y54843334D02*
X1308628Y54510001D01*
X1784819Y54271906D02*
X784819Y54271906D01*
X784819Y54271906D02*
X784819Y54652858D01*
X784819Y54652858D02*
X832438Y54748096D01*
X832438Y54748096D02*
X880057Y54795715D01*
X880057Y54795715D02*
X975295Y54843334D01*
X975295Y54843334D02*
X1118152Y54843334D01*
X1118152Y54843334D02*
X1213390Y54795715D01*
X1213390Y54795715D02*
X1261009Y54748096D01*
X1261009Y54748096D02*
X1308628Y54652858D01*
X1308628Y54652858D02*
X1308628Y54271906D01*
X1118152Y55700477D02*
X1784819Y55700477D01*
X737200Y55462382D02*
X1451485Y55224287D01*
X1451485Y55224287D02*
X1451485Y55843334D01*
X2608333Y4570420D02*
X2560714Y4522800D01*
X2560714Y4522800D02*
X2417857Y4475181D01*
X2417857Y4475181D02*
X2322619Y4475181D01*
X2322619Y4475181D02*
X2179762Y4522800D01*
X2179762Y4522800D02*
X2084524Y4618039D01*
X2084524Y4618039D02*
X2036905Y4713277D01*
X2036905Y4713277D02*
X1989286Y4903753D01*
X1989286Y4903753D02*
X1989286Y5046610D01*
X1989286Y5046610D02*
X2036905Y5237086D01*
X2036905Y5237086D02*
X2084524Y5332324D01*
X2084524Y5332324D02*
X2179762Y5427562D01*
X2179762Y5427562D02*
X2322619Y5475181D01*
X2322619Y5475181D02*
X2417857Y5475181D01*
X2417857Y5475181D02*
X2560714Y5427562D01*
X2560714Y5427562D02*
X2608333Y5379943D01*
X3084524Y4475181D02*
X3275000Y4475181D01*
X3275000Y4475181D02*
X3370238Y4522800D01*
X3370238Y4522800D02*
X3417857Y4570420D01*
X3417857Y4570420D02*
X3513095Y4713277D01*
X3513095Y4713277D02*
X3560714Y4903753D01*
X3560714Y4903753D02*
X3560714Y5284705D01*
X3560714Y5284705D02*
X3513095Y5379943D01*
X3513095Y5379943D02*
X3465476Y5427562D01*
X3465476Y5427562D02*
X3370238Y5475181D01*
X3370238Y5475181D02*
X3179762Y5475181D01*
X3179762Y5475181D02*
X3084524Y5427562D01*
X3084524Y5427562D02*
X3036905Y5379943D01*
X3036905Y5379943D02*
X2989286Y5284705D01*
X2989286Y5284705D02*
X2989286Y5046610D01*
X2989286Y5046610D02*
X3036905Y4951372D01*
X3036905Y4951372D02*
X3084524Y4903753D01*
X3084524Y4903753D02*
X3179762Y4856134D01*
X3179762Y4856134D02*
X3370238Y4856134D01*
X3370238Y4856134D02*
X3465476Y4903753D01*
X3465476Y4903753D02*
X3513095Y4951372D01*
X3513095Y4951372D02*
X3560714Y5046610D01*
X10833333Y17875181D02*
X10500000Y18351372D01*
X10261905Y17875181D02*
X10261905Y18875181D01*
X10261905Y18875181D02*
X10642857Y18875181D01*
X10642857Y18875181D02*
X10738095Y18827562D01*
X10738095Y18827562D02*
X10785714Y18779943D01*
X10785714Y18779943D02*
X10833333Y18684705D01*
X10833333Y18684705D02*
X10833333Y18541848D01*
X10833333Y18541848D02*
X10785714Y18446610D01*
X10785714Y18446610D02*
X10738095Y18398991D01*
X10738095Y18398991D02*
X10642857Y18351372D01*
X10642857Y18351372D02*
X10261905Y18351372D01*
X11738095Y18875181D02*
X11261905Y18875181D01*
X11261905Y18875181D02*
X11214286Y18398991D01*
X11214286Y18398991D02*
X11261905Y18446610D01*
X11261905Y18446610D02*
X11357143Y18494229D01*
X11357143Y18494229D02*
X11595238Y18494229D01*
X11595238Y18494229D02*
X11690476Y18446610D01*
X11690476Y18446610D02*
X11738095Y18398991D01*
X11738095Y18398991D02*
X11785714Y18303753D01*
X11785714Y18303753D02*
X11785714Y18065658D01*
X11785714Y18065658D02*
X11738095Y17970420D01*
X11738095Y17970420D02*
X11690476Y17922800D01*
X11690476Y17922800D02*
X11595238Y17875181D01*
X11595238Y17875181D02*
X11357143Y17875181D01*
X11357143Y17875181D02*
X11261905Y17922800D01*
X11261905Y17922800D02*
X11214286Y17970420D01*
X13019580Y39813334D02*
X13067200Y39765715D01*
X13067200Y39765715D02*
X13114819Y39622858D01*
X13114819Y39622858D02*
X13114819Y39527620D01*
X13114819Y39527620D02*
X13067200Y39384763D01*
X13067200Y39384763D02*
X12971961Y39289525D01*
X12971961Y39289525D02*
X12876723Y39241906D01*
X12876723Y39241906D02*
X12686247Y39194287D01*
X12686247Y39194287D02*
X12543390Y39194287D01*
X12543390Y39194287D02*
X12352914Y39241906D01*
X12352914Y39241906D02*
X12257676Y39289525D01*
X12257676Y39289525D02*
X12162438Y39384763D01*
X12162438Y39384763D02*
X12114819Y39527620D01*
X12114819Y39527620D02*
X12114819Y39622858D01*
X12114819Y39622858D02*
X12162438Y39765715D01*
X12162438Y39765715D02*
X12210057Y39813334D01*
X12210057Y40194287D02*
X12162438Y40241906D01*
X12162438Y40241906D02*
X12114819Y40337144D01*
X12114819Y40337144D02*
X12114819Y40575239D01*
X12114819Y40575239D02*
X12162438Y40670477D01*
X12162438Y40670477D02*
X12210057Y40718096D01*
X12210057Y40718096D02*
X12305295Y40765715D01*
X12305295Y40765715D02*
X12400533Y40765715D01*
X12400533Y40765715D02*
X12543390Y40718096D01*
X12543390Y40718096D02*
X13114819Y40146668D01*
X13114819Y40146668D02*
X13114819Y40765715D01*
X4199580Y55353334D02*
X4247200Y55305715D01*
X4247200Y55305715D02*
X4294819Y55162858D01*
X4294819Y55162858D02*
X4294819Y55067620D01*
X4294819Y55067620D02*
X4247200Y54924763D01*
X4247200Y54924763D02*
X4151961Y54829525D01*
X4151961Y54829525D02*
X4056723Y54781906D01*
X4056723Y54781906D02*
X3866247Y54734287D01*
X3866247Y54734287D02*
X3723390Y54734287D01*
X3723390Y54734287D02*
X3532914Y54781906D01*
X3532914Y54781906D02*
X3437676Y54829525D01*
X3437676Y54829525D02*
X3342438Y54924763D01*
X3342438Y54924763D02*
X3294819Y55067620D01*
X3294819Y55067620D02*
X3294819Y55162858D01*
X3294819Y55162858D02*
X3342438Y55305715D01*
X3342438Y55305715D02*
X3390057Y55353334D01*
X3294819Y56258096D02*
X3294819Y55781906D01*
X3294819Y55781906D02*
X3771009Y55734287D01*
X3771009Y55734287D02*
X3723390Y55781906D01*
X3723390Y55781906D02*
X3675771Y55877144D01*
X3675771Y55877144D02*
X3675771Y56115239D01*
X3675771Y56115239D02*
X3723390Y56210477D01*
X3723390Y56210477D02*
X3771009Y56258096D01*
X3771009Y56258096D02*
X3866247Y56305715D01*
X3866247Y56305715D02*
X4104342Y56305715D01*
X4104342Y56305715D02*
X4199580Y56258096D01*
X4199580Y56258096D02*
X4247200Y56210477D01*
X4247200Y56210477D02*
X4294819Y56115239D01*
X4294819Y56115239D02*
X4294819Y55877144D01*
X4294819Y55877144D02*
X4247200Y55781906D01*
X4247200Y55781906D02*
X4199580Y55734287D01*
X666666Y12543181D02*
X333333Y13019372D01*
X95238Y12543181D02*
X95238Y13543181D01*
X95238Y13543181D02*
X476190Y13543181D01*
X476190Y13543181D02*
X571428Y13495562D01*
X571428Y13495562D02*
X619047Y13447943D01*
X619047Y13447943D02*
X666666Y13352705D01*
X666666Y13352705D02*
X666666Y13209848D01*
X666666Y13209848D02*
X619047Y13114610D01*
X619047Y13114610D02*
X571428Y13066991D01*
X571428Y13066991D02*
X476190Y13019372D01*
X476190Y13019372D02*
X95238Y13019372D01*
X1095238Y13066991D02*
X1428571Y13066991D01*
X1571428Y12543181D02*
X1095238Y12543181D01*
X1095238Y12543181D02*
X1095238Y13543181D01*
X1095238Y13543181D02*
X1571428Y13543181D01*
X2333333Y13066991D02*
X2000000Y13066991D01*
X2000000Y12543181D02*
X2000000Y13543181D01*
X2000000Y13543181D02*
X2476190Y13543181D01*
X3000000Y13543181D02*
X3000000Y13305086D01*
X2761905Y13400324D02*
X3000000Y13305086D01*
X3000000Y13305086D02*
X3238095Y13400324D01*
X2857143Y13114610D02*
X3000000Y13305086D01*
X3000000Y13305086D02*
X3142857Y13114610D01*
X3761905Y13543181D02*
X3761905Y13305086D01*
X3523810Y13400324D02*
X3761905Y13305086D01*
X3761905Y13305086D02*
X4000000Y13400324D01*
X3619048Y13114610D02*
X3761905Y13305086D01*
X3761905Y13305086D02*
X3904762Y13114610D01*
X1012142Y41800420D02*
X964523Y41752800D01*
X964523Y41752800D02*
X821666Y41705181D01*
X821666Y41705181D02*
X726428Y41705181D01*
X726428Y41705181D02*
X583571Y41752800D01*
X583571Y41752800D02*
X488333Y41848039D01*
X488333Y41848039D02*
X440714Y41943277D01*
X440714Y41943277D02*
X393095Y42133753D01*
X393095Y42133753D02*
X393095Y42276610D01*
X393095Y42276610D02*
X440714Y42467086D01*
X440714Y42467086D02*
X488333Y42562324D01*
X488333Y42562324D02*
X583571Y42657562D01*
X583571Y42657562D02*
X726428Y42705181D01*
X726428Y42705181D02*
X821666Y42705181D01*
X821666Y42705181D02*
X964523Y42657562D01*
X964523Y42657562D02*
X1012142Y42609943D01*
X1964523Y41705181D02*
X1393095Y41705181D01*
X1678809Y41705181D02*
X1678809Y42705181D01*
X1678809Y42705181D02*
X1583571Y42562324D01*
X1583571Y42562324D02*
X1488333Y42467086D01*
X1488333Y42467086D02*
X1393095Y42419467D01*
X2345476Y42609943D02*
X2393095Y42657562D01*
X2393095Y42657562D02*
X2488333Y42705181D01*
X2488333Y42705181D02*
X2726428Y42705181D01*
X2726428Y42705181D02*
X2821666Y42657562D01*
X2821666Y42657562D02*
X2869285Y42609943D01*
X2869285Y42609943D02*
X2916904Y42514705D01*
X2916904Y42514705D02*
X2916904Y42419467D01*
X2916904Y42419467D02*
X2869285Y42276610D01*
X2869285Y42276610D02*
X2297857Y41705181D01*
X2297857Y41705181D02*
X2916904Y41705181D01*
X7273809Y42521372D02*
X7273809Y42045181D01*
X6940476Y43045181D02*
X7273809Y42521372D01*
X7273809Y42521372D02*
X7607142Y43045181D01*
X8464285Y42045181D02*
X7892857Y42045181D01*
X8178571Y42045181D02*
X8178571Y43045181D01*
X8178571Y43045181D02*
X8083333Y42902324D01*
X8083333Y42902324D02*
X7988095Y42807086D01*
X7988095Y42807086D02*
X7892857Y42759467D01*
X2691666Y47745181D02*
X2691666Y47030896D01*
X2691666Y47030896D02*
X2644047Y46888039D01*
X2644047Y46888039D02*
X2548809Y46792800D01*
X2548809Y46792800D02*
X2405952Y46745181D01*
X2405952Y46745181D02*
X2310714Y46745181D01*
X3310714Y47316610D02*
X3215476Y47364229D01*
X3215476Y47364229D02*
X3167857Y47411848D01*
X3167857Y47411848D02*
X3120238Y47507086D01*
X3120238Y47507086D02*
X3120238Y47554705D01*
X3120238Y47554705D02*
X3167857Y47649943D01*
X3167857Y47649943D02*
X3215476Y47697562D01*
X3215476Y47697562D02*
X3310714Y47745181D01*
X3310714Y47745181D02*
X3501190Y47745181D01*
X3501190Y47745181D02*
X3596428Y47697562D01*
X3596428Y47697562D02*
X3644047Y47649943D01*
X3644047Y47649943D02*
X3691666Y47554705D01*
X3691666Y47554705D02*
X3691666Y47507086D01*
X3691666Y47507086D02*
X3644047Y47411848D01*
X3644047Y47411848D02*
X3596428Y47364229D01*
X3596428Y47364229D02*
X3501190Y47316610D01*
X3501190Y47316610D02*
X3310714Y47316610D01*
X3310714Y47316610D02*
X3215476Y47268991D01*
X3215476Y47268991D02*
X3167857Y47221372D01*
X3167857Y47221372D02*
X3120238Y47126134D01*
X3120238Y47126134D02*
X3120238Y46935658D01*
X3120238Y46935658D02*
X3167857Y46840420D01*
X3167857Y46840420D02*
X3215476Y46792800D01*
X3215476Y46792800D02*
X3310714Y46745181D01*
X3310714Y46745181D02*
X3501190Y46745181D01*
X3501190Y46745181D02*
X3596428Y46792800D01*
X3596428Y46792800D02*
X3644047Y46840420D01*
X3644047Y46840420D02*
X3691666Y46935658D01*
X3691666Y46935658D02*
X3691666Y47126134D01*
X3691666Y47126134D02*
X3644047Y47221372D01*
X3644047Y47221372D02*
X3596428Y47268991D01*
X3596428Y47268991D02*
X3501190Y47316610D01*
X8866666Y69825181D02*
X8866666Y69110896D01*
X8866666Y69110896D02*
X8819047Y68968039D01*
X8819047Y68968039D02*
X8723809Y68872800D01*
X8723809Y68872800D02*
X8580952Y68825181D01*
X8580952Y68825181D02*
X8485714Y68825181D01*
X9247619Y69825181D02*
X9914285Y69825181D01*
X9914285Y69825181D02*
X9485714Y68825181D01*
X7838095Y30407681D02*
X7838095Y29598158D01*
X7838095Y29598158D02*
X7885714Y29502920D01*
X7885714Y29502920D02*
X7933333Y29455300D01*
X7933333Y29455300D02*
X8028571Y29407681D01*
X8028571Y29407681D02*
X8219047Y29407681D01*
X8219047Y29407681D02*
X8314285Y29455300D01*
X8314285Y29455300D02*
X8361904Y29502920D01*
X8361904Y29502920D02*
X8409523Y29598158D01*
X8409523Y29598158D02*
X8409523Y30407681D01*
X8838095Y30312443D02*
X8885714Y30360062D01*
X8885714Y30360062D02*
X8980952Y30407681D01*
X8980952Y30407681D02*
X9219047Y30407681D01*
X9219047Y30407681D02*
X9314285Y30360062D01*
X9314285Y30360062D02*
X9361904Y30312443D01*
X9361904Y30312443D02*
X9409523Y30217205D01*
X9409523Y30217205D02*
X9409523Y30121967D01*
X9409523Y30121967D02*
X9361904Y29979110D01*
X9361904Y29979110D02*
X8790476Y29407681D01*
X8790476Y29407681D02*
X9409523Y29407681D01*
X3289580Y26357143D02*
X3337200Y26309524D01*
X3337200Y26309524D02*
X3384819Y26166667D01*
X3384819Y26166667D02*
X3384819Y26071429D01*
X3384819Y26071429D02*
X3337200Y25928572D01*
X3337200Y25928572D02*
X3241961Y25833334D01*
X3241961Y25833334D02*
X3146723Y25785715D01*
X3146723Y25785715D02*
X2956247Y25738096D01*
X2956247Y25738096D02*
X2813390Y25738096D01*
X2813390Y25738096D02*
X2622914Y25785715D01*
X2622914Y25785715D02*
X2527676Y25833334D01*
X2527676Y25833334D02*
X2432438Y25928572D01*
X2432438Y25928572D02*
X2384819Y26071429D01*
X2384819Y26071429D02*
X2384819Y26166667D01*
X2384819Y26166667D02*
X2432438Y26309524D01*
X2432438Y26309524D02*
X2480057Y26357143D01*
X3384819Y27309524D02*
X3384819Y26738096D01*
X3384819Y27023810D02*
X2384819Y27023810D01*
X2384819Y27023810D02*
X2527676Y26928572D01*
X2527676Y26928572D02*
X2622914Y26833334D01*
X2622914Y26833334D02*
X2670533Y26738096D01*
X2384819Y27642858D02*
X2384819Y28261905D01*
X2384819Y28261905D02*
X2765771Y27928572D01*
X2765771Y27928572D02*
X2765771Y28071429D01*
X2765771Y28071429D02*
X2813390Y28166667D01*
X2813390Y28166667D02*
X2861009Y28214286D01*
X2861009Y28214286D02*
X2956247Y28261905D01*
X2956247Y28261905D02*
X3194342Y28261905D01*
X3194342Y28261905D02*
X3289580Y28214286D01*
X3289580Y28214286D02*
X3337200Y28166667D01*
X3337200Y28166667D02*
X3384819Y28071429D01*
X3384819Y28071429D02*
X3384819Y27785715D01*
X3384819Y27785715D02*
X3337200Y27690477D01*
X3337200Y27690477D02*
X3289580Y27642858D01*
X2024819Y6833334D02*
X2024819Y6357144D01*
X2024819Y6357144D02*
X1024819Y6357144D01*
X2024819Y7690477D02*
X2024819Y7119049D01*
X2024819Y7404763D02*
X1024819Y7404763D01*
X1024819Y7404763D02*
X1167676Y7309525D01*
X1167676Y7309525D02*
X1262914Y7214287D01*
X1262914Y7214287D02*
X1310533Y7119049D01*
X4604819Y50666667D02*
X5319104Y50666667D01*
X5319104Y50666667D02*
X5461961Y50619048D01*
X5461961Y50619048D02*
X5557200Y50523810D01*
X5557200Y50523810D02*
X5604819Y50380953D01*
X5604819Y50380953D02*
X5604819Y50285715D01*
X4604819Y51571429D02*
X4604819Y51380953D01*
X4604819Y51380953D02*
X4652438Y51285715D01*
X4652438Y51285715D02*
X4700057Y51238096D01*
X4700057Y51238096D02*
X4842914Y51142858D01*
X4842914Y51142858D02*
X5033390Y51095239D01*
X5033390Y51095239D02*
X5414342Y51095239D01*
X5414342Y51095239D02*
X5509580Y51142858D01*
X5509580Y51142858D02*
X5557200Y51190477D01*
X5557200Y51190477D02*
X5604819Y51285715D01*
X5604819Y51285715D02*
X5604819Y51476191D01*
X5604819Y51476191D02*
X5557200Y51571429D01*
X5557200Y51571429D02*
X5509580Y51619048D01*
X5509580Y51619048D02*
X5414342Y51666667D01*
X5414342Y51666667D02*
X5176247Y51666667D01*
X5176247Y51666667D02*
X5081009Y51619048D01*
X5081009Y51619048D02*
X5033390Y51571429D01*
X5033390Y51571429D02*
X4985771Y51476191D01*
X4985771Y51476191D02*
X4985771Y51285715D01*
X4985771Y51285715D02*
X5033390Y51190477D01*
X5033390Y51190477D02*
X5081009Y51142858D01*
X5081009Y51142858D02*
X5176247Y51095239D01*
X4199580Y40333334D02*
X4247200Y40285715D01*
X4247200Y40285715D02*
X4294819Y40142858D01*
X4294819Y40142858D02*
X4294819Y40047620D01*
X4294819Y40047620D02*
X4247200Y39904763D01*
X4247200Y39904763D02*
X4151961Y39809525D01*
X4151961Y39809525D02*
X4056723Y39761906D01*
X4056723Y39761906D02*
X3866247Y39714287D01*
X3866247Y39714287D02*
X3723390Y39714287D01*
X3723390Y39714287D02*
X3532914Y39761906D01*
X3532914Y39761906D02*
X3437676Y39809525D01*
X3437676Y39809525D02*
X3342438Y39904763D01*
X3342438Y39904763D02*
X3294819Y40047620D01*
X3294819Y40047620D02*
X3294819Y40142858D01*
X3294819Y40142858D02*
X3342438Y40285715D01*
X3342438Y40285715D02*
X3390057Y40333334D01*
X4294819Y41285715D02*
X4294819Y40714287D01*
X4294819Y41000001D02*
X3294819Y41000001D01*
X3294819Y41000001D02*
X3437676Y40904763D01*
X3437676Y40904763D02*
X3532914Y40809525D01*
X3532914Y40809525D02*
X3580533Y40714287D01*
X1199580Y50333334D02*
X1247200Y50285715D01*
X1247200Y50285715D02*
X1294819Y50142858D01*
X1294819Y50142858D02*
X1294819Y50047620D01*
X1294819Y50047620D02*
X1247200Y49904763D01*
X1247200Y49904763D02*
X1151961Y49809525D01*
X1151961Y49809525D02*
X1056723Y49761906D01*
X1056723Y49761906D02*
X866247Y49714287D01*
X866247Y49714287D02*
X723390Y49714287D01*
X723390Y49714287D02*
X532914Y49761906D01*
X532914Y49761906D02*
X437676Y49809525D01*
X437676Y49809525D02*
X342438Y49904763D01*
X342438Y49904763D02*
X294819Y50047620D01*
X294819Y50047620D02*
X294819Y50142858D01*
X294819Y50142858D02*
X342438Y50285715D01*
X342438Y50285715D02*
X390057Y50333334D01*
X294819Y50666668D02*
X294819Y51333334D01*
X294819Y51333334D02*
X1294819Y50904763D01*
X3566666Y24295181D02*
X3566666Y23580896D01*
X3566666Y23580896D02*
X3519047Y23438039D01*
X3519047Y23438039D02*
X3423809Y23342800D01*
X3423809Y23342800D02*
X3280952Y23295181D01*
X3280952Y23295181D02*
X3185714Y23295181D01*
X3995238Y24199943D02*
X4042857Y24247562D01*
X4042857Y24247562D02*
X4138095Y24295181D01*
X4138095Y24295181D02*
X4376190Y24295181D01*
X4376190Y24295181D02*
X4471428Y24247562D01*
X4471428Y24247562D02*
X4519047Y24199943D01*
X4519047Y24199943D02*
X4566666Y24104705D01*
X4566666Y24104705D02*
X4566666Y24009467D01*
X4566666Y24009467D02*
X4519047Y23866610D01*
X4519047Y23866610D02*
X3947619Y23295181D01*
X3947619Y23295181D02*
X4566666Y23295181D01*
X1199580Y35813334D02*
X1247200Y35765715D01*
X1247200Y35765715D02*
X1294819Y35622858D01*
X1294819Y35622858D02*
X1294819Y35527620D01*
X1294819Y35527620D02*
X1247200Y35384763D01*
X1247200Y35384763D02*
X1151961Y35289525D01*
X1151961Y35289525D02*
X1056723Y35241906D01*
X1056723Y35241906D02*
X866247Y35194287D01*
X866247Y35194287D02*
X723390Y35194287D01*
X723390Y35194287D02*
X532914Y35241906D01*
X532914Y35241906D02*
X437676Y35289525D01*
X437676Y35289525D02*
X342438Y35384763D01*
X342438Y35384763D02*
X294819Y35527620D01*
X294819Y35527620D02*
X294819Y35622858D01*
X294819Y35622858D02*
X342438Y35765715D01*
X342438Y35765715D02*
X390057Y35813334D01*
X294819Y36146668D02*
X294819Y36765715D01*
X294819Y36765715D02*
X675771Y36432382D01*
X675771Y36432382D02*
X675771Y36575239D01*
X675771Y36575239D02*
X723390Y36670477D01*
X723390Y36670477D02*
X771009Y36718096D01*
X771009Y36718096D02*
X866247Y36765715D01*
X866247Y36765715D02*
X1104342Y36765715D01*
X1104342Y36765715D02*
X1199580Y36718096D01*
X1199580Y36718096D02*
X1247200Y36670477D01*
X1247200Y36670477D02*
X1294819Y36575239D01*
X1294819Y36575239D02*
X1294819Y36289525D01*
X1294819Y36289525D02*
X1247200Y36194287D01*
X1247200Y36194287D02*
X1199580Y36146668D01*
X10833333Y17715181D02*
X10500000Y18191372D01*
X10261905Y17715181D02*
X10261905Y18715181D01*
X10261905Y18715181D02*
X10642857Y18715181D01*
X10642857Y18715181D02*
X10738095Y18667562D01*
X10738095Y18667562D02*
X10785714Y18619943D01*
X10785714Y18619943D02*
X10833333Y18524705D01*
X10833333Y18524705D02*
X10833333Y18381848D01*
X10833333Y18381848D02*
X10785714Y18286610D01*
X10785714Y18286610D02*
X10738095Y18238991D01*
X10738095Y18238991D02*
X10642857Y18191372D01*
X10642857Y18191372D02*
X10261905Y18191372D01*
X11690476Y18715181D02*
X11500000Y18715181D01*
X11500000Y18715181D02*
X11404762Y18667562D01*
X11404762Y18667562D02*
X11357143Y18619943D01*
X11357143Y18619943D02*
X11261905Y18477086D01*
X11261905Y18477086D02*
X11214286Y18286610D01*
X11214286Y18286610D02*
X11214286Y17905658D01*
X11214286Y17905658D02*
X11261905Y17810420D01*
X11261905Y17810420D02*
X11309524Y17762800D01*
X11309524Y17762800D02*
X11404762Y17715181D01*
X11404762Y17715181D02*
X11595238Y17715181D01*
X11595238Y17715181D02*
X11690476Y17762800D01*
X11690476Y17762800D02*
X11738095Y17810420D01*
X11738095Y17810420D02*
X11785714Y17905658D01*
X11785714Y17905658D02*
X11785714Y18143753D01*
X11785714Y18143753D02*
X11738095Y18238991D01*
X11738095Y18238991D02*
X11690476Y18286610D01*
X11690476Y18286610D02*
X11595238Y18334229D01*
X11595238Y18334229D02*
X11404762Y18334229D01*
X11404762Y18334229D02*
X11309524Y18286610D01*
X11309524Y18286610D02*
X11261905Y18238991D01*
X11261905Y18238991D02*
X11214286Y18143753D01*
%TO.C,C11*%
D11*
X1412164Y38860000D02*
X1627836Y38860000D01*
X1412164Y38140000D02*
X1627836Y38140000D01*
%TO.C,J1*%
X9505000Y10560000D02*
X7805000Y10560000D01*
X9505000Y1220000D02*
X7805000Y1220000D01*
%TO.C,U4*%
X9952500Y15510000D02*
X11772500Y15510000D01*
X9952500Y15460000D02*
X9952500Y15510000D01*
X9952500Y12390000D02*
X9952500Y12440000D01*
X11772500Y15510000D02*
X11772500Y15460000D01*
X11772500Y14340000D02*
X11772500Y13560000D01*
X11772500Y12440000D02*
X11772500Y12390000D01*
X11772500Y12390000D02*
X9952500Y12390000D01*
X9412500Y15460000D02*
X9172500Y15790000D01*
X9652500Y15790000D01*
X9412500Y15460000D01*
G36*
X9412500Y15460000D02*
G01*
X9172500Y15790000D01*
X9652500Y15790000D01*
X9412500Y15460000D01*
G37*
%TO.C,U1*%
X3690000Y38160000D02*
X4340000Y38160000D01*
X3690000Y37510000D02*
X3690000Y38160000D01*
X3690000Y30940000D02*
X3690000Y31590000D01*
X4340000Y30940000D02*
X3690000Y30940000D01*
X10260000Y38160000D02*
X10910000Y38160000D01*
X10910000Y38160000D02*
X10910000Y37510000D01*
X10910000Y31590000D02*
X10910000Y30940000D01*
X10910000Y30940000D02*
X10260000Y30940000D01*
X3190000Y37150000D02*
X2860000Y36910000D01*
X2860000Y37390000D01*
X3190000Y37150000D01*
G36*
X3190000Y37150000D02*
G01*
X2860000Y36910000D01*
X2860000Y37390000D01*
X3190000Y37150000D01*
G37*
%TO.C,U6*%
X6952500Y21010000D02*
X8772500Y21010000D01*
X6952500Y20960000D02*
X6952500Y21010000D01*
X6952500Y17890000D02*
X6952500Y17940000D01*
X8772500Y21010000D02*
X8772500Y20960000D01*
X8772500Y19840000D02*
X8772500Y19060000D01*
X8772500Y17940000D02*
X8772500Y17890000D01*
X8772500Y17890000D02*
X6952500Y17890000D01*
X6412500Y20960000D02*
X6172500Y21290000D01*
X6652500Y21290000D01*
X6412500Y20960000D01*
G36*
X6412500Y20960000D02*
G01*
X6172500Y21290000D01*
X6652500Y21290000D01*
X6412500Y20960000D01*
G37*
%TO.C,U3*%
X9827500Y24547500D02*
X10302500Y24547500D01*
X9827500Y24072500D02*
X9827500Y24547500D01*
X9827500Y21327500D02*
X9827500Y21802500D01*
X10302500Y21327500D02*
X9827500Y21327500D01*
X12572500Y24547500D02*
X13047500Y24547500D01*
X13047500Y24547500D02*
X13047500Y24072500D01*
X13047500Y21802500D02*
X13047500Y21327500D01*
X13047500Y21327500D02*
X12572500Y21327500D01*
X9317500Y23687500D02*
X8987500Y23447500D01*
X8987500Y23927500D01*
X9317500Y23687500D01*
G36*
X9317500Y23687500D02*
G01*
X8987500Y23447500D01*
X8987500Y23927500D01*
X9317500Y23687500D01*
G37*
%TO.C,M1*%
X5100000Y58500000D02*
G75*
G02*
X900000Y58500000I-2100000J0D01*
G01*
X900000Y58500000D02*
G75*
G02*
X5100000Y58500000I2100000J0D01*
G01*
%TO.C,C6*%
X3140000Y51372164D02*
X3140000Y51587836D01*
X3860000Y51372164D02*
X3860000Y51587836D01*
%TO.C,R3*%
X12120000Y26336359D02*
X12120000Y26643641D01*
X12880000Y26336359D02*
X12880000Y26643641D01*
%TO.C,C4*%
X3640000Y54372164D02*
X3640000Y54587836D01*
X4360000Y54372164D02*
X4360000Y54587836D01*
%TO.C,C8*%
X2359420Y1510000D02*
X2640580Y1510000D01*
X2359420Y490000D02*
X2640580Y490000D01*
%TO.C,R1*%
X10846359Y18380000D02*
X11153641Y18380000D01*
X10846359Y17620000D02*
X11153641Y17620000D01*
%TO.C,U5*%
X4590000Y15560000D02*
X6410000Y15560000D01*
X4590000Y15510000D02*
X4590000Y15560000D01*
X4590000Y12440000D02*
X4590000Y12490000D01*
X6410000Y15560000D02*
X6410000Y15510000D01*
X6410000Y14390000D02*
X6410000Y13610000D01*
X6410000Y12490000D02*
X6410000Y12440000D01*
X6410000Y12440000D02*
X4590000Y12440000D01*
X4050000Y15510000D02*
X3810000Y15840000D01*
X4290000Y15840000D01*
X4050000Y15510000D01*
G36*
X4050000Y15510000D02*
G01*
X3810000Y15840000D01*
X4290000Y15840000D01*
X4050000Y15510000D01*
G37*
%TO.C,J3*%
X4930000Y27960000D02*
X3870000Y27960000D01*
X4930000Y24320000D02*
X3870000Y24320000D01*
%TO.C,C10*%
X1640000Y52872164D02*
X1640000Y53087836D01*
X2360000Y52872164D02*
X2360000Y53087836D01*
%TO.C,R7*%
X620000Y6346359D02*
X620000Y6653641D01*
X1380000Y6346359D02*
X1380000Y6653641D01*
%TO.C,R4*%
X2120000Y54856359D02*
X2120000Y55163641D01*
X2880000Y54856359D02*
X2880000Y55163641D01*
%TO.C,C9*%
X2634420Y4010000D02*
X2915580Y4010000D01*
X2634420Y2990000D02*
X2915580Y2990000D01*
%TO.C,R5*%
X11153641Y19880000D02*
X10846359Y19880000D01*
X11153641Y19120000D02*
X10846359Y19120000D01*
%TO.C,C2*%
X11140000Y40087836D02*
X11140000Y39872164D01*
X11860000Y40087836D02*
X11860000Y39872164D01*
%TO.C,R2*%
X12620000Y18356359D02*
X12620000Y18663641D01*
X13380000Y18356359D02*
X13380000Y18663641D01*
%TO.C,C5*%
X4640000Y55412164D02*
X4640000Y55627836D01*
X5360000Y55412164D02*
X5360000Y55627836D01*
%TO.C,REF\u002A\u002A*%
X800000Y12200000D02*
X3200000Y12200000D01*
X800000Y9800000D02*
X800000Y12200000D01*
X3200000Y12200000D02*
X3200000Y9800000D01*
X3200000Y9800000D02*
X800000Y9800000D01*
%TO.C,C12*%
X1547164Y41360000D02*
X1762836Y41360000D01*
X1547164Y40640000D02*
X1762836Y40640000D01*
%TO.C,Y1*%
X7075000Y41375000D02*
X8425000Y41375000D01*
X7075000Y39625000D02*
X8425000Y39625000D01*
%TO.C,J8*%
X1665000Y45400000D02*
X1665000Y44760000D01*
X1665000Y44760000D02*
X1035000Y44760000D01*
X1665000Y42600000D02*
X1665000Y43240000D01*
X4385000Y45350000D02*
X4385000Y42650000D01*
%TO.C,U2*%
X6990000Y28672500D02*
X7465000Y28672500D01*
X6990000Y28197500D02*
X6990000Y28672500D01*
X6990000Y25452500D02*
X6990000Y25927500D01*
X7465000Y25452500D02*
X6990000Y25452500D01*
X9735000Y28672500D02*
X10210000Y28672500D01*
X10210000Y28672500D02*
X10210000Y28197500D01*
X10210000Y25927500D02*
X10210000Y25452500D01*
X10210000Y25452500D02*
X9735000Y25452500D01*
X6480000Y27812500D02*
X6150000Y27572500D01*
X6150000Y28052500D01*
X6480000Y27812500D01*
G36*
X6480000Y27812500D02*
G01*
X6150000Y27572500D01*
X6150000Y28052500D01*
X6480000Y27812500D01*
G37*
%TO.C,C13*%
X990000Y27140580D02*
X990000Y26859420D01*
X2010000Y27140580D02*
X2010000Y26859420D01*
%TO.C,L1*%
X2490000Y6837221D02*
X2490000Y7162779D01*
X3510000Y6837221D02*
X3510000Y7162779D01*
%TO.C,J6*%
X7550000Y58650000D02*
X8890000Y58650000D01*
X7550000Y57160000D02*
X7550000Y58650000D01*
X7550000Y44840000D02*
X6350000Y44840000D01*
X7550000Y44840000D02*
X7550000Y43350000D01*
X7550000Y43350000D02*
X8890000Y43350000D01*
X11610000Y43350000D02*
X13350000Y43350000D01*
X13350000Y58650000D02*
X11610000Y58650000D01*
X13350000Y43350000D02*
X13350000Y58650000D01*
%TO.C,C14*%
X990000Y23634420D02*
X990000Y23915580D01*
X2010000Y23634420D02*
X2010000Y23915580D01*
%TO.C,C1*%
X4640000Y40392164D02*
X4640000Y40607836D01*
X5360000Y40392164D02*
X5360000Y40607836D01*
%TO.C,C7*%
X1640000Y50392164D02*
X1640000Y50607836D01*
X2360000Y50392164D02*
X2360000Y50607836D01*
%TO.C,J2*%
X4400000Y22870000D02*
X3400000Y22870000D01*
X4400000Y18630000D02*
X3400000Y18630000D01*
%TO.C,C3*%
X1640000Y35872164D02*
X1640000Y36087836D01*
X2360000Y35872164D02*
X2360000Y36087836D01*
%TO.C,R6*%
X10846359Y17380000D02*
X11153641Y17380000D01*
X10846359Y16620000D02*
X11153641Y16620000D01*
%TD*%
M02*
