%TF.GenerationSoftware,KiCad,Pcbnew,10.0.5*%
%TF.CreationDate,2026-09-14T14:41:57-05:00*%
%TF.ProjectId,arc-insight-board,6172632d-696e-4736-9967-68742d626f61,rev?*%
%TF.SameCoordinates,PX7d687e0PY87e60a0*%
%TF.FileFunction,Soldermask,Top*%
%TF.FilePolarity,Negative*%
%FSLAX46Y46*%
G04 Gerber Fmt 4.6, Leading zero omitted, Abs format (unit mm)*
G04 Created by KiCad (PCBNEW 10.0.5) date 2026-09-14 14:41:57*
%MOMM*%
%LPD*%
G01*
G04 APERTURE LIST*
G04 Aperture macros list*
%AMRoundRect*
0 Rectangle with rounded corners*
0 $1 Rounding radius*
0 $2 $3 $4 $5 $6 $7 $8 $9 X,Y pos of 4 corners*
0 Add a 4 corners polygon primitive as box body*
4,1,4,$2,$3,$4,$5,$6,$7,$8,$9,$2,$3,0*
0 Add four circle primitives for the rounded corners*
1,1,$1+$1,$2,$3*
1,1,$1+$1,$4,$5*
1,1,$1+$1,$6,$7*
1,1,$1+$1,$8,$9*
0 Add four rect primitives between the rounded corners*
20,1,$1+$1,$2,$3,$4,$5,0*
20,1,$1+$1,$4,$5,$6,$7,0*
20,1,$1+$1,$6,$7,$8,$9,0*
20,1,$1+$1,$8,$9,$2,$3,0*%
%AMFreePoly0*
4,1,88,0.050959,0.371253,0.114455,0.371253,0.341408,0.341374,0.562519,0.282128,0.774005,0.194527,0.972248,0.080072,1.153855,-0.059280,1.315720,-0.221145,1.455072,-0.402752,1.569527,-0.600995,1.657128,-0.812481,1.716374,-1.033592,1.746253,-1.260545,1.746253,-1.489455,1.716374,-1.716408,1.657128,-1.937519,1.569527,-2.149005,1.455072,-2.347248,1.315720,-2.528855,1.153855,-2.690720,
0.972248,-2.830072,0.774005,-2.944527,0.562519,-3.032128,0.341408,-3.091374,0.114455,-3.121253,-0.114455,-3.121253,-0.341408,-3.091374,-0.562519,-3.032128,-0.774005,-2.944527,-0.972248,-2.830072,-1.153855,-2.690720,-1.315720,-2.528855,-1.455072,-2.347248,-1.569527,-2.149005,-1.657128,-1.937519,-1.716374,-1.716408,-1.746253,-1.489455,-1.746253,-1.276509,-1.000000,-1.276509,-1.000000,-1.473491,
-0.961571,-1.666689,-0.886189,-1.848678,-0.776751,-2.012463,-0.637463,-2.151751,-0.473678,-2.261189,-0.291689,-2.336571,-0.098491,-2.375000,0.098491,-2.375000,0.291689,-2.336571,0.473678,-2.261189,0.637463,-2.151751,0.776751,-2.012463,0.886189,-1.848678,0.961571,-1.666689,1.000000,-1.473491,1.000000,-1.276509,0.961571,-1.083311,0.886189,-0.901322,0.776751,-0.737537,0.637463,-0.598249,
0.473678,-0.488811,0.291689,-0.413429,0.098491,-0.375000,-0.098491,-0.375000,-0.291689,-0.413429,-0.473678,-0.488811,-0.637463,-0.598249,-0.776751,-0.737537,-0.886189,-0.901322,-0.961571,-1.083311,-1.000000,-1.276509,-1.746253,-1.276509,-1.746253,-1.260545,-1.716374,-1.033592,-1.657128,-0.812481,-1.569527,-0.600995,-1.455072,-0.402752,-1.315720,-0.221145,-1.153855,-0.059280,-0.972248,0.080072,
-0.774005,0.194527,-0.562519,0.282128,-0.341408,0.341374,-0.114455,0.371253,-0.050959,0.371253,-0.048947,0.371792,0.048947,0.371792,0.050959,0.371253,0.050959,0.371253,$1*%
G04 Aperture macros list end*
%ADD10RoundRect,0.140000X-0.140000X-0.170000X0.140000X-0.170000X0.140000X0.170000X-0.140000X0.170000X0*%
%ADD11C,0.650000*%
%ADD12RoundRect,0.150000X0.425000X-0.150000X0.425000X0.150000X-0.425000X0.150000X-0.425000X-0.150000X0*%
%ADD13RoundRect,0.075000X0.500000X-0.075000X0.500000X0.075000X-0.500000X0.075000X-0.500000X-0.075000X0*%
%ADD14O,2.100000X1.000000*%
%ADD15O,1.800000X1.000000*%
%ADD16RoundRect,0.150000X-0.512500X-0.150000X0.512500X-0.150000X0.512500X0.150000X-0.512500X0.150000X0*%
%ADD17RoundRect,0.147500X-0.147500X-0.172500X0.147500X-0.172500X0.147500X0.172500X-0.147500X0.172500X0*%
%ADD18RoundRect,0.250000X-0.825000X-0.825000X0.825000X-0.825000X0.825000X0.825000X-0.825000X0.825000X0*%
%ADD19C,2.150000*%
%ADD20RoundRect,0.050000X-0.350000X-0.050000X0.350000X-0.050000X0.350000X0.050000X-0.350000X0.050000X0*%
%ADD21RoundRect,0.050000X-0.050000X-0.350000X0.050000X-0.350000X0.050000X0.350000X-0.050000X0.350000X0*%
%ADD22R,4.000000X4.000000*%
%ADD23RoundRect,0.062500X-0.350000X-0.062500X0.350000X-0.062500X0.350000X0.062500X-0.350000X0.062500X0*%
%ADD24RoundRect,0.062500X-0.062500X-0.350000X0.062500X-0.350000X0.062500X0.350000X-0.062500X0.350000X0*%
%ADD25R,1.230000X1.230000*%
%ADD26FreePoly0,0.000000*%
%ADD27C,1.000000*%
%ADD28RoundRect,0.140000X0.170000X-0.140000X0.170000X0.140000X-0.170000X0.140000X-0.170000X-0.140000X0*%
%ADD29RoundRect,0.135000X0.185000X-0.135000X0.185000X0.135000X-0.185000X0.135000X-0.185000X-0.135000X0*%
%ADD30RoundRect,0.225000X-0.225000X-0.250000X0.225000X-0.250000X0.225000X0.250000X-0.225000X0.250000X0*%
%ADD31RoundRect,0.135000X-0.135000X-0.185000X0.135000X-0.185000X0.135000X0.185000X-0.135000X0.185000X0*%
%ADD32R,0.800000X0.480000*%
%ADD33R,0.800000X0.320000*%
%ADD34RoundRect,0.250000X0.825000X-0.825000X0.825000X0.825000X-0.825000X0.825000X-0.825000X-0.825000X0*%
%ADD35RoundRect,0.135000X0.135000X0.185000X-0.135000X0.185000X-0.135000X-0.185000X0.135000X-0.185000X0*%
%ADD36RoundRect,0.140000X-0.170000X0.140000X-0.170000X-0.140000X0.170000X-0.140000X0.170000X0.140000X0*%
%ADD37R,2.000000X2.000000*%
%ADD38R,1.000000X1.800000*%
%ADD39RoundRect,0.250000X-0.275000X-0.250000X0.275000X-0.250000X0.275000X0.250000X-0.275000X0.250000X0*%
%ADD40RoundRect,0.250000X-0.850000X-0.275000X0.850000X-0.275000X0.850000X0.275000X-0.850000X0.275000X0*%
%ADD41RoundRect,0.225000X-0.250000X0.225000X-0.250000X-0.225000X0.250000X-0.225000X0.250000X0.225000X0*%
%ADD42RoundRect,0.218750X0.256250X-0.218750X0.256250X0.218750X-0.256250X0.218750X-0.256250X-0.218750X0*%
%ADD43R,1.300000X0.300000*%
%ADD44R,2.200000X1.800000*%
%ADD45RoundRect,0.225000X0.250000X-0.225000X0.250000X0.225000X-0.250000X0.225000X-0.250000X-0.225000X0*%
%ADD46R,0.800000X0.300000*%
G04 APERTURE END LIST*
%TO.C,J8*%
G36*
X2035000Y44940000D02*
G01*
X4125000Y44940000D01*
X4125000Y43060000D01*
X2035000Y43060000D01*
X2035000Y44940000D01*
G37*
%TD*%
D10*
%TO.C,C11*%
X1040000Y38500000D03*
X2000000Y38500000D03*
%TD*%
D11*
%TO.C,J1*%
X7000000Y3000000D03*
X7000000Y8780000D03*
D12*
X5925000Y2690000D03*
X5925000Y3490000D03*
D13*
X5925000Y4640000D03*
X5925000Y5640000D03*
X5925000Y6140000D03*
X5925000Y7140000D03*
D12*
X5925000Y8290000D03*
X5925000Y9090000D03*
X5925000Y9090000D03*
X5925000Y8290000D03*
D13*
X5925000Y7640000D03*
X5925000Y6640000D03*
X5925000Y5140000D03*
X5925000Y4140000D03*
D12*
X5925000Y3490000D03*
X5925000Y2690000D03*
D14*
X6500000Y1570000D03*
D15*
X10680000Y1570000D03*
D14*
X6500000Y10210000D03*
D15*
X10680000Y10210000D03*
%TD*%
D16*
%TO.C,U4*%
X9725000Y14900000D03*
X9725000Y13950000D03*
X9725000Y13000000D03*
X12000000Y13000000D03*
X12000000Y14900000D03*
%TD*%
D17*
%TO.C,L2*%
X1500000Y40000000D03*
X2470000Y40000000D03*
%TD*%
D18*
%TO.C,J4*%
X6500000Y62500000D03*
D19*
X11100000Y62500000D03*
%TD*%
D20*
%TO.C,U1*%
X3850000Y37150000D03*
X3850000Y36750000D03*
X3850000Y36350000D03*
X3850000Y35950000D03*
X3850000Y35550000D03*
X3850000Y35150000D03*
X3850000Y34750000D03*
X3850000Y34350000D03*
X3850000Y33950000D03*
X3850000Y33550000D03*
X3850000Y33150000D03*
X3850000Y32750000D03*
X3850000Y32350000D03*
X3850000Y31950000D03*
D21*
X4700000Y31100000D03*
X5100000Y31100000D03*
X5500000Y31100000D03*
X5900000Y31100000D03*
X6300000Y31100000D03*
X6700000Y31100000D03*
X7100000Y31100000D03*
X7500000Y31100000D03*
X7900000Y31100000D03*
X8300000Y31100000D03*
X8700000Y31100000D03*
X9100000Y31100000D03*
X9500000Y31100000D03*
X9900000Y31100000D03*
D20*
X10750000Y31950000D03*
X10750000Y32350000D03*
X10750000Y32750000D03*
X10750000Y33150000D03*
X10750000Y33550000D03*
X10750000Y33950000D03*
X10750000Y34350000D03*
X10750000Y34750000D03*
X10750000Y35150000D03*
X10750000Y35550000D03*
X10750000Y35950000D03*
X10750000Y36350000D03*
X10750000Y36750000D03*
X10750000Y37150000D03*
D21*
X9900000Y38000000D03*
X9500000Y38000000D03*
X9100000Y38000000D03*
X8700000Y38000000D03*
X8300000Y38000000D03*
X7900000Y38000000D03*
X7500000Y38000000D03*
X7100000Y38000000D03*
X6700000Y38000000D03*
X6300000Y38000000D03*
X5900000Y38000000D03*
X5500000Y38000000D03*
X5100000Y38000000D03*
X4700000Y38000000D03*
D22*
X7300000Y34550000D03*
%TD*%
D16*
%TO.C,U6*%
X6725000Y20400000D03*
X6725000Y19450000D03*
X6725000Y18500000D03*
X9000000Y18500000D03*
X9000000Y20400000D03*
%TD*%
D23*
%TO.C,U3*%
X10000000Y23687500D03*
X10000000Y23187500D03*
X10000000Y22687500D03*
X10000000Y22187500D03*
D24*
X10687500Y21500000D03*
X11187500Y21500000D03*
X11687500Y21500000D03*
X12187500Y21500000D03*
D23*
X12875000Y22187500D03*
X12875000Y22687500D03*
X12875000Y23187500D03*
X12875000Y23687500D03*
D24*
X12187500Y24375000D03*
X11687500Y24375000D03*
X11187500Y24375000D03*
X10687500Y24375000D03*
D25*
X11437500Y22937500D03*
%TD*%
D26*
%TO.C,M1*%
X3000000Y59875000D03*
D27*
X3000000Y58500000D03*
%TD*%
D28*
%TO.C,C6*%
X3500000Y51000000D03*
X3500000Y51960000D03*
%TD*%
D29*
%TO.C,R3*%
X12500000Y25980000D03*
X12500000Y27000000D03*
%TD*%
D28*
%TO.C,C4*%
X4000000Y54000000D03*
X4000000Y54960000D03*
%TD*%
D30*
%TO.C,C8*%
X1725000Y1000000D03*
X3275000Y1000000D03*
%TD*%
D31*
%TO.C,R1*%
X10490000Y18000000D03*
X11510000Y18000000D03*
%TD*%
D16*
%TO.C,U5*%
X4362500Y14950000D03*
X4362500Y14000000D03*
X4362500Y13050000D03*
X6637500Y13050000D03*
X6637500Y14950000D03*
%TD*%
D32*
%TO.C,J3*%
X3500000Y27500000D03*
D33*
X3500000Y26780000D03*
X3500000Y26140000D03*
X3500000Y25500000D03*
D32*
X3500000Y24780000D03*
X5300000Y24780000D03*
D33*
X5300000Y25500000D03*
X5300000Y26140000D03*
X5300000Y26780000D03*
D32*
X5300000Y27500000D03*
%TD*%
D28*
%TO.C,C10*%
X2000000Y52500000D03*
X2000000Y53460000D03*
%TD*%
D34*
%TO.C,J5*%
X2500000Y62700000D03*
D19*
X2500000Y67300000D03*
%TD*%
D29*
%TO.C,R7*%
X1000000Y5990000D03*
X1000000Y7010000D03*
%TD*%
%TO.C,R4*%
X2500000Y54500000D03*
X2500000Y55520000D03*
%TD*%
D30*
%TO.C,C9*%
X2000000Y3500000D03*
X3550000Y3500000D03*
%TD*%
D35*
%TO.C,R5*%
X11510000Y19500000D03*
X10490000Y19500000D03*
%TD*%
D36*
%TO.C,C2*%
X11500000Y40460000D03*
X11500000Y39500000D03*
%TD*%
D29*
%TO.C,R2*%
X13000000Y18000000D03*
X13000000Y19020000D03*
%TD*%
D28*
%TO.C,C5*%
X5000000Y55040000D03*
X5000000Y56000000D03*
%TD*%
D37*
%TO.C,REF\u002A\u002A*%
X2000000Y11000000D03*
%TD*%
D10*
%TO.C,C12*%
X1175000Y41000000D03*
X2135000Y41000000D03*
%TD*%
D38*
%TO.C,Y1*%
X9000000Y40500000D03*
X6500000Y40500000D03*
%TD*%
D39*
%TO.C,J8*%
X1500000Y44000000D03*
D40*
X3025000Y45475000D03*
X3025000Y42525000D03*
%TD*%
D18*
%TO.C,J7*%
X6900000Y67000000D03*
D19*
X11500000Y67000000D03*
%TD*%
D23*
%TO.C,U2*%
X7162500Y27812500D03*
X7162500Y27312500D03*
X7162500Y26812500D03*
X7162500Y26312500D03*
D24*
X7850000Y25625000D03*
X8350000Y25625000D03*
X8850000Y25625000D03*
X9350000Y25625000D03*
D23*
X10037500Y26312500D03*
X10037500Y26812500D03*
X10037500Y27312500D03*
X10037500Y27812500D03*
D24*
X9350000Y28500000D03*
X8850000Y28500000D03*
X8350000Y28500000D03*
X7850000Y28500000D03*
D25*
X8600000Y27062500D03*
%TD*%
D41*
%TO.C,C13*%
X1500000Y27775000D03*
X1500000Y26225000D03*
%TD*%
D42*
%TO.C,L1*%
X3000000Y6212500D03*
X3000000Y7787500D03*
%TD*%
D43*
%TO.C,J6*%
X7000000Y45250000D03*
X7000000Y45750000D03*
X7000000Y46250000D03*
X7000000Y46750000D03*
X7000000Y47250000D03*
X7000000Y47750000D03*
X7000000Y48250000D03*
X7000000Y48750000D03*
X7000000Y49250000D03*
X7000000Y49750000D03*
X7000000Y50250000D03*
X7000000Y50750000D03*
X7000000Y51250000D03*
X7000000Y51750000D03*
X7000000Y52250000D03*
X7000000Y52750000D03*
X7000000Y53250000D03*
X7000000Y53750000D03*
X7000000Y54250000D03*
X7000000Y54750000D03*
X7000000Y55250000D03*
X7000000Y55750000D03*
X7000000Y56250000D03*
X7000000Y56750000D03*
D44*
X10250000Y43350000D03*
X10250000Y58650000D03*
%TD*%
D45*
%TO.C,C14*%
X1500000Y23000000D03*
X1500000Y24550000D03*
%TD*%
D28*
%TO.C,C1*%
X5000000Y40020000D03*
X5000000Y40980000D03*
%TD*%
%TO.C,C7*%
X2000000Y50020000D03*
X2000000Y50980000D03*
%TD*%
D46*
%TO.C,J2*%
X3000000Y22500000D03*
X3000000Y22000000D03*
X3000000Y21500000D03*
X3000000Y21000000D03*
X3000000Y20500000D03*
X3000000Y20000000D03*
X3000000Y19500000D03*
X3000000Y19000000D03*
X4800000Y19000000D03*
X4800000Y19500000D03*
X4800000Y20000000D03*
X4800000Y20500000D03*
X4800000Y21000000D03*
X4800000Y21500000D03*
X4800000Y22000000D03*
X4800000Y22500000D03*
%TD*%
D28*
%TO.C,C3*%
X2000000Y35500000D03*
X2000000Y36460000D03*
%TD*%
D31*
%TO.C,R6*%
X10490000Y17000000D03*
X11510000Y17000000D03*
%TD*%
M02*
