%TF.GenerationSoftware,KiCad,Pcbnew,10.0.5*%
%TF.CreationDate,2026-10-07T20:36:25-05:00*%
%TF.ProjectId,arc-insight-board,6172632d-696e-4736-9967-68742d626f61,rev?*%
%TF.SameCoordinates,Original*%
%TF.FileFunction,Legend,Bot*%
%TF.FilePolarity,Positive*%
%FSLAX46Y46*%
G04 Gerber Fmt 4.6, Leading zero omitted, Abs format (unit mm)*
G04 Created by KiCad (PCBNEW 10.0.5) date 2026-10-07 20:36:25*
%MOMM*%
%LPD*%
G01*
G04 APERTURE LIST*
%ADD10C,0.100000*%
G04 APERTURE END LIST*
D10*
G36*
X142551256Y-122562203D02*
G01*
X142551256Y-123574467D01*
X139550000Y-124703785D01*
X139550000Y-123754902D01*
X140042393Y-123609272D01*
X140042393Y-123408504D01*
X140687194Y-123408504D01*
X141770350Y-123078593D01*
X140687194Y-122746667D01*
X140687194Y-123408504D01*
X140042393Y-123408504D01*
X140042393Y-122551945D01*
X139550000Y-122404300D01*
X139550000Y-121432885D01*
X142551256Y-122562203D01*
G37*
G36*
X140417367Y-118616643D02*
G01*
X140604945Y-118746885D01*
X140714087Y-118840881D01*
X140763581Y-118895446D01*
X140814752Y-118984157D01*
X140874956Y-119137247D01*
X140931535Y-118943165D01*
X140993658Y-118811366D01*
X141077101Y-118695061D01*
X141174639Y-118597964D01*
X141287299Y-118518457D01*
X141412140Y-118460475D01*
X141554560Y-118424447D01*
X141718143Y-118411845D01*
X141904893Y-118428310D01*
X142065295Y-118475303D01*
X142204309Y-118551247D01*
X142324133Y-118654636D01*
X142414452Y-118775996D01*
X142477616Y-118917978D01*
X142515111Y-119072392D01*
X142541290Y-119286635D01*
X142551256Y-119575785D01*
X142551256Y-121123124D01*
X139550000Y-121123124D01*
X139550000Y-120190544D01*
X140769260Y-120190544D01*
X140769260Y-120108661D01*
X140751684Y-119987653D01*
X140699651Y-119881149D01*
X140626882Y-119810975D01*
X140607578Y-119799084D01*
X141331995Y-119799084D01*
X141331995Y-120190544D01*
X141941625Y-120190544D01*
X141941625Y-119782780D01*
X141930413Y-119613260D01*
X141902421Y-119503729D01*
X141863773Y-119436566D01*
X141806175Y-119386324D01*
X141733424Y-119355335D01*
X141640840Y-119344242D01*
X141547995Y-119358950D01*
X141467001Y-119402677D01*
X141405533Y-119469702D01*
X141372845Y-119553253D01*
X141331995Y-119799084D01*
X140607578Y-119799084D01*
X140468108Y-119713171D01*
X139550000Y-119217114D01*
X139550000Y-118167847D01*
X140417367Y-118616643D01*
G37*
G36*
X140780983Y-115946397D02*
G01*
X140534237Y-115132702D01*
X140312512Y-115200476D01*
X140124062Y-115286960D01*
X139964541Y-115390989D01*
X139824131Y-115518425D01*
X139709634Y-115663683D01*
X139619426Y-115828611D01*
X139557861Y-116006644D01*
X139517678Y-116225607D01*
X139503105Y-116493562D01*
X139520971Y-116818719D01*
X139570035Y-117081993D01*
X139644888Y-117293885D01*
X139725821Y-117438744D01*
X139833778Y-117575869D01*
X139971728Y-117706161D01*
X140143693Y-117829876D01*
X140324952Y-117924356D01*
X140534504Y-117994776D01*
X140776981Y-118039415D01*
X141057772Y-118055190D01*
X141359995Y-118037011D01*
X141619455Y-117985639D01*
X141842459Y-117904587D01*
X142034329Y-117795609D01*
X142199180Y-117658600D01*
X142337676Y-117494189D01*
X142447397Y-117304175D01*
X142528684Y-117084735D01*
X142580029Y-116830868D01*
X142598150Y-116536610D01*
X142581600Y-116248815D01*
X142535495Y-116008986D01*
X142463961Y-115809568D01*
X142369356Y-115644146D01*
X142245016Y-115497400D01*
X142089513Y-115368089D01*
X141898603Y-115255803D01*
X141666669Y-115161461D01*
X141484403Y-115981202D01*
X141610975Y-116028806D01*
X141685170Y-116071327D01*
X141779885Y-116158418D01*
X141849118Y-116262020D01*
X141891773Y-116379844D01*
X141906454Y-116514078D01*
X141889875Y-116665900D01*
X141842473Y-116794020D01*
X141764726Y-116903624D01*
X141653114Y-116997679D01*
X141520879Y-117062605D01*
X141330373Y-117107542D01*
X141062901Y-117124808D01*
X140801099Y-117112151D01*
X140609791Y-117079004D01*
X140473626Y-117031352D01*
X140379631Y-116973133D01*
X140299792Y-116890956D01*
X140242717Y-116794624D01*
X140207289Y-116681314D01*
X140194801Y-116546868D01*
X140213344Y-116375663D01*
X140264266Y-116244614D01*
X140344827Y-116144234D01*
X140452166Y-116066234D01*
X140594842Y-115999599D01*
X140780983Y-115946397D01*
G37*
G36*
X140968562Y-114896763D02*
G01*
X140968562Y-113683548D01*
X140323761Y-113683548D01*
X140323761Y-114896763D01*
X140968562Y-114896763D01*
G37*
G36*
X142551256Y-113246475D02*
G01*
X142551256Y-112316093D01*
X139550000Y-112316093D01*
X139550000Y-113246475D01*
X142551256Y-113246475D01*
G37*
G36*
X141730600Y-111706280D02*
G01*
X141730600Y-110929588D01*
X141373028Y-110929588D01*
X141511113Y-110806176D01*
X141612879Y-110689051D01*
X141684071Y-110577145D01*
X141734360Y-110454798D01*
X141766203Y-110311312D01*
X141777494Y-110142637D01*
X141763307Y-109971311D01*
X141723225Y-109826942D01*
X141659296Y-109704585D01*
X141571231Y-109600601D01*
X141463621Y-109520338D01*
X141326432Y-109459296D01*
X141152871Y-109419371D01*
X140934490Y-109404780D01*
X139550000Y-109404780D01*
X139550000Y-110243021D01*
X140746179Y-110243021D01*
X140881362Y-110253409D01*
X140974175Y-110280173D01*
X141035973Y-110318859D01*
X141082204Y-110374589D01*
X141110764Y-110444262D01*
X141120969Y-110532083D01*
X141107944Y-110627807D01*
X141070190Y-110708557D01*
X141006297Y-110778096D01*
X140923306Y-110825240D01*
X140792320Y-110858913D01*
X140594504Y-110872252D01*
X139550000Y-110872252D01*
X139550000Y-111706280D01*
X141730600Y-111706280D01*
G37*
G36*
X140147906Y-109054719D02*
G01*
X140229972Y-108226919D01*
X140101369Y-108162389D01*
X140022609Y-108083487D01*
X139977226Y-107980935D01*
X139960327Y-107837473D01*
X139979893Y-107682257D01*
X140031585Y-107577355D01*
X140092311Y-107522933D01*
X140164026Y-107505547D01*
X140218351Y-107515611D01*
X140263761Y-107545626D01*
X140302695Y-107599703D01*
X140334491Y-107695274D01*
X140388241Y-107958374D01*
X140468564Y-108358653D01*
X140528192Y-108561959D01*
X140580738Y-108668024D01*
X140652910Y-108762551D01*
X140746545Y-108846807D01*
X140853799Y-108911129D01*
X140969683Y-108949520D01*
X141096973Y-108962578D01*
X141236047Y-108948224D01*
X141358488Y-108906583D01*
X141467916Y-108837648D01*
X141561127Y-108746090D01*
X141638665Y-108632480D01*
X141700558Y-108493265D01*
X141740490Y-108344805D01*
X141767470Y-108151904D01*
X141777494Y-107905068D01*
X141759710Y-107541252D01*
X141717594Y-107330242D01*
X141640066Y-107158217D01*
X141531847Y-107020847D01*
X141389517Y-106910813D01*
X141191311Y-106814767D01*
X141120969Y-107605931D01*
X141210132Y-107648263D01*
X141268797Y-107708330D01*
X141315487Y-107814325D01*
X141331995Y-107946100D01*
X141317592Y-108075782D01*
X141281987Y-108152180D01*
X141225693Y-108201100D01*
X141160720Y-108216660D01*
X141092125Y-108196951D01*
X141040553Y-108134595D01*
X141006863Y-108028175D01*
X140967096Y-107778122D01*
X140905478Y-107389950D01*
X140836488Y-107159333D01*
X140770704Y-107031405D01*
X140691169Y-106929071D01*
X140597618Y-106848839D01*
X140490105Y-106788715D01*
X140377153Y-106753114D01*
X140256533Y-106741128D01*
X140134496Y-106753356D01*
X140013363Y-106790562D01*
X139891085Y-106854884D01*
X139784417Y-106941499D01*
X139690139Y-107059099D01*
X139608251Y-107213555D01*
X139553638Y-107380401D01*
X139516811Y-107598772D01*
X139503105Y-107880521D01*
X139516749Y-108192676D01*
X139552975Y-108428673D01*
X139605791Y-108603442D01*
X139670900Y-108729937D01*
X139763677Y-108845143D01*
X139872682Y-108936687D01*
X139999745Y-109006464D01*
X140147906Y-109054719D01*
G37*
G36*
X142551256Y-106311933D02*
G01*
X142551256Y-105477904D01*
X141988520Y-105477904D01*
X141988520Y-106311933D01*
X142551256Y-106311933D01*
G37*
G36*
X141730600Y-106311933D02*
G01*
X141730600Y-105477904D01*
X139550000Y-105477904D01*
X139550000Y-106311933D01*
X141730600Y-106311933D01*
G37*
G36*
X139667053Y-102649389D02*
G01*
X141730600Y-102649389D01*
X141730600Y-103430111D01*
X141404535Y-103430111D01*
X141530508Y-103533129D01*
X141624345Y-103635744D01*
X141690849Y-103738590D01*
X141736984Y-103851798D01*
X141766759Y-103989796D01*
X141777494Y-104157711D01*
X141759901Y-104352155D01*
X141709382Y-104521226D01*
X141627157Y-104669781D01*
X141511514Y-104801229D01*
X141372690Y-104903479D01*
X141202242Y-104980032D01*
X140993549Y-105029299D01*
X140738302Y-105047060D01*
X140514553Y-105033601D01*
X140324204Y-104995726D01*
X140162194Y-104936234D01*
X140024258Y-104856550D01*
X139883347Y-104738477D01*
X139778004Y-104610762D01*
X139703976Y-104472148D01*
X139659164Y-104320197D01*
X139643789Y-104151482D01*
X139655185Y-104005129D01*
X139688902Y-103867072D01*
X139696050Y-103850331D01*
X140206524Y-103850331D01*
X140219646Y-103954519D01*
X140257276Y-104041249D01*
X140319914Y-104114663D01*
X140401769Y-104167132D01*
X140514802Y-104201965D01*
X140668876Y-104215047D01*
X140846008Y-104202041D01*
X140969121Y-104168414D01*
X141052276Y-104119792D01*
X141116280Y-104049424D01*
X141154533Y-103965781D01*
X141167864Y-103864619D01*
X141153918Y-103763610D01*
X141112764Y-103674560D01*
X141042018Y-103594059D01*
X140951868Y-103535383D01*
X140833573Y-103497390D01*
X140678951Y-103483417D01*
X140524060Y-103497012D01*
X140408911Y-103533476D01*
X140324127Y-103588930D01*
X140258326Y-103665599D01*
X140219703Y-103751606D01*
X140206524Y-103850331D01*
X139696050Y-103850331D01*
X139745088Y-103735476D01*
X139825370Y-103617511D01*
X139953550Y-103489645D01*
X139621624Y-103489645D01*
X139462346Y-103501949D01*
X139354312Y-103533488D01*
X139283469Y-103578855D01*
X139231766Y-103644473D01*
X139198713Y-103731932D01*
X139186566Y-103848133D01*
X139203581Y-103978878D01*
X139251046Y-104079675D01*
X139308057Y-104132331D01*
X139409316Y-104174014D01*
X139503105Y-104983679D01*
X139391181Y-104987709D01*
X139229093Y-104971669D01*
X139088963Y-104925565D01*
X138966282Y-104850083D01*
X138858121Y-104742794D01*
X138781642Y-104618357D01*
X138719079Y-104438554D01*
X138675594Y-104186463D01*
X138659002Y-103842088D01*
X138672653Y-103563731D01*
X138710476Y-103332841D01*
X138780130Y-103125070D01*
X138877172Y-102966111D01*
X139008036Y-102837493D01*
X139178506Y-102734569D01*
X139369498Y-102669177D01*
X139570333Y-102647374D01*
X139667053Y-102649389D01*
G37*
G36*
X142551256Y-102145638D02*
G01*
X142551256Y-101311610D01*
X141446301Y-101311610D01*
X141603708Y-101135662D01*
X141700924Y-100973456D01*
X141757285Y-100795406D01*
X141777494Y-100575767D01*
X141763353Y-100407886D01*
X141723272Y-100265544D01*
X141659090Y-100144045D01*
X141570315Y-100039959D01*
X141462170Y-99959583D01*
X141324842Y-99898545D01*
X141151700Y-99858685D01*
X140934490Y-99844138D01*
X139550000Y-99844138D01*
X139550000Y-100682379D01*
X140746179Y-100682379D01*
X140881362Y-100692767D01*
X140974175Y-100719531D01*
X141035973Y-100758217D01*
X141082204Y-100813947D01*
X141110764Y-100883620D01*
X141120969Y-100971441D01*
X141107944Y-101067165D01*
X141070190Y-101147915D01*
X141006297Y-101217454D01*
X140923306Y-101264598D01*
X140792320Y-101298271D01*
X140594504Y-101311610D01*
X139550000Y-101311610D01*
X139550000Y-102145638D01*
X142551256Y-102145638D01*
G37*
G36*
X142551256Y-98340396D02*
G01*
X141730600Y-98340396D01*
X141730600Y-97881341D01*
X141120969Y-97881341D01*
X141120969Y-98340396D01*
X140344644Y-98340396D01*
X140216851Y-98331947D01*
X140159263Y-98313834D01*
X140107926Y-98259752D01*
X140089288Y-98170403D01*
X140100533Y-98070255D01*
X140142777Y-97912116D01*
X139570333Y-97850566D01*
X139519208Y-98155864D01*
X139503105Y-98428506D01*
X139514081Y-98636888D01*
X139542510Y-98785184D01*
X139582972Y-98887561D01*
X139645159Y-98976886D01*
X139725354Y-99049183D01*
X139826055Y-99105730D01*
X139938398Y-99140977D01*
X140108186Y-99166448D01*
X140353986Y-99176439D01*
X141120969Y-99176439D01*
X141120969Y-99483818D01*
X141730600Y-99483818D01*
X141730600Y-99176439D01*
X142126639Y-99176439D01*
X142551256Y-98340396D01*
G37*
G36*
X141849769Y-93501440D02*
G01*
X142032351Y-93550723D01*
X142184607Y-93628636D01*
X142311653Y-93735013D01*
X142410653Y-93866300D01*
X142485280Y-94030735D01*
X142533683Y-94235611D01*
X142551256Y-94490090D01*
X142551256Y-96033217D01*
X139550000Y-96033217D01*
X139550000Y-95100819D01*
X140663747Y-95100819D01*
X140663747Y-94873307D01*
X141273377Y-94873307D01*
X141273377Y-95100819D01*
X141941625Y-95100819D01*
X141941625Y-94836488D01*
X141927850Y-94664797D01*
X141893015Y-94552435D01*
X141843440Y-94482030D01*
X141773377Y-94429651D01*
X141694621Y-94398419D01*
X141604387Y-94387691D01*
X141512640Y-94399991D01*
X141434402Y-94435751D01*
X141366250Y-94496318D01*
X141319230Y-94575042D01*
X141286273Y-94695489D01*
X141273377Y-94873307D01*
X140663747Y-94873307D01*
X140663747Y-94592489D01*
X140682730Y-94308016D01*
X140734787Y-94080791D01*
X140814562Y-93900160D01*
X140919652Y-93757545D01*
X141055907Y-93640591D01*
X141216243Y-93555796D01*
X141405440Y-93502671D01*
X141630033Y-93483871D01*
X141849769Y-93501440D01*
G37*
G36*
X140780983Y-90998456D02*
G01*
X140534237Y-90184760D01*
X140312512Y-90252534D01*
X140124062Y-90339018D01*
X139964541Y-90443047D01*
X139824131Y-90570483D01*
X139709634Y-90715742D01*
X139619426Y-90880669D01*
X139557861Y-91058702D01*
X139517678Y-91277666D01*
X139503105Y-91545621D01*
X139520971Y-91870777D01*
X139570035Y-92134052D01*
X139644888Y-92345943D01*
X139725821Y-92490803D01*
X139833778Y-92627928D01*
X139971728Y-92758220D01*
X140143693Y-92881934D01*
X140324952Y-92976415D01*
X140534504Y-93046835D01*
X140776981Y-93091473D01*
X141057772Y-93107248D01*
X141359995Y-93089070D01*
X141619455Y-93037697D01*
X141842459Y-92956646D01*
X142034329Y-92847668D01*
X142199180Y-92710659D01*
X142337676Y-92546248D01*
X142447397Y-92356233D01*
X142528684Y-92136794D01*
X142580029Y-91882926D01*
X142598150Y-91588668D01*
X142581600Y-91300874D01*
X142535495Y-91061045D01*
X142463961Y-90861627D01*
X142369356Y-90696205D01*
X142245016Y-90549459D01*
X142089513Y-90420148D01*
X141898603Y-90307862D01*
X141666669Y-90213520D01*
X141484403Y-91033260D01*
X141610975Y-91080865D01*
X141685170Y-91123386D01*
X141779885Y-91210477D01*
X141849118Y-91314078D01*
X141891773Y-91431902D01*
X141906454Y-91566137D01*
X141889875Y-91717959D01*
X141842473Y-91846078D01*
X141764726Y-91955683D01*
X141653114Y-92049738D01*
X141520879Y-92114663D01*
X141330373Y-92159600D01*
X141062901Y-92176866D01*
X140801099Y-92164209D01*
X140609791Y-92131063D01*
X140473626Y-92083410D01*
X140379631Y-92025191D01*
X140299792Y-91943014D01*
X140242717Y-91846682D01*
X140207289Y-91733372D01*
X140194801Y-91598927D01*
X140213344Y-91427722D01*
X140264266Y-91296672D01*
X140344827Y-91196292D01*
X140452166Y-91118293D01*
X140594842Y-91051658D01*
X140780983Y-90998456D01*
G37*
G36*
X140591581Y-86972797D02*
G01*
X140748619Y-87024225D01*
X140882466Y-87107484D01*
X140991460Y-87221291D01*
X141081317Y-87376682D01*
X141150279Y-87583757D01*
X141208406Y-87446725D01*
X141275382Y-87340482D01*
X141350497Y-87259891D01*
X141484858Y-87167990D01*
X141635059Y-87112874D01*
X141805887Y-87093928D01*
X141959354Y-87108787D01*
X142096897Y-87152099D01*
X142221923Y-87223863D01*
X142336749Y-87326570D01*
X142426295Y-87448040D01*
X142493072Y-87595880D01*
X142535876Y-87775500D01*
X142551256Y-87993719D01*
X142551256Y-89731568D01*
X139550000Y-89731568D01*
X139550000Y-88321615D01*
X140194801Y-88321615D01*
X140194801Y-88794958D01*
X140804431Y-88794958D01*
X140804431Y-88391224D01*
X141378890Y-88391224D01*
X141378890Y-88794958D01*
X141941625Y-88794958D01*
X141941625Y-88385179D01*
X141931487Y-88245207D01*
X141905603Y-88150615D01*
X141868719Y-88088974D01*
X141814949Y-88042452D01*
X141748744Y-88014045D01*
X141666303Y-88003977D01*
X141577051Y-88014281D01*
X141507387Y-88042918D01*
X141452712Y-88088974D01*
X141415510Y-88150803D01*
X141389235Y-88247101D01*
X141378890Y-88391224D01*
X140804431Y-88391224D01*
X140804431Y-88323630D01*
X140793077Y-88161737D01*
X140764190Y-88052915D01*
X140723281Y-87982545D01*
X140663588Y-87928488D01*
X140593233Y-87896280D01*
X140508775Y-87885092D01*
X140417529Y-87896556D01*
X140342544Y-87929262D01*
X140279980Y-87983461D01*
X140236715Y-88054793D01*
X140206558Y-88162964D01*
X140194801Y-88321615D01*
X139550000Y-88321615D01*
X139550000Y-88128907D01*
X139591032Y-87712901D01*
X139634802Y-87493966D01*
X139689584Y-87360458D01*
X139771000Y-87243276D01*
X139868969Y-87144741D01*
X139984874Y-87063337D01*
X140113247Y-87003491D01*
X140252602Y-86967155D01*
X140405460Y-86954710D01*
X140591581Y-86972797D01*
G37*
G36*
X136322461Y-134434570D02*
G01*
X136602123Y-134489584D01*
X136779820Y-134549752D01*
X136939565Y-134629011D01*
X137083342Y-134727355D01*
X137210032Y-134845792D01*
X137315473Y-134983387D01*
X137400614Y-135142262D01*
X137458682Y-135313346D01*
X137497141Y-135529781D01*
X137511256Y-135801168D01*
X137511256Y-137180347D01*
X134510000Y-137180347D01*
X134510000Y-136024467D01*
X135189972Y-136024467D01*
X135189972Y-136251980D01*
X136831284Y-136251980D01*
X136831284Y-136020437D01*
X136818016Y-135837936D01*
X136782005Y-135696290D01*
X136727222Y-135587143D01*
X136655062Y-135504047D01*
X136564620Y-135443843D01*
X136434134Y-135394946D01*
X136251315Y-135361073D01*
X136001468Y-135348159D01*
X135758492Y-135358025D01*
X135590792Y-135383171D01*
X135479949Y-135417951D01*
X135379640Y-135472866D01*
X135305973Y-135536948D01*
X135254452Y-135610476D01*
X135222430Y-135696082D01*
X135199168Y-135828602D01*
X135189972Y-136024467D01*
X134510000Y-136024467D01*
X134510000Y-135801168D01*
X134529193Y-135547562D01*
X134591882Y-135247775D01*
X134643424Y-135104975D01*
X134721986Y-134966096D01*
X134830385Y-134829754D01*
X134957782Y-134710673D01*
X135105096Y-134609351D01*
X135274602Y-134525488D01*
X135455414Y-134469008D01*
X135699034Y-134430325D01*
X136020886Y-134415762D01*
X136322461Y-134434570D01*
G37*
G36*
X135777652Y-131584477D02*
G01*
X136005946Y-131633281D01*
X136189413Y-131708147D01*
X136353567Y-131816993D01*
X136488507Y-131953362D01*
X136596810Y-132120123D01*
X136670335Y-132306069D01*
X136719348Y-132547538D01*
X136737494Y-132857798D01*
X136723283Y-133090936D01*
X136682872Y-133293773D01*
X136618668Y-133470672D01*
X136531761Y-133625310D01*
X136421871Y-133760519D01*
X136254216Y-133901984D01*
X136063972Y-134003132D01*
X135846707Y-134065535D01*
X135596270Y-134087316D01*
X135361770Y-134068256D01*
X135155387Y-134013430D01*
X134972168Y-133924467D01*
X134807956Y-133803444D01*
X134680253Y-133666908D01*
X134584921Y-133513590D01*
X134521486Y-133343479D01*
X134478925Y-133120827D01*
X134463105Y-132833068D01*
X134482173Y-132501732D01*
X134532853Y-132252761D01*
X134607452Y-132068832D01*
X134719706Y-131905644D01*
X134876135Y-131754193D01*
X135084459Y-131613808D01*
X135154801Y-132435563D01*
X135066805Y-132515423D01*
X135017048Y-132581010D01*
X134970769Y-132695301D01*
X134955498Y-132814750D01*
X134971840Y-132937938D01*
X135019061Y-133041536D01*
X135098564Y-133130373D01*
X135169749Y-133177465D01*
X135268046Y-133214500D01*
X135400997Y-133239000D01*
X135400997Y-133236985D01*
X135799602Y-133236985D01*
X135976706Y-133199723D01*
X136089213Y-133140631D01*
X136176206Y-133051955D01*
X136227416Y-132947820D01*
X136245101Y-132822993D01*
X136232872Y-132712406D01*
X136198223Y-132621271D01*
X136141786Y-132545289D01*
X136065792Y-132488161D01*
X135955390Y-132443626D01*
X135799602Y-132415047D01*
X135799602Y-133236985D01*
X135400997Y-133236985D01*
X135400997Y-131566730D01*
X135494787Y-131566730D01*
X135777652Y-131584477D01*
G37*
G36*
X135107906Y-131331341D02*
G01*
X135189972Y-130503541D01*
X135061369Y-130439011D01*
X134982609Y-130360109D01*
X134937226Y-130257557D01*
X134920327Y-130114096D01*
X134939893Y-129958879D01*
X134991585Y-129853977D01*
X135052311Y-129799556D01*
X135124026Y-129782170D01*
X135178351Y-129792234D01*
X135223761Y-129822248D01*
X135262695Y-129876325D01*
X135294491Y-129971897D01*
X135348241Y-130234996D01*
X135428564Y-130635276D01*
X135488192Y-130838581D01*
X135540738Y-130944646D01*
X135612910Y-131039174D01*
X135706545Y-131123429D01*
X135813799Y-131187752D01*
X135929683Y-131226143D01*
X136056973Y-131239200D01*
X136196047Y-131224847D01*
X136318488Y-131183205D01*
X136427916Y-131114270D01*
X136521127Y-131022712D01*
X136598665Y-130909103D01*
X136660558Y-130769888D01*
X136700490Y-130621427D01*
X136727470Y-130428527D01*
X136737494Y-130181690D01*
X136719710Y-129817874D01*
X136677594Y-129606864D01*
X136600066Y-129434840D01*
X136491847Y-129297470D01*
X136349517Y-129187436D01*
X136151311Y-129091390D01*
X136080969Y-129882554D01*
X136170132Y-129924885D01*
X136228797Y-129984952D01*
X136275487Y-130090948D01*
X136291995Y-130222723D01*
X136277592Y-130352404D01*
X136241987Y-130428803D01*
X136185693Y-130477723D01*
X136120720Y-130493283D01*
X136052125Y-130473573D01*
X136000553Y-130411217D01*
X135966863Y-130304798D01*
X135927096Y-130054745D01*
X135865478Y-129666572D01*
X135796488Y-129435956D01*
X135730704Y-129308027D01*
X135651169Y-129205693D01*
X135557618Y-129125462D01*
X135450105Y-129065337D01*
X135337153Y-129029736D01*
X135216533Y-129017751D01*
X135094496Y-129029979D01*
X134973363Y-129067184D01*
X134851085Y-129131507D01*
X134744417Y-129218121D01*
X134650139Y-129335721D01*
X134568251Y-129490177D01*
X134513638Y-129657023D01*
X134476811Y-129875395D01*
X134463105Y-130157144D01*
X134476749Y-130469299D01*
X134512975Y-130705295D01*
X134565791Y-130880065D01*
X134630900Y-131006559D01*
X134723677Y-131121766D01*
X134832682Y-131213309D01*
X134959745Y-131283086D01*
X135107906Y-131331341D01*
G37*
G36*
X137511256Y-128588555D02*
G01*
X137511256Y-127754527D01*
X136948520Y-127754527D01*
X136948520Y-128588555D01*
X137511256Y-128588555D01*
G37*
G36*
X136690600Y-128588555D02*
G01*
X136690600Y-127754527D01*
X134510000Y-127754527D01*
X134510000Y-128588555D01*
X136690600Y-128588555D01*
G37*
G36*
X134627053Y-124926011D02*
G01*
X136690600Y-124926011D01*
X136690600Y-125706734D01*
X136364535Y-125706734D01*
X136490508Y-125809752D01*
X136584345Y-125912367D01*
X136650849Y-126015212D01*
X136696984Y-126128421D01*
X136726759Y-126266419D01*
X136737494Y-126434333D01*
X136719901Y-126628778D01*
X136669382Y-126797848D01*
X136587157Y-126946404D01*
X136471514Y-127077852D01*
X136332690Y-127180102D01*
X136162242Y-127256655D01*
X135953549Y-127305922D01*
X135698302Y-127323682D01*
X135474553Y-127310223D01*
X135284204Y-127272348D01*
X135122194Y-127212856D01*
X134984258Y-127133173D01*
X134843347Y-127015099D01*
X134738004Y-126887384D01*
X134663976Y-126748771D01*
X134619164Y-126596820D01*
X134603789Y-126428105D01*
X134615185Y-126281752D01*
X134648902Y-126143694D01*
X134656050Y-126126953D01*
X135166524Y-126126953D01*
X135179646Y-126231142D01*
X135217276Y-126317872D01*
X135279914Y-126391285D01*
X135361769Y-126443754D01*
X135474802Y-126478587D01*
X135628876Y-126491669D01*
X135806008Y-126478664D01*
X135929121Y-126445037D01*
X136012276Y-126396414D01*
X136076280Y-126326047D01*
X136114533Y-126242403D01*
X136127864Y-126141242D01*
X136113918Y-126040232D01*
X136072764Y-125951183D01*
X136002018Y-125870682D01*
X135911868Y-125812005D01*
X135793573Y-125774012D01*
X135638951Y-125760040D01*
X135484060Y-125773635D01*
X135368911Y-125810098D01*
X135284127Y-125865553D01*
X135218326Y-125942222D01*
X135179703Y-126028228D01*
X135166524Y-126126953D01*
X134656050Y-126126953D01*
X134705088Y-126012098D01*
X134785370Y-125894133D01*
X134913550Y-125766268D01*
X134581624Y-125766268D01*
X134422346Y-125778571D01*
X134314312Y-125810110D01*
X134243469Y-125855478D01*
X134191766Y-125921095D01*
X134158713Y-126008555D01*
X134146566Y-126124755D01*
X134163581Y-126255501D01*
X134211046Y-126356297D01*
X134268057Y-126408953D01*
X134369316Y-126450636D01*
X134463105Y-127260301D01*
X134351181Y-127264331D01*
X134189093Y-127248292D01*
X134048963Y-127202188D01*
X133926282Y-127126705D01*
X133818121Y-127019417D01*
X133741642Y-126894980D01*
X133679079Y-126715176D01*
X133635594Y-126463086D01*
X133619002Y-126118710D01*
X133632653Y-125840354D01*
X133670476Y-125609464D01*
X133740130Y-125401693D01*
X133837172Y-125242733D01*
X133968036Y-125114115D01*
X134138506Y-125011191D01*
X134329498Y-124945800D01*
X134530333Y-124923996D01*
X134627053Y-124926011D01*
G37*
G36*
X136690600Y-124422260D02*
G01*
X136690600Y-123645568D01*
X136333028Y-123645568D01*
X136471113Y-123522157D01*
X136572879Y-123405031D01*
X136644071Y-123293126D01*
X136694360Y-123170779D01*
X136726203Y-123027293D01*
X136737494Y-122858618D01*
X136723307Y-122687292D01*
X136683225Y-122542922D01*
X136619296Y-122420566D01*
X136531231Y-122316582D01*
X136423621Y-122236318D01*
X136286432Y-122175277D01*
X136112871Y-122135351D01*
X135894490Y-122120760D01*
X134510000Y-122120760D01*
X134510000Y-122959002D01*
X135706179Y-122959002D01*
X135841362Y-122969390D01*
X135934175Y-122996154D01*
X135995973Y-123034839D01*
X136042204Y-123090569D01*
X136070764Y-123160243D01*
X136080969Y-123248063D01*
X136067944Y-123343787D01*
X136030190Y-123424537D01*
X135966297Y-123494077D01*
X135883306Y-123541220D01*
X135752320Y-123574894D01*
X135554504Y-123588232D01*
X134510000Y-123588232D01*
X134510000Y-124422260D01*
X136690600Y-124422260D01*
G37*
G36*
X135777652Y-119224812D02*
G01*
X136005946Y-119273615D01*
X136189413Y-119348482D01*
X136353567Y-119457328D01*
X136488507Y-119593697D01*
X136596810Y-119760458D01*
X136670335Y-119946404D01*
X136719348Y-120187873D01*
X136737494Y-120498133D01*
X136723283Y-120731271D01*
X136682872Y-120934108D01*
X136618668Y-121111007D01*
X136531761Y-121265645D01*
X136421871Y-121400854D01*
X136254216Y-121542319D01*
X136063972Y-121643467D01*
X135846707Y-121705870D01*
X135596270Y-121727651D01*
X135361770Y-121708591D01*
X135155387Y-121653765D01*
X134972168Y-121564802D01*
X134807956Y-121443779D01*
X134680253Y-121307243D01*
X134584921Y-121153925D01*
X134521486Y-120983814D01*
X134478925Y-120761162D01*
X134463105Y-120473403D01*
X134482173Y-120142067D01*
X134532853Y-119893096D01*
X134607452Y-119709167D01*
X134719706Y-119545979D01*
X134876135Y-119394528D01*
X135084459Y-119254143D01*
X135154801Y-120075898D01*
X135066805Y-120155758D01*
X135017048Y-120221345D01*
X134970769Y-120335636D01*
X134955498Y-120455085D01*
X134971840Y-120578273D01*
X135019061Y-120681871D01*
X135098564Y-120770708D01*
X135169749Y-120817800D01*
X135268046Y-120854835D01*
X135400997Y-120879335D01*
X135400997Y-120877320D01*
X135799602Y-120877320D01*
X135976706Y-120840058D01*
X136089213Y-120780966D01*
X136176206Y-120692290D01*
X136227416Y-120588155D01*
X136245101Y-120463328D01*
X136232872Y-120352741D01*
X136198223Y-120261606D01*
X136141786Y-120185624D01*
X136065792Y-120128496D01*
X135955390Y-120083961D01*
X135799602Y-120055382D01*
X135799602Y-120877320D01*
X135400997Y-120877320D01*
X135400997Y-119207065D01*
X135494787Y-119207065D01*
X135777652Y-119224812D01*
G37*
G36*
X137511256Y-117375244D02*
G01*
X136475910Y-117375244D01*
X136590879Y-117507890D01*
X136672098Y-117656978D01*
X136720635Y-117822035D01*
X136737494Y-118010519D01*
X136718932Y-118204777D01*
X136665155Y-118376527D01*
X136576626Y-118530368D01*
X136450631Y-118669426D01*
X136301248Y-118777237D01*
X136118397Y-118857980D01*
X135895143Y-118909920D01*
X135622831Y-118928628D01*
X135382040Y-118912881D01*
X135167240Y-118867551D01*
X134974634Y-118794457D01*
X134801076Y-118693972D01*
X134679112Y-118591411D01*
X134586021Y-118474611D01*
X134519070Y-118341797D01*
X134477603Y-118189889D01*
X134463105Y-118014733D01*
X134473861Y-117869543D01*
X134503904Y-117742158D01*
X135072735Y-117742158D01*
X135086405Y-117836158D01*
X135126859Y-117918756D01*
X135196933Y-117993300D01*
X135285977Y-118045634D01*
X135412353Y-118081103D01*
X135588210Y-118094600D01*
X135777426Y-118081067D01*
X135907810Y-118046241D01*
X135994874Y-117996231D01*
X136063314Y-117923901D01*
X136102800Y-117843720D01*
X136116140Y-117752416D01*
X136101920Y-117647533D01*
X136060397Y-117557271D01*
X135989745Y-117477826D01*
X135899106Y-117420990D01*
X135774898Y-117383315D01*
X135606711Y-117369199D01*
X135419864Y-117383582D01*
X135288358Y-117421042D01*
X135198032Y-117475811D01*
X135127762Y-117553693D01*
X135086720Y-117641274D01*
X135072735Y-117742158D01*
X134503904Y-117742158D01*
X134505281Y-117736321D01*
X134556894Y-117613014D01*
X134651817Y-117481287D01*
X134832400Y-117313878D01*
X134510000Y-117313878D01*
X134510000Y-116532972D01*
X137511256Y-116532972D01*
X137511256Y-117375244D01*
G37*
G36*
X135899890Y-112245986D02*
G01*
X136120912Y-112298015D01*
X136302559Y-112379074D01*
X136451547Y-112487578D01*
X136577247Y-112627127D01*
X136665492Y-112780998D01*
X136719036Y-112952251D01*
X136737494Y-113145385D01*
X136720679Y-113332110D01*
X136672098Y-113496912D01*
X136590970Y-113646364D01*
X136475910Y-113780661D01*
X137511256Y-113780661D01*
X137511256Y-114623115D01*
X134510000Y-114623115D01*
X134510000Y-113842210D01*
X134832400Y-113842210D01*
X134653326Y-113676368D01*
X134556894Y-113543073D01*
X134505159Y-113418498D01*
X134504084Y-113413930D01*
X135072735Y-113413930D01*
X135086884Y-113516042D01*
X135128271Y-113603938D01*
X135198948Y-113681376D01*
X135289815Y-113735649D01*
X135421172Y-113772697D01*
X135606711Y-113786889D01*
X135774996Y-113772898D01*
X135899199Y-113735580D01*
X135989745Y-113679361D01*
X136060132Y-113600378D01*
X136101782Y-113509172D01*
X136116140Y-113401657D01*
X136102951Y-113312962D01*
X136063608Y-113233754D01*
X135994874Y-113160956D01*
X135908131Y-113109504D01*
X135785384Y-113074710D01*
X135614954Y-113061488D01*
X135420429Y-113075446D01*
X135286411Y-113111370D01*
X135196933Y-113162971D01*
X135126865Y-113237403D01*
X135086409Y-113319937D01*
X135072735Y-113413930D01*
X134504084Y-113413930D01*
X134473797Y-113285226D01*
X134463105Y-113141355D01*
X134478231Y-112974434D01*
X134522805Y-112819993D01*
X134597194Y-112675157D01*
X134698869Y-112548316D01*
X134832362Y-112438777D01*
X135002943Y-112346161D01*
X135187529Y-112281677D01*
X135395642Y-112241361D01*
X135631074Y-112227276D01*
X135899890Y-112245986D01*
G37*
G36*
X136690600Y-112069923D02*
G01*
X136690600Y-111188633D01*
X135238881Y-110739837D01*
X136690600Y-110323831D01*
X136690600Y-109502076D01*
X134357042Y-110364863D01*
X134092874Y-110476736D01*
X133920865Y-110576919D01*
X133816838Y-110666198D01*
X133735771Y-110779032D01*
X133674062Y-110922130D01*
X133633723Y-111102325D01*
X133619002Y-111328035D01*
X133628960Y-111532732D01*
X133667178Y-111885458D01*
X134242554Y-111951038D01*
X134197517Y-111764155D01*
X134181737Y-111549319D01*
X134200679Y-111412213D01*
X134252995Y-111310633D01*
X134343705Y-111231698D01*
X134507984Y-111155844D01*
X136690600Y-112069923D01*
G37*
G36*
X137511256Y-106559987D02*
G01*
X137511256Y-105629605D01*
X135882950Y-105629605D01*
X135538413Y-105641988D01*
X135284495Y-105674443D01*
X135102594Y-105720830D01*
X134937020Y-105799763D01*
X134786527Y-105919993D01*
X134649035Y-106087744D01*
X134570764Y-106228313D01*
X134512716Y-106390304D01*
X134476043Y-106577302D01*
X134463105Y-106793545D01*
X134479275Y-107096865D01*
X134522370Y-107326953D01*
X134585837Y-107498613D01*
X134680977Y-107653619D01*
X134799925Y-107781490D01*
X134944691Y-107884944D01*
X135107280Y-107960743D01*
X135300073Y-108015172D01*
X135528492Y-108045778D01*
X135647194Y-107158443D01*
X135464836Y-107147162D01*
X135357583Y-107123639D01*
X135271858Y-107079387D01*
X135204809Y-107012997D01*
X135177142Y-106952431D01*
X135166524Y-106861322D01*
X135180201Y-106763709D01*
X135218408Y-106689450D01*
X135281563Y-106632711D01*
X135362675Y-106596321D01*
X135486951Y-106570246D01*
X135669726Y-106559987D01*
X137511256Y-106559987D01*
G37*
G36*
X134640787Y-102789854D02*
G01*
X134732566Y-102818126D01*
X134828071Y-102831985D01*
X134973633Y-102837543D01*
X135935523Y-102837543D01*
X136090044Y-102852335D01*
X136258473Y-102899092D01*
X136412551Y-102974395D01*
X136520057Y-103067070D01*
X136597436Y-103174269D01*
X136656014Y-103299608D01*
X136695362Y-103446257D01*
X136725614Y-103691959D01*
X136737494Y-104048560D01*
X136728483Y-104277895D01*
X136702690Y-104483068D01*
X136657992Y-104671502D01*
X136604687Y-104798691D01*
X136505987Y-104943129D01*
X136397142Y-105043606D01*
X136263485Y-105115386D01*
X136069246Y-105173665D01*
X135987180Y-104376456D01*
X136111591Y-104315708D01*
X136179521Y-104247313D01*
X136226347Y-104129830D01*
X136245101Y-103939933D01*
X136226875Y-103795600D01*
X136182452Y-103716634D01*
X136104712Y-103671467D01*
X135963733Y-103653070D01*
X135864448Y-103948176D01*
X135732374Y-104556891D01*
X135663329Y-104813499D01*
X135582859Y-104985104D01*
X135494970Y-105093797D01*
X135381007Y-105173416D01*
X135247044Y-105222151D01*
X135087573Y-105239244D01*
X134959953Y-105226463D01*
X134845102Y-105189096D01*
X134740145Y-105126896D01*
X134643173Y-105037377D01*
X134568677Y-104932493D01*
X134512545Y-104802734D01*
X134476237Y-104642827D01*
X134463105Y-104446249D01*
X134473955Y-104252448D01*
X134495712Y-104132641D01*
X134932051Y-104132641D01*
X134948966Y-104254547D01*
X134993600Y-104334508D01*
X135063477Y-104385805D01*
X135152053Y-104403201D01*
X135231070Y-104386373D01*
X135303545Y-104333592D01*
X135359811Y-104239936D01*
X135434703Y-104011741D01*
X135541681Y-103653070D01*
X135410523Y-103653070D01*
X135265754Y-103666785D01*
X135161029Y-103703262D01*
X135074985Y-103768329D01*
X134998546Y-103873438D01*
X134948745Y-103997865D01*
X134932051Y-104132641D01*
X134495712Y-104132641D01*
X134504902Y-104082038D01*
X134554146Y-103931873D01*
X134641258Y-103774972D01*
X134781659Y-103605992D01*
X134640608Y-103577416D01*
X134510000Y-103515867D01*
X134510000Y-102732946D01*
X134640787Y-102789854D01*
G37*
G36*
X137511256Y-100888852D02*
G01*
X136475910Y-100888852D01*
X136590879Y-101021498D01*
X136672098Y-101170586D01*
X136720635Y-101335643D01*
X136737494Y-101524127D01*
X136718932Y-101718385D01*
X136665155Y-101890135D01*
X136576626Y-102043976D01*
X136450631Y-102183033D01*
X136301248Y-102290845D01*
X136118397Y-102371588D01*
X135895143Y-102423528D01*
X135622831Y-102442236D01*
X135382040Y-102426489D01*
X135167240Y-102381159D01*
X134974634Y-102308064D01*
X134801076Y-102207580D01*
X134679112Y-102105019D01*
X134586021Y-101988218D01*
X134519070Y-101855405D01*
X134477603Y-101703497D01*
X134463105Y-101528340D01*
X134473861Y-101383150D01*
X134503904Y-101255765D01*
X135072735Y-101255765D01*
X135086405Y-101349766D01*
X135126859Y-101432364D01*
X135196933Y-101506908D01*
X135285977Y-101559242D01*
X135412353Y-101594711D01*
X135588210Y-101608208D01*
X135777426Y-101594675D01*
X135907810Y-101559849D01*
X135994874Y-101509839D01*
X136063314Y-101437509D01*
X136102800Y-101357328D01*
X136116140Y-101266024D01*
X136101920Y-101161141D01*
X136060397Y-101070879D01*
X135989745Y-100991434D01*
X135899106Y-100934598D01*
X135774898Y-100896922D01*
X135606711Y-100882807D01*
X135419864Y-100897190D01*
X135288358Y-100934650D01*
X135198032Y-100989419D01*
X135127762Y-101067301D01*
X135086720Y-101154882D01*
X135072735Y-101255765D01*
X134503904Y-101255765D01*
X134505281Y-101249928D01*
X134556894Y-101126622D01*
X134651817Y-100994895D01*
X134832400Y-100827486D01*
X134510000Y-100827486D01*
X134510000Y-100046580D01*
X137511256Y-100046580D01*
X137511256Y-100888852D01*
G37*
G36*
X135826345Y-97158785D02*
G01*
X136022325Y-97209839D01*
X136198646Y-97293068D01*
X136358490Y-97409490D01*
X136490162Y-97549714D01*
X136594201Y-97714255D01*
X136671314Y-97906820D01*
X136720174Y-98132477D01*
X136737494Y-98397391D01*
X136723151Y-98627962D01*
X136682191Y-98830330D01*
X136616786Y-99008539D01*
X136527796Y-99165979D01*
X136414727Y-99305242D01*
X136242968Y-99451878D01*
X136051838Y-99555741D01*
X135837398Y-99619216D01*
X135594071Y-99641198D01*
X135383874Y-99624563D01*
X135195675Y-99576398D01*
X135025653Y-99497809D01*
X134870866Y-99387872D01*
X134729452Y-99243693D01*
X134616489Y-99075831D01*
X134533589Y-98881831D01*
X134481479Y-98656932D01*
X134463105Y-98395193D01*
X134463350Y-98391163D01*
X135025840Y-98391163D01*
X135041535Y-98503503D01*
X135087595Y-98600886D01*
X135166524Y-98687369D01*
X135267509Y-98748614D01*
X135408263Y-98789658D01*
X135601399Y-98805155D01*
X135791509Y-98789631D01*
X135931401Y-98748311D01*
X136032976Y-98686270D01*
X136112351Y-98599048D01*
X136158855Y-98500015D01*
X136174759Y-98384935D01*
X136159307Y-98276566D01*
X136113691Y-98181549D01*
X136034991Y-98096057D01*
X135934888Y-98035076D01*
X135797014Y-97994451D01*
X135609642Y-97979187D01*
X135407640Y-97994720D01*
X135264167Y-98035336D01*
X135164509Y-98094958D01*
X135087014Y-98180004D01*
X135041465Y-98277314D01*
X135025840Y-98391163D01*
X134463350Y-98391163D01*
X134477562Y-98156951D01*
X134518652Y-97949837D01*
X134583897Y-97769374D01*
X134672155Y-97611786D01*
X134783674Y-97474153D01*
X134954335Y-97329171D01*
X135145368Y-97226175D01*
X135360853Y-97163044D01*
X135606528Y-97141128D01*
X135826345Y-97158785D01*
G37*
G36*
X136690600Y-96739776D02*
G01*
X136690600Y-95963084D01*
X136333028Y-95963084D01*
X136471113Y-95839672D01*
X136572879Y-95722547D01*
X136644071Y-95610642D01*
X136694360Y-95488294D01*
X136726203Y-95344809D01*
X136737494Y-95176133D01*
X136723307Y-95004808D01*
X136683225Y-94860438D01*
X136619296Y-94738082D01*
X136531231Y-94634098D01*
X136423621Y-94553834D01*
X136286432Y-94492793D01*
X136112871Y-94452867D01*
X135894490Y-94438276D01*
X134510000Y-94438276D01*
X134510000Y-95276517D01*
X135706179Y-95276517D01*
X135841362Y-95286905D01*
X135934175Y-95313670D01*
X135995973Y-95352355D01*
X136042204Y-95408085D01*
X136070764Y-95477759D01*
X136080969Y-95565579D01*
X136067944Y-95661303D01*
X136030190Y-95742053D01*
X135966297Y-95811592D01*
X135883306Y-95858736D01*
X135752320Y-95892410D01*
X135554504Y-95905748D01*
X134510000Y-95905748D01*
X134510000Y-96739776D01*
X136690600Y-96739776D01*
G37*
G36*
X136809769Y-89959640D02*
G01*
X136992351Y-90008922D01*
X137144607Y-90086836D01*
X137271653Y-90193213D01*
X137370653Y-90324500D01*
X137445280Y-90488934D01*
X137493683Y-90693811D01*
X137511256Y-90948290D01*
X137511256Y-92491416D01*
X134510000Y-92491416D01*
X134510000Y-91559019D01*
X135623747Y-91559019D01*
X135623747Y-91331507D01*
X136233377Y-91331507D01*
X136233377Y-91559019D01*
X136901625Y-91559019D01*
X136901625Y-91294687D01*
X136887850Y-91122996D01*
X136853015Y-91010634D01*
X136803440Y-90940230D01*
X136733377Y-90887850D01*
X136654621Y-90856619D01*
X136564387Y-90845891D01*
X136472640Y-90858191D01*
X136394402Y-90893951D01*
X136326250Y-90954518D01*
X136279230Y-91033242D01*
X136246273Y-91153689D01*
X136233377Y-91331507D01*
X135623747Y-91331507D01*
X135623747Y-91050689D01*
X135642730Y-90766215D01*
X135694787Y-90538990D01*
X135774562Y-90358359D01*
X135879652Y-90215744D01*
X136015907Y-90098790D01*
X136176243Y-90013996D01*
X136365440Y-89960870D01*
X136590033Y-89942070D01*
X136809769Y-89959640D01*
G37*
G36*
X135777652Y-87222160D02*
G01*
X136005946Y-87270964D01*
X136189413Y-87345830D01*
X136353567Y-87454676D01*
X136488507Y-87591045D01*
X136596810Y-87757807D01*
X136670335Y-87943752D01*
X136719348Y-88185221D01*
X136737494Y-88495481D01*
X136723283Y-88728619D01*
X136682872Y-88931456D01*
X136618668Y-89108356D01*
X136531761Y-89262993D01*
X136421871Y-89398203D01*
X136254216Y-89539668D01*
X136063972Y-89640815D01*
X135846707Y-89703218D01*
X135596270Y-89725000D01*
X135361770Y-89705939D01*
X135155387Y-89651113D01*
X134972168Y-89562151D01*
X134807956Y-89441127D01*
X134680253Y-89304591D01*
X134584921Y-89151273D01*
X134521486Y-88981162D01*
X134478925Y-88758510D01*
X134463105Y-88470751D01*
X134482173Y-88139415D01*
X134532853Y-87890444D01*
X134607452Y-87706516D01*
X134719706Y-87543327D01*
X134876135Y-87391876D01*
X135084459Y-87251491D01*
X135154801Y-88073246D01*
X135066805Y-88153107D01*
X135017048Y-88218693D01*
X134970769Y-88332984D01*
X134955498Y-88452433D01*
X134971840Y-88575621D01*
X135019061Y-88679219D01*
X135098564Y-88768056D01*
X135169749Y-88815149D01*
X135268046Y-88852183D01*
X135400997Y-88876683D01*
X135400997Y-88874668D01*
X135799602Y-88874668D01*
X135976706Y-88837406D01*
X136089213Y-88778314D01*
X136176206Y-88689638D01*
X136227416Y-88585503D01*
X136245101Y-88460676D01*
X136232872Y-88350089D01*
X136198223Y-88258954D01*
X136141786Y-88182972D01*
X136065792Y-88125844D01*
X135955390Y-88081309D01*
X135799602Y-88052730D01*
X135799602Y-88874668D01*
X135400997Y-88874668D01*
X135400997Y-87204413D01*
X135494787Y-87204413D01*
X135777652Y-87222160D01*
G37*
G36*
X136690600Y-86813319D02*
G01*
X136690600Y-86032597D01*
X136334310Y-86032597D01*
X136483709Y-85949007D01*
X136585614Y-85871680D01*
X136650849Y-85799956D01*
X136697985Y-85716100D01*
X136727219Y-85618452D01*
X136737494Y-85503750D01*
X136726156Y-85383104D01*
X136690067Y-85249505D01*
X136625020Y-85100017D01*
X136030961Y-85358304D01*
X136079685Y-85499889D01*
X136092693Y-85591861D01*
X136077294Y-85693927D01*
X136032860Y-85777019D01*
X135956955Y-85845935D01*
X135820509Y-85909215D01*
X135594439Y-85956130D01*
X135241812Y-85975078D01*
X134510000Y-85975078D01*
X134510000Y-86813319D01*
X136690600Y-86813319D01*
G37*
G36*
X135107906Y-85002381D02*
G01*
X135189972Y-84174581D01*
X135061369Y-84110051D01*
X134982609Y-84031149D01*
X134937226Y-83928597D01*
X134920327Y-83785136D01*
X134939893Y-83629919D01*
X134991585Y-83525017D01*
X135052311Y-83470595D01*
X135124026Y-83453210D01*
X135178351Y-83463274D01*
X135223761Y-83493288D01*
X135262695Y-83547365D01*
X135294491Y-83642936D01*
X135348241Y-83906036D01*
X135428564Y-84306316D01*
X135488192Y-84509621D01*
X135540738Y-84615686D01*
X135612910Y-84710213D01*
X135706545Y-84794469D01*
X135813799Y-84858791D01*
X135929683Y-84897183D01*
X136056973Y-84910240D01*
X136196047Y-84895887D01*
X136318488Y-84854245D01*
X136427916Y-84785310D01*
X136521127Y-84693752D01*
X136598665Y-84580142D01*
X136660558Y-84440928D01*
X136700490Y-84292467D01*
X136727470Y-84099566D01*
X136737494Y-83852730D01*
X136719710Y-83488914D01*
X136677594Y-83277904D01*
X136600066Y-83105880D01*
X136491847Y-82968510D01*
X136349517Y-82858475D01*
X136151311Y-82762430D01*
X136080969Y-83553593D01*
X136170132Y-83595925D01*
X136228797Y-83655992D01*
X136275487Y-83761987D01*
X136291995Y-83893763D01*
X136277592Y-84023444D01*
X136241987Y-84099842D01*
X136185693Y-84148763D01*
X136120720Y-84164323D01*
X136052125Y-84144613D01*
X136000553Y-84082257D01*
X135966863Y-83975838D01*
X135927096Y-83725785D01*
X135865478Y-83337612D01*
X135796488Y-83106995D01*
X135730704Y-82979067D01*
X135651169Y-82876733D01*
X135557618Y-82796502D01*
X135450105Y-82736377D01*
X135337153Y-82700776D01*
X135216533Y-82688790D01*
X135094496Y-82701019D01*
X134973363Y-82738224D01*
X134851085Y-82802547D01*
X134744417Y-82889161D01*
X134650139Y-83006761D01*
X134568251Y-83161217D01*
X134513638Y-83328063D01*
X134476811Y-83546435D01*
X134463105Y-83828183D01*
X134476749Y-84140338D01*
X134512975Y-84376335D01*
X134565791Y-84551105D01*
X134630900Y-84677599D01*
X134723677Y-84792806D01*
X134832682Y-84884349D01*
X134959745Y-84954126D01*
X135107906Y-85002381D01*
G37*
G36*
X134510000Y-79997112D02*
G01*
X134510000Y-80775819D01*
X134866655Y-80775819D01*
X134728185Y-80899276D01*
X134626537Y-81016081D01*
X134555795Y-81127346D01*
X134506010Y-81248959D01*
X134474364Y-81392672D01*
X134463105Y-81562770D01*
X134477247Y-81733008D01*
X134517243Y-81876768D01*
X134581110Y-81998900D01*
X134669185Y-82102974D01*
X134776884Y-82183234D01*
X134913873Y-82244215D01*
X135086836Y-82284062D01*
X135304094Y-82298613D01*
X136690600Y-82298613D01*
X136690600Y-81460371D01*
X135496069Y-81460371D01*
X135361019Y-81450009D01*
X135267891Y-81423263D01*
X135205542Y-81384534D01*
X135158770Y-81328732D01*
X135129926Y-81259057D01*
X135119630Y-81171310D01*
X135132552Y-81076992D01*
X135170177Y-80996607D01*
X135234118Y-80926578D01*
X135317216Y-80878731D01*
X135448062Y-80844632D01*
X135645362Y-80831140D01*
X136690600Y-80831140D01*
X136690600Y-79997112D01*
X134510000Y-79997112D01*
G37*
G36*
X136690600Y-79491346D02*
G01*
X136690600Y-78714654D01*
X136333028Y-78714654D01*
X136471113Y-78591243D01*
X136572879Y-78474117D01*
X136644071Y-78362212D01*
X136694360Y-78239864D01*
X136726203Y-78096379D01*
X136737494Y-77927704D01*
X136723307Y-77756378D01*
X136683225Y-77612008D01*
X136619296Y-77489652D01*
X136531231Y-77385668D01*
X136423621Y-77305404D01*
X136286432Y-77244363D01*
X136112871Y-77204437D01*
X135894490Y-77189846D01*
X134510000Y-77189846D01*
X134510000Y-78028087D01*
X135706179Y-78028087D01*
X135841362Y-78038476D01*
X135934175Y-78065240D01*
X135995973Y-78103925D01*
X136042204Y-78159655D01*
X136070764Y-78229329D01*
X136080969Y-78317149D01*
X136067944Y-78412873D01*
X136030190Y-78493623D01*
X135966297Y-78563162D01*
X135883306Y-78610306D01*
X135752320Y-78643980D01*
X135554504Y-78657318D01*
X134510000Y-78657318D01*
X134510000Y-79491346D01*
X136690600Y-79491346D01*
G37*
M02*
