M48
; DRILL file KiCad 10.0.5 date 2026-08-21T16:26:10
; FORMAT={-:-/ absolute / metric / decimal}
; #@! TF.CreationDate,2026-08-21T16:26:10-05:00
; #@! TF.GenerationSoftware,Kicad,Pcbnew,10.0.5
; #@! TF.FileFunction,Plated,1,2,PTH
FMAT,2
METRIC
; #@! TA.AperFunction,Plated,PTH,ViaDrill
T1C0.300
; #@! TA.AperFunction,Plated,PTH,ComponentDrill
T2C0.600
; #@! TA.AperFunction,Plated,PTH,ComponentDrill
T3C1.150
%
G90
G05
T1
X132.5Y-133.936
X132.618Y-86.0
X132.618Y-90.799
X133.0Y-82.0
X133.0Y-127.0
X133.0Y-127.0
X133.109Y-88.0
X133.131Y-109.085
X133.501Y-134.5
X133.623Y-113.092
X133.929Y-111.693
X134.0Y-128.5
X134.159Y-120.601
X134.165Y-122.159
X134.165Y-121.341
X134.261Y-110.15
X134.457Y-106.17
X134.504Y-109.352
X134.828Y-111.098
X135.129Y-126.816
X135.432Y-102.191
X135.495Y-94.75
X135.671Y-111.927
X135.934Y-95.75
X136.03Y-117.72
X136.039Y-116.753
X136.186Y-109.278
X136.193Y-89.25
X136.357Y-110.041
X136.407Y-135.612
X136.416Y-112.231
X136.475Y-118.851
X136.5Y-74.5
X136.5Y-74.5
X136.942Y-125.558
X137.0Y-85.5
X137.137Y-128.041
X137.382Y-88.685
X137.401Y-95.25
X137.403Y-126.816
X137.41Y-94.141
X137.416Y-91.75
X137.417Y-93.25
X138.2Y-103.656
X138.242Y-107.899
X138.292Y-114.716
X138.433Y-137.214
X138.5Y-83.0
X138.5Y-83.0
X138.5Y-125.0
X138.926Y-115.595
X138.98Y-121.248
X139.0Y-83.5
X139.0Y-83.5
X139.055Y-112.23
X139.244Y-105.494
X139.492Y-103.658
X139.518Y-116.9
X139.589Y-93.75
X139.99Y-92.358
X140.235Y-97.469
X140.382Y-90.909
X140.571Y-121.429
X140.611Y-105.332
X140.675Y-112.955
X141.0Y-110.561
X141.178Y-112.341
X141.34Y-90.409
X141.421Y-124.93
X141.434Y-102.0
X141.5Y-78.0
X141.771Y-114.151
X142.0Y-113.0
X142.0Y-115.3
X142.228Y-118.439
X142.43Y-110.677
X142.475Y-101.0
X142.5Y-117.4
X142.5Y-123.0
X142.591Y-130.073
X142.808Y-113.808
X142.965Y-104.988
X143.0Y-112.5
X143.156Y-121.162
X143.2Y-115.4
X143.967Y-114.933
X144.0Y-89.0
X144.0Y-113.5
X144.163Y-115.968
X144.5Y-122.5
X144.5Y-122.5
X144.95Y-114.5
T3
X134.0Y-75.2
X134.0Y-79.8
X138.0Y-80.0
X138.4Y-75.5
X142.6Y-80.0
X143.0Y-75.5
T2
G00X137.45Y-132.29
M15
G01X138.55Y-132.29
M16
G05
G00X137.45Y-140.93
M15
G01X138.55Y-140.93
M16
G05
G00X141.78Y-132.29
M15
G01X142.58Y-132.29
M16
G05
G00X141.78Y-140.93
M15
G01X142.58Y-140.93
M16
G05
M30
