%TF.GenerationSoftware,KiCad,Pcbnew,10.0.5*%
%TF.CreationDate,2026-08-21T16:26:05-05:00*%
%TF.ProjectId,arc-insight-board,6172632d-7669-4736-996f-6e2d626f6172,rev?*%
%TF.SameCoordinates,Original*%
%TF.FileFunction,Soldermask,Top*%
%TF.FilePolarity,Negative*%
%FSLAX46Y46*%
G04 Gerber Fmt 4.6, Leading zero omitted, Abs format (unit mm)*
G04 Created by KiCad (PCBNEW 10.0.5) date 2026-08-21 16:26:05*
%MOMM*%
%LPD*%
G01*
G04 APERTURE LIST*
G04 Aperture macros list*
%AMRoundRect*
0 Rectangle with rounded corners*
0 $1 Rounding radius*
0 $2 $3 $4 $5 $6 $7 $8 $9 X,Y pos of 4 corners*
0 Add a 4 corners polygon primitive as box body*
4,1,4,$2,$3,$4,$5,$6,$7,$8,$9,$2,$3,0*
0 Add four circle primitives for the rounded corners*
1,1,$1+$1,$2,$3*
1,1,$1+$1,$4,$5*
1,1,$1+$1,$6,$7*
1,1,$1+$1,$8,$9*
0 Add four rect primitives between the rounded corners*
20,1,$1+$1,$2,$3,$4,$5,0*
20,1,$1+$1,$4,$5,$6,$7,0*
20,1,$1+$1,$6,$7,$8,$9,0*
20,1,$1+$1,$8,$9,$2,$3,0*%
%AMFreePoly0*
4,1,88,0.050959,0.371253,0.114455,0.371253,0.341408,0.341374,0.562519,0.282128,0.774005,0.194527,0.972248,0.080072,1.153855,-0.059280,1.315720,-0.221145,1.455072,-0.402752,1.569527,-0.600995,1.657128,-0.812481,1.716374,-1.033592,1.746253,-1.260545,1.746253,-1.489455,1.716374,-1.716408,1.657128,-1.937519,1.569527,-2.149005,1.455072,-2.347248,1.315720,-2.528855,1.153855,-2.690720,
0.972248,-2.830072,0.774005,-2.944527,0.562519,-3.032128,0.341408,-3.091374,0.114455,-3.121253,-0.114455,-3.121253,-0.341408,-3.091374,-0.562519,-3.032128,-0.774005,-2.944527,-0.972248,-2.830072,-1.153855,-2.690720,-1.315720,-2.528855,-1.455072,-2.347248,-1.569527,-2.149005,-1.657128,-1.937519,-1.716374,-1.716408,-1.746253,-1.489455,-1.746253,-1.276509,-1.000000,-1.276509,-1.000000,-1.473491,
-0.961571,-1.666689,-0.886189,-1.848678,-0.776751,-2.012463,-0.637463,-2.151751,-0.473678,-2.261189,-0.291689,-2.336571,-0.098491,-2.375000,0.098491,-2.375000,0.291689,-2.336571,0.473678,-2.261189,0.637463,-2.151751,0.776751,-2.012463,0.886189,-1.848678,0.961571,-1.666689,1.000000,-1.473491,1.000000,-1.276509,0.961571,-1.083311,0.886189,-0.901322,0.776751,-0.737537,0.637463,-0.598249,
0.473678,-0.488811,0.291689,-0.413429,0.098491,-0.375000,-0.098491,-0.375000,-0.291689,-0.413429,-0.473678,-0.488811,-0.637463,-0.598249,-0.776751,-0.737537,-0.886189,-0.901322,-0.961571,-1.083311,-1.000000,-1.276509,-1.746253,-1.276509,-1.746253,-1.260545,-1.716374,-1.033592,-1.657128,-0.812481,-1.569527,-0.600995,-1.455072,-0.402752,-1.315720,-0.221145,-1.153855,-0.059280,-0.972248,0.080072,
-0.774005,0.194527,-0.562519,0.282128,-0.341408,0.341374,-0.114455,0.371253,-0.050959,0.371253,-0.048947,0.371792,0.048947,0.371792,0.050959,0.371253,0.050959,0.371253,$1*%
G04 Aperture macros list end*
%ADD10RoundRect,0.140000X0.170000X-0.140000X0.170000X0.140000X-0.170000X0.140000X-0.170000X-0.140000X0*%
%ADD11C,0.650000*%
%ADD12RoundRect,0.150000X0.425000X-0.150000X0.425000X0.150000X-0.425000X0.150000X-0.425000X-0.150000X0*%
%ADD13RoundRect,0.075000X0.500000X-0.075000X0.500000X0.075000X-0.500000X0.075000X-0.500000X-0.075000X0*%
%ADD14O,2.100000X1.000000*%
%ADD15O,1.800000X1.000000*%
%ADD16RoundRect,0.150000X-0.512500X-0.150000X0.512500X-0.150000X0.512500X0.150000X-0.512500X0.150000X0*%
%ADD17RoundRect,0.250000X-0.825000X-0.825000X0.825000X-0.825000X0.825000X0.825000X-0.825000X0.825000X0*%
%ADD18C,2.150000*%
%ADD19RoundRect,0.050000X-0.350000X-0.050000X0.350000X-0.050000X0.350000X0.050000X-0.350000X0.050000X0*%
%ADD20RoundRect,0.050000X-0.050000X-0.350000X0.050000X-0.350000X0.050000X0.350000X-0.050000X0.350000X0*%
%ADD21R,4.000000X4.000000*%
%ADD22RoundRect,0.075000X-0.175000X-0.075000X0.175000X-0.075000X0.175000X0.075000X-0.175000X0.075000X0*%
%ADD23FreePoly0,0.000000*%
%ADD24C,1.000000*%
%ADD25RoundRect,0.135000X0.185000X-0.135000X0.185000X0.135000X-0.185000X0.135000X-0.185000X-0.135000X0*%
%ADD26RoundRect,0.225000X-0.225000X-0.250000X0.225000X-0.250000X0.225000X0.250000X-0.225000X0.250000X0*%
%ADD27RoundRect,0.135000X-0.135000X-0.185000X0.135000X-0.185000X0.135000X0.185000X-0.135000X0.185000X0*%
%ADD28R,0.800000X0.480000*%
%ADD29R,0.800000X0.320000*%
%ADD30RoundRect,0.250000X0.825000X-0.825000X0.825000X0.825000X-0.825000X0.825000X-0.825000X-0.825000X0*%
%ADD31RoundRect,0.140000X-0.170000X0.140000X-0.170000X-0.140000X0.170000X-0.140000X0.170000X0.140000X0*%
%ADD32R,1.000000X1.800000*%
%ADD33RoundRect,0.218750X0.256250X-0.218750X0.256250X0.218750X-0.256250X0.218750X-0.256250X-0.218750X0*%
%ADD34R,1.300000X0.300000*%
%ADD35R,2.200000X1.800000*%
%ADD36R,0.800000X0.300000*%
G04 APERTURE END LIST*
D10*
%TO.C,C3*%
X133500000Y-102040000D03*
X133500000Y-103000000D03*
%TD*%
D11*
%TO.C,J1*%
X138500000Y-139500000D03*
X138500000Y-133720000D03*
D12*
X137425000Y-139810000D03*
X137425000Y-139010000D03*
D13*
X137425000Y-137860000D03*
X137425000Y-136860000D03*
X137425000Y-136360000D03*
X137425000Y-135360000D03*
D12*
X137425000Y-134210000D03*
X137425000Y-133410000D03*
X137425000Y-133410000D03*
X137425000Y-134210000D03*
D13*
X137425000Y-134860000D03*
X137425000Y-135860000D03*
X137425000Y-137360000D03*
X137425000Y-138360000D03*
D12*
X137425000Y-139010000D03*
X137425000Y-139810000D03*
D14*
X138000000Y-140930000D03*
D15*
X142180000Y-140930000D03*
D14*
X138000000Y-132290000D03*
D15*
X142180000Y-132290000D03*
%TD*%
D16*
%TO.C,U4*%
X141225000Y-127600000D03*
X141225000Y-128550000D03*
X141225000Y-129500000D03*
X143500000Y-129500000D03*
X143500000Y-127600000D03*
%TD*%
D17*
%TO.C,J4*%
X138000000Y-80000000D03*
D18*
X142600000Y-80000000D03*
%TD*%
D19*
%TO.C,U1*%
X135350000Y-105350000D03*
X135350000Y-105750000D03*
X135350000Y-106150000D03*
X135350000Y-106550000D03*
X135350000Y-106950000D03*
X135350000Y-107350000D03*
X135350000Y-107750000D03*
X135350000Y-108150000D03*
X135350000Y-108550000D03*
X135350000Y-108950000D03*
X135350000Y-109350000D03*
X135350000Y-109750000D03*
X135350000Y-110150000D03*
X135350000Y-110550000D03*
D20*
X136200000Y-111400000D03*
X136600000Y-111400000D03*
X137000000Y-111400000D03*
X137400000Y-111400000D03*
X137800000Y-111400000D03*
X138200000Y-111400000D03*
X138600000Y-111400000D03*
X139000000Y-111400000D03*
X139400000Y-111400000D03*
X139800000Y-111400000D03*
X140200000Y-111400000D03*
X140600000Y-111400000D03*
X141000000Y-111400000D03*
X141400000Y-111400000D03*
D19*
X142250000Y-110550000D03*
X142250000Y-110150000D03*
X142250000Y-109750000D03*
X142250000Y-109350000D03*
X142250000Y-108950000D03*
X142250000Y-108550000D03*
X142250000Y-108150000D03*
X142250000Y-107750000D03*
X142250000Y-107350000D03*
X142250000Y-106950000D03*
X142250000Y-106550000D03*
X142250000Y-106150000D03*
X142250000Y-105750000D03*
X142250000Y-105350000D03*
D20*
X141400000Y-104500000D03*
X141000000Y-104500000D03*
X140600000Y-104500000D03*
X140200000Y-104500000D03*
X139800000Y-104500000D03*
X139400000Y-104500000D03*
X139000000Y-104500000D03*
X138600000Y-104500000D03*
X138200000Y-104500000D03*
X137800000Y-104500000D03*
X137400000Y-104500000D03*
X137000000Y-104500000D03*
X136600000Y-104500000D03*
X136200000Y-104500000D03*
D21*
X138800000Y-107950000D03*
%TD*%
D22*
%TO.C,U3*%
X143200000Y-114500000D03*
X143200000Y-115400000D03*
X143200000Y-116200000D03*
X143200000Y-117000000D03*
X143200000Y-117900000D03*
X144000000Y-117500000D03*
X144000000Y-116600000D03*
X144000000Y-115800000D03*
X144000000Y-114900000D03*
%TD*%
D23*
%TO.C,M1*%
X134500000Y-82625000D03*
D24*
X134500000Y-84000000D03*
%TD*%
D10*
%TO.C,C6*%
X133500000Y-94980000D03*
X133500000Y-94020000D03*
%TD*%
D25*
%TO.C,R3*%
X138500000Y-114000000D03*
X138500000Y-112980000D03*
%TD*%
D10*
%TO.C,C4*%
X133500000Y-97480000D03*
X133500000Y-96520000D03*
%TD*%
D26*
%TO.C,C8*%
X133225000Y-141500000D03*
X134775000Y-141500000D03*
%TD*%
D27*
%TO.C,R1*%
X141980000Y-122000000D03*
X143000000Y-122000000D03*
%TD*%
D16*
%TO.C,U5*%
X135862500Y-127550000D03*
X135862500Y-128500000D03*
X135862500Y-129450000D03*
X138137500Y-129450000D03*
X138137500Y-127550000D03*
%TD*%
D28*
%TO.C,J3*%
X135200000Y-115000000D03*
D29*
X135200000Y-115720000D03*
X135200000Y-116360000D03*
X135200000Y-117000000D03*
D28*
X135200000Y-117720000D03*
X137000000Y-117720000D03*
D29*
X137000000Y-117000000D03*
X137000000Y-116360000D03*
X137000000Y-115720000D03*
D28*
X137000000Y-115000000D03*
%TD*%
D10*
%TO.C,C10*%
X133500000Y-90000000D03*
X133500000Y-89040000D03*
%TD*%
D30*
%TO.C,J5*%
X134000000Y-79800000D03*
D18*
X134000000Y-75200000D03*
%TD*%
D25*
%TO.C,R7*%
X132500000Y-136510000D03*
X132500000Y-135490000D03*
%TD*%
%TO.C,R4*%
X134000000Y-88000000D03*
X134000000Y-86980000D03*
%TD*%
D26*
%TO.C,C9*%
X133500000Y-139000000D03*
X135050000Y-139000000D03*
%TD*%
D25*
%TO.C,R5*%
X144500000Y-121500000D03*
X144500000Y-120480000D03*
%TD*%
D31*
%TO.C,C2*%
X143000000Y-102040000D03*
X143000000Y-103000000D03*
%TD*%
D25*
%TO.C,R2*%
X144500000Y-124500000D03*
X144500000Y-123480000D03*
%TD*%
D10*
%TO.C,C5*%
X133500000Y-100480000D03*
X133500000Y-99520000D03*
%TD*%
D32*
%TO.C,Y1*%
X140500000Y-102000000D03*
X138000000Y-102000000D03*
%TD*%
D17*
%TO.C,J7*%
X138400000Y-75500000D03*
D18*
X143000000Y-75500000D03*
%TD*%
D22*
%TO.C,U2*%
X139700000Y-114400000D03*
X139700000Y-115300000D03*
X139700000Y-116100000D03*
X139700000Y-116900000D03*
X139700000Y-117800000D03*
X140500000Y-117400000D03*
X140500000Y-116500000D03*
X140500000Y-115700000D03*
X140500000Y-114800000D03*
%TD*%
D33*
%TO.C,L1*%
X134500000Y-136287500D03*
X134500000Y-134712500D03*
%TD*%
D34*
%TO.C,J6*%
X138500000Y-97250000D03*
X138500000Y-96750000D03*
X138500000Y-96250000D03*
X138500000Y-95750000D03*
X138500000Y-95250000D03*
X138500000Y-94750000D03*
X138500000Y-94250000D03*
X138500000Y-93750000D03*
X138500000Y-93250000D03*
X138500000Y-92750000D03*
X138500000Y-92250000D03*
X138500000Y-91750000D03*
X138500000Y-91250000D03*
X138500000Y-90750000D03*
X138500000Y-90250000D03*
X138500000Y-89750000D03*
X138500000Y-89250000D03*
X138500000Y-88750000D03*
X138500000Y-88250000D03*
X138500000Y-87750000D03*
X138500000Y-87250000D03*
X138500000Y-86750000D03*
X138500000Y-86250000D03*
X138500000Y-85750000D03*
D35*
X141750000Y-99150000D03*
X141750000Y-83850000D03*
%TD*%
D10*
%TO.C,C1*%
X136500000Y-102480000D03*
X136500000Y-101520000D03*
%TD*%
%TO.C,C7*%
X133500000Y-92480000D03*
X133500000Y-91520000D03*
%TD*%
D36*
%TO.C,J2*%
X135000000Y-120000000D03*
X135000000Y-120500000D03*
X135000000Y-121000000D03*
X135000000Y-121500000D03*
X135000000Y-122000000D03*
X135000000Y-122500000D03*
X135000000Y-123000000D03*
X135000000Y-123500000D03*
X136800000Y-123500000D03*
X136800000Y-123000000D03*
X136800000Y-122500000D03*
X136800000Y-122000000D03*
X136800000Y-121500000D03*
X136800000Y-121000000D03*
X136800000Y-120500000D03*
X136800000Y-120000000D03*
%TD*%
D27*
%TO.C,R6*%
X141990000Y-125500000D03*
X143010000Y-125500000D03*
%TD*%
M02*
