%TF.GenerationSoftware,KiCad,Pcbnew,10.0.5*%
%TF.CreationDate,2026-08-21T16:26:05-05:00*%
%TF.ProjectId,arc-insight-board,6172632d-7669-4736-996f-6e2d626f6172,rev?*%
%TF.SameCoordinates,Original*%
%TF.FileFunction,Copper,L2,Bot*%
%TF.FilePolarity,Positive*%
%FSLAX46Y46*%
G04 Gerber Fmt 4.6, Leading zero omitted, Abs format (unit mm)*
G04 Created by KiCad (PCBNEW 10.0.5) date 2026-08-21 16:26:05*
%MOMM*%
%LPD*%
G01*
G04 APERTURE LIST*
G04 Aperture macros list*
%AMRoundRect*
0 Rectangle with rounded corners*
0 $1 Rounding radius*
0 $2 $3 $4 $5 $6 $7 $8 $9 X,Y pos of 4 corners*
0 Add a 4 corners polygon primitive as box body*
4,1,4,$2,$3,$4,$5,$6,$7,$8,$9,$2,$3,0*
0 Add four circle primitives for the rounded corners*
1,1,$1+$1,$2,$3*
1,1,$1+$1,$4,$5*
1,1,$1+$1,$6,$7*
1,1,$1+$1,$8,$9*
0 Add four rect primitives between the rounded corners*
20,1,$1+$1,$2,$3,$4,$5,0*
20,1,$1+$1,$4,$5,$6,$7,0*
20,1,$1+$1,$6,$7,$8,$9,0*
20,1,$1+$1,$8,$9,$2,$3,0*%
G04 Aperture macros list end*
%TA.AperFunction,ComponentPad*%
%ADD10O,2.100000X1.000000*%
%TD*%
%TA.AperFunction,ComponentPad*%
%ADD11O,1.800000X1.000000*%
%TD*%
%TA.AperFunction,ComponentPad*%
%ADD12RoundRect,0.250000X-0.825000X-0.825000X0.825000X-0.825000X0.825000X0.825000X-0.825000X0.825000X0*%
%TD*%
%TA.AperFunction,ComponentPad*%
%ADD13C,2.150000*%
%TD*%
%TA.AperFunction,ComponentPad*%
%ADD14RoundRect,0.250000X0.825000X-0.825000X0.825000X0.825000X-0.825000X0.825000X-0.825000X-0.825000X0*%
%TD*%
%TA.AperFunction,ViaPad*%
%ADD15C,0.600000*%
%TD*%
%TA.AperFunction,Conductor*%
%ADD16C,0.127000*%
%TD*%
G04 APERTURE END LIST*
D10*
%TO.P,J1,SH,SHIELD_SH*%
%TO.N,unconnected-(J1-SHIELD-PadSH)_2*%
X138000000Y-140930000D03*
D11*
%TO.N,unconnected-(J1-SHIELD-PadSH)_1*%
X142180000Y-140930000D03*
D10*
%TO.N,unconnected-(J1-SHIELD-PadSH)_3*%
X138000000Y-132290000D03*
D11*
%TO.N,unconnected-(J1-SHIELD-PadSH)*%
X142180000Y-132290000D03*
%TD*%
D12*
%TO.P,J4,1,Pin_1_1*%
%TO.N,Net-(J4-Pin_1)*%
X138000000Y-80000000D03*
D13*
%TO.P,J4,2,Pin_2_2*%
%TO.N,Net-(J4-Pin_2)*%
X142600000Y-80000000D03*
%TD*%
D14*
%TO.P,J5,1,Pin_1_1*%
%TO.N,Net-(J5-Pin_1)*%
X134000000Y-79800000D03*
D13*
%TO.P,J5,2,Pin_2_2*%
%TO.N,Net-(J5-Pin_2)*%
X134000000Y-75200000D03*
%TD*%
D12*
%TO.P,J7,1,Pin_1_1*%
%TO.N,Net-(J7-Pin_1)*%
X138400000Y-75500000D03*
D13*
%TO.P,J7,2,Pin_2_2*%
%TO.N,GND*%
X143000000Y-75500000D03*
%TD*%
D15*
%TO.N,GND*%
X144000000Y-89000000D03*
X143200000Y-115400000D03*
X142228200Y-118439400D03*
X133501000Y-134500000D03*
X132500000Y-133936500D03*
%TO.N,Net-(J5-Pin_1)*%
X133000000Y-82000000D03*
%TO.N,GND*%
X132618500Y-86000000D03*
%TO.N,Net-(U5-IN+)*%
X133109000Y-88000000D03*
%TO.N,GND*%
X138241500Y-107898933D03*
X136500000Y-74500000D03*
X136500000Y-74500000D03*
X138500000Y-83000000D03*
X139000000Y-83500000D03*
X144500000Y-122500000D03*
X142500000Y-117400000D03*
X142500000Y-123000000D03*
X141500000Y-78000000D03*
X133000000Y-127000000D03*
X132618500Y-90799500D03*
X142000000Y-115300000D03*
X139000000Y-83500000D03*
X134000000Y-128500000D03*
X137000000Y-85500000D03*
X142429721Y-110677000D03*
X133000000Y-127000000D03*
X138500000Y-125000000D03*
X142000000Y-113000000D03*
X136942064Y-125557936D03*
X138500000Y-83000000D03*
X144500000Y-122500000D03*
%TO.N,Net-(U4-IN)*%
X136407300Y-135612300D03*
X142591100Y-130073500D03*
%TO.N,Net-(J1-D--PadB7)*%
X138292000Y-114716400D03*
X138433300Y-137213800D03*
%TO.N,Net-(J4-Pin_1)*%
X144950000Y-114500000D03*
X144163341Y-115968164D03*
%TO.N,Net-(J4-Pin_2)*%
X143966940Y-114933060D03*
X144000000Y-113500000D03*
%TO.N,Net-(U1-CHIP_PU)*%
X143156200Y-121161600D03*
X134456900Y-106170100D03*
%TO.N,Net-(J3-Pin_5)*%
X133623300Y-113091600D03*
X136030200Y-117720000D03*
%TO.N,Net-(J3-Pin_4)*%
X136038900Y-116753300D03*
X135432100Y-102191300D03*
X133131100Y-109085500D03*
%TO.N,Net-(J3-Pin_3)*%
X133929300Y-111692600D03*
X135933600Y-95750000D03*
%TO.N,Net-(U1-GPIO6)*%
X134503800Y-109351600D03*
X136192600Y-89250000D03*
%TO.N,Net-(U1-GPIO7)*%
X137381800Y-88685400D03*
X136186100Y-109278100D03*
%TO.N,Net-(U1-GPIO8)*%
X134261200Y-110150000D03*
X135495100Y-94750000D03*
%TO.N,Net-(J2-Pin_3)*%
X134159400Y-120601100D03*
X134828500Y-111097800D03*
%TO.N,Net-(J2-Pin_4)*%
X134165500Y-121340700D03*
X136474500Y-118851100D03*
X135671000Y-111927400D03*
%TO.N,Net-(J2-Pin_5)*%
X136415900Y-112230900D03*
X134165400Y-122159300D03*
X139517600Y-116900100D03*
%TO.N,Net-(U1-GPIO13)*%
X136357500Y-110040900D03*
X137401500Y-95250000D03*
%TO.N,Net-(U1-GPIO14)*%
X140675100Y-112955400D03*
X137410100Y-94141400D03*
%TO.N,Net-(U1-GPIO18)*%
X137403500Y-126816000D03*
X139055500Y-112230300D03*
%TO.N,Net-(U1-GPIO20{slash}USB_D+)*%
X141177700Y-112340600D03*
%TO.N,Net-(U1-GPIO21)*%
X141000000Y-110561200D03*
X139588700Y-93750000D03*
%TO.N,Net-(U1-MTCK)*%
X142965300Y-104987700D03*
X141340000Y-90409300D03*
%TO.N,Net-(U1-MTDO)*%
X140382400Y-90909300D03*
X140611100Y-105332000D03*
%TO.N,Net-(U1-MTMS)*%
X137416000Y-91750000D03*
X139492300Y-103658100D03*
%TO.N,Net-(U1-U0TXD)*%
X139989800Y-92358000D03*
X140234600Y-97469000D03*
%TO.N,Net-(U1-GPIO45)*%
X137417100Y-93250000D03*
X138200000Y-103655900D03*
%TO.N,Net-(U1-XTAL_N)*%
X141433700Y-102000000D03*
X139244400Y-105494000D03*
X142474800Y-101000000D03*
%TO.N,Net-(J7-Pin_1)*%
X142807986Y-113807986D03*
%TO.N,Net-(U5-IN+)*%
X135128500Y-126816000D03*
%TO.N,Net-(U5-IN-)*%
X141420500Y-124930500D03*
X137137200Y-128041300D03*
%TO.N,Net-(J5-Pin_1)*%
X138926400Y-115595100D03*
X138980000Y-121248300D03*
%TO.N,Net-(J5-Pin_2)*%
X141771100Y-114151200D03*
X140571100Y-121428900D03*
X143000000Y-112500000D03*
%TD*%
%TO.N,GND*%
D16*
X143850000Y-89150000D02*
X144000000Y-89000000D01*
X143850000Y-109000000D02*
X143850000Y-89150000D01*
X144490500Y-109640500D02*
X143850000Y-109000000D01*
X144490500Y-114009500D02*
X144490500Y-109640500D01*
X144459500Y-114040500D02*
X144490500Y-114009500D01*
X144459500Y-115134172D02*
X144459500Y-114040500D01*
X144170112Y-115423560D02*
X144459500Y-115134172D01*
X143200000Y-115400000D02*
X143223560Y-115423560D01*
X143223560Y-115423560D02*
X144170112Y-115423560D01*
X142500000Y-118167600D02*
X142228200Y-118439400D01*
X142500000Y-117400000D02*
X142500000Y-118167600D01*
X144900000Y-117400000D02*
X145000000Y-117500000D01*
X142500000Y-117400000D02*
X144900000Y-117400000D01*
%TO.N,Net-(J5-Pin_2)*%
X143359372Y-120671100D02*
X143681900Y-120993628D01*
X143024910Y-120671100D02*
X143359372Y-120671100D01*
X141532900Y-119179090D02*
X143024910Y-120671100D01*
X142500000Y-116032900D02*
X141532900Y-117000000D01*
X142500000Y-114880100D02*
X142500000Y-116032900D01*
X141771100Y-114151200D02*
X142500000Y-114880100D01*
X141532900Y-117000000D02*
X141532900Y-119179090D01*
%TO.N,GND*%
X132937500Y-133936500D02*
X133501000Y-134500000D01*
X132500000Y-133936500D02*
X132937500Y-133936500D01*
%TO.N,Net-(J5-Pin_1)*%
X132500000Y-81500000D02*
X133000000Y-82000000D01*
X132050000Y-81500000D02*
X132500000Y-81500000D01*
%TO.N,Net-(U5-IN+)*%
X133242300Y-88133300D02*
X133109000Y-88000000D01*
X133242300Y-104103500D02*
X133242300Y-88133300D01*
X132638900Y-104706900D02*
X133242300Y-104103500D01*
X132638900Y-124326400D02*
X132638900Y-104706900D01*
X135128500Y-126816000D02*
X132638900Y-124326400D01*
%TO.N,GND*%
X138000000Y-108500000D02*
X138000000Y-108140433D01*
X138000000Y-108140433D02*
X138241500Y-107898933D01*
X138030772Y-108500000D02*
X138000000Y-108500000D01*
X142000000Y-112469228D02*
X138030772Y-108500000D01*
X142000000Y-113000000D02*
X142000000Y-112469228D01*
%TO.N,Net-(J7-Pin_1)*%
X139500000Y-78000000D02*
X139000000Y-77500000D01*
X141000000Y-78000000D02*
X139500000Y-78000000D01*
X141500000Y-82000000D02*
X141000000Y-81500000D01*
X143490500Y-82000000D02*
X141500000Y-82000000D01*
X139000000Y-77500000D02*
X139000000Y-77509500D01*
X143490500Y-113125472D02*
X143490500Y-82000000D01*
X141000000Y-81500000D02*
X141000000Y-78000000D01*
X142807986Y-113807986D02*
X143490500Y-113125472D01*
X139000000Y-75500000D02*
X139000000Y-77500000D01*
%TO.N,GND*%
X139000000Y-83500000D02*
X137000000Y-85500000D01*
X142500000Y-110500000D02*
X142500000Y-110606721D01*
X142000000Y-111000000D02*
X142500000Y-110500000D01*
X134000000Y-128000000D02*
X134000000Y-128500000D01*
X141500000Y-77000000D02*
X141500000Y-78000000D01*
X142500000Y-123000000D02*
X144000000Y-123000000D01*
X133000000Y-127000000D02*
X134000000Y-128000000D01*
X142500000Y-110606721D02*
X142429721Y-110677000D01*
X132618500Y-85876400D02*
X132715900Y-85779000D01*
X144000000Y-123000000D02*
X144500000Y-122500000D01*
X137500000Y-125000000D02*
X138500000Y-125000000D01*
X136942064Y-125557936D02*
X137500000Y-125000000D01*
X142000000Y-113000000D02*
X142000000Y-111000000D01*
X132618500Y-90799500D02*
X132618500Y-85876400D01*
%TO.N,Net-(U4-IN)*%
X140314500Y-133019500D02*
X140314500Y-132350100D01*
X140314500Y-132350100D02*
X142591100Y-130073500D01*
X136407300Y-135612300D02*
X137721700Y-135612300D01*
X137721700Y-135612300D02*
X140314500Y-133019500D01*
%TO.N,Net-(J1-D--PadB7)*%
X138292000Y-120808000D02*
X135905300Y-123194700D01*
X138292000Y-114716400D02*
X138292000Y-120808000D01*
X135905300Y-135848600D02*
X137270500Y-137213800D01*
X135905300Y-123194700D02*
X135905300Y-135848600D01*
X137270500Y-137213800D02*
X138433300Y-137213800D01*
%TO.N,Net-(J4-Pin_1)*%
X145186500Y-114813500D02*
X144031836Y-115968164D01*
X144950000Y-114500000D02*
X145186500Y-114736500D01*
X144031836Y-115968164D02*
X144163341Y-115968164D01*
X145186500Y-114736500D02*
X145186500Y-114813500D01*
%TO.N,Net-(J4-Pin_2)*%
X144000000Y-113500000D02*
X144000000Y-114966120D01*
X144000000Y-114966120D02*
X143966940Y-114933060D01*
%TO.N,Net-(U1-CHIP_PU)*%
X136349800Y-110818700D02*
X138340200Y-110818700D01*
X135336100Y-107049300D02*
X135336100Y-109805000D01*
X140182900Y-112661400D02*
X140182900Y-113159100D01*
X141278900Y-114255100D02*
X141278900Y-119284300D01*
X135336100Y-109805000D02*
X136349800Y-110818700D01*
X140182900Y-113159100D02*
X141278900Y-114255100D01*
X134456900Y-106170100D02*
X135336100Y-107049300D01*
X138340200Y-110818700D02*
X140182900Y-112661400D01*
X141278900Y-119284300D02*
X143156200Y-121161600D01*
%TO.N,Net-(J3-Pin_5)*%
X136569400Y-116321100D02*
X133623300Y-113375000D01*
X133623300Y-113375000D02*
X133623300Y-113091600D01*
X136569400Y-117180800D02*
X136569400Y-116321100D01*
X136030200Y-117720000D02*
X136569400Y-117180800D01*
%TO.N,Net-(J3-Pin_4)*%
X133131100Y-104576300D02*
X133131100Y-109085500D01*
X135432100Y-102191300D02*
X135432100Y-102275300D01*
X135432100Y-102275300D02*
X133131100Y-104576300D01*
X133131100Y-113845500D02*
X136038900Y-116753300D01*
X133131100Y-109085500D02*
X133131100Y-113845500D01*
%TO.N,Net-(J3-Pin_3)*%
X133623300Y-111386600D02*
X133623300Y-108881600D01*
X134995000Y-94484800D02*
X135231900Y-94247900D01*
X133623300Y-108881600D02*
X133386800Y-108645100D01*
X135987300Y-95696300D02*
X135933600Y-95750000D01*
X133386800Y-104970000D02*
X135929100Y-102427700D01*
X134995000Y-101020700D02*
X134995000Y-94484800D01*
X135929100Y-102427700D02*
X135929100Y-101954800D01*
X135753100Y-94247900D02*
X135987300Y-94482100D01*
X135987300Y-94482100D02*
X135987300Y-95696300D01*
X135929100Y-101954800D02*
X134995000Y-101020700D01*
X133386800Y-108645100D02*
X133386800Y-104970000D01*
X133929300Y-111692600D02*
X133623300Y-111386600D01*
X135231900Y-94247900D02*
X135753100Y-94247900D01*
%TO.N,Net-(U1-GPIO6)*%
X133938900Y-105268400D02*
X136440500Y-102766800D01*
X136440500Y-89497900D02*
X136192600Y-89250000D01*
X134503800Y-109038900D02*
X133938900Y-108474000D01*
X133938900Y-108474000D02*
X133938900Y-105268400D01*
X134503800Y-109351600D02*
X134503800Y-109038900D01*
X136440500Y-102766800D02*
X136440500Y-89497900D01*
%TO.N,Net-(U1-GPIO7)*%
X136696200Y-89371000D02*
X137381800Y-88685400D01*
X136696200Y-108768000D02*
X136696200Y-89371000D01*
X136186100Y-109278100D02*
X136696200Y-108768000D01*
%TO.N,Net-(U1-GPIO8)*%
X136184800Y-101848900D02*
X135432700Y-101096800D01*
X133642500Y-108539200D02*
X133642500Y-105203200D01*
X133642500Y-105203200D02*
X136184800Y-102660900D01*
X135432700Y-94812400D02*
X135495100Y-94750000D01*
X133879000Y-108775700D02*
X133642500Y-108539200D01*
X134261200Y-110150000D02*
X133879000Y-109767800D01*
X135432700Y-101096800D02*
X135432700Y-94812400D01*
X136184800Y-102660900D02*
X136184800Y-101848900D01*
X133879000Y-109767800D02*
X133879000Y-108775700D01*
%TO.N,Net-(J2-Pin_3)*%
X136825100Y-117802900D02*
X136825100Y-116194200D01*
X134828500Y-114197600D02*
X134828500Y-111097800D01*
X136825100Y-116194200D02*
X134828500Y-114197600D01*
X134159400Y-120468600D02*
X136825100Y-117802900D01*
X134159400Y-120601100D02*
X134159400Y-120468600D01*
%TO.N,Net-(J2-Pin_4)*%
X135671000Y-112302800D02*
X135671000Y-111927400D01*
X134165500Y-121340700D02*
X136474500Y-119031700D01*
X136474500Y-119031700D02*
X136474500Y-118851100D01*
X136474500Y-118851100D02*
X137080800Y-118244800D01*
X137080800Y-118244800D02*
X137080800Y-113712600D01*
X137080800Y-113712600D02*
X135671000Y-112302800D01*
%TO.N,Net-(J2-Pin_5)*%
X139517600Y-115228000D02*
X139517600Y-116900100D01*
X138486500Y-114196900D02*
X139517600Y-115228000D01*
X137336500Y-114196900D02*
X138486500Y-114196900D01*
X137336500Y-113151500D02*
X137336500Y-114196900D01*
X134165400Y-122159300D02*
X137336500Y-118988200D01*
X136415900Y-112230900D02*
X137336500Y-113151500D01*
X137336500Y-118988200D02*
X137336500Y-114196900D01*
%TO.N,Net-(U1-GPIO13)*%
X137401500Y-95250000D02*
X137401500Y-108996900D01*
X137401500Y-108996900D02*
X136357500Y-110040900D01*
%TO.N,Net-(U1-GPIO14)*%
X140675100Y-112481700D02*
X137682500Y-109489100D01*
X137945800Y-94677100D02*
X137410100Y-94141400D01*
X137682500Y-97191900D02*
X137945800Y-96928600D01*
X140675100Y-112955400D02*
X140675100Y-112481700D01*
X137682500Y-109489100D02*
X137682500Y-97191900D01*
X137945800Y-96928600D02*
X137945800Y-94677100D01*
%TO.N,Net-(U1-GPIO18)*%
X139055500Y-112393300D02*
X140064700Y-113402500D01*
X140064700Y-113402500D02*
X140064700Y-124154800D01*
X139055500Y-112230300D02*
X139055500Y-112393300D01*
X140064700Y-124154800D02*
X137403500Y-126816000D01*
%TO.N,Net-(U1-GPIO21)*%
X141000000Y-110561200D02*
X138732000Y-108293200D01*
X138732000Y-108293200D02*
X138732000Y-94606700D01*
X138732000Y-94606700D02*
X139588700Y-93750000D01*
%TO.N,Net-(U1-MTCK)*%
X142965300Y-92034600D02*
X142965300Y-104987700D01*
X141340000Y-90409300D02*
X142965300Y-92034600D01*
%TO.N,Net-(U1-MTDO)*%
X140726800Y-91253700D02*
X140382400Y-90909300D01*
X140611100Y-105332000D02*
X140726800Y-105216300D01*
X140726800Y-105216300D02*
X140726800Y-91253700D01*
%TO.N,Net-(U1-MTMS)*%
X138316000Y-91750000D02*
X140101100Y-93535100D01*
X139492300Y-97515300D02*
X139492300Y-103658100D01*
X140101100Y-93535100D02*
X140101100Y-96906500D01*
X137416000Y-91750000D02*
X138316000Y-91750000D01*
X140101100Y-96906500D02*
X139492300Y-97515300D01*
%TO.N,Net-(U1-U0TXD)*%
X140356800Y-97346800D02*
X140356800Y-92725000D01*
X140356800Y-92725000D02*
X139989800Y-92358000D01*
X140234600Y-97469000D02*
X140356800Y-97346800D01*
%TO.N,Net-(U1-GPIO45)*%
X138263900Y-94096800D02*
X137417100Y-93250000D01*
X138200000Y-103655900D02*
X138263900Y-103592000D01*
X138263900Y-103592000D02*
X138263900Y-94096800D01*
%TO.N,Net-(U1-XTAL_N)*%
X141433700Y-105209100D02*
X141433700Y-102000000D01*
X139244400Y-105494000D02*
X139614100Y-105863700D01*
X140779100Y-105863700D02*
X141433700Y-105209100D01*
X142474800Y-101000000D02*
X142433700Y-101000000D01*
X142433700Y-101000000D02*
X141433700Y-102000000D01*
X139614100Y-105863700D02*
X140779100Y-105863700D01*
%TO.N,Net-(U5-IN-)*%
X138309700Y-128041300D02*
X141420500Y-124930500D01*
X137137200Y-128041300D02*
X138309700Y-128041300D01*
%TO.N,Net-(J5-Pin_1)*%
X136159300Y-124069000D02*
X138980000Y-121248300D01*
X137401790Y-137704300D02*
X138692772Y-137704300D01*
X132050000Y-81500000D02*
X132050000Y-132352510D01*
X143081600Y-130276672D02*
X143081600Y-129870328D01*
X138692772Y-137704300D02*
X140568500Y-135828572D01*
X132050000Y-132352510D02*
X137401790Y-137704300D01*
X138980000Y-121248300D02*
X138980000Y-115648700D01*
X136159300Y-128343690D02*
X136159300Y-124069000D01*
X143081600Y-129870328D02*
X142794272Y-129583000D01*
X142794272Y-129583000D02*
X137398610Y-129583000D01*
X138980000Y-115648700D02*
X138926400Y-115595100D01*
X142459810Y-130564000D02*
X142794272Y-130564000D01*
X137398610Y-129583000D02*
X136159300Y-128343690D01*
X140568500Y-135828572D02*
X140568500Y-132455310D01*
X142794272Y-130564000D02*
X143081600Y-130276672D01*
X140568500Y-132455310D02*
X142459810Y-130564000D01*
%TO.N,Net-(J5-Pin_2)*%
X143316000Y-121698100D02*
X143681900Y-121332200D01*
X143000000Y-112922300D02*
X141771100Y-114151200D01*
X143681900Y-121332200D02*
X143681900Y-120993628D01*
X140571100Y-121428900D02*
X140840300Y-121698100D01*
X143000000Y-112500000D02*
X143000000Y-112922300D01*
X140840300Y-121698100D02*
X143316000Y-121698100D01*
%TD*%
%TA.AperFunction,Conductor*%
%TO.N,GND*%
G36*
X143269203Y-115337637D02*
G01*
X143291102Y-115362460D01*
X143345147Y-115443344D01*
X143345153Y-115443352D01*
X143406150Y-115504349D01*
X143439635Y-115565672D01*
X143434651Y-115635364D01*
X143433030Y-115639482D01*
X143393605Y-115734662D01*
X143393602Y-115734674D01*
X143362841Y-115889317D01*
X143362841Y-116047010D01*
X143393602Y-116201653D01*
X143393605Y-116201665D01*
X143453943Y-116347336D01*
X143453950Y-116347349D01*
X143541551Y-116478452D01*
X143541554Y-116478456D01*
X143653048Y-116589950D01*
X143653052Y-116589953D01*
X143784155Y-116677554D01*
X143784168Y-116677561D01*
X143929839Y-116737899D01*
X143929844Y-116737901D01*
X144084494Y-116768663D01*
X144084497Y-116768664D01*
X144084499Y-116768664D01*
X144242185Y-116768664D01*
X144242186Y-116768663D01*
X144396838Y-116737901D01*
X144542520Y-116677558D01*
X144673630Y-116589953D01*
X144785130Y-116478453D01*
X144872735Y-116347343D01*
X144933078Y-116201661D01*
X144963841Y-116047006D01*
X144963841Y-115889322D01*
X144963841Y-115885136D01*
X144983526Y-115818097D01*
X145000160Y-115797455D01*
X145087819Y-115709796D01*
X145149142Y-115676311D01*
X145218834Y-115681295D01*
X145274767Y-115723167D01*
X145299184Y-115788631D01*
X145299500Y-115797477D01*
X145299500Y-142175500D01*
X145279815Y-142242539D01*
X145227011Y-142288294D01*
X145175500Y-142299500D01*
X132624000Y-142299500D01*
X132556961Y-142279815D01*
X132511206Y-142227011D01*
X132500000Y-142175500D01*
X132500000Y-141028543D01*
X136449499Y-141028543D01*
X136487947Y-141221829D01*
X136487950Y-141221839D01*
X136563364Y-141403907D01*
X136563371Y-141403920D01*
X136672860Y-141567781D01*
X136672863Y-141567785D01*
X136812214Y-141707136D01*
X136812218Y-141707139D01*
X136976079Y-141816628D01*
X136976092Y-141816635D01*
X137158160Y-141892049D01*
X137158165Y-141892051D01*
X137158169Y-141892051D01*
X137158170Y-141892052D01*
X137351456Y-141930500D01*
X137351459Y-141930500D01*
X138648543Y-141930500D01*
X138778582Y-141904632D01*
X138841835Y-141892051D01*
X139023914Y-141816632D01*
X139187782Y-141707139D01*
X139327139Y-141567782D01*
X139436632Y-141403914D01*
X139512051Y-141221835D01*
X139550500Y-141028543D01*
X140779499Y-141028543D01*
X140817947Y-141221829D01*
X140817950Y-141221839D01*
X140893364Y-141403907D01*
X140893371Y-141403920D01*
X141002860Y-141567781D01*
X141002863Y-141567785D01*
X141142214Y-141707136D01*
X141142218Y-141707139D01*
X141306079Y-141816628D01*
X141306092Y-141816635D01*
X141488160Y-141892049D01*
X141488165Y-141892051D01*
X141488169Y-141892051D01*
X141488170Y-141892052D01*
X141681456Y-141930500D01*
X141681459Y-141930500D01*
X142678543Y-141930500D01*
X142808582Y-141904632D01*
X142871835Y-141892051D01*
X143053914Y-141816632D01*
X143217782Y-141707139D01*
X143357139Y-141567782D01*
X143466632Y-141403914D01*
X143542051Y-141221835D01*
X143580500Y-141028541D01*
X143580500Y-140831459D01*
X143580500Y-140831456D01*
X143542052Y-140638170D01*
X143542051Y-140638169D01*
X143542051Y-140638165D01*
X143542049Y-140638160D01*
X143466635Y-140456092D01*
X143466628Y-140456079D01*
X143357139Y-140292218D01*
X143357136Y-140292214D01*
X143217785Y-140152863D01*
X143217781Y-140152860D01*
X143053920Y-140043371D01*
X143053907Y-140043364D01*
X142871839Y-139967950D01*
X142871829Y-139967947D01*
X142678543Y-139929500D01*
X142678541Y-139929500D01*
X141681459Y-139929500D01*
X141681457Y-139929500D01*
X141488170Y-139967947D01*
X141488160Y-139967950D01*
X141306092Y-140043364D01*
X141306079Y-140043371D01*
X141142218Y-140152860D01*
X141142214Y-140152863D01*
X141002863Y-140292214D01*
X141002860Y-140292218D01*
X140893371Y-140456079D01*
X140893364Y-140456092D01*
X140817950Y-140638160D01*
X140817947Y-140638170D01*
X140779500Y-140831456D01*
X140779500Y-140831459D01*
X140779500Y-141028541D01*
X140779500Y-141028543D01*
X140779499Y-141028543D01*
X139550500Y-141028543D01*
X139550500Y-141028541D01*
X139550500Y-140831459D01*
X139550500Y-140831456D01*
X139512052Y-140638170D01*
X139512051Y-140638169D01*
X139512051Y-140638165D01*
X139512049Y-140638160D01*
X139436635Y-140456092D01*
X139436628Y-140456079D01*
X139327139Y-140292218D01*
X139327136Y-140292214D01*
X139187785Y-140152863D01*
X139187781Y-140152860D01*
X139023920Y-140043371D01*
X139023907Y-140043364D01*
X138916184Y-139998745D01*
X138861780Y-139954905D01*
X138839715Y-139888611D01*
X138856994Y-139820911D01*
X138875952Y-139796506D01*
X138880495Y-139791964D01*
X138943095Y-139683536D01*
X138975500Y-139562601D01*
X138975500Y-139437399D01*
X138943095Y-139316464D01*
X138880495Y-139208036D01*
X138791964Y-139119505D01*
X138683536Y-139056905D01*
X138683537Y-139056905D01*
X138643224Y-139046103D01*
X138562601Y-139024500D01*
X138437399Y-139024500D01*
X138356775Y-139046103D01*
X138316463Y-139056905D01*
X138208037Y-139119504D01*
X138208034Y-139119506D01*
X138119506Y-139208034D01*
X138119504Y-139208037D01*
X138056905Y-139316463D01*
X138056905Y-139316464D01*
X138024500Y-139437399D01*
X138024500Y-139562601D01*
X138056905Y-139683536D01*
X138091525Y-139743501D01*
X138107996Y-139811402D01*
X138085143Y-139877428D01*
X138030222Y-139920618D01*
X137984137Y-139929500D01*
X137351457Y-139929500D01*
X137158170Y-139967947D01*
X137158160Y-139967950D01*
X136976092Y-140043364D01*
X136976079Y-140043371D01*
X136812218Y-140152860D01*
X136812214Y-140152863D01*
X136672863Y-140292214D01*
X136672860Y-140292218D01*
X136563371Y-140456079D01*
X136563364Y-140456092D01*
X136487950Y-140638160D01*
X136487947Y-140638170D01*
X136449500Y-140831456D01*
X136449500Y-140831459D01*
X136449500Y-141028541D01*
X136449500Y-141028543D01*
X136449499Y-141028543D01*
X132500000Y-141028543D01*
X132500000Y-133899488D01*
X132519685Y-133832449D01*
X132572489Y-133786694D01*
X132641647Y-133776750D01*
X132705203Y-133805775D01*
X132711681Y-133811807D01*
X136946136Y-138046262D01*
X136946146Y-138046273D01*
X136950476Y-138050603D01*
X136950477Y-138050604D01*
X137055486Y-138155613D01*
X137184094Y-138229865D01*
X137327537Y-138268300D01*
X137327538Y-138268300D01*
X137327539Y-138268300D01*
X138767023Y-138268300D01*
X138767025Y-138268300D01*
X138910468Y-138229865D01*
X139039076Y-138155613D01*
X139144085Y-138050604D01*
X139144085Y-138050602D01*
X139154289Y-138040399D01*
X139154293Y-138040394D01*
X140904594Y-136290093D01*
X140904599Y-136290089D01*
X140914802Y-136279885D01*
X140914804Y-136279885D01*
X141019813Y-136174876D01*
X141094065Y-136046268D01*
X141094676Y-136043985D01*
X141099236Y-136026971D01*
X141099236Y-136026969D01*
X141132500Y-135902825D01*
X141132500Y-135754319D01*
X141132500Y-133290309D01*
X141152185Y-133223270D01*
X141204989Y-133177515D01*
X141274147Y-133167571D01*
X141303953Y-133175748D01*
X141306084Y-133176630D01*
X141306086Y-133176632D01*
X141488165Y-133252051D01*
X141488169Y-133252051D01*
X141488170Y-133252052D01*
X141681456Y-133290500D01*
X141681459Y-133290500D01*
X142678543Y-133290500D01*
X142808582Y-133264632D01*
X142871835Y-133252051D01*
X143053914Y-133176632D01*
X143217782Y-133067139D01*
X143357139Y-132927782D01*
X143466632Y-132763914D01*
X143542051Y-132581835D01*
X143580500Y-132388541D01*
X143580500Y-132191459D01*
X143580500Y-132191456D01*
X143542052Y-131998170D01*
X143542051Y-131998169D01*
X143542051Y-131998165D01*
X143500887Y-131898785D01*
X143466635Y-131816092D01*
X143466628Y-131816079D01*
X143357139Y-131652218D01*
X143357136Y-131652214D01*
X143217785Y-131512863D01*
X143217781Y-131512860D01*
X143053920Y-131403371D01*
X143053907Y-131403364D01*
X142914911Y-131345791D01*
X142860507Y-131301950D01*
X142838442Y-131235656D01*
X142855721Y-131167957D01*
X142906858Y-131120346D01*
X142930264Y-131111457D01*
X143011968Y-131089565D01*
X143140576Y-131015313D01*
X143245585Y-130910304D01*
X143245585Y-130910302D01*
X143255789Y-130900099D01*
X143255793Y-130900094D01*
X143417694Y-130738193D01*
X143417699Y-130738189D01*
X143427902Y-130727985D01*
X143427904Y-130727985D01*
X143532913Y-130622976D01*
X143607165Y-130494368D01*
X143633551Y-130395893D01*
X143645600Y-130350925D01*
X143645600Y-130202420D01*
X143645600Y-129796076D01*
X143637373Y-129765373D01*
X143607165Y-129652632D01*
X143532913Y-129524024D01*
X143427904Y-129419015D01*
X143427903Y-129419014D01*
X143423573Y-129414684D01*
X143423562Y-129414674D01*
X143252655Y-129243767D01*
X143252653Y-129243764D01*
X143140578Y-129131689D01*
X143140576Y-129131687D01*
X143011968Y-129057435D01*
X142868525Y-129019000D01*
X142868524Y-129019000D01*
X137683588Y-129019000D01*
X137650842Y-129009384D01*
X137617927Y-129000189D01*
X137616990Y-128999444D01*
X137616549Y-128999315D01*
X137615931Y-128998602D01*
X137595907Y-128982681D01*
X137531826Y-128918600D01*
X137498341Y-128857277D01*
X137503325Y-128787585D01*
X137545197Y-128731652D01*
X137550594Y-128727831D01*
X137647489Y-128663089D01*
X137647492Y-128663086D01*
X137668960Y-128641619D01*
X137680071Y-128635551D01*
X137688235Y-128625876D01*
X137710153Y-128619125D01*
X137730283Y-128608134D01*
X137754188Y-128605563D01*
X137755009Y-128605311D01*
X137755434Y-128605429D01*
X137756641Y-128605300D01*
X138383951Y-128605300D01*
X138383953Y-128605300D01*
X138527396Y-128566865D01*
X138536886Y-128561386D01*
X138656004Y-128492613D01*
X138761013Y-128387604D01*
X138761013Y-128387602D01*
X138771217Y-128377399D01*
X138771220Y-128377394D01*
X141381298Y-125767319D01*
X141442621Y-125733834D01*
X141468979Y-125731000D01*
X141499344Y-125731000D01*
X141499345Y-125730999D01*
X141653997Y-125700237D01*
X141799679Y-125639894D01*
X141930789Y-125552289D01*
X142042289Y-125440789D01*
X142129894Y-125309679D01*
X142131930Y-125304765D01*
X142190235Y-125164001D01*
X142190237Y-125163997D01*
X142221000Y-125009342D01*
X142221000Y-124851658D01*
X142221000Y-124851655D01*
X142220999Y-124851653D01*
X142190238Y-124697010D01*
X142190237Y-124697003D01*
X142171287Y-124651254D01*
X142129897Y-124551327D01*
X142129890Y-124551314D01*
X142042289Y-124420211D01*
X142042286Y-124420207D01*
X141930792Y-124308713D01*
X141930788Y-124308710D01*
X141799685Y-124221109D01*
X141799672Y-124221102D01*
X141654001Y-124160764D01*
X141653989Y-124160761D01*
X141499345Y-124130000D01*
X141499342Y-124130000D01*
X141341658Y-124130000D01*
X141341655Y-124130000D01*
X141187010Y-124160761D01*
X141186998Y-124160764D01*
X141041327Y-124221102D01*
X141041314Y-124221109D01*
X140910211Y-124308710D01*
X140823733Y-124395188D01*
X140762409Y-124428672D01*
X140692718Y-124423688D01*
X140636784Y-124381816D01*
X140612368Y-124316351D01*
X140616276Y-124275420D01*
X140628700Y-124229053D01*
X140628700Y-124080548D01*
X140628700Y-122385412D01*
X140648385Y-122318373D01*
X140701189Y-122272618D01*
X140757920Y-122264120D01*
X140757920Y-122262100D01*
X143390251Y-122262100D01*
X143390253Y-122262100D01*
X143533696Y-122223665D01*
X143534209Y-122223369D01*
X143662304Y-122149413D01*
X143767313Y-122044404D01*
X143767313Y-122044402D01*
X143777517Y-122034199D01*
X143777521Y-122034194D01*
X144017994Y-121793721D01*
X144017999Y-121793717D01*
X144028202Y-121783513D01*
X144028204Y-121783513D01*
X144133213Y-121678504D01*
X144207465Y-121549896D01*
X144209908Y-121540779D01*
X144245901Y-121406452D01*
X144245901Y-121257947D01*
X144245901Y-121250352D01*
X144245900Y-121250334D01*
X144245900Y-120919377D01*
X144245899Y-120919371D01*
X144241319Y-120902280D01*
X144237707Y-120888796D01*
X144207465Y-120775931D01*
X144207463Y-120775928D01*
X144207463Y-120775926D01*
X144207462Y-120775925D01*
X144172402Y-120715200D01*
X144172401Y-120715199D01*
X144152045Y-120679942D01*
X144133213Y-120647324D01*
X144028204Y-120542315D01*
X144028203Y-120542314D01*
X144023873Y-120537984D01*
X144023862Y-120537974D01*
X143817755Y-120331867D01*
X143817753Y-120331864D01*
X143705678Y-120219789D01*
X143705676Y-120219787D01*
X143577068Y-120145535D01*
X143433625Y-120107100D01*
X143433624Y-120107100D01*
X143309888Y-120107100D01*
X143242849Y-120087415D01*
X143222207Y-120070781D01*
X142133219Y-118981793D01*
X142099734Y-118920470D01*
X142096900Y-118894112D01*
X142096900Y-117284977D01*
X142116585Y-117217938D01*
X142133215Y-117197300D01*
X142836094Y-116494420D01*
X142836099Y-116494417D01*
X142846302Y-116484213D01*
X142846304Y-116484213D01*
X142951313Y-116379204D01*
X143025565Y-116250596D01*
X143045329Y-116176835D01*
X143064000Y-116107153D01*
X143064000Y-115958647D01*
X143064000Y-115431350D01*
X143083685Y-115364311D01*
X143136489Y-115318556D01*
X143205647Y-115308612D01*
X143269203Y-115337637D01*
G37*
%TD.AperFunction*%
%TA.AperFunction,Conductor*%
G36*
X132819203Y-125304765D02*
G01*
X132825681Y-125310797D01*
X134291681Y-126776797D01*
X134325166Y-126838120D01*
X134328000Y-126864478D01*
X134328000Y-126894846D01*
X134358761Y-127049489D01*
X134358764Y-127049501D01*
X134419102Y-127195172D01*
X134419109Y-127195185D01*
X134506710Y-127326288D01*
X134506713Y-127326292D01*
X134618207Y-127437786D01*
X134618211Y-127437789D01*
X134749314Y-127525390D01*
X134749327Y-127525397D01*
X134894998Y-127585735D01*
X134895003Y-127585737D01*
X135049653Y-127616499D01*
X135049656Y-127616500D01*
X135213434Y-127616500D01*
X135213434Y-127618289D01*
X135273785Y-127629731D01*
X135324499Y-127677793D01*
X135341300Y-127740119D01*
X135341300Y-134546832D01*
X135321615Y-134613871D01*
X135268811Y-134659626D01*
X135199653Y-134669570D01*
X135136097Y-134640545D01*
X135129619Y-134634513D01*
X132650319Y-132155213D01*
X132616834Y-132093890D01*
X132614000Y-132067532D01*
X132614000Y-125398478D01*
X132633685Y-125331439D01*
X132686489Y-125285684D01*
X132755647Y-125275740D01*
X132819203Y-125304765D01*
G37*
%TD.AperFunction*%
%TA.AperFunction,Conductor*%
G36*
X139461196Y-121993898D02*
G01*
X139496848Y-122053987D01*
X139500700Y-122084653D01*
X139500700Y-123869822D01*
X139481015Y-123936861D01*
X139464381Y-123957503D01*
X137442703Y-125979181D01*
X137381380Y-126012666D01*
X137355022Y-126015500D01*
X137324655Y-126015500D01*
X137170010Y-126046261D01*
X137169998Y-126046264D01*
X137024327Y-126106602D01*
X137024309Y-126106612D01*
X136916190Y-126178855D01*
X136849513Y-126199733D01*
X136782133Y-126181248D01*
X136735443Y-126129269D01*
X136723300Y-126075753D01*
X136723300Y-124353978D01*
X136742985Y-124286939D01*
X136759619Y-124266297D01*
X138940797Y-122085119D01*
X139002120Y-122051634D01*
X139028478Y-122048800D01*
X139058844Y-122048800D01*
X139058845Y-122048799D01*
X139213497Y-122018037D01*
X139278447Y-121991133D01*
X139329248Y-121970092D01*
X139398717Y-121962623D01*
X139461196Y-121993898D01*
G37*
%TD.AperFunction*%
%TA.AperFunction,Conductor*%
G36*
X145242539Y-73220185D02*
G01*
X145288294Y-73272989D01*
X145299500Y-73324500D01*
X145299500Y-113602242D01*
X145279815Y-113669281D01*
X145227011Y-113715036D01*
X145157853Y-113724980D01*
X145151309Y-113723859D01*
X145028846Y-113699500D01*
X145028842Y-113699500D01*
X144924500Y-113699500D01*
X144857461Y-113679815D01*
X144811706Y-113627011D01*
X144800500Y-113575500D01*
X144800500Y-113421155D01*
X144800499Y-113421153D01*
X144781276Y-113324512D01*
X144769737Y-113266503D01*
X144722767Y-113153106D01*
X144709397Y-113120827D01*
X144709390Y-113120814D01*
X144621789Y-112989711D01*
X144621786Y-112989707D01*
X144510292Y-112878213D01*
X144510288Y-112878210D01*
X144379185Y-112790609D01*
X144379172Y-112790602D01*
X144233501Y-112730264D01*
X144233492Y-112730261D01*
X144154307Y-112714510D01*
X144092397Y-112682124D01*
X144057823Y-112621408D01*
X144054500Y-112592893D01*
X144054500Y-81925750D01*
X144054500Y-81925748D01*
X144016065Y-81782304D01*
X143941813Y-81653696D01*
X143836804Y-81548687D01*
X143708198Y-81474436D01*
X143708197Y-81474435D01*
X143625306Y-81452225D01*
X143565646Y-81415860D01*
X143535117Y-81353013D01*
X143543412Y-81283637D01*
X143584513Y-81232134D01*
X143626370Y-81201724D01*
X143801724Y-81026370D01*
X143947489Y-80825742D01*
X144060073Y-80604782D01*
X144136706Y-80368931D01*
X144153947Y-80260070D01*
X144175500Y-80124000D01*
X144175500Y-79875999D01*
X144136706Y-79631072D01*
X144136706Y-79631069D01*
X144060073Y-79395218D01*
X143947489Y-79174258D01*
X143801724Y-78973630D01*
X143626370Y-78798276D01*
X143425742Y-78652511D01*
X143360055Y-78619042D01*
X143204784Y-78539928D01*
X143204783Y-78539927D01*
X143204782Y-78539927D01*
X142968931Y-78463294D01*
X142968929Y-78463293D01*
X142968927Y-78463293D01*
X142724000Y-78424500D01*
X142723995Y-78424500D01*
X142476005Y-78424500D01*
X142476000Y-78424500D01*
X142231072Y-78463293D01*
X142231069Y-78463294D01*
X142039420Y-78525565D01*
X141995215Y-78539928D01*
X141774254Y-78652512D01*
X141760884Y-78662227D01*
X141695077Y-78685706D01*
X141627024Y-78669880D01*
X141578330Y-78619773D01*
X141564000Y-78561908D01*
X141564000Y-77925750D01*
X141564000Y-77925748D01*
X141525565Y-77782304D01*
X141451313Y-77653696D01*
X141346304Y-77548687D01*
X141217696Y-77474435D01*
X141074252Y-77436000D01*
X141074251Y-77436000D01*
X139784978Y-77436000D01*
X139717939Y-77416315D01*
X139697297Y-77399681D01*
X139600319Y-77302703D01*
X139566834Y-77241380D01*
X139564000Y-77215022D01*
X139564000Y-77066890D01*
X139583685Y-76999851D01*
X139622902Y-76961352D01*
X139693656Y-76917712D01*
X139817712Y-76793656D01*
X139909814Y-76644334D01*
X139964999Y-76477797D01*
X139975500Y-76375009D01*
X139975499Y-74624992D01*
X139964999Y-74522203D01*
X139909814Y-74355666D01*
X139817712Y-74206344D01*
X139693656Y-74082288D01*
X139600888Y-74025069D01*
X139544336Y-73990187D01*
X139544331Y-73990185D01*
X139542862Y-73989698D01*
X139377797Y-73935001D01*
X139377795Y-73935000D01*
X139275010Y-73924500D01*
X137524998Y-73924500D01*
X137524981Y-73924501D01*
X137422203Y-73935000D01*
X137422200Y-73935001D01*
X137255668Y-73990185D01*
X137255663Y-73990187D01*
X137106342Y-74082289D01*
X136982289Y-74206342D01*
X136890187Y-74355663D01*
X136890185Y-74355668D01*
X136884025Y-74374258D01*
X136835001Y-74522203D01*
X136835001Y-74522204D01*
X136835000Y-74522204D01*
X136824500Y-74624983D01*
X136824500Y-76375001D01*
X136824501Y-76375018D01*
X136835000Y-76477796D01*
X136835001Y-76477799D01*
X136890185Y-76644331D01*
X136890187Y-76644336D01*
X136899894Y-76660073D01*
X136982288Y-76793656D01*
X137106344Y-76917712D01*
X137255666Y-77009814D01*
X137422203Y-77064999D01*
X137524991Y-77075500D01*
X138312000Y-77075499D01*
X138379039Y-77095183D01*
X138424794Y-77147987D01*
X138436000Y-77199499D01*
X138436000Y-77425747D01*
X138436000Y-77425748D01*
X138436000Y-77583752D01*
X138474435Y-77727196D01*
X138548687Y-77855804D01*
X138548689Y-77855806D01*
X138653696Y-77960813D01*
X138662038Y-77965629D01*
X138687720Y-77985336D01*
X138915203Y-78212819D01*
X138948688Y-78274142D01*
X138943704Y-78343834D01*
X138901832Y-78399767D01*
X138836368Y-78424184D01*
X138827522Y-78424500D01*
X137124998Y-78424500D01*
X137124981Y-78424501D01*
X137022203Y-78435000D01*
X137022200Y-78435001D01*
X136855668Y-78490185D01*
X136855663Y-78490187D01*
X136706342Y-78582289D01*
X136582289Y-78706342D01*
X136490187Y-78855663D01*
X136490186Y-78855666D01*
X136435001Y-79022203D01*
X136435001Y-79022204D01*
X136435000Y-79022204D01*
X136424500Y-79124983D01*
X136424500Y-80875001D01*
X136424501Y-80875018D01*
X136435000Y-80977796D01*
X136435001Y-80977799D01*
X136451097Y-81026372D01*
X136490186Y-81144334D01*
X136582288Y-81293656D01*
X136706344Y-81417712D01*
X136855666Y-81509814D01*
X137022203Y-81564999D01*
X137124991Y-81575500D01*
X138875008Y-81575499D01*
X138977797Y-81564999D01*
X139144334Y-81509814D01*
X139293656Y-81417712D01*
X139417712Y-81293656D01*
X139509814Y-81144334D01*
X139564999Y-80977797D01*
X139575500Y-80875009D01*
X139575499Y-79124992D01*
X139564999Y-79022203D01*
X139509814Y-78855666D01*
X139446548Y-78753095D01*
X139428109Y-78685705D01*
X139449032Y-78619042D01*
X139502673Y-78574272D01*
X139552088Y-78564001D01*
X139581849Y-78564001D01*
X139581865Y-78564000D01*
X140312000Y-78564000D01*
X140379039Y-78583685D01*
X140424794Y-78636489D01*
X140436000Y-78688000D01*
X140436000Y-81425747D01*
X140436000Y-81574253D01*
X140457286Y-81653693D01*
X140467516Y-81691873D01*
X140467516Y-81691875D01*
X140474433Y-81717692D01*
X140474434Y-81717694D01*
X140474435Y-81717696D01*
X140548687Y-81846304D01*
X140548689Y-81846306D01*
X140660761Y-81958378D01*
X140660767Y-81958383D01*
X141044346Y-82341962D01*
X141044356Y-82341973D01*
X141048686Y-82346303D01*
X141048687Y-82346304D01*
X141153696Y-82451313D01*
X141153698Y-82451314D01*
X141153699Y-82451315D01*
X141282300Y-82525563D01*
X141282301Y-82525563D01*
X141282304Y-82525565D01*
X141425748Y-82564001D01*
X141425751Y-82564001D01*
X141581849Y-82564001D01*
X141581865Y-82564000D01*
X142802500Y-82564000D01*
X142869539Y-82583685D01*
X142915294Y-82636489D01*
X142926500Y-82688000D01*
X142926500Y-90898822D01*
X142906815Y-90965861D01*
X142854011Y-91011616D01*
X142784853Y-91021560D01*
X142721297Y-90992535D01*
X142714819Y-90986503D01*
X142176819Y-90448503D01*
X142143334Y-90387180D01*
X142140500Y-90360822D01*
X142140500Y-90330455D01*
X142140499Y-90330453D01*
X142114531Y-90199906D01*
X142109737Y-90175803D01*
X142109735Y-90175798D01*
X142049397Y-90030127D01*
X142049390Y-90030114D01*
X141961789Y-89899011D01*
X141961786Y-89899007D01*
X141850292Y-89787513D01*
X141850288Y-89787510D01*
X141719185Y-89699909D01*
X141719172Y-89699902D01*
X141573501Y-89639564D01*
X141573489Y-89639561D01*
X141418845Y-89608800D01*
X141418842Y-89608800D01*
X141261158Y-89608800D01*
X141261155Y-89608800D01*
X141106510Y-89639561D01*
X141106498Y-89639564D01*
X140960827Y-89699902D01*
X140960814Y-89699909D01*
X140829711Y-89787510D01*
X140829707Y-89787513D01*
X140718213Y-89899007D01*
X140718210Y-89899011D01*
X140630609Y-90030114D01*
X140630606Y-90030121D01*
X140626548Y-90039918D01*
X140582706Y-90094321D01*
X140516412Y-90116385D01*
X140487797Y-90114082D01*
X140479941Y-90112519D01*
X140461242Y-90108800D01*
X140303558Y-90108800D01*
X140303555Y-90108800D01*
X140148910Y-90139561D01*
X140148898Y-90139564D01*
X140003227Y-90199902D01*
X140003214Y-90199909D01*
X139872111Y-90287510D01*
X139872107Y-90287513D01*
X139760613Y-90399007D01*
X139760610Y-90399011D01*
X139673009Y-90530114D01*
X139673002Y-90530127D01*
X139612664Y-90675798D01*
X139612661Y-90675810D01*
X139581900Y-90830453D01*
X139581900Y-90988146D01*
X139612661Y-91142789D01*
X139612664Y-91142801D01*
X139673002Y-91288472D01*
X139673009Y-91288485D01*
X139763995Y-91424654D01*
X139761111Y-91426580D01*
X139783642Y-91475902D01*
X139773705Y-91545061D01*
X139727955Y-91597869D01*
X139708359Y-91608121D01*
X139610624Y-91648604D01*
X139610614Y-91648609D01*
X139479511Y-91736210D01*
X139377349Y-91838372D01*
X139316026Y-91871856D01*
X139246334Y-91866872D01*
X139201989Y-91838372D01*
X138774382Y-91410766D01*
X138774381Y-91410764D01*
X138662306Y-91298689D01*
X138662304Y-91298687D01*
X138533696Y-91224435D01*
X138533695Y-91224434D01*
X138533694Y-91224434D01*
X138533694Y-91224433D01*
X138507542Y-91217427D01*
X138507541Y-91217427D01*
X138390253Y-91186000D01*
X138390252Y-91186000D01*
X138035441Y-91186000D01*
X137968402Y-91166315D01*
X137947760Y-91149681D01*
X137926292Y-91128213D01*
X137926288Y-91128210D01*
X137795185Y-91040609D01*
X137795172Y-91040602D01*
X137649501Y-90980264D01*
X137649489Y-90980261D01*
X137494845Y-90949500D01*
X137494842Y-90949500D01*
X137384200Y-90949500D01*
X137317161Y-90929815D01*
X137271406Y-90877011D01*
X137260200Y-90825500D01*
X137260200Y-89655978D01*
X137279885Y-89588939D01*
X137296519Y-89568297D01*
X137342597Y-89522219D01*
X137403920Y-89488734D01*
X137430278Y-89485900D01*
X137460644Y-89485900D01*
X137460645Y-89485899D01*
X137615297Y-89455137D01*
X137760979Y-89394794D01*
X137892089Y-89307189D01*
X138003589Y-89195689D01*
X138091194Y-89064579D01*
X138151537Y-88918897D01*
X138182300Y-88764242D01*
X138182300Y-88606558D01*
X138182300Y-88606555D01*
X138182299Y-88606553D01*
X138157178Y-88480263D01*
X138151537Y-88451903D01*
X138128911Y-88397278D01*
X138091197Y-88306227D01*
X138091190Y-88306214D01*
X138003589Y-88175111D01*
X138003586Y-88175107D01*
X137892092Y-88063613D01*
X137892088Y-88063610D01*
X137760985Y-87976009D01*
X137760972Y-87976002D01*
X137615301Y-87915664D01*
X137615289Y-87915661D01*
X137460645Y-87884900D01*
X137460642Y-87884900D01*
X137302958Y-87884900D01*
X137302955Y-87884900D01*
X137148310Y-87915661D01*
X137148298Y-87915664D01*
X137002627Y-87976002D01*
X137002614Y-87976009D01*
X136871511Y-88063610D01*
X136871507Y-88063613D01*
X136760013Y-88175107D01*
X136760010Y-88175111D01*
X136672409Y-88306214D01*
X136672404Y-88306224D01*
X136622254Y-88427297D01*
X136578413Y-88481700D01*
X136512118Y-88503765D01*
X136460242Y-88494406D01*
X136448602Y-88489584D01*
X136426097Y-88480263D01*
X136426093Y-88480262D01*
X136426089Y-88480261D01*
X136271445Y-88449500D01*
X136271442Y-88449500D01*
X136113758Y-88449500D01*
X136113755Y-88449500D01*
X135959110Y-88480261D01*
X135959098Y-88480264D01*
X135813427Y-88540602D01*
X135813414Y-88540609D01*
X135682311Y-88628210D01*
X135682307Y-88628213D01*
X135570813Y-88739707D01*
X135570810Y-88739711D01*
X135483209Y-88870814D01*
X135483202Y-88870827D01*
X135422864Y-89016498D01*
X135422861Y-89016510D01*
X135392100Y-89171153D01*
X135392100Y-89328846D01*
X135422861Y-89483489D01*
X135422864Y-89483501D01*
X135483202Y-89629172D01*
X135483209Y-89629185D01*
X135570810Y-89760288D01*
X135570813Y-89760292D01*
X135682310Y-89871789D01*
X135818487Y-89962779D01*
X135817398Y-89964407D01*
X135860794Y-90007031D01*
X135876500Y-90067433D01*
X135876500Y-93559900D01*
X135856815Y-93626939D01*
X135804011Y-93672694D01*
X135752500Y-93683900D01*
X135157647Y-93683900D01*
X135014204Y-93722335D01*
X135014201Y-93722336D01*
X134885599Y-93796585D01*
X134885593Y-93796589D01*
X134543689Y-94138493D01*
X134543685Y-94138499D01*
X134482356Y-94244724D01*
X134469434Y-94267105D01*
X134469433Y-94267106D01*
X134440632Y-94374598D01*
X134436773Y-94389004D01*
X134431000Y-94410548D01*
X134431000Y-100946447D01*
X134431000Y-101094953D01*
X134451391Y-101171053D01*
X134469435Y-101238396D01*
X134543687Y-101367004D01*
X134543689Y-101367006D01*
X134655761Y-101479078D01*
X134655767Y-101479083D01*
X134757331Y-101580647D01*
X134790816Y-101641970D01*
X134785832Y-101711662D01*
X134772753Y-101737218D01*
X134722708Y-101812116D01*
X134722702Y-101812127D01*
X134662364Y-101957798D01*
X134662361Y-101957810D01*
X134631600Y-102112453D01*
X134631600Y-102226821D01*
X134611915Y-102293860D01*
X134595281Y-102314502D01*
X134017981Y-102891802D01*
X133956658Y-102925287D01*
X133886966Y-102920303D01*
X133831033Y-102878431D01*
X133806616Y-102812967D01*
X133806300Y-102804121D01*
X133806300Y-88432866D01*
X133818126Y-88385662D01*
X133816063Y-88384808D01*
X133878735Y-88233501D01*
X133878737Y-88233497D01*
X133909500Y-88078842D01*
X133909500Y-87921158D01*
X133909500Y-87921155D01*
X133909499Y-87921153D01*
X133878738Y-87766510D01*
X133878737Y-87766503D01*
X133878735Y-87766498D01*
X133818397Y-87620827D01*
X133818390Y-87620814D01*
X133730789Y-87489711D01*
X133730786Y-87489707D01*
X133619292Y-87378213D01*
X133619288Y-87378210D01*
X133488185Y-87290609D01*
X133488172Y-87290602D01*
X133342501Y-87230264D01*
X133342489Y-87230261D01*
X133187845Y-87199500D01*
X133187842Y-87199500D01*
X133030158Y-87199500D01*
X133030155Y-87199500D01*
X132875510Y-87230261D01*
X132875507Y-87230262D01*
X132875506Y-87230262D01*
X132875503Y-87230263D01*
X132793109Y-87264391D01*
X132785452Y-87267563D01*
X132715982Y-87275031D01*
X132653503Y-87243755D01*
X132617851Y-87183666D01*
X132614000Y-87153001D01*
X132614000Y-82890496D01*
X132633685Y-82823457D01*
X132686489Y-82777702D01*
X132755647Y-82767758D01*
X132762192Y-82768879D01*
X132766500Y-82769736D01*
X132766503Y-82769737D01*
X132833300Y-82783023D01*
X132921155Y-82800500D01*
X132921158Y-82800500D01*
X133078844Y-82800500D01*
X133078845Y-82800499D01*
X133233497Y-82769737D01*
X133379179Y-82709394D01*
X133510289Y-82621789D01*
X133621789Y-82510289D01*
X133709394Y-82379179D01*
X133769737Y-82233497D01*
X133800500Y-82078842D01*
X133800500Y-81921158D01*
X133800500Y-81921155D01*
X133800499Y-81921153D01*
X133785611Y-81846306D01*
X133769737Y-81766503D01*
X133749519Y-81717692D01*
X133709397Y-81620827D01*
X133709390Y-81620814D01*
X133674361Y-81568390D01*
X133653483Y-81501713D01*
X133671967Y-81434333D01*
X133723946Y-81387642D01*
X133777463Y-81375499D01*
X134875002Y-81375499D01*
X134875008Y-81375499D01*
X134977797Y-81364999D01*
X135144334Y-81309814D01*
X135293656Y-81217712D01*
X135417712Y-81093656D01*
X135509814Y-80944334D01*
X135564999Y-80777797D01*
X135575500Y-80675009D01*
X135575499Y-78924992D01*
X135568417Y-78855668D01*
X135564999Y-78822203D01*
X135564998Y-78822200D01*
X135519768Y-78685706D01*
X135509814Y-78655666D01*
X135417712Y-78506344D01*
X135293656Y-78382288D01*
X135144334Y-78290186D01*
X134977797Y-78235001D01*
X134977795Y-78235000D01*
X134875010Y-78224500D01*
X133124998Y-78224500D01*
X133124981Y-78224501D01*
X133022203Y-78235000D01*
X133022200Y-78235001D01*
X132855668Y-78290185D01*
X132855663Y-78290187D01*
X132706341Y-78382290D01*
X132700911Y-78386584D01*
X132636115Y-78412725D01*
X132567473Y-78399684D01*
X132516778Y-78351603D01*
X132500000Y-78289318D01*
X132500000Y-76197461D01*
X132519685Y-76130422D01*
X132572489Y-76084667D01*
X132641647Y-76074723D01*
X132705203Y-76103748D01*
X132724315Y-76124572D01*
X132798276Y-76226370D01*
X132973630Y-76401724D01*
X133174258Y-76547489D01*
X133395218Y-76660073D01*
X133631069Y-76736706D01*
X133722920Y-76751253D01*
X133876000Y-76775500D01*
X133876005Y-76775500D01*
X134124000Y-76775500D01*
X134260070Y-76753947D01*
X134368931Y-76736706D01*
X134604782Y-76660073D01*
X134825742Y-76547489D01*
X135026370Y-76401724D01*
X135201724Y-76226370D01*
X135347489Y-76025742D01*
X135460073Y-75804782D01*
X135536706Y-75568931D01*
X135553947Y-75460070D01*
X135575500Y-75324000D01*
X135575500Y-75075999D01*
X135536706Y-74831072D01*
X135536706Y-74831069D01*
X135460073Y-74595218D01*
X135347489Y-74374258D01*
X135201724Y-74173630D01*
X135026370Y-73998276D01*
X134825742Y-73852511D01*
X134604782Y-73739927D01*
X134368931Y-73663294D01*
X134368929Y-73663293D01*
X134368927Y-73663293D01*
X134124000Y-73624500D01*
X134123995Y-73624500D01*
X133876005Y-73624500D01*
X133876000Y-73624500D01*
X133631072Y-73663293D01*
X133395215Y-73739928D01*
X133174257Y-73852511D01*
X133075174Y-73924500D01*
X132973630Y-73998276D01*
X132973628Y-73998278D01*
X132973627Y-73998278D01*
X132798277Y-74173628D01*
X132724318Y-74275424D01*
X132668987Y-74318089D01*
X132599374Y-74324068D01*
X132537579Y-74291462D01*
X132503222Y-74230623D01*
X132500000Y-74202538D01*
X132500000Y-73324500D01*
X132519685Y-73257461D01*
X132572489Y-73211706D01*
X132624000Y-73200500D01*
X145175500Y-73200500D01*
X145242539Y-73220185D01*
G37*
%TD.AperFunction*%
%TA.AperFunction,Conductor*%
G36*
X142116753Y-112448947D02*
G01*
X142173425Y-112489813D01*
X142199006Y-112554832D01*
X142199500Y-112565884D01*
X142199500Y-112578846D01*
X142230261Y-112733489D01*
X142230264Y-112733501D01*
X142245689Y-112770740D01*
X142253158Y-112840209D01*
X142221882Y-112902688D01*
X142218809Y-112905873D01*
X141810303Y-113314381D01*
X141748980Y-113347866D01*
X141722622Y-113350700D01*
X141692253Y-113350700D01*
X141577111Y-113373603D01*
X141507519Y-113367376D01*
X141452342Y-113324512D01*
X141429098Y-113258623D01*
X141438358Y-113204536D01*
X141444837Y-113188897D01*
X141451956Y-113153102D01*
X141484338Y-113091194D01*
X141526117Y-113062735D01*
X141556879Y-113049994D01*
X141687989Y-112962389D01*
X141799489Y-112850889D01*
X141887094Y-112719779D01*
X141889277Y-112714510D01*
X141932784Y-112609472D01*
X141947437Y-112574097D01*
X141953883Y-112541693D01*
X141986268Y-112479782D01*
X142046983Y-112445208D01*
X142116753Y-112448947D01*
G37*
%TD.AperFunction*%
%TA.AperFunction,Conductor*%
G36*
X142159573Y-105226508D02*
G01*
X142213452Y-105270993D01*
X142225323Y-105293045D01*
X142255902Y-105366872D01*
X142255909Y-105366885D01*
X142343510Y-105497988D01*
X142343513Y-105497992D01*
X142455007Y-105609486D01*
X142455011Y-105609489D01*
X142586114Y-105697090D01*
X142586127Y-105697097D01*
X142731798Y-105757435D01*
X142731803Y-105757437D01*
X142774694Y-105765968D01*
X142826691Y-105776312D01*
X142888602Y-105808697D01*
X142923176Y-105869413D01*
X142926500Y-105897929D01*
X142926500Y-111596673D01*
X142906815Y-111663712D01*
X142854011Y-111709467D01*
X142826692Y-111718290D01*
X142766508Y-111730261D01*
X142766498Y-111730264D01*
X142620827Y-111790602D01*
X142620814Y-111790609D01*
X142489711Y-111878210D01*
X142489707Y-111878213D01*
X142378213Y-111989707D01*
X142378210Y-111989711D01*
X142290609Y-112120814D01*
X142290602Y-112120827D01*
X142230264Y-112266498D01*
X142230261Y-112266508D01*
X142223817Y-112298907D01*
X142191432Y-112360818D01*
X142130716Y-112395392D01*
X142060947Y-112391652D01*
X142004275Y-112350785D01*
X141978693Y-112285767D01*
X141978200Y-112274715D01*
X141978200Y-112261755D01*
X141978199Y-112261753D01*
X141956379Y-112152058D01*
X141947437Y-112107103D01*
X141902001Y-111997410D01*
X141887097Y-111961427D01*
X141887090Y-111961414D01*
X141799489Y-111830311D01*
X141799486Y-111830307D01*
X141687992Y-111718813D01*
X141687988Y-111718810D01*
X141556885Y-111631209D01*
X141556872Y-111631202D01*
X141411201Y-111570864D01*
X141411189Y-111570861D01*
X141300750Y-111548893D01*
X141238839Y-111516508D01*
X141204265Y-111455792D01*
X141208004Y-111386023D01*
X141248871Y-111329351D01*
X141277489Y-111312715D01*
X141379173Y-111270597D01*
X141379176Y-111270595D01*
X141379179Y-111270594D01*
X141510289Y-111182989D01*
X141621789Y-111071489D01*
X141709394Y-110940379D01*
X141769737Y-110794697D01*
X141800500Y-110640042D01*
X141800500Y-110482358D01*
X141800500Y-110482355D01*
X141800499Y-110482353D01*
X141769738Y-110327710D01*
X141769737Y-110327703D01*
X141763120Y-110311728D01*
X141709397Y-110182027D01*
X141709390Y-110182014D01*
X141621789Y-110050911D01*
X141621786Y-110050907D01*
X141510292Y-109939413D01*
X141510288Y-109939410D01*
X141379185Y-109851809D01*
X141379172Y-109851802D01*
X141233501Y-109791464D01*
X141233489Y-109791461D01*
X141078845Y-109760700D01*
X141078842Y-109760700D01*
X141048478Y-109760700D01*
X140981439Y-109741015D01*
X140960797Y-109724381D01*
X139332319Y-108095903D01*
X139298834Y-108034580D01*
X139296000Y-108008222D01*
X139296000Y-106523961D01*
X139315685Y-106456922D01*
X139368489Y-106411167D01*
X139437647Y-106401223D01*
X139452074Y-106404182D01*
X139539848Y-106427701D01*
X139539851Y-106427701D01*
X139695949Y-106427701D01*
X139695965Y-106427700D01*
X140853351Y-106427700D01*
X140853353Y-106427700D01*
X140996796Y-106389265D01*
X140999340Y-106387796D01*
X141125404Y-106315013D01*
X141230413Y-106210004D01*
X141230413Y-106210002D01*
X141240617Y-106199799D01*
X141240621Y-106199794D01*
X141769794Y-105670621D01*
X141769799Y-105670617D01*
X141780002Y-105660413D01*
X141780004Y-105660413D01*
X141885013Y-105555404D01*
X141959265Y-105426796D01*
X141974590Y-105369600D01*
X141975318Y-105366885D01*
X141990987Y-105308405D01*
X142027351Y-105248744D01*
X142090198Y-105218214D01*
X142159573Y-105226508D01*
G37*
%TD.AperFunction*%
%TA.AperFunction,Conductor*%
G36*
X140575631Y-111240993D02*
G01*
X140585095Y-111246723D01*
X140590835Y-111250558D01*
X140620821Y-111270594D01*
X140620823Y-111270595D01*
X140620827Y-111270597D01*
X140762674Y-111329351D01*
X140766503Y-111330937D01*
X140876949Y-111352906D01*
X140938860Y-111385290D01*
X140973434Y-111446006D01*
X140969695Y-111515775D01*
X140928829Y-111572448D01*
X140900211Y-111589084D01*
X140798521Y-111631205D01*
X140777447Y-111645286D01*
X140710768Y-111666161D01*
X140643389Y-111647674D01*
X140620879Y-111629862D01*
X140428523Y-111437506D01*
X140395038Y-111376183D01*
X140400022Y-111306491D01*
X140441894Y-111250558D01*
X140507358Y-111226141D01*
X140575631Y-111240993D01*
G37*
%TD.AperFunction*%
%TA.AperFunction,Conductor*%
G36*
X138451703Y-108810965D02*
G01*
X138458181Y-108816997D01*
X140163181Y-110521997D01*
X140196666Y-110583320D01*
X140199500Y-110609678D01*
X140199500Y-110640046D01*
X140230261Y-110794689D01*
X140230264Y-110794701D01*
X140290602Y-110940372D01*
X140290609Y-110940385D01*
X140314476Y-110976104D01*
X140335354Y-111042782D01*
X140316869Y-111110162D01*
X140264891Y-111156852D01*
X140195921Y-111168028D01*
X140131857Y-111140142D01*
X140123693Y-111132676D01*
X138282819Y-109291802D01*
X138249334Y-109230479D01*
X138246500Y-109204121D01*
X138246500Y-108904678D01*
X138266185Y-108837639D01*
X138318989Y-108791884D01*
X138388147Y-108781940D01*
X138451703Y-108810965D01*
G37*
%TD.AperFunction*%
%TD*%
M02*
