%TF.GenerationSoftware,KiCad,Pcbnew,10.0.5*%
%TF.CreationDate,2026-08-21T16:26:05-05:00*%
%TF.ProjectId,arc-insight-board,6172632d-7669-4736-996f-6e2d626f6172,rev?*%
%TF.SameCoordinates,Original*%
%TF.FileFunction,Copper,L1,Top*%
%TF.FilePolarity,Positive*%
%FSLAX46Y46*%
G04 Gerber Fmt 4.6, Leading zero omitted, Abs format (unit mm)*
G04 Created by KiCad (PCBNEW 10.0.5) date 2026-08-21 16:26:05*
%MOMM*%
%LPD*%
G01*
G04 APERTURE LIST*
G04 Aperture macros list*
%AMRoundRect*
0 Rectangle with rounded corners*
0 $1 Rounding radius*
0 $2 $3 $4 $5 $6 $7 $8 $9 X,Y pos of 4 corners*
0 Add a 4 corners polygon primitive as box body*
4,1,4,$2,$3,$4,$5,$6,$7,$8,$9,$2,$3,0*
0 Add four circle primitives for the rounded corners*
1,1,$1+$1,$2,$3*
1,1,$1+$1,$4,$5*
1,1,$1+$1,$6,$7*
1,1,$1+$1,$8,$9*
0 Add four rect primitives between the rounded corners*
20,1,$1+$1,$2,$3,$4,$5,0*
20,1,$1+$1,$4,$5,$6,$7,0*
20,1,$1+$1,$6,$7,$8,$9,0*
20,1,$1+$1,$8,$9,$2,$3,0*%
%AMFreePoly0*
4,1,88,0.050959,0.371253,0.114455,0.371253,0.341408,0.341374,0.562519,0.282128,0.774005,0.194527,0.972248,0.080072,1.153855,-0.059280,1.315720,-0.221145,1.455072,-0.402752,1.569527,-0.600995,1.657128,-0.812481,1.716374,-1.033592,1.746253,-1.260545,1.746253,-1.489455,1.716374,-1.716408,1.657128,-1.937519,1.569527,-2.149005,1.455072,-2.347248,1.315720,-2.528855,1.153855,-2.690720,
0.972248,-2.830072,0.774005,-2.944527,0.562519,-3.032128,0.341408,-3.091374,0.114455,-3.121253,-0.114455,-3.121253,-0.341408,-3.091374,-0.562519,-3.032128,-0.774005,-2.944527,-0.972248,-2.830072,-1.153855,-2.690720,-1.315720,-2.528855,-1.455072,-2.347248,-1.569527,-2.149005,-1.657128,-1.937519,-1.716374,-1.716408,-1.746253,-1.489455,-1.746253,-1.276509,-1.000000,-1.276509,-1.000000,-1.473491,
-0.961571,-1.666689,-0.886189,-1.848678,-0.776751,-2.012463,-0.637463,-2.151751,-0.473678,-2.261189,-0.291689,-2.336571,-0.098491,-2.375000,0.098491,-2.375000,0.291689,-2.336571,0.473678,-2.261189,0.637463,-2.151751,0.776751,-2.012463,0.886189,-1.848678,0.961571,-1.666689,1.000000,-1.473491,1.000000,-1.276509,0.961571,-1.083311,0.886189,-0.901322,0.776751,-0.737537,0.637463,-0.598249,
0.473678,-0.488811,0.291689,-0.413429,0.098491,-0.375000,-0.098491,-0.375000,-0.291689,-0.413429,-0.473678,-0.488811,-0.637463,-0.598249,-0.776751,-0.737537,-0.886189,-0.901322,-0.961571,-1.083311,-1.000000,-1.276509,-1.746253,-1.276509,-1.746253,-1.260545,-1.716374,-1.033592,-1.657128,-0.812481,-1.569527,-0.600995,-1.455072,-0.402752,-1.315720,-0.221145,-1.153855,-0.059280,-0.972248,0.080072,
-0.774005,0.194527,-0.562519,0.282128,-0.341408,0.341374,-0.114455,0.371253,-0.050959,0.371253,-0.048947,0.371792,0.048947,0.371792,0.050959,0.371253,0.050959,0.371253,$1*%
G04 Aperture macros list end*
%TA.AperFunction,SMDPad,CuDef*%
%ADD10RoundRect,0.140000X0.170000X-0.140000X0.170000X0.140000X-0.170000X0.140000X-0.170000X-0.140000X0*%
%TD*%
%TA.AperFunction,SMDPad,CuDef*%
%ADD11RoundRect,0.150000X0.425000X-0.150000X0.425000X0.150000X-0.425000X0.150000X-0.425000X-0.150000X0*%
%TD*%
%TA.AperFunction,SMDPad,CuDef*%
%ADD12RoundRect,0.075000X0.500000X-0.075000X0.500000X0.075000X-0.500000X0.075000X-0.500000X-0.075000X0*%
%TD*%
%TA.AperFunction,ComponentPad*%
%ADD13O,2.100000X1.000000*%
%TD*%
%TA.AperFunction,ComponentPad*%
%ADD14O,1.800000X1.000000*%
%TD*%
%TA.AperFunction,SMDPad,CuDef*%
%ADD15RoundRect,0.150000X-0.512500X-0.150000X0.512500X-0.150000X0.512500X0.150000X-0.512500X0.150000X0*%
%TD*%
%TA.AperFunction,ComponentPad*%
%ADD16RoundRect,0.250000X-0.825000X-0.825000X0.825000X-0.825000X0.825000X0.825000X-0.825000X0.825000X0*%
%TD*%
%TA.AperFunction,ComponentPad*%
%ADD17C,2.150000*%
%TD*%
%TA.AperFunction,SMDPad,CuDef*%
%ADD18RoundRect,0.050000X-0.350000X-0.050000X0.350000X-0.050000X0.350000X0.050000X-0.350000X0.050000X0*%
%TD*%
%TA.AperFunction,SMDPad,CuDef*%
%ADD19RoundRect,0.050000X-0.050000X-0.350000X0.050000X-0.350000X0.050000X0.350000X-0.050000X0.350000X0*%
%TD*%
%TA.AperFunction,HeatsinkPad*%
%ADD20R,4.000000X4.000000*%
%TD*%
%TA.AperFunction,SMDPad,CuDef*%
%ADD21RoundRect,0.075000X-0.175000X-0.075000X0.175000X-0.075000X0.175000X0.075000X-0.175000X0.075000X0*%
%TD*%
%TA.AperFunction,SMDPad,CuDef*%
%ADD22FreePoly0,0.000000*%
%TD*%
%TA.AperFunction,SMDPad,CuDef*%
%ADD23C,1.000000*%
%TD*%
%TA.AperFunction,SMDPad,CuDef*%
%ADD24RoundRect,0.135000X0.185000X-0.135000X0.185000X0.135000X-0.185000X0.135000X-0.185000X-0.135000X0*%
%TD*%
%TA.AperFunction,SMDPad,CuDef*%
%ADD25RoundRect,0.225000X-0.225000X-0.250000X0.225000X-0.250000X0.225000X0.250000X-0.225000X0.250000X0*%
%TD*%
%TA.AperFunction,SMDPad,CuDef*%
%ADD26RoundRect,0.135000X-0.135000X-0.185000X0.135000X-0.185000X0.135000X0.185000X-0.135000X0.185000X0*%
%TD*%
%TA.AperFunction,SMDPad,CuDef*%
%ADD27R,0.800000X0.480000*%
%TD*%
%TA.AperFunction,SMDPad,CuDef*%
%ADD28R,0.800000X0.320000*%
%TD*%
%TA.AperFunction,ComponentPad*%
%ADD29RoundRect,0.250000X0.825000X-0.825000X0.825000X0.825000X-0.825000X0.825000X-0.825000X-0.825000X0*%
%TD*%
%TA.AperFunction,SMDPad,CuDef*%
%ADD30RoundRect,0.140000X-0.170000X0.140000X-0.170000X-0.140000X0.170000X-0.140000X0.170000X0.140000X0*%
%TD*%
%TA.AperFunction,SMDPad,CuDef*%
%ADD31R,1.000000X1.800000*%
%TD*%
%TA.AperFunction,SMDPad,CuDef*%
%ADD32RoundRect,0.218750X0.256250X-0.218750X0.256250X0.218750X-0.256250X0.218750X-0.256250X-0.218750X0*%
%TD*%
%TA.AperFunction,SMDPad,CuDef*%
%ADD33R,1.300000X0.300000*%
%TD*%
%TA.AperFunction,SMDPad,CuDef*%
%ADD34R,2.200000X1.800000*%
%TD*%
%TA.AperFunction,SMDPad,CuDef*%
%ADD35R,0.800000X0.300000*%
%TD*%
%TA.AperFunction,ViaPad*%
%ADD36C,0.600000*%
%TD*%
%TA.AperFunction,Conductor*%
%ADD37C,0.127000*%
%TD*%
G04 APERTURE END LIST*
D10*
%TO.P,C3,2*%
%TO.N,GND*%
X133500000Y-102040000D03*
%TO.P,C3,1*%
%TO.N,Net-(U1-CHIP_PU)*%
X133500000Y-103000000D03*
%TD*%
D11*
%TO.P,J1,A1,GND_A1*%
%TO.N,GND*%
X137425000Y-139810000D03*
%TO.P,J1,A4,VBUS_A4*%
%TO.N,Net-(U4-IN)*%
X137425000Y-139010000D03*
D12*
%TO.P,J1,A5,CC1_A5*%
%TO.N,unconnected-(J1-CC1-PadA5)*%
X137425000Y-137860000D03*
%TO.P,J1,A6,D+_A6*%
%TO.N,Net-(J1-D+-PadA6)*%
X137425000Y-136860000D03*
%TO.P,J1,A7,D-_A7*%
%TO.N,unconnected-(J1-D--PadA7)*%
X137425000Y-136360000D03*
%TO.P,J1,A8,SBU1_A8*%
%TO.N,unconnected-(J1-SBU1-PadA8)*%
X137425000Y-135360000D03*
D11*
%TO.P,J1,A9,VBUS_A9*%
%TO.N,Net-(U4-IN)*%
X137425000Y-134210000D03*
%TO.P,J1,A12,GND_A12*%
%TO.N,GND*%
X137425000Y-133410000D03*
%TO.P,J1,B1,GND_B1*%
X137425000Y-133410000D03*
%TO.P,J1,B4,VBUS_B4*%
%TO.N,Net-(U4-IN)*%
X137425000Y-134210000D03*
D12*
%TO.P,J1,B5,CC2_B5*%
%TO.N,unconnected-(J1-CC2-PadB5)*%
X137425000Y-134860000D03*
%TO.P,J1,B6,D+_B6*%
%TO.N,unconnected-(J1-D+-PadB6)*%
X137425000Y-135860000D03*
%TO.P,J1,B7,D-_B7*%
%TO.N,Net-(J1-D--PadB7)*%
X137425000Y-137360000D03*
%TO.P,J1,B8,SBU2_B8*%
%TO.N,unconnected-(J1-SBU2-PadB8)*%
X137425000Y-138360000D03*
D11*
%TO.P,J1,B9,VBUS_B9*%
%TO.N,Net-(U4-IN)*%
X137425000Y-139010000D03*
%TO.P,J1,B12,GND_B12*%
%TO.N,GND*%
X137425000Y-139810000D03*
D13*
%TO.P,J1,SH,SHIELD_SH*%
%TO.N,unconnected-(J1-SHIELD-PadSH)_2*%
X138000000Y-140930000D03*
D14*
%TO.N,unconnected-(J1-SHIELD-PadSH)_1*%
X142180000Y-140930000D03*
D13*
%TO.N,unconnected-(J1-SHIELD-PadSH)_3*%
X138000000Y-132290000D03*
D14*
%TO.N,unconnected-(J1-SHIELD-PadSH)*%
X142180000Y-132290000D03*
%TD*%
D15*
%TO.P,U4,1,IN_1*%
%TO.N,Net-(U4-IN)*%
X141225000Y-127600000D03*
%TO.P,U4,2,BAT_2*%
%TO.N,GND*%
X141225000Y-128550000D03*
%TO.P,U4,3,GND_3*%
X141225000Y-129500000D03*
%TO.P,U4,4,CHRG_4*%
%TO.N,unconnected-(U4-CHRG-Pad4)*%
X143500000Y-129500000D03*
%TO.P,U4,5,STDBY_5*%
%TO.N,unconnected-(U4-STDBY-Pad5)*%
X143500000Y-127600000D03*
%TD*%
D16*
%TO.P,J4,1,Pin_1_1*%
%TO.N,Net-(J4-Pin_1)*%
X138000000Y-80000000D03*
D17*
%TO.P,J4,2,Pin_2_2*%
%TO.N,Net-(J4-Pin_2)*%
X142600000Y-80000000D03*
%TD*%
D18*
%TO.P,U1,1,LNA_IN_1*%
%TO.N,unconnected-(U1-LNA_IN-Pad1)*%
X135350000Y-105350000D03*
%TO.P,U1,2,VDD3P3_2*%
%TO.N,GND*%
X135350000Y-105750000D03*
%TO.P,U1,3,VDD3P3_3*%
X135350000Y-106150000D03*
%TO.P,U1,4,CHIP_PU_4*%
%TO.N,Net-(U1-CHIP_PU)*%
X135350000Y-106550000D03*
%TO.P,U1,5,GPIO0_5*%
%TO.N,unconnected-(U1-GPIO0-Pad5)*%
X135350000Y-106950000D03*
%TO.P,U1,6,GPIO1_6*%
%TO.N,unconnected-(U1-GPIO1-Pad6)*%
X135350000Y-107350000D03*
%TO.P,U1,7,GPIO2_7*%
%TO.N,Net-(J3-Pin_5)*%
X135350000Y-107750000D03*
%TO.P,U1,8,GPIO3_8*%
%TO.N,unconnected-(U1-GPIO3-Pad8)*%
X135350000Y-108150000D03*
%TO.P,U1,9,GPIO4_9*%
%TO.N,Net-(J3-Pin_4)*%
X135350000Y-108550000D03*
%TO.P,U1,10,GPIO5_10*%
%TO.N,Net-(J3-Pin_3)*%
X135350000Y-108950000D03*
%TO.P,U1,11,GPIO6_11*%
%TO.N,Net-(U1-GPIO6)*%
X135350000Y-109350000D03*
%TO.P,U1,12,GPIO7_12*%
%TO.N,Net-(U1-GPIO7)*%
X135350000Y-109750000D03*
%TO.P,U1,13,GPIO8_13*%
%TO.N,Net-(U1-GPIO8)*%
X135350000Y-110150000D03*
%TO.P,U1,14,GPIO9_14*%
%TO.N,Net-(J2-Pin_3)*%
X135350000Y-110550000D03*
D19*
%TO.P,U1,15,GPIO10_15*%
%TO.N,Net-(J2-Pin_4)*%
X136200000Y-111400000D03*
%TO.P,U1,16,GPIO11_16*%
%TO.N,Net-(J2-Pin_5)*%
X136600000Y-111400000D03*
%TO.P,U1,17,GPIO12_17*%
%TO.N,Net-(U1-GPIO12)*%
X137000000Y-111400000D03*
%TO.P,U1,18,GPIO13_18*%
%TO.N,Net-(U1-GPIO13)*%
X137400000Y-111400000D03*
%TO.P,U1,19,GPIO14_19*%
%TO.N,Net-(U1-GPIO14)*%
X137800000Y-111400000D03*
%TO.P,U1,20,VDD3P3_RTC_20*%
%TO.N,GND*%
X138200000Y-111400000D03*
%TO.P,U1,21,XTAL_32K_P_21*%
%TO.N,unconnected-(U1-XTAL_32K_P-Pad21)*%
X138600000Y-111400000D03*
%TO.P,U1,22,XTAL_32K_N_22*%
%TO.N,unconnected-(U1-XTAL_32K_N-Pad22)*%
X139000000Y-111400000D03*
%TO.P,U1,23,GPIO17_23*%
%TO.N,unconnected-(U1-GPIO17-Pad23)*%
X139400000Y-111400000D03*
%TO.P,U1,24,GPIO18_24*%
%TO.N,Net-(U1-GPIO18)*%
X139800000Y-111400000D03*
%TO.P,U1,25,GPIO19/USB_D-_25*%
%TO.N,Net-(U1-GPIO19{slash}USB_D-)*%
X140200000Y-111400000D03*
%TO.P,U1,26,GPIO20/USB_D+_26*%
%TO.N,Net-(U1-GPIO20{slash}USB_D+)*%
X140600000Y-111400000D03*
%TO.P,U1,27,GPIO21_27*%
%TO.N,Net-(U1-GPIO21)*%
X141000000Y-111400000D03*
%TO.P,U1,28,SPICS1_28*%
%TO.N,unconnected-(U1-SPICS1-Pad28)*%
X141400000Y-111400000D03*
D18*
%TO.P,U1,29,VDD_SPI_29*%
%TO.N,GND*%
X142250000Y-110550000D03*
%TO.P,U1,30,SPIHD_30*%
%TO.N,unconnected-(U1-SPIHD-Pad30)*%
X142250000Y-110150000D03*
%TO.P,U1,31,SPIWP_31*%
%TO.N,unconnected-(U1-SPIWP-Pad31)*%
X142250000Y-109750000D03*
%TO.P,U1,32,SPICS0_32*%
%TO.N,unconnected-(U1-SPICS0-Pad32)*%
X142250000Y-109350000D03*
%TO.P,U1,33,SPICLK_33*%
%TO.N,unconnected-(U1-SPICLK-Pad33)*%
X142250000Y-108950000D03*
%TO.P,U1,34,SPIQ_34*%
%TO.N,unconnected-(U1-SPIQ-Pad34)*%
X142250000Y-108550000D03*
%TO.P,U1,35,SPID_35*%
%TO.N,unconnected-(U1-SPID-Pad35)*%
X142250000Y-108150000D03*
%TO.P,U1,36,SPICLK_N_36*%
%TO.N,unconnected-(U1-SPICLK_N-Pad36)*%
X142250000Y-107750000D03*
%TO.P,U1,37,SPICLK_P_37*%
%TO.N,unconnected-(U1-SPICLK_P-Pad37)*%
X142250000Y-107350000D03*
%TO.P,U1,38,GPIO33_38*%
%TO.N,unconnected-(U1-GPIO33-Pad38)*%
X142250000Y-106950000D03*
%TO.P,U1,39,GPIO34_39*%
%TO.N,unconnected-(U1-GPIO34-Pad39)*%
X142250000Y-106550000D03*
%TO.P,U1,40,GPIO35_40*%
%TO.N,unconnected-(U1-GPIO35-Pad40)*%
X142250000Y-106150000D03*
%TO.P,U1,41,GPIO36_41*%
%TO.N,unconnected-(U1-GPIO36-Pad41)*%
X142250000Y-105750000D03*
%TO.P,U1,42,GPIO37_42*%
%TO.N,unconnected-(U1-GPIO37-Pad42)*%
X142250000Y-105350000D03*
D19*
%TO.P,U1,43,GPIO38_43*%
%TO.N,Net-(U1-GPIO38)*%
X141400000Y-104500000D03*
%TO.P,U1,44,MTCK_44*%
%TO.N,Net-(U1-MTCK)*%
X141000000Y-104500000D03*
%TO.P,U1,45,MTDO_45*%
%TO.N,Net-(U1-MTDO)*%
X140600000Y-104500000D03*
%TO.P,U1,46,VDD3P3_CPU_46*%
%TO.N,GND*%
X140200000Y-104500000D03*
%TO.P,U1,47,MTDI_47*%
%TO.N,Net-(U1-MTDI)*%
X139800000Y-104500000D03*
%TO.P,U1,48,MTMS_48*%
%TO.N,Net-(U1-MTMS)*%
X139400000Y-104500000D03*
%TO.P,U1,49,U0TXD_49*%
%TO.N,Net-(U1-U0TXD)*%
X139000000Y-104500000D03*
%TO.P,U1,50,U0RXD_50*%
%TO.N,Net-(U1-U0RXD)*%
X138600000Y-104500000D03*
%TO.P,U1,51,GPIO45_51*%
%TO.N,Net-(U1-GPIO45)*%
X138200000Y-104500000D03*
%TO.P,U1,52,GPIO46_52*%
%TO.N,unconnected-(U1-GPIO46-Pad52)*%
X137800000Y-104500000D03*
%TO.P,U1,53,XTAL_N_53*%
%TO.N,Net-(U1-XTAL_N)*%
X137400000Y-104500000D03*
%TO.P,U1,54,XTAL_P_54*%
%TO.N,Net-(U1-XTAL_P)*%
X137000000Y-104500000D03*
%TO.P,U1,55,VDDA_55*%
%TO.N,GND*%
X136600000Y-104500000D03*
%TO.P,U1,56,VDDA_56*%
X136200000Y-104500000D03*
D20*
%TO.P,U1,57,GND_57*%
X138800000Y-107950000D03*
%TD*%
D21*
%TO.P,U3,1,VIN_1*%
%TO.N,Net-(J7-Pin_1)*%
X143200000Y-114500000D03*
%TO.P,U3,2,GND_2*%
%TO.N,GND*%
X143200000Y-115400000D03*
%TO.P,U3,3,DIN_3*%
%TO.N,Net-(U1-GPIO12)*%
X143200000Y-116200000D03*
%TO.P,U3,4,BCLK_4*%
%TO.N,Net-(J2-Pin_5)*%
X143200000Y-117000000D03*
%TO.P,U3,5,LRC_5*%
%TO.N,Net-(J2-Pin_4)*%
X143200000Y-117900000D03*
%TO.P,U3,6,SD_MODE_6*%
%TO.N,GND*%
X144000000Y-117500000D03*
%TO.P,U3,7,GAIN_7*%
X144000000Y-116600000D03*
%TO.P,U3,8,SPK+_8*%
%TO.N,Net-(J4-Pin_1)*%
X144000000Y-115800000D03*
%TO.P,U3,9,SPK-_9*%
%TO.N,Net-(J4-Pin_2)*%
X144000000Y-114900000D03*
%TD*%
D22*
%TO.P,M1,1,OUT_1*%
%TO.N,Net-(M1-OUT)*%
X134500000Y-82625000D03*
D23*
%TO.P,M1,2,VCC_2*%
X134500000Y-84000000D03*
%TD*%
D10*
%TO.P,C6,1*%
%TO.N,GND*%
X133500000Y-94980000D03*
%TO.P,C6,2*%
X133500000Y-94020000D03*
%TD*%
D24*
%TO.P,R3,1*%
%TO.N,Net-(J1-D--PadB7)*%
X138500000Y-114000000D03*
%TO.P,R3,2*%
%TO.N,Net-(U1-GPIO19{slash}USB_D-)*%
X138500000Y-112980000D03*
%TD*%
D10*
%TO.P,C4,1*%
%TO.N,GND*%
X133500000Y-97480000D03*
%TO.P,C4,2*%
X133500000Y-96520000D03*
%TD*%
D25*
%TO.P,C8,1*%
%TO.N,GND*%
X133225000Y-141500000D03*
%TO.P,C8,2*%
X134775000Y-141500000D03*
%TD*%
D26*
%TO.P,R1,1*%
%TO.N,GND*%
X141980000Y-122000000D03*
%TO.P,R1,2*%
%TO.N,Net-(U1-CHIP_PU)*%
X143000000Y-122000000D03*
%TD*%
D15*
%TO.P,U5,1,IN+_1*%
%TO.N,Net-(U5-IN+)*%
X135862500Y-127550000D03*
%TO.P,U5,2,IN-_2*%
%TO.N,Net-(U5-IN-)*%
X135862500Y-128500000D03*
%TO.P,U5,3,GND_3*%
%TO.N,GND*%
X135862500Y-129450000D03*
%TO.P,U5,4,VCC_4*%
X138137500Y-129450000D03*
%TO.P,U5,5,OUT_5*%
%TO.N,Net-(U1-GPIO18)*%
X138137500Y-127550000D03*
%TD*%
D27*
%TO.P,J3,1,Pin_1_1*%
%TO.N,GND*%
X135200000Y-115000000D03*
D28*
%TO.P,J3,2,Pin_2_2*%
X135200000Y-115720000D03*
%TO.P,J3,3,Pin_3_3*%
%TO.N,Net-(J3-Pin_3)*%
X135200000Y-116360000D03*
%TO.P,J3,4,Pin_4_4*%
%TO.N,Net-(J3-Pin_4)*%
X135200000Y-117000000D03*
D27*
%TO.P,J3,5,Pin_5_5*%
%TO.N,Net-(J3-Pin_5)*%
X135200000Y-117720000D03*
%TO.P,J3,6*%
%TO.N,N/C*%
X137000000Y-117720000D03*
D28*
%TO.P,J3,7*%
X137000000Y-117000000D03*
%TO.P,J3,8*%
X137000000Y-116360000D03*
%TO.P,J3,9*%
X137000000Y-115720000D03*
D27*
%TO.P,J3,10*%
X137000000Y-115000000D03*
%TD*%
D10*
%TO.P,C10,1*%
%TO.N,Net-(M1-OUT)*%
X133500000Y-90000000D03*
%TO.P,C10,2*%
%TO.N,Net-(U5-IN+)*%
X133500000Y-89040000D03*
%TD*%
D29*
%TO.P,J5,1,Pin_1_1*%
%TO.N,Net-(J5-Pin_1)*%
X134000000Y-79800000D03*
D17*
%TO.P,J5,2,Pin_2_2*%
%TO.N,Net-(J5-Pin_2)*%
X134000000Y-75200000D03*
%TD*%
D24*
%TO.P,R7,1*%
%TO.N,Net-(U1-GPIO18)*%
X132500000Y-136510000D03*
%TO.P,R7,2*%
%TO.N,GND*%
X132500000Y-135490000D03*
%TD*%
%TO.P,R4,1*%
%TO.N,Net-(M1-OUT)*%
X134000000Y-88000000D03*
%TO.P,R4,2*%
%TO.N,GND*%
X134000000Y-86980000D03*
%TD*%
D25*
%TO.P,C9,1*%
%TO.N,GND*%
X133500000Y-139000000D03*
%TO.P,C9,2*%
X135050000Y-139000000D03*
%TD*%
D24*
%TO.P,R5,1*%
%TO.N,GND*%
X144500000Y-121500000D03*
%TO.P,R5,2*%
%TO.N,Net-(U5-IN-)*%
X144500000Y-120480000D03*
%TD*%
D30*
%TO.P,C2,1*%
%TO.N,GND*%
X143000000Y-102040000D03*
%TO.P,C2,2*%
%TO.N,Net-(U1-XTAL_N)*%
X143000000Y-103000000D03*
%TD*%
D24*
%TO.P,R2,1*%
%TO.N,Net-(J1-D+-PadA6)*%
X144500000Y-124500000D03*
%TO.P,R2,2*%
%TO.N,Net-(U1-GPIO20{slash}USB_D+)*%
X144500000Y-123480000D03*
%TD*%
D10*
%TO.P,C5,1*%
%TO.N,GND*%
X133500000Y-100480000D03*
%TO.P,C5,2*%
X133500000Y-99520000D03*
%TD*%
D31*
%TO.P,Y1,1,1_1*%
%TO.N,Net-(U1-XTAL_N)*%
X140500000Y-102000000D03*
%TO.P,Y1,2,2_2*%
%TO.N,Net-(U1-XTAL_P)*%
X138000000Y-102000000D03*
%TD*%
D16*
%TO.P,J7,1,Pin_1_1*%
%TO.N,Net-(J7-Pin_1)*%
X138400000Y-75500000D03*
D17*
%TO.P,J7,2,Pin_2_2*%
%TO.N,GND*%
X143000000Y-75500000D03*
%TD*%
D21*
%TO.P,U2,1,VIN_1*%
%TO.N,Net-(J7-Pin_1)*%
X139700000Y-114400000D03*
%TO.P,U2,2,GND_2*%
%TO.N,GND*%
X139700000Y-115300000D03*
%TO.P,U2,3,DIN_3*%
%TO.N,Net-(U1-GPIO12)*%
X139700000Y-116100000D03*
%TO.P,U2,4,BCLK_4*%
%TO.N,Net-(J2-Pin_5)*%
X139700000Y-116900000D03*
%TO.P,U2,5,LRC_5*%
%TO.N,Net-(J2-Pin_4)*%
X139700000Y-117800000D03*
%TO.P,U2,6,SD_MODE_6*%
%TO.N,GND*%
X140500000Y-117400000D03*
%TO.P,U2,7,GAIN_7*%
X140500000Y-116500000D03*
%TO.P,U2,8,SPK+_8*%
%TO.N,Net-(J5-Pin_1)*%
X140500000Y-115700000D03*
%TO.P,U2,9,SPK-_9*%
%TO.N,Net-(J5-Pin_2)*%
X140500000Y-114800000D03*
%TD*%
D32*
%TO.P,L1,1,1_1*%
%TO.N,GND*%
X134500000Y-136287500D03*
%TO.P,L1,2,2_2*%
X134500000Y-134712500D03*
%TD*%
D33*
%TO.P,J6,1,1_1*%
%TO.N,GND*%
X138500000Y-97250000D03*
%TO.P,J6,2,2_2*%
X138500000Y-96750000D03*
%TO.P,J6,3,3_3*%
%TO.N,Net-(J3-Pin_4)*%
X138500000Y-96250000D03*
%TO.P,J6,4,4_4*%
%TO.N,Net-(J3-Pin_3)*%
X138500000Y-95750000D03*
%TO.P,J6,5,5_5*%
%TO.N,Net-(U1-GPIO13)*%
X138500000Y-95250000D03*
%TO.P,J6,6,6_6*%
%TO.N,Net-(U1-GPIO8)*%
X138500000Y-94750000D03*
%TO.P,J6,7,7_7*%
%TO.N,Net-(U1-GPIO14)*%
X138500000Y-94250000D03*
%TO.P,J6,8,8_8*%
%TO.N,Net-(U1-GPIO21)*%
X138500000Y-93750000D03*
%TO.P,J6,9,9_9*%
%TO.N,Net-(U1-GPIO45)*%
X138500000Y-93250000D03*
%TO.P,J6,10,10_10*%
%TO.N,Net-(U1-U0RXD)*%
X138500000Y-92750000D03*
%TO.P,J6,11,11_11*%
%TO.N,Net-(U1-U0TXD)*%
X138500000Y-92250000D03*
%TO.P,J6,12,12_12*%
%TO.N,Net-(U1-MTMS)*%
X138500000Y-91750000D03*
%TO.P,J6,13,13_13*%
%TO.N,Net-(U1-MTDI)*%
X138500000Y-91250000D03*
%TO.P,J6,14,14_14*%
%TO.N,Net-(U1-MTDO)*%
X138500000Y-90750000D03*
%TO.P,J6,15,15_15*%
%TO.N,Net-(U1-MTCK)*%
X138500000Y-90250000D03*
%TO.P,J6,16,16_16*%
%TO.N,Net-(U1-GPIO38)*%
X138500000Y-89750000D03*
%TO.P,J6,17,17_17*%
%TO.N,Net-(U1-GPIO6)*%
X138500000Y-89250000D03*
%TO.P,J6,18,18_18*%
%TO.N,Net-(U1-GPIO7)*%
X138500000Y-88750000D03*
%TO.P,J6,19,19_19*%
%TO.N,GND*%
X138500000Y-88250000D03*
%TO.P,J6,20,20_20*%
X138500000Y-87750000D03*
%TO.P,J6,21,21_21*%
X138500000Y-87250000D03*
%TO.P,J6,22,22_22*%
X138500000Y-86750000D03*
%TO.P,J6,23,23_23*%
X138500000Y-86250000D03*
%TO.P,J6,24,24_24*%
X138500000Y-85750000D03*
D34*
%TO.P,J6,MP*%
%TO.N,N/C*%
X141750000Y-99150000D03*
X141750000Y-83850000D03*
%TD*%
D10*
%TO.P,C1,1*%
%TO.N,Net-(U1-XTAL_P)*%
X136500000Y-102480000D03*
%TO.P,C1,2*%
%TO.N,GND*%
X136500000Y-101520000D03*
%TD*%
%TO.P,C7,1*%
%TO.N,GND*%
X133500000Y-92480000D03*
%TO.P,C7,2*%
X133500000Y-91520000D03*
%TD*%
D35*
%TO.P,J2,1,Pin_1_1*%
%TO.N,GND*%
X135000000Y-120000000D03*
%TO.P,J2,2,Pin_2_2*%
X135000000Y-120500000D03*
%TO.P,J2,3,Pin_3_3*%
%TO.N,Net-(J2-Pin_3)*%
X135000000Y-121000000D03*
%TO.P,J2,4,Pin_4_4*%
%TO.N,Net-(J2-Pin_4)*%
X135000000Y-121500000D03*
%TO.P,J2,5,Pin_5_5*%
%TO.N,Net-(J2-Pin_5)*%
X135000000Y-122000000D03*
%TO.P,J2,6,Pin_6_6*%
%TO.N,GND*%
X135000000Y-122500000D03*
%TO.P,J2,7*%
%TO.N,N/C*%
X135000000Y-123000000D03*
%TO.P,J2,8*%
X135000000Y-123500000D03*
%TO.P,J2,9*%
X136800000Y-123500000D03*
%TO.P,J2,10*%
X136800000Y-123000000D03*
%TO.P,J2,11*%
X136800000Y-122500000D03*
%TO.P,J2,12*%
X136800000Y-122000000D03*
%TO.P,J2,13*%
X136800000Y-121500000D03*
%TO.P,J2,14*%
X136800000Y-121000000D03*
%TO.P,J2,15*%
X136800000Y-120500000D03*
%TO.P,J2,16*%
X136800000Y-120000000D03*
%TD*%
D26*
%TO.P,R6,1*%
%TO.N,Net-(U5-IN-)*%
X141990000Y-125500000D03*
%TO.P,R6,2*%
%TO.N,GND*%
X143010000Y-125500000D03*
%TD*%
D36*
%TO.N,GND*%
X144000000Y-89000000D03*
X143200000Y-115400000D03*
X142228200Y-118439400D03*
X133501000Y-134500000D03*
X132500000Y-133936500D03*
%TO.N,Net-(J5-Pin_1)*%
X133000000Y-82000000D03*
%TO.N,GND*%
X132618500Y-86000000D03*
%TO.N,Net-(U5-IN+)*%
X133109000Y-88000000D03*
%TO.N,GND*%
X138241500Y-107898933D03*
X136500000Y-74500000D03*
X136500000Y-74500000D03*
X138500000Y-83000000D03*
X139000000Y-83500000D03*
X144500000Y-122500000D03*
X142500000Y-117400000D03*
X142500000Y-123000000D03*
X141500000Y-78000000D03*
X133000000Y-127000000D03*
X132618500Y-90799500D03*
X142000000Y-115300000D03*
X139000000Y-83500000D03*
X134000000Y-128500000D03*
X137000000Y-85500000D03*
X142429721Y-110677000D03*
X133000000Y-127000000D03*
X138500000Y-125000000D03*
X142000000Y-113000000D03*
X136942064Y-125557936D03*
X138500000Y-83000000D03*
X144500000Y-122500000D03*
%TO.N,Net-(U4-IN)*%
X136407300Y-135612300D03*
X142591100Y-130073500D03*
%TO.N,Net-(J1-D--PadB7)*%
X138292000Y-114716400D03*
X138433300Y-137213800D03*
%TO.N,Net-(J4-Pin_1)*%
X144950000Y-114500000D03*
X144163341Y-115968164D03*
%TO.N,Net-(J4-Pin_2)*%
X143966940Y-114933060D03*
X144000000Y-113500000D03*
%TO.N,Net-(U1-CHIP_PU)*%
X143156200Y-121161600D03*
X134456900Y-106170100D03*
%TO.N,Net-(J3-Pin_5)*%
X133623300Y-113091600D03*
X136030200Y-117720000D03*
%TO.N,Net-(J3-Pin_4)*%
X136038900Y-116753300D03*
X135432100Y-102191300D03*
X133131100Y-109085500D03*
%TO.N,Net-(J3-Pin_3)*%
X133929300Y-111692600D03*
X135933600Y-95750000D03*
%TO.N,Net-(U1-GPIO6)*%
X134503800Y-109351600D03*
X136192600Y-89250000D03*
%TO.N,Net-(U1-GPIO7)*%
X137381800Y-88685400D03*
X136186100Y-109278100D03*
%TO.N,Net-(U1-GPIO8)*%
X134261200Y-110150000D03*
X135495100Y-94750000D03*
%TO.N,Net-(J2-Pin_3)*%
X134159400Y-120601100D03*
X134828500Y-111097800D03*
%TO.N,Net-(J2-Pin_4)*%
X134165500Y-121340700D03*
X136474500Y-118851100D03*
X135671000Y-111927400D03*
%TO.N,Net-(J2-Pin_5)*%
X136415900Y-112230900D03*
X134165400Y-122159300D03*
X139517600Y-116900100D03*
%TO.N,Net-(U1-GPIO13)*%
X136357500Y-110040900D03*
X137401500Y-95250000D03*
%TO.N,Net-(U1-GPIO14)*%
X140675100Y-112955400D03*
X137410100Y-94141400D03*
%TO.N,Net-(U1-GPIO18)*%
X137403500Y-126816000D03*
X139055500Y-112230300D03*
%TO.N,Net-(U1-GPIO20{slash}USB_D+)*%
X141177700Y-112340600D03*
%TO.N,Net-(U1-GPIO21)*%
X141000000Y-110561200D03*
X139588700Y-93750000D03*
%TO.N,Net-(U1-MTCK)*%
X142965300Y-104987700D03*
X141340000Y-90409300D03*
%TO.N,Net-(U1-MTDO)*%
X140382400Y-90909300D03*
X140611100Y-105332000D03*
%TO.N,Net-(U1-MTMS)*%
X137416000Y-91750000D03*
X139492300Y-103658100D03*
%TO.N,Net-(U1-U0TXD)*%
X139989800Y-92358000D03*
X140234600Y-97469000D03*
%TO.N,Net-(U1-GPIO45)*%
X137417100Y-93250000D03*
X138200000Y-103655900D03*
%TO.N,Net-(U1-XTAL_N)*%
X141433700Y-102000000D03*
X139244400Y-105494000D03*
X142474800Y-101000000D03*
%TO.N,Net-(J7-Pin_1)*%
X142807986Y-113807986D03*
%TO.N,Net-(U5-IN+)*%
X135128500Y-126816000D03*
%TO.N,Net-(U5-IN-)*%
X141420500Y-124930500D03*
X137137200Y-128041300D03*
%TO.N,Net-(J5-Pin_1)*%
X138926400Y-115595100D03*
X138980000Y-121248300D03*
%TO.N,Net-(J5-Pin_2)*%
X141771100Y-114151200D03*
X140571100Y-121428900D03*
X143000000Y-112500000D03*
%TD*%
%TO.N,GND*%
D37*
X144000000Y-89000000D02*
X144000000Y-87500000D01*
X143850000Y-109000000D02*
X143850000Y-102890000D01*
X143100000Y-115300000D02*
X143200000Y-115400000D01*
X142000000Y-115300000D02*
X143100000Y-115300000D01*
X133501000Y-134500000D02*
X133501000Y-133499000D01*
X133501000Y-133499000D02*
X134000000Y-133000000D01*
X132500000Y-134000000D02*
X132500000Y-133936500D01*
X134500000Y-133500000D02*
X134000000Y-133000000D01*
X134500000Y-134712500D02*
X134500000Y-133500000D01*
X141225000Y-129500000D02*
X141225000Y-128550000D01*
%TO.N,Net-(J5-Pin_1)*%
X134000000Y-81000000D02*
X133000000Y-82000000D01*
X134000000Y-79800000D02*
X134000000Y-81000000D01*
%TO.N,Net-(J4-Pin_2)*%
X143600000Y-80000000D02*
X142600000Y-80000000D01*
%TO.N,Net-(J4-Pin_1)*%
X142449188Y-77509500D02*
X143000000Y-78060312D01*
X141000000Y-80000000D02*
X141000000Y-77806328D01*
X141000000Y-77806328D02*
X141296828Y-77509500D01*
X138000000Y-80000000D02*
X141000000Y-80000000D01*
X141296828Y-77509500D02*
X142449188Y-77509500D01*
X143000000Y-78060312D02*
X142939688Y-78060312D01*
%TO.N,Net-(J5-Pin_2)*%
X137403800Y-83403800D02*
X137403800Y-83472800D01*
X135500000Y-81500000D02*
X137403800Y-83403800D01*
X135500000Y-76700000D02*
X135500000Y-81500000D01*
X134000000Y-75200000D02*
X135500000Y-76700000D01*
%TO.N,GND*%
X132779500Y-90799500D02*
X133500000Y-91520000D01*
X132618500Y-90799500D02*
X132779500Y-90799500D01*
X133500000Y-97480000D02*
X137427800Y-97480000D01*
X133500000Y-100480000D02*
X133500000Y-91520000D01*
X133500000Y-102040000D02*
X133500000Y-100480000D01*
X134020000Y-101520000D02*
X133500000Y-102040000D01*
X136500000Y-101520000D02*
X134020000Y-101520000D01*
X134960000Y-103500000D02*
X133500000Y-102040000D01*
X134960000Y-104500000D02*
X134960000Y-103500000D01*
%TO.N,Net-(U1-CHIP_PU)*%
X132500000Y-104000000D02*
X133300395Y-103199605D01*
X132500000Y-104213200D02*
X132500000Y-104000000D01*
%TO.N,GND*%
X133500000Y-91000000D02*
X133500000Y-91520000D01*
X135876800Y-88623200D02*
X133500000Y-91000000D01*
%TO.N,Net-(U5-IN+)*%
X133109000Y-88000000D02*
X133109000Y-88649000D01*
X133109000Y-88649000D02*
X133500000Y-89040000D01*
%TO.N,Net-(M1-OUT)*%
X134000000Y-89500000D02*
X133500000Y-90000000D01*
X134000000Y-88000000D02*
X134000000Y-89500000D01*
%TO.N,GND*%
X135876800Y-88623200D02*
X135876800Y-88143200D01*
X132990000Y-86980000D02*
X134000000Y-86980000D01*
%TO.N,Net-(M1-OUT)*%
X134000000Y-88000000D02*
X134000000Y-88227700D01*
X135054861Y-86945139D02*
X134000000Y-88000000D01*
X135054861Y-83179861D02*
X135054861Y-86945139D01*
X134500000Y-82625000D02*
X135054861Y-83179861D01*
%TO.N,Net-(J5-Pin_1)*%
X133300000Y-80500000D02*
X134000000Y-79800000D01*
%TO.N,Net-(J5-Pin_2)*%
X144254000Y-90323000D02*
X144254000Y-111246000D01*
X137403800Y-83472800D02*
X144254000Y-90323000D01*
X144254000Y-111246000D02*
X143000000Y-112500000D01*
%TO.N,GND*%
X142000000Y-75500000D02*
X141500000Y-75000000D01*
X143600000Y-75500000D02*
X142000000Y-75500000D01*
%TO.N,Net-(J4-Pin_1)*%
X144950000Y-78060312D02*
X143000000Y-78060312D01*
%TO.N,Net-(J4-Pin_2)*%
X144025000Y-79575000D02*
X143600000Y-80000000D01*
X144675000Y-79575000D02*
X144025000Y-79575000D01*
%TO.N,Net-(J2-Pin_4)*%
X140200000Y-117800000D02*
X139700000Y-117800000D01*
%TO.N,GND*%
X142500000Y-117400000D02*
X140500000Y-117400000D01*
X141000000Y-116500000D02*
X140500000Y-116500000D01*
X141100000Y-116600000D02*
X141000000Y-116500000D01*
%TO.N,Net-(J5-Pin_1)*%
X140000000Y-115700000D02*
X140500000Y-115700000D01*
X140000000Y-115700000D02*
X141000000Y-115700000D01*
%TO.N,GND*%
X142000000Y-115300000D02*
X139700000Y-115300000D01*
%TO.N,Net-(J7-Pin_1)*%
X140200000Y-114400000D02*
X139700000Y-114400000D01*
%TO.N,Net-(J5-Pin_2)*%
X140500000Y-114800000D02*
X141000000Y-114800000D01*
%TO.N,GND*%
X138500000Y-86750000D02*
X137657800Y-86750000D01*
X135000000Y-120500000D02*
X135592200Y-120500000D01*
X138500000Y-86250000D02*
X137657800Y-86250000D01*
X137657800Y-88143200D02*
X137657800Y-87750000D01*
X135606500Y-133718700D02*
X137116300Y-133718700D01*
X137657800Y-88143200D02*
X135876800Y-88143200D01*
X134500000Y-134712500D02*
X134612700Y-134712500D01*
X135716000Y-105750000D02*
X135546600Y-105750000D01*
X136200000Y-105266000D02*
X135716000Y-105750000D01*
X136500000Y-101000000D02*
X136000000Y-100500000D01*
X138800000Y-110142200D02*
X138200000Y-110742200D01*
X133225000Y-141500000D02*
X134775000Y-141500000D01*
X139736700Y-105506700D02*
X140200000Y-105043400D01*
X141100000Y-116600000D02*
X143800000Y-116600000D01*
X136607800Y-106945800D02*
X136607800Y-107950000D01*
X137116300Y-139501300D02*
X137425000Y-139810000D01*
X138800000Y-109046100D02*
X140223300Y-109046100D01*
X138500000Y-88250000D02*
X139750000Y-88250000D01*
X135105200Y-139000000D02*
X135606500Y-139501300D01*
X138500000Y-87250000D02*
X137657800Y-87250000D01*
X134500000Y-130812500D02*
X134500000Y-134712500D01*
X136200000Y-104500000D02*
X136200000Y-105266000D01*
X136343300Y-124265500D02*
X139043500Y-126965700D01*
X135576300Y-122356600D02*
X135576300Y-122500000D01*
X143800000Y-116600000D02*
X143900000Y-116700000D01*
X142650000Y-110550000D02*
X142250000Y-110550000D01*
X135862500Y-129450000D02*
X134500000Y-130812500D01*
X138500000Y-96750000D02*
X137657800Y-96750000D01*
X139750000Y-88250000D02*
X140000000Y-88500000D01*
X138500000Y-88250000D02*
X137657800Y-88250000D01*
X141464600Y-119203000D02*
X142228200Y-118439400D01*
X138800000Y-109046100D02*
X138800000Y-110142200D01*
X139043500Y-126965700D02*
X139043500Y-129450000D01*
X134407800Y-115920000D02*
X134607800Y-115720000D01*
X135050000Y-139000000D02*
X135105200Y-139000000D01*
X138137500Y-129450000D02*
X139043500Y-129450000D01*
X135576300Y-122500000D02*
X135735600Y-122659300D01*
X143850000Y-102890000D02*
X143000000Y-102040000D01*
X135546600Y-106150000D02*
X135546600Y-105750000D01*
X137657800Y-87750000D02*
X137657800Y-87250000D01*
X136600000Y-104500000D02*
X136200000Y-104500000D01*
X134000000Y-128500000D02*
X134550000Y-129050000D01*
X140139300Y-123840700D02*
X140010000Y-123840700D01*
X137116300Y-133718700D02*
X137425000Y-133410000D01*
X140223300Y-109046100D02*
X141727200Y-110550000D01*
X143900000Y-116700000D02*
X143900000Y-117400000D01*
X144500000Y-121500000D02*
X144500000Y-122500000D01*
X142498800Y-126011200D02*
X142107700Y-126011200D01*
X138500000Y-97250000D02*
X137657800Y-97250000D01*
X135812000Y-106150000D02*
X136607800Y-106945800D01*
X138500000Y-96750000D02*
X136750000Y-96750000D01*
X141175000Y-129450000D02*
X141225000Y-129500000D01*
X138800000Y-107950000D02*
X139736700Y-107013300D01*
X135200000Y-115720000D02*
X134607800Y-115720000D01*
X137657800Y-96750000D02*
X137657800Y-97250000D01*
X140010000Y-125500000D02*
X140010000Y-123840700D01*
X138500000Y-87750000D02*
X137657800Y-87750000D01*
X132618500Y-90799500D02*
X132500000Y-90918000D01*
X143310300Y-118439400D02*
X144000000Y-117749700D01*
X140200000Y-105043400D02*
X140200000Y-104500000D01*
X144000000Y-117500000D02*
X143900000Y-117400000D01*
X135000000Y-120000000D02*
X134407800Y-120000000D01*
X137657800Y-88250000D02*
X137657800Y-88143200D01*
X138528800Y-123840700D02*
X136343300Y-123840700D01*
X137657800Y-86750000D02*
X137657800Y-86250000D01*
X135862500Y-129450000D02*
X138137500Y-129450000D01*
X135546600Y-105750000D02*
X135350000Y-105750000D01*
X135000000Y-122500000D02*
X135576300Y-122500000D01*
X138500000Y-83000000D02*
X139000000Y-83500000D01*
X135735600Y-124264400D02*
X136100200Y-123899800D01*
X134612700Y-134712500D02*
X135606500Y-133718700D01*
X137657800Y-86250000D02*
X137657800Y-85750000D01*
X140989400Y-128550000D02*
X138990000Y-126550600D01*
X136100200Y-123899800D02*
X136343300Y-123899800D01*
X136343300Y-123899800D02*
X136343300Y-124265500D01*
X143010000Y-125500000D02*
X142498800Y-126011200D01*
X144000000Y-117749700D02*
X144000000Y-117500000D01*
X135000000Y-120000000D02*
X135592200Y-120000000D01*
X140010000Y-125500000D02*
X140625100Y-126115100D01*
X138500000Y-126023196D02*
X141026804Y-128550000D01*
X141980000Y-122000000D02*
X141464600Y-121484600D01*
X136343300Y-123840700D02*
X136341100Y-123840700D01*
X138500000Y-125000000D02*
X138500000Y-126023196D01*
X135606500Y-139501300D02*
X137116300Y-139501300D01*
X135546600Y-106150000D02*
X135812000Y-106150000D01*
X138800000Y-107950000D02*
X138800000Y-109046100D01*
X141980000Y-122000000D02*
X140139300Y-123840700D01*
X134960000Y-104500000D02*
X136200000Y-104500000D01*
X143850000Y-109350000D02*
X143850000Y-109000000D01*
X133500000Y-139000000D02*
X135050000Y-139000000D01*
X132500000Y-135490000D02*
X132500000Y-134000000D01*
X135200000Y-115720000D02*
X134220000Y-115720000D01*
X141727200Y-110550000D02*
X142250000Y-110550000D01*
X140625100Y-126115100D02*
X142003800Y-126115100D01*
X143850000Y-109350000D02*
X142650000Y-110550000D01*
X137657800Y-87250000D02*
X137657800Y-86750000D01*
X134407800Y-120000000D02*
X134407800Y-115920000D01*
X136343300Y-123840700D02*
X136343300Y-123899800D01*
X138800000Y-107950000D02*
X136607800Y-107950000D01*
X135592200Y-120000000D02*
X135592200Y-120500000D01*
X134500000Y-134712500D02*
X134500000Y-136287500D01*
X135050000Y-136837500D02*
X134500000Y-136287500D01*
X140010000Y-123840700D02*
X138528800Y-123840700D01*
X136500000Y-101520000D02*
X136500000Y-101000000D01*
X138500000Y-85750000D02*
X137657800Y-85750000D01*
X134775000Y-141500000D02*
X136465000Y-139810000D01*
X144500000Y-122500000D02*
X144210210Y-122500000D01*
X136465000Y-139810000D02*
X137425000Y-139810000D01*
X141026804Y-128550000D02*
X141225000Y-128550000D01*
X144000000Y-116600000D02*
X143900000Y-116700000D01*
X142228200Y-118439400D02*
X143310300Y-118439400D01*
X138990000Y-126550600D02*
X138990000Y-125500000D01*
X135546600Y-106150000D02*
X135350000Y-106150000D01*
X142107700Y-126011200D02*
X142003800Y-126115100D01*
X141980000Y-122480000D02*
X142500000Y-123000000D01*
X135592200Y-120500000D02*
X135592200Y-122340700D01*
X141464600Y-121484600D02*
X141464600Y-119203000D01*
X135735600Y-122659300D02*
X135735600Y-124264400D01*
X138200000Y-110742200D02*
X138200000Y-111400000D01*
X135050000Y-139000000D02*
X135050000Y-136837500D01*
X137657800Y-97250000D02*
X137427800Y-97480000D01*
X139043500Y-129450000D02*
X141175000Y-129450000D01*
X135200000Y-115000000D02*
X135200000Y-115720000D01*
X143900000Y-117400000D02*
X142500000Y-117400000D01*
X135592200Y-122340700D02*
X135576300Y-122356600D01*
X139736700Y-107013300D02*
X139736700Y-105506700D01*
X135000000Y-120000000D02*
X133000000Y-120000000D01*
X141980000Y-122000000D02*
X141980000Y-122480000D01*
X134220000Y-115720000D02*
X134000000Y-115500000D01*
%TO.N,Net-(U4-IN)*%
X136407300Y-138701000D02*
X136407300Y-135612300D01*
X136407300Y-135612300D02*
X136407300Y-134519000D01*
X142639600Y-130025000D02*
X142591100Y-130073500D01*
X136407300Y-134519000D02*
X137116000Y-134519000D01*
X142639600Y-129215300D02*
X142639600Y-129125700D01*
X136407300Y-138701000D02*
X137116000Y-138701000D01*
X142639600Y-129125700D02*
X142639600Y-128814400D01*
X141425200Y-127600000D02*
X141225000Y-127600000D01*
X137116000Y-138701000D02*
X137425000Y-139010000D01*
X137116000Y-134519000D02*
X137425000Y-134210000D01*
X142639600Y-128814400D02*
X141425200Y-127600000D01*
X142639600Y-129215300D02*
X142639600Y-130025000D01*
%TO.N,Net-(J1-D+-PadA6)*%
X137563500Y-136721500D02*
X138981900Y-136721500D01*
X137425000Y-136860000D02*
X137563500Y-136721500D01*
X144500000Y-124500000D02*
X144500000Y-131346514D01*
X139125014Y-136721500D02*
X138981900Y-136721500D01*
X144500000Y-131346514D02*
X139125014Y-136721500D01*
%TO.N,Net-(J1-D--PadB7)*%
X137425000Y-137360000D02*
X137571200Y-137213800D01*
X138292000Y-114208000D02*
X138292000Y-114716400D01*
X138500000Y-114000000D02*
X138292000Y-114208000D01*
X137571200Y-137213800D02*
X138433300Y-137213800D01*
%TO.N,Net-(J4-Pin_1)*%
X144234900Y-116259000D02*
X144000000Y-116024100D01*
X144000000Y-116024100D02*
X144000000Y-115800000D01*
X141990000Y-119500000D02*
X142667900Y-118822100D01*
X144489100Y-116386000D02*
X144362100Y-116259000D01*
X144362100Y-116259000D02*
X144234900Y-116259000D01*
X144489100Y-117672400D02*
X144489100Y-116386000D01*
X144950000Y-78060312D02*
X144950000Y-114500000D01*
X143339400Y-118822100D02*
X144489100Y-117672400D01*
X142667900Y-118822100D02*
X143339400Y-118822100D01*
%TO.N,Net-(J4-Pin_2)*%
X144675000Y-79575000D02*
X144675000Y-112825000D01*
X144744800Y-117855600D02*
X144744800Y-115644800D01*
X143100400Y-119500000D02*
X144744800Y-117855600D01*
X144675000Y-112825000D02*
X144000000Y-113500000D01*
X144744800Y-115644800D02*
X144000000Y-114900000D01*
X143010000Y-119500000D02*
X143100400Y-119500000D01*
%TO.N,Net-(U1-CHIP_PU)*%
X132500000Y-104213200D02*
X134456900Y-106170100D01*
X143156200Y-121843800D02*
X143156200Y-121161600D01*
X134456900Y-106170100D02*
X134836800Y-106550000D01*
X134836800Y-106550000D02*
X135350000Y-106550000D01*
X143000000Y-122000000D02*
X143156200Y-121843800D01*
%TO.N,Net-(J3-Pin_5)*%
X132591000Y-108875300D02*
X132591000Y-112059300D01*
X135776300Y-117720000D02*
X136030200Y-117720000D01*
X132591000Y-112059300D02*
X133623300Y-113091600D01*
X133716300Y-107750000D02*
X132591000Y-108875300D01*
X135200000Y-117720000D02*
X135776300Y-117720000D01*
X135350000Y-107750000D02*
X133716300Y-107750000D01*
%TO.N,Net-(J3-Pin_4)*%
X135618900Y-102004500D02*
X135432100Y-102191300D01*
X137095600Y-101715400D02*
X136806500Y-102004500D01*
X139342200Y-96250000D02*
X139342200Y-97627700D01*
X136806500Y-102004500D02*
X135618900Y-102004500D01*
X135200000Y-117000000D02*
X135792200Y-117000000D01*
X138500000Y-96250000D02*
X139342200Y-96250000D01*
X133666600Y-108550000D02*
X133131100Y-109085500D01*
X137095600Y-99874300D02*
X137095600Y-101715400D01*
X139342200Y-97627700D02*
X137095600Y-99874300D01*
X135350000Y-108550000D02*
X133666600Y-108550000D01*
X136038900Y-116753300D02*
X135792200Y-117000000D01*
%TO.N,Net-(J3-Pin_3)*%
X133929300Y-111692600D02*
X133747300Y-111510600D01*
X133747300Y-111510600D02*
X133747300Y-109379400D01*
X138500000Y-95750000D02*
X135933600Y-95750000D01*
X133747300Y-109379400D02*
X134267300Y-108859400D01*
X136091900Y-113855200D02*
X133929300Y-111692600D01*
X135200000Y-116360000D02*
X135600900Y-116360000D01*
X135600900Y-116360000D02*
X136091900Y-115869000D01*
X134267300Y-108859400D02*
X135259400Y-108859400D01*
X136091900Y-115869000D02*
X136091900Y-113855200D01*
X135259400Y-108859400D02*
X135350000Y-108950000D01*
%TO.N,Net-(U1-GPIO6)*%
X135350000Y-109350000D02*
X134505400Y-109350000D01*
X136192600Y-89250000D02*
X138500000Y-89250000D01*
X134505400Y-109350000D02*
X134503800Y-109351600D01*
%TO.N,Net-(U1-GPIO7)*%
X137381800Y-88685400D02*
X137593200Y-88685400D01*
X135350000Y-109750000D02*
X135714200Y-109750000D01*
X135714200Y-109750000D02*
X136186100Y-109278100D01*
X138500000Y-88750000D02*
X137657800Y-88750000D01*
X137593200Y-88685400D02*
X137657800Y-88750000D01*
%TO.N,Net-(U1-GPIO8)*%
X138500000Y-94750000D02*
X135495100Y-94750000D01*
X135350000Y-110150000D02*
X134261200Y-110150000D01*
%TO.N,Net-(J2-Pin_3)*%
X134558300Y-121000000D02*
X134159400Y-120601100D01*
X135000000Y-121000000D02*
X134558300Y-121000000D01*
X135350000Y-110550000D02*
X134828500Y-111071500D01*
X134828500Y-111071500D02*
X134828500Y-111097800D01*
%TO.N,Net-(J2-Pin_4)*%
X140200000Y-117800000D02*
X139148900Y-118851100D01*
X135000000Y-121500000D02*
X134423700Y-121500000D01*
X136200000Y-111400000D02*
X135672600Y-111927400D01*
X135672600Y-111927400D02*
X135671000Y-111927400D01*
X139148900Y-118851100D02*
X136474500Y-118851100D01*
X134264400Y-121340700D02*
X134165500Y-121340700D01*
X140200000Y-117800000D02*
X140300000Y-117900000D01*
X140300000Y-117900000D02*
X143200000Y-117900000D01*
X134423700Y-121500000D02*
X134264400Y-121340700D01*
%TO.N,Net-(J2-Pin_5)*%
X135000000Y-122000000D02*
X134423700Y-122000000D01*
X136600000Y-111400000D02*
X136600000Y-112046800D01*
X134264400Y-122159300D02*
X134423700Y-122000000D01*
X143100100Y-116900100D02*
X140200000Y-116900100D01*
X134165400Y-122159300D02*
X134264400Y-122159300D01*
X140200000Y-116900100D02*
X139517600Y-116900100D01*
X136600000Y-112046800D02*
X136415900Y-112230900D01*
X143200000Y-117000000D02*
X143100100Y-116900100D01*
X140200000Y-116900100D02*
X140200000Y-116900000D01*
%TO.N,Net-(U1-GPIO12)*%
X143100000Y-116100000D02*
X140200000Y-116100000D01*
X143200000Y-116200000D02*
X143100000Y-116100000D01*
X137000000Y-111400000D02*
X137000000Y-112866100D01*
X138681100Y-116100000D02*
X140200000Y-116100000D01*
X137000000Y-112866100D02*
X137592200Y-113458300D01*
X137592200Y-113458300D02*
X137592200Y-115011100D01*
X137592200Y-115011100D02*
X138681100Y-116100000D01*
%TO.N,Net-(U1-GPIO13)*%
X136410500Y-110040900D02*
X136357500Y-110040900D01*
X137400000Y-111030400D02*
X136410500Y-110040900D01*
X138500000Y-95250000D02*
X137401500Y-95250000D01*
X137400000Y-111400000D02*
X137400000Y-111030400D01*
%TO.N,Net-(U1-GPIO14)*%
X137549200Y-94141400D02*
X137657800Y-94250000D01*
X137800000Y-113115700D02*
X138150900Y-113466600D01*
X137800000Y-111400000D02*
X137800000Y-113115700D01*
X138150900Y-113466600D02*
X140163900Y-113466600D01*
X140163900Y-113466600D02*
X140675100Y-112955400D01*
X138500000Y-94250000D02*
X137657800Y-94250000D01*
X137410100Y-94141400D02*
X137549200Y-94141400D01*
%TO.N,Net-(U1-GPIO18)*%
X134925328Y-126325500D02*
X136913000Y-126325500D01*
X136913000Y-126325500D02*
X137403500Y-126816000D01*
X132500000Y-136510000D02*
X133010500Y-135999500D01*
X139800000Y-111400000D02*
X139800000Y-111752100D01*
X133010500Y-128240328D02*
X134925328Y-126325500D01*
X139800000Y-111752100D02*
X139321800Y-112230300D01*
X133010500Y-135999500D02*
X133010500Y-128240328D01*
X139321800Y-112230300D02*
X139055500Y-112230300D01*
X137403500Y-126816000D02*
X138137500Y-127550000D01*
%TO.N,Net-(U1-GPIO19{slash}USB_D-)*%
X139022500Y-112980000D02*
X140200000Y-111802500D01*
X140200000Y-111802500D02*
X140200000Y-111400000D01*
X138500000Y-112980000D02*
X139022500Y-112980000D01*
%TO.N,Net-(U1-GPIO20{slash}USB_D+)*%
X140600000Y-111762900D02*
X141177700Y-112340600D01*
X142068152Y-112340600D02*
X145010500Y-115282948D01*
X140600000Y-111400000D02*
X140600000Y-111762900D01*
X145010500Y-115282948D02*
X145010500Y-122969500D01*
X145010500Y-122969500D02*
X144500000Y-123480000D01*
X141177700Y-112340600D02*
X142068152Y-112340600D01*
%TO.N,Net-(U1-GPIO21)*%
X138500000Y-93750000D02*
X139588700Y-93750000D01*
X141000000Y-111400000D02*
X141000000Y-110561200D01*
%TO.N,Net-(U1-GPIO38)*%
X139326300Y-89750000D02*
X138500000Y-89750000D01*
X142000000Y-100240500D02*
X142924700Y-100240500D01*
X141500000Y-102500000D02*
X141627372Y-102500000D01*
X141950000Y-103950000D02*
X141500000Y-103500000D01*
X141500000Y-101500000D02*
X141500000Y-100500000D01*
X141627372Y-102500000D02*
X142000000Y-102127372D01*
X142000000Y-101872628D02*
X141627372Y-101500000D01*
X141740500Y-100500000D02*
X142000000Y-100240500D01*
X141284700Y-89590700D02*
X139485600Y-89590700D01*
X141400000Y-104500000D02*
X141950000Y-103950000D01*
X141500000Y-103500000D02*
X141500000Y-102500000D01*
X143092100Y-91398100D02*
X141284700Y-89590700D01*
X142924700Y-100240500D02*
X143092100Y-100407900D01*
X141627372Y-101500000D02*
X141500000Y-101500000D01*
X141500000Y-100500000D02*
X141740500Y-100500000D01*
X139485600Y-89590700D02*
X139326300Y-89750000D01*
X142000000Y-102127372D02*
X142000000Y-101872628D01*
X143092100Y-100407900D02*
X143092100Y-91398100D01*
%TO.N,Net-(U1-MTCK)*%
X142268600Y-104987700D02*
X142160100Y-104879200D01*
X141634300Y-105115700D02*
X141211300Y-105115700D01*
X142160100Y-104879200D02*
X141870800Y-104879200D01*
X142448600Y-104987700D02*
X142965300Y-104987700D01*
X142448600Y-104987700D02*
X142268600Y-104987700D01*
X141000000Y-104904400D02*
X141000000Y-104500000D01*
X141211300Y-105115700D02*
X141000000Y-104904400D01*
X139485600Y-90409300D02*
X139326300Y-90250000D01*
X141870800Y-104879200D02*
X141634300Y-105115700D01*
X138500000Y-90250000D02*
X139326300Y-90250000D01*
X141340000Y-90409300D02*
X139485600Y-90409300D01*
%TO.N,Net-(U1-MTDO)*%
X138500000Y-90750000D02*
X139326300Y-90750000D01*
X140600000Y-104500000D02*
X140600000Y-105320900D01*
X139485600Y-90909300D02*
X140382400Y-90909300D01*
X139326300Y-90750000D02*
X139485600Y-90909300D01*
X140600000Y-105320900D02*
X140611100Y-105332000D01*
%TO.N,Net-(U1-MTDI)*%
X138500000Y-91250000D02*
X139342200Y-91250000D01*
X139800000Y-104500000D02*
X139800000Y-104046500D01*
X139789900Y-103238600D02*
X139789900Y-98609800D01*
X139800000Y-104046500D02*
X139984500Y-103862000D01*
X139984500Y-103862000D02*
X139984500Y-103433200D01*
X140726800Y-92398900D02*
X139577900Y-91250000D01*
X139789900Y-98609800D02*
X140726800Y-97672900D01*
X140726800Y-97672900D02*
X140726800Y-92398900D01*
X139577900Y-91250000D02*
X139342200Y-91250000D01*
X139984500Y-103433200D02*
X139789900Y-103238600D01*
%TO.N,Net-(U1-MTMS)*%
X138500000Y-91750000D02*
X137416000Y-91750000D01*
X139400000Y-104500000D02*
X139400000Y-103750400D01*
X139400000Y-103750400D02*
X139492300Y-103658100D01*
%TO.N,Net-(U1-U0TXD)*%
X139989800Y-92358000D02*
X139450200Y-92358000D01*
X138500000Y-92250000D02*
X139342200Y-92250000D01*
X139000000Y-98703600D02*
X140234600Y-97469000D01*
X139450200Y-92358000D02*
X139342200Y-92250000D01*
X139000000Y-104500000D02*
X139000000Y-98703600D01*
%TO.N,Net-(U1-U0RXD)*%
X139222500Y-92750000D02*
X139342200Y-92750000D01*
X139742400Y-97599600D02*
X138744300Y-98597700D01*
X139742400Y-97265200D02*
X139742400Y-97599600D01*
X138500000Y-92750000D02*
X139222500Y-92750000D01*
X139342200Y-92750000D02*
X140110500Y-93518300D01*
X138744300Y-103831900D02*
X138600000Y-103976200D01*
X138600000Y-103976200D02*
X138600000Y-104500000D01*
X140110500Y-93518300D02*
X140110500Y-96897100D01*
X138744300Y-98597700D02*
X138744300Y-103831900D01*
X140110500Y-96897100D02*
X139742400Y-97265200D01*
%TO.N,Net-(U1-GPIO45)*%
X138200000Y-104500000D02*
X138200000Y-103655900D01*
X138500000Y-93250000D02*
X137417100Y-93250000D01*
%TO.N,Net-(U1-XTAL_N)*%
X140500000Y-102000000D02*
X141192200Y-102000000D01*
X141192200Y-102000000D02*
X141433700Y-102000000D01*
X138039400Y-105494000D02*
X139244400Y-105494000D01*
X143000000Y-103000000D02*
X142500000Y-102500000D01*
X137400000Y-104854600D02*
X138039400Y-105494000D01*
X142500000Y-101000000D02*
X142474800Y-101000000D01*
X137400000Y-104500000D02*
X137400000Y-104854600D01*
X142500000Y-102500000D02*
X142500000Y-101000000D01*
%TO.N,Net-(U1-XTAL_P)*%
X136827800Y-102480000D02*
X137307800Y-102000000D01*
X136500000Y-102480000D02*
X137000000Y-102980000D01*
X137000000Y-102980000D02*
X137000000Y-104500000D01*
X136500000Y-102480000D02*
X136827800Y-102480000D01*
X138000000Y-102000000D02*
X137307800Y-102000000D01*
%TO.N,Net-(J7-Pin_1)*%
X140939300Y-113660700D02*
X142339300Y-113660700D01*
X143200000Y-114500000D02*
X143200000Y-114200000D01*
X142500000Y-113500000D02*
X142807986Y-113807986D01*
X142339300Y-113660700D02*
X142500000Y-113500000D01*
X140200000Y-114400000D02*
X140939300Y-113660700D01*
X143200000Y-114200000D02*
X142807986Y-113807986D01*
%TO.N,Net-(M1-OUT)*%
X134500000Y-84000000D02*
X134500000Y-85797300D01*
X134500000Y-84000000D02*
X134500000Y-82625000D01*
%TO.N,Net-(U5-IN+)*%
X135128500Y-126816000D02*
X135862500Y-127550000D01*
%TO.N,Net-(U5-IN-)*%
X143989500Y-120990500D02*
X143989500Y-122361500D01*
X137137200Y-128041300D02*
X136678500Y-128500000D01*
X143989500Y-122361500D02*
X141420500Y-124930500D01*
X144500000Y-120480000D02*
X143989500Y-120990500D01*
X141420500Y-124930500D02*
X141990000Y-125500000D01*
X136678500Y-128500000D02*
X135862500Y-128500000D01*
%TO.N,Net-(J5-Pin_1)*%
X139031300Y-115700000D02*
X140000000Y-115700000D01*
X138926400Y-115595100D02*
X139031300Y-115700000D01*
X138980000Y-122000000D02*
X138980000Y-121248300D01*
%TO.N,Net-(J5-Pin_2)*%
X141648800Y-114151200D02*
X141771100Y-114151200D01*
X140571100Y-121428900D02*
X140000000Y-122000000D01*
X141000000Y-114800000D02*
X141648800Y-114151200D01*
%TD*%
%TA.AperFunction,Conductor*%
%TO.N,GND*%
G36*
X132705203Y-112971565D02*
G01*
X132711681Y-112977597D01*
X132786481Y-113052397D01*
X132819966Y-113113720D01*
X132822800Y-113140078D01*
X132822800Y-113170446D01*
X132853561Y-113325089D01*
X132853564Y-113325101D01*
X132913902Y-113470772D01*
X132913909Y-113470785D01*
X133001510Y-113601888D01*
X133001513Y-113601892D01*
X133113007Y-113713386D01*
X133113011Y-113713389D01*
X133244114Y-113800990D01*
X133244127Y-113800997D01*
X133389798Y-113861335D01*
X133389803Y-113861337D01*
X133544453Y-113892099D01*
X133544456Y-113892100D01*
X133544458Y-113892100D01*
X133702144Y-113892100D01*
X133702145Y-113892099D01*
X133856797Y-113861337D01*
X134002479Y-113800994D01*
X134133589Y-113713389D01*
X134245089Y-113601889D01*
X134332694Y-113470779D01*
X134337832Y-113458376D01*
X134393035Y-113325101D01*
X134393037Y-113325097D01*
X134409356Y-113243056D01*
X134441739Y-113181149D01*
X134502454Y-113146574D01*
X134572224Y-113150313D01*
X134618653Y-113179569D01*
X135491581Y-114052497D01*
X135525066Y-114113820D01*
X135527900Y-114140178D01*
X135527900Y-115575500D01*
X135508215Y-115642539D01*
X135455411Y-115688294D01*
X135403900Y-115699500D01*
X134752129Y-115699500D01*
X134752123Y-115699501D01*
X134692516Y-115705908D01*
X134557671Y-115756202D01*
X134557664Y-115756206D01*
X134442455Y-115842452D01*
X134442452Y-115842455D01*
X134356206Y-115957664D01*
X134356202Y-115957671D01*
X134305910Y-116092513D01*
X134305909Y-116092517D01*
X134299500Y-116152127D01*
X134299500Y-116152134D01*
X134299500Y-116152135D01*
X134299500Y-116567870D01*
X134299501Y-116567876D01*
X134305908Y-116627483D01*
X134309334Y-116636667D01*
X134314318Y-116706359D01*
X134309335Y-116723329D01*
X134305910Y-116732510D01*
X134305908Y-116732520D01*
X134303872Y-116751462D01*
X134299501Y-116792123D01*
X134299500Y-116792136D01*
X134299500Y-117207870D01*
X134299501Y-117207876D01*
X134305908Y-117267483D01*
X134309334Y-117276667D01*
X134314318Y-117346359D01*
X134309335Y-117363329D01*
X134305910Y-117372510D01*
X134305908Y-117372520D01*
X134301837Y-117410388D01*
X134299501Y-117432123D01*
X134299500Y-117432136D01*
X134299500Y-118007870D01*
X134299501Y-118007876D01*
X134305908Y-118067483D01*
X134356202Y-118202328D01*
X134356206Y-118202335D01*
X134442452Y-118317544D01*
X134442455Y-118317547D01*
X134557664Y-118403793D01*
X134557671Y-118403797D01*
X134692517Y-118454091D01*
X134692516Y-118454091D01*
X134699444Y-118454835D01*
X134752127Y-118460500D01*
X135585225Y-118460499D01*
X135652264Y-118480183D01*
X135698019Y-118532987D01*
X135707963Y-118602146D01*
X135705860Y-118611609D01*
X135705951Y-118611628D01*
X135674000Y-118772253D01*
X135674000Y-118929946D01*
X135704761Y-119084589D01*
X135704764Y-119084601D01*
X135765102Y-119230272D01*
X135765109Y-119230285D01*
X135852710Y-119361388D01*
X135852713Y-119361392D01*
X135941355Y-119450034D01*
X135974840Y-119511357D01*
X135969856Y-119581049D01*
X135959775Y-119599515D01*
X135960454Y-119599886D01*
X135956202Y-119607671D01*
X135905910Y-119742513D01*
X135905909Y-119742517D01*
X135899500Y-119802127D01*
X135899500Y-119802134D01*
X135899500Y-119802135D01*
X135899500Y-120197869D01*
X135899501Y-120197878D01*
X135903679Y-120236745D01*
X135903679Y-120263250D01*
X135899500Y-120302122D01*
X135899500Y-120350998D01*
X135879815Y-120418037D01*
X135827011Y-120463792D01*
X135757853Y-120473736D01*
X135701189Y-120450265D01*
X135642331Y-120406204D01*
X135642328Y-120406202D01*
X135507482Y-120355908D01*
X135507483Y-120355908D01*
X135447883Y-120349501D01*
X135447881Y-120349500D01*
X135447873Y-120349500D01*
X135447865Y-120349500D01*
X135004492Y-120349500D01*
X134937453Y-120329815D01*
X134891698Y-120277011D01*
X134889949Y-120272995D01*
X134868794Y-120221921D01*
X134852723Y-120197869D01*
X134781189Y-120090810D01*
X134669692Y-119979313D01*
X134669688Y-119979310D01*
X134538585Y-119891709D01*
X134538572Y-119891702D01*
X134392901Y-119831364D01*
X134392889Y-119831361D01*
X134238245Y-119800600D01*
X134238242Y-119800600D01*
X134080558Y-119800600D01*
X134080555Y-119800600D01*
X133925910Y-119831361D01*
X133925898Y-119831364D01*
X133780227Y-119891702D01*
X133780214Y-119891709D01*
X133649111Y-119979310D01*
X133649107Y-119979313D01*
X133537613Y-120090807D01*
X133537610Y-120090811D01*
X133450009Y-120221914D01*
X133450002Y-120221927D01*
X133389664Y-120367598D01*
X133389661Y-120367610D01*
X133358900Y-120522253D01*
X133358900Y-120679946D01*
X133389661Y-120834589D01*
X133389664Y-120834601D01*
X133429515Y-120930811D01*
X133436984Y-121000281D01*
X133429516Y-121025714D01*
X133395762Y-121107206D01*
X133395760Y-121107211D01*
X133365000Y-121261853D01*
X133365000Y-121419546D01*
X133395761Y-121574189D01*
X133395764Y-121574201D01*
X133448877Y-121702427D01*
X133456346Y-121771896D01*
X133448877Y-121797331D01*
X133395664Y-121925798D01*
X133395661Y-121925810D01*
X133364900Y-122080453D01*
X133364900Y-122238146D01*
X133395661Y-122392789D01*
X133395664Y-122392801D01*
X133456002Y-122538472D01*
X133456009Y-122538485D01*
X133543610Y-122669588D01*
X133543613Y-122669592D01*
X133655107Y-122781086D01*
X133655111Y-122781089D01*
X133786214Y-122868690D01*
X133786227Y-122868697D01*
X133931898Y-122929035D01*
X133931903Y-122929037D01*
X133982161Y-122939034D01*
X133999691Y-122942521D01*
X134061602Y-122974905D01*
X134096176Y-123035621D01*
X134099500Y-123064137D01*
X134099500Y-123197868D01*
X134099501Y-123197878D01*
X134103679Y-123236745D01*
X134103679Y-123263250D01*
X134099500Y-123302122D01*
X134099500Y-123697870D01*
X134099501Y-123697876D01*
X134105908Y-123757483D01*
X134156202Y-123892328D01*
X134156206Y-123892335D01*
X134242452Y-124007544D01*
X134242455Y-124007547D01*
X134357664Y-124093793D01*
X134357671Y-124093797D01*
X134492517Y-124144091D01*
X134492516Y-124144091D01*
X134499444Y-124144835D01*
X134552127Y-124150500D01*
X135447872Y-124150499D01*
X135507483Y-124144091D01*
X135642331Y-124093796D01*
X135757546Y-124007546D01*
X135800734Y-123949854D01*
X135856667Y-123907984D01*
X135926359Y-123903000D01*
X135987682Y-123936485D01*
X135999263Y-123949850D01*
X136042454Y-124007546D01*
X136088643Y-124042123D01*
X136157664Y-124093793D01*
X136157671Y-124093797D01*
X136292517Y-124144091D01*
X136292516Y-124144091D01*
X136299444Y-124144835D01*
X136352127Y-124150500D01*
X137247872Y-124150499D01*
X137307483Y-124144091D01*
X137442331Y-124093796D01*
X137557546Y-124007546D01*
X137643796Y-123892331D01*
X137694091Y-123757483D01*
X137700500Y-123697873D01*
X137700499Y-123302128D01*
X137700499Y-123302127D01*
X137700498Y-123302111D01*
X137696320Y-123263253D01*
X137696320Y-123236745D01*
X137700500Y-123197873D01*
X137700499Y-122802128D01*
X137700498Y-122802111D01*
X137696320Y-122763253D01*
X137696320Y-122736747D01*
X137700500Y-122697873D01*
X137700499Y-122302128D01*
X137700499Y-122302127D01*
X137700498Y-122302111D01*
X137696320Y-122263253D01*
X137696320Y-122236747D01*
X137700500Y-122197873D01*
X137700499Y-121802128D01*
X137700498Y-121802111D01*
X137696320Y-121763253D01*
X137696320Y-121736747D01*
X137700500Y-121697873D01*
X137700499Y-121302128D01*
X137700498Y-121302111D01*
X137696320Y-121263253D01*
X137695806Y-121243007D01*
X137695981Y-121239892D01*
X137700500Y-121197873D01*
X137700500Y-121169453D01*
X138179500Y-121169453D01*
X138179500Y-121327146D01*
X138210261Y-121481789D01*
X138210264Y-121481801D01*
X138270602Y-121627472D01*
X138270609Y-121627485D01*
X138358209Y-121758587D01*
X138358210Y-121758588D01*
X138358211Y-121758589D01*
X138379681Y-121780059D01*
X138413166Y-121841380D01*
X138416000Y-121867740D01*
X138416000Y-122074252D01*
X138449329Y-122198637D01*
X138454435Y-122217695D01*
X138454436Y-122217698D01*
X138466242Y-122238146D01*
X138528687Y-122346304D01*
X138633696Y-122451313D01*
X138762304Y-122525565D01*
X138905748Y-122564000D01*
X138905750Y-122564000D01*
X139054250Y-122564000D01*
X139054252Y-122564000D01*
X139197696Y-122525565D01*
X139326304Y-122451313D01*
X139402322Y-122375294D01*
X139463641Y-122341812D01*
X139533333Y-122346796D01*
X139577681Y-122375297D01*
X139653696Y-122451312D01*
X139782304Y-122525565D01*
X139925747Y-122564000D01*
X139925749Y-122564000D01*
X140074251Y-122564000D01*
X140074253Y-122564000D01*
X140217696Y-122525565D01*
X140346304Y-122451312D01*
X140531897Y-122265719D01*
X140593220Y-122232234D01*
X140619578Y-122229400D01*
X140649944Y-122229400D01*
X140649945Y-122229399D01*
X140804597Y-122198637D01*
X140950279Y-122138294D01*
X141081389Y-122050689D01*
X141192889Y-121939189D01*
X141280494Y-121808079D01*
X141292075Y-121780121D01*
X141340835Y-121662401D01*
X141340837Y-121662397D01*
X141371600Y-121507742D01*
X141371600Y-121350058D01*
X141371600Y-121350055D01*
X141371599Y-121350053D01*
X141340838Y-121195410D01*
X141340837Y-121195403D01*
X141304304Y-121107203D01*
X141280497Y-121049727D01*
X141280490Y-121049714D01*
X141192889Y-120918611D01*
X141192886Y-120918607D01*
X141081392Y-120807113D01*
X141081388Y-120807110D01*
X140950285Y-120719509D01*
X140950272Y-120719502D01*
X140804601Y-120659164D01*
X140804589Y-120659161D01*
X140649945Y-120628400D01*
X140649942Y-120628400D01*
X140492258Y-120628400D01*
X140492255Y-120628400D01*
X140337610Y-120659161D01*
X140337598Y-120659164D01*
X140191927Y-120719502D01*
X140191914Y-120719509D01*
X140060811Y-120807110D01*
X140060807Y-120807113D01*
X139949311Y-120918609D01*
X139930398Y-120946915D01*
X139876785Y-120991719D01*
X139807460Y-121000425D01*
X139744433Y-120970269D01*
X139712737Y-120925477D01*
X139689394Y-120869121D01*
X139689392Y-120869118D01*
X139689390Y-120869114D01*
X139601789Y-120738011D01*
X139601786Y-120738007D01*
X139490292Y-120626513D01*
X139490288Y-120626510D01*
X139359185Y-120538909D01*
X139359172Y-120538902D01*
X139213501Y-120478564D01*
X139213489Y-120478561D01*
X139058845Y-120447800D01*
X139058842Y-120447800D01*
X138901158Y-120447800D01*
X138901155Y-120447800D01*
X138746510Y-120478561D01*
X138746498Y-120478564D01*
X138600827Y-120538902D01*
X138600814Y-120538909D01*
X138469711Y-120626510D01*
X138469707Y-120626513D01*
X138358213Y-120738007D01*
X138358210Y-120738011D01*
X138270609Y-120869114D01*
X138270602Y-120869127D01*
X138210264Y-121014798D01*
X138210261Y-121014810D01*
X138179500Y-121169453D01*
X137700500Y-121169453D01*
X137700499Y-120802128D01*
X137700498Y-120802111D01*
X137696320Y-120763253D01*
X137696320Y-120736747D01*
X137700500Y-120697873D01*
X137700499Y-120302128D01*
X137700499Y-120302127D01*
X137700498Y-120302111D01*
X137696320Y-120263253D01*
X137696320Y-120236745D01*
X137700500Y-120197873D01*
X137700499Y-119802128D01*
X137694091Y-119742517D01*
X137684833Y-119717696D01*
X137643797Y-119607671D01*
X137639546Y-119599886D01*
X137642459Y-119598294D01*
X137623679Y-119547970D01*
X137638517Y-119479694D01*
X137687913Y-119430279D01*
X137747361Y-119415100D01*
X139223151Y-119415100D01*
X139223153Y-119415100D01*
X139366596Y-119376665D01*
X139495204Y-119302413D01*
X139600213Y-119197404D01*
X139600213Y-119197402D01*
X139610417Y-119187199D01*
X139610420Y-119187194D01*
X140297297Y-118500319D01*
X140358620Y-118466834D01*
X140384978Y-118464000D01*
X141929021Y-118464000D01*
X141996060Y-118483685D01*
X142041815Y-118536489D01*
X142051759Y-118605647D01*
X142022734Y-118669203D01*
X142016702Y-118675681D01*
X141538690Y-119153693D01*
X141538688Y-119153696D01*
X141464435Y-119282303D01*
X141443245Y-119361388D01*
X141426000Y-119425747D01*
X141426000Y-119574253D01*
X141464435Y-119717696D01*
X141538688Y-119846304D01*
X141643696Y-119951312D01*
X141772304Y-120025565D01*
X141915747Y-120064000D01*
X141915749Y-120064000D01*
X142064251Y-120064000D01*
X142064253Y-120064000D01*
X142207696Y-120025565D01*
X142336304Y-119951312D01*
X142412318Y-119875297D01*
X142473639Y-119841812D01*
X142543331Y-119846796D01*
X142587680Y-119875297D01*
X142663696Y-119951313D01*
X142792304Y-120025565D01*
X142935748Y-120064000D01*
X142935750Y-120064000D01*
X143174651Y-120064000D01*
X143174653Y-120064000D01*
X143318096Y-120025565D01*
X143319707Y-120024635D01*
X143446704Y-119951313D01*
X143551713Y-119846304D01*
X143551713Y-119846302D01*
X143561917Y-119836099D01*
X143561920Y-119836094D01*
X144234820Y-119163195D01*
X144296142Y-119129711D01*
X144365834Y-119134695D01*
X144421767Y-119176567D01*
X144446184Y-119242031D01*
X144446500Y-119250877D01*
X144446500Y-119585500D01*
X144426815Y-119652539D01*
X144374011Y-119698294D01*
X144322502Y-119709500D01*
X144250831Y-119709500D01*
X144250807Y-119709501D01*
X144214794Y-119712335D01*
X144060611Y-119757129D01*
X144060606Y-119757131D01*
X143922404Y-119838863D01*
X143922396Y-119838869D01*
X143808869Y-119952396D01*
X143808863Y-119952404D01*
X143727131Y-120090606D01*
X143727129Y-120090611D01*
X143682335Y-120244791D01*
X143682334Y-120244797D01*
X143679500Y-120280811D01*
X143679500Y-120326323D01*
X143659815Y-120393362D01*
X143607011Y-120439117D01*
X143537853Y-120449061D01*
X143508048Y-120440885D01*
X143488226Y-120432674D01*
X143389697Y-120391863D01*
X143389692Y-120391862D01*
X143389689Y-120391861D01*
X143235045Y-120361100D01*
X143235042Y-120361100D01*
X143077358Y-120361100D01*
X143077355Y-120361100D01*
X142922710Y-120391861D01*
X142922698Y-120391864D01*
X142777027Y-120452202D01*
X142777014Y-120452209D01*
X142645911Y-120539810D01*
X142645907Y-120539813D01*
X142534413Y-120651307D01*
X142534410Y-120651311D01*
X142446809Y-120782414D01*
X142446802Y-120782427D01*
X142386464Y-120928098D01*
X142386461Y-120928110D01*
X142355700Y-121082753D01*
X142355700Y-121082758D01*
X142355700Y-121240442D01*
X142366472Y-121294597D01*
X142374331Y-121334108D01*
X142368103Y-121403699D01*
X142359446Y-121421418D01*
X142277130Y-121560608D01*
X142277129Y-121560611D01*
X142232335Y-121714791D01*
X142232334Y-121714797D01*
X142229500Y-121750811D01*
X142229500Y-122249169D01*
X142229501Y-122249191D01*
X142232335Y-122285205D01*
X142277129Y-122439388D01*
X142277131Y-122439393D01*
X142358863Y-122577595D01*
X142358869Y-122577603D01*
X142472396Y-122691130D01*
X142472400Y-122691133D01*
X142472402Y-122691135D01*
X142579774Y-122754635D01*
X142627457Y-122805703D01*
X142639961Y-122874444D01*
X142613316Y-122939034D01*
X142604334Y-122949047D01*
X141459703Y-124093681D01*
X141398380Y-124127166D01*
X141372022Y-124130000D01*
X141341655Y-124130000D01*
X141187010Y-124160761D01*
X141186998Y-124160764D01*
X141041327Y-124221102D01*
X141041314Y-124221109D01*
X140910211Y-124308710D01*
X140910207Y-124308713D01*
X140798713Y-124420207D01*
X140798710Y-124420211D01*
X140711109Y-124551314D01*
X140711102Y-124551327D01*
X140650764Y-124696998D01*
X140650761Y-124697010D01*
X140620000Y-124851653D01*
X140620000Y-125009346D01*
X140650761Y-125163989D01*
X140650764Y-125164001D01*
X140711102Y-125309672D01*
X140711109Y-125309685D01*
X140798710Y-125440788D01*
X140798713Y-125440792D01*
X140910207Y-125552286D01*
X140910211Y-125552289D01*
X141041314Y-125639890D01*
X141041321Y-125639894D01*
X141146410Y-125683423D01*
X141200812Y-125727262D01*
X141219381Y-125779300D01*
X141221196Y-125778969D01*
X141222334Y-125785202D01*
X141267129Y-125939388D01*
X141267131Y-125939393D01*
X141348863Y-126077595D01*
X141348869Y-126077603D01*
X141462396Y-126191130D01*
X141462400Y-126191133D01*
X141462402Y-126191135D01*
X141600607Y-126272869D01*
X141641268Y-126284682D01*
X141754791Y-126317664D01*
X141754794Y-126317664D01*
X141754796Y-126317665D01*
X141790819Y-126320500D01*
X142189180Y-126320499D01*
X142225204Y-126317665D01*
X142379393Y-126272869D01*
X142517598Y-126191135D01*
X142631135Y-126077598D01*
X142712869Y-125939393D01*
X142757665Y-125785204D01*
X142760500Y-125749181D01*
X142760499Y-125250820D01*
X142757665Y-125214796D01*
X142712869Y-125060607D01*
X142631135Y-124922402D01*
X142631133Y-124922400D01*
X142631130Y-124922396D01*
X142516355Y-124807621D01*
X142482870Y-124746298D01*
X142487854Y-124676606D01*
X142516353Y-124632262D01*
X143478037Y-123670577D01*
X143539359Y-123637094D01*
X143609051Y-123642078D01*
X143664984Y-123683950D01*
X143684793Y-123723665D01*
X143727129Y-123869388D01*
X143727132Y-123869395D01*
X143761128Y-123926881D01*
X143778309Y-123994605D01*
X143761128Y-124053119D01*
X143727132Y-124110604D01*
X143727129Y-124110611D01*
X143682335Y-124264791D01*
X143682334Y-124264797D01*
X143679500Y-124300811D01*
X143679500Y-124699169D01*
X143679501Y-124699191D01*
X143682335Y-124735205D01*
X143727129Y-124889388D01*
X143727131Y-124889393D01*
X143808863Y-125027595D01*
X143808869Y-125027603D01*
X143899681Y-125118415D01*
X143933166Y-125179738D01*
X143936000Y-125206096D01*
X143936000Y-126675500D01*
X143916315Y-126742539D01*
X143863511Y-126788294D01*
X143812000Y-126799500D01*
X142921798Y-126799500D01*
X142884932Y-126802401D01*
X142884926Y-126802402D01*
X142727106Y-126848254D01*
X142727103Y-126848255D01*
X142585637Y-126931917D01*
X142585629Y-126931923D01*
X142469423Y-127048129D01*
X142469414Y-127048140D01*
X142469229Y-127048455D01*
X142469019Y-127048650D01*
X142464639Y-127054298D01*
X142463727Y-127053591D01*
X142418157Y-127096136D01*
X142349415Y-127108637D01*
X142284827Y-127081988D01*
X142260643Y-127054078D01*
X142260361Y-127054298D01*
X142256323Y-127049092D01*
X142255771Y-127048455D01*
X142255585Y-127048140D01*
X142255576Y-127048129D01*
X142139370Y-126931923D01*
X142139362Y-126931917D01*
X141997896Y-126848255D01*
X141997893Y-126848254D01*
X141840073Y-126802402D01*
X141840067Y-126802401D01*
X141803201Y-126799500D01*
X141803194Y-126799500D01*
X140646806Y-126799500D01*
X140646798Y-126799500D01*
X140609932Y-126802401D01*
X140609926Y-126802402D01*
X140452106Y-126848254D01*
X140452103Y-126848255D01*
X140310637Y-126931917D01*
X140310629Y-126931923D01*
X140194423Y-127048129D01*
X140194417Y-127048137D01*
X140110755Y-127189603D01*
X140110754Y-127189606D01*
X140064902Y-127347426D01*
X140064901Y-127347432D01*
X140062000Y-127384298D01*
X140062000Y-127815701D01*
X140064901Y-127852567D01*
X140064902Y-127852573D01*
X140110754Y-128010393D01*
X140110755Y-128010396D01*
X140194417Y-128151862D01*
X140194423Y-128151870D01*
X140310629Y-128268076D01*
X140310633Y-128268079D01*
X140310635Y-128268081D01*
X140452102Y-128351744D01*
X140493724Y-128363836D01*
X140609926Y-128397597D01*
X140609929Y-128397597D01*
X140609931Y-128397598D01*
X140646806Y-128400500D01*
X141376722Y-128400500D01*
X141443761Y-128420185D01*
X141464403Y-128436819D01*
X142039281Y-129011697D01*
X142072766Y-129073020D01*
X142075600Y-129099378D01*
X142075600Y-129405559D01*
X142055915Y-129472598D01*
X142039281Y-129493240D01*
X141969313Y-129563207D01*
X141969310Y-129563211D01*
X141881709Y-129694314D01*
X141881702Y-129694327D01*
X141821364Y-129839998D01*
X141821361Y-129840010D01*
X141790600Y-129994653D01*
X141790600Y-130152346D01*
X141821361Y-130306989D01*
X141821364Y-130307001D01*
X141881702Y-130452672D01*
X141881709Y-130452685D01*
X141969310Y-130583788D01*
X141969313Y-130583792D01*
X142080807Y-130695286D01*
X142080811Y-130695289D01*
X142211914Y-130782890D01*
X142211927Y-130782897D01*
X142357598Y-130843235D01*
X142357603Y-130843237D01*
X142512253Y-130873999D01*
X142512256Y-130874000D01*
X142512258Y-130874000D01*
X142669944Y-130874000D01*
X142669945Y-130873999D01*
X142824597Y-130843237D01*
X142970279Y-130782894D01*
X143101389Y-130695289D01*
X143212889Y-130583789D01*
X143300494Y-130452679D01*
X143331822Y-130377047D01*
X143375663Y-130322644D01*
X143441957Y-130300579D01*
X143446383Y-130300500D01*
X143812000Y-130300500D01*
X143879039Y-130320185D01*
X143924794Y-130372989D01*
X143936000Y-130424500D01*
X143936000Y-131061535D01*
X143916315Y-131128574D01*
X143899681Y-131149216D01*
X143464590Y-131584306D01*
X143403267Y-131617791D01*
X143333575Y-131612807D01*
X143289228Y-131584306D01*
X143217785Y-131512863D01*
X143217781Y-131512860D01*
X143053920Y-131403371D01*
X143053907Y-131403364D01*
X142871839Y-131327950D01*
X142871829Y-131327947D01*
X142678543Y-131289500D01*
X142678541Y-131289500D01*
X141681459Y-131289500D01*
X141681457Y-131289500D01*
X141488170Y-131327947D01*
X141488160Y-131327950D01*
X141306092Y-131403364D01*
X141306079Y-131403371D01*
X141142218Y-131512860D01*
X141142214Y-131512863D01*
X141002863Y-131652214D01*
X141002860Y-131652218D01*
X140893371Y-131816079D01*
X140893364Y-131816092D01*
X140817950Y-131998160D01*
X140817947Y-131998170D01*
X140779500Y-132191456D01*
X140779500Y-132191459D01*
X140779500Y-132388541D01*
X140779500Y-132388543D01*
X140779499Y-132388543D01*
X140817947Y-132581829D01*
X140817950Y-132581839D01*
X140893364Y-132763907D01*
X140893371Y-132763920D01*
X141002860Y-132927781D01*
X141002863Y-132927785D01*
X141142214Y-133067136D01*
X141142218Y-133067139D01*
X141306079Y-133176628D01*
X141306092Y-133176635D01*
X141450737Y-133236548D01*
X141488165Y-133252051D01*
X141518103Y-133258006D01*
X141580013Y-133290389D01*
X141614588Y-133351105D01*
X141610849Y-133420874D01*
X141581593Y-133467304D01*
X138927717Y-136121181D01*
X138866394Y-136154666D01*
X138840036Y-136157500D01*
X138617568Y-136157500D01*
X138550529Y-136137815D01*
X138504774Y-136085011D01*
X138494629Y-136017314D01*
X138498030Y-135991485D01*
X138500500Y-135972720D01*
X138500500Y-135747280D01*
X138485687Y-135634764D01*
X138485686Y-135634763D01*
X138484626Y-135626705D01*
X138487689Y-135626301D01*
X138487689Y-135593698D01*
X138484626Y-135593295D01*
X138485687Y-135585236D01*
X138500500Y-135472720D01*
X138500500Y-135247280D01*
X138485687Y-135134764D01*
X138485686Y-135134763D01*
X138484626Y-135126705D01*
X138487689Y-135126301D01*
X138487689Y-135093698D01*
X138484626Y-135093295D01*
X138489023Y-135059898D01*
X138500500Y-134972720D01*
X138500500Y-134747280D01*
X138485687Y-134634764D01*
X138479948Y-134620910D01*
X138472477Y-134551445D01*
X138475427Y-134538876D01*
X138497598Y-134462569D01*
X138500500Y-134425694D01*
X138500500Y-134307288D01*
X138520185Y-134240249D01*
X138572989Y-134194494D01*
X138592399Y-134187515D01*
X138683536Y-134163095D01*
X138791964Y-134100495D01*
X138880495Y-134011964D01*
X138943095Y-133903536D01*
X138975500Y-133782601D01*
X138975500Y-133657399D01*
X138943095Y-133536464D01*
X138880495Y-133428036D01*
X138875955Y-133423496D01*
X138842470Y-133362173D01*
X138847454Y-133292481D01*
X138889326Y-133236548D01*
X138916175Y-133221258D01*
X139023914Y-133176632D01*
X139187782Y-133067139D01*
X139327139Y-132927782D01*
X139436632Y-132763914D01*
X139512051Y-132581835D01*
X139550500Y-132388541D01*
X139550500Y-132191459D01*
X139550500Y-132191456D01*
X139512052Y-131998170D01*
X139512051Y-131998169D01*
X139512051Y-131998165D01*
X139512049Y-131998160D01*
X139436635Y-131816092D01*
X139436628Y-131816079D01*
X139327139Y-131652218D01*
X139327136Y-131652214D01*
X139187785Y-131512863D01*
X139187781Y-131512860D01*
X139023920Y-131403371D01*
X139023907Y-131403364D01*
X138841839Y-131327950D01*
X138841829Y-131327947D01*
X138648543Y-131289500D01*
X138648541Y-131289500D01*
X137351459Y-131289500D01*
X137351457Y-131289500D01*
X137158170Y-131327947D01*
X137158160Y-131327950D01*
X136976092Y-131403364D01*
X136976079Y-131403371D01*
X136812218Y-131512860D01*
X136812214Y-131512863D01*
X136672863Y-131652214D01*
X136672860Y-131652218D01*
X136563371Y-131816079D01*
X136563364Y-131816092D01*
X136487950Y-131998160D01*
X136487947Y-131998170D01*
X136449500Y-132191456D01*
X136449500Y-132191459D01*
X136449500Y-132388541D01*
X136449500Y-132388543D01*
X136449499Y-132388543D01*
X136487947Y-132581829D01*
X136487950Y-132581839D01*
X136563364Y-132763907D01*
X136563371Y-132763920D01*
X136672860Y-132927781D01*
X136672863Y-132927785D01*
X136812214Y-133067136D01*
X136812218Y-133067139D01*
X136976087Y-133176633D01*
X136976799Y-133177014D01*
X136977101Y-133177311D01*
X136981151Y-133180017D01*
X136980637Y-133180784D01*
X137026643Y-133225976D01*
X137042104Y-133294113D01*
X137018273Y-133359793D01*
X136962715Y-133402162D01*
X136928076Y-133409990D01*
X136897431Y-133412401D01*
X136897426Y-133412402D01*
X136739606Y-133458254D01*
X136739603Y-133458255D01*
X136598137Y-133541917D01*
X136598129Y-133541923D01*
X136481923Y-133658129D01*
X136481917Y-133658137D01*
X136398255Y-133799603D01*
X136398254Y-133799604D01*
X136374294Y-133882076D01*
X136336687Y-133940961D01*
X136287311Y-133967255D01*
X136189604Y-133993435D01*
X136189601Y-133993436D01*
X136060999Y-134067685D01*
X136060993Y-134067689D01*
X135955989Y-134172693D01*
X135955985Y-134172699D01*
X135881736Y-134301301D01*
X135881735Y-134301304D01*
X135843300Y-134444748D01*
X135843300Y-134992859D01*
X135823615Y-135059898D01*
X135806981Y-135080540D01*
X135785513Y-135102007D01*
X135785510Y-135102011D01*
X135697909Y-135233114D01*
X135697902Y-135233127D01*
X135637564Y-135378798D01*
X135637561Y-135378810D01*
X135606800Y-135533453D01*
X135606800Y-135691146D01*
X135637561Y-135845789D01*
X135637564Y-135845801D01*
X135697902Y-135991472D01*
X135697909Y-135991485D01*
X135785509Y-136122587D01*
X135785510Y-136122588D01*
X135785511Y-136122589D01*
X135806981Y-136144059D01*
X135840466Y-136205380D01*
X135843300Y-136231740D01*
X135843300Y-138626747D01*
X135843300Y-138626748D01*
X135843300Y-138775252D01*
X135881735Y-138918696D01*
X135955987Y-139047304D01*
X136060996Y-139152313D01*
X136189604Y-139226565D01*
X136287312Y-139252745D01*
X136346971Y-139289108D01*
X136374294Y-139337924D01*
X136398253Y-139420393D01*
X136398255Y-139420396D01*
X136481917Y-139561862D01*
X136481923Y-139561870D01*
X136598129Y-139678076D01*
X136598133Y-139678079D01*
X136598135Y-139678081D01*
X136739602Y-139761744D01*
X136781224Y-139773836D01*
X136897426Y-139807597D01*
X136897429Y-139807597D01*
X136897431Y-139807598D01*
X136928073Y-139810009D01*
X136993361Y-139834891D01*
X137034833Y-139891122D01*
X137039322Y-139960847D01*
X137005401Y-140021930D01*
X136981061Y-140039849D01*
X136981151Y-140039983D01*
X136978229Y-140041934D01*
X136976813Y-140042978D01*
X136976090Y-140043364D01*
X136812218Y-140152860D01*
X136812214Y-140152863D01*
X136672863Y-140292214D01*
X136672860Y-140292218D01*
X136563371Y-140456079D01*
X136563364Y-140456092D01*
X136487950Y-140638160D01*
X136487947Y-140638170D01*
X136449500Y-140831456D01*
X136449500Y-140831459D01*
X136449500Y-141028541D01*
X136449500Y-141028543D01*
X136449499Y-141028543D01*
X136487947Y-141221829D01*
X136487950Y-141221839D01*
X136563364Y-141403907D01*
X136563371Y-141403920D01*
X136672860Y-141567781D01*
X136672863Y-141567785D01*
X136812214Y-141707136D01*
X136812218Y-141707139D01*
X136976079Y-141816628D01*
X136976092Y-141816635D01*
X137158160Y-141892049D01*
X137158165Y-141892051D01*
X137158169Y-141892051D01*
X137158170Y-141892052D01*
X137351456Y-141930500D01*
X137351459Y-141930500D01*
X138648543Y-141930500D01*
X138778582Y-141904632D01*
X138841835Y-141892051D01*
X139023914Y-141816632D01*
X139187782Y-141707139D01*
X139327139Y-141567782D01*
X139436632Y-141403914D01*
X139512051Y-141221835D01*
X139550500Y-141028543D01*
X140779499Y-141028543D01*
X140817947Y-141221829D01*
X140817950Y-141221839D01*
X140893364Y-141403907D01*
X140893371Y-141403920D01*
X141002860Y-141567781D01*
X141002863Y-141567785D01*
X141142214Y-141707136D01*
X141142218Y-141707139D01*
X141306079Y-141816628D01*
X141306092Y-141816635D01*
X141488160Y-141892049D01*
X141488165Y-141892051D01*
X141488169Y-141892051D01*
X141488170Y-141892052D01*
X141681456Y-141930500D01*
X141681459Y-141930500D01*
X142678543Y-141930500D01*
X142808582Y-141904632D01*
X142871835Y-141892051D01*
X143053914Y-141816632D01*
X143217782Y-141707139D01*
X143357139Y-141567782D01*
X143466632Y-141403914D01*
X143542051Y-141221835D01*
X143580500Y-141028541D01*
X143580500Y-140831459D01*
X143580500Y-140831456D01*
X143542052Y-140638170D01*
X143542051Y-140638169D01*
X143542051Y-140638165D01*
X143542049Y-140638160D01*
X143466635Y-140456092D01*
X143466628Y-140456079D01*
X143357139Y-140292218D01*
X143357136Y-140292214D01*
X143217785Y-140152863D01*
X143217781Y-140152860D01*
X143053920Y-140043371D01*
X143053907Y-140043364D01*
X142871839Y-139967950D01*
X142871829Y-139967947D01*
X142678543Y-139929500D01*
X142678541Y-139929500D01*
X141681459Y-139929500D01*
X141681457Y-139929500D01*
X141488170Y-139967947D01*
X141488160Y-139967950D01*
X141306092Y-140043364D01*
X141306079Y-140043371D01*
X141142218Y-140152860D01*
X141142214Y-140152863D01*
X141002863Y-140292214D01*
X141002860Y-140292218D01*
X140893371Y-140456079D01*
X140893364Y-140456092D01*
X140817950Y-140638160D01*
X140817947Y-140638170D01*
X140779500Y-140831456D01*
X140779500Y-140831459D01*
X140779500Y-141028541D01*
X140779500Y-141028543D01*
X140779499Y-141028543D01*
X139550500Y-141028543D01*
X139550500Y-141028541D01*
X139550500Y-140831459D01*
X139550500Y-140831456D01*
X139512052Y-140638170D01*
X139512051Y-140638169D01*
X139512051Y-140638165D01*
X139512049Y-140638160D01*
X139436635Y-140456092D01*
X139436628Y-140456079D01*
X139327139Y-140292218D01*
X139327136Y-140292214D01*
X139187785Y-140152863D01*
X139187781Y-140152860D01*
X139023920Y-140043371D01*
X139023907Y-140043364D01*
X138916184Y-139998745D01*
X138861780Y-139954905D01*
X138839715Y-139888611D01*
X138856994Y-139820911D01*
X138875952Y-139796506D01*
X138880495Y-139791964D01*
X138943095Y-139683536D01*
X138975500Y-139562601D01*
X138975500Y-139437399D01*
X138943095Y-139316464D01*
X138880495Y-139208036D01*
X138791964Y-139119505D01*
X138683536Y-139056905D01*
X138683531Y-139056903D01*
X138592405Y-139032485D01*
X138532745Y-138996120D01*
X138502217Y-138933272D01*
X138500500Y-138912711D01*
X138500500Y-138794313D01*
X138500499Y-138794298D01*
X138497598Y-138757432D01*
X138497598Y-138757431D01*
X138475432Y-138681137D01*
X138475631Y-138611272D01*
X138479946Y-138599094D01*
X138485687Y-138585236D01*
X138500500Y-138472720D01*
X138500500Y-138247280D01*
X138486066Y-138137645D01*
X138496831Y-138068613D01*
X138543211Y-138016357D01*
X138584814Y-137999845D01*
X138620559Y-137992734D01*
X138666797Y-137983537D01*
X138812479Y-137923194D01*
X138943589Y-137835589D01*
X139055089Y-137724089D01*
X139142694Y-137592979D01*
X139203037Y-137447297D01*
X139222202Y-137350950D01*
X139254587Y-137289039D01*
X139311726Y-137255366D01*
X139342710Y-137247065D01*
X139350704Y-137242449D01*
X139380523Y-137225234D01*
X139380524Y-137225233D01*
X139471318Y-137172813D01*
X139576327Y-137067804D01*
X139576327Y-137067802D01*
X139586531Y-137057599D01*
X139586535Y-137057594D01*
X144836094Y-131808035D01*
X144836099Y-131808031D01*
X144846302Y-131797827D01*
X144846304Y-131797827D01*
X144951313Y-131692818D01*
X145025565Y-131564210D01*
X145055726Y-131451645D01*
X145092090Y-131391987D01*
X145154936Y-131361457D01*
X145224312Y-131369751D01*
X145278190Y-131414236D01*
X145299465Y-131480788D01*
X145299500Y-131483740D01*
X145299500Y-142175500D01*
X145279815Y-142242539D01*
X145227011Y-142288294D01*
X145175500Y-142299500D01*
X132624000Y-142299500D01*
X132556961Y-142279815D01*
X132511206Y-142227011D01*
X132500000Y-142175500D01*
X132500000Y-137404499D01*
X132519685Y-137337460D01*
X132572489Y-137291705D01*
X132623998Y-137280499D01*
X132749180Y-137280499D01*
X132785204Y-137277665D01*
X132939393Y-137232869D01*
X133077598Y-137151135D01*
X133191135Y-137037598D01*
X133272869Y-136899393D01*
X133317665Y-136745204D01*
X133320500Y-136709181D01*
X133320499Y-136538479D01*
X133340183Y-136471440D01*
X133356809Y-136450807D01*
X133461813Y-136345804D01*
X133536065Y-136217196D01*
X133552060Y-136157500D01*
X133552820Y-136154666D01*
X133561415Y-136122587D01*
X133574500Y-136073753D01*
X133574500Y-135925247D01*
X133574500Y-128525306D01*
X133594185Y-128458267D01*
X133610819Y-128437625D01*
X134487819Y-127560625D01*
X134549142Y-127527140D01*
X134618834Y-127532124D01*
X134674767Y-127573996D01*
X134699184Y-127639460D01*
X134699500Y-127648306D01*
X134699500Y-127765701D01*
X134702401Y-127802567D01*
X134702402Y-127802573D01*
X134748254Y-127960393D01*
X134748254Y-127960394D01*
X134748255Y-127960396D01*
X134748256Y-127960398D01*
X134749133Y-127961881D01*
X134749466Y-127963195D01*
X134751353Y-127967554D01*
X134750649Y-127967858D01*
X134766315Y-128029604D01*
X134750861Y-128082233D01*
X134751353Y-128082446D01*
X134749630Y-128086426D01*
X134749133Y-128088118D01*
X134748506Y-128089177D01*
X134748254Y-128089605D01*
X134748254Y-128089606D01*
X134702402Y-128247426D01*
X134702401Y-128247432D01*
X134699500Y-128284298D01*
X134699500Y-128715701D01*
X134702401Y-128752567D01*
X134702402Y-128752573D01*
X134748254Y-128910393D01*
X134748255Y-128910396D01*
X134831917Y-129051862D01*
X134831923Y-129051870D01*
X134948129Y-129168076D01*
X134948133Y-129168079D01*
X134948135Y-129168081D01*
X135089602Y-129251744D01*
X135131224Y-129263836D01*
X135247426Y-129297597D01*
X135247429Y-129297597D01*
X135247431Y-129297598D01*
X135284306Y-129300500D01*
X135284314Y-129300500D01*
X136440686Y-129300500D01*
X136440694Y-129300500D01*
X136477569Y-129297598D01*
X136477571Y-129297597D01*
X136477573Y-129297597D01*
X136519191Y-129285505D01*
X136635398Y-129251744D01*
X136776865Y-129168081D01*
X136893081Y-129051865D01*
X136898521Y-129042665D01*
X136943254Y-128998395D01*
X137024804Y-128951313D01*
X137097998Y-128878119D01*
X137159321Y-128844634D01*
X137185679Y-128841800D01*
X137216044Y-128841800D01*
X137216045Y-128841799D01*
X137370697Y-128811037D01*
X137511843Y-128752573D01*
X137516372Y-128750697D01*
X137516372Y-128750696D01*
X137516379Y-128750694D01*
X137647489Y-128663089D01*
X137758989Y-128551589D01*
X137846594Y-128420479D01*
X137846595Y-128420475D01*
X137848964Y-128416046D01*
X137897927Y-128366202D01*
X137958322Y-128350500D01*
X138715686Y-128350500D01*
X138715694Y-128350500D01*
X138752569Y-128347598D01*
X138752571Y-128347597D01*
X138752573Y-128347597D01*
X138794191Y-128335505D01*
X138910398Y-128301744D01*
X139051865Y-128218081D01*
X139168081Y-128101865D01*
X139251744Y-127960398D01*
X139297598Y-127802569D01*
X139300500Y-127765694D01*
X139300500Y-127334306D01*
X139297598Y-127297431D01*
X139289526Y-127269648D01*
X139251745Y-127139606D01*
X139251744Y-127139603D01*
X139251744Y-127139602D01*
X139168081Y-126998135D01*
X139168079Y-126998133D01*
X139168076Y-126998129D01*
X139051870Y-126881923D01*
X139051862Y-126881917D01*
X138973681Y-126835681D01*
X138910398Y-126798256D01*
X138910397Y-126798255D01*
X138910396Y-126798255D01*
X138910393Y-126798254D01*
X138752573Y-126752402D01*
X138752567Y-126752401D01*
X138715701Y-126749500D01*
X138715694Y-126749500D01*
X138308219Y-126749500D01*
X138241180Y-126729815D01*
X138195425Y-126677011D01*
X138186602Y-126649691D01*
X138173238Y-126582510D01*
X138173237Y-126582503D01*
X138173235Y-126582498D01*
X138112897Y-126436827D01*
X138112890Y-126436814D01*
X138025289Y-126305711D01*
X138025286Y-126305707D01*
X137913792Y-126194213D01*
X137913788Y-126194210D01*
X137782685Y-126106609D01*
X137782672Y-126106602D01*
X137637001Y-126046264D01*
X137636989Y-126046261D01*
X137482345Y-126015500D01*
X137482342Y-126015500D01*
X137451979Y-126015500D01*
X137384940Y-125995815D01*
X137364298Y-125979181D01*
X137259306Y-125874189D01*
X137259304Y-125874187D01*
X137130696Y-125799935D01*
X136987253Y-125761500D01*
X136987252Y-125761500D01*
X135007193Y-125761500D01*
X135007177Y-125761499D01*
X134999581Y-125761499D01*
X134851076Y-125761499D01*
X134719391Y-125796784D01*
X134707628Y-125799936D01*
X134579027Y-125874184D01*
X134579021Y-125874189D01*
X132711681Y-127741530D01*
X132650358Y-127775015D01*
X132580666Y-127770031D01*
X132524733Y-127728159D01*
X132500316Y-127662695D01*
X132500000Y-127653849D01*
X132500000Y-113065278D01*
X132519685Y-112998239D01*
X132572489Y-112952484D01*
X132641647Y-112942540D01*
X132705203Y-112971565D01*
G37*
%TD.AperFunction*%
%TA.AperFunction,Conductor*%
G36*
X142424509Y-114732378D02*
G01*
X142480444Y-114774248D01*
X142495740Y-114801108D01*
X142522300Y-114865229D01*
X142522302Y-114865233D01*
X142614549Y-114985451D01*
X142734767Y-115077698D01*
X142874764Y-115135687D01*
X142987280Y-115150500D01*
X143107698Y-115150500D01*
X143174737Y-115170185D01*
X143220492Y-115222989D01*
X143222259Y-115227048D01*
X143257542Y-115312233D01*
X143257549Y-115312245D01*
X143278172Y-115343109D01*
X143299050Y-115409787D01*
X143280565Y-115477167D01*
X143228587Y-115523857D01*
X143175070Y-115536000D01*
X141628158Y-115536000D01*
X141561119Y-115516315D01*
X141520771Y-115474000D01*
X141483697Y-115409787D01*
X141451313Y-115353696D01*
X141435298Y-115337681D01*
X141401813Y-115276358D01*
X141406797Y-115206666D01*
X141435298Y-115162319D01*
X141447118Y-115150499D01*
X141451313Y-115146304D01*
X141451313Y-115146303D01*
X141461514Y-115136102D01*
X141461517Y-115136097D01*
X141609598Y-114988016D01*
X141670919Y-114954534D01*
X141697277Y-114951700D01*
X141849944Y-114951700D01*
X141849945Y-114951699D01*
X142004597Y-114920937D01*
X142117266Y-114874267D01*
X142150272Y-114860597D01*
X142150272Y-114860596D01*
X142150279Y-114860594D01*
X142281389Y-114772989D01*
X142293497Y-114760880D01*
X142354817Y-114727396D01*
X142424509Y-114732378D01*
G37*
%TD.AperFunction*%
%TA.AperFunction,Conductor*%
G36*
X143609334Y-105578259D02*
G01*
X143665267Y-105620131D01*
X143689684Y-105685595D01*
X143690000Y-105694441D01*
X143690000Y-110961022D01*
X143670315Y-111028061D01*
X143653681Y-111048703D01*
X143039203Y-111663181D01*
X142977880Y-111696666D01*
X142951522Y-111699500D01*
X142921155Y-111699500D01*
X142766510Y-111730261D01*
X142766498Y-111730264D01*
X142620827Y-111790602D01*
X142620816Y-111790608D01*
X142510046Y-111864622D01*
X142443368Y-111885499D01*
X142379156Y-111868906D01*
X142285850Y-111815036D01*
X142285843Y-111815033D01*
X142267057Y-111809999D01*
X142267057Y-111810000D01*
X142142405Y-111776600D01*
X142142404Y-111776600D01*
X142124500Y-111776600D01*
X142057461Y-111756915D01*
X142011706Y-111704111D01*
X142000500Y-111652600D01*
X142000500Y-111006903D01*
X142000500Y-111006898D01*
X141989877Y-110918436D01*
X141989876Y-110918434D01*
X141989876Y-110918432D01*
X141987930Y-110910732D01*
X141989616Y-110910305D01*
X141984207Y-110850407D01*
X142016542Y-110788470D01*
X142077230Y-110753847D01*
X142105844Y-110750500D01*
X142643097Y-110750500D01*
X142643102Y-110750500D01*
X142731564Y-110739877D01*
X142872342Y-110684361D01*
X142992922Y-110592922D01*
X143084361Y-110472342D01*
X143139877Y-110331564D01*
X143150500Y-110243102D01*
X143150500Y-110056898D01*
X143139877Y-109968436D01*
X143139876Y-109968434D01*
X143139438Y-109964785D01*
X143139438Y-109935215D01*
X143139876Y-109931565D01*
X143139877Y-109931564D01*
X143150500Y-109843102D01*
X143150500Y-109656898D01*
X143139877Y-109568436D01*
X143139876Y-109568434D01*
X143139438Y-109564785D01*
X143139438Y-109535215D01*
X143139876Y-109531565D01*
X143139877Y-109531564D01*
X143150500Y-109443102D01*
X143150500Y-109256898D01*
X143139877Y-109168436D01*
X143139876Y-109168434D01*
X143139438Y-109164785D01*
X143139438Y-109135215D01*
X143139876Y-109131565D01*
X143139877Y-109131564D01*
X143150500Y-109043102D01*
X143150500Y-108856898D01*
X143139877Y-108768436D01*
X143139876Y-108768434D01*
X143139438Y-108764785D01*
X143139438Y-108735215D01*
X143139876Y-108731565D01*
X143139877Y-108731564D01*
X143150500Y-108643102D01*
X143150500Y-108456898D01*
X143139877Y-108368436D01*
X143139876Y-108368434D01*
X143139438Y-108364785D01*
X143139438Y-108335215D01*
X143139876Y-108331565D01*
X143139877Y-108331564D01*
X143150500Y-108243102D01*
X143150500Y-108056898D01*
X143139877Y-107968436D01*
X143139876Y-107968434D01*
X143139438Y-107964785D01*
X143139438Y-107935215D01*
X143139876Y-107931565D01*
X143139877Y-107931564D01*
X143150500Y-107843102D01*
X143150500Y-107656898D01*
X143139877Y-107568436D01*
X143139876Y-107568434D01*
X143139438Y-107564785D01*
X143139438Y-107535215D01*
X143139876Y-107531565D01*
X143139877Y-107531564D01*
X143150500Y-107443102D01*
X143150500Y-107256898D01*
X143139877Y-107168436D01*
X143139876Y-107168434D01*
X143139438Y-107164785D01*
X143139438Y-107135215D01*
X143139876Y-107131565D01*
X143139877Y-107131564D01*
X143150500Y-107043102D01*
X143150500Y-106856898D01*
X143139877Y-106768436D01*
X143139876Y-106768434D01*
X143139438Y-106764785D01*
X143139438Y-106735215D01*
X143139876Y-106731565D01*
X143139877Y-106731564D01*
X143150500Y-106643102D01*
X143150500Y-106456898D01*
X143139877Y-106368436D01*
X143139876Y-106368434D01*
X143139438Y-106364785D01*
X143139438Y-106335215D01*
X143139876Y-106331565D01*
X143139877Y-106331564D01*
X143150500Y-106243102D01*
X143150500Y-106056898D01*
X143139877Y-105968436D01*
X143139876Y-105968434D01*
X143139438Y-105964785D01*
X143139438Y-105935215D01*
X143139876Y-105931566D01*
X143139877Y-105931564D01*
X143150149Y-105846022D01*
X143177686Y-105781809D01*
X143225812Y-105746247D01*
X143344472Y-105697097D01*
X143344472Y-105697096D01*
X143344479Y-105697094D01*
X143475589Y-105609489D01*
X143475592Y-105609486D01*
X143478319Y-105606760D01*
X143480099Y-105605787D01*
X143480299Y-105605624D01*
X143480330Y-105605661D01*
X143539642Y-105573275D01*
X143609334Y-105578259D01*
G37*
%TD.AperFunction*%
%TA.AperFunction,Conductor*%
G36*
X136437942Y-105096726D02*
G01*
X136467295Y-105124526D01*
X136522545Y-105197384D01*
X136557079Y-105242923D01*
X136677656Y-105334360D01*
X136677657Y-105334360D01*
X136677658Y-105334361D01*
X136818436Y-105389877D01*
X136906898Y-105400500D01*
X136906903Y-105400500D01*
X137096809Y-105400500D01*
X137096809Y-105402562D01*
X137156935Y-105415987D01*
X137184596Y-105436812D01*
X137583746Y-105835962D01*
X137583756Y-105835973D01*
X137588086Y-105840303D01*
X137588087Y-105840304D01*
X137693096Y-105945313D01*
X137814904Y-106015639D01*
X137821704Y-106019565D01*
X137965147Y-106058000D01*
X137965148Y-106058000D01*
X138624959Y-106058000D01*
X138691998Y-106077685D01*
X138712640Y-106094319D01*
X138734107Y-106115786D01*
X138734111Y-106115789D01*
X138865214Y-106203390D01*
X138865227Y-106203397D01*
X138961085Y-106243102D01*
X139010903Y-106263737D01*
X139165553Y-106294499D01*
X139165556Y-106294500D01*
X139165558Y-106294500D01*
X139323244Y-106294500D01*
X139323245Y-106294499D01*
X139477897Y-106263737D01*
X139623579Y-106203394D01*
X139754689Y-106115789D01*
X139866189Y-106004289D01*
X139896449Y-105959000D01*
X139950060Y-105914197D01*
X140019385Y-105905488D01*
X140082412Y-105935642D01*
X140087232Y-105940211D01*
X140100807Y-105953786D01*
X140100811Y-105953789D01*
X140231914Y-106041390D01*
X140231927Y-106041397D01*
X140359694Y-106094319D01*
X140377603Y-106101737D01*
X140524199Y-106130897D01*
X140532253Y-106132499D01*
X140532256Y-106132500D01*
X140532258Y-106132500D01*
X140689944Y-106132500D01*
X140689945Y-106132499D01*
X140844597Y-106101737D01*
X140990279Y-106041394D01*
X141121389Y-105953789D01*
X141141152Y-105934026D01*
X141202474Y-105900539D01*
X141272166Y-105905522D01*
X141328101Y-105947393D01*
X141352519Y-106012856D01*
X141351951Y-106036486D01*
X141349500Y-106056898D01*
X141349500Y-106243102D01*
X141350202Y-106248946D01*
X141360561Y-106335217D01*
X141360561Y-106364783D01*
X141355901Y-106403597D01*
X141349500Y-106456898D01*
X141349500Y-106643102D01*
X141353978Y-106680388D01*
X141360561Y-106735217D01*
X141360561Y-106764783D01*
X141354718Y-106813440D01*
X141349500Y-106856898D01*
X141349500Y-107043102D01*
X141355222Y-107090754D01*
X141360561Y-107135217D01*
X141360561Y-107164783D01*
X141354718Y-107213440D01*
X141349500Y-107256898D01*
X141349500Y-107443102D01*
X141355222Y-107490754D01*
X141360561Y-107535217D01*
X141360561Y-107564783D01*
X141354718Y-107613440D01*
X141349500Y-107656898D01*
X141349500Y-107843102D01*
X141352649Y-107869321D01*
X141360561Y-107935217D01*
X141360561Y-107964783D01*
X141357475Y-107990487D01*
X141349500Y-108056898D01*
X141349500Y-108243102D01*
X141355222Y-108290754D01*
X141360561Y-108335217D01*
X141360561Y-108364783D01*
X141356380Y-108399606D01*
X141349500Y-108456898D01*
X141349500Y-108643102D01*
X141355222Y-108690754D01*
X141360561Y-108735217D01*
X141360561Y-108764783D01*
X141358116Y-108785147D01*
X141349500Y-108856898D01*
X141349500Y-109043102D01*
X141355222Y-109090754D01*
X141360561Y-109135217D01*
X141360561Y-109164783D01*
X141356422Y-109199253D01*
X141349500Y-109256898D01*
X141349500Y-109443102D01*
X141353358Y-109475230D01*
X141360561Y-109535217D01*
X141360561Y-109564783D01*
X141354718Y-109613440D01*
X141349500Y-109656898D01*
X141349500Y-109656903D01*
X141349500Y-109663442D01*
X141329815Y-109730481D01*
X141277011Y-109776236D01*
X141207853Y-109786180D01*
X141201309Y-109785059D01*
X141078846Y-109760700D01*
X141078842Y-109760700D01*
X140921158Y-109760700D01*
X140921155Y-109760700D01*
X140766510Y-109791461D01*
X140766498Y-109791464D01*
X140620827Y-109851802D01*
X140620814Y-109851809D01*
X140489711Y-109939410D01*
X140489707Y-109939413D01*
X140378213Y-110050907D01*
X140378210Y-110050911D01*
X140290609Y-110182014D01*
X140290602Y-110182027D01*
X140230264Y-110327698D01*
X140230261Y-110327707D01*
X140215816Y-110400327D01*
X140183430Y-110462237D01*
X140122714Y-110496811D01*
X140108982Y-110499250D01*
X140106900Y-110499500D01*
X140106898Y-110499500D01*
X140082847Y-110502388D01*
X140014783Y-110510561D01*
X139985217Y-110510561D01*
X139936559Y-110504718D01*
X139893102Y-110499500D01*
X139706898Y-110499500D01*
X139663440Y-110504718D01*
X139614783Y-110510561D01*
X139585217Y-110510561D01*
X139536559Y-110504718D01*
X139493102Y-110499500D01*
X139306898Y-110499500D01*
X139263440Y-110504718D01*
X139214783Y-110510561D01*
X139185217Y-110510561D01*
X139136559Y-110504718D01*
X139093102Y-110499500D01*
X138906898Y-110499500D01*
X138863440Y-110504718D01*
X138814783Y-110510561D01*
X138785217Y-110510561D01*
X138736559Y-110504718D01*
X138693102Y-110499500D01*
X138506898Y-110499500D01*
X138471032Y-110503807D01*
X138418438Y-110510122D01*
X138277656Y-110565639D01*
X138274924Y-110567712D01*
X138271981Y-110568830D01*
X138270266Y-110569795D01*
X138270121Y-110569537D01*
X138209612Y-110592534D01*
X138141248Y-110578105D01*
X138125076Y-110567712D01*
X138122343Y-110565639D01*
X137999999Y-110517393D01*
X137981564Y-110510123D01*
X137981563Y-110510122D01*
X137981561Y-110510122D01*
X137935926Y-110504642D01*
X137893102Y-110499500D01*
X137718078Y-110499500D01*
X137651039Y-110479815D01*
X137630397Y-110463181D01*
X137191731Y-110024515D01*
X137158246Y-109963192D01*
X137157795Y-109961025D01*
X137136069Y-109851806D01*
X137127237Y-109807403D01*
X137120635Y-109791464D01*
X137066897Y-109661727D01*
X137066890Y-109661714D01*
X136986838Y-109541908D01*
X136965960Y-109475230D01*
X136968323Y-109448825D01*
X136986600Y-109356944D01*
X136986600Y-109199255D01*
X136986599Y-109199253D01*
X136955838Y-109044610D01*
X136955837Y-109044603D01*
X136955213Y-109043096D01*
X136895497Y-108898927D01*
X136895490Y-108898914D01*
X136807889Y-108767811D01*
X136807886Y-108767807D01*
X136696392Y-108656313D01*
X136696388Y-108656310D01*
X136565285Y-108568709D01*
X136565272Y-108568702D01*
X136419601Y-108508364D01*
X136419591Y-108508361D01*
X136340894Y-108492707D01*
X136278983Y-108460322D01*
X136244409Y-108399606D01*
X136241971Y-108385877D01*
X136239877Y-108368436D01*
X136239875Y-108368433D01*
X136239438Y-108364787D01*
X136239438Y-108335215D01*
X136239876Y-108331565D01*
X136239877Y-108331564D01*
X136250500Y-108243102D01*
X136250500Y-108056898D01*
X136239877Y-107968436D01*
X136239876Y-107968434D01*
X136239438Y-107964785D01*
X136239438Y-107935215D01*
X136239876Y-107931565D01*
X136239877Y-107931564D01*
X136250500Y-107843102D01*
X136250500Y-107656898D01*
X136239877Y-107568436D01*
X136239876Y-107568434D01*
X136239438Y-107564785D01*
X136239438Y-107535215D01*
X136239876Y-107531565D01*
X136239877Y-107531564D01*
X136250500Y-107443102D01*
X136250500Y-107256898D01*
X136239877Y-107168436D01*
X136239876Y-107168434D01*
X136239438Y-107164785D01*
X136239438Y-107135215D01*
X136239876Y-107131565D01*
X136239877Y-107131564D01*
X136250500Y-107043102D01*
X136250500Y-106856898D01*
X136239877Y-106768436D01*
X136239876Y-106768434D01*
X136239438Y-106764785D01*
X136239438Y-106735215D01*
X136239876Y-106731565D01*
X136239877Y-106731564D01*
X136250500Y-106643102D01*
X136250500Y-106456898D01*
X136239877Y-106368436D01*
X136184361Y-106227658D01*
X136184360Y-106227657D01*
X136184360Y-106227656D01*
X136092922Y-106107077D01*
X136028202Y-106057999D01*
X136016075Y-106048803D01*
X135974553Y-105992612D01*
X135970001Y-105922891D01*
X136003865Y-105861777D01*
X136016076Y-105851196D01*
X136030440Y-105840304D01*
X136092922Y-105792922D01*
X136184361Y-105672342D01*
X136239877Y-105531564D01*
X136250500Y-105443102D01*
X136250500Y-105256898D01*
X136245377Y-105214237D01*
X136256927Y-105145330D01*
X136303899Y-105093605D01*
X136371379Y-105075487D01*
X136437942Y-105096726D01*
G37*
%TD.AperFunction*%
%TA.AperFunction,Conductor*%
G36*
X136960703Y-83827766D02*
G01*
X136967181Y-83833798D01*
X137064561Y-83931178D01*
X137064567Y-83931183D01*
X143653681Y-90520297D01*
X143687166Y-90581620D01*
X143690000Y-90607978D01*
X143690000Y-90899021D01*
X143670315Y-90966060D01*
X143617511Y-91011815D01*
X143548353Y-91021759D01*
X143484797Y-90992734D01*
X143478319Y-90986702D01*
X141743083Y-89251467D01*
X141743081Y-89251464D01*
X141631006Y-89139389D01*
X141631004Y-89139387D01*
X141502396Y-89065135D01*
X141484187Y-89060256D01*
X141484185Y-89060255D01*
X141404789Y-89038981D01*
X141358953Y-89026700D01*
X141358952Y-89026700D01*
X139774500Y-89026700D01*
X139707461Y-89007015D01*
X139661706Y-88954211D01*
X139650500Y-88902700D01*
X139650499Y-88552130D01*
X139650498Y-88552123D01*
X139649260Y-88540609D01*
X139644091Y-88492517D01*
X139605628Y-88389393D01*
X139593797Y-88357671D01*
X139593793Y-88357664D01*
X139507547Y-88242455D01*
X139507544Y-88242452D01*
X139392335Y-88156206D01*
X139392328Y-88156202D01*
X139257482Y-88105908D01*
X139257483Y-88105908D01*
X139197883Y-88099501D01*
X139197881Y-88099500D01*
X139197873Y-88099500D01*
X139197865Y-88099500D01*
X137979341Y-88099500D01*
X137912302Y-88079815D01*
X137896874Y-88067383D01*
X137896799Y-88067476D01*
X137892088Y-88063610D01*
X137760985Y-87976009D01*
X137760972Y-87976002D01*
X137615301Y-87915664D01*
X137615289Y-87915661D01*
X137460645Y-87884900D01*
X137460642Y-87884900D01*
X137302958Y-87884900D01*
X137302955Y-87884900D01*
X137148310Y-87915661D01*
X137148298Y-87915664D01*
X137002627Y-87976002D01*
X137002614Y-87976009D01*
X136871511Y-88063610D01*
X136871507Y-88063613D01*
X136760013Y-88175107D01*
X136760010Y-88175111D01*
X136672409Y-88306214D01*
X136672404Y-88306224D01*
X136622254Y-88427297D01*
X136578413Y-88481700D01*
X136512118Y-88503765D01*
X136460242Y-88494406D01*
X136448602Y-88489584D01*
X136426097Y-88480263D01*
X136426093Y-88480262D01*
X136426089Y-88480261D01*
X136271445Y-88449500D01*
X136271442Y-88449500D01*
X136113758Y-88449500D01*
X136113755Y-88449500D01*
X135959110Y-88480261D01*
X135959098Y-88480264D01*
X135813427Y-88540602D01*
X135813414Y-88540609D01*
X135682311Y-88628210D01*
X135682307Y-88628213D01*
X135570813Y-88739707D01*
X135570810Y-88739711D01*
X135483209Y-88870814D01*
X135483202Y-88870827D01*
X135422864Y-89016498D01*
X135422861Y-89016510D01*
X135392100Y-89171153D01*
X135392100Y-89328846D01*
X135422861Y-89483489D01*
X135422864Y-89483501D01*
X135483202Y-89629172D01*
X135483209Y-89629185D01*
X135570810Y-89760288D01*
X135570813Y-89760292D01*
X135682307Y-89871786D01*
X135682311Y-89871789D01*
X135813414Y-89959390D01*
X135813427Y-89959397D01*
X135943442Y-90013250D01*
X135959103Y-90019737D01*
X136113753Y-90050499D01*
X136113756Y-90050500D01*
X136113758Y-90050500D01*
X136271444Y-90050500D01*
X136271445Y-90050499D01*
X136426097Y-90019737D01*
X136571779Y-89959394D01*
X136702889Y-89871789D01*
X136702892Y-89871786D01*
X136724360Y-89850319D01*
X136785683Y-89816834D01*
X136812041Y-89814000D01*
X137225501Y-89814000D01*
X137292540Y-89833685D01*
X137338295Y-89886489D01*
X137349501Y-89938000D01*
X137349501Y-89947878D01*
X137353679Y-89986745D01*
X137353679Y-90013250D01*
X137349500Y-90052122D01*
X137349500Y-90447869D01*
X137349501Y-90447878D01*
X137353679Y-90486745D01*
X137353679Y-90513250D01*
X137349500Y-90552122D01*
X137349500Y-90845280D01*
X137329815Y-90912319D01*
X137277011Y-90958074D01*
X137249693Y-90966897D01*
X137182507Y-90980261D01*
X137182498Y-90980264D01*
X137036827Y-91040602D01*
X137036814Y-91040609D01*
X136905711Y-91128210D01*
X136905707Y-91128213D01*
X136794213Y-91239707D01*
X136794210Y-91239711D01*
X136706609Y-91370814D01*
X136706602Y-91370827D01*
X136646264Y-91516498D01*
X136646261Y-91516510D01*
X136615500Y-91671153D01*
X136615500Y-91828846D01*
X136646261Y-91983489D01*
X136646264Y-91983501D01*
X136706602Y-92129172D01*
X136706609Y-92129185D01*
X136794210Y-92260288D01*
X136794213Y-92260292D01*
X136905707Y-92371786D01*
X136905711Y-92371789D01*
X136943838Y-92397265D01*
X136988643Y-92450877D01*
X136997350Y-92520202D01*
X136967196Y-92583230D01*
X136943839Y-92603468D01*
X136906814Y-92628208D01*
X136906807Y-92628213D01*
X136795313Y-92739707D01*
X136795310Y-92739711D01*
X136707709Y-92870814D01*
X136707702Y-92870827D01*
X136647364Y-93016498D01*
X136647361Y-93016510D01*
X136616600Y-93171153D01*
X136616600Y-93328846D01*
X136647361Y-93483489D01*
X136647364Y-93483501D01*
X136707704Y-93629176D01*
X136709069Y-93631729D01*
X136709379Y-93633218D01*
X136710037Y-93634807D01*
X136709735Y-93634931D01*
X136723309Y-93700133D01*
X136702818Y-93759060D01*
X136700705Y-93762222D01*
X136700704Y-93762223D01*
X136640364Y-93907898D01*
X136640361Y-93907910D01*
X136609600Y-94062553D01*
X136609003Y-94068618D01*
X136607694Y-94068489D01*
X136589915Y-94129039D01*
X136537111Y-94174794D01*
X136485600Y-94186000D01*
X136114541Y-94186000D01*
X136047502Y-94166315D01*
X136026860Y-94149681D01*
X136005392Y-94128213D01*
X136005388Y-94128210D01*
X135874285Y-94040609D01*
X135874272Y-94040602D01*
X135728601Y-93980264D01*
X135728589Y-93980261D01*
X135573945Y-93949500D01*
X135573942Y-93949500D01*
X135416258Y-93949500D01*
X135416255Y-93949500D01*
X135261610Y-93980261D01*
X135261598Y-93980264D01*
X135115927Y-94040602D01*
X135115914Y-94040609D01*
X134984811Y-94128210D01*
X134984807Y-94128213D01*
X134873313Y-94239707D01*
X134873310Y-94239711D01*
X134785709Y-94370814D01*
X134785702Y-94370827D01*
X134725364Y-94516498D01*
X134725361Y-94516510D01*
X134694600Y-94671153D01*
X134694600Y-94828846D01*
X134725361Y-94983489D01*
X134725364Y-94983501D01*
X134785702Y-95129172D01*
X134785709Y-95129185D01*
X134873310Y-95260288D01*
X134873313Y-95260292D01*
X134984807Y-95371786D01*
X134984811Y-95371789D01*
X135099374Y-95448338D01*
X135144179Y-95501950D01*
X135152886Y-95571275D01*
X135152101Y-95575630D01*
X135133100Y-95671158D01*
X135133100Y-95828846D01*
X135163861Y-95983489D01*
X135163864Y-95983501D01*
X135224202Y-96129172D01*
X135224209Y-96129185D01*
X135311810Y-96260288D01*
X135311813Y-96260292D01*
X135423307Y-96371786D01*
X135423311Y-96371789D01*
X135554414Y-96459390D01*
X135554427Y-96459397D01*
X135670519Y-96507483D01*
X135700103Y-96519737D01*
X135854753Y-96550499D01*
X135854756Y-96550500D01*
X135854758Y-96550500D01*
X136012444Y-96550500D01*
X136012445Y-96550499D01*
X136167097Y-96519737D01*
X136312779Y-96459394D01*
X136443889Y-96371789D01*
X136443892Y-96371786D01*
X136465360Y-96350319D01*
X136526683Y-96316834D01*
X136553041Y-96314000D01*
X137225501Y-96314000D01*
X137292540Y-96333685D01*
X137338295Y-96386489D01*
X137349501Y-96438000D01*
X137349501Y-96447876D01*
X137355908Y-96507483D01*
X137406202Y-96642328D01*
X137406206Y-96642335D01*
X137492452Y-96757544D01*
X137492455Y-96757547D01*
X137607664Y-96843793D01*
X137607671Y-96843797D01*
X137742517Y-96894091D01*
X137742516Y-96894091D01*
X137749444Y-96894835D01*
X137802127Y-96900500D01*
X138654200Y-96900499D01*
X138721239Y-96920183D01*
X138766994Y-96972987D01*
X138778200Y-97024499D01*
X138778200Y-97342721D01*
X138758515Y-97409760D01*
X138741881Y-97430402D01*
X136644289Y-99527993D01*
X136644285Y-99527999D01*
X136570034Y-99656605D01*
X136570033Y-99656606D01*
X136554406Y-99714933D01*
X136554406Y-99714934D01*
X136531600Y-99800048D01*
X136531600Y-101316500D01*
X136511915Y-101383539D01*
X136459111Y-101429294D01*
X136407600Y-101440500D01*
X135735980Y-101440500D01*
X135688528Y-101431061D01*
X135665601Y-101421564D01*
X135665589Y-101421561D01*
X135510945Y-101390800D01*
X135510942Y-101390800D01*
X135353258Y-101390800D01*
X135353255Y-101390800D01*
X135198610Y-101421561D01*
X135198598Y-101421564D01*
X135052927Y-101481902D01*
X135052914Y-101481909D01*
X134921811Y-101569510D01*
X134921807Y-101569513D01*
X134810313Y-101681007D01*
X134810310Y-101681011D01*
X134722709Y-101812114D01*
X134722702Y-101812127D01*
X134662364Y-101957798D01*
X134662361Y-101957810D01*
X134631600Y-102112453D01*
X134631600Y-102270146D01*
X134662361Y-102424789D01*
X134662364Y-102424801D01*
X134722702Y-102570472D01*
X134722709Y-102570485D01*
X134810310Y-102701588D01*
X134810313Y-102701592D01*
X134921807Y-102813086D01*
X134921811Y-102813089D01*
X135052914Y-102900690D01*
X135052927Y-102900697D01*
X135198598Y-102961035D01*
X135198603Y-102961037D01*
X135321169Y-102985417D01*
X135353253Y-102991799D01*
X135353256Y-102991800D01*
X135353258Y-102991800D01*
X135510944Y-102991800D01*
X135510945Y-102991799D01*
X135665597Y-102961037D01*
X135665609Y-102961031D01*
X135671424Y-102959269D01*
X135671891Y-102960809D01*
X135733588Y-102954159D01*
X135796076Y-102985417D01*
X135818335Y-103013070D01*
X135819881Y-103015684D01*
X135819887Y-103015692D01*
X135934307Y-103130112D01*
X135934311Y-103130115D01*
X135934313Y-103130117D01*
X136073605Y-103212494D01*
X136114587Y-103224400D01*
X136229002Y-103257642D01*
X136229005Y-103257642D01*
X136229007Y-103257643D01*
X136265310Y-103260500D01*
X136312000Y-103260500D01*
X136379039Y-103280185D01*
X136424794Y-103332989D01*
X136436000Y-103384500D01*
X136436000Y-103929248D01*
X136427355Y-103974736D01*
X136410123Y-104018434D01*
X136410123Y-104018436D01*
X136399500Y-104106898D01*
X136399500Y-104893102D01*
X136404623Y-104935763D01*
X136393071Y-105004671D01*
X136346098Y-105056395D01*
X136278618Y-105074512D01*
X136212055Y-105053271D01*
X136182703Y-105025471D01*
X136092922Y-104907077D01*
X135972343Y-104815639D01*
X135831561Y-104760122D01*
X135785926Y-104754642D01*
X135743102Y-104749500D01*
X134956898Y-104749500D01*
X134917853Y-104754188D01*
X134868438Y-104760122D01*
X134727656Y-104815639D01*
X134607077Y-104907077D01*
X134515638Y-105027658D01*
X134515637Y-105027660D01*
X134470857Y-105141214D01*
X134427951Y-105196358D01*
X134362043Y-105219551D01*
X134294059Y-105203430D01*
X134267822Y-105183405D01*
X133278697Y-104194280D01*
X133245212Y-104132957D01*
X133250196Y-104063265D01*
X133278697Y-104018918D01*
X133368368Y-103929248D01*
X133480797Y-103816819D01*
X133542120Y-103783334D01*
X133568478Y-103780500D01*
X133734682Y-103780500D01*
X133734690Y-103780500D01*
X133770993Y-103777643D01*
X133770995Y-103777642D01*
X133770997Y-103777642D01*
X133811975Y-103765736D01*
X133926395Y-103732494D01*
X134065687Y-103650117D01*
X134180117Y-103535687D01*
X134262494Y-103396395D01*
X134307643Y-103240993D01*
X134310500Y-103204690D01*
X134310500Y-102795310D01*
X134307643Y-102759007D01*
X134290961Y-102701589D01*
X134264445Y-102610320D01*
X134262494Y-102603605D01*
X134180117Y-102464313D01*
X134180115Y-102464311D01*
X134180112Y-102464307D01*
X134065692Y-102349887D01*
X134065684Y-102349881D01*
X133930852Y-102270142D01*
X133926395Y-102267506D01*
X133926394Y-102267505D01*
X133926393Y-102267505D01*
X133926390Y-102267504D01*
X133770997Y-102222357D01*
X133770991Y-102222356D01*
X133734697Y-102219500D01*
X133734690Y-102219500D01*
X133265310Y-102219500D01*
X133265302Y-102219500D01*
X133229008Y-102222356D01*
X133229002Y-102222357D01*
X133073609Y-102267504D01*
X133073606Y-102267505D01*
X132934315Y-102349881D01*
X132934307Y-102349887D01*
X132819887Y-102464307D01*
X132819881Y-102464315D01*
X132733535Y-102610320D01*
X132732270Y-102609572D01*
X132693104Y-102656635D01*
X132626469Y-102677650D01*
X132559051Y-102659305D01*
X132512254Y-102607423D01*
X132500000Y-102553675D01*
X132500000Y-90446324D01*
X132519685Y-90379285D01*
X132572489Y-90333530D01*
X132641647Y-90323586D01*
X132705203Y-90352611D01*
X132732728Y-90390156D01*
X132733535Y-90389680D01*
X132819881Y-90535684D01*
X132819887Y-90535692D01*
X132934307Y-90650112D01*
X132934311Y-90650115D01*
X132934313Y-90650117D01*
X133073605Y-90732494D01*
X133114587Y-90744400D01*
X133229002Y-90777642D01*
X133229005Y-90777642D01*
X133229007Y-90777643D01*
X133265310Y-90780500D01*
X133265318Y-90780500D01*
X133734682Y-90780500D01*
X133734690Y-90780500D01*
X133770993Y-90777643D01*
X133770995Y-90777642D01*
X133770997Y-90777642D01*
X133811975Y-90765736D01*
X133926395Y-90732494D01*
X134065687Y-90650117D01*
X134180117Y-90535687D01*
X134262494Y-90396395D01*
X134307643Y-90240993D01*
X134310500Y-90204690D01*
X134310500Y-90038479D01*
X134330185Y-89971440D01*
X134346819Y-89950798D01*
X134359617Y-89938000D01*
X134451313Y-89846304D01*
X134525565Y-89717696D01*
X134536805Y-89675747D01*
X134564001Y-89574252D01*
X134564001Y-89425747D01*
X134564001Y-89418152D01*
X134564000Y-89418134D01*
X134564000Y-88706096D01*
X134583685Y-88639057D01*
X134600319Y-88618415D01*
X134691130Y-88527603D01*
X134691135Y-88527598D01*
X134772869Y-88389393D01*
X134805851Y-88275865D01*
X134817664Y-88235208D01*
X134817665Y-88235202D01*
X134820499Y-88199188D01*
X134820500Y-88199181D01*
X134820499Y-88028477D01*
X134840183Y-87961438D01*
X134856813Y-87940801D01*
X135506174Y-87291443D01*
X135580426Y-87162835D01*
X135618862Y-87019391D01*
X135618862Y-86870886D01*
X135618862Y-86863291D01*
X135618861Y-86863273D01*
X135618861Y-86030043D01*
X135638546Y-85963004D01*
X135680861Y-85922656D01*
X135707433Y-85907315D01*
X135727069Y-85895979D01*
X135727074Y-85895975D01*
X135727084Y-85895970D01*
X135782063Y-85859234D01*
X135964060Y-85719583D01*
X136013773Y-85675985D01*
X136175985Y-85513773D01*
X136219583Y-85464060D01*
X136359234Y-85282063D01*
X136395970Y-85227084D01*
X136510671Y-85028416D01*
X136539916Y-84969112D01*
X136627704Y-84757172D01*
X136648958Y-84694560D01*
X136708332Y-84472975D01*
X136721232Y-84408122D01*
X136751175Y-84180682D01*
X136755500Y-84114701D01*
X136755500Y-83921479D01*
X136775185Y-83854440D01*
X136827989Y-83808685D01*
X136897147Y-83798741D01*
X136960703Y-83827766D01*
G37*
%TD.AperFunction*%
%TA.AperFunction,Conductor*%
G36*
X143609334Y-100790797D02*
G01*
X143665267Y-100832669D01*
X143689684Y-100898133D01*
X143690000Y-100906979D01*
X143690000Y-102206006D01*
X143670315Y-102273045D01*
X143617511Y-102318800D01*
X143548353Y-102328744D01*
X143502880Y-102312738D01*
X143426397Y-102267507D01*
X143426390Y-102267504D01*
X143270997Y-102222357D01*
X143270991Y-102222356D01*
X143234697Y-102219500D01*
X143234690Y-102219500D01*
X143188000Y-102219500D01*
X143120961Y-102199815D01*
X143075206Y-102147011D01*
X143064000Y-102095500D01*
X143064000Y-101594240D01*
X143083685Y-101527201D01*
X143093206Y-101515395D01*
X143092724Y-101514999D01*
X143096584Y-101510293D01*
X143096589Y-101510289D01*
X143184194Y-101379179D01*
X143244537Y-101233497D01*
X143275300Y-101078842D01*
X143275300Y-101024972D01*
X143294985Y-100957933D01*
X143337298Y-100917586D01*
X143438404Y-100859213D01*
X143478319Y-100819298D01*
X143539642Y-100785813D01*
X143609334Y-100790797D01*
G37*
%TD.AperFunction*%
%TA.AperFunction,Conductor*%
G36*
X145242539Y-73220185D02*
G01*
X145288294Y-73272989D01*
X145299500Y-73324500D01*
X145299500Y-77408464D01*
X145279815Y-77475503D01*
X145227011Y-77521258D01*
X145157853Y-77531202D01*
X145143407Y-77528239D01*
X145117353Y-77521258D01*
X145024252Y-77496312D01*
X145024251Y-77496312D01*
X143284978Y-77496312D01*
X143217939Y-77476627D01*
X143197297Y-77459993D01*
X142907571Y-77170267D01*
X142907569Y-77170264D01*
X142795494Y-77058189D01*
X142795492Y-77058187D01*
X142666884Y-76983935D01*
X142523441Y-76945500D01*
X142523440Y-76945500D01*
X141371080Y-76945500D01*
X141222575Y-76945500D01*
X141079132Y-76983935D01*
X141079129Y-76983936D01*
X140950527Y-77058185D01*
X140950521Y-77058189D01*
X140548689Y-77460021D01*
X140548685Y-77460027D01*
X140477253Y-77583751D01*
X140477253Y-77583752D01*
X140474435Y-77588632D01*
X140437311Y-77727186D01*
X140437308Y-77727197D01*
X140436000Y-77732076D01*
X140436000Y-79312000D01*
X140416315Y-79379039D01*
X140363511Y-79424794D01*
X140312000Y-79436000D01*
X139699499Y-79436000D01*
X139632460Y-79416315D01*
X139586705Y-79363511D01*
X139575499Y-79312000D01*
X139575499Y-79124998D01*
X139575498Y-79124981D01*
X139564999Y-79022203D01*
X139564998Y-79022200D01*
X139548900Y-78973619D01*
X139509814Y-78855666D01*
X139417712Y-78706344D01*
X139293656Y-78582288D01*
X139200888Y-78525069D01*
X139144336Y-78490187D01*
X139144331Y-78490185D01*
X139142862Y-78489698D01*
X138977797Y-78435001D01*
X138977795Y-78435000D01*
X138875010Y-78424500D01*
X137124998Y-78424500D01*
X137124981Y-78424501D01*
X137022203Y-78435000D01*
X137022200Y-78435001D01*
X136855668Y-78490185D01*
X136855663Y-78490187D01*
X136706342Y-78582289D01*
X136582289Y-78706342D01*
X136490187Y-78855663D01*
X136490186Y-78855666D01*
X136435001Y-79022203D01*
X136435001Y-79022204D01*
X136435000Y-79022204D01*
X136424500Y-79124983D01*
X136424500Y-80875001D01*
X136424501Y-80875018D01*
X136435000Y-80977796D01*
X136435001Y-80977799D01*
X136451097Y-81026372D01*
X136490186Y-81144334D01*
X136582288Y-81293656D01*
X136706344Y-81417712D01*
X136855666Y-81509814D01*
X137022203Y-81564999D01*
X137124991Y-81575500D01*
X138875008Y-81575499D01*
X138977797Y-81564999D01*
X139144334Y-81509814D01*
X139293656Y-81417712D01*
X139417712Y-81293656D01*
X139509814Y-81144334D01*
X139564999Y-80977797D01*
X139575500Y-80875009D01*
X139575500Y-80688000D01*
X139595185Y-80620961D01*
X139647989Y-80575206D01*
X139699500Y-80564000D01*
X141043160Y-80564000D01*
X141110199Y-80583685D01*
X141153644Y-80631704D01*
X141252511Y-80825742D01*
X141398276Y-81026370D01*
X141573630Y-81201724D01*
X141774258Y-81347489D01*
X141995218Y-81460073D01*
X142231069Y-81536706D01*
X142322920Y-81551253D01*
X142476000Y-81575500D01*
X142476005Y-81575500D01*
X142724000Y-81575500D01*
X142860070Y-81553947D01*
X142968931Y-81536706D01*
X143204782Y-81460073D01*
X143425742Y-81347489D01*
X143626370Y-81201724D01*
X143801724Y-81026370D01*
X143886682Y-80909434D01*
X143942012Y-80866770D01*
X144011626Y-80860791D01*
X144073420Y-80893397D01*
X144107778Y-80954236D01*
X144111000Y-80982321D01*
X144111000Y-89083022D01*
X144091315Y-89150061D01*
X144038511Y-89195816D01*
X143969353Y-89205760D01*
X143905797Y-89176735D01*
X143899319Y-89170703D01*
X137957162Y-83228546D01*
X137933484Y-83193110D01*
X137933429Y-83193143D01*
X137932939Y-83192295D01*
X137930282Y-83188318D01*
X137929366Y-83186107D01*
X137929365Y-83186104D01*
X137894950Y-83126496D01*
X137855113Y-83057496D01*
X137778922Y-82981305D01*
X137778919Y-82981301D01*
X137745785Y-82948167D01*
X137745762Y-82948146D01*
X137699751Y-82902135D01*
X140149500Y-82902135D01*
X140149500Y-84797870D01*
X140149501Y-84797876D01*
X140155908Y-84857483D01*
X140206202Y-84992328D01*
X140206206Y-84992335D01*
X140292452Y-85107544D01*
X140292455Y-85107547D01*
X140407664Y-85193793D01*
X140407671Y-85193797D01*
X140542517Y-85244091D01*
X140542516Y-85244091D01*
X140549444Y-85244835D01*
X140602127Y-85250500D01*
X142897872Y-85250499D01*
X142957483Y-85244091D01*
X143092331Y-85193796D01*
X143207546Y-85107546D01*
X143293796Y-84992331D01*
X143344091Y-84857483D01*
X143350500Y-84797873D01*
X143350499Y-82902128D01*
X143344091Y-82842517D01*
X143294439Y-82709394D01*
X143293797Y-82707671D01*
X143293793Y-82707664D01*
X143207547Y-82592455D01*
X143207544Y-82592452D01*
X143092335Y-82506206D01*
X143092328Y-82506202D01*
X142957482Y-82455908D01*
X142957483Y-82455908D01*
X142897883Y-82449501D01*
X142897881Y-82449500D01*
X142897873Y-82449500D01*
X142897864Y-82449500D01*
X140602129Y-82449500D01*
X140602123Y-82449501D01*
X140542516Y-82455908D01*
X140407671Y-82506202D01*
X140407664Y-82506206D01*
X140292455Y-82592452D01*
X140292452Y-82592455D01*
X140206206Y-82707664D01*
X140206202Y-82707671D01*
X140155908Y-82842517D01*
X140149501Y-82902116D01*
X140149501Y-82902123D01*
X140149500Y-82902135D01*
X137699751Y-82902135D01*
X136100319Y-81302703D01*
X136066834Y-81241380D01*
X136064000Y-81215022D01*
X136064000Y-76625748D01*
X136063999Y-76625742D01*
X136050537Y-76575500D01*
X136025565Y-76482303D01*
X135979042Y-76401724D01*
X135979042Y-76401723D01*
X135979041Y-76401722D01*
X135951316Y-76353702D01*
X135951313Y-76353696D01*
X135846304Y-76248687D01*
X135846303Y-76248686D01*
X135841973Y-76244356D01*
X135841962Y-76244346D01*
X135499659Y-75902043D01*
X135466174Y-75840720D01*
X135469408Y-75776049D01*
X135536706Y-75568931D01*
X135557866Y-75435329D01*
X135575500Y-75324000D01*
X135575500Y-75075999D01*
X135536706Y-74831072D01*
X135536706Y-74831069D01*
X135469744Y-74624983D01*
X136824500Y-74624983D01*
X136824500Y-76375001D01*
X136824501Y-76375018D01*
X136835000Y-76477796D01*
X136835001Y-76477799D01*
X136890185Y-76644331D01*
X136890187Y-76644336D01*
X136899894Y-76660073D01*
X136982288Y-76793656D01*
X137106344Y-76917712D01*
X137255666Y-77009814D01*
X137422203Y-77064999D01*
X137524991Y-77075500D01*
X139275008Y-77075499D01*
X139377797Y-77064999D01*
X139544334Y-77009814D01*
X139693656Y-76917712D01*
X139817712Y-76793656D01*
X139909814Y-76644334D01*
X139964999Y-76477797D01*
X139975500Y-76375009D01*
X139975499Y-74624992D01*
X139964999Y-74522203D01*
X139909814Y-74355666D01*
X139817712Y-74206344D01*
X139693656Y-74082288D01*
X139600888Y-74025069D01*
X139544336Y-73990187D01*
X139544331Y-73990185D01*
X139542862Y-73989698D01*
X139377797Y-73935001D01*
X139377795Y-73935000D01*
X139275010Y-73924500D01*
X137524998Y-73924500D01*
X137524981Y-73924501D01*
X137422203Y-73935000D01*
X137422200Y-73935001D01*
X137255668Y-73990185D01*
X137255663Y-73990187D01*
X137106342Y-74082289D01*
X136982289Y-74206342D01*
X136890187Y-74355663D01*
X136890185Y-74355668D01*
X136884025Y-74374258D01*
X136835001Y-74522203D01*
X136835001Y-74522204D01*
X136835000Y-74522204D01*
X136824500Y-74624983D01*
X135469744Y-74624983D01*
X135460073Y-74595218D01*
X135347489Y-74374258D01*
X135201724Y-74173630D01*
X135026370Y-73998276D01*
X134825742Y-73852511D01*
X134604782Y-73739927D01*
X134368931Y-73663294D01*
X134368929Y-73663293D01*
X134368927Y-73663293D01*
X134124000Y-73624500D01*
X134123995Y-73624500D01*
X133876005Y-73624500D01*
X133876000Y-73624500D01*
X133631072Y-73663293D01*
X133395215Y-73739928D01*
X133174257Y-73852511D01*
X133075174Y-73924500D01*
X132973630Y-73998276D01*
X132973628Y-73998278D01*
X132973627Y-73998278D01*
X132798277Y-74173628D01*
X132724318Y-74275424D01*
X132668987Y-74318089D01*
X132599374Y-74324068D01*
X132537579Y-74291462D01*
X132503222Y-74230623D01*
X132500000Y-74202538D01*
X132500000Y-73324500D01*
X132519685Y-73257461D01*
X132572489Y-73211706D01*
X132624000Y-73200500D01*
X145175500Y-73200500D01*
X145242539Y-73220185D01*
G37*
%TD.AperFunction*%
%TA.AperFunction,Conductor*%
G36*
X132705203Y-85370192D02*
G01*
X132722370Y-85388411D01*
X132780417Y-85464060D01*
X132811760Y-85499799D01*
X132824019Y-85513778D01*
X132986221Y-85675980D01*
X132986227Y-85675985D01*
X133035940Y-85719583D01*
X133217937Y-85859234D01*
X133217949Y-85859243D01*
X133272902Y-85895961D01*
X133272908Y-85895965D01*
X133272916Y-85895970D01*
X133272926Y-85895975D01*
X133272928Y-85895977D01*
X133471571Y-86010664D01*
X133471577Y-86010666D01*
X133471584Y-86010671D01*
X133530888Y-86039916D01*
X133530893Y-86039918D01*
X133530897Y-86039920D01*
X133636858Y-86083810D01*
X133742828Y-86127704D01*
X133805440Y-86148958D01*
X134027025Y-86208332D01*
X134091878Y-86221232D01*
X134091886Y-86221233D01*
X134091891Y-86221234D01*
X134093878Y-86221562D01*
X134093738Y-86222408D01*
X134149786Y-86245612D01*
X134153690Y-86248607D01*
X134153696Y-86248613D01*
X134282304Y-86322865D01*
X134398956Y-86354121D01*
X134458614Y-86390484D01*
X134489144Y-86453331D01*
X134490861Y-86473895D01*
X134490861Y-86660160D01*
X134471176Y-86727199D01*
X134454542Y-86747841D01*
X134009201Y-87193181D01*
X133947878Y-87226666D01*
X133921521Y-87229500D01*
X133750830Y-87229500D01*
X133750808Y-87229501D01*
X133714794Y-87232335D01*
X133560604Y-87277131D01*
X133557455Y-87278494D01*
X133554777Y-87278824D01*
X133553116Y-87279307D01*
X133553038Y-87279038D01*
X133488110Y-87287048D01*
X133460765Y-87279250D01*
X133342501Y-87230264D01*
X133342489Y-87230261D01*
X133187845Y-87199500D01*
X133187842Y-87199500D01*
X133030158Y-87199500D01*
X133030155Y-87199500D01*
X132875510Y-87230261D01*
X132875498Y-87230264D01*
X132729827Y-87290602D01*
X132729809Y-87290612D01*
X132692890Y-87315281D01*
X132626213Y-87336159D01*
X132558833Y-87317674D01*
X132512143Y-87265695D01*
X132500000Y-87212179D01*
X132500000Y-85463905D01*
X132519685Y-85396866D01*
X132572489Y-85351111D01*
X132641647Y-85341167D01*
X132705203Y-85370192D01*
G37*
%TD.AperFunction*%
%TA.AperFunction,Conductor*%
G36*
X142231249Y-78093185D02*
G01*
X142251891Y-78109819D01*
X142382104Y-78240032D01*
X142415589Y-78301355D01*
X142410605Y-78371047D01*
X142368733Y-78426980D01*
X142313823Y-78450186D01*
X142231070Y-78463293D01*
X141995215Y-78539928D01*
X141774254Y-78652512D01*
X141760884Y-78662227D01*
X141695077Y-78685706D01*
X141627024Y-78669880D01*
X141578330Y-78619773D01*
X141564000Y-78561908D01*
X141564000Y-78197500D01*
X141583685Y-78130461D01*
X141636489Y-78084706D01*
X141688000Y-78073500D01*
X142164210Y-78073500D01*
X142231249Y-78093185D01*
G37*
%TD.AperFunction*%
%TD*%
M02*
