%TF.GenerationSoftware,KiCad,Pcbnew,10.0.5*%
%TF.CreationDate,2026-08-21T16:26:05-05:00*%
%TF.ProjectId,arc-insight-board,6172632d-7669-4736-996f-6e2d626f6172,rev?*%
%TF.SameCoordinates,Original*%
%TF.FileFunction,Legend,Top*%
%TF.FilePolarity,Positive*%
%FSLAX46Y46*%
G04 Gerber Fmt 4.6, Leading zero omitted, Abs format (unit mm)*
G04 Created by KiCad (PCBNEW 10.0.5) date 2026-08-21 16:26:05*
%MOMM*%
%LPD*%
G01*
G04 APERTURE LIST*
%ADD10C,0.150000*%
%ADD11C,0.120000*%
G04 APERTURE END LIST*
D10*
X132699580Y-102686666D02*
X132747200Y-102734285D01*
X132747200Y-102734285D02*
X132794819Y-102877142D01*
X132794819Y-102877142D02*
X132794819Y-102972380D01*
X132794819Y-102972380D02*
X132747200Y-103115237D01*
X132747200Y-103115237D02*
X132651961Y-103210475D01*
X132651961Y-103210475D02*
X132556723Y-103258094D01*
X132556723Y-103258094D02*
X132366247Y-103305713D01*
X132366247Y-103305713D02*
X132223390Y-103305713D01*
X132223390Y-103305713D02*
X132032914Y-103258094D01*
X132032914Y-103258094D02*
X131937676Y-103210475D01*
X131937676Y-103210475D02*
X131842438Y-103115237D01*
X131842438Y-103115237D02*
X131794819Y-102972380D01*
X131794819Y-102972380D02*
X131794819Y-102877142D01*
X131794819Y-102877142D02*
X131842438Y-102734285D01*
X131842438Y-102734285D02*
X131890057Y-102686666D01*
X131794819Y-102353332D02*
X131794819Y-101734285D01*
X131794819Y-101734285D02*
X132175771Y-102067618D01*
X132175771Y-102067618D02*
X132175771Y-101924761D01*
X132175771Y-101924761D02*
X132223390Y-101829523D01*
X132223390Y-101829523D02*
X132271009Y-101781904D01*
X132271009Y-101781904D02*
X132366247Y-101734285D01*
X132366247Y-101734285D02*
X132604342Y-101734285D01*
X132604342Y-101734285D02*
X132699580Y-101781904D01*
X132699580Y-101781904D02*
X132747200Y-101829523D01*
X132747200Y-101829523D02*
X132794819Y-101924761D01*
X132794819Y-101924761D02*
X132794819Y-102210475D01*
X132794819Y-102210475D02*
X132747200Y-102305713D01*
X132747200Y-102305713D02*
X132699580Y-102353332D01*
X135059819Y-136943333D02*
X135774104Y-136943333D01*
X135774104Y-136943333D02*
X135916961Y-136990952D01*
X135916961Y-136990952D02*
X136012200Y-137086190D01*
X136012200Y-137086190D02*
X136059819Y-137229047D01*
X136059819Y-137229047D02*
X136059819Y-137324285D01*
X136059819Y-135943333D02*
X136059819Y-136514761D01*
X136059819Y-136229047D02*
X135059819Y-136229047D01*
X135059819Y-136229047D02*
X135202676Y-136324285D01*
X135202676Y-136324285D02*
X135297914Y-136419523D01*
X135297914Y-136419523D02*
X135345533Y-136514761D01*
X141600595Y-125604819D02*
X141600595Y-126414342D01*
X141600595Y-126414342D02*
X141648214Y-126509580D01*
X141648214Y-126509580D02*
X141695833Y-126557200D01*
X141695833Y-126557200D02*
X141791071Y-126604819D01*
X141791071Y-126604819D02*
X141981547Y-126604819D01*
X141981547Y-126604819D02*
X142076785Y-126557200D01*
X142076785Y-126557200D02*
X142124404Y-126509580D01*
X142124404Y-126509580D02*
X142172023Y-126414342D01*
X142172023Y-126414342D02*
X142172023Y-125604819D01*
X143076785Y-125938152D02*
X143076785Y-126604819D01*
X142838690Y-125557200D02*
X142600595Y-126271485D01*
X142600595Y-126271485D02*
X143219642Y-126271485D01*
X139966666Y-77174819D02*
X139966666Y-77889104D01*
X139966666Y-77889104D02*
X139919047Y-78031961D01*
X139919047Y-78031961D02*
X139823809Y-78127200D01*
X139823809Y-78127200D02*
X139680952Y-78174819D01*
X139680952Y-78174819D02*
X139585714Y-78174819D01*
X140871428Y-77508152D02*
X140871428Y-78174819D01*
X140633333Y-77127200D02*
X140395238Y-77841485D01*
X140395238Y-77841485D02*
X141014285Y-77841485D01*
X138038095Y-102604819D02*
X138038095Y-103414342D01*
X138038095Y-103414342D02*
X138085714Y-103509580D01*
X138085714Y-103509580D02*
X138133333Y-103557200D01*
X138133333Y-103557200D02*
X138228571Y-103604819D01*
X138228571Y-103604819D02*
X138419047Y-103604819D01*
X138419047Y-103604819D02*
X138514285Y-103557200D01*
X138514285Y-103557200D02*
X138561904Y-103509580D01*
X138561904Y-103509580D02*
X138609523Y-103414342D01*
X138609523Y-103414342D02*
X138609523Y-102604819D01*
X139609523Y-103604819D02*
X139038095Y-103604819D01*
X139323809Y-103604819D02*
X139323809Y-102604819D01*
X139323809Y-102604819D02*
X139228571Y-102747676D01*
X139228571Y-102747676D02*
X139133333Y-102842914D01*
X139133333Y-102842914D02*
X139038095Y-102890533D01*
X142838095Y-112754819D02*
X142838095Y-113564342D01*
X142838095Y-113564342D02*
X142885714Y-113659580D01*
X142885714Y-113659580D02*
X142933333Y-113707200D01*
X142933333Y-113707200D02*
X143028571Y-113754819D01*
X143028571Y-113754819D02*
X143219047Y-113754819D01*
X143219047Y-113754819D02*
X143314285Y-113707200D01*
X143314285Y-113707200D02*
X143361904Y-113659580D01*
X143361904Y-113659580D02*
X143409523Y-113564342D01*
X143409523Y-113564342D02*
X143409523Y-112754819D01*
X143790476Y-112754819D02*
X144409523Y-112754819D01*
X144409523Y-112754819D02*
X144076190Y-113135771D01*
X144076190Y-113135771D02*
X144219047Y-113135771D01*
X144219047Y-113135771D02*
X144314285Y-113183390D01*
X144314285Y-113183390D02*
X144361904Y-113231009D01*
X144361904Y-113231009D02*
X144409523Y-113326247D01*
X144409523Y-113326247D02*
X144409523Y-113564342D01*
X144409523Y-113564342D02*
X144361904Y-113659580D01*
X144361904Y-113659580D02*
X144314285Y-113707200D01*
X144314285Y-113707200D02*
X144219047Y-113754819D01*
X144219047Y-113754819D02*
X143933333Y-113754819D01*
X143933333Y-113754819D02*
X143838095Y-113707200D01*
X143838095Y-113707200D02*
X143790476Y-113659580D01*
X133690476Y-81454819D02*
X133690476Y-80454819D01*
X133690476Y-80454819D02*
X134023809Y-81169104D01*
X134023809Y-81169104D02*
X134357142Y-80454819D01*
X134357142Y-80454819D02*
X134357142Y-81454819D01*
X135357142Y-81454819D02*
X134785714Y-81454819D01*
X135071428Y-81454819D02*
X135071428Y-80454819D01*
X135071428Y-80454819D02*
X134976190Y-80597676D01*
X134976190Y-80597676D02*
X134880952Y-80692914D01*
X134880952Y-80692914D02*
X134785714Y-80740533D01*
X132699580Y-94666666D02*
X132747200Y-94714285D01*
X132747200Y-94714285D02*
X132794819Y-94857142D01*
X132794819Y-94857142D02*
X132794819Y-94952380D01*
X132794819Y-94952380D02*
X132747200Y-95095237D01*
X132747200Y-95095237D02*
X132651961Y-95190475D01*
X132651961Y-95190475D02*
X132556723Y-95238094D01*
X132556723Y-95238094D02*
X132366247Y-95285713D01*
X132366247Y-95285713D02*
X132223390Y-95285713D01*
X132223390Y-95285713D02*
X132032914Y-95238094D01*
X132032914Y-95238094D02*
X131937676Y-95190475D01*
X131937676Y-95190475D02*
X131842438Y-95095237D01*
X131842438Y-95095237D02*
X131794819Y-94952380D01*
X131794819Y-94952380D02*
X131794819Y-94857142D01*
X131794819Y-94857142D02*
X131842438Y-94714285D01*
X131842438Y-94714285D02*
X131890057Y-94666666D01*
X131794819Y-93809523D02*
X131794819Y-93999999D01*
X131794819Y-93999999D02*
X131842438Y-94095237D01*
X131842438Y-94095237D02*
X131890057Y-94142856D01*
X131890057Y-94142856D02*
X132032914Y-94238094D01*
X132032914Y-94238094D02*
X132223390Y-94285713D01*
X132223390Y-94285713D02*
X132604342Y-94285713D01*
X132604342Y-94285713D02*
X132699580Y-94238094D01*
X132699580Y-94238094D02*
X132747200Y-94190475D01*
X132747200Y-94190475D02*
X132794819Y-94095237D01*
X132794819Y-94095237D02*
X132794819Y-93904761D01*
X132794819Y-93904761D02*
X132747200Y-93809523D01*
X132747200Y-93809523D02*
X132699580Y-93761904D01*
X132699580Y-93761904D02*
X132604342Y-93714285D01*
X132604342Y-93714285D02*
X132366247Y-93714285D01*
X132366247Y-93714285D02*
X132271009Y-93761904D01*
X132271009Y-93761904D02*
X132223390Y-93809523D01*
X132223390Y-93809523D02*
X132175771Y-93904761D01*
X132175771Y-93904761D02*
X132175771Y-94095237D01*
X132175771Y-94095237D02*
X132223390Y-94190475D01*
X132223390Y-94190475D02*
X132271009Y-94238094D01*
X132271009Y-94238094D02*
X132366247Y-94285713D01*
X137784819Y-113656666D02*
X137308628Y-113989999D01*
X137784819Y-114228094D02*
X136784819Y-114228094D01*
X136784819Y-114228094D02*
X136784819Y-113847142D01*
X136784819Y-113847142D02*
X136832438Y-113751904D01*
X136832438Y-113751904D02*
X136880057Y-113704285D01*
X136880057Y-113704285D02*
X136975295Y-113656666D01*
X136975295Y-113656666D02*
X137118152Y-113656666D01*
X137118152Y-113656666D02*
X137213390Y-113704285D01*
X137213390Y-113704285D02*
X137261009Y-113751904D01*
X137261009Y-113751904D02*
X137308628Y-113847142D01*
X137308628Y-113847142D02*
X137308628Y-114228094D01*
X136784819Y-113323332D02*
X136784819Y-112704285D01*
X136784819Y-112704285D02*
X137165771Y-113037618D01*
X137165771Y-113037618D02*
X137165771Y-112894761D01*
X137165771Y-112894761D02*
X137213390Y-112799523D01*
X137213390Y-112799523D02*
X137261009Y-112751904D01*
X137261009Y-112751904D02*
X137356247Y-112704285D01*
X137356247Y-112704285D02*
X137594342Y-112704285D01*
X137594342Y-112704285D02*
X137689580Y-112751904D01*
X137689580Y-112751904D02*
X137737200Y-112799523D01*
X137737200Y-112799523D02*
X137784819Y-112894761D01*
X137784819Y-112894761D02*
X137784819Y-113180475D01*
X137784819Y-113180475D02*
X137737200Y-113275713D01*
X137737200Y-113275713D02*
X137689580Y-113323332D01*
X132699580Y-97166666D02*
X132747200Y-97214285D01*
X132747200Y-97214285D02*
X132794819Y-97357142D01*
X132794819Y-97357142D02*
X132794819Y-97452380D01*
X132794819Y-97452380D02*
X132747200Y-97595237D01*
X132747200Y-97595237D02*
X132651961Y-97690475D01*
X132651961Y-97690475D02*
X132556723Y-97738094D01*
X132556723Y-97738094D02*
X132366247Y-97785713D01*
X132366247Y-97785713D02*
X132223390Y-97785713D01*
X132223390Y-97785713D02*
X132032914Y-97738094D01*
X132032914Y-97738094D02*
X131937676Y-97690475D01*
X131937676Y-97690475D02*
X131842438Y-97595237D01*
X131842438Y-97595237D02*
X131794819Y-97452380D01*
X131794819Y-97452380D02*
X131794819Y-97357142D01*
X131794819Y-97357142D02*
X131842438Y-97214285D01*
X131842438Y-97214285D02*
X131890057Y-97166666D01*
X132128152Y-96309523D02*
X132794819Y-96309523D01*
X131747200Y-96547618D02*
X132461485Y-96785713D01*
X132461485Y-96785713D02*
X132461485Y-96166666D01*
X133833333Y-140429580D02*
X133785714Y-140477200D01*
X133785714Y-140477200D02*
X133642857Y-140524819D01*
X133642857Y-140524819D02*
X133547619Y-140524819D01*
X133547619Y-140524819D02*
X133404762Y-140477200D01*
X133404762Y-140477200D02*
X133309524Y-140381961D01*
X133309524Y-140381961D02*
X133261905Y-140286723D01*
X133261905Y-140286723D02*
X133214286Y-140096247D01*
X133214286Y-140096247D02*
X133214286Y-139953390D01*
X133214286Y-139953390D02*
X133261905Y-139762914D01*
X133261905Y-139762914D02*
X133309524Y-139667676D01*
X133309524Y-139667676D02*
X133404762Y-139572438D01*
X133404762Y-139572438D02*
X133547619Y-139524819D01*
X133547619Y-139524819D02*
X133642857Y-139524819D01*
X133642857Y-139524819D02*
X133785714Y-139572438D01*
X133785714Y-139572438D02*
X133833333Y-139620057D01*
X134404762Y-139953390D02*
X134309524Y-139905771D01*
X134309524Y-139905771D02*
X134261905Y-139858152D01*
X134261905Y-139858152D02*
X134214286Y-139762914D01*
X134214286Y-139762914D02*
X134214286Y-139715295D01*
X134214286Y-139715295D02*
X134261905Y-139620057D01*
X134261905Y-139620057D02*
X134309524Y-139572438D01*
X134309524Y-139572438D02*
X134404762Y-139524819D01*
X134404762Y-139524819D02*
X134595238Y-139524819D01*
X134595238Y-139524819D02*
X134690476Y-139572438D01*
X134690476Y-139572438D02*
X134738095Y-139620057D01*
X134738095Y-139620057D02*
X134785714Y-139715295D01*
X134785714Y-139715295D02*
X134785714Y-139762914D01*
X134785714Y-139762914D02*
X134738095Y-139858152D01*
X134738095Y-139858152D02*
X134690476Y-139905771D01*
X134690476Y-139905771D02*
X134595238Y-139953390D01*
X134595238Y-139953390D02*
X134404762Y-139953390D01*
X134404762Y-139953390D02*
X134309524Y-140001009D01*
X134309524Y-140001009D02*
X134261905Y-140048628D01*
X134261905Y-140048628D02*
X134214286Y-140143866D01*
X134214286Y-140143866D02*
X134214286Y-140334342D01*
X134214286Y-140334342D02*
X134261905Y-140429580D01*
X134261905Y-140429580D02*
X134309524Y-140477200D01*
X134309524Y-140477200D02*
X134404762Y-140524819D01*
X134404762Y-140524819D02*
X134595238Y-140524819D01*
X134595238Y-140524819D02*
X134690476Y-140477200D01*
X134690476Y-140477200D02*
X134738095Y-140429580D01*
X134738095Y-140429580D02*
X134785714Y-140334342D01*
X134785714Y-140334342D02*
X134785714Y-140143866D01*
X134785714Y-140143866D02*
X134738095Y-140048628D01*
X134738095Y-140048628D02*
X134690476Y-140001009D01*
X134690476Y-140001009D02*
X134595238Y-139953390D01*
X142323333Y-121284819D02*
X141990000Y-120808628D01*
X141751905Y-121284819D02*
X141751905Y-120284819D01*
X141751905Y-120284819D02*
X142132857Y-120284819D01*
X142132857Y-120284819D02*
X142228095Y-120332438D01*
X142228095Y-120332438D02*
X142275714Y-120380057D01*
X142275714Y-120380057D02*
X142323333Y-120475295D01*
X142323333Y-120475295D02*
X142323333Y-120618152D01*
X142323333Y-120618152D02*
X142275714Y-120713390D01*
X142275714Y-120713390D02*
X142228095Y-120761009D01*
X142228095Y-120761009D02*
X142132857Y-120808628D01*
X142132857Y-120808628D02*
X141751905Y-120808628D01*
X143275714Y-121284819D02*
X142704286Y-121284819D01*
X142990000Y-121284819D02*
X142990000Y-120284819D01*
X142990000Y-120284819D02*
X142894762Y-120427676D01*
X142894762Y-120427676D02*
X142799524Y-120522914D01*
X142799524Y-120522914D02*
X142704286Y-120570533D01*
X136238095Y-125554819D02*
X136238095Y-126364342D01*
X136238095Y-126364342D02*
X136285714Y-126459580D01*
X136285714Y-126459580D02*
X136333333Y-126507200D01*
X136333333Y-126507200D02*
X136428571Y-126554819D01*
X136428571Y-126554819D02*
X136619047Y-126554819D01*
X136619047Y-126554819D02*
X136714285Y-126507200D01*
X136714285Y-126507200D02*
X136761904Y-126459580D01*
X136761904Y-126459580D02*
X136809523Y-126364342D01*
X136809523Y-126364342D02*
X136809523Y-125554819D01*
X137761904Y-125554819D02*
X137285714Y-125554819D01*
X137285714Y-125554819D02*
X137238095Y-126031009D01*
X137238095Y-126031009D02*
X137285714Y-125983390D01*
X137285714Y-125983390D02*
X137380952Y-125935771D01*
X137380952Y-125935771D02*
X137619047Y-125935771D01*
X137619047Y-125935771D02*
X137714285Y-125983390D01*
X137714285Y-125983390D02*
X137761904Y-126031009D01*
X137761904Y-126031009D02*
X137809523Y-126126247D01*
X137809523Y-126126247D02*
X137809523Y-126364342D01*
X137809523Y-126364342D02*
X137761904Y-126459580D01*
X137761904Y-126459580D02*
X137714285Y-126507200D01*
X137714285Y-126507200D02*
X137619047Y-126554819D01*
X137619047Y-126554819D02*
X137380952Y-126554819D01*
X137380952Y-126554819D02*
X137285714Y-126507200D01*
X137285714Y-126507200D02*
X137238095Y-126459580D01*
X135766666Y-113014819D02*
X135766666Y-113729104D01*
X135766666Y-113729104D02*
X135719047Y-113871961D01*
X135719047Y-113871961D02*
X135623809Y-113967200D01*
X135623809Y-113967200D02*
X135480952Y-114014819D01*
X135480952Y-114014819D02*
X135385714Y-114014819D01*
X136147619Y-113014819D02*
X136766666Y-113014819D01*
X136766666Y-113014819D02*
X136433333Y-113395771D01*
X136433333Y-113395771D02*
X136576190Y-113395771D01*
X136576190Y-113395771D02*
X136671428Y-113443390D01*
X136671428Y-113443390D02*
X136719047Y-113491009D01*
X136719047Y-113491009D02*
X136766666Y-113586247D01*
X136766666Y-113586247D02*
X136766666Y-113824342D01*
X136766666Y-113824342D02*
X136719047Y-113919580D01*
X136719047Y-113919580D02*
X136671428Y-113967200D01*
X136671428Y-113967200D02*
X136576190Y-114014819D01*
X136576190Y-114014819D02*
X136290476Y-114014819D01*
X136290476Y-114014819D02*
X136195238Y-113967200D01*
X136195238Y-113967200D02*
X136147619Y-113919580D01*
X132699580Y-90162857D02*
X132747200Y-90210476D01*
X132747200Y-90210476D02*
X132794819Y-90353333D01*
X132794819Y-90353333D02*
X132794819Y-90448571D01*
X132794819Y-90448571D02*
X132747200Y-90591428D01*
X132747200Y-90591428D02*
X132651961Y-90686666D01*
X132651961Y-90686666D02*
X132556723Y-90734285D01*
X132556723Y-90734285D02*
X132366247Y-90781904D01*
X132366247Y-90781904D02*
X132223390Y-90781904D01*
X132223390Y-90781904D02*
X132032914Y-90734285D01*
X132032914Y-90734285D02*
X131937676Y-90686666D01*
X131937676Y-90686666D02*
X131842438Y-90591428D01*
X131842438Y-90591428D02*
X131794819Y-90448571D01*
X131794819Y-90448571D02*
X131794819Y-90353333D01*
X131794819Y-90353333D02*
X131842438Y-90210476D01*
X131842438Y-90210476D02*
X131890057Y-90162857D01*
X132794819Y-89210476D02*
X132794819Y-89781904D01*
X132794819Y-89496190D02*
X131794819Y-89496190D01*
X131794819Y-89496190D02*
X131937676Y-89591428D01*
X131937676Y-89591428D02*
X132032914Y-89686666D01*
X132032914Y-89686666D02*
X132080533Y-89781904D01*
X131794819Y-88591428D02*
X131794819Y-88496190D01*
X131794819Y-88496190D02*
X131842438Y-88400952D01*
X131842438Y-88400952D02*
X131890057Y-88353333D01*
X131890057Y-88353333D02*
X131985295Y-88305714D01*
X131985295Y-88305714D02*
X132175771Y-88258095D01*
X132175771Y-88258095D02*
X132413866Y-88258095D01*
X132413866Y-88258095D02*
X132604342Y-88305714D01*
X132604342Y-88305714D02*
X132699580Y-88353333D01*
X132699580Y-88353333D02*
X132747200Y-88400952D01*
X132747200Y-88400952D02*
X132794819Y-88496190D01*
X132794819Y-88496190D02*
X132794819Y-88591428D01*
X132794819Y-88591428D02*
X132747200Y-88686666D01*
X132747200Y-88686666D02*
X132699580Y-88734285D01*
X132699580Y-88734285D02*
X132604342Y-88781904D01*
X132604342Y-88781904D02*
X132413866Y-88829523D01*
X132413866Y-88829523D02*
X132175771Y-88829523D01*
X132175771Y-88829523D02*
X131985295Y-88781904D01*
X131985295Y-88781904D02*
X131890057Y-88734285D01*
X131890057Y-88734285D02*
X131842438Y-88686666D01*
X131842438Y-88686666D02*
X131794819Y-88591428D01*
X131174819Y-77833333D02*
X131889104Y-77833333D01*
X131889104Y-77833333D02*
X132031961Y-77880952D01*
X132031961Y-77880952D02*
X132127200Y-77976190D01*
X132127200Y-77976190D02*
X132174819Y-78119047D01*
X132174819Y-78119047D02*
X132174819Y-78214285D01*
X131174819Y-76880952D02*
X131174819Y-77357142D01*
X131174819Y-77357142D02*
X131651009Y-77404761D01*
X131651009Y-77404761D02*
X131603390Y-77357142D01*
X131603390Y-77357142D02*
X131555771Y-77261904D01*
X131555771Y-77261904D02*
X131555771Y-77023809D01*
X131555771Y-77023809D02*
X131603390Y-76928571D01*
X131603390Y-76928571D02*
X131651009Y-76880952D01*
X131651009Y-76880952D02*
X131746247Y-76833333D01*
X131746247Y-76833333D02*
X131984342Y-76833333D01*
X131984342Y-76833333D02*
X132079580Y-76880952D01*
X132079580Y-76880952D02*
X132127200Y-76928571D01*
X132127200Y-76928571D02*
X132174819Y-77023809D01*
X132174819Y-77023809D02*
X132174819Y-77261904D01*
X132174819Y-77261904D02*
X132127200Y-77357142D01*
X132127200Y-77357142D02*
X132079580Y-77404761D01*
X131784819Y-136166666D02*
X131308628Y-136499999D01*
X131784819Y-136738094D02*
X130784819Y-136738094D01*
X130784819Y-136738094D02*
X130784819Y-136357142D01*
X130784819Y-136357142D02*
X130832438Y-136261904D01*
X130832438Y-136261904D02*
X130880057Y-136214285D01*
X130880057Y-136214285D02*
X130975295Y-136166666D01*
X130975295Y-136166666D02*
X131118152Y-136166666D01*
X131118152Y-136166666D02*
X131213390Y-136214285D01*
X131213390Y-136214285D02*
X131261009Y-136261904D01*
X131261009Y-136261904D02*
X131308628Y-136357142D01*
X131308628Y-136357142D02*
X131308628Y-136738094D01*
X130784819Y-135833332D02*
X130784819Y-135166666D01*
X130784819Y-135166666D02*
X131784819Y-135595237D01*
X133284819Y-87656666D02*
X132808628Y-87989999D01*
X133284819Y-88228094D02*
X132284819Y-88228094D01*
X132284819Y-88228094D02*
X132284819Y-87847142D01*
X132284819Y-87847142D02*
X132332438Y-87751904D01*
X132332438Y-87751904D02*
X132380057Y-87704285D01*
X132380057Y-87704285D02*
X132475295Y-87656666D01*
X132475295Y-87656666D02*
X132618152Y-87656666D01*
X132618152Y-87656666D02*
X132713390Y-87704285D01*
X132713390Y-87704285D02*
X132761009Y-87751904D01*
X132761009Y-87751904D02*
X132808628Y-87847142D01*
X132808628Y-87847142D02*
X132808628Y-88228094D01*
X132618152Y-86799523D02*
X133284819Y-86799523D01*
X132237200Y-87037618D02*
X132951485Y-87275713D01*
X132951485Y-87275713D02*
X132951485Y-86656666D01*
X134108333Y-137929580D02*
X134060714Y-137977200D01*
X134060714Y-137977200D02*
X133917857Y-138024819D01*
X133917857Y-138024819D02*
X133822619Y-138024819D01*
X133822619Y-138024819D02*
X133679762Y-137977200D01*
X133679762Y-137977200D02*
X133584524Y-137881961D01*
X133584524Y-137881961D02*
X133536905Y-137786723D01*
X133536905Y-137786723D02*
X133489286Y-137596247D01*
X133489286Y-137596247D02*
X133489286Y-137453390D01*
X133489286Y-137453390D02*
X133536905Y-137262914D01*
X133536905Y-137262914D02*
X133584524Y-137167676D01*
X133584524Y-137167676D02*
X133679762Y-137072438D01*
X133679762Y-137072438D02*
X133822619Y-137024819D01*
X133822619Y-137024819D02*
X133917857Y-137024819D01*
X133917857Y-137024819D02*
X134060714Y-137072438D01*
X134060714Y-137072438D02*
X134108333Y-137120057D01*
X134584524Y-138024819D02*
X134775000Y-138024819D01*
X134775000Y-138024819D02*
X134870238Y-137977200D01*
X134870238Y-137977200D02*
X134917857Y-137929580D01*
X134917857Y-137929580D02*
X135013095Y-137786723D01*
X135013095Y-137786723D02*
X135060714Y-137596247D01*
X135060714Y-137596247D02*
X135060714Y-137215295D01*
X135060714Y-137215295D02*
X135013095Y-137120057D01*
X135013095Y-137120057D02*
X134965476Y-137072438D01*
X134965476Y-137072438D02*
X134870238Y-137024819D01*
X134870238Y-137024819D02*
X134679762Y-137024819D01*
X134679762Y-137024819D02*
X134584524Y-137072438D01*
X134584524Y-137072438D02*
X134536905Y-137120057D01*
X134536905Y-137120057D02*
X134489286Y-137215295D01*
X134489286Y-137215295D02*
X134489286Y-137453390D01*
X134489286Y-137453390D02*
X134536905Y-137548628D01*
X134536905Y-137548628D02*
X134584524Y-137596247D01*
X134584524Y-137596247D02*
X134679762Y-137643866D01*
X134679762Y-137643866D02*
X134870238Y-137643866D01*
X134870238Y-137643866D02*
X134965476Y-137596247D01*
X134965476Y-137596247D02*
X135013095Y-137548628D01*
X135013095Y-137548628D02*
X135060714Y-137453390D01*
X143784819Y-121156666D02*
X143308628Y-121489999D01*
X143784819Y-121728094D02*
X142784819Y-121728094D01*
X142784819Y-121728094D02*
X142784819Y-121347142D01*
X142784819Y-121347142D02*
X142832438Y-121251904D01*
X142832438Y-121251904D02*
X142880057Y-121204285D01*
X142880057Y-121204285D02*
X142975295Y-121156666D01*
X142975295Y-121156666D02*
X143118152Y-121156666D01*
X143118152Y-121156666D02*
X143213390Y-121204285D01*
X143213390Y-121204285D02*
X143261009Y-121251904D01*
X143261009Y-121251904D02*
X143308628Y-121347142D01*
X143308628Y-121347142D02*
X143308628Y-121728094D01*
X142784819Y-120251904D02*
X142784819Y-120728094D01*
X142784819Y-120728094D02*
X143261009Y-120775713D01*
X143261009Y-120775713D02*
X143213390Y-120728094D01*
X143213390Y-120728094D02*
X143165771Y-120632856D01*
X143165771Y-120632856D02*
X143165771Y-120394761D01*
X143165771Y-120394761D02*
X143213390Y-120299523D01*
X143213390Y-120299523D02*
X143261009Y-120251904D01*
X143261009Y-120251904D02*
X143356247Y-120204285D01*
X143356247Y-120204285D02*
X143594342Y-120204285D01*
X143594342Y-120204285D02*
X143689580Y-120251904D01*
X143689580Y-120251904D02*
X143737200Y-120299523D01*
X143737200Y-120299523D02*
X143784819Y-120394761D01*
X143784819Y-120394761D02*
X143784819Y-120632856D01*
X143784819Y-120632856D02*
X143737200Y-120728094D01*
X143737200Y-120728094D02*
X143689580Y-120775713D01*
X144519580Y-102686666D02*
X144567200Y-102734285D01*
X144567200Y-102734285D02*
X144614819Y-102877142D01*
X144614819Y-102877142D02*
X144614819Y-102972380D01*
X144614819Y-102972380D02*
X144567200Y-103115237D01*
X144567200Y-103115237D02*
X144471961Y-103210475D01*
X144471961Y-103210475D02*
X144376723Y-103258094D01*
X144376723Y-103258094D02*
X144186247Y-103305713D01*
X144186247Y-103305713D02*
X144043390Y-103305713D01*
X144043390Y-103305713D02*
X143852914Y-103258094D01*
X143852914Y-103258094D02*
X143757676Y-103210475D01*
X143757676Y-103210475D02*
X143662438Y-103115237D01*
X143662438Y-103115237D02*
X143614819Y-102972380D01*
X143614819Y-102972380D02*
X143614819Y-102877142D01*
X143614819Y-102877142D02*
X143662438Y-102734285D01*
X143662438Y-102734285D02*
X143710057Y-102686666D01*
X143710057Y-102305713D02*
X143662438Y-102258094D01*
X143662438Y-102258094D02*
X143614819Y-102162856D01*
X143614819Y-102162856D02*
X143614819Y-101924761D01*
X143614819Y-101924761D02*
X143662438Y-101829523D01*
X143662438Y-101829523D02*
X143710057Y-101781904D01*
X143710057Y-101781904D02*
X143805295Y-101734285D01*
X143805295Y-101734285D02*
X143900533Y-101734285D01*
X143900533Y-101734285D02*
X144043390Y-101781904D01*
X144043390Y-101781904D02*
X144614819Y-102353332D01*
X144614819Y-102353332D02*
X144614819Y-101734285D01*
X143784819Y-124156666D02*
X143308628Y-124489999D01*
X143784819Y-124728094D02*
X142784819Y-124728094D01*
X142784819Y-124728094D02*
X142784819Y-124347142D01*
X142784819Y-124347142D02*
X142832438Y-124251904D01*
X142832438Y-124251904D02*
X142880057Y-124204285D01*
X142880057Y-124204285D02*
X142975295Y-124156666D01*
X142975295Y-124156666D02*
X143118152Y-124156666D01*
X143118152Y-124156666D02*
X143213390Y-124204285D01*
X143213390Y-124204285D02*
X143261009Y-124251904D01*
X143261009Y-124251904D02*
X143308628Y-124347142D01*
X143308628Y-124347142D02*
X143308628Y-124728094D01*
X142880057Y-123775713D02*
X142832438Y-123728094D01*
X142832438Y-123728094D02*
X142784819Y-123632856D01*
X142784819Y-123632856D02*
X142784819Y-123394761D01*
X142784819Y-123394761D02*
X142832438Y-123299523D01*
X142832438Y-123299523D02*
X142880057Y-123251904D01*
X142880057Y-123251904D02*
X142975295Y-123204285D01*
X142975295Y-123204285D02*
X143070533Y-123204285D01*
X143070533Y-123204285D02*
X143213390Y-123251904D01*
X143213390Y-123251904D02*
X143784819Y-123823332D01*
X143784819Y-123823332D02*
X143784819Y-123204285D01*
X132699580Y-100166666D02*
X132747200Y-100214285D01*
X132747200Y-100214285D02*
X132794819Y-100357142D01*
X132794819Y-100357142D02*
X132794819Y-100452380D01*
X132794819Y-100452380D02*
X132747200Y-100595237D01*
X132747200Y-100595237D02*
X132651961Y-100690475D01*
X132651961Y-100690475D02*
X132556723Y-100738094D01*
X132556723Y-100738094D02*
X132366247Y-100785713D01*
X132366247Y-100785713D02*
X132223390Y-100785713D01*
X132223390Y-100785713D02*
X132032914Y-100738094D01*
X132032914Y-100738094D02*
X131937676Y-100690475D01*
X131937676Y-100690475D02*
X131842438Y-100595237D01*
X131842438Y-100595237D02*
X131794819Y-100452380D01*
X131794819Y-100452380D02*
X131794819Y-100357142D01*
X131794819Y-100357142D02*
X131842438Y-100214285D01*
X131842438Y-100214285D02*
X131890057Y-100166666D01*
X131794819Y-99261904D02*
X131794819Y-99738094D01*
X131794819Y-99738094D02*
X132271009Y-99785713D01*
X132271009Y-99785713D02*
X132223390Y-99738094D01*
X132223390Y-99738094D02*
X132175771Y-99642856D01*
X132175771Y-99642856D02*
X132175771Y-99404761D01*
X132175771Y-99404761D02*
X132223390Y-99309523D01*
X132223390Y-99309523D02*
X132271009Y-99261904D01*
X132271009Y-99261904D02*
X132366247Y-99214285D01*
X132366247Y-99214285D02*
X132604342Y-99214285D01*
X132604342Y-99214285D02*
X132699580Y-99261904D01*
X132699580Y-99261904D02*
X132747200Y-99309523D01*
X132747200Y-99309523D02*
X132794819Y-99404761D01*
X132794819Y-99404761D02*
X132794819Y-99642856D01*
X132794819Y-99642856D02*
X132747200Y-99738094D01*
X132747200Y-99738094D02*
X132699580Y-99785713D01*
X138773809Y-99978628D02*
X138773809Y-100454819D01*
X138440476Y-99454819D02*
X138773809Y-99978628D01*
X138773809Y-99978628D02*
X139107142Y-99454819D01*
X139964285Y-100454819D02*
X139392857Y-100454819D01*
X139678571Y-100454819D02*
X139678571Y-99454819D01*
X139678571Y-99454819D02*
X139583333Y-99597676D01*
X139583333Y-99597676D02*
X139488095Y-99692914D01*
X139488095Y-99692914D02*
X139392857Y-99740533D01*
X140366666Y-72674819D02*
X140366666Y-73389104D01*
X140366666Y-73389104D02*
X140319047Y-73531961D01*
X140319047Y-73531961D02*
X140223809Y-73627200D01*
X140223809Y-73627200D02*
X140080952Y-73674819D01*
X140080952Y-73674819D02*
X139985714Y-73674819D01*
X140747619Y-72674819D02*
X141414285Y-72674819D01*
X141414285Y-72674819D02*
X140985714Y-73674819D01*
X139338095Y-112654819D02*
X139338095Y-113464342D01*
X139338095Y-113464342D02*
X139385714Y-113559580D01*
X139385714Y-113559580D02*
X139433333Y-113607200D01*
X139433333Y-113607200D02*
X139528571Y-113654819D01*
X139528571Y-113654819D02*
X139719047Y-113654819D01*
X139719047Y-113654819D02*
X139814285Y-113607200D01*
X139814285Y-113607200D02*
X139861904Y-113559580D01*
X139861904Y-113559580D02*
X139909523Y-113464342D01*
X139909523Y-113464342D02*
X139909523Y-112654819D01*
X140338095Y-112750057D02*
X140385714Y-112702438D01*
X140385714Y-112702438D02*
X140480952Y-112654819D01*
X140480952Y-112654819D02*
X140719047Y-112654819D01*
X140719047Y-112654819D02*
X140814285Y-112702438D01*
X140814285Y-112702438D02*
X140861904Y-112750057D01*
X140861904Y-112750057D02*
X140909523Y-112845295D01*
X140909523Y-112845295D02*
X140909523Y-112940533D01*
X140909523Y-112940533D02*
X140861904Y-113083390D01*
X140861904Y-113083390D02*
X140290476Y-113654819D01*
X140290476Y-113654819D02*
X140909523Y-113654819D01*
X133524819Y-135666666D02*
X133524819Y-136142856D01*
X133524819Y-136142856D02*
X132524819Y-136142856D01*
X133524819Y-134809523D02*
X133524819Y-135380951D01*
X133524819Y-135095237D02*
X132524819Y-135095237D01*
X132524819Y-135095237D02*
X132667676Y-135190475D01*
X132667676Y-135190475D02*
X132762914Y-135285713D01*
X132762914Y-135285713D02*
X132810533Y-135380951D01*
X136104819Y-91833333D02*
X136819104Y-91833333D01*
X136819104Y-91833333D02*
X136961961Y-91880952D01*
X136961961Y-91880952D02*
X137057200Y-91976190D01*
X137057200Y-91976190D02*
X137104819Y-92119047D01*
X137104819Y-92119047D02*
X137104819Y-92214285D01*
X136104819Y-90928571D02*
X136104819Y-91119047D01*
X136104819Y-91119047D02*
X136152438Y-91214285D01*
X136152438Y-91214285D02*
X136200057Y-91261904D01*
X136200057Y-91261904D02*
X136342914Y-91357142D01*
X136342914Y-91357142D02*
X136533390Y-91404761D01*
X136533390Y-91404761D02*
X136914342Y-91404761D01*
X136914342Y-91404761D02*
X137009580Y-91357142D01*
X137009580Y-91357142D02*
X137057200Y-91309523D01*
X137057200Y-91309523D02*
X137104819Y-91214285D01*
X137104819Y-91214285D02*
X137104819Y-91023809D01*
X137104819Y-91023809D02*
X137057200Y-90928571D01*
X137057200Y-90928571D02*
X137009580Y-90880952D01*
X137009580Y-90880952D02*
X136914342Y-90833333D01*
X136914342Y-90833333D02*
X136676247Y-90833333D01*
X136676247Y-90833333D02*
X136581009Y-90880952D01*
X136581009Y-90880952D02*
X136533390Y-90928571D01*
X136533390Y-90928571D02*
X136485771Y-91023809D01*
X136485771Y-91023809D02*
X136485771Y-91214285D01*
X136485771Y-91214285D02*
X136533390Y-91309523D01*
X136533390Y-91309523D02*
X136581009Y-91357142D01*
X136581009Y-91357142D02*
X136676247Y-91404761D01*
X135699580Y-102166666D02*
X135747200Y-102214285D01*
X135747200Y-102214285D02*
X135794819Y-102357142D01*
X135794819Y-102357142D02*
X135794819Y-102452380D01*
X135794819Y-102452380D02*
X135747200Y-102595237D01*
X135747200Y-102595237D02*
X135651961Y-102690475D01*
X135651961Y-102690475D02*
X135556723Y-102738094D01*
X135556723Y-102738094D02*
X135366247Y-102785713D01*
X135366247Y-102785713D02*
X135223390Y-102785713D01*
X135223390Y-102785713D02*
X135032914Y-102738094D01*
X135032914Y-102738094D02*
X134937676Y-102690475D01*
X134937676Y-102690475D02*
X134842438Y-102595237D01*
X134842438Y-102595237D02*
X134794819Y-102452380D01*
X134794819Y-102452380D02*
X134794819Y-102357142D01*
X134794819Y-102357142D02*
X134842438Y-102214285D01*
X134842438Y-102214285D02*
X134890057Y-102166666D01*
X135794819Y-101214285D02*
X135794819Y-101785713D01*
X135794819Y-101499999D02*
X134794819Y-101499999D01*
X134794819Y-101499999D02*
X134937676Y-101595237D01*
X134937676Y-101595237D02*
X135032914Y-101690475D01*
X135032914Y-101690475D02*
X135080533Y-101785713D01*
X132699580Y-92166666D02*
X132747200Y-92214285D01*
X132747200Y-92214285D02*
X132794819Y-92357142D01*
X132794819Y-92357142D02*
X132794819Y-92452380D01*
X132794819Y-92452380D02*
X132747200Y-92595237D01*
X132747200Y-92595237D02*
X132651961Y-92690475D01*
X132651961Y-92690475D02*
X132556723Y-92738094D01*
X132556723Y-92738094D02*
X132366247Y-92785713D01*
X132366247Y-92785713D02*
X132223390Y-92785713D01*
X132223390Y-92785713D02*
X132032914Y-92738094D01*
X132032914Y-92738094D02*
X131937676Y-92690475D01*
X131937676Y-92690475D02*
X131842438Y-92595237D01*
X131842438Y-92595237D02*
X131794819Y-92452380D01*
X131794819Y-92452380D02*
X131794819Y-92357142D01*
X131794819Y-92357142D02*
X131842438Y-92214285D01*
X131842438Y-92214285D02*
X131890057Y-92166666D01*
X131794819Y-91833332D02*
X131794819Y-91166666D01*
X131794819Y-91166666D02*
X132794819Y-91595237D01*
X135566666Y-118204819D02*
X135566666Y-118919104D01*
X135566666Y-118919104D02*
X135519047Y-119061961D01*
X135519047Y-119061961D02*
X135423809Y-119157200D01*
X135423809Y-119157200D02*
X135280952Y-119204819D01*
X135280952Y-119204819D02*
X135185714Y-119204819D01*
X135995238Y-118300057D02*
X136042857Y-118252438D01*
X136042857Y-118252438D02*
X136138095Y-118204819D01*
X136138095Y-118204819D02*
X136376190Y-118204819D01*
X136376190Y-118204819D02*
X136471428Y-118252438D01*
X136471428Y-118252438D02*
X136519047Y-118300057D01*
X136519047Y-118300057D02*
X136566666Y-118395295D01*
X136566666Y-118395295D02*
X136566666Y-118490533D01*
X136566666Y-118490533D02*
X136519047Y-118633390D01*
X136519047Y-118633390D02*
X135947619Y-119204819D01*
X135947619Y-119204819D02*
X136566666Y-119204819D01*
X142333333Y-124784819D02*
X142000000Y-124308628D01*
X141761905Y-124784819D02*
X141761905Y-123784819D01*
X141761905Y-123784819D02*
X142142857Y-123784819D01*
X142142857Y-123784819D02*
X142238095Y-123832438D01*
X142238095Y-123832438D02*
X142285714Y-123880057D01*
X142285714Y-123880057D02*
X142333333Y-123975295D01*
X142333333Y-123975295D02*
X142333333Y-124118152D01*
X142333333Y-124118152D02*
X142285714Y-124213390D01*
X142285714Y-124213390D02*
X142238095Y-124261009D01*
X142238095Y-124261009D02*
X142142857Y-124308628D01*
X142142857Y-124308628D02*
X141761905Y-124308628D01*
X143190476Y-123784819D02*
X143000000Y-123784819D01*
X143000000Y-123784819D02*
X142904762Y-123832438D01*
X142904762Y-123832438D02*
X142857143Y-123880057D01*
X142857143Y-123880057D02*
X142761905Y-124022914D01*
X142761905Y-124022914D02*
X142714286Y-124213390D01*
X142714286Y-124213390D02*
X142714286Y-124594342D01*
X142714286Y-124594342D02*
X142761905Y-124689580D01*
X142761905Y-124689580D02*
X142809524Y-124737200D01*
X142809524Y-124737200D02*
X142904762Y-124784819D01*
X142904762Y-124784819D02*
X143095238Y-124784819D01*
X143095238Y-124784819D02*
X143190476Y-124737200D01*
X143190476Y-124737200D02*
X143238095Y-124689580D01*
X143238095Y-124689580D02*
X143285714Y-124594342D01*
X143285714Y-124594342D02*
X143285714Y-124356247D01*
X143285714Y-124356247D02*
X143238095Y-124261009D01*
X143238095Y-124261009D02*
X143190476Y-124213390D01*
X143190476Y-124213390D02*
X143095238Y-124165771D01*
X143095238Y-124165771D02*
X142904762Y-124165771D01*
X142904762Y-124165771D02*
X142809524Y-124213390D01*
X142809524Y-124213390D02*
X142761905Y-124261009D01*
X142761905Y-124261009D02*
X142714286Y-124356247D01*
%TO.C,C3*%
D11*
X133860000Y-102627836D02*
X133860000Y-102412164D01*
X133140000Y-102627836D02*
X133140000Y-102412164D01*
%TO.C,J1*%
X141005000Y-131940000D02*
X139305000Y-131940000D01*
X141005000Y-141280000D02*
X139305000Y-141280000D01*
%TO.C,U4*%
X141452500Y-126990000D02*
X143272500Y-126990000D01*
X141452500Y-127040000D02*
X141452500Y-126990000D01*
X141452500Y-130110000D02*
X141452500Y-130060000D01*
X143272500Y-126990000D02*
X143272500Y-127040000D01*
X143272500Y-128160000D02*
X143272500Y-128940000D01*
X143272500Y-130060000D02*
X143272500Y-130110000D01*
X143272500Y-130110000D02*
X141452500Y-130110000D01*
X140912500Y-127040000D02*
X140672500Y-126710000D01*
X141152500Y-126710000D01*
X140912500Y-127040000D01*
G36*
X140912500Y-127040000D02*
G01*
X140672500Y-126710000D01*
X141152500Y-126710000D01*
X140912500Y-127040000D01*
G37*
%TO.C,U1*%
X135190000Y-104340000D02*
X135840000Y-104340000D01*
X135190000Y-104990000D02*
X135190000Y-104340000D01*
X135190000Y-111560000D02*
X135190000Y-110910000D01*
X135840000Y-111560000D02*
X135190000Y-111560000D01*
X141760000Y-104340000D02*
X142410000Y-104340000D01*
X142410000Y-104340000D02*
X142410000Y-104990000D01*
X142410000Y-110910000D02*
X142410000Y-111560000D01*
X142410000Y-111560000D02*
X141760000Y-111560000D01*
X134690000Y-105350000D02*
X134360000Y-105590000D01*
X134360000Y-105110000D01*
X134690000Y-105350000D01*
G36*
X134690000Y-105350000D02*
G01*
X134360000Y-105590000D01*
X134360000Y-105110000D01*
X134690000Y-105350000D01*
G37*
%TO.C,U3*%
X142950000Y-115750000D02*
X142950000Y-115850000D01*
X142950000Y-116550000D02*
X142950000Y-116650000D01*
X142950000Y-117350000D02*
X142950000Y-117550000D01*
X144250000Y-114150000D02*
X143600000Y-114150000D01*
X144250000Y-114550000D02*
X144250000Y-114150000D01*
X144250000Y-115250000D02*
X144250000Y-115450000D01*
X144250000Y-116150000D02*
X144250000Y-116250000D01*
X144250000Y-116950000D02*
X144250000Y-117150000D01*
X144250000Y-117850000D02*
X144250000Y-118250000D01*
X144250000Y-118250000D02*
X143050000Y-118250000D01*
X142780000Y-114200000D02*
X142500000Y-114200000D01*
X142780000Y-113920000D01*
X142780000Y-114200000D01*
G36*
X142780000Y-114200000D02*
G01*
X142500000Y-114200000D01*
X142780000Y-113920000D01*
X142780000Y-114200000D01*
G37*
%TO.C,M1*%
X136600000Y-84000000D02*
G75*
G02*
X132400000Y-84000000I-2100000J0D01*
G01*
X132400000Y-84000000D02*
G75*
G02*
X136600000Y-84000000I2100000J0D01*
G01*
%TO.C,C6*%
X133140000Y-94607836D02*
X133140000Y-94392164D01*
X133860000Y-94607836D02*
X133860000Y-94392164D01*
%TO.C,R3*%
X138120000Y-113643641D02*
X138120000Y-113336359D01*
X138880000Y-113643641D02*
X138880000Y-113336359D01*
%TO.C,C4*%
X133140000Y-97107836D02*
X133140000Y-96892164D01*
X133860000Y-97107836D02*
X133860000Y-96892164D01*
%TO.C,C8*%
X133859420Y-140990000D02*
X134140580Y-140990000D01*
X133859420Y-142010000D02*
X134140580Y-142010000D01*
%TO.C,R1*%
X142336359Y-121620000D02*
X142643641Y-121620000D01*
X142336359Y-122380000D02*
X142643641Y-122380000D01*
%TO.C,U5*%
X136090000Y-126940000D02*
X137910000Y-126940000D01*
X136090000Y-126990000D02*
X136090000Y-126940000D01*
X136090000Y-130060000D02*
X136090000Y-130010000D01*
X137910000Y-126940000D02*
X137910000Y-126990000D01*
X137910000Y-128110000D02*
X137910000Y-128890000D01*
X137910000Y-130010000D02*
X137910000Y-130060000D01*
X137910000Y-130060000D02*
X136090000Y-130060000D01*
X135550000Y-126990000D02*
X135310000Y-126660000D01*
X135790000Y-126660000D01*
X135550000Y-126990000D01*
G36*
X135550000Y-126990000D02*
G01*
X135310000Y-126660000D01*
X135790000Y-126660000D01*
X135550000Y-126990000D01*
G37*
%TO.C,J3*%
X136630000Y-114540000D02*
X135570000Y-114540000D01*
X136630000Y-118180000D02*
X135570000Y-118180000D01*
%TO.C,C10*%
X133140000Y-89627836D02*
X133140000Y-89412164D01*
X133860000Y-89627836D02*
X133860000Y-89412164D01*
%TO.C,R7*%
X132120000Y-136153641D02*
X132120000Y-135846359D01*
X132880000Y-136153641D02*
X132880000Y-135846359D01*
%TO.C,R4*%
X133620000Y-87643641D02*
X133620000Y-87336359D01*
X134380000Y-87643641D02*
X134380000Y-87336359D01*
%TO.C,C9*%
X134134420Y-138490000D02*
X134415580Y-138490000D01*
X134134420Y-139510000D02*
X134415580Y-139510000D01*
%TO.C,R5*%
X144120000Y-121143641D02*
X144120000Y-120836359D01*
X144880000Y-121143641D02*
X144880000Y-120836359D01*
%TO.C,C2*%
X142640000Y-102412164D02*
X142640000Y-102627836D01*
X143360000Y-102412164D02*
X143360000Y-102627836D01*
%TO.C,R2*%
X144120000Y-124143641D02*
X144120000Y-123836359D01*
X144880000Y-124143641D02*
X144880000Y-123836359D01*
%TO.C,C5*%
X133140000Y-100107836D02*
X133140000Y-99892164D01*
X133860000Y-100107836D02*
X133860000Y-99892164D01*
%TO.C,Y1*%
X138575000Y-101125000D02*
X139925000Y-101125000D01*
X138575000Y-102875000D02*
X139925000Y-102875000D01*
%TO.C,U2*%
X139450000Y-115650000D02*
X139450000Y-115750000D01*
X139450000Y-116450000D02*
X139450000Y-116550000D01*
X139450000Y-117250000D02*
X139450000Y-117450000D01*
X140750000Y-114050000D02*
X140100000Y-114050000D01*
X140750000Y-114450000D02*
X140750000Y-114050000D01*
X140750000Y-115150000D02*
X140750000Y-115350000D01*
X140750000Y-116050000D02*
X140750000Y-116150000D01*
X140750000Y-116850000D02*
X140750000Y-117050000D01*
X140750000Y-117750000D02*
X140750000Y-118150000D01*
X140750000Y-118150000D02*
X139550000Y-118150000D01*
X139280000Y-114100000D02*
X139000000Y-114100000D01*
X139280000Y-113820000D01*
X139280000Y-114100000D01*
G36*
X139280000Y-114100000D02*
G01*
X139000000Y-114100000D01*
X139280000Y-113820000D01*
X139280000Y-114100000D01*
G37*
%TO.C,L1*%
X133990000Y-135662779D02*
X133990000Y-135337221D01*
X135010000Y-135662779D02*
X135010000Y-135337221D01*
%TO.C,J6*%
X139050000Y-83850000D02*
X140390000Y-83850000D01*
X139050000Y-85340000D02*
X139050000Y-83850000D01*
X139050000Y-97660000D02*
X137850000Y-97660000D01*
X139050000Y-97660000D02*
X139050000Y-99150000D01*
X139050000Y-99150000D02*
X140390000Y-99150000D01*
X143110000Y-99150000D02*
X144850000Y-99150000D01*
X144850000Y-83850000D02*
X143110000Y-83850000D01*
X144850000Y-99150000D02*
X144850000Y-83850000D01*
%TO.C,C1*%
X136140000Y-102107836D02*
X136140000Y-101892164D01*
X136860000Y-102107836D02*
X136860000Y-101892164D01*
%TO.C,C7*%
X133140000Y-92107836D02*
X133140000Y-91892164D01*
X133860000Y-92107836D02*
X133860000Y-91892164D01*
%TO.C,J2*%
X136400000Y-119630000D02*
X135400000Y-119630000D01*
X136400000Y-123870000D02*
X135400000Y-123870000D01*
%TO.C,R6*%
X142346359Y-125120000D02*
X142653641Y-125120000D01*
X142346359Y-125880000D02*
X142653641Y-125880000D01*
%TD*%
M02*
