%TF.GenerationSoftware,KiCad,Pcbnew,10.0.5*%
%TF.CreationDate,2026-09-14T14:41:57-05:00*%
%TF.ProjectId,arc-insight-board,6172632d-696e-4736-9967-68742d626f61,rev?*%
%TF.SameCoordinates,PX7d687e0PY87e60a0*%
%TF.FileFunction,Copper,L2,Bot*%
%TF.FilePolarity,Positive*%
%FSLAX46Y46*%
G04 Gerber Fmt 4.6, Leading zero omitted, Abs format (unit mm)*
G04 Created by KiCad (PCBNEW 10.0.5) date 2026-09-14 14:41:57*
%MOMM*%
%LPD*%
G01*
G04 APERTURE LIST*
G04 Aperture macros list*
%AMRoundRect*
0 Rectangle with rounded corners*
0 $1 Rounding radius*
0 $2 $3 $4 $5 $6 $7 $8 $9 X,Y pos of 4 corners*
0 Add a 4 corners polygon primitive as box body*
4,1,4,$2,$3,$4,$5,$6,$7,$8,$9,$2,$3,0*
0 Add four circle primitives for the rounded corners*
1,1,$1+$1,$2,$3*
1,1,$1+$1,$4,$5*
1,1,$1+$1,$6,$7*
1,1,$1+$1,$8,$9*
0 Add four rect primitives between the rounded corners*
20,1,$1+$1,$2,$3,$4,$5,0*
20,1,$1+$1,$4,$5,$6,$7,0*
20,1,$1+$1,$6,$7,$8,$9,0*
20,1,$1+$1,$8,$9,$2,$3,0*%
G04 Aperture macros list end*
%TA.AperFunction,ComponentPad*%
%ADD10O,2.100000X1.000000*%
%TD*%
%TA.AperFunction,ComponentPad*%
%ADD11O,1.800000X1.000000*%
%TD*%
%TA.AperFunction,ComponentPad*%
%ADD12RoundRect,0.250000X-0.825000X-0.825000X0.825000X-0.825000X0.825000X0.825000X-0.825000X0.825000X0*%
%TD*%
%TA.AperFunction,ComponentPad*%
%ADD13C,2.150000*%
%TD*%
%TA.AperFunction,ComponentPad*%
%ADD14RoundRect,0.250000X0.825000X-0.825000X0.825000X0.825000X-0.825000X0.825000X-0.825000X-0.825000X0*%
%TD*%
%TA.AperFunction,ComponentPad*%
%ADD15R,2.000000X2.000000*%
%TD*%
%TA.AperFunction,ViaPad*%
%ADD16C,0.600000*%
%TD*%
%TA.AperFunction,Conductor*%
%ADD17C,0.127000*%
%TD*%
G04 APERTURE END LIST*
D10*
%TO.P,J1,SH,SHIELD_SH*%
%TO.N,unconnected-(J1-SHIELD-PadSH)_2*%
X6500000Y1570000D03*
D11*
%TO.N,unconnected-(J1-SHIELD-PadSH)_1*%
X10680000Y1570000D03*
D10*
%TO.N,unconnected-(J1-SHIELD-PadSH)_3*%
X6500000Y10210000D03*
D11*
%TO.N,unconnected-(J1-SHIELD-PadSH)*%
X10680000Y10210000D03*
%TD*%
D12*
%TO.P,J4,1,Pin_1_1*%
%TO.N,Net-(J4-Pin_1)*%
X6500000Y62500000D03*
D13*
%TO.P,J4,2,Pin_2_2*%
%TO.N,Net-(J4-Pin_2)*%
X11100000Y62500000D03*
%TD*%
D14*
%TO.P,J5,1,Pin_1_1*%
%TO.N,Net-(J5-Pin_1)*%
X2500000Y62700000D03*
D13*
%TO.P,J5,2,Pin_2_2*%
%TO.N,Net-(J5-Pin_2)*%
X2500000Y67300000D03*
%TD*%
D15*
%TO.P,REF\u002A\u002A,1*%
%TO.N,/TOUCH*%
X2000000Y11000000D03*
%TD*%
D12*
%TO.P,J7,1,Pin_1_1*%
%TO.N,/VBAT*%
X6900000Y67000000D03*
D13*
%TO.P,J7,2,Pin_2_2*%
%TO.N,GND*%
X11500000Y67000000D03*
%TD*%
D16*
%TO.N,GND*%
X2929400Y36460000D03*
X3818999Y28724029D03*
X1403164Y56096836D03*
X7000000Y59500000D03*
X4705700Y36500000D03*
X10882597Y27282539D03*
X7500000Y59000000D03*
X10000000Y64500000D03*
X1500000Y15500000D03*
X4000000Y38000000D03*
X4946914Y12053086D03*
X2776411Y51696733D03*
X7500000Y59000000D03*
X2500000Y14000000D03*
X8288000Y13500000D03*
X5500000Y58000000D03*
X8670545Y15562902D03*
X4046617Y31288883D03*
X1500000Y15500000D03*
X10271876Y20394208D03*
X6000000Y60500000D03*
X6140586Y11859414D03*
X12500000Y53500000D03*
X7000000Y59500000D03*
X12250000Y36250000D03*
X3500000Y9000000D03*
%TO.N,Net-(U4-IN)*%
X4907300Y6887700D03*
X10553185Y12366981D03*
%TO.N,Net-(J1-D--PadB7)*%
X9559000Y7000000D03*
X11500000Y26000000D03*
%TO.N,/VBAT*%
X9000000Y21500000D03*
X7970499Y22315829D03*
X3240500Y24000000D03*
X2347709Y27847709D03*
X11999749Y20530232D03*
X10269399Y25489888D03*
X7206586Y16293414D03*
X8180045Y17009500D03*
X8577935Y23775028D03*
%TO.N,Net-(J4-Pin_1)*%
X13300000Y28121223D03*
X12854308Y20691151D03*
%TO.N,Net-(J4-Pin_2)*%
X9485464Y11514536D03*
X12500000Y17000000D03*
X12500000Y11500000D03*
%TO.N,VCC*%
X2500000Y23500000D03*
X6009186Y22990814D03*
X3000000Y48500000D03*
X11990500Y31500000D03*
X3395960Y40884668D03*
X2001000Y8000000D03*
X9173400Y29608736D03*
X5500000Y57000000D03*
X6299013Y25097289D03*
X1000000Y8563500D03*
X2402000Y26360830D03*
%TO.N,Net-(U1-CHIP_PU)*%
X2956900Y35570100D03*
X11000000Y20500000D03*
%TO.N,Net-(J3-Pin_5)*%
X2121600Y29738773D03*
X4472998Y24780000D03*
%TO.N,Net-(J3-Pin_4)*%
X4385199Y25900400D03*
X3932100Y40308700D03*
X1631100Y33414500D03*
%TO.N,Net-(J3-Pin_3)*%
X2429300Y30807400D03*
X4433600Y46750000D03*
%TO.N,Net-(U1-GPIO6)*%
X3003800Y33148400D03*
X4692600Y53250000D03*
%TO.N,Net-(U1-GPIO7)*%
X5881800Y53814600D03*
X4686100Y33221900D03*
%TO.N,Net-(U1-GPIO8)*%
X2761200Y32350000D03*
X3995100Y47750000D03*
%TO.N,Net-(J2-Pin_3)*%
X1954111Y21793256D03*
X3328500Y31402200D03*
%TO.N,/GPIO10*%
X2000000Y21067703D03*
X10000000Y24239500D03*
X4974500Y23648900D03*
X11588890Y25214021D03*
X4171000Y30572600D03*
X7000000Y29000000D03*
%TO.N,/GPIO11*%
X6351972Y24331299D03*
X2000000Y20340700D03*
X6071299Y28528269D03*
X5009501Y30052371D03*
%TO.N,/GPIO12*%
X5933209Y30273000D03*
X6702168Y25727004D03*
X6601586Y22195870D03*
%TO.N,Net-(U1-GPIO13)*%
X5070524Y32171800D03*
X5901500Y47250000D03*
%TO.N,Net-(U1-GPIO14)*%
X7097904Y32098649D03*
X5910100Y48358600D03*
%TO.N,Net-(U1-GPIO18)*%
X5903500Y15684000D03*
X7555500Y30269700D03*
%TO.N,Net-(U1-GPIO20{slash}USB_D+)*%
X13300000Y19721000D03*
X13241428Y25762941D03*
%TO.N,Net-(U1-GPIO21)*%
X9500000Y31938800D03*
X8088700Y48750000D03*
%TO.N,Net-(U1-MTCK)*%
X11465300Y37512300D03*
X9840000Y52090700D03*
%TO.N,Net-(U1-MTDO)*%
X8882400Y51590700D03*
X9000000Y39000000D03*
%TO.N,Net-(U1-MTMS)*%
X5916000Y50750000D03*
X7992300Y38841900D03*
%TO.N,Net-(U1-U0TXD)*%
X8489800Y50142000D03*
X8734600Y45031000D03*
%TO.N,Net-(U1-GPIO45)*%
X5917100Y49250000D03*
X6700000Y38844100D03*
%TO.N,Net-(U1-XTAL_N)*%
X9933700Y40500000D03*
X7857500Y37173000D03*
X10974800Y41500000D03*
%TO.N,Net-(U5-IN+)*%
X1609000Y54500000D03*
X3628500Y15684000D03*
%TO.N,Net-(U5-IN-)*%
X9841695Y17499826D03*
X5637200Y14458700D03*
X10750000Y18750000D03*
%TO.N,Net-(J5-Pin_1)*%
X1500000Y60500000D03*
X8081995Y24667978D03*
%TO.N,Net-(J5-Pin_2)*%
X10271100Y28500000D03*
X11500000Y30000000D03*
%TO.N,/TOUCH*%
X2139478Y28757773D03*
X2000000Y16500000D03*
X3000000Y15000000D03*
X1629400Y19500000D03*
%TD*%
%TO.N,GND*%
D17*
X10882597Y27282539D02*
X10965136Y27200000D01*
X4000000Y38000000D02*
X4000000Y37205700D01*
X3680500Y30922764D02*
X4046617Y31288881D01*
X3680500Y28862528D02*
X3680500Y30922764D01*
X12990500Y28796828D02*
X12990500Y32859500D01*
X1996300Y54193628D02*
X2099500Y54296828D01*
X9430000Y19430000D02*
X9430000Y17930000D01*
X4000000Y37205700D02*
X4705700Y36500000D01*
X3582500Y30824766D02*
X4046617Y31288883D01*
X4705700Y36500000D02*
X2969400Y36500000D01*
X7000000Y59500000D02*
X6000000Y60500000D01*
X9000000Y17008210D02*
X6940990Y14949200D01*
X12509500Y28509500D02*
X12703172Y28509500D01*
X2776411Y51696733D02*
X1996300Y52476844D01*
X1812172Y54990500D02*
X1405828Y54990500D01*
X3818999Y28724029D02*
X3680500Y28862528D01*
X12250000Y36250000D02*
X12750000Y36250000D01*
X2099500Y54703172D02*
X1812172Y54990500D01*
X1996300Y52476844D02*
X1996300Y54193628D01*
X4046617Y31288881D02*
X3582500Y30824766D01*
X5434028Y13968200D02*
X7075843Y13968200D01*
X2500000Y14500000D02*
X2500000Y14000000D01*
X12500000Y27246552D02*
X12500000Y28500000D01*
X10000000Y65500000D02*
X10000000Y64500000D01*
X12670112Y27076440D02*
X12500000Y27246552D01*
X11600000Y27200000D02*
X11723560Y27076440D01*
X12350000Y33500000D02*
X12350000Y53350000D01*
X12350000Y53350000D02*
X12500000Y53500000D01*
X6500000Y58000000D02*
X5500000Y58000000D01*
X2099500Y54296828D02*
X2099500Y54703172D01*
X5146700Y14255528D02*
X5434028Y13968200D01*
X5434028Y14949200D02*
X5146700Y14661872D01*
X5140586Y11859414D02*
X4946914Y12053086D01*
X1500000Y15500000D02*
X2500000Y14500000D01*
X9430000Y17930000D02*
X9000000Y17500000D01*
X10882597Y27282539D02*
X10800058Y27200000D01*
X9000000Y17500000D02*
X9000000Y17008210D01*
X10965136Y27200000D02*
X11600000Y27200000D01*
X6940990Y14949200D02*
X5434028Y14949200D01*
X12703172Y28509500D02*
X12990500Y28796828D01*
X8670545Y15562902D02*
X8288000Y15180357D01*
X5146700Y14661872D02*
X5146700Y14255528D01*
X2969400Y36500000D02*
X2929400Y36460000D01*
X1118500Y54703172D02*
X1118500Y56381500D01*
X1118500Y56381500D02*
X1403164Y56096836D01*
X7075843Y13968200D02*
X8670545Y15562902D01*
X11723560Y27076440D02*
X12670112Y27076440D01*
X1405828Y54990500D02*
X1118500Y54703172D01*
X8288000Y15180357D02*
X8288000Y13500000D01*
X12990500Y32859500D02*
X12350000Y33500000D01*
X12500000Y28500000D02*
X12509500Y28509500D01*
X6140586Y11859414D02*
X5140586Y11859414D01*
X10271876Y20394208D02*
X10271876Y20271876D01*
X7500000Y59000000D02*
X6500000Y58000000D01*
X10271876Y20271876D02*
X9430000Y19430000D01*
%TO.N,Net-(U4-IN)*%
X10553185Y12366981D02*
X10553185Y11888585D01*
X10553185Y11888585D02*
X8814500Y10149900D01*
X8814500Y10149900D02*
X8814500Y9480500D01*
X6221700Y6887700D02*
X4907300Y6887700D01*
X8814500Y9480500D02*
X6221700Y6887700D01*
%TO.N,Net-(J1-D--PadB7)*%
X11509249Y20500000D02*
X11509249Y20327060D01*
X12410172Y19058748D02*
X12003828Y19058748D01*
X12697500Y19752420D02*
X12697500Y19346076D01*
X12410172Y20039748D02*
X12697500Y19752420D01*
X12990500Y11703172D02*
X12990500Y11296828D01*
X12202937Y20039748D02*
X12410172Y20039748D01*
X11550990Y21084400D02*
X11500000Y21135390D01*
X12754000Y16560328D02*
X12754000Y11939672D01*
X11500000Y20500000D02*
X11509249Y20500000D01*
X12079390Y25010849D02*
X11500000Y24431459D01*
X12000000Y25500000D02*
X12000000Y25496583D01*
X11910200Y21233190D02*
X11761410Y21084400D01*
X12500000Y9941000D02*
X9559000Y7000000D01*
X12003828Y19058748D02*
X12500000Y18562576D01*
X12703172Y11009500D02*
X12500000Y11009500D01*
X12754000Y11939672D02*
X12990500Y11703172D01*
X12990500Y16796828D02*
X12754000Y16560328D01*
X12500000Y18562576D02*
X12500000Y17490500D01*
X11500000Y21853810D02*
X11910200Y21443610D01*
X12500000Y17490500D02*
X12703172Y17490500D01*
X11910200Y21443610D02*
X11910200Y21233190D01*
X12990500Y17203172D02*
X12990500Y16796828D01*
X12703172Y17490500D02*
X12990500Y17203172D01*
X12697500Y19346076D02*
X12410172Y19058748D01*
X11500000Y24431459D02*
X11500000Y21853810D01*
X11500000Y21135390D02*
X11500000Y20500000D01*
X12202921Y20039732D02*
X12202937Y20039748D01*
X11796577Y20039732D02*
X12202921Y20039732D01*
X12990500Y11296828D02*
X12703172Y11009500D01*
X11500000Y26000000D02*
X12000000Y25500000D01*
X12500000Y11009500D02*
X12500000Y9941000D01*
X12000000Y25496583D02*
X12079390Y25417193D01*
X11509249Y20327060D02*
X11796577Y20039732D01*
X12079390Y25417193D02*
X12079390Y25010849D01*
X11761410Y21084400D02*
X11550990Y21084400D01*
%TO.N,/VBAT*%
X1911500Y26564002D02*
X1911500Y26157658D01*
X12254000Y25601793D02*
X12254000Y25605210D01*
X7922672Y17009500D02*
X7206586Y16293414D01*
X2198828Y25870330D02*
X2500000Y25870330D01*
X12500000Y21030483D02*
X12500000Y25193672D01*
X8577935Y23775028D02*
X8577935Y23577935D01*
X11296828Y26490500D02*
X11009500Y26203172D01*
X10280289Y25478998D02*
X10269399Y25489888D01*
X12333390Y25522403D02*
X12254000Y25601793D01*
X1911500Y26157658D02*
X2198828Y25870330D01*
X11009500Y26203172D02*
X11009500Y26026890D01*
X2500000Y24000000D02*
X3240500Y24000000D01*
X12333390Y25360282D02*
X12333390Y25522403D01*
X8180045Y17009500D02*
X7922672Y17009500D01*
X8577935Y23577935D02*
X7970499Y22970499D01*
X12254000Y25605210D02*
X12000000Y25859210D01*
X12000000Y25859210D02*
X12000000Y26193672D01*
X7970499Y22970499D02*
X7970499Y22315829D01*
X11009500Y26026890D02*
X10461608Y25478998D01*
X2500000Y25870330D02*
X2500000Y24000000D01*
X12500000Y25193672D02*
X12333390Y25360282D01*
X11999749Y20530232D02*
X12500000Y21030483D01*
X8057834Y22403164D02*
X7970499Y22315829D01*
X11703172Y26490500D02*
X11296828Y26490500D01*
X8096836Y22403164D02*
X8057834Y22403164D01*
X10461608Y25478998D02*
X10280289Y25478998D01*
X2347709Y27000211D02*
X1911500Y26564002D01*
X9000000Y21500000D02*
X8096836Y22403164D01*
X2347709Y27847709D02*
X2347709Y27000211D01*
X12000000Y26193672D02*
X11703172Y26490500D01*
%TO.N,Net-(J4-Pin_1)*%
X13000000Y20836843D02*
X13000000Y25310697D01*
X13300000Y28121223D02*
X13450000Y27971223D01*
X13300000Y26515185D02*
X13300000Y28121223D01*
X12854308Y20691151D02*
X13000000Y20836843D01*
X13000000Y25310697D02*
X12750928Y25559769D01*
X12750928Y25559769D02*
X12750928Y25966113D01*
X12750928Y25966113D02*
X13300000Y26515185D01*
%TO.N,Net-(J4-Pin_2)*%
X3190500Y11309500D02*
X3599500Y10900500D01*
X3599500Y10900500D02*
X8871428Y10900500D01*
X2309500Y12190500D02*
X3190500Y12190500D01*
X817500Y56439710D02*
X817500Y13682500D01*
X3190500Y12190500D02*
X3190500Y11309500D01*
X8871428Y10900500D02*
X9485464Y11514536D01*
X8779888Y62500000D02*
X7270388Y60990500D01*
X12500000Y11500000D02*
X12500000Y17000000D01*
X817500Y13682500D02*
X2309500Y12190500D01*
X5368290Y60990500D02*
X817500Y56439710D01*
X7270388Y60990500D02*
X5368290Y60990500D01*
X11100000Y62500000D02*
X8779888Y62500000D01*
%TO.N,VCC*%
X11719300Y50570610D02*
X11500000Y50789910D01*
X11990500Y31392460D02*
X11990500Y31500000D01*
X10000000Y60500000D02*
X9500000Y61000000D01*
X3434172Y23500000D02*
X2500000Y23500000D01*
X3000000Y41280628D02*
X3000000Y48500000D01*
X11500000Y60500000D02*
X10000000Y60500000D01*
X5834800Y23165200D02*
X6009186Y22990814D01*
X11955800Y37715472D02*
X11719300Y37951972D01*
X6299013Y25097289D02*
X6299013Y24972013D01*
X9500000Y61000000D02*
X9500000Y60306328D01*
X11955800Y37309128D02*
X11955800Y37715472D01*
X3731000Y25146846D02*
X3731000Y23796828D01*
X11500000Y50789910D02*
X11500000Y60500000D01*
X2402000Y26360830D02*
X2517016Y26360830D01*
X11500000Y37021800D02*
X11668472Y37021800D01*
X1437500Y8563500D02*
X2001000Y8000000D01*
X5834800Y24507800D02*
X5834800Y23165200D01*
X10206776Y29608736D02*
X11990500Y31392460D01*
X9173400Y29608736D02*
X10206776Y29608736D01*
X3395960Y40884668D02*
X3000000Y41280628D01*
X11500000Y31990500D02*
X11500000Y37021800D01*
X1000000Y8563500D02*
X1437500Y8563500D01*
X11668472Y37021800D02*
X11955800Y37309128D01*
X11990500Y31500000D02*
X11500000Y31990500D01*
X2517016Y26360830D02*
X3731000Y25146846D01*
X11719300Y37951972D02*
X11719300Y50570610D01*
X6299013Y24972013D02*
X5834800Y24507800D01*
X6193672Y57000000D02*
X5500000Y57000000D01*
X3731000Y23796828D02*
X3434172Y23500000D01*
X9500000Y60306328D02*
X6193672Y57000000D01*
%TO.N,Net-(U1-CHIP_PU)*%
X2956900Y35240500D02*
X3836100Y34361300D01*
X11000000Y21500000D02*
X11000000Y20500000D01*
X9000000Y28859210D02*
X9254000Y28605210D01*
X8682900Y29340900D02*
X9000000Y29023800D01*
X9000000Y29023800D02*
X9000000Y28859210D01*
X8682900Y29838600D02*
X8682900Y29340900D01*
X6840200Y31681300D02*
X8682900Y29838600D01*
X11494600Y21500000D02*
X11000000Y21500000D01*
X4849800Y31681300D02*
X6840200Y31681300D01*
X9254000Y24151845D02*
X9322435Y24083410D01*
X3836100Y34361300D02*
X3836100Y32695000D01*
X9254000Y28605210D02*
X9254000Y24151845D01*
X9322435Y23672165D02*
X11494600Y21500000D01*
X2956900Y35570100D02*
X2956900Y35240500D01*
X3836100Y32695000D02*
X4849800Y31681300D01*
X9322435Y24083410D02*
X9322435Y23672165D01*
%TO.N,Net-(J3-Pin_5)*%
X3074500Y28925500D02*
X3074500Y28197190D01*
X4530200Y24780000D02*
X4472998Y24780000D01*
X2121600Y29738773D02*
X2123300Y29737073D01*
X5069400Y26202290D02*
X5069400Y25319200D01*
X2262927Y29737073D02*
X3074500Y28925500D01*
X3074500Y28197190D02*
X5069400Y26202290D01*
X5069400Y25319200D02*
X4530200Y24780000D01*
X2123300Y29737073D02*
X2262927Y29737073D01*
%TO.N,Net-(J3-Pin_4)*%
X4385199Y25900400D02*
X4385199Y26527281D01*
X4385199Y26527281D02*
X2820500Y28091980D01*
X1918428Y29248273D02*
X1797136Y29369564D01*
X1631100Y37923700D02*
X1631100Y33414500D01*
X1632800Y29367200D02*
X1631100Y29368900D01*
X2324772Y29248273D02*
X1918428Y29248273D01*
X2820500Y28091980D02*
X2820500Y28820290D01*
X3932100Y40308700D02*
X3932100Y40224700D01*
X2820500Y28820290D02*
X2358644Y29282146D01*
X3932100Y40224700D02*
X1631100Y37923700D01*
X1631100Y29368900D02*
X1631100Y33414500D01*
X1797136Y29369564D02*
X1632800Y29205228D01*
X2358644Y29282146D02*
X2324772Y29248273D01*
X1632800Y29205228D02*
X1632800Y29367200D01*
%TO.N,Net-(J3-Pin_3)*%
X2123300Y31113400D02*
X2123300Y33618400D01*
X3495000Y48015200D02*
X3731900Y48252100D01*
X2123300Y33618400D02*
X1886800Y33854900D01*
X4487300Y46803700D02*
X4433600Y46750000D01*
X1886800Y37530000D02*
X4429100Y40072300D01*
X3495000Y41479300D02*
X3495000Y48015200D01*
X4429100Y40072300D02*
X4429100Y40545200D01*
X4253100Y48252100D02*
X4487300Y48017900D01*
X4487300Y48017900D02*
X4487300Y46803700D01*
X4429100Y40545200D02*
X3495000Y41479300D01*
X1886800Y33854900D02*
X1886800Y37530000D01*
X2429300Y30807400D02*
X2123300Y31113400D01*
X3731900Y48252100D02*
X4253100Y48252100D01*
%TO.N,Net-(U1-GPIO6)*%
X2438900Y37231600D02*
X4940500Y39733200D01*
X4940500Y53002100D02*
X4692600Y53250000D01*
X3003800Y33461100D02*
X2438900Y34026000D01*
X2438900Y34026000D02*
X2438900Y37231600D01*
X3003800Y33148400D02*
X3003800Y33461100D01*
X4940500Y39733200D02*
X4940500Y53002100D01*
%TO.N,Net-(U1-GPIO7)*%
X5196200Y53129000D02*
X5881800Y53814600D01*
X5196200Y33732000D02*
X5196200Y53129000D01*
X4686100Y33221900D02*
X5196200Y33732000D01*
%TO.N,Net-(U1-GPIO8)*%
X4684800Y40651100D02*
X3932700Y41403200D01*
X2142500Y33960800D02*
X2142500Y37296800D01*
X2142500Y37296800D02*
X4684800Y39839100D01*
X3932700Y47687600D02*
X3995100Y47750000D01*
X2379000Y33724300D02*
X2142500Y33960800D01*
X2761200Y32350000D02*
X2379000Y32732200D01*
X3932700Y41403200D02*
X3932700Y47687600D01*
X4684800Y39839100D02*
X4684800Y40651100D01*
X2379000Y32732200D02*
X2379000Y33724300D01*
%TO.N,Net-(J2-Pin_3)*%
X5325100Y26305800D02*
X3328500Y28302400D01*
X2659400Y22031400D02*
X5325100Y24697100D01*
X2192255Y22031400D02*
X2659400Y22031400D01*
X5325100Y24697100D02*
X5325100Y26305800D01*
X3328500Y28302400D02*
X3328500Y31402200D01*
X1954111Y21793256D02*
X2192255Y22031400D01*
%TO.N,/GPIO10*%
X2000000Y21067703D02*
X2573903Y21067703D01*
X7000000Y28763298D02*
X5736702Y27500000D01*
X4171000Y30197200D02*
X4171000Y30572600D01*
X5736702Y27500000D02*
X5580800Y27500000D01*
X4974500Y23468300D02*
X4974500Y23648900D01*
X7000000Y29000000D02*
X7000000Y28763298D01*
X10000000Y24239500D02*
X10269400Y24239500D01*
X4974500Y23648900D02*
X5580800Y24255200D01*
X2573903Y21067703D02*
X4974500Y23468300D01*
X5580800Y24255200D02*
X5580800Y27500000D01*
X10396564Y24366664D02*
X10741533Y24366664D01*
X5580800Y27500000D02*
X5580800Y28787400D01*
X5580800Y28787400D02*
X4171000Y30197200D01*
X10741533Y24366664D02*
X11588890Y25214021D01*
X10269400Y24239500D02*
X10396564Y24366664D01*
%TO.N,/GPIO11*%
X6500000Y22787956D02*
X6500000Y23000000D01*
X5162350Y22837650D02*
X5499686Y22500314D01*
X6071299Y29059064D02*
X5077992Y30052371D01*
X2665400Y20340700D02*
X5162350Y22837650D01*
X6351972Y24331299D02*
X6419295Y24398622D01*
X2000000Y20340700D02*
X2665400Y20340700D01*
X6500000Y23000000D02*
X6536872Y23036872D01*
X6536872Y23036872D02*
X6536872Y24146399D01*
X5077992Y30052371D02*
X5009501Y30052371D01*
X6536872Y24146399D02*
X6351972Y24331299D01*
X5499686Y22500314D02*
X6212358Y22500314D01*
X6071299Y28528269D02*
X6071299Y29059064D01*
X6212358Y22500314D02*
X6500000Y22787956D01*
%TO.N,/GPIO12*%
X6327000Y26890309D02*
X6327000Y25900003D01*
X6735500Y25727003D02*
X6702169Y25727003D01*
X6842472Y22436756D02*
X6601586Y22195870D01*
X6702168Y25727004D02*
X6842472Y25586700D01*
X7500000Y29500000D02*
X7500000Y28500000D01*
X6702169Y25727003D02*
X6702168Y25727004D01*
X6377125Y29829084D02*
X6829084Y29829084D01*
X5933209Y30273000D02*
X6377125Y29829084D01*
X7500000Y27500000D02*
X6936691Y27500000D01*
X6327000Y25900003D02*
X6499999Y25727004D01*
X6842472Y25586700D02*
X6842472Y22436756D01*
X7500000Y28500000D02*
X8000000Y28000000D01*
X6499999Y25727004D02*
X6702168Y25727004D01*
X8000000Y28000000D02*
X7500000Y27500000D01*
X6936691Y27500000D02*
X6327000Y26890309D01*
X7000000Y30000000D02*
X7500000Y29500000D01*
X6829084Y29829084D02*
X7000000Y30000000D01*
%TO.N,Net-(U1-GPIO13)*%
X5171800Y32171800D02*
X5901500Y32901500D01*
X5901500Y32901500D02*
X5901500Y47250000D01*
X5070524Y32171800D02*
X5171800Y32171800D01*
%TO.N,Net-(U1-GPIO14)*%
X7094751Y32098649D02*
X6182500Y33010900D01*
X6445800Y47822900D02*
X5910100Y48358600D01*
X7097904Y32098649D02*
X7094751Y32098649D01*
X6182500Y45308100D02*
X6445800Y45571400D01*
X6182500Y33010900D02*
X6182500Y45308100D01*
X6445800Y45571400D02*
X6445800Y47822900D01*
%TO.N,Net-(U1-GPIO18)*%
X9000000Y24046635D02*
X9068435Y23978200D01*
X8280500Y18219500D02*
X8280500Y18061000D01*
X9068435Y23571856D02*
X9000000Y23503421D01*
X10500000Y21500000D02*
X10240600Y21240600D01*
X7555500Y30269700D02*
X7555500Y30106700D01*
X7555500Y30106700D02*
X8564700Y29097500D01*
X10000000Y21240600D02*
X9759400Y21000000D01*
X9068435Y23978200D02*
X9068435Y23571856D01*
X10500000Y22135390D02*
X10500000Y21500000D01*
X8564700Y29097500D02*
X8564700Y28935300D01*
X8280500Y18061000D02*
X5903500Y15684000D01*
X9000000Y28500000D02*
X9000000Y24046635D01*
X10240600Y21240600D02*
X10000000Y21240600D01*
X8000000Y21000000D02*
X8000000Y18500000D01*
X8564700Y28935300D02*
X9000000Y28500000D01*
X8000000Y18500000D02*
X8280500Y18219500D01*
X9759400Y21000000D02*
X8000000Y21000000D01*
X9131969Y23503421D02*
X10500000Y22135390D01*
X9000000Y23503421D02*
X9131969Y23503421D01*
%TO.N,Net-(U1-GPIO20{slash}USB_D+)*%
X13490500Y19721000D02*
X13490500Y25513869D01*
X13490500Y25513869D02*
X13241428Y25762941D01*
X13300000Y19721000D02*
X13490500Y19721000D01*
%TO.N,Net-(U1-GPIO21)*%
X9500000Y31938800D02*
X7232000Y34206800D01*
X7232000Y34206800D02*
X7232000Y47893300D01*
X7232000Y47893300D02*
X8088700Y48750000D01*
%TO.N,Net-(U1-MTCK)*%
X11465300Y50465400D02*
X11465300Y37512300D01*
X9840000Y52090700D02*
X11465300Y50465400D01*
%TO.N,Net-(U1-MTDO)*%
X8882400Y51590700D02*
X9225100Y51248000D01*
X9225100Y51248000D02*
X9225100Y39225100D01*
X9225100Y39225100D02*
X9000000Y39000000D01*
X9226800Y51246300D02*
X8882400Y51590700D01*
%TO.N,Net-(U1-MTMS)*%
X6816000Y50750000D02*
X8601100Y48964900D01*
X7992300Y44984700D02*
X7992300Y38841900D01*
X8601100Y48964900D02*
X8601100Y45593500D01*
X5916000Y50750000D02*
X6816000Y50750000D01*
X8601100Y45593500D02*
X7992300Y44984700D01*
%TO.N,Net-(U1-U0TXD)*%
X8856800Y45153200D02*
X8856800Y49775000D01*
X8856800Y49775000D02*
X8489800Y50142000D01*
X8734600Y45031000D02*
X8856800Y45153200D01*
%TO.N,Net-(U1-GPIO45)*%
X6763900Y48403200D02*
X5917100Y49250000D01*
X6700000Y38844100D02*
X6763900Y38908000D01*
X6763900Y38908000D02*
X6763900Y48403200D01*
%TO.N,Net-(U1-XTAL_N)*%
X9933700Y37290900D02*
X9933700Y40500000D01*
X7744400Y37059900D02*
X7744400Y37006000D01*
X8114100Y36636300D02*
X9279100Y36636300D01*
X10974800Y41500000D02*
X10933700Y41500000D01*
X10933700Y41500000D02*
X9933700Y40500000D01*
X7857500Y37173000D02*
X7744400Y37059900D01*
X7744400Y37006000D02*
X8114100Y36636300D01*
X9279100Y36636300D02*
X9933700Y37290900D01*
%TO.N,Net-(U5-IN+)*%
X1742300Y54366700D02*
X1609000Y54500000D01*
X1138900Y18173600D02*
X1138900Y37793100D01*
X1742300Y38396500D02*
X1742300Y54366700D01*
X3628500Y15684000D02*
X1138900Y18173600D01*
X1138900Y37793100D02*
X1742300Y38396500D01*
%TO.N,Net-(U5-IN-)*%
X10490000Y18139000D02*
X10500000Y18149000D01*
X9841695Y17499826D02*
X9841695Y17372083D01*
X10500000Y18149000D02*
X10500000Y18500000D01*
X10490000Y18020388D02*
X10490000Y18139000D01*
X6809700Y14458700D02*
X5637200Y14458700D01*
X9351000Y17000000D02*
X6809700Y14458700D01*
X9969438Y17499826D02*
X10490000Y18020388D01*
X10500000Y18500000D02*
X10750000Y18750000D01*
X9841695Y17499826D02*
X9969438Y17499826D01*
X9469612Y17000000D02*
X9351000Y17000000D01*
X9841695Y17372083D02*
X9469612Y17000000D01*
%TO.N,Net-(J5-Pin_1)*%
X9068500Y6671428D02*
X7192772Y4795700D01*
X2204172Y8490500D02*
X1869710Y8490500D01*
X1542710Y8817500D02*
X1531245Y8817500D01*
X5898610Y12917000D02*
X11294272Y12917000D01*
X7480000Y22020790D02*
X7426754Y21967544D01*
X11294272Y11936000D02*
X10959810Y11936000D01*
X7480000Y23867344D02*
X7480000Y22020790D01*
X11043685Y12186587D02*
X11294272Y11936000D01*
X7426754Y21967544D02*
X7426754Y21198454D01*
X7192772Y4795700D02*
X5553045Y4795700D01*
X7426754Y21198454D02*
X4659300Y18431000D01*
X4659300Y14156310D02*
X5898610Y12917000D01*
X1531245Y8817500D02*
X563500Y9785245D01*
X1000000Y61000000D02*
X1500000Y60500000D01*
X9068500Y10044690D02*
X9068500Y6671428D01*
X11000000Y12613838D02*
X11043685Y12570153D01*
X4659300Y18431000D02*
X4659300Y14156310D01*
X1869710Y8490500D02*
X1542710Y8817500D01*
X5553045Y4795700D02*
X2491500Y7857245D01*
X10959810Y11936000D02*
X9068500Y10044690D01*
X11043685Y12570153D02*
X11043685Y12186587D01*
X11294272Y12917000D02*
X11000000Y12622728D01*
X11000000Y12622728D02*
X11000000Y12613838D01*
X2491500Y8203172D02*
X2204172Y8490500D01*
X563500Y61000000D02*
X1000000Y61000000D01*
X563500Y9785245D02*
X563500Y61000000D01*
X2491500Y7857245D02*
X2491500Y8203172D01*
X8081995Y24667978D02*
X8081995Y24469339D01*
X8081995Y24469339D02*
X7480000Y23867344D01*
%TO.N,Net-(J5-Pin_2)*%
X11500000Y29577700D02*
X11500000Y30000000D01*
X10271100Y28348800D02*
X10271100Y28500000D01*
X10271100Y28500000D02*
X10422300Y28500000D01*
X10422300Y28500000D02*
X11500000Y29577700D01*
%TO.N,/TOUCH*%
X1463611Y28081906D02*
X2139478Y28757773D01*
X3000000Y15500000D02*
X2000000Y16500000D01*
X1629400Y19500000D02*
X1463611Y19665789D01*
X3000000Y15000000D02*
X3000000Y15500000D01*
X1463611Y19665789D02*
X1463611Y28081906D01*
%TD*%
%TA.AperFunction,Conductor*%
%TO.N,GND*%
G36*
X4892539Y10316815D02*
G01*
X4938294Y10264011D01*
X4949500Y10212500D01*
X4949500Y10111459D01*
X4949500Y10111457D01*
X4949499Y10111457D01*
X4987947Y9918171D01*
X4987950Y9918161D01*
X5063364Y9736093D01*
X5063371Y9736080D01*
X5172860Y9572219D01*
X5172863Y9572215D01*
X5312214Y9432864D01*
X5312218Y9432861D01*
X5476079Y9323372D01*
X5476092Y9323365D01*
X5607794Y9268813D01*
X5658165Y9247949D01*
X5658169Y9247949D01*
X5658170Y9247948D01*
X5851456Y9209500D01*
X5851459Y9209500D01*
X6484137Y9209500D01*
X6551176Y9189815D01*
X6596931Y9137011D01*
X6606875Y9067853D01*
X6591525Y9023501D01*
X6556905Y8963537D01*
X6556905Y8963536D01*
X6524500Y8842601D01*
X6524500Y8717399D01*
X6540195Y8658826D01*
X6556905Y8596464D01*
X6619504Y8488038D01*
X6619506Y8488035D01*
X6708036Y8399505D01*
X6712538Y8396906D01*
X6760754Y8346340D01*
X6773978Y8277733D01*
X6748011Y8212868D01*
X6738220Y8201837D01*
X6024403Y7488019D01*
X5963080Y7454534D01*
X5936722Y7451700D01*
X5526741Y7451700D01*
X5459702Y7471385D01*
X5439060Y7488019D01*
X5417592Y7509487D01*
X5417588Y7509490D01*
X5286485Y7597091D01*
X5286472Y7597098D01*
X5140801Y7657436D01*
X5140789Y7657439D01*
X4986145Y7688200D01*
X4986142Y7688200D01*
X4828458Y7688200D01*
X4828455Y7688200D01*
X4673810Y7657439D01*
X4673798Y7657436D01*
X4528127Y7597098D01*
X4528114Y7597091D01*
X4397011Y7509490D01*
X4397007Y7509487D01*
X4285513Y7397993D01*
X4285510Y7397989D01*
X4197909Y7266886D01*
X4197906Y7266879D01*
X4175659Y7213171D01*
X4131817Y7158768D01*
X4065523Y7136704D01*
X3997824Y7153984D01*
X3973417Y7172944D01*
X3091819Y8054542D01*
X3058334Y8115865D01*
X3055500Y8142223D01*
X3055500Y8277423D01*
X3055500Y8277424D01*
X3047273Y8308127D01*
X3017065Y8420868D01*
X2988008Y8471196D01*
X2942813Y8549476D01*
X2837804Y8654485D01*
X2837803Y8654486D01*
X2833473Y8658816D01*
X2833462Y8658826D01*
X2662555Y8829733D01*
X2662553Y8829736D01*
X2550478Y8941811D01*
X2550476Y8941813D01*
X2421870Y9016064D01*
X2421869Y9016065D01*
X2386168Y9025631D01*
X2350469Y9035196D01*
X2350468Y9035197D01*
X2297728Y9049328D01*
X2278425Y9054500D01*
X2278424Y9054500D01*
X2154688Y9054500D01*
X2087649Y9074185D01*
X2067007Y9090819D01*
X2001093Y9156733D01*
X2001091Y9156736D01*
X1889016Y9268811D01*
X1889014Y9268813D01*
X1889011Y9268815D01*
X1882565Y9273761D01*
X1883579Y9275083D01*
X1842008Y9318684D01*
X1828787Y9387291D01*
X1854756Y9452155D01*
X1911672Y9492682D01*
X1952225Y9499501D01*
X3047871Y9499501D01*
X3047872Y9499501D01*
X3107483Y9505909D01*
X3242331Y9556204D01*
X3357546Y9642454D01*
X3443796Y9757669D01*
X3494091Y9892517D01*
X3500500Y9952127D01*
X3500499Y10212502D01*
X3520183Y10279539D01*
X3572987Y10325294D01*
X3624499Y10336500D01*
X4825500Y10336500D01*
X4892539Y10316815D01*
G37*
%TD.AperFunction*%
%TA.AperFunction,Conductor*%
G36*
X1574392Y15821629D02*
G01*
X1620813Y15790611D01*
X1620816Y15790609D01*
X1620821Y15790606D01*
X1620823Y15790605D01*
X1620827Y15790603D01*
X1766498Y15730265D01*
X1766503Y15730263D01*
X1921153Y15699501D01*
X1921156Y15699500D01*
X1921158Y15699500D01*
X1951522Y15699500D01*
X2018561Y15679815D01*
X2039203Y15663181D01*
X2241567Y15460817D01*
X2275052Y15399494D01*
X2270068Y15329802D01*
X2268447Y15325684D01*
X2230264Y15233502D01*
X2230261Y15233490D01*
X2199500Y15078847D01*
X2199500Y14921154D01*
X2230261Y14766511D01*
X2230264Y14766499D01*
X2290602Y14620828D01*
X2290609Y14620815D01*
X2378210Y14489712D01*
X2378213Y14489708D01*
X2489707Y14378214D01*
X2489711Y14378211D01*
X2620814Y14290610D01*
X2620827Y14290603D01*
X2766498Y14230265D01*
X2766503Y14230263D01*
X2921153Y14199501D01*
X2921156Y14199500D01*
X2921158Y14199500D01*
X3078844Y14199500D01*
X3078845Y14199501D01*
X3233497Y14230263D01*
X3379179Y14290606D01*
X3510289Y14378211D01*
X3621789Y14489711D01*
X3709394Y14620821D01*
X3769737Y14766503D01*
X3780591Y14821075D01*
X3812974Y14882983D01*
X3857166Y14910005D01*
X3856368Y14911932D01*
X3861994Y14914263D01*
X3861997Y14914263D01*
X3923850Y14939884D01*
X3993316Y14947352D01*
X4055795Y14916077D01*
X4091448Y14855988D01*
X4095300Y14825322D01*
X4095300Y14082058D01*
X4133735Y13938614D01*
X4207987Y13810006D01*
X4207989Y13810004D01*
X4320061Y13697932D01*
X4320067Y13697927D01*
X5442956Y12575038D01*
X5442966Y12575027D01*
X5447296Y12570697D01*
X5447297Y12570696D01*
X5552306Y12465687D01*
X5658661Y12404283D01*
X5680914Y12391435D01*
X5824357Y12353000D01*
X5824358Y12353000D01*
X8892637Y12353000D01*
X8959676Y12333315D01*
X9005431Y12280511D01*
X9015375Y12211353D01*
X8986350Y12147797D01*
X8979239Y12140876D01*
X8979482Y12140633D01*
X8863677Y12024829D01*
X8863674Y12024825D01*
X8776073Y11893722D01*
X8776066Y11893709D01*
X8715728Y11748038D01*
X8715725Y11748026D01*
X8684964Y11593383D01*
X8684964Y11588500D01*
X8665279Y11521461D01*
X8612475Y11475706D01*
X8560964Y11464500D01*
X3884478Y11464500D01*
X3817439Y11484185D01*
X3796797Y11500819D01*
X3790819Y11506797D01*
X3757334Y11568120D01*
X3754500Y11594478D01*
X3754500Y12264750D01*
X3754500Y12264752D01*
X3716065Y12408196D01*
X3641813Y12536804D01*
X3536804Y12641813D01*
X3408196Y12716065D01*
X3264752Y12754500D01*
X3264751Y12754500D01*
X2594479Y12754500D01*
X2527440Y12774185D01*
X2506798Y12790819D01*
X1417819Y13879798D01*
X1384334Y13941121D01*
X1381500Y13967479D01*
X1381500Y15718528D01*
X1401185Y15785567D01*
X1453989Y15831322D01*
X1523147Y15841266D01*
X1574392Y15821629D01*
G37*
%TD.AperFunction*%
%TA.AperFunction,Conductor*%
G36*
X11693542Y18565970D02*
G01*
X11717951Y18547009D01*
X11899681Y18365279D01*
X11933166Y18303956D01*
X11936000Y18277598D01*
X11936000Y17619441D01*
X11916315Y17552402D01*
X11899681Y17531760D01*
X11878213Y17510293D01*
X11878210Y17510289D01*
X11790609Y17379186D01*
X11790602Y17379173D01*
X11730264Y17233502D01*
X11730261Y17233490D01*
X11699500Y17078847D01*
X11699500Y16921154D01*
X11730261Y16766511D01*
X11730264Y16766499D01*
X11790602Y16620828D01*
X11790609Y16620815D01*
X11878209Y16489713D01*
X11878210Y16489712D01*
X11878211Y16489711D01*
X11899681Y16468241D01*
X11933166Y16406920D01*
X11936000Y16380560D01*
X11936000Y13372251D01*
X11916315Y13305212D01*
X11863511Y13259457D01*
X11794353Y13249513D01*
X11730797Y13278538D01*
X11724319Y13284570D01*
X11640578Y13368311D01*
X11640576Y13368313D01*
X11511968Y13442565D01*
X11368524Y13481000D01*
X11368523Y13481000D01*
X6183588Y13481000D01*
X6150842Y13490616D01*
X6117927Y13499811D01*
X6116990Y13500556D01*
X6116549Y13500685D01*
X6115931Y13501398D01*
X6095907Y13517319D01*
X6031826Y13581400D01*
X5998341Y13642723D01*
X6003325Y13712415D01*
X6045197Y13768348D01*
X6050594Y13772169D01*
X6147489Y13836911D01*
X6147492Y13836914D01*
X6168960Y13858381D01*
X6180071Y13864449D01*
X6188235Y13874124D01*
X6210153Y13880875D01*
X6230283Y13891866D01*
X6254188Y13894437D01*
X6255009Y13894689D01*
X6255434Y13894571D01*
X6256641Y13894700D01*
X6883951Y13894700D01*
X6883953Y13894700D01*
X7027396Y13933135D01*
X7036886Y13938614D01*
X7156004Y14007387D01*
X7261013Y14112396D01*
X7261013Y14112398D01*
X7271217Y14122601D01*
X7271221Y14122606D01*
X9576037Y16427423D01*
X9631624Y16459515D01*
X9687306Y16474434D01*
X9687306Y16474435D01*
X9687308Y16474435D01*
X9815916Y16548687D01*
X9920925Y16653696D01*
X9920925Y16653698D01*
X9931129Y16663901D01*
X9931133Y16663906D01*
X9951383Y16684157D01*
X10012704Y16717640D01*
X10014769Y16718071D01*
X10075192Y16730089D01*
X10220874Y16790432D01*
X10351984Y16878037D01*
X10463484Y16989537D01*
X10551089Y17120647D01*
X10611432Y17266329D01*
X10623430Y17326653D01*
X10655814Y17388560D01*
X10657310Y17390084D01*
X10826094Y17558867D01*
X10826099Y17558871D01*
X10836302Y17569075D01*
X10836304Y17569075D01*
X10941313Y17674084D01*
X11015565Y17802692D01*
X11032796Y17867000D01*
X11054001Y17946136D01*
X11054001Y17946138D01*
X11056104Y17953986D01*
X11058442Y17953360D01*
X11081723Y18006016D01*
X11124186Y18037028D01*
X11123808Y18037736D01*
X11128839Y18040426D01*
X11128966Y18040519D01*
X11129179Y18040606D01*
X11260289Y18128211D01*
X11371789Y18239711D01*
X11459394Y18370821D01*
X11515711Y18506785D01*
X11559549Y18561183D01*
X11625843Y18583249D01*
X11693542Y18565970D01*
G37*
%TD.AperFunction*%
%TA.AperFunction,Conductor*%
G36*
X5228486Y22003658D02*
G01*
X5247146Y21994866D01*
X5267699Y21983000D01*
X5281990Y21974749D01*
X5425433Y21936314D01*
X5425434Y21936314D01*
X5759789Y21936314D01*
X5826828Y21916629D01*
X5872583Y21863825D01*
X5874337Y21859797D01*
X5883843Y21836847D01*
X5892191Y21816692D01*
X5892195Y21816685D01*
X5979796Y21685582D01*
X5979799Y21685578D01*
X6091293Y21574084D01*
X6091297Y21574081D01*
X6222400Y21486480D01*
X6222413Y21486473D01*
X6368084Y21426135D01*
X6368089Y21426133D01*
X6522739Y21395371D01*
X6522742Y21395370D01*
X6526692Y21395370D01*
X6528685Y21394785D01*
X6528804Y21394773D01*
X6528801Y21394751D01*
X6593731Y21375685D01*
X6639486Y21322881D01*
X6649430Y21253723D01*
X6620405Y21190167D01*
X6614374Y21183691D01*
X5435294Y20004611D01*
X4312998Y18882315D01*
X4207989Y18777307D01*
X4207985Y18777301D01*
X4146504Y18670815D01*
X4146505Y18670814D01*
X4133733Y18648693D01*
X4098316Y18516508D01*
X4098315Y18516504D01*
X4095300Y18505253D01*
X4095300Y16542679D01*
X4075615Y16475640D01*
X4022811Y16429885D01*
X3953653Y16419941D01*
X3923848Y16428118D01*
X3862001Y16453736D01*
X3861989Y16453739D01*
X3707345Y16484500D01*
X3707342Y16484500D01*
X3676978Y16484500D01*
X3609939Y16504185D01*
X3589297Y16520819D01*
X1739219Y18370897D01*
X1705734Y18432220D01*
X1702900Y18458578D01*
X1702900Y18596674D01*
X1722585Y18663713D01*
X1775389Y18709468D01*
X1802701Y18718290D01*
X1862897Y18730263D01*
X2008579Y18790606D01*
X2139689Y18878211D01*
X2251189Y18989711D01*
X2338794Y19120821D01*
X2342254Y19129173D01*
X2396563Y19260289D01*
X2399137Y19266503D01*
X2429900Y19421158D01*
X2429900Y19578842D01*
X2429900Y19578845D01*
X2429303Y19584907D01*
X2431933Y19585167D01*
X2437100Y19643323D01*
X2479928Y19698528D01*
X2483571Y19701060D01*
X2510289Y19718911D01*
X2514916Y19723538D01*
X2531760Y19740381D01*
X2593083Y19773866D01*
X2619441Y19776700D01*
X2739651Y19776700D01*
X2739653Y19776700D01*
X2883096Y19815135D01*
X2895049Y19822036D01*
X3011704Y19889387D01*
X3116713Y19994396D01*
X3116713Y19994398D01*
X3126917Y20004601D01*
X3126921Y20004606D01*
X5097473Y21975159D01*
X5158794Y22008642D01*
X5228486Y22003658D01*
G37*
%TD.AperFunction*%
%TA.AperFunction,Conductor*%
G36*
X10151149Y20491227D02*
G01*
X10194341Y20436307D01*
X10200842Y20414408D01*
X10230261Y20266511D01*
X10230264Y20266499D01*
X10290602Y20120828D01*
X10290609Y20120815D01*
X10378210Y19989712D01*
X10378213Y19989708D01*
X10489707Y19878214D01*
X10489711Y19878211D01*
X10620814Y19790610D01*
X10620818Y19790608D01*
X10620821Y19790606D01*
X10651103Y19778063D01*
X10705505Y19734223D01*
X10727571Y19667929D01*
X10710292Y19600230D01*
X10659156Y19552619D01*
X10627842Y19541885D01*
X10516508Y19519739D01*
X10516498Y19519736D01*
X10370827Y19459398D01*
X10370814Y19459391D01*
X10239711Y19371790D01*
X10239707Y19371787D01*
X10128213Y19260293D01*
X10128210Y19260289D01*
X10040609Y19129186D01*
X10040602Y19129173D01*
X9980264Y18983502D01*
X9980261Y18983490D01*
X9949500Y18828847D01*
X9949500Y18671160D01*
X9950097Y18665093D01*
X9948914Y18664977D01*
X9947327Y18616527D01*
X9942982Y18600316D01*
X9942983Y18600315D01*
X9936000Y18574255D01*
X9936000Y18424326D01*
X9916315Y18357287D01*
X9863511Y18311532D01*
X9812000Y18300326D01*
X9762850Y18300326D01*
X9608205Y18269565D01*
X9608193Y18269562D01*
X9462522Y18209224D01*
X9462509Y18209217D01*
X9331406Y18121616D01*
X9331402Y18121613D01*
X9219908Y18010119D01*
X9219905Y18010115D01*
X9132304Y17879012D01*
X9132297Y17878999D01*
X9071959Y17733328D01*
X9071956Y17733316D01*
X9041195Y17578673D01*
X9041195Y17570334D01*
X9021510Y17503295D01*
X8968706Y17457540D01*
X8899548Y17447596D01*
X8835992Y17476621D01*
X8814093Y17501442D01*
X8801831Y17519793D01*
X8753382Y17568242D01*
X8719897Y17629565D01*
X8724881Y17699257D01*
X8733672Y17717918D01*
X8806065Y17843304D01*
X8844501Y17986748D01*
X8844501Y18135253D01*
X8844501Y18142848D01*
X8844500Y18142866D01*
X8844500Y18293750D01*
X8844500Y18293752D01*
X8806065Y18437196D01*
X8731813Y18565804D01*
X8626804Y18670813D01*
X8626803Y18670814D01*
X8622473Y18675144D01*
X8622462Y18675154D01*
X8600319Y18697297D01*
X8566834Y18758620D01*
X8564000Y18784978D01*
X8564000Y20312000D01*
X8583685Y20379039D01*
X8636489Y20424794D01*
X8688000Y20436000D01*
X9833651Y20436000D01*
X9833653Y20436000D01*
X9977096Y20474435D01*
X10004989Y20490539D01*
X10017223Y20497603D01*
X10085121Y20514077D01*
X10151149Y20491227D01*
G37*
%TD.AperFunction*%
%TA.AperFunction,Conductor*%
G36*
X1916895Y68979815D02*
G01*
X1962650Y68927011D01*
X1972594Y68857853D01*
X1943569Y68794297D01*
X1899454Y68762490D01*
X1899559Y68762285D01*
X1898239Y68761613D01*
X1897301Y68760936D01*
X1895220Y68760075D01*
X1674257Y68647489D01*
X1575174Y68575500D01*
X1473630Y68501724D01*
X1473628Y68501722D01*
X1473627Y68501722D01*
X1298278Y68326373D01*
X1298278Y68326372D01*
X1298276Y68326370D01*
X1274508Y68293656D01*
X1152511Y68125743D01*
X1039928Y67904785D01*
X963293Y67668928D01*
X924500Y67424001D01*
X924500Y67176000D01*
X963293Y66931073D01*
X963294Y66931069D01*
X1039927Y66695218D01*
X1152511Y66474258D01*
X1298276Y66273630D01*
X1473630Y66098276D01*
X1674258Y65952511D01*
X1895218Y65839927D01*
X2131069Y65763294D01*
X2222920Y65748747D01*
X2376000Y65724500D01*
X2376005Y65724500D01*
X2624000Y65724500D01*
X2760070Y65746053D01*
X2868931Y65763294D01*
X3104782Y65839927D01*
X3325742Y65952511D01*
X3526370Y66098276D01*
X3701724Y66273630D01*
X3847489Y66474258D01*
X3960073Y66695218D01*
X4036706Y66931069D01*
X4053947Y67039930D01*
X4075500Y67176000D01*
X4075500Y67424001D01*
X4036706Y67668928D01*
X4036706Y67668931D01*
X3969744Y67875017D01*
X5324500Y67875017D01*
X5324500Y66124999D01*
X5324501Y66124982D01*
X5335000Y66022204D01*
X5335001Y66022201D01*
X5390185Y65855669D01*
X5390187Y65855664D01*
X5399894Y65839927D01*
X5482288Y65706344D01*
X5606344Y65582288D01*
X5755666Y65490186D01*
X5922203Y65435001D01*
X6024991Y65424500D01*
X7775008Y65424501D01*
X7877797Y65435001D01*
X8044334Y65490186D01*
X8193656Y65582288D01*
X8317712Y65706344D01*
X8409814Y65855666D01*
X8464999Y66022203D01*
X8475500Y66124991D01*
X8475499Y67875008D01*
X8464999Y67977797D01*
X8409814Y68144334D01*
X8317712Y68293656D01*
X8193656Y68417712D01*
X8100888Y68474931D01*
X8044336Y68509813D01*
X8044331Y68509815D01*
X8042862Y68510302D01*
X7877797Y68564999D01*
X7877795Y68565000D01*
X7775010Y68575500D01*
X6024998Y68575500D01*
X6024981Y68575499D01*
X5922203Y68565000D01*
X5922200Y68564999D01*
X5755668Y68509815D01*
X5755663Y68509813D01*
X5606342Y68417711D01*
X5482289Y68293658D01*
X5390187Y68144337D01*
X5390185Y68144332D01*
X5384025Y68125742D01*
X5335001Y67977797D01*
X5335001Y67977796D01*
X5335000Y67977796D01*
X5324500Y67875017D01*
X3969744Y67875017D01*
X3960073Y67904782D01*
X3847489Y68125742D01*
X3701724Y68326370D01*
X3526370Y68501724D01*
X3325742Y68647489D01*
X3104779Y68760075D01*
X3102699Y68760936D01*
X3102028Y68761476D01*
X3100441Y68762285D01*
X3100610Y68762619D01*
X3048292Y68804773D01*
X3026223Y68871066D01*
X3043498Y68938767D01*
X3094632Y68986380D01*
X3150144Y68999500D01*
X13475500Y68999500D01*
X13542539Y68979815D01*
X13588294Y68927011D01*
X13599500Y68875500D01*
X13599500Y29028926D01*
X13579815Y28961887D01*
X13527011Y28916132D01*
X13457853Y28906188D01*
X13451309Y28907309D01*
X13378845Y28921723D01*
X13378842Y28921723D01*
X13221158Y28921723D01*
X13221155Y28921723D01*
X13066510Y28890962D01*
X13066498Y28890959D01*
X12920827Y28830621D01*
X12920814Y28830614D01*
X12789711Y28743013D01*
X12789707Y28743010D01*
X12678213Y28631516D01*
X12678210Y28631512D01*
X12590609Y28500409D01*
X12590602Y28500396D01*
X12530264Y28354725D01*
X12530261Y28354713D01*
X12499500Y28200070D01*
X12499500Y28042377D01*
X12530261Y27887734D01*
X12530264Y27887722D01*
X12590602Y27742051D01*
X12590609Y27742038D01*
X12678209Y27610936D01*
X12678210Y27610935D01*
X12678211Y27610934D01*
X12699681Y27589464D01*
X12733166Y27528143D01*
X12736000Y27501783D01*
X12736000Y26800164D01*
X12716315Y26733125D01*
X12699681Y26712482D01*
X12576924Y26589726D01*
X12515601Y26556242D01*
X12445909Y26561226D01*
X12401563Y26589726D01*
X12346304Y26644985D01*
X12346303Y26644986D01*
X12341973Y26649316D01*
X12341962Y26649326D01*
X12161555Y26829733D01*
X12161553Y26829736D01*
X12049478Y26941811D01*
X12049476Y26941813D01*
X11920868Y27016065D01*
X11828741Y27040750D01*
X11828740Y27040751D01*
X11791174Y27050816D01*
X11777425Y27054500D01*
X11777424Y27054500D01*
X11371080Y27054500D01*
X11222575Y27054500D01*
X11171259Y27040751D01*
X11171259Y27040750D01*
X11079132Y27016065D01*
X11079130Y27016064D01*
X11079129Y27016064D01*
X10950527Y26941815D01*
X10950521Y26941811D01*
X10558189Y26549479D01*
X10558187Y26549476D01*
X10491706Y26434328D01*
X10483934Y26420868D01*
X10473599Y26382294D01*
X10437234Y26322634D01*
X10374387Y26292105D01*
X10353824Y26290388D01*
X10190554Y26290388D01*
X10035909Y26259627D01*
X10035901Y26259625D01*
X9989451Y26240385D01*
X9919981Y26232918D01*
X9857503Y26264193D01*
X9821851Y26324283D01*
X9818000Y26354947D01*
X9818000Y27635647D01*
X9837685Y27702686D01*
X9890489Y27748441D01*
X9959647Y27758385D01*
X9989445Y27750211D01*
X10037603Y27730263D01*
X10176241Y27702686D01*
X10192253Y27699501D01*
X10192256Y27699500D01*
X10192258Y27699500D01*
X10349944Y27699500D01*
X10349945Y27699501D01*
X10504597Y27730263D01*
X10650279Y27790606D01*
X10781389Y27878211D01*
X10892889Y27989711D01*
X10980494Y28120821D01*
X11040837Y28266503D01*
X11047011Y28297544D01*
X11079394Y28359453D01*
X11080889Y28360975D01*
X11836094Y29116179D01*
X11836099Y29116183D01*
X11846302Y29126387D01*
X11846304Y29126387D01*
X11951313Y29231396D01*
X12025565Y29360004D01*
X12029219Y29373644D01*
X12061312Y29429235D01*
X12121789Y29489711D01*
X12209394Y29620821D01*
X12269737Y29766503D01*
X12300500Y29921158D01*
X12300500Y30078842D01*
X12300500Y30078845D01*
X12300499Y30078847D01*
X12281259Y30175570D01*
X12269737Y30233497D01*
X12269735Y30233502D01*
X12209397Y30379173D01*
X12209390Y30379186D01*
X12121789Y30510289D01*
X12121786Y30510293D01*
X12119309Y30512770D01*
X12118425Y30514388D01*
X12117924Y30514999D01*
X12118039Y30515095D01*
X12085824Y30574093D01*
X12090808Y30643785D01*
X12132680Y30699718D01*
X12182797Y30722068D01*
X12223997Y30730263D01*
X12369679Y30790606D01*
X12500789Y30878211D01*
X12612289Y30989711D01*
X12699894Y31120821D01*
X12760237Y31266503D01*
X12791000Y31421158D01*
X12791000Y31578842D01*
X12791000Y31578845D01*
X12790999Y31578847D01*
X12789903Y31584357D01*
X12760237Y31733497D01*
X12743956Y31772804D01*
X12699897Y31879173D01*
X12699890Y31879186D01*
X12612289Y32010289D01*
X12612286Y32010293D01*
X12500792Y32121787D01*
X12500788Y32121790D01*
X12369685Y32209391D01*
X12369672Y32209398D01*
X12224001Y32269736D01*
X12223991Y32269739D01*
X12163808Y32281710D01*
X12101897Y32314095D01*
X12067323Y32374811D01*
X12064000Y32403327D01*
X12064000Y36568349D01*
X12083685Y36635388D01*
X12100319Y36656030D01*
X12119785Y36675496D01*
X12119785Y36675497D01*
X12129989Y36685701D01*
X12129993Y36685706D01*
X12291894Y36847607D01*
X12291899Y36847611D01*
X12302102Y36857815D01*
X12302104Y36857815D01*
X12407113Y36962824D01*
X12481365Y37091432D01*
X12510536Y37200300D01*
X12519800Y37234875D01*
X12519800Y37383380D01*
X12519800Y37631217D01*
X12519801Y37631230D01*
X12519801Y37789722D01*
X12519801Y37789724D01*
X12481365Y37933168D01*
X12475840Y37942737D01*
X12407115Y38061773D01*
X12407110Y38061779D01*
X12319619Y38149270D01*
X12286134Y38210593D01*
X12283300Y38236951D01*
X12283300Y50644861D01*
X12283300Y50644862D01*
X12273055Y50683096D01*
X12244865Y50788306D01*
X12231356Y50811704D01*
X12170613Y50916914D01*
X12100318Y50987209D01*
X12066834Y51048533D01*
X12064000Y51074890D01*
X12064000Y60574250D01*
X12064000Y60574252D01*
X12025565Y60717696D01*
X11951313Y60846304D01*
X11860514Y60937103D01*
X11827029Y60998426D01*
X11832013Y61068118D01*
X11873885Y61124051D01*
X11891896Y61135267D01*
X11925742Y61152511D01*
X12126370Y61298276D01*
X12301724Y61473630D01*
X12447489Y61674258D01*
X12560073Y61895218D01*
X12636706Y62131069D01*
X12653947Y62239930D01*
X12675500Y62376000D01*
X12675500Y62624001D01*
X12640290Y62846302D01*
X12636706Y62868931D01*
X12560073Y63104782D01*
X12447489Y63325742D01*
X12301724Y63526370D01*
X12126370Y63701724D01*
X11925742Y63847489D01*
X11704782Y63960073D01*
X11468931Y64036706D01*
X11468929Y64036707D01*
X11468927Y64036707D01*
X11224000Y64075500D01*
X11223995Y64075500D01*
X10976005Y64075500D01*
X10976000Y64075500D01*
X10731072Y64036707D01*
X10495215Y63960072D01*
X10274257Y63847489D01*
X10200166Y63793658D01*
X10073630Y63701724D01*
X10073628Y63701722D01*
X10073627Y63701722D01*
X9898278Y63526373D01*
X9898278Y63526372D01*
X9898276Y63526370D01*
X9862988Y63477800D01*
X9752511Y63325743D01*
X9653645Y63131705D01*
X9605671Y63080909D01*
X9543160Y63064000D01*
X8705635Y63064000D01*
X8562191Y63025565D01*
X8562188Y63025564D01*
X8515117Y62998388D01*
X8515117Y62998387D01*
X8433584Y62951313D01*
X8433581Y62951311D01*
X8287180Y62804909D01*
X8225857Y62771424D01*
X8156165Y62776408D01*
X8100232Y62818280D01*
X8075815Y62883744D01*
X8075499Y62892590D01*
X8075499Y63375002D01*
X8075498Y63375019D01*
X8064999Y63477797D01*
X8064998Y63477800D01*
X8032783Y63575017D01*
X8009814Y63644334D01*
X7917712Y63793656D01*
X7793656Y63917712D01*
X7700888Y63974931D01*
X7644336Y64009813D01*
X7644331Y64009815D01*
X7642862Y64010302D01*
X7477797Y64064999D01*
X7477795Y64065000D01*
X7375010Y64075500D01*
X5624998Y64075500D01*
X5624981Y64075499D01*
X5522203Y64065000D01*
X5522200Y64064999D01*
X5355668Y64009815D01*
X5355663Y64009813D01*
X5206342Y63917711D01*
X5082289Y63793658D01*
X4990187Y63644337D01*
X4990186Y63644334D01*
X4935001Y63477797D01*
X4935001Y63477796D01*
X4935000Y63477796D01*
X4924500Y63375017D01*
X4924500Y61624999D01*
X4924501Y61624982D01*
X4935000Y61522204D01*
X4935002Y61522197D01*
X4952600Y61469089D01*
X4955001Y61399260D01*
X4938305Y61369981D01*
X4940204Y61369031D01*
X4940203Y61369029D01*
X4928524Y61352826D01*
X4922591Y61342420D01*
X4916992Y61336819D01*
X4916989Y61336822D01*
X4916975Y61336802D01*
X1339181Y57759008D01*
X1277858Y57725523D01*
X1208166Y57730507D01*
X1152233Y57772379D01*
X1127816Y57837843D01*
X1127500Y57846689D01*
X1127500Y59606818D01*
X1147185Y59673857D01*
X1199989Y59719612D01*
X1269147Y59729556D01*
X1275692Y59728435D01*
X1421155Y59699500D01*
X1421158Y59699500D01*
X1578844Y59699500D01*
X1578845Y59699501D01*
X1733497Y59730263D01*
X1879179Y59790606D01*
X2010289Y59878211D01*
X2121789Y59989711D01*
X2209394Y60120821D01*
X2269737Y60266503D01*
X2300500Y60421158D01*
X2300500Y60578842D01*
X2300500Y60578845D01*
X2300499Y60578847D01*
X2287500Y60644196D01*
X2269737Y60733497D01*
X2269735Y60733502D01*
X2209397Y60879173D01*
X2209390Y60879186D01*
X2174361Y60931610D01*
X2153483Y60998287D01*
X2171967Y61065667D01*
X2223946Y61112358D01*
X2277463Y61124501D01*
X3375002Y61124501D01*
X3375008Y61124501D01*
X3477797Y61135001D01*
X3644334Y61190186D01*
X3793656Y61282288D01*
X3917712Y61406344D01*
X4009814Y61555666D01*
X4064999Y61722203D01*
X4075500Y61824991D01*
X4075499Y63575008D01*
X4068417Y63644332D01*
X4064999Y63677797D01*
X4064998Y63677800D01*
X4026606Y63793658D01*
X4009814Y63844334D01*
X3917712Y63993656D01*
X3793656Y64117712D01*
X3644334Y64209814D01*
X3477797Y64264999D01*
X3477795Y64265000D01*
X3375010Y64275500D01*
X1624998Y64275500D01*
X1624981Y64275499D01*
X1522203Y64265000D01*
X1522200Y64264999D01*
X1355668Y64209815D01*
X1355663Y64209813D01*
X1206342Y64117711D01*
X1082289Y63993658D01*
X990187Y63844337D01*
X990185Y63844332D01*
X973393Y63793656D01*
X935001Y63677797D01*
X935001Y63677796D01*
X935000Y63677796D01*
X924500Y63575017D01*
X924500Y61824999D01*
X924501Y61824982D01*
X935000Y61722204D01*
X936419Y61715578D01*
X933819Y61715022D01*
X935815Y61657189D01*
X900090Y61597143D01*
X837573Y61565944D01*
X815704Y61564000D01*
X624500Y61564000D01*
X557461Y61583685D01*
X511706Y61636489D01*
X500500Y61688000D01*
X500500Y68875500D01*
X520185Y68942539D01*
X572989Y68988294D01*
X624500Y68999500D01*
X1849856Y68999500D01*
X1916895Y68979815D01*
G37*
%TD.AperFunction*%
%TA.AperFunction,Conductor*%
G36*
X4097703Y29472435D02*
G01*
X4104181Y29466403D01*
X4980481Y28590103D01*
X5013966Y28528780D01*
X5016800Y28502422D01*
X5016800Y27711078D01*
X4997115Y27644039D01*
X4944311Y27598284D01*
X4875153Y27588340D01*
X4811597Y27617365D01*
X4805119Y27623397D01*
X3928819Y28499697D01*
X3895334Y28561020D01*
X3892500Y28587378D01*
X3892500Y29378722D01*
X3912185Y29445761D01*
X3964989Y29491516D01*
X4034147Y29501460D01*
X4097703Y29472435D01*
G37*
%TD.AperFunction*%
%TA.AperFunction,Conductor*%
G36*
X4551534Y38444104D02*
G01*
X4607467Y38402232D01*
X4631884Y38336768D01*
X4632200Y38327922D01*
X4632200Y34511219D01*
X4612515Y34444180D01*
X4559711Y34398425D01*
X4490553Y34388481D01*
X4426997Y34417506D01*
X4389223Y34476284D01*
X4388437Y34479082D01*
X4361665Y34578996D01*
X4287413Y34707604D01*
X3762183Y35232833D01*
X3728699Y35294155D01*
X3728248Y35344703D01*
X3757400Y35491258D01*
X3757400Y35648942D01*
X3757400Y35648945D01*
X3757399Y35648947D01*
X3726638Y35803590D01*
X3726637Y35803597D01*
X3726635Y35803602D01*
X3666297Y35949273D01*
X3666290Y35949286D01*
X3578689Y36080389D01*
X3578686Y36080393D01*
X3467192Y36191887D01*
X3467188Y36191890D01*
X3336085Y36279491D01*
X3336072Y36279498D01*
X3190401Y36339836D01*
X3190391Y36339839D01*
X3102708Y36357280D01*
X3040798Y36389665D01*
X3006223Y36450381D01*
X3002900Y36478897D01*
X3002900Y36946622D01*
X3022585Y37013661D01*
X3039219Y37034303D01*
X4420519Y38415603D01*
X4481842Y38449088D01*
X4551534Y38444104D01*
G37*
%TD.AperFunction*%
%TA.AperFunction,Conductor*%
G36*
X9610199Y61916315D02*
G01*
X9653645Y61868295D01*
X9719318Y61739404D01*
X9732214Y61670734D01*
X9705938Y61605994D01*
X9648831Y61565737D01*
X9579025Y61562745D01*
X9576748Y61563332D01*
X9574257Y61564000D01*
X9574253Y61564000D01*
X9425747Y61564000D01*
X9282304Y61525565D01*
X9282301Y61525564D01*
X9153699Y61451315D01*
X9153693Y61451311D01*
X9048689Y61346307D01*
X9048685Y61346301D01*
X9004481Y61269737D01*
X8974434Y61217695D01*
X8949464Y61124501D01*
X8936000Y61074254D01*
X8936000Y60591306D01*
X8916315Y60524267D01*
X8899681Y60503625D01*
X6086777Y57690722D01*
X6025454Y57657237D01*
X5955762Y57662221D01*
X5930206Y57675300D01*
X5879183Y57709392D01*
X5879172Y57709398D01*
X5733501Y57769736D01*
X5733489Y57769739D01*
X5578845Y57800500D01*
X5578842Y57800500D01*
X5421158Y57800500D01*
X5421155Y57800500D01*
X5266510Y57769739D01*
X5266498Y57769736D01*
X5120827Y57709398D01*
X5120814Y57709391D01*
X4989711Y57621790D01*
X4989707Y57621787D01*
X4878213Y57510293D01*
X4878210Y57510289D01*
X4790609Y57379186D01*
X4790602Y57379173D01*
X4730264Y57233502D01*
X4730261Y57233490D01*
X4699500Y57078847D01*
X4699500Y56921154D01*
X4730261Y56766511D01*
X4730264Y56766499D01*
X4790602Y56620828D01*
X4790609Y56620815D01*
X4878210Y56489712D01*
X4878213Y56489708D01*
X4989707Y56378214D01*
X4989711Y56378211D01*
X5120814Y56290610D01*
X5120827Y56290603D01*
X5237170Y56242413D01*
X5266503Y56230263D01*
X5388008Y56206094D01*
X5421153Y56199501D01*
X5421156Y56199500D01*
X5421158Y56199500D01*
X5578844Y56199500D01*
X5578845Y56199501D01*
X5733497Y56230263D01*
X5879179Y56290606D01*
X6010289Y56378211D01*
X6010292Y56378214D01*
X6031760Y56399681D01*
X6093083Y56433166D01*
X6119441Y56436000D01*
X6267923Y56436000D01*
X6267925Y56436000D01*
X6411368Y56474435D01*
X6539976Y56548687D01*
X6644985Y56653696D01*
X6644985Y56653698D01*
X6655189Y56663901D01*
X6655193Y56663906D01*
X9836094Y59844807D01*
X9836099Y59844811D01*
X9846302Y59855015D01*
X9846304Y59855015D01*
X9890969Y59899680D01*
X9952292Y59933165D01*
X9978650Y59935999D01*
X10081849Y59935999D01*
X10081865Y59936000D01*
X10812000Y59936000D01*
X10879039Y59916315D01*
X10924794Y59863511D01*
X10936000Y59812000D01*
X10936000Y52091678D01*
X10916315Y52024639D01*
X10863511Y51978884D01*
X10794353Y51968940D01*
X10730797Y51997965D01*
X10724319Y52003997D01*
X10676819Y52051497D01*
X10643334Y52112820D01*
X10640500Y52139178D01*
X10640500Y52169545D01*
X10640499Y52169547D01*
X10614531Y52300094D01*
X10609737Y52324197D01*
X10609735Y52324202D01*
X10549397Y52469873D01*
X10549390Y52469886D01*
X10461789Y52600989D01*
X10461786Y52600993D01*
X10350292Y52712487D01*
X10350288Y52712490D01*
X10219185Y52800091D01*
X10219172Y52800098D01*
X10073501Y52860436D01*
X10073489Y52860439D01*
X9918845Y52891200D01*
X9918842Y52891200D01*
X9761158Y52891200D01*
X9761155Y52891200D01*
X9606510Y52860439D01*
X9606498Y52860436D01*
X9460827Y52800098D01*
X9460814Y52800091D01*
X9329711Y52712490D01*
X9329707Y52712487D01*
X9218213Y52600993D01*
X9218210Y52600989D01*
X9130609Y52469886D01*
X9130606Y52469879D01*
X9126548Y52460082D01*
X9082706Y52405679D01*
X9016412Y52383615D01*
X8987797Y52385918D01*
X8979941Y52387481D01*
X8961242Y52391200D01*
X8803558Y52391200D01*
X8803555Y52391200D01*
X8648910Y52360439D01*
X8648898Y52360436D01*
X8503227Y52300098D01*
X8503214Y52300091D01*
X8372111Y52212490D01*
X8372107Y52212487D01*
X8260613Y52100993D01*
X8260610Y52100989D01*
X8173009Y51969886D01*
X8173002Y51969873D01*
X8112664Y51824202D01*
X8112661Y51824190D01*
X8081900Y51669547D01*
X8081900Y51511854D01*
X8112661Y51357211D01*
X8112664Y51357199D01*
X8173002Y51211528D01*
X8173009Y51211515D01*
X8263995Y51075346D01*
X8261111Y51073420D01*
X8283642Y51024098D01*
X8273705Y50954939D01*
X8227955Y50902131D01*
X8208359Y50891879D01*
X8110624Y50851396D01*
X8110614Y50851391D01*
X7979511Y50763790D01*
X7877349Y50661628D01*
X7816026Y50628144D01*
X7746334Y50633128D01*
X7701989Y50661628D01*
X7274382Y51089234D01*
X7274381Y51089236D01*
X7162306Y51201311D01*
X7162304Y51201313D01*
X7033696Y51275565D01*
X7033695Y51275566D01*
X7033694Y51275566D01*
X7033694Y51275567D01*
X7007542Y51282573D01*
X7007541Y51282573D01*
X6890253Y51314000D01*
X6890252Y51314000D01*
X6535441Y51314000D01*
X6468402Y51333685D01*
X6447760Y51350319D01*
X6426292Y51371787D01*
X6426288Y51371790D01*
X6295185Y51459391D01*
X6295172Y51459398D01*
X6149501Y51519736D01*
X6149489Y51519739D01*
X5994845Y51550500D01*
X5994842Y51550500D01*
X5884200Y51550500D01*
X5817161Y51570185D01*
X5771406Y51622989D01*
X5760200Y51674500D01*
X5760200Y52844022D01*
X5779885Y52911061D01*
X5796519Y52931703D01*
X5842597Y52977781D01*
X5903920Y53011266D01*
X5930278Y53014100D01*
X5960644Y53014100D01*
X5960645Y53014101D01*
X6115297Y53044863D01*
X6260979Y53105206D01*
X6392089Y53192811D01*
X6503589Y53304311D01*
X6591194Y53435421D01*
X6651537Y53581103D01*
X6682300Y53735758D01*
X6682300Y53893442D01*
X6682300Y53893445D01*
X6682299Y53893447D01*
X6657178Y54019737D01*
X6651537Y54048097D01*
X6628911Y54102722D01*
X6591197Y54193773D01*
X6591190Y54193786D01*
X6503589Y54324889D01*
X6503586Y54324893D01*
X6392092Y54436387D01*
X6392088Y54436390D01*
X6260985Y54523991D01*
X6260972Y54523998D01*
X6115301Y54584336D01*
X6115289Y54584339D01*
X5960645Y54615100D01*
X5960642Y54615100D01*
X5802958Y54615100D01*
X5802955Y54615100D01*
X5648310Y54584339D01*
X5648298Y54584336D01*
X5502627Y54523998D01*
X5502614Y54523991D01*
X5371511Y54436390D01*
X5371507Y54436387D01*
X5260013Y54324893D01*
X5260010Y54324889D01*
X5172409Y54193786D01*
X5172404Y54193776D01*
X5122254Y54072703D01*
X5078413Y54018300D01*
X5012118Y53996235D01*
X4960242Y54005594D01*
X4948602Y54010416D01*
X4926097Y54019737D01*
X4926093Y54019738D01*
X4926089Y54019739D01*
X4771445Y54050500D01*
X4771442Y54050500D01*
X4613758Y54050500D01*
X4613755Y54050500D01*
X4459110Y54019739D01*
X4459098Y54019736D01*
X4313427Y53959398D01*
X4313414Y53959391D01*
X4182311Y53871790D01*
X4182307Y53871787D01*
X4070813Y53760293D01*
X4070810Y53760289D01*
X3983209Y53629186D01*
X3983202Y53629173D01*
X3922864Y53483502D01*
X3922861Y53483490D01*
X3892100Y53328847D01*
X3892100Y53171154D01*
X3922861Y53016511D01*
X3922864Y53016499D01*
X3983202Y52870828D01*
X3983209Y52870815D01*
X4070810Y52739712D01*
X4070813Y52739708D01*
X4182310Y52628211D01*
X4318487Y52537221D01*
X4317398Y52535593D01*
X4360794Y52492969D01*
X4376500Y52432567D01*
X4376500Y48940100D01*
X4356815Y48873061D01*
X4304011Y48827306D01*
X4252500Y48816100D01*
X3817434Y48816100D01*
X3750395Y48835785D01*
X3714168Y48875043D01*
X3712779Y48874114D01*
X3621789Y49010289D01*
X3621786Y49010293D01*
X3510292Y49121787D01*
X3510288Y49121790D01*
X3379185Y49209391D01*
X3379172Y49209398D01*
X3233501Y49269736D01*
X3233489Y49269739D01*
X3078845Y49300500D01*
X3078842Y49300500D01*
X2921158Y49300500D01*
X2921155Y49300500D01*
X2766510Y49269739D01*
X2766498Y49269736D01*
X2620827Y49209398D01*
X2620814Y49209391D01*
X2499191Y49128124D01*
X2432513Y49107246D01*
X2365133Y49125731D01*
X2318443Y49177709D01*
X2306300Y49231226D01*
X2306300Y54067134D01*
X2318126Y54114338D01*
X2316063Y54115192D01*
X2378735Y54266499D01*
X2378737Y54266503D01*
X2409500Y54421158D01*
X2409500Y54578842D01*
X2409500Y54578845D01*
X2409499Y54578847D01*
X2378738Y54733490D01*
X2378737Y54733497D01*
X2378735Y54733502D01*
X2318397Y54879173D01*
X2318390Y54879186D01*
X2230789Y55010289D01*
X2230786Y55010293D01*
X2119292Y55121787D01*
X2119288Y55121790D01*
X1988185Y55209391D01*
X1988172Y55209398D01*
X1842501Y55269736D01*
X1842489Y55269739D01*
X1687845Y55300500D01*
X1687842Y55300500D01*
X1530158Y55300500D01*
X1530156Y55300500D01*
X1529688Y55300407D01*
X1529438Y55300430D01*
X1524093Y55299903D01*
X1523993Y55300917D01*
X1460096Y55306637D01*
X1404920Y55349501D01*
X1381678Y55415392D01*
X1381500Y55422025D01*
X1381500Y56154732D01*
X1401185Y56221771D01*
X1417819Y56242413D01*
X5565587Y60390181D01*
X5626910Y60423666D01*
X5653268Y60426500D01*
X7344639Y60426500D01*
X7344641Y60426500D01*
X7488084Y60464935D01*
X7504538Y60474435D01*
X7616692Y60539187D01*
X7721701Y60644196D01*
X7721701Y60644198D01*
X7731905Y60654401D01*
X7731908Y60654406D01*
X8977185Y61899681D01*
X9038508Y61933166D01*
X9064866Y61936000D01*
X9543160Y61936000D01*
X9610199Y61916315D01*
G37*
%TD.AperFunction*%
%TD*%
%TA.AperFunction,NonConductor*%
G36*
X10659573Y37273492D02*
G01*
X10713452Y37229007D01*
X10725323Y37206955D01*
X10755902Y37133128D01*
X10755909Y37133115D01*
X10843509Y37002013D01*
X10843510Y37002012D01*
X10843511Y37002011D01*
X10899682Y36945840D01*
X10933166Y36884519D01*
X10936000Y36858160D01*
X10936000Y31916246D01*
X10952808Y31853514D01*
X10952809Y31853514D01*
X10974436Y31772801D01*
X11048684Y31644200D01*
X11048689Y31644194D01*
X11153681Y31539202D01*
X11187166Y31477879D01*
X11190000Y31451521D01*
X11190000Y31440940D01*
X11170315Y31373901D01*
X11153681Y31353259D01*
X10845234Y31044811D01*
X10282928Y30482504D01*
X10009479Y30209055D01*
X9948156Y30175570D01*
X9921798Y30172736D01*
X9792841Y30172736D01*
X9725802Y30192421D01*
X9705160Y30209055D01*
X9683692Y30230523D01*
X9683688Y30230526D01*
X9552585Y30318127D01*
X9552572Y30318134D01*
X9406901Y30378472D01*
X9406889Y30378475D01*
X9252245Y30409236D01*
X9252242Y30409236D01*
X9094558Y30409236D01*
X9094553Y30409236D01*
X9005525Y30391527D01*
X8935933Y30397754D01*
X8893653Y30425463D01*
X7796082Y31523034D01*
X7762597Y31584357D01*
X7767581Y31654049D01*
X7780659Y31679603D01*
X7807298Y31719470D01*
X7867641Y31865152D01*
X7898404Y32019807D01*
X7898404Y32177491D01*
X7898404Y32177494D01*
X7898403Y32177496D01*
X7867641Y32332146D01*
X7819202Y32449089D01*
X7807301Y32477822D01*
X7807297Y32477829D01*
X7789774Y32504054D01*
X7768896Y32570732D01*
X7787380Y32638112D01*
X7839359Y32684803D01*
X7908329Y32695979D01*
X7972392Y32668094D01*
X7980557Y32660627D01*
X8663181Y31978003D01*
X8696666Y31916680D01*
X8699500Y31890322D01*
X8699500Y31859954D01*
X8730261Y31705311D01*
X8730264Y31705299D01*
X8790602Y31559628D01*
X8790609Y31559615D01*
X8878210Y31428512D01*
X8878213Y31428508D01*
X8989707Y31317014D01*
X8989711Y31317011D01*
X9120814Y31229410D01*
X9120827Y31229403D01*
X9266498Y31169065D01*
X9266503Y31169063D01*
X9421153Y31138301D01*
X9421156Y31138300D01*
X9421158Y31138300D01*
X9578844Y31138300D01*
X9578845Y31138301D01*
X9733497Y31169063D01*
X9879179Y31229406D01*
X10010289Y31317011D01*
X10121789Y31428511D01*
X10209394Y31559621D01*
X10269737Y31705303D01*
X10300500Y31859958D01*
X10300500Y32017642D01*
X10300500Y32017645D01*
X10300499Y32017647D01*
X10279784Y32121787D01*
X10269737Y32172297D01*
X10254371Y32209394D01*
X10209397Y32317973D01*
X10209390Y32317986D01*
X10121789Y32449089D01*
X10121786Y32449093D01*
X10010292Y32560587D01*
X10010288Y32560590D01*
X9879185Y32648191D01*
X9879172Y32648198D01*
X9733501Y32708536D01*
X9733489Y32708539D01*
X9578845Y32739300D01*
X9578842Y32739300D01*
X9548478Y32739300D01*
X9481439Y32758985D01*
X9460797Y32775619D01*
X7832319Y34404097D01*
X7798834Y34465420D01*
X7796000Y34491778D01*
X7796000Y35976039D01*
X7815685Y36043078D01*
X7868489Y36088833D01*
X7937647Y36098777D01*
X7952074Y36095818D01*
X8039848Y36072299D01*
X8039851Y36072299D01*
X8195949Y36072299D01*
X8195965Y36072300D01*
X9353351Y36072300D01*
X9353353Y36072300D01*
X9496796Y36110735D01*
X9505350Y36115674D01*
X9537264Y36134099D01*
X9537265Y36134100D01*
X9625404Y36184987D01*
X9730413Y36289996D01*
X9730413Y36289998D01*
X9740617Y36300201D01*
X9740621Y36300206D01*
X10269794Y36829379D01*
X10269799Y36829383D01*
X10280002Y36839587D01*
X10280004Y36839587D01*
X10385013Y36944596D01*
X10459265Y37073204D01*
X10468838Y37108931D01*
X10490987Y37191597D01*
X10527351Y37251256D01*
X10590198Y37281786D01*
X10659573Y37273492D01*
G37*
%TD.AperFunction*%
%TA.AperFunction,NonConductor*%
G36*
X13518834Y10925031D02*
G01*
X13574767Y10883159D01*
X13599184Y10817695D01*
X13599500Y10808849D01*
X13599500Y624500D01*
X13579815Y557461D01*
X13527011Y511706D01*
X13475500Y500500D01*
X11689007Y500500D01*
X11621968Y520185D01*
X11576213Y572989D01*
X11566269Y642147D01*
X11595294Y705703D01*
X11620116Y727602D01*
X11670872Y761517D01*
X11717782Y792861D01*
X11857139Y932218D01*
X11966632Y1096086D01*
X12042051Y1278165D01*
X12080500Y1471459D01*
X12080500Y1668541D01*
X12080500Y1668544D01*
X12042052Y1861830D01*
X12042051Y1861831D01*
X12042051Y1861835D01*
X12042049Y1861840D01*
X11966635Y2043908D01*
X11966628Y2043921D01*
X11857139Y2207782D01*
X11857136Y2207786D01*
X11717785Y2347137D01*
X11717781Y2347140D01*
X11553920Y2456629D01*
X11553907Y2456636D01*
X11371839Y2532050D01*
X11371829Y2532053D01*
X11178543Y2570500D01*
X11178541Y2570500D01*
X10181459Y2570500D01*
X10181457Y2570500D01*
X9988170Y2532053D01*
X9988160Y2532050D01*
X9806092Y2456636D01*
X9806079Y2456629D01*
X9642218Y2347140D01*
X9642214Y2347137D01*
X9502863Y2207786D01*
X9502860Y2207782D01*
X9393371Y2043921D01*
X9393364Y2043908D01*
X9317950Y1861840D01*
X9317947Y1861830D01*
X9279500Y1668544D01*
X9279500Y1668541D01*
X9279500Y1471459D01*
X9279500Y1471457D01*
X9279499Y1471457D01*
X9317947Y1278171D01*
X9317950Y1278161D01*
X9393364Y1096093D01*
X9393371Y1096080D01*
X9502860Y932219D01*
X9502863Y932215D01*
X9642214Y792864D01*
X9642218Y792861D01*
X9739884Y727602D01*
X9784689Y673990D01*
X9793396Y604665D01*
X9763241Y541637D01*
X9703798Y504918D01*
X9670993Y500500D01*
X7659007Y500500D01*
X7591968Y520185D01*
X7546213Y572989D01*
X7536269Y642147D01*
X7565294Y705703D01*
X7590116Y727602D01*
X7640872Y761517D01*
X7687782Y792861D01*
X7827139Y932218D01*
X7936632Y1096086D01*
X8012051Y1278165D01*
X8050500Y1471459D01*
X8050500Y1668541D01*
X8050500Y1668544D01*
X8012052Y1861830D01*
X8012051Y1861831D01*
X8012051Y1861835D01*
X8012049Y1861840D01*
X7936635Y2043908D01*
X7936628Y2043921D01*
X7827139Y2207782D01*
X7827136Y2207786D01*
X7687785Y2347137D01*
X7687781Y2347140D01*
X7523920Y2456629D01*
X7523907Y2456636D01*
X7416184Y2501255D01*
X7361780Y2545095D01*
X7339715Y2611389D01*
X7356994Y2679089D01*
X7375952Y2703494D01*
X7380495Y2708036D01*
X7443095Y2816464D01*
X7475500Y2937399D01*
X7475500Y3062601D01*
X7443095Y3183536D01*
X7380495Y3291964D01*
X7291964Y3380495D01*
X7183536Y3443095D01*
X7183537Y3443095D01*
X7143224Y3453897D01*
X7062601Y3475500D01*
X6937399Y3475500D01*
X6856775Y3453897D01*
X6816463Y3443095D01*
X6708037Y3380496D01*
X6708034Y3380494D01*
X6619506Y3291966D01*
X6619504Y3291963D01*
X6556905Y3183537D01*
X6556905Y3183536D01*
X6524500Y3062601D01*
X6524500Y2937399D01*
X6556905Y2816464D01*
X6591525Y2756499D01*
X6607996Y2688598D01*
X6585143Y2622572D01*
X6530222Y2579382D01*
X6484137Y2570500D01*
X5851457Y2570500D01*
X5658170Y2532053D01*
X5658160Y2532050D01*
X5476092Y2456636D01*
X5476079Y2456629D01*
X5312218Y2347140D01*
X5312214Y2347137D01*
X5172863Y2207786D01*
X5172860Y2207782D01*
X5063371Y2043921D01*
X5063364Y2043908D01*
X4987950Y1861840D01*
X4987947Y1861830D01*
X4949500Y1668544D01*
X4949500Y1668541D01*
X4949500Y1471459D01*
X4949500Y1471457D01*
X4949499Y1471457D01*
X4987947Y1278171D01*
X4987950Y1278161D01*
X5063364Y1096093D01*
X5063371Y1096080D01*
X5172860Y932219D01*
X5172863Y932215D01*
X5312214Y792864D01*
X5312218Y792861D01*
X5409884Y727602D01*
X5454689Y673990D01*
X5463396Y604665D01*
X5433241Y541637D01*
X5373798Y504918D01*
X5340993Y500500D01*
X624500Y500500D01*
X557461Y520185D01*
X511706Y572989D01*
X500500Y624500D01*
X500500Y7718366D01*
X520185Y7785405D01*
X572989Y7831160D01*
X642147Y7841104D01*
X671950Y7832928D01*
X766503Y7793763D01*
X910113Y7765197D01*
X921153Y7763001D01*
X921156Y7763000D01*
X921158Y7763000D01*
X1078843Y7763000D01*
X1105694Y7768342D01*
X1121190Y7771424D01*
X1190782Y7765197D01*
X1245960Y7722335D01*
X1259944Y7697259D01*
X1291602Y7620828D01*
X1291609Y7620815D01*
X1379210Y7489712D01*
X1379213Y7489708D01*
X1490707Y7378214D01*
X1490711Y7378211D01*
X1621814Y7290610D01*
X1621827Y7290603D01*
X1679103Y7266879D01*
X1767503Y7230263D01*
X1922153Y7199501D01*
X1922156Y7199500D01*
X1922158Y7199500D01*
X2079844Y7199500D01*
X2079845Y7199501D01*
X2125831Y7208648D01*
X2240472Y7231451D01*
X2240983Y7228880D01*
X2299448Y7229431D01*
X2353318Y7197811D01*
X5097391Y4453738D01*
X5097401Y4453727D01*
X5101731Y4449397D01*
X5101732Y4449396D01*
X5206741Y4344387D01*
X5288274Y4297314D01*
X5335348Y4270135D01*
X5478792Y4231700D01*
X5478793Y4231700D01*
X5478794Y4231700D01*
X7267023Y4231700D01*
X7267025Y4231700D01*
X7410468Y4270135D01*
X7539076Y4344387D01*
X7644085Y4449396D01*
X7644085Y4449398D01*
X7654289Y4459601D01*
X7654293Y4459606D01*
X9361585Y6166899D01*
X9422906Y6200382D01*
X9473456Y6200833D01*
X9480158Y6199500D01*
X9480159Y6199500D01*
X9637844Y6199500D01*
X9637845Y6199501D01*
X9792497Y6230263D01*
X9938179Y6290606D01*
X10069289Y6378211D01*
X10180789Y6489711D01*
X10268394Y6620821D01*
X10328737Y6766503D01*
X10359500Y6921158D01*
X10359500Y6951523D01*
X10379185Y7018562D01*
X10395814Y7039199D01*
X12836094Y9479480D01*
X12836099Y9479483D01*
X12846302Y9489687D01*
X12846304Y9489687D01*
X12951313Y9594696D01*
X13025565Y9723304D01*
X13054374Y9830821D01*
X13064000Y9866747D01*
X13064000Y10015253D01*
X13064000Y10521349D01*
X13083685Y10588388D01*
X13100319Y10609030D01*
X13154485Y10663196D01*
X13154485Y10663198D01*
X13164689Y10673401D01*
X13164693Y10673406D01*
X13326594Y10835307D01*
X13326599Y10835311D01*
X13336802Y10845515D01*
X13336804Y10845515D01*
X13387819Y10896530D01*
X13449142Y10930015D01*
X13518834Y10925031D01*
G37*
%TD.AperFunction*%
M02*
