%TF.GenerationSoftware,KiCad,Pcbnew,10.0.5*%
%TF.CreationDate,2026-09-14T14:48:56-05:00*%
%TF.ProjectId,arc-insight-board,6172632d-696e-4736-9967-68742d626f61,rev?*%
%TF.SameCoordinates,PX7d687e0PY87e60a0*%
%TF.FileFunction,AssemblyDrawing,Top*%
%FSLAX46Y46*%
G04 Gerber Fmt 4.6, Leading zero omitted, Abs format (unit mm)*
G04 Created by KiCad (PCBNEW 10.0.5) date 2026-09-14 14:48:56*
%MOMM*%
%LPD*%
G01*
G04 APERTURE LIST*
%ADD10C,0.040000*%
%ADD11C,0.150000*%
%ADD12C,0.110000*%
%ADD13C,0.120000*%
%ADD14C,0.060000*%
%ADD15C,0.075000*%
%ADD16C,0.090000*%
%ADD17C,0.100000*%
G04 APERTURE END LIST*
D10*
X1359285Y38410235D02*
X1347381Y38398330D01*
X1347381Y38398330D02*
X1311666Y38386426D01*
X1311666Y38386426D02*
X1287857Y38386426D01*
X1287857Y38386426D02*
X1252143Y38398330D01*
X1252143Y38398330D02*
X1228333Y38422140D01*
X1228333Y38422140D02*
X1216428Y38445950D01*
X1216428Y38445950D02*
X1204524Y38493569D01*
X1204524Y38493569D02*
X1204524Y38529283D01*
X1204524Y38529283D02*
X1216428Y38576902D01*
X1216428Y38576902D02*
X1228333Y38600711D01*
X1228333Y38600711D02*
X1252143Y38624521D01*
X1252143Y38624521D02*
X1287857Y38636426D01*
X1287857Y38636426D02*
X1311666Y38636426D01*
X1311666Y38636426D02*
X1347381Y38624521D01*
X1347381Y38624521D02*
X1359285Y38612616D01*
X1597381Y38386426D02*
X1454524Y38386426D01*
X1525952Y38386426D02*
X1525952Y38636426D01*
X1525952Y38636426D02*
X1502143Y38600711D01*
X1502143Y38600711D02*
X1478333Y38576902D01*
X1478333Y38576902D02*
X1454524Y38564997D01*
X1835476Y38386426D02*
X1692619Y38386426D01*
X1764047Y38386426D02*
X1764047Y38636426D01*
X1764047Y38636426D02*
X1740238Y38600711D01*
X1740238Y38600711D02*
X1716428Y38576902D01*
X1716428Y38576902D02*
X1692619Y38564997D01*
D11*
X14059819Y-729048D02*
X14869342Y-729048D01*
X14869342Y-729048D02*
X14964580Y-681429D01*
X14964580Y-681429D02*
X15012200Y-633810D01*
X15012200Y-633810D02*
X15059819Y-538572D01*
X15059819Y-538572D02*
X15059819Y-348096D01*
X15059819Y-348096D02*
X15012200Y-252858D01*
X15012200Y-252858D02*
X14964580Y-205239D01*
X14964580Y-205239D02*
X14869342Y-157620D01*
X14869342Y-157620D02*
X14059819Y-157620D01*
X15012200Y270952D02*
X15059819Y413809D01*
X15059819Y413809D02*
X15059819Y651904D01*
X15059819Y651904D02*
X15012200Y747142D01*
X15012200Y747142D02*
X14964580Y794761D01*
X14964580Y794761D02*
X14869342Y842380D01*
X14869342Y842380D02*
X14774104Y842380D01*
X14774104Y842380D02*
X14678866Y794761D01*
X14678866Y794761D02*
X14631247Y747142D01*
X14631247Y747142D02*
X14583628Y651904D01*
X14583628Y651904D02*
X14536009Y461428D01*
X14536009Y461428D02*
X14488390Y366190D01*
X14488390Y366190D02*
X14440771Y318571D01*
X14440771Y318571D02*
X14345533Y270952D01*
X14345533Y270952D02*
X14250295Y270952D01*
X14250295Y270952D02*
X14155057Y318571D01*
X14155057Y318571D02*
X14107438Y366190D01*
X14107438Y366190D02*
X14059819Y461428D01*
X14059819Y461428D02*
X14059819Y699523D01*
X14059819Y699523D02*
X14107438Y842380D01*
X14536009Y1604285D02*
X14583628Y1747142D01*
X14583628Y1747142D02*
X14631247Y1794761D01*
X14631247Y1794761D02*
X14726485Y1842380D01*
X14726485Y1842380D02*
X14869342Y1842380D01*
X14869342Y1842380D02*
X14964580Y1794761D01*
X14964580Y1794761D02*
X15012200Y1747142D01*
X15012200Y1747142D02*
X15059819Y1651904D01*
X15059819Y1651904D02*
X15059819Y1270952D01*
X15059819Y1270952D02*
X14059819Y1270952D01*
X14059819Y1270952D02*
X14059819Y1604285D01*
X14059819Y1604285D02*
X14107438Y1699523D01*
X14107438Y1699523D02*
X14155057Y1747142D01*
X14155057Y1747142D02*
X14250295Y1794761D01*
X14250295Y1794761D02*
X14345533Y1794761D01*
X14345533Y1794761D02*
X14440771Y1747142D01*
X14440771Y1747142D02*
X14488390Y1699523D01*
X14488390Y1699523D02*
X14536009Y1604285D01*
X14536009Y1604285D02*
X14536009Y1270952D01*
X15155057Y2032856D02*
X15155057Y2794761D01*
X14964580Y3604285D02*
X15012200Y3556666D01*
X15012200Y3556666D02*
X15059819Y3413809D01*
X15059819Y3413809D02*
X15059819Y3318571D01*
X15059819Y3318571D02*
X15012200Y3175714D01*
X15012200Y3175714D02*
X14916961Y3080476D01*
X14916961Y3080476D02*
X14821723Y3032857D01*
X14821723Y3032857D02*
X14631247Y2985238D01*
X14631247Y2985238D02*
X14488390Y2985238D01*
X14488390Y2985238D02*
X14297914Y3032857D01*
X14297914Y3032857D02*
X14202676Y3080476D01*
X14202676Y3080476D02*
X14107438Y3175714D01*
X14107438Y3175714D02*
X14059819Y3318571D01*
X14059819Y3318571D02*
X14059819Y3413809D01*
X14059819Y3413809D02*
X14107438Y3556666D01*
X14107438Y3556666D02*
X14155057Y3604285D01*
X15155057Y3794761D02*
X15155057Y4556666D01*
X15059819Y5366190D02*
X14583628Y5032857D01*
X15059819Y4794762D02*
X14059819Y4794762D01*
X14059819Y4794762D02*
X14059819Y5175714D01*
X14059819Y5175714D02*
X14107438Y5270952D01*
X14107438Y5270952D02*
X14155057Y5318571D01*
X14155057Y5318571D02*
X14250295Y5366190D01*
X14250295Y5366190D02*
X14393152Y5366190D01*
X14393152Y5366190D02*
X14488390Y5318571D01*
X14488390Y5318571D02*
X14536009Y5270952D01*
X14536009Y5270952D02*
X14583628Y5175714D01*
X14583628Y5175714D02*
X14583628Y4794762D01*
X15012200Y6175714D02*
X15059819Y6080476D01*
X15059819Y6080476D02*
X15059819Y5890000D01*
X15059819Y5890000D02*
X15012200Y5794762D01*
X15012200Y5794762D02*
X14916961Y5747143D01*
X14916961Y5747143D02*
X14536009Y5747143D01*
X14536009Y5747143D02*
X14440771Y5794762D01*
X14440771Y5794762D02*
X14393152Y5890000D01*
X14393152Y5890000D02*
X14393152Y6080476D01*
X14393152Y6080476D02*
X14440771Y6175714D01*
X14440771Y6175714D02*
X14536009Y6223333D01*
X14536009Y6223333D02*
X14631247Y6223333D01*
X14631247Y6223333D02*
X14726485Y5747143D01*
X15012200Y7080476D02*
X15059819Y6985238D01*
X15059819Y6985238D02*
X15059819Y6794762D01*
X15059819Y6794762D02*
X15012200Y6699524D01*
X15012200Y6699524D02*
X14964580Y6651905D01*
X14964580Y6651905D02*
X14869342Y6604286D01*
X14869342Y6604286D02*
X14583628Y6604286D01*
X14583628Y6604286D02*
X14488390Y6651905D01*
X14488390Y6651905D02*
X14440771Y6699524D01*
X14440771Y6699524D02*
X14393152Y6794762D01*
X14393152Y6794762D02*
X14393152Y6985238D01*
X14393152Y6985238D02*
X14440771Y7080476D01*
X15012200Y7890000D02*
X15059819Y7794762D01*
X15059819Y7794762D02*
X15059819Y7604286D01*
X15059819Y7604286D02*
X15012200Y7509048D01*
X15012200Y7509048D02*
X14916961Y7461429D01*
X14916961Y7461429D02*
X14536009Y7461429D01*
X14536009Y7461429D02*
X14440771Y7509048D01*
X14440771Y7509048D02*
X14393152Y7604286D01*
X14393152Y7604286D02*
X14393152Y7794762D01*
X14393152Y7794762D02*
X14440771Y7890000D01*
X14440771Y7890000D02*
X14536009Y7937619D01*
X14536009Y7937619D02*
X14631247Y7937619D01*
X14631247Y7937619D02*
X14726485Y7461429D01*
X14393152Y8366191D02*
X15393152Y8366191D01*
X14440771Y8366191D02*
X14393152Y8461429D01*
X14393152Y8461429D02*
X14393152Y8651905D01*
X14393152Y8651905D02*
X14440771Y8747143D01*
X14440771Y8747143D02*
X14488390Y8794762D01*
X14488390Y8794762D02*
X14583628Y8842381D01*
X14583628Y8842381D02*
X14869342Y8842381D01*
X14869342Y8842381D02*
X14964580Y8794762D01*
X14964580Y8794762D02*
X15012200Y8747143D01*
X15012200Y8747143D02*
X15059819Y8651905D01*
X15059819Y8651905D02*
X15059819Y8461429D01*
X15059819Y8461429D02*
X15012200Y8366191D01*
X14393152Y9128096D02*
X14393152Y9509048D01*
X14059819Y9270953D02*
X14916961Y9270953D01*
X14916961Y9270953D02*
X15012200Y9318572D01*
X15012200Y9318572D02*
X15059819Y9413810D01*
X15059819Y9413810D02*
X15059819Y9509048D01*
X15059819Y10270953D02*
X14536009Y10270953D01*
X14536009Y10270953D02*
X14440771Y10223334D01*
X14440771Y10223334D02*
X14393152Y10128096D01*
X14393152Y10128096D02*
X14393152Y9937620D01*
X14393152Y9937620D02*
X14440771Y9842382D01*
X15012200Y10270953D02*
X15059819Y10175715D01*
X15059819Y10175715D02*
X15059819Y9937620D01*
X15059819Y9937620D02*
X15012200Y9842382D01*
X15012200Y9842382D02*
X14916961Y9794763D01*
X14916961Y9794763D02*
X14821723Y9794763D01*
X14821723Y9794763D02*
X14726485Y9842382D01*
X14726485Y9842382D02*
X14678866Y9937620D01*
X14678866Y9937620D02*
X14678866Y10175715D01*
X14678866Y10175715D02*
X14631247Y10270953D01*
X15012200Y11175715D02*
X15059819Y11080477D01*
X15059819Y11080477D02*
X15059819Y10890001D01*
X15059819Y10890001D02*
X15012200Y10794763D01*
X15012200Y10794763D02*
X14964580Y10747144D01*
X14964580Y10747144D02*
X14869342Y10699525D01*
X14869342Y10699525D02*
X14583628Y10699525D01*
X14583628Y10699525D02*
X14488390Y10747144D01*
X14488390Y10747144D02*
X14440771Y10794763D01*
X14440771Y10794763D02*
X14393152Y10890001D01*
X14393152Y10890001D02*
X14393152Y11080477D01*
X14393152Y11080477D02*
X14440771Y11175715D01*
X15059819Y11747144D02*
X15012200Y11651906D01*
X15012200Y11651906D02*
X14916961Y11604287D01*
X14916961Y11604287D02*
X14059819Y11604287D01*
X15012200Y12509049D02*
X15059819Y12413811D01*
X15059819Y12413811D02*
X15059819Y12223335D01*
X15059819Y12223335D02*
X15012200Y12128097D01*
X15012200Y12128097D02*
X14916961Y12080478D01*
X14916961Y12080478D02*
X14536009Y12080478D01*
X14536009Y12080478D02*
X14440771Y12128097D01*
X14440771Y12128097D02*
X14393152Y12223335D01*
X14393152Y12223335D02*
X14393152Y12413811D01*
X14393152Y12413811D02*
X14440771Y12509049D01*
X14440771Y12509049D02*
X14536009Y12556668D01*
X14536009Y12556668D02*
X14631247Y12556668D01*
X14631247Y12556668D02*
X14726485Y12080478D01*
X9059819Y5556667D02*
X9774104Y5556667D01*
X9774104Y5556667D02*
X9916961Y5509048D01*
X9916961Y5509048D02*
X10012200Y5413810D01*
X10012200Y5413810D02*
X10059819Y5270953D01*
X10059819Y5270953D02*
X10059819Y5175715D01*
X10059819Y6556667D02*
X10059819Y5985239D01*
X10059819Y6270953D02*
X9059819Y6270953D01*
X9059819Y6270953D02*
X9202676Y6175715D01*
X9202676Y6175715D02*
X9297914Y6080477D01*
X9297914Y6080477D02*
X9345533Y5985239D01*
X8172024Y12095181D02*
X8743452Y12095181D01*
X8457738Y11095181D02*
X8457738Y12095181D01*
X9076786Y11095181D02*
X9076786Y12095181D01*
X9076786Y12095181D02*
X9457738Y12095181D01*
X9457738Y12095181D02*
X9552976Y12047562D01*
X9552976Y12047562D02*
X9600595Y11999943D01*
X9600595Y11999943D02*
X9648214Y11904705D01*
X9648214Y11904705D02*
X9648214Y11761848D01*
X9648214Y11761848D02*
X9600595Y11666610D01*
X9600595Y11666610D02*
X9552976Y11618991D01*
X9552976Y11618991D02*
X9457738Y11571372D01*
X9457738Y11571372D02*
X9076786Y11571372D01*
X10505357Y11761848D02*
X10505357Y11095181D01*
X10267262Y12142800D02*
X10029167Y11428515D01*
X10029167Y11428515D02*
X10648214Y11428515D01*
X11219643Y12095181D02*
X11314881Y12095181D01*
X11314881Y12095181D02*
X11410119Y12047562D01*
X11410119Y12047562D02*
X11457738Y11999943D01*
X11457738Y11999943D02*
X11505357Y11904705D01*
X11505357Y11904705D02*
X11552976Y11714229D01*
X11552976Y11714229D02*
X11552976Y11476134D01*
X11552976Y11476134D02*
X11505357Y11285658D01*
X11505357Y11285658D02*
X11457738Y11190420D01*
X11457738Y11190420D02*
X11410119Y11142800D01*
X11410119Y11142800D02*
X11314881Y11095181D01*
X11314881Y11095181D02*
X11219643Y11095181D01*
X11219643Y11095181D02*
X11124405Y11142800D01*
X11124405Y11142800D02*
X11076786Y11190420D01*
X11076786Y11190420D02*
X11029167Y11285658D01*
X11029167Y11285658D02*
X10981548Y11476134D01*
X10981548Y11476134D02*
X10981548Y11714229D01*
X10981548Y11714229D02*
X11029167Y11904705D01*
X11029167Y11904705D02*
X11076786Y11999943D01*
X11076786Y11999943D02*
X11124405Y12047562D01*
X11124405Y12047562D02*
X11219643Y12095181D01*
X12457738Y12095181D02*
X11981548Y12095181D01*
X11981548Y12095181D02*
X11933929Y11618991D01*
X11933929Y11618991D02*
X11981548Y11666610D01*
X11981548Y11666610D02*
X12076786Y11714229D01*
X12076786Y11714229D02*
X12314881Y11714229D01*
X12314881Y11714229D02*
X12410119Y11666610D01*
X12410119Y11666610D02*
X12457738Y11618991D01*
X12457738Y11618991D02*
X12505357Y11523753D01*
X12505357Y11523753D02*
X12505357Y11285658D01*
X12505357Y11285658D02*
X12457738Y11190420D01*
X12457738Y11190420D02*
X12410119Y11142800D01*
X12410119Y11142800D02*
X12314881Y11095181D01*
X12314881Y11095181D02*
X12076786Y11095181D01*
X12076786Y11095181D02*
X11981548Y11142800D01*
X11981548Y11142800D02*
X11933929Y11190420D01*
X13362500Y11761848D02*
X13362500Y11095181D01*
X13124405Y12142800D02*
X12886310Y11428515D01*
X12886310Y11428515D02*
X13505357Y11428515D01*
D12*
X10469865Y13401429D02*
X11052722Y13401429D01*
X11052722Y13401429D02*
X11121294Y13435715D01*
X11121294Y13435715D02*
X11155580Y13470000D01*
X11155580Y13470000D02*
X11189865Y13538572D01*
X11189865Y13538572D02*
X11189865Y13675715D01*
X11189865Y13675715D02*
X11155580Y13744286D01*
X11155580Y13744286D02*
X11121294Y13778572D01*
X11121294Y13778572D02*
X11052722Y13812858D01*
X11052722Y13812858D02*
X10469865Y13812858D01*
X10709865Y14464286D02*
X11189865Y14464286D01*
X10435580Y14292858D02*
X10949865Y14121429D01*
X10949865Y14121429D02*
X10949865Y14567144D01*
D10*
X1943333Y39886426D02*
X1824285Y39886426D01*
X1824285Y39886426D02*
X1824285Y40136426D01*
X2014762Y40112616D02*
X2026666Y40124521D01*
X2026666Y40124521D02*
X2050476Y40136426D01*
X2050476Y40136426D02*
X2110000Y40136426D01*
X2110000Y40136426D02*
X2133809Y40124521D01*
X2133809Y40124521D02*
X2145714Y40112616D01*
X2145714Y40112616D02*
X2157619Y40088807D01*
X2157619Y40088807D02*
X2157619Y40064997D01*
X2157619Y40064997D02*
X2145714Y40029283D01*
X2145714Y40029283D02*
X2002857Y39886426D01*
X2002857Y39886426D02*
X2157619Y39886426D01*
D13*
X8369229Y62236667D02*
X8933514Y62236667D01*
X8933514Y62236667D02*
X9046371Y62199048D01*
X9046371Y62199048D02*
X9121610Y62123810D01*
X9121610Y62123810D02*
X9159229Y62010953D01*
X9159229Y62010953D02*
X9159229Y61935715D01*
X8632562Y62951429D02*
X9159229Y62951429D01*
X8331610Y62763334D02*
X8895895Y62575239D01*
X8895895Y62575239D02*
X8895895Y63064286D01*
D11*
X6538095Y35095181D02*
X6538095Y34285658D01*
X6538095Y34285658D02*
X6585714Y34190420D01*
X6585714Y34190420D02*
X6633333Y34142800D01*
X6633333Y34142800D02*
X6728571Y34095181D01*
X6728571Y34095181D02*
X6919047Y34095181D01*
X6919047Y34095181D02*
X7014285Y34142800D01*
X7014285Y34142800D02*
X7061904Y34190420D01*
X7061904Y34190420D02*
X7109523Y34285658D01*
X7109523Y34285658D02*
X7109523Y35095181D01*
X8109523Y34095181D02*
X7538095Y34095181D01*
X7823809Y34095181D02*
X7823809Y35095181D01*
X7823809Y35095181D02*
X7728571Y34952324D01*
X7728571Y34952324D02*
X7633333Y34857086D01*
X7633333Y34857086D02*
X7538095Y34809467D01*
D12*
X7469865Y18901429D02*
X8052722Y18901429D01*
X8052722Y18901429D02*
X8121294Y18935715D01*
X8121294Y18935715D02*
X8155580Y18970000D01*
X8155580Y18970000D02*
X8189865Y19038572D01*
X8189865Y19038572D02*
X8189865Y19175715D01*
X8189865Y19175715D02*
X8155580Y19244286D01*
X8155580Y19244286D02*
X8121294Y19278572D01*
X8121294Y19278572D02*
X8052722Y19312858D01*
X8052722Y19312858D02*
X7469865Y19312858D01*
X7469865Y19964286D02*
X7469865Y19827144D01*
X7469865Y19827144D02*
X7504151Y19758572D01*
X7504151Y19758572D02*
X7538437Y19724286D01*
X7538437Y19724286D02*
X7641294Y19655715D01*
X7641294Y19655715D02*
X7778437Y19621429D01*
X7778437Y19621429D02*
X8052722Y19621429D01*
X8052722Y19621429D02*
X8121294Y19655715D01*
X8121294Y19655715D02*
X8155580Y19690001D01*
X8155580Y19690001D02*
X8189865Y19758572D01*
X8189865Y19758572D02*
X8189865Y19895715D01*
X8189865Y19895715D02*
X8155580Y19964286D01*
X8155580Y19964286D02*
X8121294Y19998572D01*
X8121294Y19998572D02*
X8052722Y20032858D01*
X8052722Y20032858D02*
X7881294Y20032858D01*
X7881294Y20032858D02*
X7812722Y19998572D01*
X7812722Y19998572D02*
X7778437Y19964286D01*
X7778437Y19964286D02*
X7744151Y19895715D01*
X7744151Y19895715D02*
X7744151Y19758572D01*
X7744151Y19758572D02*
X7778437Y19690001D01*
X7778437Y19690001D02*
X7812722Y19655715D01*
X7812722Y19655715D02*
X7881294Y19621429D01*
X10866071Y23346256D02*
X10866071Y22739113D01*
X10866071Y22739113D02*
X10901785Y22667685D01*
X10901785Y22667685D02*
X10937500Y22631970D01*
X10937500Y22631970D02*
X11008928Y22596256D01*
X11008928Y22596256D02*
X11151785Y22596256D01*
X11151785Y22596256D02*
X11223214Y22631970D01*
X11223214Y22631970D02*
X11258928Y22667685D01*
X11258928Y22667685D02*
X11294642Y22739113D01*
X11294642Y22739113D02*
X11294642Y23346256D01*
X11580356Y23346256D02*
X12044642Y23346256D01*
X12044642Y23346256D02*
X11794642Y23060542D01*
X11794642Y23060542D02*
X11901785Y23060542D01*
X11901785Y23060542D02*
X11973214Y23024828D01*
X11973214Y23024828D02*
X12008928Y22989113D01*
X12008928Y22989113D02*
X12044642Y22917685D01*
X12044642Y22917685D02*
X12044642Y22739113D01*
X12044642Y22739113D02*
X12008928Y22667685D01*
X12008928Y22667685D02*
X11973214Y22631970D01*
X11973214Y22631970D02*
X11901785Y22596256D01*
X11901785Y22596256D02*
X11687499Y22596256D01*
X11687499Y22596256D02*
X11616071Y22631970D01*
X11616071Y22631970D02*
X11580356Y22667685D01*
D13*
X2352381Y58136145D02*
X2352381Y58936145D01*
X2352381Y58936145D02*
X2619047Y58364717D01*
X2619047Y58364717D02*
X2885714Y58936145D01*
X2885714Y58936145D02*
X2885714Y58136145D01*
X3685714Y58136145D02*
X3228571Y58136145D01*
X3457143Y58136145D02*
X3457143Y58936145D01*
X3457143Y58936145D02*
X3380952Y58821860D01*
X3380952Y58821860D02*
X3304762Y58745669D01*
X3304762Y58745669D02*
X3228571Y58707574D01*
D10*
X3589765Y51438334D02*
X3601670Y51426430D01*
X3601670Y51426430D02*
X3613574Y51390715D01*
X3613574Y51390715D02*
X3613574Y51366906D01*
X3613574Y51366906D02*
X3601670Y51331192D01*
X3601670Y51331192D02*
X3577860Y51307382D01*
X3577860Y51307382D02*
X3554050Y51295477D01*
X3554050Y51295477D02*
X3506431Y51283573D01*
X3506431Y51283573D02*
X3470717Y51283573D01*
X3470717Y51283573D02*
X3423098Y51295477D01*
X3423098Y51295477D02*
X3399289Y51307382D01*
X3399289Y51307382D02*
X3375479Y51331192D01*
X3375479Y51331192D02*
X3363574Y51366906D01*
X3363574Y51366906D02*
X3363574Y51390715D01*
X3363574Y51390715D02*
X3375479Y51426430D01*
X3375479Y51426430D02*
X3387384Y51438334D01*
X3363574Y51652620D02*
X3363574Y51605001D01*
X3363574Y51605001D02*
X3375479Y51581192D01*
X3375479Y51581192D02*
X3387384Y51569287D01*
X3387384Y51569287D02*
X3423098Y51545477D01*
X3423098Y51545477D02*
X3470717Y51533573D01*
X3470717Y51533573D02*
X3565955Y51533573D01*
X3565955Y51533573D02*
X3589765Y51545477D01*
X3589765Y51545477D02*
X3601670Y51557382D01*
X3601670Y51557382D02*
X3613574Y51581192D01*
X3613574Y51581192D02*
X3613574Y51628811D01*
X3613574Y51628811D02*
X3601670Y51652620D01*
X3601670Y51652620D02*
X3589765Y51664525D01*
X3589765Y51664525D02*
X3565955Y51676430D01*
X3565955Y51676430D02*
X3506431Y51676430D01*
X3506431Y51676430D02*
X3482622Y51664525D01*
X3482622Y51664525D02*
X3470717Y51652620D01*
X3470717Y51652620D02*
X3458812Y51628811D01*
X3458812Y51628811D02*
X3458812Y51581192D01*
X3458812Y51581192D02*
X3470717Y51557382D01*
X3470717Y51557382D02*
X3482622Y51545477D01*
X3482622Y51545477D02*
X3506431Y51533573D01*
X12618200Y26446668D02*
X12494391Y26360001D01*
X12618200Y26298096D02*
X12358200Y26298096D01*
X12358200Y26298096D02*
X12358200Y26397144D01*
X12358200Y26397144D02*
X12370581Y26421906D01*
X12370581Y26421906D02*
X12382962Y26434287D01*
X12382962Y26434287D02*
X12407724Y26446668D01*
X12407724Y26446668D02*
X12444867Y26446668D01*
X12444867Y26446668D02*
X12469629Y26434287D01*
X12469629Y26434287D02*
X12482010Y26421906D01*
X12482010Y26421906D02*
X12494391Y26397144D01*
X12494391Y26397144D02*
X12494391Y26298096D01*
X12358200Y26533334D02*
X12358200Y26694287D01*
X12358200Y26694287D02*
X12457248Y26607620D01*
X12457248Y26607620D02*
X12457248Y26644763D01*
X12457248Y26644763D02*
X12469629Y26669525D01*
X12469629Y26669525D02*
X12482010Y26681906D01*
X12482010Y26681906D02*
X12506772Y26694287D01*
X12506772Y26694287D02*
X12568677Y26694287D01*
X12568677Y26694287D02*
X12593439Y26681906D01*
X12593439Y26681906D02*
X12605820Y26669525D01*
X12605820Y26669525D02*
X12618200Y26644763D01*
X12618200Y26644763D02*
X12618200Y26570477D01*
X12618200Y26570477D02*
X12605820Y26545715D01*
X12605820Y26545715D02*
X12593439Y26533334D01*
X4089765Y54438334D02*
X4101670Y54426430D01*
X4101670Y54426430D02*
X4113574Y54390715D01*
X4113574Y54390715D02*
X4113574Y54366906D01*
X4113574Y54366906D02*
X4101670Y54331192D01*
X4101670Y54331192D02*
X4077860Y54307382D01*
X4077860Y54307382D02*
X4054050Y54295477D01*
X4054050Y54295477D02*
X4006431Y54283573D01*
X4006431Y54283573D02*
X3970717Y54283573D01*
X3970717Y54283573D02*
X3923098Y54295477D01*
X3923098Y54295477D02*
X3899289Y54307382D01*
X3899289Y54307382D02*
X3875479Y54331192D01*
X3875479Y54331192D02*
X3863574Y54366906D01*
X3863574Y54366906D02*
X3863574Y54390715D01*
X3863574Y54390715D02*
X3875479Y54426430D01*
X3875479Y54426430D02*
X3887384Y54438334D01*
X3946908Y54652620D02*
X4113574Y54652620D01*
X3851670Y54593096D02*
X4030241Y54533573D01*
X4030241Y54533573D02*
X4030241Y54688334D01*
D11*
X1357142Y-884819D02*
X785714Y-884819D01*
X1071428Y-884819D02*
X1071428Y115181D01*
X1071428Y115181D02*
X976190Y-27676D01*
X976190Y-27676D02*
X880952Y-122914D01*
X880952Y-122914D02*
X785714Y-170533D01*
X1976190Y115181D02*
X2071428Y115181D01*
X2071428Y115181D02*
X2166666Y67562D01*
X2166666Y67562D02*
X2214285Y19943D01*
X2214285Y19943D02*
X2261904Y-75295D01*
X2261904Y-75295D02*
X2309523Y-265771D01*
X2309523Y-265771D02*
X2309523Y-503866D01*
X2309523Y-503866D02*
X2261904Y-694342D01*
X2261904Y-694342D02*
X2214285Y-789580D01*
X2214285Y-789580D02*
X2166666Y-837200D01*
X2166666Y-837200D02*
X2071428Y-884819D01*
X2071428Y-884819D02*
X1976190Y-884819D01*
X1976190Y-884819D02*
X1880952Y-837200D01*
X1880952Y-837200D02*
X1833333Y-789580D01*
X1833333Y-789580D02*
X1785714Y-694342D01*
X1785714Y-694342D02*
X1738095Y-503866D01*
X1738095Y-503866D02*
X1738095Y-265771D01*
X1738095Y-265771D02*
X1785714Y-75295D01*
X1785714Y-75295D02*
X1833333Y19943D01*
X1833333Y19943D02*
X1880952Y67562D01*
X1880952Y67562D02*
X1976190Y115181D01*
X2738095Y-218152D02*
X2738095Y-1218152D01*
X3214285Y-741961D02*
X3261904Y-837200D01*
X3261904Y-837200D02*
X3357142Y-884819D01*
X2738095Y-741961D02*
X2785714Y-837200D01*
X2785714Y-837200D02*
X2880952Y-884819D01*
X2880952Y-884819D02*
X3071428Y-884819D01*
X3071428Y-884819D02*
X3166666Y-837200D01*
X3166666Y-837200D02*
X3214285Y-741961D01*
X3214285Y-741961D02*
X3214285Y-218152D01*
X4119047Y-361009D02*
X3785714Y-361009D01*
X3785714Y-884819D02*
X3785714Y115181D01*
X3785714Y115181D02*
X4261904Y115181D01*
D14*
X2433333Y856168D02*
X2414285Y837120D01*
X2414285Y837120D02*
X2357143Y818073D01*
X2357143Y818073D02*
X2319047Y818073D01*
X2319047Y818073D02*
X2261904Y837120D01*
X2261904Y837120D02*
X2223809Y875216D01*
X2223809Y875216D02*
X2204762Y913311D01*
X2204762Y913311D02*
X2185714Y989501D01*
X2185714Y989501D02*
X2185714Y1046644D01*
X2185714Y1046644D02*
X2204762Y1122835D01*
X2204762Y1122835D02*
X2223809Y1160930D01*
X2223809Y1160930D02*
X2261904Y1199025D01*
X2261904Y1199025D02*
X2319047Y1218073D01*
X2319047Y1218073D02*
X2357143Y1218073D01*
X2357143Y1218073D02*
X2414285Y1199025D01*
X2414285Y1199025D02*
X2433333Y1179978D01*
X2661904Y1046644D02*
X2623809Y1065692D01*
X2623809Y1065692D02*
X2604762Y1084740D01*
X2604762Y1084740D02*
X2585714Y1122835D01*
X2585714Y1122835D02*
X2585714Y1141882D01*
X2585714Y1141882D02*
X2604762Y1179978D01*
X2604762Y1179978D02*
X2623809Y1199025D01*
X2623809Y1199025D02*
X2661904Y1218073D01*
X2661904Y1218073D02*
X2738095Y1218073D01*
X2738095Y1218073D02*
X2776190Y1199025D01*
X2776190Y1199025D02*
X2795238Y1179978D01*
X2795238Y1179978D02*
X2814285Y1141882D01*
X2814285Y1141882D02*
X2814285Y1122835D01*
X2814285Y1122835D02*
X2795238Y1084740D01*
X2795238Y1084740D02*
X2776190Y1065692D01*
X2776190Y1065692D02*
X2738095Y1046644D01*
X2738095Y1046644D02*
X2661904Y1046644D01*
X2661904Y1046644D02*
X2623809Y1027597D01*
X2623809Y1027597D02*
X2604762Y1008549D01*
X2604762Y1008549D02*
X2585714Y970454D01*
X2585714Y970454D02*
X2585714Y894263D01*
X2585714Y894263D02*
X2604762Y856168D01*
X2604762Y856168D02*
X2623809Y837120D01*
X2623809Y837120D02*
X2661904Y818073D01*
X2661904Y818073D02*
X2738095Y818073D01*
X2738095Y818073D02*
X2776190Y837120D01*
X2776190Y837120D02*
X2795238Y856168D01*
X2795238Y856168D02*
X2814285Y894263D01*
X2814285Y894263D02*
X2814285Y970454D01*
X2814285Y970454D02*
X2795238Y1008549D01*
X2795238Y1008549D02*
X2776190Y1027597D01*
X2776190Y1027597D02*
X2738095Y1046644D01*
D10*
X10956667Y17881800D02*
X10870000Y18005609D01*
X10808095Y17881800D02*
X10808095Y18141800D01*
X10808095Y18141800D02*
X10907143Y18141800D01*
X10907143Y18141800D02*
X10931905Y18129419D01*
X10931905Y18129419D02*
X10944286Y18117038D01*
X10944286Y18117038D02*
X10956667Y18092276D01*
X10956667Y18092276D02*
X10956667Y18055133D01*
X10956667Y18055133D02*
X10944286Y18030371D01*
X10944286Y18030371D02*
X10931905Y18017990D01*
X10931905Y18017990D02*
X10907143Y18005609D01*
X10907143Y18005609D02*
X10808095Y18005609D01*
X11204286Y17881800D02*
X11055714Y17881800D01*
X11130000Y17881800D02*
X11130000Y18141800D01*
X11130000Y18141800D02*
X11105238Y18104657D01*
X11105238Y18104657D02*
X11080476Y18079895D01*
X11080476Y18079895D02*
X11055714Y18067514D01*
D11*
X1976189Y11240420D02*
X1928570Y11192800D01*
X1928570Y11192800D02*
X1785713Y11145181D01*
X1785713Y11145181D02*
X1690475Y11145181D01*
X1690475Y11145181D02*
X1547618Y11192800D01*
X1547618Y11192800D02*
X1452380Y11288039D01*
X1452380Y11288039D02*
X1404761Y11383277D01*
X1404761Y11383277D02*
X1357142Y11573753D01*
X1357142Y11573753D02*
X1357142Y11716610D01*
X1357142Y11716610D02*
X1404761Y11907086D01*
X1404761Y11907086D02*
X1452380Y12002324D01*
X1452380Y12002324D02*
X1547618Y12097562D01*
X1547618Y12097562D02*
X1690475Y12145181D01*
X1690475Y12145181D02*
X1785713Y12145181D01*
X1785713Y12145181D02*
X1928570Y12097562D01*
X1928570Y12097562D02*
X1976189Y12049943D01*
X2547618Y11145181D02*
X2452380Y11192800D01*
X2452380Y11192800D02*
X2404761Y11240420D01*
X2404761Y11240420D02*
X2357142Y11335658D01*
X2357142Y11335658D02*
X2357142Y11621372D01*
X2357142Y11621372D02*
X2404761Y11716610D01*
X2404761Y11716610D02*
X2452380Y11764229D01*
X2452380Y11764229D02*
X2547618Y11811848D01*
X2547618Y11811848D02*
X2690475Y11811848D01*
X2690475Y11811848D02*
X2785713Y11764229D01*
X2785713Y11764229D02*
X2833332Y11716610D01*
X2833332Y11716610D02*
X2880951Y11621372D01*
X2880951Y11621372D02*
X2880951Y11335658D01*
X2880951Y11335658D02*
X2833332Y11240420D01*
X2833332Y11240420D02*
X2785713Y11192800D01*
X2785713Y11192800D02*
X2690475Y11145181D01*
X2690475Y11145181D02*
X2547618Y11145181D01*
X3309523Y11145181D02*
X3309523Y11811848D01*
X3309523Y11716610D02*
X3357142Y11764229D01*
X3357142Y11764229D02*
X3452380Y11811848D01*
X3452380Y11811848D02*
X3595237Y11811848D01*
X3595237Y11811848D02*
X3690475Y11764229D01*
X3690475Y11764229D02*
X3738094Y11668991D01*
X3738094Y11668991D02*
X3738094Y11145181D01*
X3738094Y11668991D02*
X3785713Y11764229D01*
X3785713Y11764229D02*
X3880951Y11811848D01*
X3880951Y11811848D02*
X4023808Y11811848D01*
X4023808Y11811848D02*
X4119047Y11764229D01*
X4119047Y11764229D02*
X4166666Y11668991D01*
X4166666Y11668991D02*
X4166666Y11145181D01*
X4642856Y11811848D02*
X4642856Y10811848D01*
X4642856Y11764229D02*
X4738094Y11811848D01*
X4738094Y11811848D02*
X4928570Y11811848D01*
X4928570Y11811848D02*
X5023808Y11764229D01*
X5023808Y11764229D02*
X5071427Y11716610D01*
X5071427Y11716610D02*
X5119046Y11621372D01*
X5119046Y11621372D02*
X5119046Y11335658D01*
X5119046Y11335658D02*
X5071427Y11240420D01*
X5071427Y11240420D02*
X5023808Y11192800D01*
X5023808Y11192800D02*
X4928570Y11145181D01*
X4928570Y11145181D02*
X4738094Y11145181D01*
X4738094Y11145181D02*
X4642856Y11192800D01*
X5976189Y11145181D02*
X5976189Y11668991D01*
X5976189Y11668991D02*
X5928570Y11764229D01*
X5928570Y11764229D02*
X5833332Y11811848D01*
X5833332Y11811848D02*
X5642856Y11811848D01*
X5642856Y11811848D02*
X5547618Y11764229D01*
X5976189Y11192800D02*
X5880951Y11145181D01*
X5880951Y11145181D02*
X5642856Y11145181D01*
X5642856Y11145181D02*
X5547618Y11192800D01*
X5547618Y11192800D02*
X5499999Y11288039D01*
X5499999Y11288039D02*
X5499999Y11383277D01*
X5499999Y11383277D02*
X5547618Y11478515D01*
X5547618Y11478515D02*
X5642856Y11526134D01*
X5642856Y11526134D02*
X5880951Y11526134D01*
X5880951Y11526134D02*
X5976189Y11573753D01*
X6452380Y11145181D02*
X6452380Y11811848D01*
X6452380Y11621372D02*
X6499999Y11716610D01*
X6499999Y11716610D02*
X6547618Y11764229D01*
X6547618Y11764229D02*
X6642856Y11811848D01*
X6642856Y11811848D02*
X6738094Y11811848D01*
X7499999Y11145181D02*
X7499999Y11668991D01*
X7499999Y11668991D02*
X7452380Y11764229D01*
X7452380Y11764229D02*
X7357142Y11811848D01*
X7357142Y11811848D02*
X7166666Y11811848D01*
X7166666Y11811848D02*
X7071428Y11764229D01*
X7499999Y11192800D02*
X7404761Y11145181D01*
X7404761Y11145181D02*
X7166666Y11145181D01*
X7166666Y11145181D02*
X7071428Y11192800D01*
X7071428Y11192800D02*
X7023809Y11288039D01*
X7023809Y11288039D02*
X7023809Y11383277D01*
X7023809Y11383277D02*
X7071428Y11478515D01*
X7071428Y11478515D02*
X7166666Y11526134D01*
X7166666Y11526134D02*
X7404761Y11526134D01*
X7404761Y11526134D02*
X7499999Y11573753D01*
X7833333Y11811848D02*
X8214285Y11811848D01*
X7976190Y12145181D02*
X7976190Y11288039D01*
X7976190Y11288039D02*
X8023809Y11192800D01*
X8023809Y11192800D02*
X8119047Y11145181D01*
X8119047Y11145181D02*
X8214285Y11145181D01*
X8690476Y11145181D02*
X8595238Y11192800D01*
X8595238Y11192800D02*
X8547619Y11240420D01*
X8547619Y11240420D02*
X8500000Y11335658D01*
X8500000Y11335658D02*
X8500000Y11621372D01*
X8500000Y11621372D02*
X8547619Y11716610D01*
X8547619Y11716610D02*
X8595238Y11764229D01*
X8595238Y11764229D02*
X8690476Y11811848D01*
X8690476Y11811848D02*
X8833333Y11811848D01*
X8833333Y11811848D02*
X8928571Y11764229D01*
X8928571Y11764229D02*
X8976190Y11716610D01*
X8976190Y11716610D02*
X9023809Y11621372D01*
X9023809Y11621372D02*
X9023809Y11335658D01*
X9023809Y11335658D02*
X8976190Y11240420D01*
X8976190Y11240420D02*
X8928571Y11192800D01*
X8928571Y11192800D02*
X8833333Y11145181D01*
X8833333Y11145181D02*
X8690476Y11145181D01*
X9452381Y11145181D02*
X9452381Y11811848D01*
X9452381Y11621372D02*
X9500000Y11716610D01*
X9500000Y11716610D02*
X9547619Y11764229D01*
X9547619Y11764229D02*
X9642857Y11811848D01*
X9642857Y11811848D02*
X9738095Y11811848D01*
D12*
X5107365Y13451429D02*
X5690222Y13451429D01*
X5690222Y13451429D02*
X5758794Y13485715D01*
X5758794Y13485715D02*
X5793080Y13520000D01*
X5793080Y13520000D02*
X5827365Y13588572D01*
X5827365Y13588572D02*
X5827365Y13725715D01*
X5827365Y13725715D02*
X5793080Y13794286D01*
X5793080Y13794286D02*
X5758794Y13828572D01*
X5758794Y13828572D02*
X5690222Y13862858D01*
X5690222Y13862858D02*
X5107365Y13862858D01*
X5107365Y14548572D02*
X5107365Y14205715D01*
X5107365Y14205715D02*
X5450222Y14171429D01*
X5450222Y14171429D02*
X5415937Y14205715D01*
X5415937Y14205715D02*
X5381651Y14274286D01*
X5381651Y14274286D02*
X5381651Y14445715D01*
X5381651Y14445715D02*
X5415937Y14514286D01*
X5415937Y14514286D02*
X5450222Y14548572D01*
X5450222Y14548572D02*
X5518794Y14582858D01*
X5518794Y14582858D02*
X5690222Y14582858D01*
X5690222Y14582858D02*
X5758794Y14548572D01*
X5758794Y14548572D02*
X5793080Y14514286D01*
X5793080Y14514286D02*
X5827365Y14445715D01*
X5827365Y14445715D02*
X5827365Y14274286D01*
X5827365Y14274286D02*
X5793080Y14205715D01*
X5793080Y14205715D02*
X5758794Y14171429D01*
D15*
X4127409Y25973334D02*
X4484552Y25973334D01*
X4484552Y25973334D02*
X4555980Y25949525D01*
X4555980Y25949525D02*
X4603600Y25901906D01*
X4603600Y25901906D02*
X4627409Y25830477D01*
X4627409Y25830477D02*
X4627409Y25782858D01*
X4127409Y26163810D02*
X4127409Y26473334D01*
X4127409Y26473334D02*
X4317885Y26306667D01*
X4317885Y26306667D02*
X4317885Y26378096D01*
X4317885Y26378096D02*
X4341695Y26425715D01*
X4341695Y26425715D02*
X4365504Y26449524D01*
X4365504Y26449524D02*
X4413123Y26473334D01*
X4413123Y26473334D02*
X4532171Y26473334D01*
X4532171Y26473334D02*
X4579790Y26449524D01*
X4579790Y26449524D02*
X4603600Y26425715D01*
X4603600Y26425715D02*
X4627409Y26378096D01*
X4627409Y26378096D02*
X4627409Y26235239D01*
X4627409Y26235239D02*
X4603600Y26187620D01*
X4603600Y26187620D02*
X4579790Y26163810D01*
D10*
X2089765Y52819286D02*
X2101670Y52807382D01*
X2101670Y52807382D02*
X2113574Y52771667D01*
X2113574Y52771667D02*
X2113574Y52747858D01*
X2113574Y52747858D02*
X2101670Y52712144D01*
X2101670Y52712144D02*
X2077860Y52688334D01*
X2077860Y52688334D02*
X2054050Y52676429D01*
X2054050Y52676429D02*
X2006431Y52664525D01*
X2006431Y52664525D02*
X1970717Y52664525D01*
X1970717Y52664525D02*
X1923098Y52676429D01*
X1923098Y52676429D02*
X1899289Y52688334D01*
X1899289Y52688334D02*
X1875479Y52712144D01*
X1875479Y52712144D02*
X1863574Y52747858D01*
X1863574Y52747858D02*
X1863574Y52771667D01*
X1863574Y52771667D02*
X1875479Y52807382D01*
X1875479Y52807382D02*
X1887384Y52819286D01*
X2113574Y53057382D02*
X2113574Y52914525D01*
X2113574Y52985953D02*
X1863574Y52985953D01*
X1863574Y52985953D02*
X1899289Y52962144D01*
X1899289Y52962144D02*
X1923098Y52938334D01*
X1923098Y52938334D02*
X1935003Y52914525D01*
X1863574Y53212143D02*
X1863574Y53235953D01*
X1863574Y53235953D02*
X1875479Y53259762D01*
X1875479Y53259762D02*
X1887384Y53271667D01*
X1887384Y53271667D02*
X1911193Y53283572D01*
X1911193Y53283572D02*
X1958812Y53295477D01*
X1958812Y53295477D02*
X2018336Y53295477D01*
X2018336Y53295477D02*
X2065955Y53283572D01*
X2065955Y53283572D02*
X2089765Y53271667D01*
X2089765Y53271667D02*
X2101670Y53259762D01*
X2101670Y53259762D02*
X2113574Y53235953D01*
X2113574Y53235953D02*
X2113574Y53212143D01*
X2113574Y53212143D02*
X2101670Y53188334D01*
X2101670Y53188334D02*
X2089765Y53176429D01*
X2089765Y53176429D02*
X2065955Y53164524D01*
X2065955Y53164524D02*
X2018336Y53152620D01*
X2018336Y53152620D02*
X1958812Y53152620D01*
X1958812Y53152620D02*
X1911193Y53164524D01*
X1911193Y53164524D02*
X1887384Y53176429D01*
X1887384Y53176429D02*
X1875479Y53188334D01*
X1875479Y53188334D02*
X1863574Y53212143D01*
D13*
X2236666Y65430771D02*
X2236666Y64866486D01*
X2236666Y64866486D02*
X2199047Y64753629D01*
X2199047Y64753629D02*
X2123809Y64678390D01*
X2123809Y64678390D02*
X2010952Y64640771D01*
X2010952Y64640771D02*
X1935714Y64640771D01*
X2989047Y65430771D02*
X2612857Y65430771D01*
X2612857Y65430771D02*
X2575238Y65054581D01*
X2575238Y65054581D02*
X2612857Y65092200D01*
X2612857Y65092200D02*
X2688095Y65129819D01*
X2688095Y65129819D02*
X2876190Y65129819D01*
X2876190Y65129819D02*
X2951428Y65092200D01*
X2951428Y65092200D02*
X2989047Y65054581D01*
X2989047Y65054581D02*
X3026666Y64979343D01*
X3026666Y64979343D02*
X3026666Y64791248D01*
X3026666Y64791248D02*
X2989047Y64716010D01*
X2989047Y64716010D02*
X2951428Y64678390D01*
X2951428Y64678390D02*
X2876190Y64640771D01*
X2876190Y64640771D02*
X2688095Y64640771D01*
X2688095Y64640771D02*
X2612857Y64678390D01*
X2612857Y64678390D02*
X2575238Y64716010D01*
D11*
X2624819Y5333334D02*
X2624819Y4761906D01*
X2624819Y5047620D02*
X1624819Y5047620D01*
X1624819Y5047620D02*
X1767676Y4952382D01*
X1767676Y4952382D02*
X1862914Y4857144D01*
X1862914Y4857144D02*
X1910533Y4761906D01*
X1624819Y5952382D02*
X1624819Y6047620D01*
X1624819Y6047620D02*
X1672438Y6142858D01*
X1672438Y6142858D02*
X1720057Y6190477D01*
X1720057Y6190477D02*
X1815295Y6238096D01*
X1815295Y6238096D02*
X2005771Y6285715D01*
X2005771Y6285715D02*
X2243866Y6285715D01*
X2243866Y6285715D02*
X2434342Y6238096D01*
X2434342Y6238096D02*
X2529580Y6190477D01*
X2529580Y6190477D02*
X2577200Y6142858D01*
X2577200Y6142858D02*
X2624819Y6047620D01*
X2624819Y6047620D02*
X2624819Y5952382D01*
X2624819Y5952382D02*
X2577200Y5857144D01*
X2577200Y5857144D02*
X2529580Y5809525D01*
X2529580Y5809525D02*
X2434342Y5761906D01*
X2434342Y5761906D02*
X2243866Y5714287D01*
X2243866Y5714287D02*
X2005771Y5714287D01*
X2005771Y5714287D02*
X1815295Y5761906D01*
X1815295Y5761906D02*
X1720057Y5809525D01*
X1720057Y5809525D02*
X1672438Y5857144D01*
X1672438Y5857144D02*
X1624819Y5952382D01*
X2624819Y6714287D02*
X1624819Y6714287D01*
X2243866Y6809525D02*
X2624819Y7095239D01*
X1958152Y7095239D02*
X2339104Y6714287D01*
X2624819Y7476192D02*
X2624819Y7714287D01*
X2624819Y7714287D02*
X2434342Y7714287D01*
X2434342Y7714287D02*
X2386723Y7619049D01*
X2386723Y7619049D02*
X2291485Y7523811D01*
X2291485Y7523811D02*
X2148628Y7476192D01*
X2148628Y7476192D02*
X1910533Y7476192D01*
X1910533Y7476192D02*
X1767676Y7523811D01*
X1767676Y7523811D02*
X1672438Y7619049D01*
X1672438Y7619049D02*
X1624819Y7761906D01*
X1624819Y7761906D02*
X1624819Y7952382D01*
X1624819Y7952382D02*
X1672438Y8095239D01*
X1672438Y8095239D02*
X1767676Y8190477D01*
X1767676Y8190477D02*
X1910533Y8238096D01*
X1910533Y8238096D02*
X2148628Y8238096D01*
X2148628Y8238096D02*
X2291485Y8190477D01*
X2291485Y8190477D02*
X2386723Y8095239D01*
X2386723Y8095239D02*
X2434342Y8000001D01*
X2434342Y8000001D02*
X2624819Y8000001D01*
X2624819Y8000001D02*
X2624819Y8238096D01*
D10*
X1118200Y6456668D02*
X994391Y6370001D01*
X1118200Y6308096D02*
X858200Y6308096D01*
X858200Y6308096D02*
X858200Y6407144D01*
X858200Y6407144D02*
X870581Y6431906D01*
X870581Y6431906D02*
X882962Y6444287D01*
X882962Y6444287D02*
X907724Y6456668D01*
X907724Y6456668D02*
X944867Y6456668D01*
X944867Y6456668D02*
X969629Y6444287D01*
X969629Y6444287D02*
X982010Y6431906D01*
X982010Y6431906D02*
X994391Y6407144D01*
X994391Y6407144D02*
X994391Y6308096D01*
X858200Y6543334D02*
X858200Y6716668D01*
X858200Y6716668D02*
X1118200Y6605239D01*
X2618200Y54966668D02*
X2494391Y54880001D01*
X2618200Y54818096D02*
X2358200Y54818096D01*
X2358200Y54818096D02*
X2358200Y54917144D01*
X2358200Y54917144D02*
X2370581Y54941906D01*
X2370581Y54941906D02*
X2382962Y54954287D01*
X2382962Y54954287D02*
X2407724Y54966668D01*
X2407724Y54966668D02*
X2444867Y54966668D01*
X2444867Y54966668D02*
X2469629Y54954287D01*
X2469629Y54954287D02*
X2482010Y54941906D01*
X2482010Y54941906D02*
X2494391Y54917144D01*
X2494391Y54917144D02*
X2494391Y54818096D01*
X2444867Y55189525D02*
X2618200Y55189525D01*
X2345820Y55127620D02*
X2531534Y55065715D01*
X2531534Y55065715D02*
X2531534Y55226668D01*
D11*
X1632142Y1615181D02*
X1060714Y1615181D01*
X1346428Y1615181D02*
X1346428Y2615181D01*
X1346428Y2615181D02*
X1251190Y2472324D01*
X1251190Y2472324D02*
X1155952Y2377086D01*
X1155952Y2377086D02*
X1060714Y2329467D01*
X2251190Y2615181D02*
X2346428Y2615181D01*
X2346428Y2615181D02*
X2441666Y2567562D01*
X2441666Y2567562D02*
X2489285Y2519943D01*
X2489285Y2519943D02*
X2536904Y2424705D01*
X2536904Y2424705D02*
X2584523Y2234229D01*
X2584523Y2234229D02*
X2584523Y1996134D01*
X2584523Y1996134D02*
X2536904Y1805658D01*
X2536904Y1805658D02*
X2489285Y1710420D01*
X2489285Y1710420D02*
X2441666Y1662800D01*
X2441666Y1662800D02*
X2346428Y1615181D01*
X2346428Y1615181D02*
X2251190Y1615181D01*
X2251190Y1615181D02*
X2155952Y1662800D01*
X2155952Y1662800D02*
X2108333Y1710420D01*
X2108333Y1710420D02*
X2060714Y1805658D01*
X2060714Y1805658D02*
X2013095Y1996134D01*
X2013095Y1996134D02*
X2013095Y2234229D01*
X2013095Y2234229D02*
X2060714Y2424705D01*
X2060714Y2424705D02*
X2108333Y2519943D01*
X2108333Y2519943D02*
X2155952Y2567562D01*
X2155952Y2567562D02*
X2251190Y2615181D01*
X3013095Y2281848D02*
X3013095Y1281848D01*
X3489285Y1758039D02*
X3536904Y1662800D01*
X3536904Y1662800D02*
X3632142Y1615181D01*
X3013095Y1758039D02*
X3060714Y1662800D01*
X3060714Y1662800D02*
X3155952Y1615181D01*
X3155952Y1615181D02*
X3346428Y1615181D01*
X3346428Y1615181D02*
X3441666Y1662800D01*
X3441666Y1662800D02*
X3489285Y1758039D01*
X3489285Y1758039D02*
X3489285Y2281848D01*
X4394047Y2138991D02*
X4060714Y2138991D01*
X4060714Y1615181D02*
X4060714Y2615181D01*
X4060714Y2615181D02*
X4536904Y2615181D01*
D14*
X2708333Y3356168D02*
X2689285Y3337120D01*
X2689285Y3337120D02*
X2632143Y3318073D01*
X2632143Y3318073D02*
X2594047Y3318073D01*
X2594047Y3318073D02*
X2536904Y3337120D01*
X2536904Y3337120D02*
X2498809Y3375216D01*
X2498809Y3375216D02*
X2479762Y3413311D01*
X2479762Y3413311D02*
X2460714Y3489501D01*
X2460714Y3489501D02*
X2460714Y3546644D01*
X2460714Y3546644D02*
X2479762Y3622835D01*
X2479762Y3622835D02*
X2498809Y3660930D01*
X2498809Y3660930D02*
X2536904Y3699025D01*
X2536904Y3699025D02*
X2594047Y3718073D01*
X2594047Y3718073D02*
X2632143Y3718073D01*
X2632143Y3718073D02*
X2689285Y3699025D01*
X2689285Y3699025D02*
X2708333Y3679978D01*
X2898809Y3318073D02*
X2975000Y3318073D01*
X2975000Y3318073D02*
X3013095Y3337120D01*
X3013095Y3337120D02*
X3032143Y3356168D01*
X3032143Y3356168D02*
X3070238Y3413311D01*
X3070238Y3413311D02*
X3089285Y3489501D01*
X3089285Y3489501D02*
X3089285Y3641882D01*
X3089285Y3641882D02*
X3070238Y3679978D01*
X3070238Y3679978D02*
X3051190Y3699025D01*
X3051190Y3699025D02*
X3013095Y3718073D01*
X3013095Y3718073D02*
X2936904Y3718073D01*
X2936904Y3718073D02*
X2898809Y3699025D01*
X2898809Y3699025D02*
X2879762Y3679978D01*
X2879762Y3679978D02*
X2860714Y3641882D01*
X2860714Y3641882D02*
X2860714Y3546644D01*
X2860714Y3546644D02*
X2879762Y3508549D01*
X2879762Y3508549D02*
X2898809Y3489501D01*
X2898809Y3489501D02*
X2936904Y3470454D01*
X2936904Y3470454D02*
X3013095Y3470454D01*
X3013095Y3470454D02*
X3051190Y3489501D01*
X3051190Y3489501D02*
X3070238Y3508549D01*
X3070238Y3508549D02*
X3089285Y3546644D01*
D10*
X10956667Y19381800D02*
X10870000Y19505609D01*
X10808095Y19381800D02*
X10808095Y19641800D01*
X10808095Y19641800D02*
X10907143Y19641800D01*
X10907143Y19641800D02*
X10931905Y19629419D01*
X10931905Y19629419D02*
X10944286Y19617038D01*
X10944286Y19617038D02*
X10956667Y19592276D01*
X10956667Y19592276D02*
X10956667Y19555133D01*
X10956667Y19555133D02*
X10944286Y19530371D01*
X10944286Y19530371D02*
X10931905Y19517990D01*
X10931905Y19517990D02*
X10907143Y19505609D01*
X10907143Y19505609D02*
X10808095Y19505609D01*
X11191905Y19641800D02*
X11068095Y19641800D01*
X11068095Y19641800D02*
X11055714Y19517990D01*
X11055714Y19517990D02*
X11068095Y19530371D01*
X11068095Y19530371D02*
X11092857Y19542752D01*
X11092857Y19542752D02*
X11154762Y19542752D01*
X11154762Y19542752D02*
X11179524Y19530371D01*
X11179524Y19530371D02*
X11191905Y19517990D01*
X11191905Y19517990D02*
X11204286Y19493228D01*
X11204286Y19493228D02*
X11204286Y19431323D01*
X11204286Y19431323D02*
X11191905Y19406561D01*
X11191905Y19406561D02*
X11179524Y19394180D01*
X11179524Y19394180D02*
X11154762Y19381800D01*
X11154762Y19381800D02*
X11092857Y19381800D01*
X11092857Y19381800D02*
X11068095Y19394180D01*
X11068095Y19394180D02*
X11055714Y19406561D01*
X11589765Y39938334D02*
X11601670Y39926430D01*
X11601670Y39926430D02*
X11613574Y39890715D01*
X11613574Y39890715D02*
X11613574Y39866906D01*
X11613574Y39866906D02*
X11601670Y39831192D01*
X11601670Y39831192D02*
X11577860Y39807382D01*
X11577860Y39807382D02*
X11554050Y39795477D01*
X11554050Y39795477D02*
X11506431Y39783573D01*
X11506431Y39783573D02*
X11470717Y39783573D01*
X11470717Y39783573D02*
X11423098Y39795477D01*
X11423098Y39795477D02*
X11399289Y39807382D01*
X11399289Y39807382D02*
X11375479Y39831192D01*
X11375479Y39831192D02*
X11363574Y39866906D01*
X11363574Y39866906D02*
X11363574Y39890715D01*
X11363574Y39890715D02*
X11375479Y39926430D01*
X11375479Y39926430D02*
X11387384Y39938334D01*
X11387384Y40033573D02*
X11375479Y40045477D01*
X11375479Y40045477D02*
X11363574Y40069287D01*
X11363574Y40069287D02*
X11363574Y40128811D01*
X11363574Y40128811D02*
X11375479Y40152620D01*
X11375479Y40152620D02*
X11387384Y40164525D01*
X11387384Y40164525D02*
X11411193Y40176430D01*
X11411193Y40176430D02*
X11435003Y40176430D01*
X11435003Y40176430D02*
X11470717Y40164525D01*
X11470717Y40164525D02*
X11613574Y40021668D01*
X11613574Y40021668D02*
X11613574Y40176430D01*
X13118200Y18466668D02*
X12994391Y18380001D01*
X13118200Y18318096D02*
X12858200Y18318096D01*
X12858200Y18318096D02*
X12858200Y18417144D01*
X12858200Y18417144D02*
X12870581Y18441906D01*
X12870581Y18441906D02*
X12882962Y18454287D01*
X12882962Y18454287D02*
X12907724Y18466668D01*
X12907724Y18466668D02*
X12944867Y18466668D01*
X12944867Y18466668D02*
X12969629Y18454287D01*
X12969629Y18454287D02*
X12982010Y18441906D01*
X12982010Y18441906D02*
X12994391Y18417144D01*
X12994391Y18417144D02*
X12994391Y18318096D01*
X12882962Y18565715D02*
X12870581Y18578096D01*
X12870581Y18578096D02*
X12858200Y18602858D01*
X12858200Y18602858D02*
X12858200Y18664763D01*
X12858200Y18664763D02*
X12870581Y18689525D01*
X12870581Y18689525D02*
X12882962Y18701906D01*
X12882962Y18701906D02*
X12907724Y18714287D01*
X12907724Y18714287D02*
X12932486Y18714287D01*
X12932486Y18714287D02*
X12969629Y18701906D01*
X12969629Y18701906D02*
X13118200Y18553334D01*
X13118200Y18553334D02*
X13118200Y18714287D01*
X5089765Y55478334D02*
X5101670Y55466430D01*
X5101670Y55466430D02*
X5113574Y55430715D01*
X5113574Y55430715D02*
X5113574Y55406906D01*
X5113574Y55406906D02*
X5101670Y55371192D01*
X5101670Y55371192D02*
X5077860Y55347382D01*
X5077860Y55347382D02*
X5054050Y55335477D01*
X5054050Y55335477D02*
X5006431Y55323573D01*
X5006431Y55323573D02*
X4970717Y55323573D01*
X4970717Y55323573D02*
X4923098Y55335477D01*
X4923098Y55335477D02*
X4899289Y55347382D01*
X4899289Y55347382D02*
X4875479Y55371192D01*
X4875479Y55371192D02*
X4863574Y55406906D01*
X4863574Y55406906D02*
X4863574Y55430715D01*
X4863574Y55430715D02*
X4875479Y55466430D01*
X4875479Y55466430D02*
X4887384Y55478334D01*
X4863574Y55704525D02*
X4863574Y55585477D01*
X4863574Y55585477D02*
X4982622Y55573573D01*
X4982622Y55573573D02*
X4970717Y55585477D01*
X4970717Y55585477D02*
X4958812Y55609287D01*
X4958812Y55609287D02*
X4958812Y55668811D01*
X4958812Y55668811D02*
X4970717Y55692620D01*
X4970717Y55692620D02*
X4982622Y55704525D01*
X4982622Y55704525D02*
X5006431Y55716430D01*
X5006431Y55716430D02*
X5065955Y55716430D01*
X5065955Y55716430D02*
X5089765Y55704525D01*
X5089765Y55704525D02*
X5101670Y55692620D01*
X5101670Y55692620D02*
X5113574Y55668811D01*
X5113574Y55668811D02*
X5113574Y55609287D01*
X5113574Y55609287D02*
X5101670Y55585477D01*
X5101670Y55585477D02*
X5089765Y55573573D01*
D11*
X-13380953Y9495181D02*
X-12809525Y9495181D01*
X-13095239Y8495181D02*
X-13095239Y9495181D01*
X-12095239Y8542800D02*
X-12190477Y8495181D01*
X-12190477Y8495181D02*
X-12380953Y8495181D01*
X-12380953Y8495181D02*
X-12476191Y8542800D01*
X-12476191Y8542800D02*
X-12523810Y8638039D01*
X-12523810Y8638039D02*
X-12523810Y9018991D01*
X-12523810Y9018991D02*
X-12476191Y9114229D01*
X-12476191Y9114229D02*
X-12380953Y9161848D01*
X-12380953Y9161848D02*
X-12190477Y9161848D01*
X-12190477Y9161848D02*
X-12095239Y9114229D01*
X-12095239Y9114229D02*
X-12047620Y9018991D01*
X-12047620Y9018991D02*
X-12047620Y8923753D01*
X-12047620Y8923753D02*
X-12523810Y8828515D01*
X-11666667Y8542800D02*
X-11571429Y8495181D01*
X-11571429Y8495181D02*
X-11380953Y8495181D01*
X-11380953Y8495181D02*
X-11285715Y8542800D01*
X-11285715Y8542800D02*
X-11238096Y8638039D01*
X-11238096Y8638039D02*
X-11238096Y8685658D01*
X-11238096Y8685658D02*
X-11285715Y8780896D01*
X-11285715Y8780896D02*
X-11380953Y8828515D01*
X-11380953Y8828515D02*
X-11523810Y8828515D01*
X-11523810Y8828515D02*
X-11619048Y8876134D01*
X-11619048Y8876134D02*
X-11666667Y8971372D01*
X-11666667Y8971372D02*
X-11666667Y9018991D01*
X-11666667Y9018991D02*
X-11619048Y9114229D01*
X-11619048Y9114229D02*
X-11523810Y9161848D01*
X-11523810Y9161848D02*
X-11380953Y9161848D01*
X-11380953Y9161848D02*
X-11285715Y9114229D01*
X-10952381Y9161848D02*
X-10571429Y9161848D01*
X-10809524Y9495181D02*
X-10809524Y8638039D01*
X-10809524Y8638039D02*
X-10761905Y8542800D01*
X-10761905Y8542800D02*
X-10666667Y8495181D01*
X-10666667Y8495181D02*
X-10571429Y8495181D01*
X-10238095Y8495181D02*
X-10238095Y9495181D01*
X-10238095Y9495181D02*
X-9857143Y9495181D01*
X-9857143Y9495181D02*
X-9761905Y9447562D01*
X-9761905Y9447562D02*
X-9714286Y9399943D01*
X-9714286Y9399943D02*
X-9666667Y9304705D01*
X-9666667Y9304705D02*
X-9666667Y9161848D01*
X-9666667Y9161848D02*
X-9714286Y9066610D01*
X-9714286Y9066610D02*
X-9761905Y9018991D01*
X-9761905Y9018991D02*
X-9857143Y8971372D01*
X-9857143Y8971372D02*
X-10238095Y8971372D01*
X-9095238Y8495181D02*
X-9190476Y8542800D01*
X-9190476Y8542800D02*
X-9238095Y8590420D01*
X-9238095Y8590420D02*
X-9285714Y8685658D01*
X-9285714Y8685658D02*
X-9285714Y8971372D01*
X-9285714Y8971372D02*
X-9238095Y9066610D01*
X-9238095Y9066610D02*
X-9190476Y9114229D01*
X-9190476Y9114229D02*
X-9095238Y9161848D01*
X-9095238Y9161848D02*
X-8952381Y9161848D01*
X-8952381Y9161848D02*
X-8857143Y9114229D01*
X-8857143Y9114229D02*
X-8809524Y9066610D01*
X-8809524Y9066610D02*
X-8761905Y8971372D01*
X-8761905Y8971372D02*
X-8761905Y8685658D01*
X-8761905Y8685658D02*
X-8809524Y8590420D01*
X-8809524Y8590420D02*
X-8857143Y8542800D01*
X-8857143Y8542800D02*
X-8952381Y8495181D01*
X-8952381Y8495181D02*
X-9095238Y8495181D01*
X-8333333Y8495181D02*
X-8333333Y9161848D01*
X-8333333Y9495181D02*
X-8380952Y9447562D01*
X-8380952Y9447562D02*
X-8333333Y9399943D01*
X-8333333Y9399943D02*
X-8285714Y9447562D01*
X-8285714Y9447562D02*
X-8333333Y9495181D01*
X-8333333Y9495181D02*
X-8333333Y9399943D01*
X-7857143Y9161848D02*
X-7857143Y8495181D01*
X-7857143Y9066610D02*
X-7809524Y9114229D01*
X-7809524Y9114229D02*
X-7714286Y9161848D01*
X-7714286Y9161848D02*
X-7571429Y9161848D01*
X-7571429Y9161848D02*
X-7476191Y9114229D01*
X-7476191Y9114229D02*
X-7428572Y9018991D01*
X-7428572Y9018991D02*
X-7428572Y8495181D01*
X-7095238Y9161848D02*
X-6714286Y9161848D01*
X-6952381Y9495181D02*
X-6952381Y8638039D01*
X-6952381Y8638039D02*
X-6904762Y8542800D01*
X-6904762Y8542800D02*
X-6809524Y8495181D01*
X-6809524Y8495181D02*
X-6714286Y8495181D01*
X-6619047Y8399943D02*
X-5857143Y8399943D01*
X-5761904Y9495181D02*
X-5190476Y9495181D01*
X-5476190Y8495181D02*
X-5476190Y9495181D01*
X-4857142Y8495181D02*
X-4857142Y9495181D01*
X-4857142Y9018991D02*
X-4285714Y9018991D01*
X-4285714Y8495181D02*
X-4285714Y9495181D01*
X-3952380Y9495181D02*
X-3380952Y9495181D01*
X-3666666Y8495181D02*
X-3666666Y9495181D01*
X-3047618Y8495181D02*
X-3047618Y9495181D01*
X-3047618Y9495181D02*
X-2666666Y9495181D01*
X-2666666Y9495181D02*
X-2571428Y9447562D01*
X-2571428Y9447562D02*
X-2523809Y9399943D01*
X-2523809Y9399943D02*
X-2476190Y9304705D01*
X-2476190Y9304705D02*
X-2476190Y9161848D01*
X-2476190Y9161848D02*
X-2523809Y9066610D01*
X-2523809Y9066610D02*
X-2571428Y9018991D01*
X-2571428Y9018991D02*
X-2666666Y8971372D01*
X-2666666Y8971372D02*
X-3047618Y8971372D01*
X-1619047Y8495181D02*
X-1619047Y9018991D01*
X-1619047Y9018991D02*
X-1666666Y9114229D01*
X-1666666Y9114229D02*
X-1761904Y9161848D01*
X-1761904Y9161848D02*
X-1952380Y9161848D01*
X-1952380Y9161848D02*
X-2047618Y9114229D01*
X-1619047Y8542800D02*
X-1714285Y8495181D01*
X-1714285Y8495181D02*
X-1952380Y8495181D01*
X-1952380Y8495181D02*
X-2047618Y8542800D01*
X-2047618Y8542800D02*
X-2095237Y8638039D01*
X-2095237Y8638039D02*
X-2095237Y8733277D01*
X-2095237Y8733277D02*
X-2047618Y8828515D01*
X-2047618Y8828515D02*
X-1952380Y8876134D01*
X-1952380Y8876134D02*
X-1714285Y8876134D01*
X-1714285Y8876134D02*
X-1619047Y8923753D01*
X-714285Y8495181D02*
X-714285Y9495181D01*
X-714285Y8542800D02*
X-809523Y8495181D01*
X-809523Y8495181D02*
X-999999Y8495181D01*
X-999999Y8495181D02*
X-1095237Y8542800D01*
X-1095237Y8542800D02*
X-1142856Y8590420D01*
X-1142856Y8590420D02*
X-1190475Y8685658D01*
X-1190475Y8685658D02*
X-1190475Y8971372D01*
X-1190475Y8971372D02*
X-1142856Y9066610D01*
X-1142856Y9066610D02*
X-1095237Y9114229D01*
X-1095237Y9114229D02*
X-999999Y9161848D01*
X-999999Y9161848D02*
X-809523Y9161848D01*
X-809523Y9161848D02*
X-714285Y9114229D01*
X-476189Y8399943D02*
X285715Y8399943D01*
X476192Y9399943D02*
X523811Y9447562D01*
X523811Y9447562D02*
X619049Y9495181D01*
X619049Y9495181D02*
X857144Y9495181D01*
X857144Y9495181D02*
X952382Y9447562D01*
X952382Y9447562D02*
X1000001Y9399943D01*
X1000001Y9399943D02*
X1047620Y9304705D01*
X1047620Y9304705D02*
X1047620Y9209467D01*
X1047620Y9209467D02*
X1000001Y9066610D01*
X1000001Y9066610D02*
X428573Y8495181D01*
X428573Y8495181D02*
X1047620Y8495181D01*
X1476192Y8590420D02*
X1523811Y8542800D01*
X1523811Y8542800D02*
X1476192Y8495181D01*
X1476192Y8495181D02*
X1428573Y8542800D01*
X1428573Y8542800D02*
X1476192Y8590420D01*
X1476192Y8590420D02*
X1476192Y8495181D01*
X2142858Y9495181D02*
X2238096Y9495181D01*
X2238096Y9495181D02*
X2333334Y9447562D01*
X2333334Y9447562D02*
X2380953Y9399943D01*
X2380953Y9399943D02*
X2428572Y9304705D01*
X2428572Y9304705D02*
X2476191Y9114229D01*
X2476191Y9114229D02*
X2476191Y8876134D01*
X2476191Y8876134D02*
X2428572Y8685658D01*
X2428572Y8685658D02*
X2380953Y8590420D01*
X2380953Y8590420D02*
X2333334Y8542800D01*
X2333334Y8542800D02*
X2238096Y8495181D01*
X2238096Y8495181D02*
X2142858Y8495181D01*
X2142858Y8495181D02*
X2047620Y8542800D01*
X2047620Y8542800D02*
X2000001Y8590420D01*
X2000001Y8590420D02*
X1952382Y8685658D01*
X1952382Y8685658D02*
X1904763Y8876134D01*
X1904763Y8876134D02*
X1904763Y9114229D01*
X1904763Y9114229D02*
X1952382Y9304705D01*
X1952382Y9304705D02*
X2000001Y9399943D01*
X2000001Y9399943D02*
X2047620Y9447562D01*
X2047620Y9447562D02*
X2142858Y9495181D01*
X2809525Y8495181D02*
X3333334Y9161848D01*
X2809525Y9161848D02*
X3333334Y8495181D01*
X3666668Y9399943D02*
X3714287Y9447562D01*
X3714287Y9447562D02*
X3809525Y9495181D01*
X3809525Y9495181D02*
X4047620Y9495181D01*
X4047620Y9495181D02*
X4142858Y9447562D01*
X4142858Y9447562D02*
X4190477Y9399943D01*
X4190477Y9399943D02*
X4238096Y9304705D01*
X4238096Y9304705D02*
X4238096Y9209467D01*
X4238096Y9209467D02*
X4190477Y9066610D01*
X4190477Y9066610D02*
X3619049Y8495181D01*
X3619049Y8495181D02*
X4238096Y8495181D01*
X4666668Y8590420D02*
X4714287Y8542800D01*
X4714287Y8542800D02*
X4666668Y8495181D01*
X4666668Y8495181D02*
X4619049Y8542800D01*
X4619049Y8542800D02*
X4666668Y8590420D01*
X4666668Y8590420D02*
X4666668Y8495181D01*
X5333334Y9495181D02*
X5428572Y9495181D01*
X5428572Y9495181D02*
X5523810Y9447562D01*
X5523810Y9447562D02*
X5571429Y9399943D01*
X5571429Y9399943D02*
X5619048Y9304705D01*
X5619048Y9304705D02*
X5666667Y9114229D01*
X5666667Y9114229D02*
X5666667Y8876134D01*
X5666667Y8876134D02*
X5619048Y8685658D01*
X5619048Y8685658D02*
X5571429Y8590420D01*
X5571429Y8590420D02*
X5523810Y8542800D01*
X5523810Y8542800D02*
X5428572Y8495181D01*
X5428572Y8495181D02*
X5333334Y8495181D01*
X5333334Y8495181D02*
X5238096Y8542800D01*
X5238096Y8542800D02*
X5190477Y8590420D01*
X5190477Y8590420D02*
X5142858Y8685658D01*
X5142858Y8685658D02*
X5095239Y8876134D01*
X5095239Y8876134D02*
X5095239Y9114229D01*
X5095239Y9114229D02*
X5142858Y9304705D01*
X5142858Y9304705D02*
X5190477Y9399943D01*
X5190477Y9399943D02*
X5238096Y9447562D01*
X5238096Y9447562D02*
X5333334Y9495181D01*
X6095239Y8495181D02*
X6095239Y9161848D01*
X6095239Y9066610D02*
X6142858Y9114229D01*
X6142858Y9114229D02*
X6238096Y9161848D01*
X6238096Y9161848D02*
X6380953Y9161848D01*
X6380953Y9161848D02*
X6476191Y9114229D01*
X6476191Y9114229D02*
X6523810Y9018991D01*
X6523810Y9018991D02*
X6523810Y8495181D01*
X6523810Y9018991D02*
X6571429Y9114229D01*
X6571429Y9114229D02*
X6666667Y9161848D01*
X6666667Y9161848D02*
X6809524Y9161848D01*
X6809524Y9161848D02*
X6904763Y9114229D01*
X6904763Y9114229D02*
X6952382Y9018991D01*
X6952382Y9018991D02*
X6952382Y8495181D01*
X7428572Y8495181D02*
X7428572Y9161848D01*
X7428572Y9066610D02*
X7476191Y9114229D01*
X7476191Y9114229D02*
X7571429Y9161848D01*
X7571429Y9161848D02*
X7714286Y9161848D01*
X7714286Y9161848D02*
X7809524Y9114229D01*
X7809524Y9114229D02*
X7857143Y9018991D01*
X7857143Y9018991D02*
X7857143Y8495181D01*
X7857143Y9018991D02*
X7904762Y9114229D01*
X7904762Y9114229D02*
X8000000Y9161848D01*
X8000000Y9161848D02*
X8142857Y9161848D01*
X8142857Y9161848D02*
X8238096Y9114229D01*
X8238096Y9114229D02*
X8285715Y9018991D01*
X8285715Y9018991D02*
X8285715Y8495181D01*
X8523810Y8399943D02*
X9285714Y8399943D01*
X9523810Y8495181D02*
X9523810Y9495181D01*
X9523810Y9495181D02*
X9761905Y9495181D01*
X9761905Y9495181D02*
X9904762Y9447562D01*
X9904762Y9447562D02*
X10000000Y9352324D01*
X10000000Y9352324D02*
X10047619Y9257086D01*
X10047619Y9257086D02*
X10095238Y9066610D01*
X10095238Y9066610D02*
X10095238Y8923753D01*
X10095238Y8923753D02*
X10047619Y8733277D01*
X10047619Y8733277D02*
X10000000Y8638039D01*
X10000000Y8638039D02*
X9904762Y8542800D01*
X9904762Y8542800D02*
X9761905Y8495181D01*
X9761905Y8495181D02*
X9523810Y8495181D01*
X10523810Y8495181D02*
X10523810Y9161848D01*
X10523810Y8971372D02*
X10571429Y9066610D01*
X10571429Y9066610D02*
X10619048Y9114229D01*
X10619048Y9114229D02*
X10714286Y9161848D01*
X10714286Y9161848D02*
X10809524Y9161848D01*
X11142858Y8495181D02*
X11142858Y9161848D01*
X11142858Y9495181D02*
X11095239Y9447562D01*
X11095239Y9447562D02*
X11142858Y9399943D01*
X11142858Y9399943D02*
X11190477Y9447562D01*
X11190477Y9447562D02*
X11142858Y9495181D01*
X11142858Y9495181D02*
X11142858Y9399943D01*
X11761905Y8495181D02*
X11666667Y8542800D01*
X11666667Y8542800D02*
X11619048Y8638039D01*
X11619048Y8638039D02*
X11619048Y9495181D01*
X12285715Y8495181D02*
X12190477Y8542800D01*
X12190477Y8542800D02*
X12142858Y8638039D01*
X12142858Y8638039D02*
X12142858Y9495181D01*
X13190477Y8495181D02*
X12619049Y8495181D01*
X12904763Y8495181D02*
X12904763Y9495181D01*
X12904763Y9495181D02*
X12809525Y9352324D01*
X12809525Y9352324D02*
X12714287Y9257086D01*
X12714287Y9257086D02*
X12619049Y9209467D01*
X13619049Y8590420D02*
X13666668Y8542800D01*
X13666668Y8542800D02*
X13619049Y8495181D01*
X13619049Y8495181D02*
X13571430Y8542800D01*
X13571430Y8542800D02*
X13619049Y8590420D01*
X13619049Y8590420D02*
X13619049Y8495181D01*
X14285715Y9495181D02*
X14380953Y9495181D01*
X14380953Y9495181D02*
X14476191Y9447562D01*
X14476191Y9447562D02*
X14523810Y9399943D01*
X14523810Y9399943D02*
X14571429Y9304705D01*
X14571429Y9304705D02*
X14619048Y9114229D01*
X14619048Y9114229D02*
X14619048Y8876134D01*
X14619048Y8876134D02*
X14571429Y8685658D01*
X14571429Y8685658D02*
X14523810Y8590420D01*
X14523810Y8590420D02*
X14476191Y8542800D01*
X14476191Y8542800D02*
X14380953Y8495181D01*
X14380953Y8495181D02*
X14285715Y8495181D01*
X14285715Y8495181D02*
X14190477Y8542800D01*
X14190477Y8542800D02*
X14142858Y8590420D01*
X14142858Y8590420D02*
X14095239Y8685658D01*
X14095239Y8685658D02*
X14047620Y8876134D01*
X14047620Y8876134D02*
X14047620Y9114229D01*
X14047620Y9114229D02*
X14095239Y9304705D01*
X14095239Y9304705D02*
X14142858Y9399943D01*
X14142858Y9399943D02*
X14190477Y9447562D01*
X14190477Y9447562D02*
X14285715Y9495181D01*
X15047620Y8495181D02*
X15047620Y9161848D01*
X15047620Y9066610D02*
X15095239Y9114229D01*
X15095239Y9114229D02*
X15190477Y9161848D01*
X15190477Y9161848D02*
X15333334Y9161848D01*
X15333334Y9161848D02*
X15428572Y9114229D01*
X15428572Y9114229D02*
X15476191Y9018991D01*
X15476191Y9018991D02*
X15476191Y8495181D01*
X15476191Y9018991D02*
X15523810Y9114229D01*
X15523810Y9114229D02*
X15619048Y9161848D01*
X15619048Y9161848D02*
X15761905Y9161848D01*
X15761905Y9161848D02*
X15857144Y9114229D01*
X15857144Y9114229D02*
X15904763Y9018991D01*
X15904763Y9018991D02*
X15904763Y8495181D01*
X16380953Y8495181D02*
X16380953Y9161848D01*
X16380953Y9066610D02*
X16428572Y9114229D01*
X16428572Y9114229D02*
X16523810Y9161848D01*
X16523810Y9161848D02*
X16666667Y9161848D01*
X16666667Y9161848D02*
X16761905Y9114229D01*
X16761905Y9114229D02*
X16809524Y9018991D01*
X16809524Y9018991D02*
X16809524Y8495181D01*
X16809524Y9018991D02*
X16857143Y9114229D01*
X16857143Y9114229D02*
X16952381Y9161848D01*
X16952381Y9161848D02*
X17095238Y9161848D01*
X17095238Y9161848D02*
X17190477Y9114229D01*
X17190477Y9114229D02*
X17238096Y9018991D01*
X17238096Y9018991D02*
X17238096Y8495181D01*
X666666Y12545181D02*
X333333Y13021372D01*
X95238Y12545181D02*
X95238Y13545181D01*
X95238Y13545181D02*
X476190Y13545181D01*
X476190Y13545181D02*
X571428Y13497562D01*
X571428Y13497562D02*
X619047Y13449943D01*
X619047Y13449943D02*
X666666Y13354705D01*
X666666Y13354705D02*
X666666Y13211848D01*
X666666Y13211848D02*
X619047Y13116610D01*
X619047Y13116610D02*
X571428Y13068991D01*
X571428Y13068991D02*
X476190Y13021372D01*
X476190Y13021372D02*
X95238Y13021372D01*
X1095238Y13068991D02*
X1428571Y13068991D01*
X1571428Y12545181D02*
X1095238Y12545181D01*
X1095238Y12545181D02*
X1095238Y13545181D01*
X1095238Y13545181D02*
X1571428Y13545181D01*
X2333333Y13068991D02*
X2000000Y13068991D01*
X2000000Y12545181D02*
X2000000Y13545181D01*
X2000000Y13545181D02*
X2476190Y13545181D01*
X3000000Y13545181D02*
X3000000Y13307086D01*
X2761905Y13402324D02*
X3000000Y13307086D01*
X3000000Y13307086D02*
X3238095Y13402324D01*
X2857143Y13116610D02*
X3000000Y13307086D01*
X3000000Y13307086D02*
X3142857Y13116610D01*
X3761905Y13545181D02*
X3761905Y13307086D01*
X3523810Y13402324D02*
X3761905Y13307086D01*
X3761905Y13307086D02*
X4000000Y13402324D01*
X3619048Y13116610D02*
X3761905Y13307086D01*
X3761905Y13307086D02*
X3904762Y13116610D01*
D10*
X1494285Y40910235D02*
X1482381Y40898330D01*
X1482381Y40898330D02*
X1446666Y40886426D01*
X1446666Y40886426D02*
X1422857Y40886426D01*
X1422857Y40886426D02*
X1387143Y40898330D01*
X1387143Y40898330D02*
X1363333Y40922140D01*
X1363333Y40922140D02*
X1351428Y40945950D01*
X1351428Y40945950D02*
X1339524Y40993569D01*
X1339524Y40993569D02*
X1339524Y41029283D01*
X1339524Y41029283D02*
X1351428Y41076902D01*
X1351428Y41076902D02*
X1363333Y41100711D01*
X1363333Y41100711D02*
X1387143Y41124521D01*
X1387143Y41124521D02*
X1422857Y41136426D01*
X1422857Y41136426D02*
X1446666Y41136426D01*
X1446666Y41136426D02*
X1482381Y41124521D01*
X1482381Y41124521D02*
X1494285Y41112616D01*
X1732381Y40886426D02*
X1589524Y40886426D01*
X1660952Y40886426D02*
X1660952Y41136426D01*
X1660952Y41136426D02*
X1637143Y41100711D01*
X1637143Y41100711D02*
X1613333Y41076902D01*
X1613333Y41076902D02*
X1589524Y41064997D01*
X1827619Y41112616D02*
X1839523Y41124521D01*
X1839523Y41124521D02*
X1863333Y41136426D01*
X1863333Y41136426D02*
X1922857Y41136426D01*
X1922857Y41136426D02*
X1946666Y41124521D01*
X1946666Y41124521D02*
X1958571Y41112616D01*
X1958571Y41112616D02*
X1970476Y41088807D01*
X1970476Y41088807D02*
X1970476Y41064997D01*
X1970476Y41064997D02*
X1958571Y41029283D01*
X1958571Y41029283D02*
X1815714Y40886426D01*
X1815714Y40886426D02*
X1970476Y40886426D01*
D11*
X7273809Y42521372D02*
X7273809Y42045181D01*
X6940476Y43045181D02*
X7273809Y42521372D01*
X7273809Y42521372D02*
X7607142Y43045181D01*
X8464285Y42045181D02*
X7892857Y42045181D01*
X8178571Y42045181D02*
X8178571Y43045181D01*
X8178571Y43045181D02*
X8083333Y42902324D01*
X8083333Y42902324D02*
X7988095Y42807086D01*
X7988095Y42807086D02*
X7892857Y42759467D01*
D16*
X2697891Y43800000D02*
X3126462Y43800000D01*
X3126462Y43800000D02*
X3212177Y43771429D01*
X3212177Y43771429D02*
X3269320Y43714286D01*
X3269320Y43714286D02*
X3297891Y43628572D01*
X3297891Y43628572D02*
X3297891Y43571429D01*
X2955034Y44171429D02*
X2926462Y44114286D01*
X2926462Y44114286D02*
X2897891Y44085715D01*
X2897891Y44085715D02*
X2840748Y44057143D01*
X2840748Y44057143D02*
X2812177Y44057143D01*
X2812177Y44057143D02*
X2755034Y44085715D01*
X2755034Y44085715D02*
X2726462Y44114286D01*
X2726462Y44114286D02*
X2697891Y44171429D01*
X2697891Y44171429D02*
X2697891Y44285715D01*
X2697891Y44285715D02*
X2726462Y44342857D01*
X2726462Y44342857D02*
X2755034Y44371429D01*
X2755034Y44371429D02*
X2812177Y44400000D01*
X2812177Y44400000D02*
X2840748Y44400000D01*
X2840748Y44400000D02*
X2897891Y44371429D01*
X2897891Y44371429D02*
X2926462Y44342857D01*
X2926462Y44342857D02*
X2955034Y44285715D01*
X2955034Y44285715D02*
X2955034Y44171429D01*
X2955034Y44171429D02*
X2983605Y44114286D01*
X2983605Y44114286D02*
X3012177Y44085715D01*
X3012177Y44085715D02*
X3069320Y44057143D01*
X3069320Y44057143D02*
X3183605Y44057143D01*
X3183605Y44057143D02*
X3240748Y44085715D01*
X3240748Y44085715D02*
X3269320Y44114286D01*
X3269320Y44114286D02*
X3297891Y44171429D01*
X3297891Y44171429D02*
X3297891Y44285715D01*
X3297891Y44285715D02*
X3269320Y44342857D01*
X3269320Y44342857D02*
X3240748Y44371429D01*
X3240748Y44371429D02*
X3183605Y44400000D01*
X3183605Y44400000D02*
X3069320Y44400000D01*
X3069320Y44400000D02*
X3012177Y44371429D01*
X3012177Y44371429D02*
X2983605Y44342857D01*
X2983605Y44342857D02*
X2955034Y44285715D01*
D13*
X8769229Y66736667D02*
X9333514Y66736667D01*
X9333514Y66736667D02*
X9446371Y66699048D01*
X9446371Y66699048D02*
X9521610Y66623810D01*
X9521610Y66623810D02*
X9559229Y66510953D01*
X9559229Y66510953D02*
X9559229Y66435715D01*
X8769229Y67037620D02*
X8769229Y67564286D01*
X8769229Y67564286D02*
X9559229Y67225715D01*
D12*
X8028571Y27471256D02*
X8028571Y26864113D01*
X8028571Y26864113D02*
X8064285Y26792685D01*
X8064285Y26792685D02*
X8100000Y26756970D01*
X8100000Y26756970D02*
X8171428Y26721256D01*
X8171428Y26721256D02*
X8314285Y26721256D01*
X8314285Y26721256D02*
X8385714Y26756970D01*
X8385714Y26756970D02*
X8421428Y26792685D01*
X8421428Y26792685D02*
X8457142Y26864113D01*
X8457142Y26864113D02*
X8457142Y27471256D01*
X8778571Y27399828D02*
X8814285Y27435542D01*
X8814285Y27435542D02*
X8885714Y27471256D01*
X8885714Y27471256D02*
X9064285Y27471256D01*
X9064285Y27471256D02*
X9135714Y27435542D01*
X9135714Y27435542D02*
X9171428Y27399828D01*
X9171428Y27399828D02*
X9207142Y27328399D01*
X9207142Y27328399D02*
X9207142Y27256970D01*
X9207142Y27256970D02*
X9171428Y27149828D01*
X9171428Y27149828D02*
X8742856Y26721256D01*
X8742856Y26721256D02*
X9207142Y26721256D01*
D14*
X1643832Y26742858D02*
X1662880Y26723810D01*
X1662880Y26723810D02*
X1681927Y26666668D01*
X1681927Y26666668D02*
X1681927Y26628572D01*
X1681927Y26628572D02*
X1662880Y26571429D01*
X1662880Y26571429D02*
X1624784Y26533334D01*
X1624784Y26533334D02*
X1586689Y26514287D01*
X1586689Y26514287D02*
X1510499Y26495239D01*
X1510499Y26495239D02*
X1453356Y26495239D01*
X1453356Y26495239D02*
X1377165Y26514287D01*
X1377165Y26514287D02*
X1339070Y26533334D01*
X1339070Y26533334D02*
X1300975Y26571429D01*
X1300975Y26571429D02*
X1281927Y26628572D01*
X1281927Y26628572D02*
X1281927Y26666668D01*
X1281927Y26666668D02*
X1300975Y26723810D01*
X1300975Y26723810D02*
X1320022Y26742858D01*
X1681927Y27123810D02*
X1681927Y26895239D01*
X1681927Y27009525D02*
X1281927Y27009525D01*
X1281927Y27009525D02*
X1339070Y26971429D01*
X1339070Y26971429D02*
X1377165Y26933334D01*
X1377165Y26933334D02*
X1396213Y26895239D01*
X1281927Y27257143D02*
X1281927Y27504762D01*
X1281927Y27504762D02*
X1434308Y27371429D01*
X1434308Y27371429D02*
X1434308Y27428572D01*
X1434308Y27428572D02*
X1453356Y27466667D01*
X1453356Y27466667D02*
X1472403Y27485715D01*
X1472403Y27485715D02*
X1510499Y27504762D01*
X1510499Y27504762D02*
X1605737Y27504762D01*
X1605737Y27504762D02*
X1643832Y27485715D01*
X1643832Y27485715D02*
X1662880Y27466667D01*
X1662880Y27466667D02*
X1681927Y27428572D01*
X1681927Y27428572D02*
X1681927Y27314286D01*
X1681927Y27314286D02*
X1662880Y27276191D01*
X1662880Y27276191D02*
X1643832Y27257143D01*
D11*
X4884819Y6238096D02*
X4884819Y5666668D01*
X4884819Y5952382D02*
X3884819Y5952382D01*
X3884819Y5952382D02*
X4027676Y5857144D01*
X4027676Y5857144D02*
X4122914Y5761906D01*
X4122914Y5761906D02*
X4170533Y5666668D01*
X4218152Y6666668D02*
X5218152Y6666668D01*
X4741961Y7142858D02*
X4837200Y7190477D01*
X4837200Y7190477D02*
X4884819Y7285715D01*
X4741961Y6666668D02*
X4837200Y6714287D01*
X4837200Y6714287D02*
X4884819Y6809525D01*
X4884819Y6809525D02*
X4884819Y7000001D01*
X4884819Y7000001D02*
X4837200Y7095239D01*
X4837200Y7095239D02*
X4741961Y7142858D01*
X4741961Y7142858D02*
X4218152Y7142858D01*
X4884819Y7714287D02*
X3884819Y7714287D01*
X4361009Y7714287D02*
X4361009Y8285715D01*
X4884819Y8285715D02*
X3884819Y8285715D01*
D14*
X3181927Y6933334D02*
X3181927Y6742858D01*
X3181927Y6742858D02*
X2781927Y6742858D01*
X3181927Y7276191D02*
X3181927Y7047620D01*
X3181927Y7161906D02*
X2781927Y7161906D01*
X2781927Y7161906D02*
X2839070Y7123810D01*
X2839070Y7123810D02*
X2877165Y7085715D01*
X2877165Y7085715D02*
X2896213Y7047620D01*
D11*
X12004819Y50666667D02*
X12719104Y50666667D01*
X12719104Y50666667D02*
X12861961Y50619048D01*
X12861961Y50619048D02*
X12957200Y50523810D01*
X12957200Y50523810D02*
X13004819Y50380953D01*
X13004819Y50380953D02*
X13004819Y50285715D01*
X12004819Y51571429D02*
X12004819Y51380953D01*
X12004819Y51380953D02*
X12052438Y51285715D01*
X12052438Y51285715D02*
X12100057Y51238096D01*
X12100057Y51238096D02*
X12242914Y51142858D01*
X12242914Y51142858D02*
X12433390Y51095239D01*
X12433390Y51095239D02*
X12814342Y51095239D01*
X12814342Y51095239D02*
X12909580Y51142858D01*
X12909580Y51142858D02*
X12957200Y51190477D01*
X12957200Y51190477D02*
X13004819Y51285715D01*
X13004819Y51285715D02*
X13004819Y51476191D01*
X13004819Y51476191D02*
X12957200Y51571429D01*
X12957200Y51571429D02*
X12909580Y51619048D01*
X12909580Y51619048D02*
X12814342Y51666667D01*
X12814342Y51666667D02*
X12576247Y51666667D01*
X12576247Y51666667D02*
X12481009Y51619048D01*
X12481009Y51619048D02*
X12433390Y51571429D01*
X12433390Y51571429D02*
X12385771Y51476191D01*
X12385771Y51476191D02*
X12385771Y51285715D01*
X12385771Y51285715D02*
X12433390Y51190477D01*
X12433390Y51190477D02*
X12481009Y51142858D01*
X12481009Y51142858D02*
X12576247Y51095239D01*
D14*
X1643832Y23517858D02*
X1662880Y23498810D01*
X1662880Y23498810D02*
X1681927Y23441668D01*
X1681927Y23441668D02*
X1681927Y23403572D01*
X1681927Y23403572D02*
X1662880Y23346429D01*
X1662880Y23346429D02*
X1624784Y23308334D01*
X1624784Y23308334D02*
X1586689Y23289287D01*
X1586689Y23289287D02*
X1510499Y23270239D01*
X1510499Y23270239D02*
X1453356Y23270239D01*
X1453356Y23270239D02*
X1377165Y23289287D01*
X1377165Y23289287D02*
X1339070Y23308334D01*
X1339070Y23308334D02*
X1300975Y23346429D01*
X1300975Y23346429D02*
X1281927Y23403572D01*
X1281927Y23403572D02*
X1281927Y23441668D01*
X1281927Y23441668D02*
X1300975Y23498810D01*
X1300975Y23498810D02*
X1320022Y23517858D01*
X1681927Y23898810D02*
X1681927Y23670239D01*
X1681927Y23784525D02*
X1281927Y23784525D01*
X1281927Y23784525D02*
X1339070Y23746429D01*
X1339070Y23746429D02*
X1377165Y23708334D01*
X1377165Y23708334D02*
X1396213Y23670239D01*
X1415260Y24241667D02*
X1681927Y24241667D01*
X1262880Y24146429D02*
X1548594Y24051191D01*
X1548594Y24051191D02*
X1548594Y24298810D01*
D10*
X5089765Y40458334D02*
X5101670Y40446430D01*
X5101670Y40446430D02*
X5113574Y40410715D01*
X5113574Y40410715D02*
X5113574Y40386906D01*
X5113574Y40386906D02*
X5101670Y40351192D01*
X5101670Y40351192D02*
X5077860Y40327382D01*
X5077860Y40327382D02*
X5054050Y40315477D01*
X5054050Y40315477D02*
X5006431Y40303573D01*
X5006431Y40303573D02*
X4970717Y40303573D01*
X4970717Y40303573D02*
X4923098Y40315477D01*
X4923098Y40315477D02*
X4899289Y40327382D01*
X4899289Y40327382D02*
X4875479Y40351192D01*
X4875479Y40351192D02*
X4863574Y40386906D01*
X4863574Y40386906D02*
X4863574Y40410715D01*
X4863574Y40410715D02*
X4875479Y40446430D01*
X4875479Y40446430D02*
X4887384Y40458334D01*
X5113574Y40696430D02*
X5113574Y40553573D01*
X5113574Y40625001D02*
X4863574Y40625001D01*
X4863574Y40625001D02*
X4899289Y40601192D01*
X4899289Y40601192D02*
X4923098Y40577382D01*
X4923098Y40577382D02*
X4935003Y40553573D01*
X2089765Y50458334D02*
X2101670Y50446430D01*
X2101670Y50446430D02*
X2113574Y50410715D01*
X2113574Y50410715D02*
X2113574Y50386906D01*
X2113574Y50386906D02*
X2101670Y50351192D01*
X2101670Y50351192D02*
X2077860Y50327382D01*
X2077860Y50327382D02*
X2054050Y50315477D01*
X2054050Y50315477D02*
X2006431Y50303573D01*
X2006431Y50303573D02*
X1970717Y50303573D01*
X1970717Y50303573D02*
X1923098Y50315477D01*
X1923098Y50315477D02*
X1899289Y50327382D01*
X1899289Y50327382D02*
X1875479Y50351192D01*
X1875479Y50351192D02*
X1863574Y50386906D01*
X1863574Y50386906D02*
X1863574Y50410715D01*
X1863574Y50410715D02*
X1875479Y50446430D01*
X1875479Y50446430D02*
X1887384Y50458334D01*
X1863574Y50541668D02*
X1863574Y50708334D01*
X1863574Y50708334D02*
X2113574Y50601192D01*
D11*
X3354819Y20416667D02*
X4069104Y20416667D01*
X4069104Y20416667D02*
X4211961Y20369048D01*
X4211961Y20369048D02*
X4307200Y20273810D01*
X4307200Y20273810D02*
X4354819Y20130953D01*
X4354819Y20130953D02*
X4354819Y20035715D01*
X3450057Y20845239D02*
X3402438Y20892858D01*
X3402438Y20892858D02*
X3354819Y20988096D01*
X3354819Y20988096D02*
X3354819Y21226191D01*
X3354819Y21226191D02*
X3402438Y21321429D01*
X3402438Y21321429D02*
X3450057Y21369048D01*
X3450057Y21369048D02*
X3545295Y21416667D01*
X3545295Y21416667D02*
X3640533Y21416667D01*
X3640533Y21416667D02*
X3783390Y21369048D01*
X3783390Y21369048D02*
X4354819Y20797620D01*
X4354819Y20797620D02*
X4354819Y21416667D01*
D10*
X2089765Y35938334D02*
X2101670Y35926430D01*
X2101670Y35926430D02*
X2113574Y35890715D01*
X2113574Y35890715D02*
X2113574Y35866906D01*
X2113574Y35866906D02*
X2101670Y35831192D01*
X2101670Y35831192D02*
X2077860Y35807382D01*
X2077860Y35807382D02*
X2054050Y35795477D01*
X2054050Y35795477D02*
X2006431Y35783573D01*
X2006431Y35783573D02*
X1970717Y35783573D01*
X1970717Y35783573D02*
X1923098Y35795477D01*
X1923098Y35795477D02*
X1899289Y35807382D01*
X1899289Y35807382D02*
X1875479Y35831192D01*
X1875479Y35831192D02*
X1863574Y35866906D01*
X1863574Y35866906D02*
X1863574Y35890715D01*
X1863574Y35890715D02*
X1875479Y35926430D01*
X1875479Y35926430D02*
X1887384Y35938334D01*
X1863574Y36021668D02*
X1863574Y36176430D01*
X1863574Y36176430D02*
X1958812Y36093096D01*
X1958812Y36093096D02*
X1958812Y36128811D01*
X1958812Y36128811D02*
X1970717Y36152620D01*
X1970717Y36152620D02*
X1982622Y36164525D01*
X1982622Y36164525D02*
X2006431Y36176430D01*
X2006431Y36176430D02*
X2065955Y36176430D01*
X2065955Y36176430D02*
X2089765Y36164525D01*
X2089765Y36164525D02*
X2101670Y36152620D01*
X2101670Y36152620D02*
X2113574Y36128811D01*
X2113574Y36128811D02*
X2113574Y36057382D01*
X2113574Y36057382D02*
X2101670Y36033573D01*
X2101670Y36033573D02*
X2089765Y36021668D01*
X10956667Y16881800D02*
X10870000Y17005609D01*
X10808095Y16881800D02*
X10808095Y17141800D01*
X10808095Y17141800D02*
X10907143Y17141800D01*
X10907143Y17141800D02*
X10931905Y17129419D01*
X10931905Y17129419D02*
X10944286Y17117038D01*
X10944286Y17117038D02*
X10956667Y17092276D01*
X10956667Y17092276D02*
X10956667Y17055133D01*
X10956667Y17055133D02*
X10944286Y17030371D01*
X10944286Y17030371D02*
X10931905Y17017990D01*
X10931905Y17017990D02*
X10907143Y17005609D01*
X10907143Y17005609D02*
X10808095Y17005609D01*
X11179524Y17141800D02*
X11130000Y17141800D01*
X11130000Y17141800D02*
X11105238Y17129419D01*
X11105238Y17129419D02*
X11092857Y17117038D01*
X11092857Y17117038D02*
X11068095Y17079895D01*
X11068095Y17079895D02*
X11055714Y17030371D01*
X11055714Y17030371D02*
X11055714Y16931323D01*
X11055714Y16931323D02*
X11068095Y16906561D01*
X11068095Y16906561D02*
X11080476Y16894180D01*
X11080476Y16894180D02*
X11105238Y16881800D01*
X11105238Y16881800D02*
X11154762Y16881800D01*
X11154762Y16881800D02*
X11179524Y16894180D01*
X11179524Y16894180D02*
X11191905Y16906561D01*
X11191905Y16906561D02*
X11204286Y16931323D01*
X11204286Y16931323D02*
X11204286Y16993228D01*
X11204286Y16993228D02*
X11191905Y17017990D01*
X11191905Y17017990D02*
X11179524Y17030371D01*
X11179524Y17030371D02*
X11154762Y17042752D01*
X11154762Y17042752D02*
X11105238Y17042752D01*
X11105238Y17042752D02*
X11080476Y17030371D01*
X11080476Y17030371D02*
X11068095Y17017990D01*
X11068095Y17017990D02*
X11055714Y16993228D01*
%TO.C,C11*%
D17*
X1020000Y38750000D02*
X2020000Y38750000D01*
X2020000Y38250000D01*
X1020000Y38250000D01*
X1020000Y38750000D01*
%TO.C,J1*%
X5930000Y10360000D02*
X13280000Y10360000D01*
X13280000Y1420000D01*
X5930000Y1420000D01*
X5930000Y10360000D01*
%TO.C,U4*%
X10462500Y15400000D02*
X11662500Y15400000D01*
X11662500Y12500000D01*
X10062500Y12500000D01*
X10062500Y15000000D01*
X10462500Y15400000D01*
%TO.C,L2*%
X1485000Y40250000D02*
X2485000Y40250000D01*
X2485000Y39750000D01*
X1485000Y39750000D01*
X1485000Y40250000D01*
%TO.C,J4*%
X7550000Y62500000D02*
G75*
G02*
X5450000Y62500000I-1050000J0D01*
G01*
X5450000Y62500000D02*
G75*
G02*
X7550000Y62500000I1050000J0D01*
G01*
X12150000Y62500000D02*
G75*
G02*
X10050000Y62500000I-1050000J0D01*
G01*
X10050000Y62500000D02*
G75*
G02*
X12150000Y62500000I1050000J0D01*
G01*
%TO.C,U1*%
X4800000Y38050000D02*
X10800000Y38050000D01*
X10800000Y31050000D01*
X3800000Y31050000D01*
X3800000Y37050000D01*
X4800000Y38050000D01*
%TO.C,U6*%
X7462500Y20900000D02*
X8662500Y20900000D01*
X8662500Y18000000D01*
X7062500Y18000000D01*
X7062500Y20500000D01*
X7462500Y20900000D01*
%TO.C,U3*%
X10687500Y24437500D02*
X12937500Y24437500D01*
X12937500Y21437500D01*
X9937500Y21437500D01*
X9937500Y23687500D01*
X10687500Y24437500D01*
%TO.C,M1*%
X5000000Y58500000D02*
G75*
G02*
X1000000Y58500000I-2000000J0D01*
G01*
X1000000Y58500000D02*
G75*
G02*
X5000000Y58500000I2000000J0D01*
G01*
%TO.C,C6*%
X3250000Y51980000D02*
X3750000Y51980000D01*
X3750000Y50980000D01*
X3250000Y50980000D01*
X3250000Y51980000D01*
%TO.C,R3*%
X12230000Y27015000D02*
X12770000Y27015000D01*
X12770000Y25965000D01*
X12230000Y25965000D01*
X12230000Y27015000D01*
%TO.C,C4*%
X3750000Y54980000D02*
X4250000Y54980000D01*
X4250000Y53980000D01*
X3750000Y53980000D01*
X3750000Y54980000D01*
%TO.C,C8*%
X1700000Y1400000D02*
X3300000Y1400000D01*
X3300000Y600000D01*
X1700000Y600000D01*
X1700000Y1400000D01*
%TO.C,R1*%
X10475000Y18270000D02*
X11525000Y18270000D01*
X11525000Y17730000D01*
X10475000Y17730000D01*
X10475000Y18270000D01*
%TO.C,U5*%
X5100000Y15450000D02*
X6300000Y15450000D01*
X6300000Y12550000D01*
X4700000Y12550000D01*
X4700000Y15050000D01*
X5100000Y15450000D01*
%TO.C,J3*%
X3600000Y27840000D02*
X3600000Y24440000D01*
X3600000Y24440000D02*
X5200000Y24440000D01*
X5200000Y27840000D02*
X3600000Y27840000D01*
X5200000Y24440000D02*
X5200000Y27840000D01*
%TO.C,C10*%
X1750000Y53480000D02*
X2250000Y53480000D01*
X2250000Y52480000D01*
X1750000Y52480000D01*
X1750000Y53480000D01*
%TO.C,J5*%
X3550000Y67300000D02*
G75*
G02*
X1450000Y67300000I-1050000J0D01*
G01*
X1450000Y67300000D02*
G75*
G02*
X3550000Y67300000I1050000J0D01*
G01*
X3550000Y62700000D02*
G75*
G02*
X1450000Y62700000I-1050000J0D01*
G01*
X1450000Y62700000D02*
G75*
G02*
X3550000Y62700000I1050000J0D01*
G01*
%TO.C,R7*%
X730000Y7025000D02*
X1270000Y7025000D01*
X1270000Y5975000D01*
X730000Y5975000D01*
X730000Y7025000D01*
%TO.C,R4*%
X2230000Y55535000D02*
X2770000Y55535000D01*
X2770000Y54485000D01*
X2230000Y54485000D01*
X2230000Y55535000D01*
%TO.C,C9*%
X1975000Y3900000D02*
X3575000Y3900000D01*
X3575000Y3100000D01*
X1975000Y3100000D01*
X1975000Y3900000D01*
%TO.C,R5*%
X10475000Y19770000D02*
X11525000Y19770000D01*
X11525000Y19230000D01*
X10475000Y19230000D01*
X10475000Y19770000D01*
%TO.C,C2*%
X11250000Y40480000D02*
X11750000Y40480000D01*
X11750000Y39480000D01*
X11250000Y39480000D01*
X11250000Y40480000D01*
%TO.C,R2*%
X12730000Y19035000D02*
X13270000Y19035000D01*
X13270000Y17985000D01*
X12730000Y17985000D01*
X12730000Y19035000D01*
%TO.C,C5*%
X4750000Y56020000D02*
X5250000Y56020000D01*
X5250000Y55020000D01*
X4750000Y55020000D01*
X4750000Y56020000D01*
%TO.C,C12*%
X1155000Y41250000D02*
X2155000Y41250000D01*
X2155000Y40750000D01*
X1155000Y40750000D01*
X1155000Y41250000D01*
%TO.C,Y1*%
X6150000Y41250000D02*
X6150000Y39750000D01*
X6150000Y41250000D02*
X9350000Y41250000D01*
X6150000Y39750000D02*
X9350000Y39750000D01*
X9350000Y41250000D02*
X9350000Y39750000D01*
%TO.C,J8*%
X1475000Y43700000D02*
X1475000Y44150000D01*
X1475000Y43700000D02*
X1725000Y43700000D01*
X1625000Y44300000D02*
X1475000Y44150000D01*
X1625000Y44300000D02*
X1725000Y44300000D01*
X1725000Y44300000D02*
X1725000Y45300000D01*
X1725000Y43700000D02*
X1725000Y42700000D01*
X2125000Y45500000D02*
X2125000Y45300000D01*
X2125000Y45500000D02*
X3925000Y45500000D01*
X2125000Y45300000D02*
X1725000Y45300000D01*
X2125000Y42700000D02*
X1725000Y42700000D01*
X2125000Y42500000D02*
X2125000Y42700000D01*
X2125000Y42500000D02*
X3925000Y42500000D01*
X3925000Y45500000D02*
X3925000Y45300000D01*
X3925000Y42500000D02*
X3925000Y42700000D01*
X4325000Y45300000D02*
X3925000Y45300000D01*
X4325000Y45300000D02*
X4325000Y42700000D01*
X4325000Y42700000D02*
X3925000Y42700000D01*
%TO.C,J7*%
X7950000Y67000000D02*
G75*
G02*
X5850000Y67000000I-1050000J0D01*
G01*
X5850000Y67000000D02*
G75*
G02*
X7950000Y67000000I1050000J0D01*
G01*
X12550000Y67000000D02*
G75*
G02*
X10450000Y67000000I-1050000J0D01*
G01*
X10450000Y67000000D02*
G75*
G02*
X12550000Y67000000I1050000J0D01*
G01*
%TO.C,U2*%
X7850000Y28562500D02*
X10100000Y28562500D01*
X10100000Y25562500D01*
X7100000Y25562500D01*
X7100000Y27812500D01*
X7850000Y28562500D01*
%TO.C,C13*%
X1100000Y27800000D02*
X1900000Y27800000D01*
X1900000Y26200000D01*
X1100000Y26200000D01*
X1100000Y27800000D01*
%TO.C,L1*%
X2600000Y7800000D02*
X3400000Y7800000D01*
X3400000Y6200000D01*
X2600000Y6200000D01*
X2600000Y7800000D01*
%TO.C,J6*%
X7650000Y58550000D02*
X12250000Y58550000D01*
X7650000Y51000000D02*
X7650000Y58550000D01*
X7650000Y51000000D02*
X7650000Y43450000D01*
X7650000Y44750000D02*
X8357107Y45250000D01*
X7650000Y43450000D02*
X12250000Y43450000D01*
X8357107Y45250000D02*
X7650000Y45750000D01*
X12250000Y58550000D02*
X12250000Y57950000D01*
X12250000Y57950000D02*
X12550000Y57950000D01*
X12250000Y44050000D02*
X12550000Y44050000D01*
X12250000Y43450000D02*
X12250000Y44050000D01*
X12550000Y58450000D02*
X13250000Y58450000D01*
X12550000Y57950000D02*
X12550000Y58450000D01*
X12550000Y44050000D02*
X12550000Y43550000D01*
X12550000Y43550000D02*
X13250000Y43550000D01*
X13250000Y58450000D02*
X13250000Y51000000D01*
X13250000Y43550000D02*
X13250000Y51000000D01*
%TO.C,C14*%
X1100000Y24575000D02*
X1900000Y24575000D01*
X1900000Y22975000D01*
X1100000Y22975000D01*
X1100000Y24575000D01*
%TO.C,C1*%
X4750000Y41000000D02*
X5250000Y41000000D01*
X5250000Y40000000D01*
X4750000Y40000000D01*
X4750000Y41000000D01*
%TO.C,C7*%
X1750000Y51000000D02*
X2250000Y51000000D01*
X2250000Y50000000D01*
X1750000Y50000000D01*
X1750000Y51000000D01*
%TO.C,J2*%
X3100000Y22750000D02*
X3100000Y18750000D01*
X3100000Y18750000D02*
X4700000Y18750000D01*
X4700000Y22750000D02*
X3100000Y22750000D01*
X4700000Y18750000D02*
X4700000Y22750000D01*
%TO.C,C3*%
X1750000Y36480000D02*
X2250000Y36480000D01*
X2250000Y35480000D01*
X1750000Y35480000D01*
X1750000Y36480000D01*
%TO.C,R6*%
X10475000Y17270000D02*
X11525000Y17270000D01*
X11525000Y16730000D01*
X10475000Y16730000D01*
X10475000Y17270000D01*
%TD*%
M02*
