%TF.GenerationSoftware,KiCad,Pcbnew,10.0.5*%
%TF.CreationDate,2026-09-14T14:48:56-05:00*%
%TF.ProjectId,arc-insight-board,6172632d-696e-4736-9967-68742d626f61,rev?*%
%TF.SameCoordinates,PX7d687e0PY87e60a0*%
%TF.FileFunction,Other,User*%
%FSLAX46Y46*%
G04 Gerber Fmt 4.6, Leading zero omitted, Abs format (unit mm)*
G04 Created by KiCad (PCBNEW 10.0.5) date 2026-09-14 14:48:56*
%MOMM*%
%LPD*%
G01*
G04 APERTURE LIST*
%ADD10C,0.050000*%
G04 APERTURE END LIST*
%TO.C,C11*%
D10*
X610000Y38960000D02*
X2430000Y38960000D01*
X2430000Y38040000D01*
X610000Y38040000D01*
X610000Y38960000D01*
%TO.C,J1*%
X4845000Y11210000D02*
X13785000Y11210000D01*
X13785000Y570000D01*
X4845000Y570000D01*
X4845000Y11210000D01*
%TO.C,U4*%
X8812500Y15450000D02*
X9812500Y15450000D01*
X8812500Y12450000D02*
X8812500Y15450000D01*
X9812500Y15650000D02*
X11912500Y15650000D01*
X9812500Y15450000D02*
X9812500Y15650000D01*
X9812500Y12450000D02*
X8812500Y12450000D01*
X9812500Y12250000D02*
X9812500Y12450000D01*
X11912500Y15650000D02*
X11912500Y15450000D01*
X11912500Y15450000D02*
X12912500Y15450000D01*
X11912500Y14340000D02*
X11912500Y13560000D01*
X11912500Y13560000D02*
X12912500Y13560000D01*
X11912500Y12450000D02*
X11912500Y12250000D01*
X11912500Y12250000D02*
X9812500Y12250000D01*
X12912500Y15450000D02*
X12912500Y14340000D01*
X12912500Y14340000D02*
X11912500Y14340000D01*
X12912500Y13560000D02*
X12912500Y12450000D01*
X12912500Y12450000D02*
X11912500Y12450000D01*
%TO.C,L2*%
X1055000Y40470000D02*
X2915000Y40470000D01*
X2915000Y39530000D01*
X1055000Y39530000D01*
X1055000Y40470000D01*
%TO.C,J4*%
X4700000Y64080000D02*
X8300000Y64080000D01*
X8300000Y60920000D01*
X4700000Y60920000D01*
X4700000Y64080000D01*
X9300000Y64080000D02*
X12900000Y64080000D01*
X12900000Y60920000D01*
X9300000Y60920000D01*
X9300000Y64080000D01*
%TO.C,U1*%
X3200000Y37500000D02*
X3550000Y37500000D01*
X3200000Y31600000D02*
X3200000Y37500000D01*
X3550000Y38300000D02*
X4350000Y38300000D01*
X3550000Y37500000D02*
X3550000Y38300000D01*
X3550000Y31600000D02*
X3200000Y31600000D01*
X3550000Y30800000D02*
X3550000Y31600000D01*
X4350000Y38650000D02*
X10250000Y38650000D01*
X4350000Y38300000D02*
X4350000Y38650000D01*
X4350000Y30800000D02*
X3550000Y30800000D01*
X4350000Y30450000D02*
X4350000Y30800000D01*
X10250000Y38650000D02*
X10250000Y38300000D01*
X10250000Y38300000D02*
X11050000Y38300000D01*
X10250000Y30800000D02*
X10250000Y30450000D01*
X10250000Y30450000D02*
X4350000Y30450000D01*
X11050000Y38300000D02*
X11050000Y37500000D01*
X11050000Y37500000D02*
X11400000Y37500000D01*
X11050000Y31600000D02*
X11050000Y30800000D01*
X11050000Y30800000D02*
X10250000Y30800000D01*
X11400000Y37500000D02*
X11400000Y31600000D01*
X11400000Y31600000D02*
X11050000Y31600000D01*
%TO.C,U6*%
X5812500Y20950000D02*
X6812500Y20950000D01*
X5812500Y17950000D02*
X5812500Y20950000D01*
X6812500Y21150000D02*
X8912500Y21150000D01*
X6812500Y20950000D02*
X6812500Y21150000D01*
X6812500Y17950000D02*
X5812500Y17950000D01*
X6812500Y17750000D02*
X6812500Y17950000D01*
X8912500Y21150000D02*
X8912500Y20950000D01*
X8912500Y20950000D02*
X9912500Y20950000D01*
X8912500Y19840000D02*
X8912500Y19060000D01*
X8912500Y19060000D02*
X9912500Y19060000D01*
X8912500Y17950000D02*
X8912500Y17750000D01*
X8912500Y17750000D02*
X6812500Y17750000D01*
X9912500Y20950000D02*
X9912500Y19840000D01*
X9912500Y19840000D02*
X8912500Y19840000D01*
X9912500Y19060000D02*
X9912500Y17950000D01*
X9912500Y17950000D02*
X8912500Y17950000D01*
%TO.C,U3*%
X9337500Y24067500D02*
X9687500Y24067500D01*
X9337500Y21807500D02*
X9337500Y24067500D01*
X9687500Y24687500D02*
X10307500Y24687500D01*
X9687500Y24067500D02*
X9687500Y24687500D01*
X9687500Y21807500D02*
X9337500Y21807500D01*
X9687500Y21187500D02*
X9687500Y21807500D01*
X10307500Y25037500D02*
X12567500Y25037500D01*
X10307500Y24687500D02*
X10307500Y25037500D01*
X10307500Y21187500D02*
X9687500Y21187500D01*
X10307500Y20837500D02*
X10307500Y21187500D01*
X12567500Y25037500D02*
X12567500Y24687500D01*
X12567500Y24687500D02*
X13187500Y24687500D01*
X12567500Y21187500D02*
X12567500Y20837500D01*
X12567500Y20837500D02*
X10307500Y20837500D01*
X13187500Y24687500D02*
X13187500Y24067500D01*
X13187500Y24067500D02*
X13537500Y24067500D01*
X13187500Y21807500D02*
X13187500Y21187500D01*
X13187500Y21187500D02*
X12567500Y21187500D01*
X13537500Y24067500D02*
X13537500Y21807500D01*
X13537500Y21807500D02*
X13187500Y21807500D01*
%TO.C,M1*%
X5250000Y58500000D02*
G75*
G02*
X750000Y58500000I-2250000J0D01*
G01*
X750000Y58500000D02*
G75*
G02*
X5250000Y58500000I2250000J0D01*
G01*
%TO.C,C6*%
X3040000Y52390000D02*
X3960000Y52390000D01*
X3960000Y50570000D01*
X3040000Y50570000D01*
X3040000Y52390000D01*
%TO.C,R3*%
X12030000Y27420000D02*
X12970000Y27420000D01*
X12970000Y25560000D01*
X12030000Y25560000D01*
X12030000Y27420000D01*
%TO.C,C4*%
X3540000Y55390000D02*
X4460000Y55390000D01*
X4460000Y53570000D01*
X3540000Y53570000D01*
X3540000Y55390000D01*
%TO.C,C8*%
X1020000Y1730000D02*
X3980000Y1730000D01*
X3980000Y270000D01*
X1020000Y270000D01*
X1020000Y1730000D01*
%TO.C,R1*%
X10070000Y18470000D02*
X11930000Y18470000D01*
X11930000Y17530000D01*
X10070000Y17530000D01*
X10070000Y18470000D01*
%TO.C,U5*%
X3450000Y15500000D02*
X4450000Y15500000D01*
X3450000Y12500000D02*
X3450000Y15500000D01*
X4450000Y15700000D02*
X6550000Y15700000D01*
X4450000Y15500000D02*
X4450000Y15700000D01*
X4450000Y12500000D02*
X3450000Y12500000D01*
X4450000Y12300000D02*
X4450000Y12500000D01*
X6550000Y15700000D02*
X6550000Y15500000D01*
X6550000Y15500000D02*
X7550000Y15500000D01*
X6550000Y14390000D02*
X6550000Y13610000D01*
X6550000Y13610000D02*
X7550000Y13610000D01*
X6550000Y12500000D02*
X6550000Y12300000D01*
X6550000Y12300000D02*
X4450000Y12300000D01*
X7550000Y15500000D02*
X7550000Y14390000D01*
X7550000Y14390000D02*
X6550000Y14390000D01*
X7550000Y13610000D02*
X7550000Y12500000D01*
X7550000Y12500000D02*
X6550000Y12500000D01*
%TO.C,J3*%
X2850000Y28090000D02*
X2850000Y24190000D01*
X2850000Y28090000D02*
X5950000Y28090000D01*
X5950000Y24190000D02*
X2850000Y24190000D01*
X5950000Y24190000D02*
X5950000Y28090000D01*
%TO.C,C10*%
X1540000Y53890000D02*
X2460000Y53890000D01*
X2460000Y52070000D01*
X1540000Y52070000D01*
X1540000Y53890000D01*
%TO.C,J5*%
X920000Y69100000D02*
X4080000Y69100000D01*
X4080000Y65500000D01*
X920000Y65500000D01*
X920000Y69100000D01*
X920000Y64500000D02*
X4080000Y64500000D01*
X4080000Y60900000D01*
X920000Y60900000D01*
X920000Y64500000D01*
%TO.C,R7*%
X530000Y7430000D02*
X1470000Y7430000D01*
X1470000Y5570000D01*
X530000Y5570000D01*
X530000Y7430000D01*
%TO.C,R4*%
X2030000Y55940000D02*
X2970000Y55940000D01*
X2970000Y54080000D01*
X2030000Y54080000D01*
X2030000Y55940000D01*
%TO.C,C9*%
X1295000Y4230000D02*
X4255000Y4230000D01*
X4255000Y2770000D01*
X1295000Y2770000D01*
X1295000Y4230000D01*
%TO.C,R5*%
X10070000Y19970000D02*
X11930000Y19970000D01*
X11930000Y19030000D01*
X10070000Y19030000D01*
X10070000Y19970000D01*
%TO.C,C2*%
X11040000Y40890000D02*
X11960000Y40890000D01*
X11960000Y39070000D01*
X11040000Y39070000D01*
X11040000Y40890000D01*
%TO.C,R2*%
X12530000Y19440000D02*
X13470000Y19440000D01*
X13470000Y17580000D01*
X12530000Y17580000D01*
X12530000Y19440000D01*
%TO.C,C5*%
X4540000Y56430000D02*
X5460000Y56430000D01*
X5460000Y54610000D01*
X4540000Y54610000D01*
X4540000Y56430000D01*
%TO.C,REF\u002A\u002A*%
X500000Y12500000D02*
X500000Y9500000D01*
X500000Y12500000D02*
X3500000Y12500000D01*
X3500000Y9500000D02*
X500000Y9500000D01*
X3500000Y9500000D02*
X3500000Y12500000D01*
%TO.C,C12*%
X745000Y41460000D02*
X2565000Y41460000D01*
X2565000Y40540000D01*
X745000Y40540000D01*
X745000Y41460000D01*
%TO.C,Y1*%
X5750000Y41650000D02*
X5750000Y39350000D01*
X5750000Y41650000D02*
X9750000Y41650000D01*
X5750000Y39350000D02*
X9750000Y39350000D01*
X9750000Y41650000D02*
X9750000Y39350000D01*
%TO.C,J8*%
X4625000Y45800000D02*
X4825000Y45800000D01*
X4825000Y42200000D01*
X4625000Y42200000D01*
X4625000Y41500000D01*
X1425000Y41500000D01*
X1425000Y42200000D01*
X1225000Y42200000D01*
X1225000Y43000000D01*
X475000Y43000000D01*
X475000Y45000000D01*
X1225000Y45000000D01*
X1225000Y45800000D01*
X1425000Y45800000D01*
X1425000Y46500000D01*
X4625000Y46500000D01*
X4625000Y45800000D01*
%TO.C,J7*%
X5100000Y68580000D02*
X8700000Y68580000D01*
X8700000Y65420000D01*
X5100000Y65420000D01*
X5100000Y68580000D01*
X9700000Y68580000D02*
X13300000Y68580000D01*
X13300000Y65420000D01*
X9700000Y65420000D01*
X9700000Y68580000D01*
%TO.C,U2*%
X6500000Y28192500D02*
X6850000Y28192500D01*
X6500000Y25932500D02*
X6500000Y28192500D01*
X6850000Y28812500D02*
X7470000Y28812500D01*
X6850000Y28192500D02*
X6850000Y28812500D01*
X6850000Y25932500D02*
X6500000Y25932500D01*
X6850000Y25312500D02*
X6850000Y25932500D01*
X7470000Y29162500D02*
X9730000Y29162500D01*
X7470000Y28812500D02*
X7470000Y29162500D01*
X7470000Y25312500D02*
X6850000Y25312500D01*
X7470000Y24962500D02*
X7470000Y25312500D01*
X9730000Y29162500D02*
X9730000Y28812500D01*
X9730000Y28812500D02*
X10350000Y28812500D01*
X9730000Y25312500D02*
X9730000Y24962500D01*
X9730000Y24962500D02*
X7470000Y24962500D01*
X10350000Y28812500D02*
X10350000Y28192500D01*
X10350000Y28192500D02*
X10700000Y28192500D01*
X10350000Y25932500D02*
X10350000Y25312500D01*
X10350000Y25312500D02*
X9730000Y25312500D01*
X10700000Y28192500D02*
X10700000Y25932500D01*
X10700000Y25932500D02*
X10350000Y25932500D01*
%TO.C,C13*%
X770000Y28480000D02*
X2230000Y28480000D01*
X2230000Y25520000D01*
X770000Y25520000D01*
X770000Y28480000D01*
%TO.C,L1*%
X2270000Y8480000D02*
X3730000Y8480000D01*
X3730000Y5520000D01*
X2270000Y5520000D01*
X2270000Y8480000D01*
%TO.C,J6*%
X5850000Y60050000D02*
X13750000Y60050000D01*
X13750000Y41950000D01*
X5850000Y41950000D01*
X5850000Y60050000D01*
%TO.C,C14*%
X770000Y25255000D02*
X2230000Y25255000D01*
X2230000Y22295000D01*
X770000Y22295000D01*
X770000Y25255000D01*
%TO.C,C1*%
X4540000Y41410000D02*
X5460000Y41410000D01*
X5460000Y39590000D01*
X4540000Y39590000D01*
X4540000Y41410000D01*
%TO.C,C7*%
X1540000Y51410000D02*
X2460000Y51410000D01*
X2460000Y49590000D01*
X1540000Y49590000D01*
X1540000Y51410000D01*
%TO.C,J2*%
X2350000Y23000000D02*
X2350000Y18500000D01*
X2350000Y23000000D02*
X5450000Y23000000D01*
X5450000Y18500000D02*
X2350000Y18500000D01*
X5450000Y18500000D02*
X5450000Y23000000D01*
%TO.C,C3*%
X1540000Y36890000D02*
X2460000Y36890000D01*
X2460000Y35070000D01*
X1540000Y35070000D01*
X1540000Y36890000D01*
%TO.C,R6*%
X10070000Y17470000D02*
X11930000Y17470000D01*
X11930000Y16530000D01*
X10070000Y16530000D01*
X10070000Y17470000D01*
%TD*%
M02*
