%TF.GenerationSoftware,KiCad,Pcbnew,10.0.5*%
%TF.CreationDate,2026-09-07T16:14:22-05:00*%
%TF.ProjectId,arc-insight-board,6172632d-7669-4736-996f-6e2d626f6172,rev?*%
%TF.SameCoordinates,Original*%
%TF.FileFunction,Other,User*%
%FSLAX46Y46*%
G04 Gerber Fmt 4.6, Leading zero omitted, Abs format (unit mm)*
G04 Created by KiCad (PCBNEW 10.0.5) date 2026-09-07 16:14:22*
%MOMM*%
%LPD*%
G01*
G04 APERTURE LIST*
%ADD10C,0.050000*%
G04 APERTURE END LIST*
%TO.C,C11*%
D10*
X132110000Y-103540000D02*
X133930000Y-103540000D01*
X133930000Y-104460000D01*
X132110000Y-104460000D01*
X132110000Y-103540000D01*
%TO.C,J1*%
X136345000Y-131290000D02*
X145285000Y-131290000D01*
X145285000Y-141930000D01*
X136345000Y-141930000D01*
X136345000Y-131290000D01*
%TO.C,U4*%
X140312500Y-127050000D02*
X141312500Y-127050000D01*
X140312500Y-130050000D02*
X140312500Y-127050000D01*
X141312500Y-126850000D02*
X143412500Y-126850000D01*
X141312500Y-127050000D02*
X141312500Y-126850000D01*
X141312500Y-130050000D02*
X140312500Y-130050000D01*
X141312500Y-130250000D02*
X141312500Y-130050000D01*
X143412500Y-126850000D02*
X143412500Y-127050000D01*
X143412500Y-127050000D02*
X144412500Y-127050000D01*
X143412500Y-128160000D02*
X143412500Y-128940000D01*
X143412500Y-128940000D02*
X144412500Y-128940000D01*
X143412500Y-130050000D02*
X143412500Y-130250000D01*
X143412500Y-130250000D02*
X141312500Y-130250000D01*
X144412500Y-127050000D02*
X144412500Y-128160000D01*
X144412500Y-128160000D02*
X143412500Y-128160000D01*
X144412500Y-128940000D02*
X144412500Y-130050000D01*
X144412500Y-130050000D02*
X143412500Y-130050000D01*
%TO.C,L2*%
X132555000Y-102030000D02*
X134415000Y-102030000D01*
X134415000Y-102970000D01*
X132555000Y-102970000D01*
X132555000Y-102030000D01*
%TO.C,J4*%
X136200000Y-78420000D02*
X139800000Y-78420000D01*
X139800000Y-81580000D01*
X136200000Y-81580000D01*
X136200000Y-78420000D01*
X140800000Y-78420000D02*
X144400000Y-78420000D01*
X144400000Y-81580000D01*
X140800000Y-81580000D01*
X140800000Y-78420000D01*
%TO.C,U1*%
X134700000Y-105000000D02*
X135050000Y-105000000D01*
X134700000Y-110900000D02*
X134700000Y-105000000D01*
X135050000Y-104200000D02*
X135850000Y-104200000D01*
X135050000Y-105000000D02*
X135050000Y-104200000D01*
X135050000Y-110900000D02*
X134700000Y-110900000D01*
X135050000Y-111700000D02*
X135050000Y-110900000D01*
X135850000Y-103850000D02*
X141750000Y-103850000D01*
X135850000Y-104200000D02*
X135850000Y-103850000D01*
X135850000Y-111700000D02*
X135050000Y-111700000D01*
X135850000Y-112050000D02*
X135850000Y-111700000D01*
X141750000Y-103850000D02*
X141750000Y-104200000D01*
X141750000Y-104200000D02*
X142550000Y-104200000D01*
X141750000Y-111700000D02*
X141750000Y-112050000D01*
X141750000Y-112050000D02*
X135850000Y-112050000D01*
X142550000Y-104200000D02*
X142550000Y-105000000D01*
X142550000Y-105000000D02*
X142900000Y-105000000D01*
X142550000Y-110900000D02*
X142550000Y-111700000D01*
X142550000Y-111700000D02*
X141750000Y-111700000D01*
X142900000Y-105000000D02*
X142900000Y-110900000D01*
X142900000Y-110900000D02*
X142550000Y-110900000D01*
%TO.C,U6*%
X137312500Y-121550000D02*
X138312500Y-121550000D01*
X137312500Y-124550000D02*
X137312500Y-121550000D01*
X138312500Y-121350000D02*
X140412500Y-121350000D01*
X138312500Y-121550000D02*
X138312500Y-121350000D01*
X138312500Y-124550000D02*
X137312500Y-124550000D01*
X138312500Y-124750000D02*
X138312500Y-124550000D01*
X140412500Y-121350000D02*
X140412500Y-121550000D01*
X140412500Y-121550000D02*
X141412500Y-121550000D01*
X140412500Y-122660000D02*
X140412500Y-123440000D01*
X140412500Y-123440000D02*
X141412500Y-123440000D01*
X140412500Y-124550000D02*
X140412500Y-124750000D01*
X140412500Y-124750000D02*
X138312500Y-124750000D01*
X141412500Y-121550000D02*
X141412500Y-122660000D01*
X141412500Y-122660000D02*
X140412500Y-122660000D01*
X141412500Y-123440000D02*
X141412500Y-124550000D01*
X141412500Y-124550000D02*
X140412500Y-124550000D01*
%TO.C,U3*%
X140837500Y-118432500D02*
X141187500Y-118432500D01*
X140837500Y-120692500D02*
X140837500Y-118432500D01*
X141187500Y-117812500D02*
X141807500Y-117812500D01*
X141187500Y-118432500D02*
X141187500Y-117812500D01*
X141187500Y-120692500D02*
X140837500Y-120692500D01*
X141187500Y-121312500D02*
X141187500Y-120692500D01*
X141807500Y-117462500D02*
X144067500Y-117462500D01*
X141807500Y-117812500D02*
X141807500Y-117462500D01*
X141807500Y-121312500D02*
X141187500Y-121312500D01*
X141807500Y-121662500D02*
X141807500Y-121312500D01*
X144067500Y-117462500D02*
X144067500Y-117812500D01*
X144067500Y-117812500D02*
X144687500Y-117812500D01*
X144067500Y-121312500D02*
X144067500Y-121662500D01*
X144067500Y-121662500D02*
X141807500Y-121662500D01*
X144687500Y-117812500D02*
X144687500Y-118432500D01*
X144687500Y-118432500D02*
X145037500Y-118432500D01*
X144687500Y-120692500D02*
X144687500Y-121312500D01*
X144687500Y-121312500D02*
X144067500Y-121312500D01*
X145037500Y-118432500D02*
X145037500Y-120692500D01*
X145037500Y-120692500D02*
X144687500Y-120692500D01*
%TO.C,M1*%
X136750000Y-84000000D02*
G75*
G02*
X132250000Y-84000000I-2250000J0D01*
G01*
X132250000Y-84000000D02*
G75*
G02*
X136750000Y-84000000I2250000J0D01*
G01*
%TO.C,C6*%
X134540000Y-90110000D02*
X135460000Y-90110000D01*
X135460000Y-91930000D01*
X134540000Y-91930000D01*
X134540000Y-90110000D01*
%TO.C,R3*%
X143530000Y-115080000D02*
X144470000Y-115080000D01*
X144470000Y-116940000D01*
X143530000Y-116940000D01*
X143530000Y-115080000D01*
%TO.C,C4*%
X135040000Y-87110000D02*
X135960000Y-87110000D01*
X135960000Y-88930000D01*
X135040000Y-88930000D01*
X135040000Y-87110000D01*
%TO.C,C8*%
X132520000Y-140770000D02*
X135480000Y-140770000D01*
X135480000Y-142230000D01*
X132520000Y-142230000D01*
X132520000Y-140770000D01*
%TO.C,R1*%
X141570000Y-124030000D02*
X143430000Y-124030000D01*
X143430000Y-124970000D01*
X141570000Y-124970000D01*
X141570000Y-124030000D01*
%TO.C,U5*%
X134950000Y-127000000D02*
X135950000Y-127000000D01*
X134950000Y-130000000D02*
X134950000Y-127000000D01*
X135950000Y-126800000D02*
X138050000Y-126800000D01*
X135950000Y-127000000D02*
X135950000Y-126800000D01*
X135950000Y-130000000D02*
X134950000Y-130000000D01*
X135950000Y-130200000D02*
X135950000Y-130000000D01*
X138050000Y-126800000D02*
X138050000Y-127000000D01*
X138050000Y-127000000D02*
X139050000Y-127000000D01*
X138050000Y-128110000D02*
X138050000Y-128890000D01*
X138050000Y-128890000D02*
X139050000Y-128890000D01*
X138050000Y-130000000D02*
X138050000Y-130200000D01*
X138050000Y-130200000D02*
X135950000Y-130200000D01*
X139050000Y-127000000D02*
X139050000Y-128110000D01*
X139050000Y-128110000D02*
X138050000Y-128110000D01*
X139050000Y-128890000D02*
X139050000Y-130000000D01*
X139050000Y-130000000D02*
X138050000Y-130000000D01*
%TO.C,J3*%
X134350000Y-114410000D02*
X134350000Y-118310000D01*
X134350000Y-114410000D02*
X137450000Y-114410000D01*
X137450000Y-118310000D02*
X134350000Y-118310000D01*
X137450000Y-118310000D02*
X137450000Y-114410000D01*
%TO.C,C10*%
X133040000Y-88610000D02*
X133960000Y-88610000D01*
X133960000Y-90430000D01*
X133040000Y-90430000D01*
X133040000Y-88610000D01*
%TO.C,J5*%
X132420000Y-73400000D02*
X135580000Y-73400000D01*
X135580000Y-77000000D01*
X132420000Y-77000000D01*
X132420000Y-73400000D01*
X132420000Y-78000000D02*
X135580000Y-78000000D01*
X135580000Y-81600000D01*
X132420000Y-81600000D01*
X132420000Y-78000000D01*
%TO.C,R7*%
X132030000Y-135070000D02*
X132970000Y-135070000D01*
X132970000Y-136930000D01*
X132030000Y-136930000D01*
X132030000Y-135070000D01*
%TO.C,R4*%
X133530000Y-86560000D02*
X134470000Y-86560000D01*
X134470000Y-88420000D01*
X133530000Y-88420000D01*
X133530000Y-86560000D01*
%TO.C,C9*%
X132795000Y-138270000D02*
X135755000Y-138270000D01*
X135755000Y-139730000D01*
X132795000Y-139730000D01*
X132795000Y-138270000D01*
%TO.C,R5*%
X141570000Y-122530000D02*
X143430000Y-122530000D01*
X143430000Y-123470000D01*
X141570000Y-123470000D01*
X141570000Y-122530000D01*
%TO.C,C2*%
X142540000Y-101610000D02*
X143460000Y-101610000D01*
X143460000Y-103430000D01*
X142540000Y-103430000D01*
X142540000Y-101610000D01*
%TO.C,R2*%
X144030000Y-123060000D02*
X144970000Y-123060000D01*
X144970000Y-124920000D01*
X144030000Y-124920000D01*
X144030000Y-123060000D01*
%TO.C,C5*%
X136040000Y-86070000D02*
X136960000Y-86070000D01*
X136960000Y-87890000D01*
X136040000Y-87890000D01*
X136040000Y-86070000D01*
%TO.C,C12*%
X132245000Y-101040000D02*
X134065000Y-101040000D01*
X134065000Y-101960000D01*
X132245000Y-101960000D01*
X132245000Y-101040000D01*
%TO.C,Y1*%
X137250000Y-100850000D02*
X137250000Y-103150000D01*
X137250000Y-100850000D02*
X141250000Y-100850000D01*
X137250000Y-103150000D02*
X141250000Y-103150000D01*
X141250000Y-100850000D02*
X141250000Y-103150000D01*
%TO.C,J8*%
X136125000Y-96700000D02*
X136325000Y-96700000D01*
X136325000Y-100300000D01*
X136125000Y-100300000D01*
X136125000Y-101000000D01*
X132925000Y-101000000D01*
X132925000Y-100300000D01*
X132725000Y-100300000D01*
X132725000Y-99500000D01*
X131975000Y-99500000D01*
X131975000Y-97500000D01*
X132725000Y-97500000D01*
X132725000Y-96700000D01*
X132925000Y-96700000D01*
X132925000Y-96000000D01*
X136125000Y-96000000D01*
X136125000Y-96700000D01*
%TO.C,J7*%
X136600000Y-73920000D02*
X140200000Y-73920000D01*
X140200000Y-77080000D01*
X136600000Y-77080000D01*
X136600000Y-73920000D01*
X141200000Y-73920000D02*
X144800000Y-73920000D01*
X144800000Y-77080000D01*
X141200000Y-77080000D01*
X141200000Y-73920000D01*
%TO.C,U2*%
X138000000Y-114307500D02*
X138350000Y-114307500D01*
X138000000Y-116567500D02*
X138000000Y-114307500D01*
X138350000Y-113687500D02*
X138970000Y-113687500D01*
X138350000Y-114307500D02*
X138350000Y-113687500D01*
X138350000Y-116567500D02*
X138000000Y-116567500D01*
X138350000Y-117187500D02*
X138350000Y-116567500D01*
X138970000Y-113337500D02*
X141230000Y-113337500D01*
X138970000Y-113687500D02*
X138970000Y-113337500D01*
X138970000Y-117187500D02*
X138350000Y-117187500D01*
X138970000Y-117537500D02*
X138970000Y-117187500D01*
X141230000Y-113337500D02*
X141230000Y-113687500D01*
X141230000Y-113687500D02*
X141850000Y-113687500D01*
X141230000Y-117187500D02*
X141230000Y-117537500D01*
X141230000Y-117537500D02*
X138970000Y-117537500D01*
X141850000Y-113687500D02*
X141850000Y-114307500D01*
X141850000Y-114307500D02*
X142200000Y-114307500D01*
X141850000Y-116567500D02*
X141850000Y-117187500D01*
X141850000Y-117187500D02*
X141230000Y-117187500D01*
X142200000Y-114307500D02*
X142200000Y-116567500D01*
X142200000Y-116567500D02*
X141850000Y-116567500D01*
%TO.C,C13*%
X132270000Y-114020000D02*
X133730000Y-114020000D01*
X133730000Y-116980000D01*
X132270000Y-116980000D01*
X132270000Y-114020000D01*
%TO.C,L1*%
X133770000Y-134020000D02*
X135230000Y-134020000D01*
X135230000Y-136980000D01*
X133770000Y-136980000D01*
X133770000Y-134020000D01*
%TO.C,J6*%
X137350000Y-82450000D02*
X145250000Y-82450000D01*
X145250000Y-100550000D01*
X137350000Y-100550000D01*
X137350000Y-82450000D01*
%TO.C,C14*%
X132270000Y-117245000D02*
X133730000Y-117245000D01*
X133730000Y-120205000D01*
X132270000Y-120205000D01*
X132270000Y-117245000D01*
%TO.C,C1*%
X136040000Y-101090000D02*
X136960000Y-101090000D01*
X136960000Y-102910000D01*
X136040000Y-102910000D01*
X136040000Y-101090000D01*
%TO.C,C7*%
X133040000Y-91090000D02*
X133960000Y-91090000D01*
X133960000Y-92910000D01*
X133040000Y-92910000D01*
X133040000Y-91090000D01*
%TO.C,J2*%
X133850000Y-119500000D02*
X133850000Y-124000000D01*
X133850000Y-119500000D02*
X136950000Y-119500000D01*
X136950000Y-124000000D02*
X133850000Y-124000000D01*
X136950000Y-124000000D02*
X136950000Y-119500000D01*
%TO.C,C3*%
X133040000Y-105610000D02*
X133960000Y-105610000D01*
X133960000Y-107430000D01*
X133040000Y-107430000D01*
X133040000Y-105610000D01*
%TO.C,R6*%
X141570000Y-125030000D02*
X143430000Y-125030000D01*
X143430000Y-125970000D01*
X141570000Y-125970000D01*
X141570000Y-125030000D01*
%TD*%
M02*
