M48
; DRILL file KiCad 10.0.5 date 2026-09-07T16:14:23
; FORMAT={-:-/ absolute / metric / decimal}
; #@! TF.CreationDate,2026-09-07T16:14:23-05:00
; #@! TF.GenerationSoftware,Kicad,Pcbnew,10.0.5
; #@! TF.FileFunction,MixedPlating,1,2
FMAT,2
METRIC
; #@! TA.AperFunction,Plated,PTH,ViaDrill
T1C0.300
; #@! TA.AperFunction,Plated,PTH,ComponentDrill
T2C0.600
; #@! TA.AperFunction,Plated,PTH,ComponentDrill
T3C1.150
; #@! TA.AperFunction,NonPlated,NPTH,ComponentDrill
T4C0.650
%
G90
G05
T1
X132.5Y-133.936
X132.903Y-86.403
X133.0Y-82.0
X133.0Y-127.0
X133.0Y-127.0
X133.109Y-88.0
X133.131Y-109.085
X133.454Y-120.707
X133.5Y-121.432
X133.5Y-122.159
X133.501Y-134.5
X133.623Y-113.092
X133.848Y-114.652
X133.902Y-116.139
X133.929Y-111.693
X134.0Y-119.0
X134.0Y-128.5
X134.261Y-110.15
X134.276Y-90.803
X134.429Y-106.04
X134.457Y-107.259
X134.5Y-94.0
X134.504Y-109.352
X134.74Y-118.5
X134.828Y-111.098
X134.896Y-101.615
X135.0Y-133.5
X135.129Y-126.816
X135.319Y-113.776
X135.432Y-102.191
X135.495Y-94.75
X135.5Y-104.5
X135.547Y-111.211
X135.671Y-111.927
X135.885Y-116.6
X135.934Y-95.75
X135.973Y-117.72
X136.186Y-109.278
X136.193Y-89.25
X136.206Y-106.0
X136.407Y-135.612
X136.447Y-130.447
X136.475Y-118.851
X136.51Y-112.448
X136.571Y-110.328
X137.0Y-84.5
X137.0Y-85.5
X137.137Y-128.041
X137.382Y-88.685
X137.401Y-95.25
X137.403Y-126.816
X137.41Y-94.141
X137.416Y-91.75
X137.417Y-93.25
X137.433Y-112.227
X137.5Y-82.0
X137.509Y-119.509
X137.571Y-113.972
X137.641Y-130.641
X137.799Y-117.403
X137.852Y-118.169
X138.102Y-120.304
X138.2Y-103.656
X138.202Y-116.773
X138.5Y-83.0
X138.5Y-83.0
X138.5Y-113.5
X138.598Y-110.401
X138.707Y-126.207
X139.0Y-83.5
X139.0Y-83.5
X139.055Y-112.23
X139.357Y-105.327
X139.47Y-120.184
X139.492Y-103.658
X139.582Y-117.832
X139.589Y-93.75
X139.68Y-125.49
X139.788Y-129.0
X139.99Y-92.358
X140.078Y-118.725
X140.171Y-126.937
X140.235Y-97.469
X140.382Y-90.909
X140.5Y-103.5
X140.5Y-121.0
X140.673Y-112.891
X140.985Y-130.985
X141.0Y-110.561
X141.059Y-135.5
X141.34Y-90.409
X141.342Y-125.0
X141.434Y-102.0
X141.5Y-78.0
X141.5Y-118.26
X141.769Y-117.01
X141.771Y-114.0
X141.772Y-122.106
X142.053Y-130.133
X142.25Y-123.75
X142.383Y-115.217
X142.475Y-101.0
X142.5Y-122.0
X142.965Y-104.988
X143.0Y-112.5
X143.0Y-116.5
X143.089Y-117.286
X143.49Y-111.0
X143.5Y-121.97
X143.75Y-106.25
X144.0Y-89.0
X144.0Y-125.5
X144.0Y-131.0
X144.354Y-121.809
X144.741Y-116.737
X144.8Y-114.379
X144.8Y-122.779
T3
X134.0Y-75.2
X134.0Y-79.8
X138.0Y-80.0
X138.4Y-75.5
X142.6Y-80.0
X143.0Y-75.5
T4
X138.5Y-133.72
X138.5Y-139.5
T2
X137.45Y-132.29G85X138.55Y-132.29
G05
X137.45Y-140.93G85X138.55Y-140.93
G05
X141.78Y-132.29G85X142.58Y-132.29
G05
X141.78Y-140.93G85X142.58Y-140.93
G05
M30
