%TF.GenerationSoftware,KiCad,Pcbnew,10.0.5*%
%TF.CreationDate,2026-09-13T11:56:28-05:00*%
%TF.ProjectId,arc-insight-board,6172632d-696e-4736-9967-68742d626f61,rev?*%
%TF.SameCoordinates,Original*%
%TF.FileFunction,AssemblyDrawing,Top*%
%FSLAX46Y46*%
G04 Gerber Fmt 4.6, Leading zero omitted, Abs format (unit mm)*
G04 Created by KiCad (PCBNEW 10.0.5) date 2026-09-13 11:56:28*
%MOMM*%
%LPD*%
G01*
G04 APERTURE LIST*
%ADD10C,0.040000*%
%ADD11C,0.150000*%
%ADD12C,0.110000*%
%ADD13C,0.120000*%
%ADD14C,0.060000*%
%ADD15C,0.075000*%
%ADD16C,0.090000*%
%ADD17C,0.100000*%
G04 APERTURE END LIST*
D10*
X132859285Y-104089765D02*
X132847381Y-104101670D01*
X132847381Y-104101670D02*
X132811666Y-104113574D01*
X132811666Y-104113574D02*
X132787857Y-104113574D01*
X132787857Y-104113574D02*
X132752143Y-104101670D01*
X132752143Y-104101670D02*
X132728333Y-104077860D01*
X132728333Y-104077860D02*
X132716428Y-104054050D01*
X132716428Y-104054050D02*
X132704524Y-104006431D01*
X132704524Y-104006431D02*
X132704524Y-103970717D01*
X132704524Y-103970717D02*
X132716428Y-103923098D01*
X132716428Y-103923098D02*
X132728333Y-103899289D01*
X132728333Y-103899289D02*
X132752143Y-103875479D01*
X132752143Y-103875479D02*
X132787857Y-103863574D01*
X132787857Y-103863574D02*
X132811666Y-103863574D01*
X132811666Y-103863574D02*
X132847381Y-103875479D01*
X132847381Y-103875479D02*
X132859285Y-103887384D01*
X133097381Y-104113574D02*
X132954524Y-104113574D01*
X133025952Y-104113574D02*
X133025952Y-103863574D01*
X133025952Y-103863574D02*
X133002143Y-103899289D01*
X133002143Y-103899289D02*
X132978333Y-103923098D01*
X132978333Y-103923098D02*
X132954524Y-103935003D01*
X133335476Y-104113574D02*
X133192619Y-104113574D01*
X133264047Y-104113574D02*
X133264047Y-103863574D01*
X133264047Y-103863574D02*
X133240238Y-103899289D01*
X133240238Y-103899289D02*
X133216428Y-103923098D01*
X133216428Y-103923098D02*
X133192619Y-103935003D01*
D11*
X145559819Y-143229048D02*
X146369342Y-143229048D01*
X146369342Y-143229048D02*
X146464580Y-143181429D01*
X146464580Y-143181429D02*
X146512200Y-143133810D01*
X146512200Y-143133810D02*
X146559819Y-143038572D01*
X146559819Y-143038572D02*
X146559819Y-142848096D01*
X146559819Y-142848096D02*
X146512200Y-142752858D01*
X146512200Y-142752858D02*
X146464580Y-142705239D01*
X146464580Y-142705239D02*
X146369342Y-142657620D01*
X146369342Y-142657620D02*
X145559819Y-142657620D01*
X146512200Y-142229048D02*
X146559819Y-142086191D01*
X146559819Y-142086191D02*
X146559819Y-141848096D01*
X146559819Y-141848096D02*
X146512200Y-141752858D01*
X146512200Y-141752858D02*
X146464580Y-141705239D01*
X146464580Y-141705239D02*
X146369342Y-141657620D01*
X146369342Y-141657620D02*
X146274104Y-141657620D01*
X146274104Y-141657620D02*
X146178866Y-141705239D01*
X146178866Y-141705239D02*
X146131247Y-141752858D01*
X146131247Y-141752858D02*
X146083628Y-141848096D01*
X146083628Y-141848096D02*
X146036009Y-142038572D01*
X146036009Y-142038572D02*
X145988390Y-142133810D01*
X145988390Y-142133810D02*
X145940771Y-142181429D01*
X145940771Y-142181429D02*
X145845533Y-142229048D01*
X145845533Y-142229048D02*
X145750295Y-142229048D01*
X145750295Y-142229048D02*
X145655057Y-142181429D01*
X145655057Y-142181429D02*
X145607438Y-142133810D01*
X145607438Y-142133810D02*
X145559819Y-142038572D01*
X145559819Y-142038572D02*
X145559819Y-141800477D01*
X145559819Y-141800477D02*
X145607438Y-141657620D01*
X146036009Y-140895715D02*
X146083628Y-140752858D01*
X146083628Y-140752858D02*
X146131247Y-140705239D01*
X146131247Y-140705239D02*
X146226485Y-140657620D01*
X146226485Y-140657620D02*
X146369342Y-140657620D01*
X146369342Y-140657620D02*
X146464580Y-140705239D01*
X146464580Y-140705239D02*
X146512200Y-140752858D01*
X146512200Y-140752858D02*
X146559819Y-140848096D01*
X146559819Y-140848096D02*
X146559819Y-141229048D01*
X146559819Y-141229048D02*
X145559819Y-141229048D01*
X145559819Y-141229048D02*
X145559819Y-140895715D01*
X145559819Y-140895715D02*
X145607438Y-140800477D01*
X145607438Y-140800477D02*
X145655057Y-140752858D01*
X145655057Y-140752858D02*
X145750295Y-140705239D01*
X145750295Y-140705239D02*
X145845533Y-140705239D01*
X145845533Y-140705239D02*
X145940771Y-140752858D01*
X145940771Y-140752858D02*
X145988390Y-140800477D01*
X145988390Y-140800477D02*
X146036009Y-140895715D01*
X146036009Y-140895715D02*
X146036009Y-141229048D01*
X146655057Y-140467144D02*
X146655057Y-139705239D01*
X146464580Y-138895715D02*
X146512200Y-138943334D01*
X146512200Y-138943334D02*
X146559819Y-139086191D01*
X146559819Y-139086191D02*
X146559819Y-139181429D01*
X146559819Y-139181429D02*
X146512200Y-139324286D01*
X146512200Y-139324286D02*
X146416961Y-139419524D01*
X146416961Y-139419524D02*
X146321723Y-139467143D01*
X146321723Y-139467143D02*
X146131247Y-139514762D01*
X146131247Y-139514762D02*
X145988390Y-139514762D01*
X145988390Y-139514762D02*
X145797914Y-139467143D01*
X145797914Y-139467143D02*
X145702676Y-139419524D01*
X145702676Y-139419524D02*
X145607438Y-139324286D01*
X145607438Y-139324286D02*
X145559819Y-139181429D01*
X145559819Y-139181429D02*
X145559819Y-139086191D01*
X145559819Y-139086191D02*
X145607438Y-138943334D01*
X145607438Y-138943334D02*
X145655057Y-138895715D01*
X146655057Y-138705239D02*
X146655057Y-137943334D01*
X146559819Y-137133810D02*
X146083628Y-137467143D01*
X146559819Y-137705238D02*
X145559819Y-137705238D01*
X145559819Y-137705238D02*
X145559819Y-137324286D01*
X145559819Y-137324286D02*
X145607438Y-137229048D01*
X145607438Y-137229048D02*
X145655057Y-137181429D01*
X145655057Y-137181429D02*
X145750295Y-137133810D01*
X145750295Y-137133810D02*
X145893152Y-137133810D01*
X145893152Y-137133810D02*
X145988390Y-137181429D01*
X145988390Y-137181429D02*
X146036009Y-137229048D01*
X146036009Y-137229048D02*
X146083628Y-137324286D01*
X146083628Y-137324286D02*
X146083628Y-137705238D01*
X146512200Y-136324286D02*
X146559819Y-136419524D01*
X146559819Y-136419524D02*
X146559819Y-136610000D01*
X146559819Y-136610000D02*
X146512200Y-136705238D01*
X146512200Y-136705238D02*
X146416961Y-136752857D01*
X146416961Y-136752857D02*
X146036009Y-136752857D01*
X146036009Y-136752857D02*
X145940771Y-136705238D01*
X145940771Y-136705238D02*
X145893152Y-136610000D01*
X145893152Y-136610000D02*
X145893152Y-136419524D01*
X145893152Y-136419524D02*
X145940771Y-136324286D01*
X145940771Y-136324286D02*
X146036009Y-136276667D01*
X146036009Y-136276667D02*
X146131247Y-136276667D01*
X146131247Y-136276667D02*
X146226485Y-136752857D01*
X146512200Y-135419524D02*
X146559819Y-135514762D01*
X146559819Y-135514762D02*
X146559819Y-135705238D01*
X146559819Y-135705238D02*
X146512200Y-135800476D01*
X146512200Y-135800476D02*
X146464580Y-135848095D01*
X146464580Y-135848095D02*
X146369342Y-135895714D01*
X146369342Y-135895714D02*
X146083628Y-135895714D01*
X146083628Y-135895714D02*
X145988390Y-135848095D01*
X145988390Y-135848095D02*
X145940771Y-135800476D01*
X145940771Y-135800476D02*
X145893152Y-135705238D01*
X145893152Y-135705238D02*
X145893152Y-135514762D01*
X145893152Y-135514762D02*
X145940771Y-135419524D01*
X146512200Y-134610000D02*
X146559819Y-134705238D01*
X146559819Y-134705238D02*
X146559819Y-134895714D01*
X146559819Y-134895714D02*
X146512200Y-134990952D01*
X146512200Y-134990952D02*
X146416961Y-135038571D01*
X146416961Y-135038571D02*
X146036009Y-135038571D01*
X146036009Y-135038571D02*
X145940771Y-134990952D01*
X145940771Y-134990952D02*
X145893152Y-134895714D01*
X145893152Y-134895714D02*
X145893152Y-134705238D01*
X145893152Y-134705238D02*
X145940771Y-134610000D01*
X145940771Y-134610000D02*
X146036009Y-134562381D01*
X146036009Y-134562381D02*
X146131247Y-134562381D01*
X146131247Y-134562381D02*
X146226485Y-135038571D01*
X145893152Y-134133809D02*
X146893152Y-134133809D01*
X145940771Y-134133809D02*
X145893152Y-134038571D01*
X145893152Y-134038571D02*
X145893152Y-133848095D01*
X145893152Y-133848095D02*
X145940771Y-133752857D01*
X145940771Y-133752857D02*
X145988390Y-133705238D01*
X145988390Y-133705238D02*
X146083628Y-133657619D01*
X146083628Y-133657619D02*
X146369342Y-133657619D01*
X146369342Y-133657619D02*
X146464580Y-133705238D01*
X146464580Y-133705238D02*
X146512200Y-133752857D01*
X146512200Y-133752857D02*
X146559819Y-133848095D01*
X146559819Y-133848095D02*
X146559819Y-134038571D01*
X146559819Y-134038571D02*
X146512200Y-134133809D01*
X145893152Y-133371904D02*
X145893152Y-132990952D01*
X145559819Y-133229047D02*
X146416961Y-133229047D01*
X146416961Y-133229047D02*
X146512200Y-133181428D01*
X146512200Y-133181428D02*
X146559819Y-133086190D01*
X146559819Y-133086190D02*
X146559819Y-132990952D01*
X146559819Y-132229047D02*
X146036009Y-132229047D01*
X146036009Y-132229047D02*
X145940771Y-132276666D01*
X145940771Y-132276666D02*
X145893152Y-132371904D01*
X145893152Y-132371904D02*
X145893152Y-132562380D01*
X145893152Y-132562380D02*
X145940771Y-132657618D01*
X146512200Y-132229047D02*
X146559819Y-132324285D01*
X146559819Y-132324285D02*
X146559819Y-132562380D01*
X146559819Y-132562380D02*
X146512200Y-132657618D01*
X146512200Y-132657618D02*
X146416961Y-132705237D01*
X146416961Y-132705237D02*
X146321723Y-132705237D01*
X146321723Y-132705237D02*
X146226485Y-132657618D01*
X146226485Y-132657618D02*
X146178866Y-132562380D01*
X146178866Y-132562380D02*
X146178866Y-132324285D01*
X146178866Y-132324285D02*
X146131247Y-132229047D01*
X146512200Y-131324285D02*
X146559819Y-131419523D01*
X146559819Y-131419523D02*
X146559819Y-131609999D01*
X146559819Y-131609999D02*
X146512200Y-131705237D01*
X146512200Y-131705237D02*
X146464580Y-131752856D01*
X146464580Y-131752856D02*
X146369342Y-131800475D01*
X146369342Y-131800475D02*
X146083628Y-131800475D01*
X146083628Y-131800475D02*
X145988390Y-131752856D01*
X145988390Y-131752856D02*
X145940771Y-131705237D01*
X145940771Y-131705237D02*
X145893152Y-131609999D01*
X145893152Y-131609999D02*
X145893152Y-131419523D01*
X145893152Y-131419523D02*
X145940771Y-131324285D01*
X146559819Y-130752856D02*
X146512200Y-130848094D01*
X146512200Y-130848094D02*
X146416961Y-130895713D01*
X146416961Y-130895713D02*
X145559819Y-130895713D01*
X146512200Y-129990951D02*
X146559819Y-130086189D01*
X146559819Y-130086189D02*
X146559819Y-130276665D01*
X146559819Y-130276665D02*
X146512200Y-130371903D01*
X146512200Y-130371903D02*
X146416961Y-130419522D01*
X146416961Y-130419522D02*
X146036009Y-130419522D01*
X146036009Y-130419522D02*
X145940771Y-130371903D01*
X145940771Y-130371903D02*
X145893152Y-130276665D01*
X145893152Y-130276665D02*
X145893152Y-130086189D01*
X145893152Y-130086189D02*
X145940771Y-129990951D01*
X145940771Y-129990951D02*
X146036009Y-129943332D01*
X146036009Y-129943332D02*
X146131247Y-129943332D01*
X146131247Y-129943332D02*
X146226485Y-130419522D01*
X140559819Y-136943333D02*
X141274104Y-136943333D01*
X141274104Y-136943333D02*
X141416961Y-136990952D01*
X141416961Y-136990952D02*
X141512200Y-137086190D01*
X141512200Y-137086190D02*
X141559819Y-137229047D01*
X141559819Y-137229047D02*
X141559819Y-137324285D01*
X141559819Y-135943333D02*
X141559819Y-136514761D01*
X141559819Y-136229047D02*
X140559819Y-136229047D01*
X140559819Y-136229047D02*
X140702676Y-136324285D01*
X140702676Y-136324285D02*
X140797914Y-136419523D01*
X140797914Y-136419523D02*
X140845533Y-136514761D01*
X139672024Y-130404819D02*
X140243452Y-130404819D01*
X139957738Y-131404819D02*
X139957738Y-130404819D01*
X140576786Y-131404819D02*
X140576786Y-130404819D01*
X140576786Y-130404819D02*
X140957738Y-130404819D01*
X140957738Y-130404819D02*
X141052976Y-130452438D01*
X141052976Y-130452438D02*
X141100595Y-130500057D01*
X141100595Y-130500057D02*
X141148214Y-130595295D01*
X141148214Y-130595295D02*
X141148214Y-130738152D01*
X141148214Y-130738152D02*
X141100595Y-130833390D01*
X141100595Y-130833390D02*
X141052976Y-130881009D01*
X141052976Y-130881009D02*
X140957738Y-130928628D01*
X140957738Y-130928628D02*
X140576786Y-130928628D01*
X142005357Y-130738152D02*
X142005357Y-131404819D01*
X141767262Y-130357200D02*
X141529167Y-131071485D01*
X141529167Y-131071485D02*
X142148214Y-131071485D01*
X142719643Y-130404819D02*
X142814881Y-130404819D01*
X142814881Y-130404819D02*
X142910119Y-130452438D01*
X142910119Y-130452438D02*
X142957738Y-130500057D01*
X142957738Y-130500057D02*
X143005357Y-130595295D01*
X143005357Y-130595295D02*
X143052976Y-130785771D01*
X143052976Y-130785771D02*
X143052976Y-131023866D01*
X143052976Y-131023866D02*
X143005357Y-131214342D01*
X143005357Y-131214342D02*
X142957738Y-131309580D01*
X142957738Y-131309580D02*
X142910119Y-131357200D01*
X142910119Y-131357200D02*
X142814881Y-131404819D01*
X142814881Y-131404819D02*
X142719643Y-131404819D01*
X142719643Y-131404819D02*
X142624405Y-131357200D01*
X142624405Y-131357200D02*
X142576786Y-131309580D01*
X142576786Y-131309580D02*
X142529167Y-131214342D01*
X142529167Y-131214342D02*
X142481548Y-131023866D01*
X142481548Y-131023866D02*
X142481548Y-130785771D01*
X142481548Y-130785771D02*
X142529167Y-130595295D01*
X142529167Y-130595295D02*
X142576786Y-130500057D01*
X142576786Y-130500057D02*
X142624405Y-130452438D01*
X142624405Y-130452438D02*
X142719643Y-130404819D01*
X143957738Y-130404819D02*
X143481548Y-130404819D01*
X143481548Y-130404819D02*
X143433929Y-130881009D01*
X143433929Y-130881009D02*
X143481548Y-130833390D01*
X143481548Y-130833390D02*
X143576786Y-130785771D01*
X143576786Y-130785771D02*
X143814881Y-130785771D01*
X143814881Y-130785771D02*
X143910119Y-130833390D01*
X143910119Y-130833390D02*
X143957738Y-130881009D01*
X143957738Y-130881009D02*
X144005357Y-130976247D01*
X144005357Y-130976247D02*
X144005357Y-131214342D01*
X144005357Y-131214342D02*
X143957738Y-131309580D01*
X143957738Y-131309580D02*
X143910119Y-131357200D01*
X143910119Y-131357200D02*
X143814881Y-131404819D01*
X143814881Y-131404819D02*
X143576786Y-131404819D01*
X143576786Y-131404819D02*
X143481548Y-131357200D01*
X143481548Y-131357200D02*
X143433929Y-131309580D01*
X144862500Y-130738152D02*
X144862500Y-131404819D01*
X144624405Y-130357200D02*
X144386310Y-131071485D01*
X144386310Y-131071485D02*
X145005357Y-131071485D01*
D12*
X141969865Y-129098571D02*
X142552722Y-129098571D01*
X142552722Y-129098571D02*
X142621294Y-129064285D01*
X142621294Y-129064285D02*
X142655580Y-129030000D01*
X142655580Y-129030000D02*
X142689865Y-128961428D01*
X142689865Y-128961428D02*
X142689865Y-128824285D01*
X142689865Y-128824285D02*
X142655580Y-128755714D01*
X142655580Y-128755714D02*
X142621294Y-128721428D01*
X142621294Y-128721428D02*
X142552722Y-128687142D01*
X142552722Y-128687142D02*
X141969865Y-128687142D01*
X142209865Y-128035714D02*
X142689865Y-128035714D01*
X141935580Y-128207142D02*
X142449865Y-128378571D01*
X142449865Y-128378571D02*
X142449865Y-127932856D01*
D10*
X133443333Y-102613574D02*
X133324285Y-102613574D01*
X133324285Y-102613574D02*
X133324285Y-102363574D01*
X133514762Y-102387384D02*
X133526666Y-102375479D01*
X133526666Y-102375479D02*
X133550476Y-102363574D01*
X133550476Y-102363574D02*
X133610000Y-102363574D01*
X133610000Y-102363574D02*
X133633809Y-102375479D01*
X133633809Y-102375479D02*
X133645714Y-102387384D01*
X133645714Y-102387384D02*
X133657619Y-102411193D01*
X133657619Y-102411193D02*
X133657619Y-102435003D01*
X133657619Y-102435003D02*
X133645714Y-102470717D01*
X133645714Y-102470717D02*
X133502857Y-102613574D01*
X133502857Y-102613574D02*
X133657619Y-102613574D01*
D13*
X139869229Y-80263333D02*
X140433514Y-80263333D01*
X140433514Y-80263333D02*
X140546371Y-80300952D01*
X140546371Y-80300952D02*
X140621610Y-80376190D01*
X140621610Y-80376190D02*
X140659229Y-80489047D01*
X140659229Y-80489047D02*
X140659229Y-80564285D01*
X140132562Y-79548571D02*
X140659229Y-79548571D01*
X139831610Y-79736666D02*
X140395895Y-79924761D01*
X140395895Y-79924761D02*
X140395895Y-79435714D01*
D11*
X138038095Y-107404819D02*
X138038095Y-108214342D01*
X138038095Y-108214342D02*
X138085714Y-108309580D01*
X138085714Y-108309580D02*
X138133333Y-108357200D01*
X138133333Y-108357200D02*
X138228571Y-108404819D01*
X138228571Y-108404819D02*
X138419047Y-108404819D01*
X138419047Y-108404819D02*
X138514285Y-108357200D01*
X138514285Y-108357200D02*
X138561904Y-108309580D01*
X138561904Y-108309580D02*
X138609523Y-108214342D01*
X138609523Y-108214342D02*
X138609523Y-107404819D01*
X139609523Y-108404819D02*
X139038095Y-108404819D01*
X139323809Y-108404819D02*
X139323809Y-107404819D01*
X139323809Y-107404819D02*
X139228571Y-107547676D01*
X139228571Y-107547676D02*
X139133333Y-107642914D01*
X139133333Y-107642914D02*
X139038095Y-107690533D01*
D12*
X138969865Y-123598571D02*
X139552722Y-123598571D01*
X139552722Y-123598571D02*
X139621294Y-123564285D01*
X139621294Y-123564285D02*
X139655580Y-123530000D01*
X139655580Y-123530000D02*
X139689865Y-123461428D01*
X139689865Y-123461428D02*
X139689865Y-123324285D01*
X139689865Y-123324285D02*
X139655580Y-123255714D01*
X139655580Y-123255714D02*
X139621294Y-123221428D01*
X139621294Y-123221428D02*
X139552722Y-123187142D01*
X139552722Y-123187142D02*
X138969865Y-123187142D01*
X138969865Y-122535714D02*
X138969865Y-122672856D01*
X138969865Y-122672856D02*
X139004151Y-122741428D01*
X139004151Y-122741428D02*
X139038437Y-122775714D01*
X139038437Y-122775714D02*
X139141294Y-122844285D01*
X139141294Y-122844285D02*
X139278437Y-122878571D01*
X139278437Y-122878571D02*
X139552722Y-122878571D01*
X139552722Y-122878571D02*
X139621294Y-122844285D01*
X139621294Y-122844285D02*
X139655580Y-122809999D01*
X139655580Y-122809999D02*
X139689865Y-122741428D01*
X139689865Y-122741428D02*
X139689865Y-122604285D01*
X139689865Y-122604285D02*
X139655580Y-122535714D01*
X139655580Y-122535714D02*
X139621294Y-122501428D01*
X139621294Y-122501428D02*
X139552722Y-122467142D01*
X139552722Y-122467142D02*
X139381294Y-122467142D01*
X139381294Y-122467142D02*
X139312722Y-122501428D01*
X139312722Y-122501428D02*
X139278437Y-122535714D01*
X139278437Y-122535714D02*
X139244151Y-122604285D01*
X139244151Y-122604285D02*
X139244151Y-122741428D01*
X139244151Y-122741428D02*
X139278437Y-122809999D01*
X139278437Y-122809999D02*
X139312722Y-122844285D01*
X139312722Y-122844285D02*
X139381294Y-122878571D01*
X142366071Y-119153744D02*
X142366071Y-119760887D01*
X142366071Y-119760887D02*
X142401785Y-119832315D01*
X142401785Y-119832315D02*
X142437500Y-119868030D01*
X142437500Y-119868030D02*
X142508928Y-119903744D01*
X142508928Y-119903744D02*
X142651785Y-119903744D01*
X142651785Y-119903744D02*
X142723214Y-119868030D01*
X142723214Y-119868030D02*
X142758928Y-119832315D01*
X142758928Y-119832315D02*
X142794642Y-119760887D01*
X142794642Y-119760887D02*
X142794642Y-119153744D01*
X143080356Y-119153744D02*
X143544642Y-119153744D01*
X143544642Y-119153744D02*
X143294642Y-119439458D01*
X143294642Y-119439458D02*
X143401785Y-119439458D01*
X143401785Y-119439458D02*
X143473214Y-119475172D01*
X143473214Y-119475172D02*
X143508928Y-119510887D01*
X143508928Y-119510887D02*
X143544642Y-119582315D01*
X143544642Y-119582315D02*
X143544642Y-119760887D01*
X143544642Y-119760887D02*
X143508928Y-119832315D01*
X143508928Y-119832315D02*
X143473214Y-119868030D01*
X143473214Y-119868030D02*
X143401785Y-119903744D01*
X143401785Y-119903744D02*
X143187499Y-119903744D01*
X143187499Y-119903744D02*
X143116071Y-119868030D01*
X143116071Y-119868030D02*
X143080356Y-119832315D01*
D13*
X133852381Y-84363855D02*
X133852381Y-83563855D01*
X133852381Y-83563855D02*
X134119047Y-84135283D01*
X134119047Y-84135283D02*
X134385714Y-83563855D01*
X134385714Y-83563855D02*
X134385714Y-84363855D01*
X135185714Y-84363855D02*
X134728571Y-84363855D01*
X134957143Y-84363855D02*
X134957143Y-83563855D01*
X134957143Y-83563855D02*
X134880952Y-83678140D01*
X134880952Y-83678140D02*
X134804762Y-83754331D01*
X134804762Y-83754331D02*
X134728571Y-83792426D01*
D10*
X135089765Y-91061666D02*
X135101670Y-91073570D01*
X135101670Y-91073570D02*
X135113574Y-91109285D01*
X135113574Y-91109285D02*
X135113574Y-91133094D01*
X135113574Y-91133094D02*
X135101670Y-91168808D01*
X135101670Y-91168808D02*
X135077860Y-91192618D01*
X135077860Y-91192618D02*
X135054050Y-91204523D01*
X135054050Y-91204523D02*
X135006431Y-91216427D01*
X135006431Y-91216427D02*
X134970717Y-91216427D01*
X134970717Y-91216427D02*
X134923098Y-91204523D01*
X134923098Y-91204523D02*
X134899289Y-91192618D01*
X134899289Y-91192618D02*
X134875479Y-91168808D01*
X134875479Y-91168808D02*
X134863574Y-91133094D01*
X134863574Y-91133094D02*
X134863574Y-91109285D01*
X134863574Y-91109285D02*
X134875479Y-91073570D01*
X134875479Y-91073570D02*
X134887384Y-91061666D01*
X134863574Y-90847380D02*
X134863574Y-90894999D01*
X134863574Y-90894999D02*
X134875479Y-90918808D01*
X134875479Y-90918808D02*
X134887384Y-90930713D01*
X134887384Y-90930713D02*
X134923098Y-90954523D01*
X134923098Y-90954523D02*
X134970717Y-90966427D01*
X134970717Y-90966427D02*
X135065955Y-90966427D01*
X135065955Y-90966427D02*
X135089765Y-90954523D01*
X135089765Y-90954523D02*
X135101670Y-90942618D01*
X135101670Y-90942618D02*
X135113574Y-90918808D01*
X135113574Y-90918808D02*
X135113574Y-90871189D01*
X135113574Y-90871189D02*
X135101670Y-90847380D01*
X135101670Y-90847380D02*
X135089765Y-90835475D01*
X135089765Y-90835475D02*
X135065955Y-90823570D01*
X135065955Y-90823570D02*
X135006431Y-90823570D01*
X135006431Y-90823570D02*
X134982622Y-90835475D01*
X134982622Y-90835475D02*
X134970717Y-90847380D01*
X134970717Y-90847380D02*
X134958812Y-90871189D01*
X134958812Y-90871189D02*
X134958812Y-90918808D01*
X134958812Y-90918808D02*
X134970717Y-90942618D01*
X134970717Y-90942618D02*
X134982622Y-90954523D01*
X134982622Y-90954523D02*
X135006431Y-90966427D01*
X144118200Y-116053332D02*
X143994391Y-116139999D01*
X144118200Y-116201904D02*
X143858200Y-116201904D01*
X143858200Y-116201904D02*
X143858200Y-116102856D01*
X143858200Y-116102856D02*
X143870581Y-116078094D01*
X143870581Y-116078094D02*
X143882962Y-116065713D01*
X143882962Y-116065713D02*
X143907724Y-116053332D01*
X143907724Y-116053332D02*
X143944867Y-116053332D01*
X143944867Y-116053332D02*
X143969629Y-116065713D01*
X143969629Y-116065713D02*
X143982010Y-116078094D01*
X143982010Y-116078094D02*
X143994391Y-116102856D01*
X143994391Y-116102856D02*
X143994391Y-116201904D01*
X143858200Y-115966666D02*
X143858200Y-115805713D01*
X143858200Y-115805713D02*
X143957248Y-115892380D01*
X143957248Y-115892380D02*
X143957248Y-115855237D01*
X143957248Y-115855237D02*
X143969629Y-115830475D01*
X143969629Y-115830475D02*
X143982010Y-115818094D01*
X143982010Y-115818094D02*
X144006772Y-115805713D01*
X144006772Y-115805713D02*
X144068677Y-115805713D01*
X144068677Y-115805713D02*
X144093439Y-115818094D01*
X144093439Y-115818094D02*
X144105820Y-115830475D01*
X144105820Y-115830475D02*
X144118200Y-115855237D01*
X144118200Y-115855237D02*
X144118200Y-115929523D01*
X144118200Y-115929523D02*
X144105820Y-115954285D01*
X144105820Y-115954285D02*
X144093439Y-115966666D01*
X135589765Y-88061666D02*
X135601670Y-88073570D01*
X135601670Y-88073570D02*
X135613574Y-88109285D01*
X135613574Y-88109285D02*
X135613574Y-88133094D01*
X135613574Y-88133094D02*
X135601670Y-88168808D01*
X135601670Y-88168808D02*
X135577860Y-88192618D01*
X135577860Y-88192618D02*
X135554050Y-88204523D01*
X135554050Y-88204523D02*
X135506431Y-88216427D01*
X135506431Y-88216427D02*
X135470717Y-88216427D01*
X135470717Y-88216427D02*
X135423098Y-88204523D01*
X135423098Y-88204523D02*
X135399289Y-88192618D01*
X135399289Y-88192618D02*
X135375479Y-88168808D01*
X135375479Y-88168808D02*
X135363574Y-88133094D01*
X135363574Y-88133094D02*
X135363574Y-88109285D01*
X135363574Y-88109285D02*
X135375479Y-88073570D01*
X135375479Y-88073570D02*
X135387384Y-88061666D01*
X135446908Y-87847380D02*
X135613574Y-87847380D01*
X135351670Y-87906904D02*
X135530241Y-87966427D01*
X135530241Y-87966427D02*
X135530241Y-87811666D01*
D11*
X132857142Y-143384819D02*
X132285714Y-143384819D01*
X132571428Y-143384819D02*
X132571428Y-142384819D01*
X132571428Y-142384819D02*
X132476190Y-142527676D01*
X132476190Y-142527676D02*
X132380952Y-142622914D01*
X132380952Y-142622914D02*
X132285714Y-142670533D01*
X133476190Y-142384819D02*
X133571428Y-142384819D01*
X133571428Y-142384819D02*
X133666666Y-142432438D01*
X133666666Y-142432438D02*
X133714285Y-142480057D01*
X133714285Y-142480057D02*
X133761904Y-142575295D01*
X133761904Y-142575295D02*
X133809523Y-142765771D01*
X133809523Y-142765771D02*
X133809523Y-143003866D01*
X133809523Y-143003866D02*
X133761904Y-143194342D01*
X133761904Y-143194342D02*
X133714285Y-143289580D01*
X133714285Y-143289580D02*
X133666666Y-143337200D01*
X133666666Y-143337200D02*
X133571428Y-143384819D01*
X133571428Y-143384819D02*
X133476190Y-143384819D01*
X133476190Y-143384819D02*
X133380952Y-143337200D01*
X133380952Y-143337200D02*
X133333333Y-143289580D01*
X133333333Y-143289580D02*
X133285714Y-143194342D01*
X133285714Y-143194342D02*
X133238095Y-143003866D01*
X133238095Y-143003866D02*
X133238095Y-142765771D01*
X133238095Y-142765771D02*
X133285714Y-142575295D01*
X133285714Y-142575295D02*
X133333333Y-142480057D01*
X133333333Y-142480057D02*
X133380952Y-142432438D01*
X133380952Y-142432438D02*
X133476190Y-142384819D01*
X134238095Y-142718152D02*
X134238095Y-143718152D01*
X134714285Y-143241961D02*
X134761904Y-143337200D01*
X134761904Y-143337200D02*
X134857142Y-143384819D01*
X134238095Y-143241961D02*
X134285714Y-143337200D01*
X134285714Y-143337200D02*
X134380952Y-143384819D01*
X134380952Y-143384819D02*
X134571428Y-143384819D01*
X134571428Y-143384819D02*
X134666666Y-143337200D01*
X134666666Y-143337200D02*
X134714285Y-143241961D01*
X134714285Y-143241961D02*
X134714285Y-142718152D01*
X135619047Y-142861009D02*
X135285714Y-142861009D01*
X135285714Y-143384819D02*
X135285714Y-142384819D01*
X135285714Y-142384819D02*
X135761904Y-142384819D01*
D14*
X133933333Y-141643832D02*
X133914285Y-141662880D01*
X133914285Y-141662880D02*
X133857143Y-141681927D01*
X133857143Y-141681927D02*
X133819047Y-141681927D01*
X133819047Y-141681927D02*
X133761904Y-141662880D01*
X133761904Y-141662880D02*
X133723809Y-141624784D01*
X133723809Y-141624784D02*
X133704762Y-141586689D01*
X133704762Y-141586689D02*
X133685714Y-141510499D01*
X133685714Y-141510499D02*
X133685714Y-141453356D01*
X133685714Y-141453356D02*
X133704762Y-141377165D01*
X133704762Y-141377165D02*
X133723809Y-141339070D01*
X133723809Y-141339070D02*
X133761904Y-141300975D01*
X133761904Y-141300975D02*
X133819047Y-141281927D01*
X133819047Y-141281927D02*
X133857143Y-141281927D01*
X133857143Y-141281927D02*
X133914285Y-141300975D01*
X133914285Y-141300975D02*
X133933333Y-141320022D01*
X134161904Y-141453356D02*
X134123809Y-141434308D01*
X134123809Y-141434308D02*
X134104762Y-141415260D01*
X134104762Y-141415260D02*
X134085714Y-141377165D01*
X134085714Y-141377165D02*
X134085714Y-141358118D01*
X134085714Y-141358118D02*
X134104762Y-141320022D01*
X134104762Y-141320022D02*
X134123809Y-141300975D01*
X134123809Y-141300975D02*
X134161904Y-141281927D01*
X134161904Y-141281927D02*
X134238095Y-141281927D01*
X134238095Y-141281927D02*
X134276190Y-141300975D01*
X134276190Y-141300975D02*
X134295238Y-141320022D01*
X134295238Y-141320022D02*
X134314285Y-141358118D01*
X134314285Y-141358118D02*
X134314285Y-141377165D01*
X134314285Y-141377165D02*
X134295238Y-141415260D01*
X134295238Y-141415260D02*
X134276190Y-141434308D01*
X134276190Y-141434308D02*
X134238095Y-141453356D01*
X134238095Y-141453356D02*
X134161904Y-141453356D01*
X134161904Y-141453356D02*
X134123809Y-141472403D01*
X134123809Y-141472403D02*
X134104762Y-141491451D01*
X134104762Y-141491451D02*
X134085714Y-141529546D01*
X134085714Y-141529546D02*
X134085714Y-141605737D01*
X134085714Y-141605737D02*
X134104762Y-141643832D01*
X134104762Y-141643832D02*
X134123809Y-141662880D01*
X134123809Y-141662880D02*
X134161904Y-141681927D01*
X134161904Y-141681927D02*
X134238095Y-141681927D01*
X134238095Y-141681927D02*
X134276190Y-141662880D01*
X134276190Y-141662880D02*
X134295238Y-141643832D01*
X134295238Y-141643832D02*
X134314285Y-141605737D01*
X134314285Y-141605737D02*
X134314285Y-141529546D01*
X134314285Y-141529546D02*
X134295238Y-141491451D01*
X134295238Y-141491451D02*
X134276190Y-141472403D01*
X134276190Y-141472403D02*
X134238095Y-141453356D01*
D10*
X142456667Y-124618200D02*
X142370000Y-124494391D01*
X142308095Y-124618200D02*
X142308095Y-124358200D01*
X142308095Y-124358200D02*
X142407143Y-124358200D01*
X142407143Y-124358200D02*
X142431905Y-124370581D01*
X142431905Y-124370581D02*
X142444286Y-124382962D01*
X142444286Y-124382962D02*
X142456667Y-124407724D01*
X142456667Y-124407724D02*
X142456667Y-124444867D01*
X142456667Y-124444867D02*
X142444286Y-124469629D01*
X142444286Y-124469629D02*
X142431905Y-124482010D01*
X142431905Y-124482010D02*
X142407143Y-124494391D01*
X142407143Y-124494391D02*
X142308095Y-124494391D01*
X142704286Y-124618200D02*
X142555714Y-124618200D01*
X142630000Y-124618200D02*
X142630000Y-124358200D01*
X142630000Y-124358200D02*
X142605238Y-124395343D01*
X142605238Y-124395343D02*
X142580476Y-124420105D01*
X142580476Y-124420105D02*
X142555714Y-124432486D01*
D11*
X133476189Y-131259580D02*
X133428570Y-131307200D01*
X133428570Y-131307200D02*
X133285713Y-131354819D01*
X133285713Y-131354819D02*
X133190475Y-131354819D01*
X133190475Y-131354819D02*
X133047618Y-131307200D01*
X133047618Y-131307200D02*
X132952380Y-131211961D01*
X132952380Y-131211961D02*
X132904761Y-131116723D01*
X132904761Y-131116723D02*
X132857142Y-130926247D01*
X132857142Y-130926247D02*
X132857142Y-130783390D01*
X132857142Y-130783390D02*
X132904761Y-130592914D01*
X132904761Y-130592914D02*
X132952380Y-130497676D01*
X132952380Y-130497676D02*
X133047618Y-130402438D01*
X133047618Y-130402438D02*
X133190475Y-130354819D01*
X133190475Y-130354819D02*
X133285713Y-130354819D01*
X133285713Y-130354819D02*
X133428570Y-130402438D01*
X133428570Y-130402438D02*
X133476189Y-130450057D01*
X134047618Y-131354819D02*
X133952380Y-131307200D01*
X133952380Y-131307200D02*
X133904761Y-131259580D01*
X133904761Y-131259580D02*
X133857142Y-131164342D01*
X133857142Y-131164342D02*
X133857142Y-130878628D01*
X133857142Y-130878628D02*
X133904761Y-130783390D01*
X133904761Y-130783390D02*
X133952380Y-130735771D01*
X133952380Y-130735771D02*
X134047618Y-130688152D01*
X134047618Y-130688152D02*
X134190475Y-130688152D01*
X134190475Y-130688152D02*
X134285713Y-130735771D01*
X134285713Y-130735771D02*
X134333332Y-130783390D01*
X134333332Y-130783390D02*
X134380951Y-130878628D01*
X134380951Y-130878628D02*
X134380951Y-131164342D01*
X134380951Y-131164342D02*
X134333332Y-131259580D01*
X134333332Y-131259580D02*
X134285713Y-131307200D01*
X134285713Y-131307200D02*
X134190475Y-131354819D01*
X134190475Y-131354819D02*
X134047618Y-131354819D01*
X134809523Y-131354819D02*
X134809523Y-130688152D01*
X134809523Y-130783390D02*
X134857142Y-130735771D01*
X134857142Y-130735771D02*
X134952380Y-130688152D01*
X134952380Y-130688152D02*
X135095237Y-130688152D01*
X135095237Y-130688152D02*
X135190475Y-130735771D01*
X135190475Y-130735771D02*
X135238094Y-130831009D01*
X135238094Y-130831009D02*
X135238094Y-131354819D01*
X135238094Y-130831009D02*
X135285713Y-130735771D01*
X135285713Y-130735771D02*
X135380951Y-130688152D01*
X135380951Y-130688152D02*
X135523808Y-130688152D01*
X135523808Y-130688152D02*
X135619047Y-130735771D01*
X135619047Y-130735771D02*
X135666666Y-130831009D01*
X135666666Y-130831009D02*
X135666666Y-131354819D01*
X136142856Y-130688152D02*
X136142856Y-131688152D01*
X136142856Y-130735771D02*
X136238094Y-130688152D01*
X136238094Y-130688152D02*
X136428570Y-130688152D01*
X136428570Y-130688152D02*
X136523808Y-130735771D01*
X136523808Y-130735771D02*
X136571427Y-130783390D01*
X136571427Y-130783390D02*
X136619046Y-130878628D01*
X136619046Y-130878628D02*
X136619046Y-131164342D01*
X136619046Y-131164342D02*
X136571427Y-131259580D01*
X136571427Y-131259580D02*
X136523808Y-131307200D01*
X136523808Y-131307200D02*
X136428570Y-131354819D01*
X136428570Y-131354819D02*
X136238094Y-131354819D01*
X136238094Y-131354819D02*
X136142856Y-131307200D01*
X137476189Y-131354819D02*
X137476189Y-130831009D01*
X137476189Y-130831009D02*
X137428570Y-130735771D01*
X137428570Y-130735771D02*
X137333332Y-130688152D01*
X137333332Y-130688152D02*
X137142856Y-130688152D01*
X137142856Y-130688152D02*
X137047618Y-130735771D01*
X137476189Y-131307200D02*
X137380951Y-131354819D01*
X137380951Y-131354819D02*
X137142856Y-131354819D01*
X137142856Y-131354819D02*
X137047618Y-131307200D01*
X137047618Y-131307200D02*
X136999999Y-131211961D01*
X136999999Y-131211961D02*
X136999999Y-131116723D01*
X136999999Y-131116723D02*
X137047618Y-131021485D01*
X137047618Y-131021485D02*
X137142856Y-130973866D01*
X137142856Y-130973866D02*
X137380951Y-130973866D01*
X137380951Y-130973866D02*
X137476189Y-130926247D01*
X137952380Y-131354819D02*
X137952380Y-130688152D01*
X137952380Y-130878628D02*
X137999999Y-130783390D01*
X137999999Y-130783390D02*
X138047618Y-130735771D01*
X138047618Y-130735771D02*
X138142856Y-130688152D01*
X138142856Y-130688152D02*
X138238094Y-130688152D01*
X138999999Y-131354819D02*
X138999999Y-130831009D01*
X138999999Y-130831009D02*
X138952380Y-130735771D01*
X138952380Y-130735771D02*
X138857142Y-130688152D01*
X138857142Y-130688152D02*
X138666666Y-130688152D01*
X138666666Y-130688152D02*
X138571428Y-130735771D01*
X138999999Y-131307200D02*
X138904761Y-131354819D01*
X138904761Y-131354819D02*
X138666666Y-131354819D01*
X138666666Y-131354819D02*
X138571428Y-131307200D01*
X138571428Y-131307200D02*
X138523809Y-131211961D01*
X138523809Y-131211961D02*
X138523809Y-131116723D01*
X138523809Y-131116723D02*
X138571428Y-131021485D01*
X138571428Y-131021485D02*
X138666666Y-130973866D01*
X138666666Y-130973866D02*
X138904761Y-130973866D01*
X138904761Y-130973866D02*
X138999999Y-130926247D01*
X139333333Y-130688152D02*
X139714285Y-130688152D01*
X139476190Y-130354819D02*
X139476190Y-131211961D01*
X139476190Y-131211961D02*
X139523809Y-131307200D01*
X139523809Y-131307200D02*
X139619047Y-131354819D01*
X139619047Y-131354819D02*
X139714285Y-131354819D01*
X140190476Y-131354819D02*
X140095238Y-131307200D01*
X140095238Y-131307200D02*
X140047619Y-131259580D01*
X140047619Y-131259580D02*
X140000000Y-131164342D01*
X140000000Y-131164342D02*
X140000000Y-130878628D01*
X140000000Y-130878628D02*
X140047619Y-130783390D01*
X140047619Y-130783390D02*
X140095238Y-130735771D01*
X140095238Y-130735771D02*
X140190476Y-130688152D01*
X140190476Y-130688152D02*
X140333333Y-130688152D01*
X140333333Y-130688152D02*
X140428571Y-130735771D01*
X140428571Y-130735771D02*
X140476190Y-130783390D01*
X140476190Y-130783390D02*
X140523809Y-130878628D01*
X140523809Y-130878628D02*
X140523809Y-131164342D01*
X140523809Y-131164342D02*
X140476190Y-131259580D01*
X140476190Y-131259580D02*
X140428571Y-131307200D01*
X140428571Y-131307200D02*
X140333333Y-131354819D01*
X140333333Y-131354819D02*
X140190476Y-131354819D01*
X140952381Y-131354819D02*
X140952381Y-130688152D01*
X140952381Y-130878628D02*
X141000000Y-130783390D01*
X141000000Y-130783390D02*
X141047619Y-130735771D01*
X141047619Y-130735771D02*
X141142857Y-130688152D01*
X141142857Y-130688152D02*
X141238095Y-130688152D01*
D12*
X136607365Y-129048571D02*
X137190222Y-129048571D01*
X137190222Y-129048571D02*
X137258794Y-129014285D01*
X137258794Y-129014285D02*
X137293080Y-128980000D01*
X137293080Y-128980000D02*
X137327365Y-128911428D01*
X137327365Y-128911428D02*
X137327365Y-128774285D01*
X137327365Y-128774285D02*
X137293080Y-128705714D01*
X137293080Y-128705714D02*
X137258794Y-128671428D01*
X137258794Y-128671428D02*
X137190222Y-128637142D01*
X137190222Y-128637142D02*
X136607365Y-128637142D01*
X136607365Y-127951428D02*
X136607365Y-128294285D01*
X136607365Y-128294285D02*
X136950222Y-128328571D01*
X136950222Y-128328571D02*
X136915937Y-128294285D01*
X136915937Y-128294285D02*
X136881651Y-128225714D01*
X136881651Y-128225714D02*
X136881651Y-128054285D01*
X136881651Y-128054285D02*
X136915937Y-127985714D01*
X136915937Y-127985714D02*
X136950222Y-127951428D01*
X136950222Y-127951428D02*
X137018794Y-127917142D01*
X137018794Y-127917142D02*
X137190222Y-127917142D01*
X137190222Y-127917142D02*
X137258794Y-127951428D01*
X137258794Y-127951428D02*
X137293080Y-127985714D01*
X137293080Y-127985714D02*
X137327365Y-128054285D01*
X137327365Y-128054285D02*
X137327365Y-128225714D01*
X137327365Y-128225714D02*
X137293080Y-128294285D01*
X137293080Y-128294285D02*
X137258794Y-128328571D01*
D15*
X135627409Y-116526666D02*
X135984552Y-116526666D01*
X135984552Y-116526666D02*
X136055980Y-116550475D01*
X136055980Y-116550475D02*
X136103600Y-116598094D01*
X136103600Y-116598094D02*
X136127409Y-116669523D01*
X136127409Y-116669523D02*
X136127409Y-116717142D01*
X135627409Y-116336190D02*
X135627409Y-116026666D01*
X135627409Y-116026666D02*
X135817885Y-116193333D01*
X135817885Y-116193333D02*
X135817885Y-116121904D01*
X135817885Y-116121904D02*
X135841695Y-116074285D01*
X135841695Y-116074285D02*
X135865504Y-116050476D01*
X135865504Y-116050476D02*
X135913123Y-116026666D01*
X135913123Y-116026666D02*
X136032171Y-116026666D01*
X136032171Y-116026666D02*
X136079790Y-116050476D01*
X136079790Y-116050476D02*
X136103600Y-116074285D01*
X136103600Y-116074285D02*
X136127409Y-116121904D01*
X136127409Y-116121904D02*
X136127409Y-116264761D01*
X136127409Y-116264761D02*
X136103600Y-116312380D01*
X136103600Y-116312380D02*
X136079790Y-116336190D01*
D10*
X133589765Y-89680714D02*
X133601670Y-89692618D01*
X133601670Y-89692618D02*
X133613574Y-89728333D01*
X133613574Y-89728333D02*
X133613574Y-89752142D01*
X133613574Y-89752142D02*
X133601670Y-89787856D01*
X133601670Y-89787856D02*
X133577860Y-89811666D01*
X133577860Y-89811666D02*
X133554050Y-89823571D01*
X133554050Y-89823571D02*
X133506431Y-89835475D01*
X133506431Y-89835475D02*
X133470717Y-89835475D01*
X133470717Y-89835475D02*
X133423098Y-89823571D01*
X133423098Y-89823571D02*
X133399289Y-89811666D01*
X133399289Y-89811666D02*
X133375479Y-89787856D01*
X133375479Y-89787856D02*
X133363574Y-89752142D01*
X133363574Y-89752142D02*
X133363574Y-89728333D01*
X133363574Y-89728333D02*
X133375479Y-89692618D01*
X133375479Y-89692618D02*
X133387384Y-89680714D01*
X133613574Y-89442618D02*
X133613574Y-89585475D01*
X133613574Y-89514047D02*
X133363574Y-89514047D01*
X133363574Y-89514047D02*
X133399289Y-89537856D01*
X133399289Y-89537856D02*
X133423098Y-89561666D01*
X133423098Y-89561666D02*
X133435003Y-89585475D01*
X133363574Y-89287857D02*
X133363574Y-89264047D01*
X133363574Y-89264047D02*
X133375479Y-89240238D01*
X133375479Y-89240238D02*
X133387384Y-89228333D01*
X133387384Y-89228333D02*
X133411193Y-89216428D01*
X133411193Y-89216428D02*
X133458812Y-89204523D01*
X133458812Y-89204523D02*
X133518336Y-89204523D01*
X133518336Y-89204523D02*
X133565955Y-89216428D01*
X133565955Y-89216428D02*
X133589765Y-89228333D01*
X133589765Y-89228333D02*
X133601670Y-89240238D01*
X133601670Y-89240238D02*
X133613574Y-89264047D01*
X133613574Y-89264047D02*
X133613574Y-89287857D01*
X133613574Y-89287857D02*
X133601670Y-89311666D01*
X133601670Y-89311666D02*
X133589765Y-89323571D01*
X133589765Y-89323571D02*
X133565955Y-89335476D01*
X133565955Y-89335476D02*
X133518336Y-89347380D01*
X133518336Y-89347380D02*
X133458812Y-89347380D01*
X133458812Y-89347380D02*
X133411193Y-89335476D01*
X133411193Y-89335476D02*
X133387384Y-89323571D01*
X133387384Y-89323571D02*
X133375479Y-89311666D01*
X133375479Y-89311666D02*
X133363574Y-89287857D01*
D13*
X133736666Y-77069229D02*
X133736666Y-77633514D01*
X133736666Y-77633514D02*
X133699047Y-77746371D01*
X133699047Y-77746371D02*
X133623809Y-77821610D01*
X133623809Y-77821610D02*
X133510952Y-77859229D01*
X133510952Y-77859229D02*
X133435714Y-77859229D01*
X134489047Y-77069229D02*
X134112857Y-77069229D01*
X134112857Y-77069229D02*
X134075238Y-77445419D01*
X134075238Y-77445419D02*
X134112857Y-77407800D01*
X134112857Y-77407800D02*
X134188095Y-77370181D01*
X134188095Y-77370181D02*
X134376190Y-77370181D01*
X134376190Y-77370181D02*
X134451428Y-77407800D01*
X134451428Y-77407800D02*
X134489047Y-77445419D01*
X134489047Y-77445419D02*
X134526666Y-77520657D01*
X134526666Y-77520657D02*
X134526666Y-77708752D01*
X134526666Y-77708752D02*
X134489047Y-77783990D01*
X134489047Y-77783990D02*
X134451428Y-77821610D01*
X134451428Y-77821610D02*
X134376190Y-77859229D01*
X134376190Y-77859229D02*
X134188095Y-77859229D01*
X134188095Y-77859229D02*
X134112857Y-77821610D01*
X134112857Y-77821610D02*
X134075238Y-77783990D01*
D11*
X134124819Y-137166666D02*
X134124819Y-137738094D01*
X134124819Y-137452380D02*
X133124819Y-137452380D01*
X133124819Y-137452380D02*
X133267676Y-137547618D01*
X133267676Y-137547618D02*
X133362914Y-137642856D01*
X133362914Y-137642856D02*
X133410533Y-137738094D01*
X133124819Y-136547618D02*
X133124819Y-136452380D01*
X133124819Y-136452380D02*
X133172438Y-136357142D01*
X133172438Y-136357142D02*
X133220057Y-136309523D01*
X133220057Y-136309523D02*
X133315295Y-136261904D01*
X133315295Y-136261904D02*
X133505771Y-136214285D01*
X133505771Y-136214285D02*
X133743866Y-136214285D01*
X133743866Y-136214285D02*
X133934342Y-136261904D01*
X133934342Y-136261904D02*
X134029580Y-136309523D01*
X134029580Y-136309523D02*
X134077200Y-136357142D01*
X134077200Y-136357142D02*
X134124819Y-136452380D01*
X134124819Y-136452380D02*
X134124819Y-136547618D01*
X134124819Y-136547618D02*
X134077200Y-136642856D01*
X134077200Y-136642856D02*
X134029580Y-136690475D01*
X134029580Y-136690475D02*
X133934342Y-136738094D01*
X133934342Y-136738094D02*
X133743866Y-136785713D01*
X133743866Y-136785713D02*
X133505771Y-136785713D01*
X133505771Y-136785713D02*
X133315295Y-136738094D01*
X133315295Y-136738094D02*
X133220057Y-136690475D01*
X133220057Y-136690475D02*
X133172438Y-136642856D01*
X133172438Y-136642856D02*
X133124819Y-136547618D01*
X134124819Y-135785713D02*
X133124819Y-135785713D01*
X133743866Y-135690475D02*
X134124819Y-135404761D01*
X133458152Y-135404761D02*
X133839104Y-135785713D01*
X134124819Y-135023808D02*
X134124819Y-134785713D01*
X134124819Y-134785713D02*
X133934342Y-134785713D01*
X133934342Y-134785713D02*
X133886723Y-134880951D01*
X133886723Y-134880951D02*
X133791485Y-134976189D01*
X133791485Y-134976189D02*
X133648628Y-135023808D01*
X133648628Y-135023808D02*
X133410533Y-135023808D01*
X133410533Y-135023808D02*
X133267676Y-134976189D01*
X133267676Y-134976189D02*
X133172438Y-134880951D01*
X133172438Y-134880951D02*
X133124819Y-134738094D01*
X133124819Y-134738094D02*
X133124819Y-134547618D01*
X133124819Y-134547618D02*
X133172438Y-134404761D01*
X133172438Y-134404761D02*
X133267676Y-134309523D01*
X133267676Y-134309523D02*
X133410533Y-134261904D01*
X133410533Y-134261904D02*
X133648628Y-134261904D01*
X133648628Y-134261904D02*
X133791485Y-134309523D01*
X133791485Y-134309523D02*
X133886723Y-134404761D01*
X133886723Y-134404761D02*
X133934342Y-134499999D01*
X133934342Y-134499999D02*
X134124819Y-134499999D01*
X134124819Y-134499999D02*
X134124819Y-134261904D01*
D10*
X132618200Y-136043332D02*
X132494391Y-136129999D01*
X132618200Y-136191904D02*
X132358200Y-136191904D01*
X132358200Y-136191904D02*
X132358200Y-136092856D01*
X132358200Y-136092856D02*
X132370581Y-136068094D01*
X132370581Y-136068094D02*
X132382962Y-136055713D01*
X132382962Y-136055713D02*
X132407724Y-136043332D01*
X132407724Y-136043332D02*
X132444867Y-136043332D01*
X132444867Y-136043332D02*
X132469629Y-136055713D01*
X132469629Y-136055713D02*
X132482010Y-136068094D01*
X132482010Y-136068094D02*
X132494391Y-136092856D01*
X132494391Y-136092856D02*
X132494391Y-136191904D01*
X132358200Y-135956666D02*
X132358200Y-135783332D01*
X132358200Y-135783332D02*
X132618200Y-135894761D01*
X134118200Y-87533332D02*
X133994391Y-87619999D01*
X134118200Y-87681904D02*
X133858200Y-87681904D01*
X133858200Y-87681904D02*
X133858200Y-87582856D01*
X133858200Y-87582856D02*
X133870581Y-87558094D01*
X133870581Y-87558094D02*
X133882962Y-87545713D01*
X133882962Y-87545713D02*
X133907724Y-87533332D01*
X133907724Y-87533332D02*
X133944867Y-87533332D01*
X133944867Y-87533332D02*
X133969629Y-87545713D01*
X133969629Y-87545713D02*
X133982010Y-87558094D01*
X133982010Y-87558094D02*
X133994391Y-87582856D01*
X133994391Y-87582856D02*
X133994391Y-87681904D01*
X133944867Y-87310475D02*
X134118200Y-87310475D01*
X133845820Y-87372380D02*
X134031534Y-87434285D01*
X134031534Y-87434285D02*
X134031534Y-87273332D01*
D11*
X133132142Y-140884819D02*
X132560714Y-140884819D01*
X132846428Y-140884819D02*
X132846428Y-139884819D01*
X132846428Y-139884819D02*
X132751190Y-140027676D01*
X132751190Y-140027676D02*
X132655952Y-140122914D01*
X132655952Y-140122914D02*
X132560714Y-140170533D01*
X133751190Y-139884819D02*
X133846428Y-139884819D01*
X133846428Y-139884819D02*
X133941666Y-139932438D01*
X133941666Y-139932438D02*
X133989285Y-139980057D01*
X133989285Y-139980057D02*
X134036904Y-140075295D01*
X134036904Y-140075295D02*
X134084523Y-140265771D01*
X134084523Y-140265771D02*
X134084523Y-140503866D01*
X134084523Y-140503866D02*
X134036904Y-140694342D01*
X134036904Y-140694342D02*
X133989285Y-140789580D01*
X133989285Y-140789580D02*
X133941666Y-140837200D01*
X133941666Y-140837200D02*
X133846428Y-140884819D01*
X133846428Y-140884819D02*
X133751190Y-140884819D01*
X133751190Y-140884819D02*
X133655952Y-140837200D01*
X133655952Y-140837200D02*
X133608333Y-140789580D01*
X133608333Y-140789580D02*
X133560714Y-140694342D01*
X133560714Y-140694342D02*
X133513095Y-140503866D01*
X133513095Y-140503866D02*
X133513095Y-140265771D01*
X133513095Y-140265771D02*
X133560714Y-140075295D01*
X133560714Y-140075295D02*
X133608333Y-139980057D01*
X133608333Y-139980057D02*
X133655952Y-139932438D01*
X133655952Y-139932438D02*
X133751190Y-139884819D01*
X134513095Y-140218152D02*
X134513095Y-141218152D01*
X134989285Y-140741961D02*
X135036904Y-140837200D01*
X135036904Y-140837200D02*
X135132142Y-140884819D01*
X134513095Y-140741961D02*
X134560714Y-140837200D01*
X134560714Y-140837200D02*
X134655952Y-140884819D01*
X134655952Y-140884819D02*
X134846428Y-140884819D01*
X134846428Y-140884819D02*
X134941666Y-140837200D01*
X134941666Y-140837200D02*
X134989285Y-140741961D01*
X134989285Y-140741961D02*
X134989285Y-140218152D01*
X135894047Y-140361009D02*
X135560714Y-140361009D01*
X135560714Y-140884819D02*
X135560714Y-139884819D01*
X135560714Y-139884819D02*
X136036904Y-139884819D01*
D14*
X134208333Y-139143832D02*
X134189285Y-139162880D01*
X134189285Y-139162880D02*
X134132143Y-139181927D01*
X134132143Y-139181927D02*
X134094047Y-139181927D01*
X134094047Y-139181927D02*
X134036904Y-139162880D01*
X134036904Y-139162880D02*
X133998809Y-139124784D01*
X133998809Y-139124784D02*
X133979762Y-139086689D01*
X133979762Y-139086689D02*
X133960714Y-139010499D01*
X133960714Y-139010499D02*
X133960714Y-138953356D01*
X133960714Y-138953356D02*
X133979762Y-138877165D01*
X133979762Y-138877165D02*
X133998809Y-138839070D01*
X133998809Y-138839070D02*
X134036904Y-138800975D01*
X134036904Y-138800975D02*
X134094047Y-138781927D01*
X134094047Y-138781927D02*
X134132143Y-138781927D01*
X134132143Y-138781927D02*
X134189285Y-138800975D01*
X134189285Y-138800975D02*
X134208333Y-138820022D01*
X134398809Y-139181927D02*
X134475000Y-139181927D01*
X134475000Y-139181927D02*
X134513095Y-139162880D01*
X134513095Y-139162880D02*
X134532143Y-139143832D01*
X134532143Y-139143832D02*
X134570238Y-139086689D01*
X134570238Y-139086689D02*
X134589285Y-139010499D01*
X134589285Y-139010499D02*
X134589285Y-138858118D01*
X134589285Y-138858118D02*
X134570238Y-138820022D01*
X134570238Y-138820022D02*
X134551190Y-138800975D01*
X134551190Y-138800975D02*
X134513095Y-138781927D01*
X134513095Y-138781927D02*
X134436904Y-138781927D01*
X134436904Y-138781927D02*
X134398809Y-138800975D01*
X134398809Y-138800975D02*
X134379762Y-138820022D01*
X134379762Y-138820022D02*
X134360714Y-138858118D01*
X134360714Y-138858118D02*
X134360714Y-138953356D01*
X134360714Y-138953356D02*
X134379762Y-138991451D01*
X134379762Y-138991451D02*
X134398809Y-139010499D01*
X134398809Y-139010499D02*
X134436904Y-139029546D01*
X134436904Y-139029546D02*
X134513095Y-139029546D01*
X134513095Y-139029546D02*
X134551190Y-139010499D01*
X134551190Y-139010499D02*
X134570238Y-138991451D01*
X134570238Y-138991451D02*
X134589285Y-138953356D01*
D10*
X142456667Y-123118200D02*
X142370000Y-122994391D01*
X142308095Y-123118200D02*
X142308095Y-122858200D01*
X142308095Y-122858200D02*
X142407143Y-122858200D01*
X142407143Y-122858200D02*
X142431905Y-122870581D01*
X142431905Y-122870581D02*
X142444286Y-122882962D01*
X142444286Y-122882962D02*
X142456667Y-122907724D01*
X142456667Y-122907724D02*
X142456667Y-122944867D01*
X142456667Y-122944867D02*
X142444286Y-122969629D01*
X142444286Y-122969629D02*
X142431905Y-122982010D01*
X142431905Y-122982010D02*
X142407143Y-122994391D01*
X142407143Y-122994391D02*
X142308095Y-122994391D01*
X142691905Y-122858200D02*
X142568095Y-122858200D01*
X142568095Y-122858200D02*
X142555714Y-122982010D01*
X142555714Y-122982010D02*
X142568095Y-122969629D01*
X142568095Y-122969629D02*
X142592857Y-122957248D01*
X142592857Y-122957248D02*
X142654762Y-122957248D01*
X142654762Y-122957248D02*
X142679524Y-122969629D01*
X142679524Y-122969629D02*
X142691905Y-122982010D01*
X142691905Y-122982010D02*
X142704286Y-123006772D01*
X142704286Y-123006772D02*
X142704286Y-123068677D01*
X142704286Y-123068677D02*
X142691905Y-123093439D01*
X142691905Y-123093439D02*
X142679524Y-123105820D01*
X142679524Y-123105820D02*
X142654762Y-123118200D01*
X142654762Y-123118200D02*
X142592857Y-123118200D01*
X142592857Y-123118200D02*
X142568095Y-123105820D01*
X142568095Y-123105820D02*
X142555714Y-123093439D01*
X143089765Y-102561666D02*
X143101670Y-102573570D01*
X143101670Y-102573570D02*
X143113574Y-102609285D01*
X143113574Y-102609285D02*
X143113574Y-102633094D01*
X143113574Y-102633094D02*
X143101670Y-102668808D01*
X143101670Y-102668808D02*
X143077860Y-102692618D01*
X143077860Y-102692618D02*
X143054050Y-102704523D01*
X143054050Y-102704523D02*
X143006431Y-102716427D01*
X143006431Y-102716427D02*
X142970717Y-102716427D01*
X142970717Y-102716427D02*
X142923098Y-102704523D01*
X142923098Y-102704523D02*
X142899289Y-102692618D01*
X142899289Y-102692618D02*
X142875479Y-102668808D01*
X142875479Y-102668808D02*
X142863574Y-102633094D01*
X142863574Y-102633094D02*
X142863574Y-102609285D01*
X142863574Y-102609285D02*
X142875479Y-102573570D01*
X142875479Y-102573570D02*
X142887384Y-102561666D01*
X142887384Y-102466427D02*
X142875479Y-102454523D01*
X142875479Y-102454523D02*
X142863574Y-102430713D01*
X142863574Y-102430713D02*
X142863574Y-102371189D01*
X142863574Y-102371189D02*
X142875479Y-102347380D01*
X142875479Y-102347380D02*
X142887384Y-102335475D01*
X142887384Y-102335475D02*
X142911193Y-102323570D01*
X142911193Y-102323570D02*
X142935003Y-102323570D01*
X142935003Y-102323570D02*
X142970717Y-102335475D01*
X142970717Y-102335475D02*
X143113574Y-102478332D01*
X143113574Y-102478332D02*
X143113574Y-102323570D01*
X144618200Y-124033332D02*
X144494391Y-124119999D01*
X144618200Y-124181904D02*
X144358200Y-124181904D01*
X144358200Y-124181904D02*
X144358200Y-124082856D01*
X144358200Y-124082856D02*
X144370581Y-124058094D01*
X144370581Y-124058094D02*
X144382962Y-124045713D01*
X144382962Y-124045713D02*
X144407724Y-124033332D01*
X144407724Y-124033332D02*
X144444867Y-124033332D01*
X144444867Y-124033332D02*
X144469629Y-124045713D01*
X144469629Y-124045713D02*
X144482010Y-124058094D01*
X144482010Y-124058094D02*
X144494391Y-124082856D01*
X144494391Y-124082856D02*
X144494391Y-124181904D01*
X144382962Y-123934285D02*
X144370581Y-123921904D01*
X144370581Y-123921904D02*
X144358200Y-123897142D01*
X144358200Y-123897142D02*
X144358200Y-123835237D01*
X144358200Y-123835237D02*
X144370581Y-123810475D01*
X144370581Y-123810475D02*
X144382962Y-123798094D01*
X144382962Y-123798094D02*
X144407724Y-123785713D01*
X144407724Y-123785713D02*
X144432486Y-123785713D01*
X144432486Y-123785713D02*
X144469629Y-123798094D01*
X144469629Y-123798094D02*
X144618200Y-123946666D01*
X144618200Y-123946666D02*
X144618200Y-123785713D01*
X136589765Y-87021666D02*
X136601670Y-87033570D01*
X136601670Y-87033570D02*
X136613574Y-87069285D01*
X136613574Y-87069285D02*
X136613574Y-87093094D01*
X136613574Y-87093094D02*
X136601670Y-87128808D01*
X136601670Y-87128808D02*
X136577860Y-87152618D01*
X136577860Y-87152618D02*
X136554050Y-87164523D01*
X136554050Y-87164523D02*
X136506431Y-87176427D01*
X136506431Y-87176427D02*
X136470717Y-87176427D01*
X136470717Y-87176427D02*
X136423098Y-87164523D01*
X136423098Y-87164523D02*
X136399289Y-87152618D01*
X136399289Y-87152618D02*
X136375479Y-87128808D01*
X136375479Y-87128808D02*
X136363574Y-87093094D01*
X136363574Y-87093094D02*
X136363574Y-87069285D01*
X136363574Y-87069285D02*
X136375479Y-87033570D01*
X136375479Y-87033570D02*
X136387384Y-87021666D01*
X136363574Y-86795475D02*
X136363574Y-86914523D01*
X136363574Y-86914523D02*
X136482622Y-86926427D01*
X136482622Y-86926427D02*
X136470717Y-86914523D01*
X136470717Y-86914523D02*
X136458812Y-86890713D01*
X136458812Y-86890713D02*
X136458812Y-86831189D01*
X136458812Y-86831189D02*
X136470717Y-86807380D01*
X136470717Y-86807380D02*
X136482622Y-86795475D01*
X136482622Y-86795475D02*
X136506431Y-86783570D01*
X136506431Y-86783570D02*
X136565955Y-86783570D01*
X136565955Y-86783570D02*
X136589765Y-86795475D01*
X136589765Y-86795475D02*
X136601670Y-86807380D01*
X136601670Y-86807380D02*
X136613574Y-86831189D01*
X136613574Y-86831189D02*
X136613574Y-86890713D01*
X136613574Y-86890713D02*
X136601670Y-86914523D01*
X136601670Y-86914523D02*
X136589765Y-86926427D01*
D11*
X118119047Y-133004819D02*
X118690475Y-133004819D01*
X118404761Y-134004819D02*
X118404761Y-133004819D01*
X119404761Y-133957200D02*
X119309523Y-134004819D01*
X119309523Y-134004819D02*
X119119047Y-134004819D01*
X119119047Y-134004819D02*
X119023809Y-133957200D01*
X119023809Y-133957200D02*
X118976190Y-133861961D01*
X118976190Y-133861961D02*
X118976190Y-133481009D01*
X118976190Y-133481009D02*
X119023809Y-133385771D01*
X119023809Y-133385771D02*
X119119047Y-133338152D01*
X119119047Y-133338152D02*
X119309523Y-133338152D01*
X119309523Y-133338152D02*
X119404761Y-133385771D01*
X119404761Y-133385771D02*
X119452380Y-133481009D01*
X119452380Y-133481009D02*
X119452380Y-133576247D01*
X119452380Y-133576247D02*
X118976190Y-133671485D01*
X119833333Y-133957200D02*
X119928571Y-134004819D01*
X119928571Y-134004819D02*
X120119047Y-134004819D01*
X120119047Y-134004819D02*
X120214285Y-133957200D01*
X120214285Y-133957200D02*
X120261904Y-133861961D01*
X120261904Y-133861961D02*
X120261904Y-133814342D01*
X120261904Y-133814342D02*
X120214285Y-133719104D01*
X120214285Y-133719104D02*
X120119047Y-133671485D01*
X120119047Y-133671485D02*
X119976190Y-133671485D01*
X119976190Y-133671485D02*
X119880952Y-133623866D01*
X119880952Y-133623866D02*
X119833333Y-133528628D01*
X119833333Y-133528628D02*
X119833333Y-133481009D01*
X119833333Y-133481009D02*
X119880952Y-133385771D01*
X119880952Y-133385771D02*
X119976190Y-133338152D01*
X119976190Y-133338152D02*
X120119047Y-133338152D01*
X120119047Y-133338152D02*
X120214285Y-133385771D01*
X120547619Y-133338152D02*
X120928571Y-133338152D01*
X120690476Y-133004819D02*
X120690476Y-133861961D01*
X120690476Y-133861961D02*
X120738095Y-133957200D01*
X120738095Y-133957200D02*
X120833333Y-134004819D01*
X120833333Y-134004819D02*
X120928571Y-134004819D01*
X121261905Y-134004819D02*
X121261905Y-133004819D01*
X121261905Y-133004819D02*
X121642857Y-133004819D01*
X121642857Y-133004819D02*
X121738095Y-133052438D01*
X121738095Y-133052438D02*
X121785714Y-133100057D01*
X121785714Y-133100057D02*
X121833333Y-133195295D01*
X121833333Y-133195295D02*
X121833333Y-133338152D01*
X121833333Y-133338152D02*
X121785714Y-133433390D01*
X121785714Y-133433390D02*
X121738095Y-133481009D01*
X121738095Y-133481009D02*
X121642857Y-133528628D01*
X121642857Y-133528628D02*
X121261905Y-133528628D01*
X122404762Y-134004819D02*
X122309524Y-133957200D01*
X122309524Y-133957200D02*
X122261905Y-133909580D01*
X122261905Y-133909580D02*
X122214286Y-133814342D01*
X122214286Y-133814342D02*
X122214286Y-133528628D01*
X122214286Y-133528628D02*
X122261905Y-133433390D01*
X122261905Y-133433390D02*
X122309524Y-133385771D01*
X122309524Y-133385771D02*
X122404762Y-133338152D01*
X122404762Y-133338152D02*
X122547619Y-133338152D01*
X122547619Y-133338152D02*
X122642857Y-133385771D01*
X122642857Y-133385771D02*
X122690476Y-133433390D01*
X122690476Y-133433390D02*
X122738095Y-133528628D01*
X122738095Y-133528628D02*
X122738095Y-133814342D01*
X122738095Y-133814342D02*
X122690476Y-133909580D01*
X122690476Y-133909580D02*
X122642857Y-133957200D01*
X122642857Y-133957200D02*
X122547619Y-134004819D01*
X122547619Y-134004819D02*
X122404762Y-134004819D01*
X123166667Y-134004819D02*
X123166667Y-133338152D01*
X123166667Y-133004819D02*
X123119048Y-133052438D01*
X123119048Y-133052438D02*
X123166667Y-133100057D01*
X123166667Y-133100057D02*
X123214286Y-133052438D01*
X123214286Y-133052438D02*
X123166667Y-133004819D01*
X123166667Y-133004819D02*
X123166667Y-133100057D01*
X123642857Y-133338152D02*
X123642857Y-134004819D01*
X123642857Y-133433390D02*
X123690476Y-133385771D01*
X123690476Y-133385771D02*
X123785714Y-133338152D01*
X123785714Y-133338152D02*
X123928571Y-133338152D01*
X123928571Y-133338152D02*
X124023809Y-133385771D01*
X124023809Y-133385771D02*
X124071428Y-133481009D01*
X124071428Y-133481009D02*
X124071428Y-134004819D01*
X124404762Y-133338152D02*
X124785714Y-133338152D01*
X124547619Y-133004819D02*
X124547619Y-133861961D01*
X124547619Y-133861961D02*
X124595238Y-133957200D01*
X124595238Y-133957200D02*
X124690476Y-134004819D01*
X124690476Y-134004819D02*
X124785714Y-134004819D01*
X124880953Y-134100057D02*
X125642857Y-134100057D01*
X125738096Y-133004819D02*
X126309524Y-133004819D01*
X126023810Y-134004819D02*
X126023810Y-133004819D01*
X126642858Y-134004819D02*
X126642858Y-133004819D01*
X126642858Y-133481009D02*
X127214286Y-133481009D01*
X127214286Y-134004819D02*
X127214286Y-133004819D01*
X127547620Y-133004819D02*
X128119048Y-133004819D01*
X127833334Y-134004819D02*
X127833334Y-133004819D01*
X128452382Y-134004819D02*
X128452382Y-133004819D01*
X128452382Y-133004819D02*
X128833334Y-133004819D01*
X128833334Y-133004819D02*
X128928572Y-133052438D01*
X128928572Y-133052438D02*
X128976191Y-133100057D01*
X128976191Y-133100057D02*
X129023810Y-133195295D01*
X129023810Y-133195295D02*
X129023810Y-133338152D01*
X129023810Y-133338152D02*
X128976191Y-133433390D01*
X128976191Y-133433390D02*
X128928572Y-133481009D01*
X128928572Y-133481009D02*
X128833334Y-133528628D01*
X128833334Y-133528628D02*
X128452382Y-133528628D01*
X129880953Y-134004819D02*
X129880953Y-133481009D01*
X129880953Y-133481009D02*
X129833334Y-133385771D01*
X129833334Y-133385771D02*
X129738096Y-133338152D01*
X129738096Y-133338152D02*
X129547620Y-133338152D01*
X129547620Y-133338152D02*
X129452382Y-133385771D01*
X129880953Y-133957200D02*
X129785715Y-134004819D01*
X129785715Y-134004819D02*
X129547620Y-134004819D01*
X129547620Y-134004819D02*
X129452382Y-133957200D01*
X129452382Y-133957200D02*
X129404763Y-133861961D01*
X129404763Y-133861961D02*
X129404763Y-133766723D01*
X129404763Y-133766723D02*
X129452382Y-133671485D01*
X129452382Y-133671485D02*
X129547620Y-133623866D01*
X129547620Y-133623866D02*
X129785715Y-133623866D01*
X129785715Y-133623866D02*
X129880953Y-133576247D01*
X130785715Y-134004819D02*
X130785715Y-133004819D01*
X130785715Y-133957200D02*
X130690477Y-134004819D01*
X130690477Y-134004819D02*
X130500001Y-134004819D01*
X130500001Y-134004819D02*
X130404763Y-133957200D01*
X130404763Y-133957200D02*
X130357144Y-133909580D01*
X130357144Y-133909580D02*
X130309525Y-133814342D01*
X130309525Y-133814342D02*
X130309525Y-133528628D01*
X130309525Y-133528628D02*
X130357144Y-133433390D01*
X130357144Y-133433390D02*
X130404763Y-133385771D01*
X130404763Y-133385771D02*
X130500001Y-133338152D01*
X130500001Y-133338152D02*
X130690477Y-133338152D01*
X130690477Y-133338152D02*
X130785715Y-133385771D01*
X131023811Y-134100057D02*
X131785715Y-134100057D01*
X131976192Y-133100057D02*
X132023811Y-133052438D01*
X132023811Y-133052438D02*
X132119049Y-133004819D01*
X132119049Y-133004819D02*
X132357144Y-133004819D01*
X132357144Y-133004819D02*
X132452382Y-133052438D01*
X132452382Y-133052438D02*
X132500001Y-133100057D01*
X132500001Y-133100057D02*
X132547620Y-133195295D01*
X132547620Y-133195295D02*
X132547620Y-133290533D01*
X132547620Y-133290533D02*
X132500001Y-133433390D01*
X132500001Y-133433390D02*
X131928573Y-134004819D01*
X131928573Y-134004819D02*
X132547620Y-134004819D01*
X132976192Y-133909580D02*
X133023811Y-133957200D01*
X133023811Y-133957200D02*
X132976192Y-134004819D01*
X132976192Y-134004819D02*
X132928573Y-133957200D01*
X132928573Y-133957200D02*
X132976192Y-133909580D01*
X132976192Y-133909580D02*
X132976192Y-134004819D01*
X133642858Y-133004819D02*
X133738096Y-133004819D01*
X133738096Y-133004819D02*
X133833334Y-133052438D01*
X133833334Y-133052438D02*
X133880953Y-133100057D01*
X133880953Y-133100057D02*
X133928572Y-133195295D01*
X133928572Y-133195295D02*
X133976191Y-133385771D01*
X133976191Y-133385771D02*
X133976191Y-133623866D01*
X133976191Y-133623866D02*
X133928572Y-133814342D01*
X133928572Y-133814342D02*
X133880953Y-133909580D01*
X133880953Y-133909580D02*
X133833334Y-133957200D01*
X133833334Y-133957200D02*
X133738096Y-134004819D01*
X133738096Y-134004819D02*
X133642858Y-134004819D01*
X133642858Y-134004819D02*
X133547620Y-133957200D01*
X133547620Y-133957200D02*
X133500001Y-133909580D01*
X133500001Y-133909580D02*
X133452382Y-133814342D01*
X133452382Y-133814342D02*
X133404763Y-133623866D01*
X133404763Y-133623866D02*
X133404763Y-133385771D01*
X133404763Y-133385771D02*
X133452382Y-133195295D01*
X133452382Y-133195295D02*
X133500001Y-133100057D01*
X133500001Y-133100057D02*
X133547620Y-133052438D01*
X133547620Y-133052438D02*
X133642858Y-133004819D01*
X134309525Y-134004819D02*
X134833334Y-133338152D01*
X134309525Y-133338152D02*
X134833334Y-134004819D01*
X135166668Y-133100057D02*
X135214287Y-133052438D01*
X135214287Y-133052438D02*
X135309525Y-133004819D01*
X135309525Y-133004819D02*
X135547620Y-133004819D01*
X135547620Y-133004819D02*
X135642858Y-133052438D01*
X135642858Y-133052438D02*
X135690477Y-133100057D01*
X135690477Y-133100057D02*
X135738096Y-133195295D01*
X135738096Y-133195295D02*
X135738096Y-133290533D01*
X135738096Y-133290533D02*
X135690477Y-133433390D01*
X135690477Y-133433390D02*
X135119049Y-134004819D01*
X135119049Y-134004819D02*
X135738096Y-134004819D01*
X136166668Y-133909580D02*
X136214287Y-133957200D01*
X136214287Y-133957200D02*
X136166668Y-134004819D01*
X136166668Y-134004819D02*
X136119049Y-133957200D01*
X136119049Y-133957200D02*
X136166668Y-133909580D01*
X136166668Y-133909580D02*
X136166668Y-134004819D01*
X136833334Y-133004819D02*
X136928572Y-133004819D01*
X136928572Y-133004819D02*
X137023810Y-133052438D01*
X137023810Y-133052438D02*
X137071429Y-133100057D01*
X137071429Y-133100057D02*
X137119048Y-133195295D01*
X137119048Y-133195295D02*
X137166667Y-133385771D01*
X137166667Y-133385771D02*
X137166667Y-133623866D01*
X137166667Y-133623866D02*
X137119048Y-133814342D01*
X137119048Y-133814342D02*
X137071429Y-133909580D01*
X137071429Y-133909580D02*
X137023810Y-133957200D01*
X137023810Y-133957200D02*
X136928572Y-134004819D01*
X136928572Y-134004819D02*
X136833334Y-134004819D01*
X136833334Y-134004819D02*
X136738096Y-133957200D01*
X136738096Y-133957200D02*
X136690477Y-133909580D01*
X136690477Y-133909580D02*
X136642858Y-133814342D01*
X136642858Y-133814342D02*
X136595239Y-133623866D01*
X136595239Y-133623866D02*
X136595239Y-133385771D01*
X136595239Y-133385771D02*
X136642858Y-133195295D01*
X136642858Y-133195295D02*
X136690477Y-133100057D01*
X136690477Y-133100057D02*
X136738096Y-133052438D01*
X136738096Y-133052438D02*
X136833334Y-133004819D01*
X137595239Y-134004819D02*
X137595239Y-133338152D01*
X137595239Y-133433390D02*
X137642858Y-133385771D01*
X137642858Y-133385771D02*
X137738096Y-133338152D01*
X137738096Y-133338152D02*
X137880953Y-133338152D01*
X137880953Y-133338152D02*
X137976191Y-133385771D01*
X137976191Y-133385771D02*
X138023810Y-133481009D01*
X138023810Y-133481009D02*
X138023810Y-134004819D01*
X138023810Y-133481009D02*
X138071429Y-133385771D01*
X138071429Y-133385771D02*
X138166667Y-133338152D01*
X138166667Y-133338152D02*
X138309524Y-133338152D01*
X138309524Y-133338152D02*
X138404763Y-133385771D01*
X138404763Y-133385771D02*
X138452382Y-133481009D01*
X138452382Y-133481009D02*
X138452382Y-134004819D01*
X138928572Y-134004819D02*
X138928572Y-133338152D01*
X138928572Y-133433390D02*
X138976191Y-133385771D01*
X138976191Y-133385771D02*
X139071429Y-133338152D01*
X139071429Y-133338152D02*
X139214286Y-133338152D01*
X139214286Y-133338152D02*
X139309524Y-133385771D01*
X139309524Y-133385771D02*
X139357143Y-133481009D01*
X139357143Y-133481009D02*
X139357143Y-134004819D01*
X139357143Y-133481009D02*
X139404762Y-133385771D01*
X139404762Y-133385771D02*
X139500000Y-133338152D01*
X139500000Y-133338152D02*
X139642857Y-133338152D01*
X139642857Y-133338152D02*
X139738096Y-133385771D01*
X139738096Y-133385771D02*
X139785715Y-133481009D01*
X139785715Y-133481009D02*
X139785715Y-134004819D01*
X140023810Y-134100057D02*
X140785714Y-134100057D01*
X141023810Y-134004819D02*
X141023810Y-133004819D01*
X141023810Y-133004819D02*
X141261905Y-133004819D01*
X141261905Y-133004819D02*
X141404762Y-133052438D01*
X141404762Y-133052438D02*
X141500000Y-133147676D01*
X141500000Y-133147676D02*
X141547619Y-133242914D01*
X141547619Y-133242914D02*
X141595238Y-133433390D01*
X141595238Y-133433390D02*
X141595238Y-133576247D01*
X141595238Y-133576247D02*
X141547619Y-133766723D01*
X141547619Y-133766723D02*
X141500000Y-133861961D01*
X141500000Y-133861961D02*
X141404762Y-133957200D01*
X141404762Y-133957200D02*
X141261905Y-134004819D01*
X141261905Y-134004819D02*
X141023810Y-134004819D01*
X142023810Y-134004819D02*
X142023810Y-133338152D01*
X142023810Y-133528628D02*
X142071429Y-133433390D01*
X142071429Y-133433390D02*
X142119048Y-133385771D01*
X142119048Y-133385771D02*
X142214286Y-133338152D01*
X142214286Y-133338152D02*
X142309524Y-133338152D01*
X142642858Y-134004819D02*
X142642858Y-133338152D01*
X142642858Y-133004819D02*
X142595239Y-133052438D01*
X142595239Y-133052438D02*
X142642858Y-133100057D01*
X142642858Y-133100057D02*
X142690477Y-133052438D01*
X142690477Y-133052438D02*
X142642858Y-133004819D01*
X142642858Y-133004819D02*
X142642858Y-133100057D01*
X143261905Y-134004819D02*
X143166667Y-133957200D01*
X143166667Y-133957200D02*
X143119048Y-133861961D01*
X143119048Y-133861961D02*
X143119048Y-133004819D01*
X143785715Y-134004819D02*
X143690477Y-133957200D01*
X143690477Y-133957200D02*
X143642858Y-133861961D01*
X143642858Y-133861961D02*
X143642858Y-133004819D01*
X144690477Y-134004819D02*
X144119049Y-134004819D01*
X144404763Y-134004819D02*
X144404763Y-133004819D01*
X144404763Y-133004819D02*
X144309525Y-133147676D01*
X144309525Y-133147676D02*
X144214287Y-133242914D01*
X144214287Y-133242914D02*
X144119049Y-133290533D01*
X145119049Y-133909580D02*
X145166668Y-133957200D01*
X145166668Y-133957200D02*
X145119049Y-134004819D01*
X145119049Y-134004819D02*
X145071430Y-133957200D01*
X145071430Y-133957200D02*
X145119049Y-133909580D01*
X145119049Y-133909580D02*
X145119049Y-134004819D01*
X145785715Y-133004819D02*
X145880953Y-133004819D01*
X145880953Y-133004819D02*
X145976191Y-133052438D01*
X145976191Y-133052438D02*
X146023810Y-133100057D01*
X146023810Y-133100057D02*
X146071429Y-133195295D01*
X146071429Y-133195295D02*
X146119048Y-133385771D01*
X146119048Y-133385771D02*
X146119048Y-133623866D01*
X146119048Y-133623866D02*
X146071429Y-133814342D01*
X146071429Y-133814342D02*
X146023810Y-133909580D01*
X146023810Y-133909580D02*
X145976191Y-133957200D01*
X145976191Y-133957200D02*
X145880953Y-134004819D01*
X145880953Y-134004819D02*
X145785715Y-134004819D01*
X145785715Y-134004819D02*
X145690477Y-133957200D01*
X145690477Y-133957200D02*
X145642858Y-133909580D01*
X145642858Y-133909580D02*
X145595239Y-133814342D01*
X145595239Y-133814342D02*
X145547620Y-133623866D01*
X145547620Y-133623866D02*
X145547620Y-133385771D01*
X145547620Y-133385771D02*
X145595239Y-133195295D01*
X145595239Y-133195295D02*
X145642858Y-133100057D01*
X145642858Y-133100057D02*
X145690477Y-133052438D01*
X145690477Y-133052438D02*
X145785715Y-133004819D01*
X146547620Y-134004819D02*
X146547620Y-133338152D01*
X146547620Y-133433390D02*
X146595239Y-133385771D01*
X146595239Y-133385771D02*
X146690477Y-133338152D01*
X146690477Y-133338152D02*
X146833334Y-133338152D01*
X146833334Y-133338152D02*
X146928572Y-133385771D01*
X146928572Y-133385771D02*
X146976191Y-133481009D01*
X146976191Y-133481009D02*
X146976191Y-134004819D01*
X146976191Y-133481009D02*
X147023810Y-133385771D01*
X147023810Y-133385771D02*
X147119048Y-133338152D01*
X147119048Y-133338152D02*
X147261905Y-133338152D01*
X147261905Y-133338152D02*
X147357144Y-133385771D01*
X147357144Y-133385771D02*
X147404763Y-133481009D01*
X147404763Y-133481009D02*
X147404763Y-134004819D01*
X147880953Y-134004819D02*
X147880953Y-133338152D01*
X147880953Y-133433390D02*
X147928572Y-133385771D01*
X147928572Y-133385771D02*
X148023810Y-133338152D01*
X148023810Y-133338152D02*
X148166667Y-133338152D01*
X148166667Y-133338152D02*
X148261905Y-133385771D01*
X148261905Y-133385771D02*
X148309524Y-133481009D01*
X148309524Y-133481009D02*
X148309524Y-134004819D01*
X148309524Y-133481009D02*
X148357143Y-133385771D01*
X148357143Y-133385771D02*
X148452381Y-133338152D01*
X148452381Y-133338152D02*
X148595238Y-133338152D01*
X148595238Y-133338152D02*
X148690477Y-133385771D01*
X148690477Y-133385771D02*
X148738096Y-133481009D01*
X148738096Y-133481009D02*
X148738096Y-134004819D01*
X132166666Y-129954819D02*
X131833333Y-129478628D01*
X131595238Y-129954819D02*
X131595238Y-128954819D01*
X131595238Y-128954819D02*
X131976190Y-128954819D01*
X131976190Y-128954819D02*
X132071428Y-129002438D01*
X132071428Y-129002438D02*
X132119047Y-129050057D01*
X132119047Y-129050057D02*
X132166666Y-129145295D01*
X132166666Y-129145295D02*
X132166666Y-129288152D01*
X132166666Y-129288152D02*
X132119047Y-129383390D01*
X132119047Y-129383390D02*
X132071428Y-129431009D01*
X132071428Y-129431009D02*
X131976190Y-129478628D01*
X131976190Y-129478628D02*
X131595238Y-129478628D01*
X132595238Y-129431009D02*
X132928571Y-129431009D01*
X133071428Y-129954819D02*
X132595238Y-129954819D01*
X132595238Y-129954819D02*
X132595238Y-128954819D01*
X132595238Y-128954819D02*
X133071428Y-128954819D01*
X133833333Y-129431009D02*
X133500000Y-129431009D01*
X133500000Y-129954819D02*
X133500000Y-128954819D01*
X133500000Y-128954819D02*
X133976190Y-128954819D01*
X134500000Y-128954819D02*
X134500000Y-129192914D01*
X134261905Y-129097676D02*
X134500000Y-129192914D01*
X134500000Y-129192914D02*
X134738095Y-129097676D01*
X134357143Y-129383390D02*
X134500000Y-129192914D01*
X134500000Y-129192914D02*
X134642857Y-129383390D01*
X135261905Y-128954819D02*
X135261905Y-129192914D01*
X135023810Y-129097676D02*
X135261905Y-129192914D01*
X135261905Y-129192914D02*
X135500000Y-129097676D01*
X135119048Y-129383390D02*
X135261905Y-129192914D01*
X135261905Y-129192914D02*
X135404762Y-129383390D01*
D10*
X132994285Y-101589765D02*
X132982381Y-101601670D01*
X132982381Y-101601670D02*
X132946666Y-101613574D01*
X132946666Y-101613574D02*
X132922857Y-101613574D01*
X132922857Y-101613574D02*
X132887143Y-101601670D01*
X132887143Y-101601670D02*
X132863333Y-101577860D01*
X132863333Y-101577860D02*
X132851428Y-101554050D01*
X132851428Y-101554050D02*
X132839524Y-101506431D01*
X132839524Y-101506431D02*
X132839524Y-101470717D01*
X132839524Y-101470717D02*
X132851428Y-101423098D01*
X132851428Y-101423098D02*
X132863333Y-101399289D01*
X132863333Y-101399289D02*
X132887143Y-101375479D01*
X132887143Y-101375479D02*
X132922857Y-101363574D01*
X132922857Y-101363574D02*
X132946666Y-101363574D01*
X132946666Y-101363574D02*
X132982381Y-101375479D01*
X132982381Y-101375479D02*
X132994285Y-101387384D01*
X133232381Y-101613574D02*
X133089524Y-101613574D01*
X133160952Y-101613574D02*
X133160952Y-101363574D01*
X133160952Y-101363574D02*
X133137143Y-101399289D01*
X133137143Y-101399289D02*
X133113333Y-101423098D01*
X133113333Y-101423098D02*
X133089524Y-101435003D01*
X133327619Y-101387384D02*
X133339523Y-101375479D01*
X133339523Y-101375479D02*
X133363333Y-101363574D01*
X133363333Y-101363574D02*
X133422857Y-101363574D01*
X133422857Y-101363574D02*
X133446666Y-101375479D01*
X133446666Y-101375479D02*
X133458571Y-101387384D01*
X133458571Y-101387384D02*
X133470476Y-101411193D01*
X133470476Y-101411193D02*
X133470476Y-101435003D01*
X133470476Y-101435003D02*
X133458571Y-101470717D01*
X133458571Y-101470717D02*
X133315714Y-101613574D01*
X133315714Y-101613574D02*
X133470476Y-101613574D01*
D11*
X138773809Y-99978628D02*
X138773809Y-100454819D01*
X138440476Y-99454819D02*
X138773809Y-99978628D01*
X138773809Y-99978628D02*
X139107142Y-99454819D01*
X139964285Y-100454819D02*
X139392857Y-100454819D01*
X139678571Y-100454819D02*
X139678571Y-99454819D01*
X139678571Y-99454819D02*
X139583333Y-99597676D01*
X139583333Y-99597676D02*
X139488095Y-99692914D01*
X139488095Y-99692914D02*
X139392857Y-99740533D01*
D16*
X134197891Y-98700000D02*
X134626462Y-98700000D01*
X134626462Y-98700000D02*
X134712177Y-98728571D01*
X134712177Y-98728571D02*
X134769320Y-98785714D01*
X134769320Y-98785714D02*
X134797891Y-98871428D01*
X134797891Y-98871428D02*
X134797891Y-98928571D01*
X134455034Y-98328571D02*
X134426462Y-98385714D01*
X134426462Y-98385714D02*
X134397891Y-98414285D01*
X134397891Y-98414285D02*
X134340748Y-98442857D01*
X134340748Y-98442857D02*
X134312177Y-98442857D01*
X134312177Y-98442857D02*
X134255034Y-98414285D01*
X134255034Y-98414285D02*
X134226462Y-98385714D01*
X134226462Y-98385714D02*
X134197891Y-98328571D01*
X134197891Y-98328571D02*
X134197891Y-98214285D01*
X134197891Y-98214285D02*
X134226462Y-98157143D01*
X134226462Y-98157143D02*
X134255034Y-98128571D01*
X134255034Y-98128571D02*
X134312177Y-98100000D01*
X134312177Y-98100000D02*
X134340748Y-98100000D01*
X134340748Y-98100000D02*
X134397891Y-98128571D01*
X134397891Y-98128571D02*
X134426462Y-98157143D01*
X134426462Y-98157143D02*
X134455034Y-98214285D01*
X134455034Y-98214285D02*
X134455034Y-98328571D01*
X134455034Y-98328571D02*
X134483605Y-98385714D01*
X134483605Y-98385714D02*
X134512177Y-98414285D01*
X134512177Y-98414285D02*
X134569320Y-98442857D01*
X134569320Y-98442857D02*
X134683605Y-98442857D01*
X134683605Y-98442857D02*
X134740748Y-98414285D01*
X134740748Y-98414285D02*
X134769320Y-98385714D01*
X134769320Y-98385714D02*
X134797891Y-98328571D01*
X134797891Y-98328571D02*
X134797891Y-98214285D01*
X134797891Y-98214285D02*
X134769320Y-98157143D01*
X134769320Y-98157143D02*
X134740748Y-98128571D01*
X134740748Y-98128571D02*
X134683605Y-98100000D01*
X134683605Y-98100000D02*
X134569320Y-98100000D01*
X134569320Y-98100000D02*
X134512177Y-98128571D01*
X134512177Y-98128571D02*
X134483605Y-98157143D01*
X134483605Y-98157143D02*
X134455034Y-98214285D01*
D13*
X140269229Y-75763333D02*
X140833514Y-75763333D01*
X140833514Y-75763333D02*
X140946371Y-75800952D01*
X140946371Y-75800952D02*
X141021610Y-75876190D01*
X141021610Y-75876190D02*
X141059229Y-75989047D01*
X141059229Y-75989047D02*
X141059229Y-76064285D01*
X140269229Y-75462380D02*
X140269229Y-74935714D01*
X140269229Y-74935714D02*
X141059229Y-75274285D01*
D12*
X139528571Y-115028744D02*
X139528571Y-115635887D01*
X139528571Y-115635887D02*
X139564285Y-115707315D01*
X139564285Y-115707315D02*
X139600000Y-115743030D01*
X139600000Y-115743030D02*
X139671428Y-115778744D01*
X139671428Y-115778744D02*
X139814285Y-115778744D01*
X139814285Y-115778744D02*
X139885714Y-115743030D01*
X139885714Y-115743030D02*
X139921428Y-115707315D01*
X139921428Y-115707315D02*
X139957142Y-115635887D01*
X139957142Y-115635887D02*
X139957142Y-115028744D01*
X140278571Y-115100172D02*
X140314285Y-115064458D01*
X140314285Y-115064458D02*
X140385714Y-115028744D01*
X140385714Y-115028744D02*
X140564285Y-115028744D01*
X140564285Y-115028744D02*
X140635714Y-115064458D01*
X140635714Y-115064458D02*
X140671428Y-115100172D01*
X140671428Y-115100172D02*
X140707142Y-115171601D01*
X140707142Y-115171601D02*
X140707142Y-115243030D01*
X140707142Y-115243030D02*
X140671428Y-115350172D01*
X140671428Y-115350172D02*
X140242856Y-115778744D01*
X140242856Y-115778744D02*
X140707142Y-115778744D01*
D14*
X133143832Y-115757142D02*
X133162880Y-115776190D01*
X133162880Y-115776190D02*
X133181927Y-115833332D01*
X133181927Y-115833332D02*
X133181927Y-115871428D01*
X133181927Y-115871428D02*
X133162880Y-115928571D01*
X133162880Y-115928571D02*
X133124784Y-115966666D01*
X133124784Y-115966666D02*
X133086689Y-115985713D01*
X133086689Y-115985713D02*
X133010499Y-116004761D01*
X133010499Y-116004761D02*
X132953356Y-116004761D01*
X132953356Y-116004761D02*
X132877165Y-115985713D01*
X132877165Y-115985713D02*
X132839070Y-115966666D01*
X132839070Y-115966666D02*
X132800975Y-115928571D01*
X132800975Y-115928571D02*
X132781927Y-115871428D01*
X132781927Y-115871428D02*
X132781927Y-115833332D01*
X132781927Y-115833332D02*
X132800975Y-115776190D01*
X132800975Y-115776190D02*
X132820022Y-115757142D01*
X133181927Y-115376190D02*
X133181927Y-115604761D01*
X133181927Y-115490475D02*
X132781927Y-115490475D01*
X132781927Y-115490475D02*
X132839070Y-115528571D01*
X132839070Y-115528571D02*
X132877165Y-115566666D01*
X132877165Y-115566666D02*
X132896213Y-115604761D01*
X132781927Y-115242857D02*
X132781927Y-114995238D01*
X132781927Y-114995238D02*
X132934308Y-115128571D01*
X132934308Y-115128571D02*
X132934308Y-115071428D01*
X132934308Y-115071428D02*
X132953356Y-115033333D01*
X132953356Y-115033333D02*
X132972403Y-115014285D01*
X132972403Y-115014285D02*
X133010499Y-114995238D01*
X133010499Y-114995238D02*
X133105737Y-114995238D01*
X133105737Y-114995238D02*
X133143832Y-115014285D01*
X133143832Y-115014285D02*
X133162880Y-115033333D01*
X133162880Y-115033333D02*
X133181927Y-115071428D01*
X133181927Y-115071428D02*
X133181927Y-115185714D01*
X133181927Y-115185714D02*
X133162880Y-115223809D01*
X133162880Y-115223809D02*
X133143832Y-115242857D01*
D11*
X136384819Y-136261904D02*
X136384819Y-136833332D01*
X136384819Y-136547618D02*
X135384819Y-136547618D01*
X135384819Y-136547618D02*
X135527676Y-136642856D01*
X135527676Y-136642856D02*
X135622914Y-136738094D01*
X135622914Y-136738094D02*
X135670533Y-136833332D01*
X135718152Y-135833332D02*
X136718152Y-135833332D01*
X136241961Y-135357142D02*
X136337200Y-135309523D01*
X136337200Y-135309523D02*
X136384819Y-135214285D01*
X136241961Y-135833332D02*
X136337200Y-135785713D01*
X136337200Y-135785713D02*
X136384819Y-135690475D01*
X136384819Y-135690475D02*
X136384819Y-135499999D01*
X136384819Y-135499999D02*
X136337200Y-135404761D01*
X136337200Y-135404761D02*
X136241961Y-135357142D01*
X136241961Y-135357142D02*
X135718152Y-135357142D01*
X136384819Y-134785713D02*
X135384819Y-134785713D01*
X135861009Y-134785713D02*
X135861009Y-134214285D01*
X136384819Y-134214285D02*
X135384819Y-134214285D01*
D14*
X134681927Y-135566666D02*
X134681927Y-135757142D01*
X134681927Y-135757142D02*
X134281927Y-135757142D01*
X134681927Y-135223809D02*
X134681927Y-135452380D01*
X134681927Y-135338094D02*
X134281927Y-135338094D01*
X134281927Y-135338094D02*
X134339070Y-135376190D01*
X134339070Y-135376190D02*
X134377165Y-135414285D01*
X134377165Y-135414285D02*
X134396213Y-135452380D01*
D11*
X143504819Y-91833333D02*
X144219104Y-91833333D01*
X144219104Y-91833333D02*
X144361961Y-91880952D01*
X144361961Y-91880952D02*
X144457200Y-91976190D01*
X144457200Y-91976190D02*
X144504819Y-92119047D01*
X144504819Y-92119047D02*
X144504819Y-92214285D01*
X143504819Y-90928571D02*
X143504819Y-91119047D01*
X143504819Y-91119047D02*
X143552438Y-91214285D01*
X143552438Y-91214285D02*
X143600057Y-91261904D01*
X143600057Y-91261904D02*
X143742914Y-91357142D01*
X143742914Y-91357142D02*
X143933390Y-91404761D01*
X143933390Y-91404761D02*
X144314342Y-91404761D01*
X144314342Y-91404761D02*
X144409580Y-91357142D01*
X144409580Y-91357142D02*
X144457200Y-91309523D01*
X144457200Y-91309523D02*
X144504819Y-91214285D01*
X144504819Y-91214285D02*
X144504819Y-91023809D01*
X144504819Y-91023809D02*
X144457200Y-90928571D01*
X144457200Y-90928571D02*
X144409580Y-90880952D01*
X144409580Y-90880952D02*
X144314342Y-90833333D01*
X144314342Y-90833333D02*
X144076247Y-90833333D01*
X144076247Y-90833333D02*
X143981009Y-90880952D01*
X143981009Y-90880952D02*
X143933390Y-90928571D01*
X143933390Y-90928571D02*
X143885771Y-91023809D01*
X143885771Y-91023809D02*
X143885771Y-91214285D01*
X143885771Y-91214285D02*
X143933390Y-91309523D01*
X143933390Y-91309523D02*
X143981009Y-91357142D01*
X143981009Y-91357142D02*
X144076247Y-91404761D01*
D14*
X133143832Y-118982142D02*
X133162880Y-119001190D01*
X133162880Y-119001190D02*
X133181927Y-119058332D01*
X133181927Y-119058332D02*
X133181927Y-119096428D01*
X133181927Y-119096428D02*
X133162880Y-119153571D01*
X133162880Y-119153571D02*
X133124784Y-119191666D01*
X133124784Y-119191666D02*
X133086689Y-119210713D01*
X133086689Y-119210713D02*
X133010499Y-119229761D01*
X133010499Y-119229761D02*
X132953356Y-119229761D01*
X132953356Y-119229761D02*
X132877165Y-119210713D01*
X132877165Y-119210713D02*
X132839070Y-119191666D01*
X132839070Y-119191666D02*
X132800975Y-119153571D01*
X132800975Y-119153571D02*
X132781927Y-119096428D01*
X132781927Y-119096428D02*
X132781927Y-119058332D01*
X132781927Y-119058332D02*
X132800975Y-119001190D01*
X132800975Y-119001190D02*
X132820022Y-118982142D01*
X133181927Y-118601190D02*
X133181927Y-118829761D01*
X133181927Y-118715475D02*
X132781927Y-118715475D01*
X132781927Y-118715475D02*
X132839070Y-118753571D01*
X132839070Y-118753571D02*
X132877165Y-118791666D01*
X132877165Y-118791666D02*
X132896213Y-118829761D01*
X132915260Y-118258333D02*
X133181927Y-118258333D01*
X132762880Y-118353571D02*
X133048594Y-118448809D01*
X133048594Y-118448809D02*
X133048594Y-118201190D01*
D10*
X136589765Y-102041666D02*
X136601670Y-102053570D01*
X136601670Y-102053570D02*
X136613574Y-102089285D01*
X136613574Y-102089285D02*
X136613574Y-102113094D01*
X136613574Y-102113094D02*
X136601670Y-102148808D01*
X136601670Y-102148808D02*
X136577860Y-102172618D01*
X136577860Y-102172618D02*
X136554050Y-102184523D01*
X136554050Y-102184523D02*
X136506431Y-102196427D01*
X136506431Y-102196427D02*
X136470717Y-102196427D01*
X136470717Y-102196427D02*
X136423098Y-102184523D01*
X136423098Y-102184523D02*
X136399289Y-102172618D01*
X136399289Y-102172618D02*
X136375479Y-102148808D01*
X136375479Y-102148808D02*
X136363574Y-102113094D01*
X136363574Y-102113094D02*
X136363574Y-102089285D01*
X136363574Y-102089285D02*
X136375479Y-102053570D01*
X136375479Y-102053570D02*
X136387384Y-102041666D01*
X136613574Y-101803570D02*
X136613574Y-101946427D01*
X136613574Y-101874999D02*
X136363574Y-101874999D01*
X136363574Y-101874999D02*
X136399289Y-101898808D01*
X136399289Y-101898808D02*
X136423098Y-101922618D01*
X136423098Y-101922618D02*
X136435003Y-101946427D01*
X133589765Y-92041666D02*
X133601670Y-92053570D01*
X133601670Y-92053570D02*
X133613574Y-92089285D01*
X133613574Y-92089285D02*
X133613574Y-92113094D01*
X133613574Y-92113094D02*
X133601670Y-92148808D01*
X133601670Y-92148808D02*
X133577860Y-92172618D01*
X133577860Y-92172618D02*
X133554050Y-92184523D01*
X133554050Y-92184523D02*
X133506431Y-92196427D01*
X133506431Y-92196427D02*
X133470717Y-92196427D01*
X133470717Y-92196427D02*
X133423098Y-92184523D01*
X133423098Y-92184523D02*
X133399289Y-92172618D01*
X133399289Y-92172618D02*
X133375479Y-92148808D01*
X133375479Y-92148808D02*
X133363574Y-92113094D01*
X133363574Y-92113094D02*
X133363574Y-92089285D01*
X133363574Y-92089285D02*
X133375479Y-92053570D01*
X133375479Y-92053570D02*
X133387384Y-92041666D01*
X133363574Y-91958332D02*
X133363574Y-91791666D01*
X133363574Y-91791666D02*
X133613574Y-91898808D01*
D11*
X134854819Y-122083333D02*
X135569104Y-122083333D01*
X135569104Y-122083333D02*
X135711961Y-122130952D01*
X135711961Y-122130952D02*
X135807200Y-122226190D01*
X135807200Y-122226190D02*
X135854819Y-122369047D01*
X135854819Y-122369047D02*
X135854819Y-122464285D01*
X134950057Y-121654761D02*
X134902438Y-121607142D01*
X134902438Y-121607142D02*
X134854819Y-121511904D01*
X134854819Y-121511904D02*
X134854819Y-121273809D01*
X134854819Y-121273809D02*
X134902438Y-121178571D01*
X134902438Y-121178571D02*
X134950057Y-121130952D01*
X134950057Y-121130952D02*
X135045295Y-121083333D01*
X135045295Y-121083333D02*
X135140533Y-121083333D01*
X135140533Y-121083333D02*
X135283390Y-121130952D01*
X135283390Y-121130952D02*
X135854819Y-121702380D01*
X135854819Y-121702380D02*
X135854819Y-121083333D01*
D10*
X133589765Y-106561666D02*
X133601670Y-106573570D01*
X133601670Y-106573570D02*
X133613574Y-106609285D01*
X133613574Y-106609285D02*
X133613574Y-106633094D01*
X133613574Y-106633094D02*
X133601670Y-106668808D01*
X133601670Y-106668808D02*
X133577860Y-106692618D01*
X133577860Y-106692618D02*
X133554050Y-106704523D01*
X133554050Y-106704523D02*
X133506431Y-106716427D01*
X133506431Y-106716427D02*
X133470717Y-106716427D01*
X133470717Y-106716427D02*
X133423098Y-106704523D01*
X133423098Y-106704523D02*
X133399289Y-106692618D01*
X133399289Y-106692618D02*
X133375479Y-106668808D01*
X133375479Y-106668808D02*
X133363574Y-106633094D01*
X133363574Y-106633094D02*
X133363574Y-106609285D01*
X133363574Y-106609285D02*
X133375479Y-106573570D01*
X133375479Y-106573570D02*
X133387384Y-106561666D01*
X133363574Y-106478332D02*
X133363574Y-106323570D01*
X133363574Y-106323570D02*
X133458812Y-106406904D01*
X133458812Y-106406904D02*
X133458812Y-106371189D01*
X133458812Y-106371189D02*
X133470717Y-106347380D01*
X133470717Y-106347380D02*
X133482622Y-106335475D01*
X133482622Y-106335475D02*
X133506431Y-106323570D01*
X133506431Y-106323570D02*
X133565955Y-106323570D01*
X133565955Y-106323570D02*
X133589765Y-106335475D01*
X133589765Y-106335475D02*
X133601670Y-106347380D01*
X133601670Y-106347380D02*
X133613574Y-106371189D01*
X133613574Y-106371189D02*
X133613574Y-106442618D01*
X133613574Y-106442618D02*
X133601670Y-106466427D01*
X133601670Y-106466427D02*
X133589765Y-106478332D01*
X142456667Y-125618200D02*
X142370000Y-125494391D01*
X142308095Y-125618200D02*
X142308095Y-125358200D01*
X142308095Y-125358200D02*
X142407143Y-125358200D01*
X142407143Y-125358200D02*
X142431905Y-125370581D01*
X142431905Y-125370581D02*
X142444286Y-125382962D01*
X142444286Y-125382962D02*
X142456667Y-125407724D01*
X142456667Y-125407724D02*
X142456667Y-125444867D01*
X142456667Y-125444867D02*
X142444286Y-125469629D01*
X142444286Y-125469629D02*
X142431905Y-125482010D01*
X142431905Y-125482010D02*
X142407143Y-125494391D01*
X142407143Y-125494391D02*
X142308095Y-125494391D01*
X142679524Y-125358200D02*
X142630000Y-125358200D01*
X142630000Y-125358200D02*
X142605238Y-125370581D01*
X142605238Y-125370581D02*
X142592857Y-125382962D01*
X142592857Y-125382962D02*
X142568095Y-125420105D01*
X142568095Y-125420105D02*
X142555714Y-125469629D01*
X142555714Y-125469629D02*
X142555714Y-125568677D01*
X142555714Y-125568677D02*
X142568095Y-125593439D01*
X142568095Y-125593439D02*
X142580476Y-125605820D01*
X142580476Y-125605820D02*
X142605238Y-125618200D01*
X142605238Y-125618200D02*
X142654762Y-125618200D01*
X142654762Y-125618200D02*
X142679524Y-125605820D01*
X142679524Y-125605820D02*
X142691905Y-125593439D01*
X142691905Y-125593439D02*
X142704286Y-125568677D01*
X142704286Y-125568677D02*
X142704286Y-125506772D01*
X142704286Y-125506772D02*
X142691905Y-125482010D01*
X142691905Y-125482010D02*
X142679524Y-125469629D01*
X142679524Y-125469629D02*
X142654762Y-125457248D01*
X142654762Y-125457248D02*
X142605238Y-125457248D01*
X142605238Y-125457248D02*
X142580476Y-125469629D01*
X142580476Y-125469629D02*
X142568095Y-125482010D01*
X142568095Y-125482010D02*
X142555714Y-125506772D01*
%TO.C,C11*%
D17*
X132520000Y-103750000D02*
X133520000Y-103750000D01*
X133520000Y-104250000D01*
X132520000Y-104250000D01*
X132520000Y-103750000D01*
%TO.C,J1*%
X137430000Y-132140000D02*
X144780000Y-132140000D01*
X144780000Y-141080000D01*
X137430000Y-141080000D01*
X137430000Y-132140000D01*
%TO.C,U4*%
X141962500Y-127100000D02*
X143162500Y-127100000D01*
X143162500Y-130000000D01*
X141562500Y-130000000D01*
X141562500Y-127500000D01*
X141962500Y-127100000D01*
%TO.C,L2*%
X132985000Y-102250000D02*
X133985000Y-102250000D01*
X133985000Y-102750000D01*
X132985000Y-102750000D01*
X132985000Y-102250000D01*
%TO.C,J4*%
X139050000Y-80000000D02*
G75*
G02*
X136950000Y-80000000I-1050000J0D01*
G01*
X136950000Y-80000000D02*
G75*
G02*
X139050000Y-80000000I1050000J0D01*
G01*
X143650000Y-80000000D02*
G75*
G02*
X141550000Y-80000000I-1050000J0D01*
G01*
X141550000Y-80000000D02*
G75*
G02*
X143650000Y-80000000I1050000J0D01*
G01*
%TO.C,U1*%
X136300000Y-104450000D02*
X142300000Y-104450000D01*
X142300000Y-111450000D01*
X135300000Y-111450000D01*
X135300000Y-105450000D01*
X136300000Y-104450000D01*
%TO.C,U6*%
X138962500Y-121600000D02*
X140162500Y-121600000D01*
X140162500Y-124500000D01*
X138562500Y-124500000D01*
X138562500Y-122000000D01*
X138962500Y-121600000D01*
%TO.C,U3*%
X142187500Y-118062500D02*
X144437500Y-118062500D01*
X144437500Y-121062500D01*
X141437500Y-121062500D01*
X141437500Y-118812500D01*
X142187500Y-118062500D01*
%TO.C,M1*%
X136500000Y-84000000D02*
G75*
G02*
X132500000Y-84000000I-2000000J0D01*
G01*
X132500000Y-84000000D02*
G75*
G02*
X136500000Y-84000000I2000000J0D01*
G01*
%TO.C,C6*%
X134750000Y-90520000D02*
X135250000Y-90520000D01*
X135250000Y-91520000D01*
X134750000Y-91520000D01*
X134750000Y-90520000D01*
%TO.C,R3*%
X143730000Y-115485000D02*
X144270000Y-115485000D01*
X144270000Y-116535000D01*
X143730000Y-116535000D01*
X143730000Y-115485000D01*
%TO.C,C4*%
X135250000Y-87520000D02*
X135750000Y-87520000D01*
X135750000Y-88520000D01*
X135250000Y-88520000D01*
X135250000Y-87520000D01*
%TO.C,C8*%
X133200000Y-141100000D02*
X134800000Y-141100000D01*
X134800000Y-141900000D01*
X133200000Y-141900000D01*
X133200000Y-141100000D01*
%TO.C,R1*%
X141975000Y-124230000D02*
X143025000Y-124230000D01*
X143025000Y-124770000D01*
X141975000Y-124770000D01*
X141975000Y-124230000D01*
%TO.C,U5*%
X136600000Y-127050000D02*
X137800000Y-127050000D01*
X137800000Y-129950000D01*
X136200000Y-129950000D01*
X136200000Y-127450000D01*
X136600000Y-127050000D01*
%TO.C,J3*%
X135100000Y-114660000D02*
X135100000Y-118060000D01*
X135100000Y-118060000D02*
X136700000Y-118060000D01*
X136700000Y-114660000D02*
X135100000Y-114660000D01*
X136700000Y-118060000D02*
X136700000Y-114660000D01*
%TO.C,C10*%
X133250000Y-89020000D02*
X133750000Y-89020000D01*
X133750000Y-90020000D01*
X133250000Y-90020000D01*
X133250000Y-89020000D01*
%TO.C,J5*%
X135050000Y-75200000D02*
G75*
G02*
X132950000Y-75200000I-1050000J0D01*
G01*
X132950000Y-75200000D02*
G75*
G02*
X135050000Y-75200000I1050000J0D01*
G01*
X135050000Y-79800000D02*
G75*
G02*
X132950000Y-79800000I-1050000J0D01*
G01*
X132950000Y-79800000D02*
G75*
G02*
X135050000Y-79800000I1050000J0D01*
G01*
%TO.C,R7*%
X132230000Y-135475000D02*
X132770000Y-135475000D01*
X132770000Y-136525000D01*
X132230000Y-136525000D01*
X132230000Y-135475000D01*
%TO.C,R4*%
X133730000Y-86965000D02*
X134270000Y-86965000D01*
X134270000Y-88015000D01*
X133730000Y-88015000D01*
X133730000Y-86965000D01*
%TO.C,C9*%
X133475000Y-138600000D02*
X135075000Y-138600000D01*
X135075000Y-139400000D01*
X133475000Y-139400000D01*
X133475000Y-138600000D01*
%TO.C,R5*%
X141975000Y-122730000D02*
X143025000Y-122730000D01*
X143025000Y-123270000D01*
X141975000Y-123270000D01*
X141975000Y-122730000D01*
%TO.C,C2*%
X142750000Y-102020000D02*
X143250000Y-102020000D01*
X143250000Y-103020000D01*
X142750000Y-103020000D01*
X142750000Y-102020000D01*
%TO.C,R2*%
X144230000Y-123465000D02*
X144770000Y-123465000D01*
X144770000Y-124515000D01*
X144230000Y-124515000D01*
X144230000Y-123465000D01*
%TO.C,C5*%
X136250000Y-86480000D02*
X136750000Y-86480000D01*
X136750000Y-87480000D01*
X136250000Y-87480000D01*
X136250000Y-86480000D01*
%TO.C,C12*%
X132655000Y-101250000D02*
X133655000Y-101250000D01*
X133655000Y-101750000D01*
X132655000Y-101750000D01*
X132655000Y-101250000D01*
%TO.C,Y1*%
X137650000Y-101250000D02*
X137650000Y-102750000D01*
X137650000Y-101250000D02*
X140850000Y-101250000D01*
X137650000Y-102750000D02*
X140850000Y-102750000D01*
X140850000Y-101250000D02*
X140850000Y-102750000D01*
%TO.C,J8*%
X132975000Y-98800000D02*
X132975000Y-98350000D01*
X132975000Y-98800000D02*
X133225000Y-98800000D01*
X133125000Y-98200000D02*
X132975000Y-98350000D01*
X133125000Y-98200000D02*
X133225000Y-98200000D01*
X133225000Y-98200000D02*
X133225000Y-97200000D01*
X133225000Y-98800000D02*
X133225000Y-99800000D01*
X133625000Y-97000000D02*
X133625000Y-97200000D01*
X133625000Y-97000000D02*
X135425000Y-97000000D01*
X133625000Y-97200000D02*
X133225000Y-97200000D01*
X133625000Y-99800000D02*
X133225000Y-99800000D01*
X133625000Y-100000000D02*
X133625000Y-99800000D01*
X133625000Y-100000000D02*
X135425000Y-100000000D01*
X135425000Y-97000000D02*
X135425000Y-97200000D01*
X135425000Y-100000000D02*
X135425000Y-99800000D01*
X135825000Y-97200000D02*
X135425000Y-97200000D01*
X135825000Y-97200000D02*
X135825000Y-99800000D01*
X135825000Y-99800000D02*
X135425000Y-99800000D01*
%TO.C,J7*%
X139450000Y-75500000D02*
G75*
G02*
X137350000Y-75500000I-1050000J0D01*
G01*
X137350000Y-75500000D02*
G75*
G02*
X139450000Y-75500000I1050000J0D01*
G01*
X144050000Y-75500000D02*
G75*
G02*
X141950000Y-75500000I-1050000J0D01*
G01*
X141950000Y-75500000D02*
G75*
G02*
X144050000Y-75500000I1050000J0D01*
G01*
%TO.C,U2*%
X139350000Y-113937500D02*
X141600000Y-113937500D01*
X141600000Y-116937500D01*
X138600000Y-116937500D01*
X138600000Y-114687500D01*
X139350000Y-113937500D01*
%TO.C,C13*%
X132600000Y-114700000D02*
X133400000Y-114700000D01*
X133400000Y-116300000D01*
X132600000Y-116300000D01*
X132600000Y-114700000D01*
%TO.C,L1*%
X134100000Y-134700000D02*
X134900000Y-134700000D01*
X134900000Y-136300000D01*
X134100000Y-136300000D01*
X134100000Y-134700000D01*
%TO.C,J6*%
X139150000Y-83950000D02*
X143750000Y-83950000D01*
X139150000Y-91500000D02*
X139150000Y-83950000D01*
X139150000Y-91500000D02*
X139150000Y-99050000D01*
X139150000Y-97750000D02*
X139857107Y-97250000D01*
X139150000Y-99050000D02*
X143750000Y-99050000D01*
X139857107Y-97250000D02*
X139150000Y-96750000D01*
X143750000Y-83950000D02*
X143750000Y-84550000D01*
X143750000Y-84550000D02*
X144050000Y-84550000D01*
X143750000Y-98450000D02*
X144050000Y-98450000D01*
X143750000Y-99050000D02*
X143750000Y-98450000D01*
X144050000Y-84050000D02*
X144750000Y-84050000D01*
X144050000Y-84550000D02*
X144050000Y-84050000D01*
X144050000Y-98450000D02*
X144050000Y-98950000D01*
X144050000Y-98950000D02*
X144750000Y-98950000D01*
X144750000Y-84050000D02*
X144750000Y-91500000D01*
X144750000Y-98950000D02*
X144750000Y-91500000D01*
%TO.C,C14*%
X132600000Y-117925000D02*
X133400000Y-117925000D01*
X133400000Y-119525000D01*
X132600000Y-119525000D01*
X132600000Y-117925000D01*
%TO.C,C1*%
X136250000Y-101500000D02*
X136750000Y-101500000D01*
X136750000Y-102500000D01*
X136250000Y-102500000D01*
X136250000Y-101500000D01*
%TO.C,C7*%
X133250000Y-91500000D02*
X133750000Y-91500000D01*
X133750000Y-92500000D01*
X133250000Y-92500000D01*
X133250000Y-91500000D01*
%TO.C,J2*%
X134600000Y-119750000D02*
X134600000Y-123750000D01*
X134600000Y-123750000D02*
X136200000Y-123750000D01*
X136200000Y-119750000D02*
X134600000Y-119750000D01*
X136200000Y-123750000D02*
X136200000Y-119750000D01*
%TO.C,C3*%
X133250000Y-106020000D02*
X133750000Y-106020000D01*
X133750000Y-107020000D01*
X133250000Y-107020000D01*
X133250000Y-106020000D01*
%TO.C,R6*%
X141975000Y-125230000D02*
X143025000Y-125230000D01*
X143025000Y-125770000D01*
X141975000Y-125770000D01*
X141975000Y-125230000D01*
%TD*%
M02*
