%TF.GenerationSoftware,KiCad,Pcbnew,10.0.5*%
%TF.CreationDate,2026-09-07T16:14:22-05:00*%
%TF.ProjectId,arc-insight-board,6172632d-7669-4736-996f-6e2d626f6172,rev?*%
%TF.SameCoordinates,Original*%
%TF.FileFunction,Copper,L1,Top*%
%TF.FilePolarity,Positive*%
%FSLAX46Y46*%
G04 Gerber Fmt 4.6, Leading zero omitted, Abs format (unit mm)*
G04 Created by KiCad (PCBNEW 10.0.5) date 2026-09-07 16:14:22*
%MOMM*%
%LPD*%
G01*
G04 APERTURE LIST*
G04 Aperture macros list*
%AMRoundRect*
0 Rectangle with rounded corners*
0 $1 Rounding radius*
0 $2 $3 $4 $5 $6 $7 $8 $9 X,Y pos of 4 corners*
0 Add a 4 corners polygon primitive as box body*
4,1,4,$2,$3,$4,$5,$6,$7,$8,$9,$2,$3,0*
0 Add four circle primitives for the rounded corners*
1,1,$1+$1,$2,$3*
1,1,$1+$1,$4,$5*
1,1,$1+$1,$6,$7*
1,1,$1+$1,$8,$9*
0 Add four rect primitives between the rounded corners*
20,1,$1+$1,$2,$3,$4,$5,0*
20,1,$1+$1,$4,$5,$6,$7,0*
20,1,$1+$1,$6,$7,$8,$9,0*
20,1,$1+$1,$8,$9,$2,$3,0*%
%AMFreePoly0*
4,1,88,0.050959,0.371253,0.114455,0.371253,0.341408,0.341374,0.562519,0.282128,0.774005,0.194527,0.972248,0.080072,1.153855,-0.059280,1.315720,-0.221145,1.455072,-0.402752,1.569527,-0.600995,1.657128,-0.812481,1.716374,-1.033592,1.746253,-1.260545,1.746253,-1.489455,1.716374,-1.716408,1.657128,-1.937519,1.569527,-2.149005,1.455072,-2.347248,1.315720,-2.528855,1.153855,-2.690720,
0.972248,-2.830072,0.774005,-2.944527,0.562519,-3.032128,0.341408,-3.091374,0.114455,-3.121253,-0.114455,-3.121253,-0.341408,-3.091374,-0.562519,-3.032128,-0.774005,-2.944527,-0.972248,-2.830072,-1.153855,-2.690720,-1.315720,-2.528855,-1.455072,-2.347248,-1.569527,-2.149005,-1.657128,-1.937519,-1.716374,-1.716408,-1.746253,-1.489455,-1.746253,-1.276509,-1.000000,-1.276509,-1.000000,-1.473491,
-0.961571,-1.666689,-0.886189,-1.848678,-0.776751,-2.012463,-0.637463,-2.151751,-0.473678,-2.261189,-0.291689,-2.336571,-0.098491,-2.375000,0.098491,-2.375000,0.291689,-2.336571,0.473678,-2.261189,0.637463,-2.151751,0.776751,-2.012463,0.886189,-1.848678,0.961571,-1.666689,1.000000,-1.473491,1.000000,-1.276509,0.961571,-1.083311,0.886189,-0.901322,0.776751,-0.737537,0.637463,-0.598249,
0.473678,-0.488811,0.291689,-0.413429,0.098491,-0.375000,-0.098491,-0.375000,-0.291689,-0.413429,-0.473678,-0.488811,-0.637463,-0.598249,-0.776751,-0.737537,-0.886189,-0.901322,-0.961571,-1.083311,-1.000000,-1.276509,-1.746253,-1.276509,-1.746253,-1.260545,-1.716374,-1.033592,-1.657128,-0.812481,-1.569527,-0.600995,-1.455072,-0.402752,-1.315720,-0.221145,-1.153855,-0.059280,-0.972248,0.080072,
-0.774005,0.194527,-0.562519,0.282128,-0.341408,0.341374,-0.114455,0.371253,-0.050959,0.371253,-0.048947,0.371792,0.048947,0.371792,0.050959,0.371253,0.050959,0.371253,$1*%
G04 Aperture macros list end*
%TA.AperFunction,SMDPad,CuDef*%
%ADD10RoundRect,0.140000X-0.140000X-0.170000X0.140000X-0.170000X0.140000X0.170000X-0.140000X0.170000X0*%
%TD*%
%TA.AperFunction,SMDPad,CuDef*%
%ADD11RoundRect,0.150000X0.425000X-0.150000X0.425000X0.150000X-0.425000X0.150000X-0.425000X-0.150000X0*%
%TD*%
%TA.AperFunction,SMDPad,CuDef*%
%ADD12RoundRect,0.075000X0.500000X-0.075000X0.500000X0.075000X-0.500000X0.075000X-0.500000X-0.075000X0*%
%TD*%
%TA.AperFunction,ComponentPad*%
%ADD13O,2.100000X1.000000*%
%TD*%
%TA.AperFunction,ComponentPad*%
%ADD14O,1.800000X1.000000*%
%TD*%
%TA.AperFunction,SMDPad,CuDef*%
%ADD15RoundRect,0.150000X-0.512500X-0.150000X0.512500X-0.150000X0.512500X0.150000X-0.512500X0.150000X0*%
%TD*%
%TA.AperFunction,SMDPad,CuDef*%
%ADD16RoundRect,0.147500X-0.147500X-0.172500X0.147500X-0.172500X0.147500X0.172500X-0.147500X0.172500X0*%
%TD*%
%TA.AperFunction,ComponentPad*%
%ADD17RoundRect,0.250000X-0.825000X-0.825000X0.825000X-0.825000X0.825000X0.825000X-0.825000X0.825000X0*%
%TD*%
%TA.AperFunction,ComponentPad*%
%ADD18C,2.150000*%
%TD*%
%TA.AperFunction,SMDPad,CuDef*%
%ADD19RoundRect,0.050000X-0.350000X-0.050000X0.350000X-0.050000X0.350000X0.050000X-0.350000X0.050000X0*%
%TD*%
%TA.AperFunction,SMDPad,CuDef*%
%ADD20RoundRect,0.050000X-0.050000X-0.350000X0.050000X-0.350000X0.050000X0.350000X-0.050000X0.350000X0*%
%TD*%
%TA.AperFunction,HeatsinkPad*%
%ADD21R,4.000000X4.000000*%
%TD*%
%TA.AperFunction,SMDPad,CuDef*%
%ADD22RoundRect,0.062500X-0.350000X-0.062500X0.350000X-0.062500X0.350000X0.062500X-0.350000X0.062500X0*%
%TD*%
%TA.AperFunction,SMDPad,CuDef*%
%ADD23RoundRect,0.062500X-0.062500X-0.350000X0.062500X-0.350000X0.062500X0.350000X-0.062500X0.350000X0*%
%TD*%
%TA.AperFunction,HeatsinkPad*%
%ADD24R,1.230000X1.230000*%
%TD*%
%TA.AperFunction,SMDPad,CuDef*%
%ADD25FreePoly0,0.000000*%
%TD*%
%TA.AperFunction,SMDPad,CuDef*%
%ADD26C,1.000000*%
%TD*%
%TA.AperFunction,SMDPad,CuDef*%
%ADD27RoundRect,0.140000X0.170000X-0.140000X0.170000X0.140000X-0.170000X0.140000X-0.170000X-0.140000X0*%
%TD*%
%TA.AperFunction,SMDPad,CuDef*%
%ADD28RoundRect,0.135000X0.185000X-0.135000X0.185000X0.135000X-0.185000X0.135000X-0.185000X-0.135000X0*%
%TD*%
%TA.AperFunction,SMDPad,CuDef*%
%ADD29RoundRect,0.225000X-0.225000X-0.250000X0.225000X-0.250000X0.225000X0.250000X-0.225000X0.250000X0*%
%TD*%
%TA.AperFunction,SMDPad,CuDef*%
%ADD30RoundRect,0.135000X-0.135000X-0.185000X0.135000X-0.185000X0.135000X0.185000X-0.135000X0.185000X0*%
%TD*%
%TA.AperFunction,SMDPad,CuDef*%
%ADD31R,0.800000X0.480000*%
%TD*%
%TA.AperFunction,SMDPad,CuDef*%
%ADD32R,0.800000X0.320000*%
%TD*%
%TA.AperFunction,ComponentPad*%
%ADD33RoundRect,0.250000X0.825000X-0.825000X0.825000X0.825000X-0.825000X0.825000X-0.825000X-0.825000X0*%
%TD*%
%TA.AperFunction,SMDPad,CuDef*%
%ADD34RoundRect,0.135000X0.135000X0.185000X-0.135000X0.185000X-0.135000X-0.185000X0.135000X-0.185000X0*%
%TD*%
%TA.AperFunction,SMDPad,CuDef*%
%ADD35RoundRect,0.140000X-0.170000X0.140000X-0.170000X-0.140000X0.170000X-0.140000X0.170000X0.140000X0*%
%TD*%
%TA.AperFunction,SMDPad,CuDef*%
%ADD36R,1.000000X1.800000*%
%TD*%
%TA.AperFunction,SMDPad,CuDef*%
%ADD37RoundRect,0.250000X-0.275000X-0.250000X0.275000X-0.250000X0.275000X0.250000X-0.275000X0.250000X0*%
%TD*%
%TA.AperFunction,SMDPad,CuDef*%
%ADD38RoundRect,0.250000X-0.850000X-0.275000X0.850000X-0.275000X0.850000X0.275000X-0.850000X0.275000X0*%
%TD*%
%TA.AperFunction,SMDPad,CuDef*%
%ADD39RoundRect,0.225000X-0.250000X0.225000X-0.250000X-0.225000X0.250000X-0.225000X0.250000X0.225000X0*%
%TD*%
%TA.AperFunction,SMDPad,CuDef*%
%ADD40RoundRect,0.218750X0.256250X-0.218750X0.256250X0.218750X-0.256250X0.218750X-0.256250X-0.218750X0*%
%TD*%
%TA.AperFunction,SMDPad,CuDef*%
%ADD41R,1.300000X0.300000*%
%TD*%
%TA.AperFunction,SMDPad,CuDef*%
%ADD42R,2.200000X1.800000*%
%TD*%
%TA.AperFunction,SMDPad,CuDef*%
%ADD43RoundRect,0.225000X0.250000X-0.225000X0.250000X0.225000X-0.250000X0.225000X-0.250000X-0.225000X0*%
%TD*%
%TA.AperFunction,SMDPad,CuDef*%
%ADD44R,0.800000X0.300000*%
%TD*%
%TA.AperFunction,ViaPad*%
%ADD45C,0.600000*%
%TD*%
%TA.AperFunction,Conductor*%
%ADD46C,0.127000*%
%TD*%
G04 APERTURE END LIST*
D10*
%TO.P,C11,1*%
%TO.N,/RF_ANT*%
X132540000Y-104000000D03*
%TO.P,C11,2*%
%TO.N,GND*%
X133500000Y-104000000D03*
%TD*%
D11*
%TO.P,J1,A1,GND_A1*%
%TO.N,GND*%
X137425000Y-139810000D03*
%TO.P,J1,A4,VBUS_A4*%
%TO.N,Net-(U4-IN)*%
X137425000Y-139010000D03*
D12*
%TO.P,J1,A5,CC1_A5*%
%TO.N,unconnected-(J1-CC1-PadA5)*%
X137425000Y-137860000D03*
%TO.P,J1,A6,D+_A6*%
%TO.N,Net-(J1-D+-PadA6)*%
X137425000Y-136860000D03*
%TO.P,J1,A7,D-_A7*%
%TO.N,unconnected-(J1-D--PadA7)*%
X137425000Y-136360000D03*
%TO.P,J1,A8,SBU1_A8*%
%TO.N,unconnected-(J1-SBU1-PadA8)*%
X137425000Y-135360000D03*
D11*
%TO.P,J1,A9,VBUS_A9*%
%TO.N,Net-(U4-IN)*%
X137425000Y-134210000D03*
%TO.P,J1,A12,GND_A12*%
%TO.N,GND*%
X137425000Y-133410000D03*
%TO.P,J1,B1,GND_B1*%
X137425000Y-133410000D03*
%TO.P,J1,B4,VBUS_B4*%
%TO.N,Net-(U4-IN)*%
X137425000Y-134210000D03*
D12*
%TO.P,J1,B5,CC2_B5*%
%TO.N,unconnected-(J1-CC2-PadB5)*%
X137425000Y-134860000D03*
%TO.P,J1,B6,D+_B6*%
%TO.N,unconnected-(J1-D+-PadB6)*%
X137425000Y-135860000D03*
%TO.P,J1,B7,D-_B7*%
%TO.N,Net-(J1-D--PadB7)*%
X137425000Y-137360000D03*
%TO.P,J1,B8,SBU2_B8*%
%TO.N,unconnected-(J1-SBU2-PadB8)*%
X137425000Y-138360000D03*
D11*
%TO.P,J1,B9,VBUS_B9*%
%TO.N,Net-(U4-IN)*%
X137425000Y-139010000D03*
%TO.P,J1,B12,GND_B12*%
%TO.N,GND*%
X137425000Y-139810000D03*
D13*
%TO.P,J1,SH,SHIELD_SH*%
%TO.N,unconnected-(J1-SHIELD-PadSH)_2*%
X138000000Y-140930000D03*
D14*
%TO.N,unconnected-(J1-SHIELD-PadSH)_1*%
X142180000Y-140930000D03*
D13*
%TO.N,unconnected-(J1-SHIELD-PadSH)_3*%
X138000000Y-132290000D03*
D14*
%TO.N,unconnected-(J1-SHIELD-PadSH)*%
X142180000Y-132290000D03*
%TD*%
D15*
%TO.P,U4,1,IN_1*%
%TO.N,Net-(U4-IN)*%
X141225000Y-127600000D03*
%TO.P,U4,2,BAT_2*%
%TO.N,/VBAT*%
X141225000Y-128550000D03*
%TO.P,U4,3,GND_3*%
%TO.N,GND*%
X141225000Y-129500000D03*
%TO.P,U4,4,CHRG_4*%
%TO.N,unconnected-(U4-CHRG-Pad4)*%
X143500000Y-129500000D03*
%TO.P,U4,5,STDBY_5*%
%TO.N,unconnected-(U4-STDBY-Pad5)*%
X143500000Y-127600000D03*
%TD*%
D16*
%TO.P,L2,1,1_1*%
%TO.N,/ANT*%
X133000000Y-102500000D03*
%TO.P,L2,2,2_2*%
%TO.N,/RF_ANT*%
X133970000Y-102500000D03*
%TD*%
D17*
%TO.P,J4,1,Pin_1_1*%
%TO.N,Net-(J4-Pin_1)*%
X138000000Y-80000000D03*
D18*
%TO.P,J4,2,Pin_2_2*%
%TO.N,Net-(J4-Pin_2)*%
X142600000Y-80000000D03*
%TD*%
D19*
%TO.P,U1,1,LNA_IN_1*%
%TO.N,/RF_ANT*%
X135350000Y-105350000D03*
%TO.P,U1,2,VDD3P3_2*%
%TO.N,VCC*%
X135350000Y-105750000D03*
%TO.P,U1,3,VDD3P3_3*%
X135350000Y-106150000D03*
%TO.P,U1,4,CHIP_PU_4*%
%TO.N,Net-(U1-CHIP_PU)*%
X135350000Y-106550000D03*
%TO.P,U1,5,GPIO0_5*%
%TO.N,unconnected-(U1-GPIO0-Pad5)*%
X135350000Y-106950000D03*
%TO.P,U1,6,GPIO1_6*%
%TO.N,unconnected-(U1-GPIO1-Pad6)*%
X135350000Y-107350000D03*
%TO.P,U1,7,GPIO2_7*%
%TO.N,Net-(J3-Pin_5)*%
X135350000Y-107750000D03*
%TO.P,U1,8,GPIO3_8*%
%TO.N,unconnected-(U1-GPIO3-Pad8)*%
X135350000Y-108150000D03*
%TO.P,U1,9,GPIO4_9*%
%TO.N,Net-(J3-Pin_4)*%
X135350000Y-108550000D03*
%TO.P,U1,10,GPIO5_10*%
%TO.N,Net-(J3-Pin_3)*%
X135350000Y-108950000D03*
%TO.P,U1,11,GPIO6_11*%
%TO.N,Net-(U1-GPIO6)*%
X135350000Y-109350000D03*
%TO.P,U1,12,GPIO7_12*%
%TO.N,Net-(U1-GPIO7)*%
X135350000Y-109750000D03*
%TO.P,U1,13,GPIO8_13*%
%TO.N,Net-(U1-GPIO8)*%
X135350000Y-110150000D03*
%TO.P,U1,14,GPIO9_14*%
%TO.N,Net-(J2-Pin_3)*%
X135350000Y-110550000D03*
D20*
%TO.P,U1,15,GPIO10_15*%
%TO.N,/GPIO10*%
X136200000Y-111400000D03*
%TO.P,U1,16,GPIO11_16*%
%TO.N,/GPIO11*%
X136600000Y-111400000D03*
%TO.P,U1,17,GPIO12_17*%
%TO.N,/GPIO12*%
X137000000Y-111400000D03*
%TO.P,U1,18,GPIO13_18*%
%TO.N,Net-(U1-GPIO13)*%
X137400000Y-111400000D03*
%TO.P,U1,19,GPIO14_19*%
%TO.N,Net-(U1-GPIO14)*%
X137800000Y-111400000D03*
%TO.P,U1,20,VDD3P3_RTC_20*%
%TO.N,VCC*%
X138200000Y-111400000D03*
%TO.P,U1,21,XTAL_32K_P_21*%
%TO.N,unconnected-(U1-XTAL_32K_P-Pad21)*%
X138600000Y-111400000D03*
%TO.P,U1,22,XTAL_32K_N_22*%
%TO.N,unconnected-(U1-XTAL_32K_N-Pad22)*%
X139000000Y-111400000D03*
%TO.P,U1,23,GPIO17_23*%
%TO.N,unconnected-(U1-GPIO17-Pad23)*%
X139400000Y-111400000D03*
%TO.P,U1,24,GPIO18_24*%
%TO.N,Net-(U1-GPIO18)*%
X139800000Y-111400000D03*
%TO.P,U1,25,GPIO19/USB_D-_25*%
%TO.N,Net-(U1-GPIO19{slash}USB_D-)*%
X140200000Y-111400000D03*
%TO.P,U1,26,GPIO20/USB_D+_26*%
%TO.N,Net-(U1-GPIO20{slash}USB_D+)*%
X140600000Y-111400000D03*
%TO.P,U1,27,GPIO21_27*%
%TO.N,Net-(U1-GPIO21)*%
X141000000Y-111400000D03*
%TO.P,U1,28,SPICS1_28*%
%TO.N,unconnected-(U1-SPICS1-Pad28)*%
X141400000Y-111400000D03*
D19*
%TO.P,U1,29,VDD_SPI_29*%
%TO.N,VCC*%
X142250000Y-110550000D03*
%TO.P,U1,30,SPIHD_30*%
%TO.N,unconnected-(U1-SPIHD-Pad30)*%
X142250000Y-110150000D03*
%TO.P,U1,31,SPIWP_31*%
%TO.N,unconnected-(U1-SPIWP-Pad31)*%
X142250000Y-109750000D03*
%TO.P,U1,32,SPICS0_32*%
%TO.N,unconnected-(U1-SPICS0-Pad32)*%
X142250000Y-109350000D03*
%TO.P,U1,33,SPICLK_33*%
%TO.N,unconnected-(U1-SPICLK-Pad33)*%
X142250000Y-108950000D03*
%TO.P,U1,34,SPIQ_34*%
%TO.N,unconnected-(U1-SPIQ-Pad34)*%
X142250000Y-108550000D03*
%TO.P,U1,35,SPID_35*%
%TO.N,unconnected-(U1-SPID-Pad35)*%
X142250000Y-108150000D03*
%TO.P,U1,36,SPICLK_N_36*%
%TO.N,unconnected-(U1-SPICLK_N-Pad36)*%
X142250000Y-107750000D03*
%TO.P,U1,37,SPICLK_P_37*%
%TO.N,unconnected-(U1-SPICLK_P-Pad37)*%
X142250000Y-107350000D03*
%TO.P,U1,38,GPIO33_38*%
%TO.N,unconnected-(U1-GPIO33-Pad38)*%
X142250000Y-106950000D03*
%TO.P,U1,39,GPIO34_39*%
%TO.N,unconnected-(U1-GPIO34-Pad39)*%
X142250000Y-106550000D03*
%TO.P,U1,40,GPIO35_40*%
%TO.N,unconnected-(U1-GPIO35-Pad40)*%
X142250000Y-106150000D03*
%TO.P,U1,41,GPIO36_41*%
%TO.N,unconnected-(U1-GPIO36-Pad41)*%
X142250000Y-105750000D03*
%TO.P,U1,42,GPIO37_42*%
%TO.N,unconnected-(U1-GPIO37-Pad42)*%
X142250000Y-105350000D03*
D20*
%TO.P,U1,43,GPIO38_43*%
%TO.N,Net-(U1-GPIO38)*%
X141400000Y-104500000D03*
%TO.P,U1,44,MTCK_44*%
%TO.N,Net-(U1-MTCK)*%
X141000000Y-104500000D03*
%TO.P,U1,45,MTDO_45*%
%TO.N,Net-(U1-MTDO)*%
X140600000Y-104500000D03*
%TO.P,U1,46,VDD3P3_CPU_46*%
%TO.N,VCC*%
X140200000Y-104500000D03*
%TO.P,U1,47,MTDI_47*%
%TO.N,Net-(U1-MTDI)*%
X139800000Y-104500000D03*
%TO.P,U1,48,MTMS_48*%
%TO.N,Net-(U1-MTMS)*%
X139400000Y-104500000D03*
%TO.P,U1,49,U0TXD_49*%
%TO.N,Net-(U1-U0TXD)*%
X139000000Y-104500000D03*
%TO.P,U1,50,U0RXD_50*%
%TO.N,Net-(U1-U0RXD)*%
X138600000Y-104500000D03*
%TO.P,U1,51,GPIO45_51*%
%TO.N,Net-(U1-GPIO45)*%
X138200000Y-104500000D03*
%TO.P,U1,52,GPIO46_52*%
%TO.N,unconnected-(U1-GPIO46-Pad52)*%
X137800000Y-104500000D03*
%TO.P,U1,53,XTAL_N_53*%
%TO.N,Net-(U1-XTAL_N)*%
X137400000Y-104500000D03*
%TO.P,U1,54,XTAL_P_54*%
%TO.N,Net-(U1-XTAL_P)*%
X137000000Y-104500000D03*
%TO.P,U1,55,VDDA_55*%
%TO.N,VCC*%
X136600000Y-104500000D03*
%TO.P,U1,56,VDDA_56*%
X136200000Y-104500000D03*
D21*
%TO.P,U1,57,GND_57*%
%TO.N,GND*%
X138800000Y-107950000D03*
%TD*%
D15*
%TO.P,U6,1,V_{IN}_1*%
%TO.N,/VBAT*%
X138225000Y-122100000D03*
%TO.P,U6,2,V_{SS}_2*%
%TO.N,GND*%
X138225000Y-123050000D03*
%TO.P,U6,3,CE_3*%
%TO.N,/VBAT*%
X138225000Y-124000000D03*
%TO.P,U6,4,NC_4*%
%TO.N,unconnected-(U6-NC-Pad4)*%
X140500000Y-124000000D03*
%TO.P,U6,5,V_{OUT}_5*%
%TO.N,VCC*%
X140500000Y-122100000D03*
%TD*%
D22*
%TO.P,U3,1,DIN_1*%
%TO.N,/GPIO12*%
X141500000Y-118812500D03*
%TO.P,U3,2,GAIN_SLOT_2*%
%TO.N,GND*%
X141500000Y-119312500D03*
%TO.P,U3,3,GND_3*%
X141500000Y-119812500D03*
%TO.P,U3,4,~{SD_MODE}_4*%
%TO.N,/VBAT*%
X141500000Y-120312500D03*
D23*
%TO.P,U3,5,NC_5*%
%TO.N,unconnected-(U3-NC-Pad5)*%
X142187500Y-121000000D03*
%TO.P,U3,6,NC_6*%
%TO.N,unconnected-(U3-NC-Pad6)*%
X142687500Y-121000000D03*
%TO.P,U3,7,VDD_7*%
%TO.N,/VBAT*%
X143187500Y-121000000D03*
%TO.P,U3,8,VDD_8*%
X143687500Y-121000000D03*
D22*
%TO.P,U3,9,OUTP_9*%
%TO.N,Net-(J4-Pin_1)*%
X144375000Y-120312500D03*
%TO.P,U3,10,OUTN_10*%
%TO.N,Net-(J4-Pin_2)*%
X144375000Y-119812500D03*
%TO.P,U3,11,GND_11*%
%TO.N,GND*%
X144375000Y-119312500D03*
%TO.P,U3,12,NC_12*%
%TO.N,unconnected-(U3-NC-Pad12)*%
X144375000Y-118812500D03*
D23*
%TO.P,U3,13,NC_13*%
%TO.N,unconnected-(U3-NC-Pad13)*%
X143687500Y-118125000D03*
%TO.P,U3,14,LRCLK_14*%
%TO.N,/GPIO10*%
X143187500Y-118125000D03*
%TO.P,U3,15,GND_15*%
%TO.N,GND*%
X142687500Y-118125000D03*
%TO.P,U3,16,BCLK_16*%
%TO.N,/GPIO11*%
X142187500Y-118125000D03*
D24*
%TO.P,U3,17,PAD_17*%
%TO.N,GND*%
X142937500Y-119562500D03*
%TD*%
D25*
%TO.P,M1,1,OUT_1*%
%TO.N,Net-(M1-OUT)*%
X134500000Y-82625000D03*
D26*
%TO.P,M1,2,VCC_2*%
X134500000Y-84000000D03*
%TD*%
D27*
%TO.P,C6,1*%
%TO.N,GND*%
X135000000Y-91500000D03*
%TO.P,C6,2*%
%TO.N,VCC*%
X135000000Y-90540000D03*
%TD*%
D28*
%TO.P,R3,1*%
%TO.N,Net-(J1-D--PadB7)*%
X144000000Y-116520000D03*
%TO.P,R3,2*%
%TO.N,Net-(U1-GPIO19{slash}USB_D-)*%
X144000000Y-115500000D03*
%TD*%
D27*
%TO.P,C4,1*%
%TO.N,GND*%
X135500000Y-88500000D03*
%TO.P,C4,2*%
%TO.N,VCC*%
X135500000Y-87540000D03*
%TD*%
D29*
%TO.P,C8,1*%
%TO.N,VCC*%
X133225000Y-141500000D03*
%TO.P,C8,2*%
%TO.N,GND*%
X134775000Y-141500000D03*
%TD*%
D30*
%TO.P,R1,1*%
%TO.N,VCC*%
X141990000Y-124500000D03*
%TO.P,R1,2*%
%TO.N,Net-(U1-CHIP_PU)*%
X143010000Y-124500000D03*
%TD*%
D15*
%TO.P,U5,1,IN+_1*%
%TO.N,Net-(U5-IN+)*%
X135862500Y-127550000D03*
%TO.P,U5,2,IN-_2*%
%TO.N,Net-(U5-IN-)*%
X135862500Y-128500000D03*
%TO.P,U5,3,GND_3*%
%TO.N,GND*%
X135862500Y-129450000D03*
%TO.P,U5,4,VCC_4*%
%TO.N,VCC*%
X138137500Y-129450000D03*
%TO.P,U5,5,OUT_5*%
%TO.N,Net-(U1-GPIO18)*%
X138137500Y-127550000D03*
%TD*%
D31*
%TO.P,J3,1,Pin_1_1*%
%TO.N,VCC*%
X135000000Y-115000000D03*
D32*
%TO.P,J3,2,Pin_2_2*%
%TO.N,GND*%
X135000000Y-115720000D03*
%TO.P,J3,3,Pin_3_3*%
%TO.N,Net-(J3-Pin_3)*%
X135000000Y-116360000D03*
%TO.P,J3,4,Pin_4_4*%
%TO.N,Net-(J3-Pin_4)*%
X135000000Y-117000000D03*
D31*
%TO.P,J3,5,Pin_5_5*%
%TO.N,Net-(J3-Pin_5)*%
X135000000Y-117720000D03*
%TO.P,J3,6*%
%TO.N,N/C*%
X136800000Y-117720000D03*
D32*
%TO.P,J3,7*%
X136800000Y-117000000D03*
%TO.P,J3,8*%
X136800000Y-116360000D03*
%TO.P,J3,9*%
X136800000Y-115720000D03*
D31*
%TO.P,J3,10*%
X136800000Y-115000000D03*
%TD*%
D27*
%TO.P,C10,1*%
%TO.N,Net-(M1-OUT)*%
X133500000Y-90000000D03*
%TO.P,C10,2*%
%TO.N,Net-(U5-IN+)*%
X133500000Y-89040000D03*
%TD*%
D33*
%TO.P,J5,1,Pin_1_1*%
%TO.N,Net-(J5-Pin_1)*%
X134000000Y-79800000D03*
D18*
%TO.P,J5,2,Pin_2_2*%
%TO.N,Net-(J5-Pin_2)*%
X134000000Y-75200000D03*
%TD*%
D28*
%TO.P,R7,1*%
%TO.N,Net-(U1-GPIO18)*%
X132500000Y-136510000D03*
%TO.P,R7,2*%
%TO.N,VCC*%
X132500000Y-135490000D03*
%TD*%
%TO.P,R4,1*%
%TO.N,Net-(M1-OUT)*%
X134000000Y-88000000D03*
%TO.P,R4,2*%
%TO.N,VCC*%
X134000000Y-86980000D03*
%TD*%
D29*
%TO.P,C9,1*%
%TO.N,VCC*%
X133500000Y-139000000D03*
%TO.P,C9,2*%
%TO.N,GND*%
X135050000Y-139000000D03*
%TD*%
D34*
%TO.P,R5,1*%
%TO.N,VCC*%
X143010000Y-123000000D03*
%TO.P,R5,2*%
%TO.N,Net-(U5-IN-)*%
X141990000Y-123000000D03*
%TD*%
D35*
%TO.P,C2,1*%
%TO.N,GND*%
X143000000Y-102040000D03*
%TO.P,C2,2*%
%TO.N,Net-(U1-XTAL_N)*%
X143000000Y-103000000D03*
%TD*%
D28*
%TO.P,R2,1*%
%TO.N,Net-(J1-D+-PadA6)*%
X144500000Y-124500000D03*
%TO.P,R2,2*%
%TO.N,Net-(U1-GPIO20{slash}USB_D+)*%
X144500000Y-123480000D03*
%TD*%
D27*
%TO.P,C5,1*%
%TO.N,GND*%
X136500000Y-87460000D03*
%TO.P,C5,2*%
%TO.N,VCC*%
X136500000Y-86500000D03*
%TD*%
D10*
%TO.P,C12,1*%
%TO.N,/ANT*%
X132675000Y-101500000D03*
%TO.P,C12,2*%
%TO.N,GND*%
X133635000Y-101500000D03*
%TD*%
D36*
%TO.P,Y1,1,1_1*%
%TO.N,Net-(U1-XTAL_N)*%
X140500000Y-102000000D03*
%TO.P,Y1,2,2_2*%
%TO.N,Net-(U1-XTAL_P)*%
X138000000Y-102000000D03*
%TD*%
D37*
%TO.P,J8,1,Pin_1_1*%
%TO.N,/ANT*%
X133000000Y-98500000D03*
D38*
%TO.P,J8,2,Pin_2_2*%
%TO.N,GND*%
X134525000Y-97025000D03*
X134525000Y-99975000D03*
%TD*%
D17*
%TO.P,J7,1,Pin_1_1*%
%TO.N,/VBAT*%
X138400000Y-75500000D03*
D18*
%TO.P,J7,2,Pin_2_2*%
%TO.N,GND*%
X143000000Y-75500000D03*
%TD*%
D22*
%TO.P,U2,1,DIN_1*%
%TO.N,/GPIO12*%
X138662500Y-114687500D03*
%TO.P,U2,2,GAIN_SLOT_2*%
%TO.N,GND*%
X138662500Y-115187500D03*
%TO.P,U2,3,GND_3*%
X138662500Y-115687500D03*
%TO.P,U2,4,~{SD_MODE}_4*%
%TO.N,/VBAT*%
X138662500Y-116187500D03*
D23*
%TO.P,U2,5,NC_5*%
%TO.N,unconnected-(U2-NC-Pad5)*%
X139350000Y-116875000D03*
%TO.P,U2,6,NC_6*%
%TO.N,unconnected-(U2-NC-Pad6)*%
X139850000Y-116875000D03*
%TO.P,U2,7,VDD_7*%
%TO.N,/VBAT*%
X140350000Y-116875000D03*
%TO.P,U2,8,VDD_8*%
X140850000Y-116875000D03*
D22*
%TO.P,U2,9,OUTP_9*%
%TO.N,Net-(J5-Pin_1)*%
X141537500Y-116187500D03*
%TO.P,U2,10,OUTN_10*%
%TO.N,Net-(J5-Pin_2)*%
X141537500Y-115687500D03*
%TO.P,U2,11,GND_11*%
%TO.N,GND*%
X141537500Y-115187500D03*
%TO.P,U2,12,NC_12*%
%TO.N,unconnected-(U2-NC-Pad12)*%
X141537500Y-114687500D03*
D23*
%TO.P,U2,13,NC_13*%
%TO.N,unconnected-(U2-NC-Pad13)*%
X140850000Y-114000000D03*
%TO.P,U2,14,LRCLK_14*%
%TO.N,/GPIO10*%
X140350000Y-114000000D03*
%TO.P,U2,15,GND_15*%
%TO.N,GND*%
X139850000Y-114000000D03*
%TO.P,U2,16,BCLK_16*%
%TO.N,/GPIO11*%
X139350000Y-114000000D03*
D24*
%TO.P,U2,17,PAD_17*%
%TO.N,GND*%
X140100000Y-115437500D03*
%TD*%
D39*
%TO.P,C13,1*%
%TO.N,/VBAT*%
X133000000Y-114725000D03*
%TO.P,C13,2*%
%TO.N,GND*%
X133000000Y-116275000D03*
%TD*%
D40*
%TO.P,L1,1,1_1*%
%TO.N,VCC*%
X134500000Y-136287500D03*
%TO.P,L1,2,2_2*%
X134500000Y-134712500D03*
%TD*%
D41*
%TO.P,J6,1,1_1*%
%TO.N,GND*%
X138500000Y-97250000D03*
%TO.P,J6,2,2_2*%
%TO.N,VCC*%
X138500000Y-96750000D03*
%TO.P,J6,3,3_3*%
%TO.N,Net-(J3-Pin_4)*%
X138500000Y-96250000D03*
%TO.P,J6,4,4_4*%
%TO.N,Net-(J3-Pin_3)*%
X138500000Y-95750000D03*
%TO.P,J6,5,5_5*%
%TO.N,Net-(U1-GPIO13)*%
X138500000Y-95250000D03*
%TO.P,J6,6,6_6*%
%TO.N,Net-(U1-GPIO8)*%
X138500000Y-94750000D03*
%TO.P,J6,7,7_7*%
%TO.N,Net-(U1-GPIO14)*%
X138500000Y-94250000D03*
%TO.P,J6,8,8_8*%
%TO.N,Net-(U1-GPIO21)*%
X138500000Y-93750000D03*
%TO.P,J6,9,9_9*%
%TO.N,Net-(U1-GPIO45)*%
X138500000Y-93250000D03*
%TO.P,J6,10,10_10*%
%TO.N,Net-(U1-U0RXD)*%
X138500000Y-92750000D03*
%TO.P,J6,11,11_11*%
%TO.N,Net-(U1-U0TXD)*%
X138500000Y-92250000D03*
%TO.P,J6,12,12_12*%
%TO.N,Net-(U1-MTMS)*%
X138500000Y-91750000D03*
%TO.P,J6,13,13_13*%
%TO.N,Net-(U1-MTDI)*%
X138500000Y-91250000D03*
%TO.P,J6,14,14_14*%
%TO.N,Net-(U1-MTDO)*%
X138500000Y-90750000D03*
%TO.P,J6,15,15_15*%
%TO.N,Net-(U1-MTCK)*%
X138500000Y-90250000D03*
%TO.P,J6,16,16_16*%
%TO.N,Net-(U1-GPIO38)*%
X138500000Y-89750000D03*
%TO.P,J6,17,17_17*%
%TO.N,Net-(U1-GPIO6)*%
X138500000Y-89250000D03*
%TO.P,J6,18,18_18*%
%TO.N,Net-(U1-GPIO7)*%
X138500000Y-88750000D03*
%TO.P,J6,19,19_19*%
%TO.N,GND*%
X138500000Y-88250000D03*
%TO.P,J6,20,20_20*%
X138500000Y-87750000D03*
%TO.P,J6,21,21_21*%
X138500000Y-87250000D03*
%TO.P,J6,22,22_22*%
X138500000Y-86750000D03*
%TO.P,J6,23,23_23*%
X138500000Y-86250000D03*
%TO.P,J6,24,24_24*%
X138500000Y-85750000D03*
D42*
%TO.P,J6,MP*%
%TO.N,N/C*%
X141750000Y-99150000D03*
X141750000Y-83850000D03*
%TD*%
D43*
%TO.P,C14,1*%
%TO.N,VCC*%
X133000000Y-119500000D03*
%TO.P,C14,2*%
%TO.N,GND*%
X133000000Y-117950000D03*
%TD*%
D27*
%TO.P,C1,1*%
%TO.N,Net-(U1-XTAL_P)*%
X136500000Y-102480000D03*
%TO.P,C1,2*%
%TO.N,GND*%
X136500000Y-101520000D03*
%TD*%
%TO.P,C7,1*%
%TO.N,GND*%
X133500000Y-92480000D03*
%TO.P,C7,2*%
%TO.N,VCC*%
X133500000Y-91520000D03*
%TD*%
D44*
%TO.P,J2,1,Pin_1_1*%
%TO.N,VCC*%
X134500000Y-120000000D03*
%TO.P,J2,2,Pin_2_2*%
%TO.N,GND*%
X134500000Y-120500000D03*
%TO.P,J2,3,Pin_3_3*%
%TO.N,Net-(J2-Pin_3)*%
X134500000Y-121000000D03*
%TO.P,J2,4,Pin_4_4*%
%TO.N,/GPIO10*%
X134500000Y-121500000D03*
%TO.P,J2,5,Pin_5_5*%
%TO.N,/GPIO11*%
X134500000Y-122000000D03*
%TO.P,J2,6,Pin_6_6*%
%TO.N,GND*%
X134500000Y-122500000D03*
%TO.P,J2,7*%
%TO.N,N/C*%
X134500000Y-123000000D03*
%TO.P,J2,8*%
X134500000Y-123500000D03*
%TO.P,J2,9*%
X136300000Y-123500000D03*
%TO.P,J2,10*%
X136300000Y-123000000D03*
%TO.P,J2,11*%
X136300000Y-122500000D03*
%TO.P,J2,12*%
X136300000Y-122000000D03*
%TO.P,J2,13*%
X136300000Y-121500000D03*
%TO.P,J2,14*%
X136300000Y-121000000D03*
%TO.P,J2,15*%
X136300000Y-120500000D03*
%TO.P,J2,16*%
X136300000Y-120000000D03*
%TD*%
D27*
%TO.P,C3,1*%
%TO.N,Net-(U1-CHIP_PU)*%
X133500000Y-107000000D03*
%TO.P,C3,2*%
%TO.N,GND*%
X133500000Y-106040000D03*
%TD*%
D30*
%TO.P,R6,1*%
%TO.N,Net-(U5-IN-)*%
X141990000Y-125500000D03*
%TO.P,R6,2*%
%TO.N,GND*%
X143010000Y-125500000D03*
%TD*%
D45*
%TO.N,GND*%
X134429400Y-106040000D03*
X135318999Y-113775971D03*
X132903164Y-86403164D03*
X138500000Y-83000000D03*
X136205700Y-106000000D03*
X142382597Y-115217461D03*
X139000000Y-83500000D03*
X141500000Y-78000000D03*
X133000000Y-127000000D03*
X135500000Y-104500000D03*
X136446914Y-130446914D03*
X134276411Y-90803267D03*
X139000000Y-83500000D03*
X134000000Y-128500000D03*
X139788000Y-129000000D03*
X137000000Y-84500000D03*
X140170545Y-126937098D03*
X135546617Y-111211117D03*
X133000000Y-127000000D03*
X141771876Y-122105792D03*
X137500000Y-82000000D03*
X137640586Y-130640586D03*
X144000000Y-89000000D03*
X138500000Y-83000000D03*
X143750000Y-106250000D03*
X135000000Y-133500000D03*
%TO.N,Net-(U4-IN)*%
X136407300Y-135612300D03*
X142053185Y-130133019D03*
%TO.N,Net-(J1-D--PadB7)*%
X141059000Y-135500000D03*
X143000000Y-116500000D03*
%TO.N,/VBAT*%
X140500000Y-121000000D03*
X139470499Y-120184171D03*
X134740500Y-118500000D03*
X133847709Y-114652291D03*
X143499749Y-121969768D03*
X141769399Y-117010112D03*
X138706586Y-126206586D03*
X139680045Y-125490500D03*
X140077935Y-118724972D03*
%TO.N,Net-(J4-Pin_1)*%
X144800000Y-114378777D03*
X144354308Y-121808849D03*
%TO.N,Net-(J4-Pin_2)*%
X140985464Y-130985464D03*
X144000000Y-125500000D03*
X144000000Y-131000000D03*
%TO.N,VCC*%
X134000000Y-119000000D03*
X137509186Y-119509186D03*
X134500000Y-94000000D03*
X143490500Y-111000000D03*
X134895960Y-101615332D03*
X133501000Y-134500000D03*
X140673400Y-112891264D03*
X137000000Y-85500000D03*
X137799013Y-117402711D03*
X132500000Y-133936500D03*
X133902000Y-116139170D03*
%TO.N,Net-(U1-CHIP_PU)*%
X134456900Y-107259500D03*
X142500000Y-122000000D03*
%TO.N,Net-(J3-Pin_5)*%
X133623300Y-113091600D03*
X135972998Y-117720000D03*
%TO.N,Net-(J3-Pin_4)*%
X135885199Y-116599600D03*
X135432100Y-102191300D03*
X133131100Y-109085500D03*
%TO.N,Net-(J3-Pin_3)*%
X133929300Y-111692600D03*
X135933600Y-95750000D03*
%TO.N,Net-(U1-GPIO6)*%
X134503800Y-109351600D03*
X136192600Y-89250000D03*
%TO.N,Net-(U1-GPIO7)*%
X137381800Y-88685400D03*
X136186100Y-109278100D03*
%TO.N,Net-(U1-GPIO8)*%
X134261200Y-110150000D03*
X135495100Y-94750000D03*
%TO.N,Net-(J2-Pin_3)*%
X133454111Y-120706744D03*
X134828500Y-111097800D03*
%TO.N,/GPIO10*%
X133500000Y-121432297D03*
X141500000Y-118260500D03*
X136474500Y-118851100D03*
X143088890Y-117285979D03*
X135671000Y-111927400D03*
X138500000Y-113500000D03*
%TO.N,/GPIO11*%
X137851972Y-118168701D03*
X133500000Y-122159300D03*
X137571299Y-113971731D03*
X136509501Y-112447629D03*
%TO.N,/GPIO12*%
X137433209Y-112227000D03*
X138202168Y-116772996D03*
X138101586Y-120304130D03*
%TO.N,Net-(U1-GPIO13)*%
X136570524Y-110328200D03*
X137401500Y-95250000D03*
%TO.N,Net-(U1-GPIO14)*%
X138597904Y-110401351D03*
X137410100Y-94141400D03*
%TO.N,Net-(U1-GPIO18)*%
X137403500Y-126816000D03*
X139055500Y-112230300D03*
%TO.N,Net-(U1-GPIO20{slash}USB_D+)*%
X144800000Y-122779000D03*
X144741428Y-116737059D03*
%TO.N,Net-(U1-GPIO21)*%
X141000000Y-110561200D03*
X139588700Y-93750000D03*
%TO.N,Net-(U1-MTCK)*%
X142965300Y-104987700D03*
X141340000Y-90409300D03*
%TO.N,Net-(U1-MTDO)*%
X140382400Y-90909300D03*
X140500000Y-103500000D03*
%TO.N,Net-(U1-MTMS)*%
X137416000Y-91750000D03*
X139492300Y-103658100D03*
%TO.N,Net-(U1-U0TXD)*%
X139989800Y-92358000D03*
X140234600Y-97469000D03*
%TO.N,Net-(U1-GPIO45)*%
X137417100Y-93250000D03*
X138200000Y-103655900D03*
%TO.N,Net-(U1-XTAL_N)*%
X141433700Y-102000000D03*
X139357500Y-105327000D03*
X142474800Y-101000000D03*
%TO.N,Net-(U5-IN+)*%
X133109000Y-88000000D03*
X135128500Y-126816000D03*
%TO.N,Net-(U5-IN-)*%
X141341695Y-125000174D03*
X137137200Y-128041300D03*
X142250000Y-123750000D03*
%TO.N,Net-(J5-Pin_1)*%
X133000000Y-82000000D03*
X139581995Y-117832022D03*
%TO.N,Net-(J5-Pin_2)*%
X141771100Y-114000000D03*
X143000000Y-112500000D03*
%TD*%
%TO.N,/RF_ANT*%
D46*
X132650001Y-103849999D02*
X132500000Y-103699999D01*
X132540000Y-103960000D02*
X132650001Y-103849999D01*
X132540000Y-104000000D02*
X132540000Y-103960000D01*
X132690501Y-103109500D02*
X133360500Y-103109500D01*
X132650001Y-103849999D02*
X132650001Y-104110001D01*
X133500000Y-102500000D02*
X133970000Y-102500000D01*
X132500000Y-103300001D02*
X132690501Y-103109500D01*
X133500000Y-102970000D02*
X133500000Y-102500000D01*
X133890000Y-105350000D02*
X135350000Y-105350000D01*
X132650001Y-104110001D02*
X133890000Y-105350000D01*
X133360500Y-103109500D02*
X133500000Y-102970000D01*
X132500000Y-103699999D02*
X132500000Y-103300001D01*
%TO.N,GND*%
X134276411Y-90803267D02*
X133920479Y-91159199D01*
X138500000Y-86750000D02*
X137657800Y-86750000D01*
X140214999Y-120073454D02*
X140263874Y-120073454D01*
X138500000Y-86250000D02*
X137657800Y-86250000D01*
X135790500Y-115430500D02*
X135790500Y-114290500D01*
X144000000Y-89000000D02*
X144000000Y-87500000D01*
X137657800Y-88143200D02*
X137657800Y-87750000D01*
X137681000Y-123050000D02*
X136466600Y-124264400D01*
X137657800Y-88143200D02*
X136500000Y-88143200D01*
X134500000Y-103000000D02*
X133500000Y-104000000D01*
X137500000Y-82000000D02*
X138500000Y-82000000D01*
X133189220Y-91990500D02*
X133500000Y-91990500D01*
X140625100Y-126482543D02*
X140170545Y-126937098D01*
X134500000Y-101913044D02*
X134500000Y-102138908D01*
X140500000Y-115700000D02*
X140600000Y-115800000D01*
X135000000Y-115720000D02*
X134903500Y-115816500D01*
X142937500Y-119562500D02*
X142687500Y-119312500D01*
X134409500Y-116440358D02*
X134220188Y-116629670D01*
X133000000Y-116275000D02*
X133000000Y-116500000D01*
X136500000Y-87460000D02*
X136500000Y-88143200D01*
X135165500Y-138884500D02*
X135050000Y-139000000D01*
X134000000Y-101500000D02*
X134000000Y-100500000D01*
X140214999Y-120492553D02*
X140214999Y-120073454D01*
X144375000Y-119312500D02*
X143187500Y-119312500D01*
X135560000Y-88460000D02*
X135876800Y-88143200D01*
X136607800Y-106945800D02*
X136607800Y-107950000D01*
X143600000Y-75500000D02*
X142000000Y-75500000D01*
X135500000Y-122576300D02*
X135576300Y-122500000D01*
X135592200Y-122340700D02*
X135592200Y-120500000D01*
X141666084Y-122000000D02*
X141353000Y-122000000D01*
X138140586Y-130640586D02*
X137640586Y-130640586D01*
X137116300Y-139501300D02*
X137425000Y-139810000D01*
X138800000Y-109046100D02*
X140223300Y-109046100D01*
X138500000Y-88250000D02*
X139750000Y-88250000D01*
X135105200Y-139000000D02*
X135606500Y-139501300D01*
X134500000Y-102138908D02*
X134455500Y-102183408D01*
X138500000Y-87250000D02*
X137657800Y-87250000D01*
X133000000Y-117950000D02*
X132334500Y-118615500D01*
X135862500Y-129450000D02*
X134500000Y-130812500D01*
X134894790Y-115816500D02*
X134746000Y-115965290D01*
X134500000Y-102759210D02*
X134500000Y-103000000D01*
X139750000Y-88250000D02*
X140000000Y-88500000D01*
X142000000Y-75500000D02*
X141500000Y-75000000D01*
X138500000Y-88250000D02*
X137657800Y-88250000D01*
X135200000Y-115720000D02*
X135501000Y-115720000D01*
X143000000Y-119812500D02*
X143250000Y-119562500D01*
X135200000Y-115720000D02*
X134780000Y-115720000D01*
X134687600Y-102499682D02*
X134723564Y-102535646D01*
X133635000Y-101500000D02*
X134405460Y-101500000D01*
X141537500Y-115187500D02*
X140350000Y-115187500D01*
X135050000Y-139000000D02*
X135105200Y-139000000D01*
X134525000Y-97025000D02*
X133500000Y-96000000D01*
X134276411Y-90803267D02*
X134280178Y-90799500D01*
X134724029Y-113775971D02*
X135318999Y-113775971D01*
X134687600Y-102222233D02*
X134687600Y-102499682D01*
X135165500Y-133665500D02*
X135165500Y-138884500D01*
X140412664Y-119924664D02*
X140412664Y-119802335D01*
X135735600Y-124264400D02*
X135735600Y-123840500D01*
X135000000Y-133500000D02*
X135090000Y-133410000D01*
X143850000Y-102890000D02*
X143000000Y-102040000D01*
X134903500Y-115816500D02*
X134894790Y-115816500D01*
X137657800Y-87750000D02*
X137657800Y-87250000D01*
X134000000Y-128500000D02*
X134550000Y-129050000D01*
X141812500Y-119312500D02*
X143000000Y-119312500D01*
X143750000Y-106250000D02*
X143500000Y-106500000D01*
X142352636Y-115187500D02*
X141537500Y-115187500D01*
X132571660Y-120140500D02*
X133613500Y-120140500D01*
X134455500Y-102222233D02*
X134687600Y-102222233D01*
X139467238Y-114905210D02*
X140246000Y-114905210D01*
X141771876Y-122105792D02*
X141666084Y-122000000D01*
X142498800Y-126011200D02*
X142107700Y-126011200D01*
X140000000Y-120707552D02*
X140214999Y-120492553D01*
X138500000Y-97250000D02*
X137657800Y-97250000D01*
X134504000Y-116011396D02*
X134409500Y-116105896D01*
X132571660Y-126571660D02*
X133000000Y-127000000D01*
X136080024Y-110677710D02*
X136080024Y-110125028D01*
X138500000Y-131000000D02*
X138140586Y-130640586D01*
X141175000Y-129450000D02*
X141225000Y-129500000D01*
X139850000Y-115187500D02*
X140100000Y-115437500D01*
X138800000Y-107950000D02*
X139736700Y-107013300D01*
X132999500Y-91239220D02*
X132999500Y-91800780D01*
X140000000Y-121240790D02*
X140000000Y-120707552D01*
X136205700Y-106000000D02*
X136850000Y-106000000D01*
X133973000Y-120500000D02*
X134500000Y-120500000D01*
X134723564Y-102535646D02*
X134500000Y-102759210D01*
X138500000Y-87750000D02*
X137657800Y-87750000D01*
X134000000Y-100500000D02*
X134525000Y-99975000D01*
X135500000Y-114000000D02*
X134500000Y-114000000D01*
X143187500Y-119312500D02*
X142937500Y-119562500D01*
X132334500Y-118615500D02*
X132334500Y-119903340D01*
X142382597Y-115217461D02*
X142352636Y-115187500D01*
X138225000Y-123050000D02*
X137681000Y-123050000D01*
X134500000Y-104500000D02*
X135500000Y-104500000D01*
X139850000Y-115687500D02*
X140100000Y-115437500D01*
X136500000Y-88143200D02*
X135876800Y-88143200D01*
X143000000Y-119312500D02*
X143250000Y-119562500D01*
X134405460Y-101500000D02*
X134405460Y-101818504D01*
X133000000Y-117950000D02*
X133000000Y-116275000D01*
X137657800Y-88250000D02*
X137657800Y-88143200D01*
X140288000Y-129500000D02*
X141225000Y-129500000D01*
X143850000Y-106150000D02*
X143750000Y-106250000D01*
X135576300Y-122500000D02*
X134500000Y-122500000D01*
X133475000Y-101500000D02*
X134000000Y-101500000D01*
X135576300Y-122500000D02*
X135576300Y-122356600D01*
X136850000Y-106000000D02*
X138800000Y-107950000D01*
X138255052Y-107950000D02*
X138800000Y-107950000D01*
X137657800Y-86750000D02*
X137657800Y-86250000D01*
X135546617Y-111211117D02*
X136080024Y-110677710D01*
X140706999Y-119508000D02*
X141617000Y-119508000D01*
X138500000Y-83000000D02*
X139000000Y-83500000D01*
X134746000Y-115965290D02*
X134746000Y-115974000D01*
X136410000Y-133410000D02*
X136000000Y-133000000D01*
X136466600Y-124264400D02*
X135735600Y-124264400D01*
X137657800Y-86250000D02*
X137657800Y-85750000D01*
X134000000Y-104000000D02*
X133500000Y-104000000D01*
X140350000Y-115187500D02*
X140100000Y-115437500D01*
X141157696Y-121609500D02*
X140368710Y-121609500D01*
X143010000Y-125500000D02*
X142498800Y-126011200D01*
X141353000Y-121804804D02*
X141157696Y-121609500D01*
X138662500Y-115187500D02*
X139850000Y-115187500D01*
X135606500Y-139501300D02*
X137116300Y-139501300D01*
X135592200Y-120500000D02*
X134500000Y-120500000D01*
X139850000Y-114000000D02*
X139850000Y-115187500D01*
X138800000Y-107950000D02*
X138800000Y-109046100D01*
X142687500Y-119312500D02*
X142687500Y-118125000D01*
X134299500Y-90799500D02*
X135000000Y-91500000D01*
X140368710Y-121609500D02*
X140000000Y-121240790D01*
X138662500Y-115687500D02*
X139850000Y-115687500D01*
X133500000Y-91990500D02*
X133500000Y-92480000D01*
X139788000Y-129000000D02*
X140288000Y-129500000D01*
X134000000Y-104000000D02*
X134500000Y-104500000D01*
X140625100Y-126115100D02*
X142003800Y-126115100D01*
X134455500Y-102183408D02*
X134455500Y-102222233D01*
X136446914Y-130034414D02*
X135862500Y-129450000D01*
X137657800Y-87250000D02*
X137657800Y-86750000D01*
X134405460Y-101818504D02*
X134500000Y-101913044D01*
X138800000Y-107950000D02*
X136607800Y-107950000D01*
X133920479Y-91159199D02*
X133810780Y-91049500D01*
X137763486Y-131000000D02*
X138500000Y-131000000D01*
X135000000Y-133500000D02*
X135165500Y-133665500D01*
X135501000Y-115720000D02*
X135000000Y-115720000D01*
X135790500Y-114290500D02*
X135500000Y-114000000D01*
X134504000Y-116009500D02*
X134504000Y-116011396D01*
X133635000Y-101500000D02*
X135057500Y-100077500D01*
X136500000Y-101520000D02*
X136500000Y-101000000D01*
X134746000Y-115974000D02*
X134710500Y-116009500D01*
X138500000Y-85750000D02*
X137657800Y-85750000D01*
X134775000Y-141500000D02*
X136465000Y-139810000D01*
X134710500Y-116009500D02*
X134504000Y-116009500D01*
X133613500Y-120140500D02*
X133973000Y-120500000D01*
X134500000Y-114000000D02*
X134724029Y-113775971D01*
X135200000Y-115720000D02*
X135000000Y-115720000D01*
X133189220Y-91049500D02*
X132999500Y-91239220D01*
X133500000Y-96000000D02*
X133500000Y-92480000D01*
X136465000Y-139810000D02*
X137425000Y-139810000D01*
X132334500Y-119903340D02*
X132571660Y-120140500D01*
X136080024Y-110125028D02*
X138255052Y-107950000D01*
X140263874Y-120073454D02*
X140412664Y-119924664D01*
X133000000Y-116500000D02*
X132500000Y-117000000D01*
X141617000Y-119508000D02*
X141812500Y-119312500D01*
X136000000Y-133000000D02*
X136000000Y-132763486D01*
X133354670Y-116629670D02*
X133000000Y-116275000D01*
X134220188Y-116629670D02*
X133354670Y-116629670D01*
X135735600Y-123840500D02*
X135500000Y-123840500D01*
X136446914Y-130446914D02*
X136446914Y-130034414D01*
X136000000Y-132763486D02*
X137763486Y-131000000D01*
X140412664Y-119802335D02*
X140706999Y-119508000D01*
X135500000Y-123840500D02*
X135500000Y-122576300D01*
X142107700Y-126011200D02*
X142003800Y-126115100D01*
X132571660Y-120140500D02*
X132571660Y-126571660D01*
X135576300Y-122356600D02*
X135592200Y-122340700D01*
X143500000Y-119312500D02*
X143250000Y-119562500D01*
X133810780Y-91049500D02*
X133189220Y-91049500D01*
X137657800Y-97250000D02*
X137427800Y-97480000D01*
X134429400Y-106040000D02*
X133500000Y-106040000D01*
X134280178Y-90799500D02*
X134299500Y-90799500D01*
X143850000Y-102890000D02*
X143850000Y-106150000D01*
X135057500Y-100077500D02*
X136500000Y-101520000D01*
X141812500Y-119812500D02*
X143000000Y-119812500D01*
X134409500Y-116105896D02*
X134409500Y-116440358D01*
X141353000Y-122000000D02*
X141353000Y-121804804D01*
X135501000Y-115720000D02*
X135790500Y-115430500D01*
X135090000Y-133410000D02*
X136410000Y-133410000D01*
X140625100Y-126115100D02*
X140625100Y-126482543D01*
X137425000Y-133410000D02*
X136410000Y-133410000D01*
X132999500Y-91800780D02*
X133189220Y-91990500D01*
%TO.N,Net-(U4-IN)*%
X142639600Y-128814400D02*
X141425200Y-127600000D01*
X136407300Y-138701000D02*
X136407300Y-135612300D01*
X136407300Y-135612300D02*
X136407300Y-134519000D01*
X136407300Y-134519000D02*
X137116000Y-134519000D01*
X136407300Y-138701000D02*
X137116000Y-138701000D01*
X142639600Y-130025000D02*
X142639600Y-128814400D01*
X137116000Y-138701000D02*
X137425000Y-139010000D01*
X141425200Y-127600000D02*
X141225000Y-127600000D01*
X137116000Y-134519000D02*
X137425000Y-134210000D01*
X142531581Y-130133019D02*
X142639600Y-130025000D01*
X142053185Y-130133019D02*
X142531581Y-130133019D01*
%TO.N,Net-(J1-D+-PadA6)*%
X137563500Y-136721500D02*
X138981900Y-136721500D01*
X137425000Y-136860000D02*
X137563500Y-136721500D01*
X144500000Y-124500000D02*
X144500000Y-131346514D01*
X139125014Y-136721500D02*
X138981900Y-136721500D01*
X144500000Y-131346514D02*
X139125014Y-136721500D01*
%TO.N,Net-(J1-D--PadB7)*%
X137425000Y-137360000D02*
X137571200Y-137213800D01*
X144000000Y-116520000D02*
X143020000Y-116520000D01*
X143020000Y-116520000D02*
X143000000Y-116500000D01*
X141059000Y-135500000D02*
X139199000Y-137360000D01*
X139199000Y-137360000D02*
X137425000Y-137360000D01*
%TO.N,/VBAT*%
X143169028Y-120397000D02*
X143500000Y-120727972D01*
X141623397Y-116875000D02*
X140850000Y-116875000D01*
X144004131Y-121465386D02*
X143499749Y-121969768D01*
X136834500Y-73934500D02*
X133475812Y-73934500D01*
X140077935Y-118724972D02*
X140056907Y-118746000D01*
X139500000Y-123500000D02*
X139000000Y-124000000D01*
X139470499Y-120854501D02*
X139470499Y-120184171D01*
X136677672Y-118360600D02*
X136271328Y-118360600D01*
X141769399Y-117010112D02*
X141758509Y-117010112D01*
X143500000Y-120727972D02*
X143500000Y-121000000D01*
X139500000Y-122712501D02*
X139500000Y-123500000D01*
X138662500Y-116187500D02*
X138747000Y-116272000D01*
X141758509Y-117010112D02*
X141623397Y-116875000D01*
X138706586Y-126206586D02*
X138706586Y-124481586D01*
X132063500Y-75346812D02*
X132063500Y-114000000D01*
X139254110Y-118597100D02*
X138184480Y-118597100D01*
X140754000Y-116754000D02*
X140754000Y-116900000D01*
X133847709Y-114652291D02*
X133847709Y-115400744D01*
X138747000Y-116272000D02*
X140159499Y-116272000D01*
X133475812Y-73934500D02*
X132063500Y-75346812D01*
X143500000Y-121000000D02*
X144000000Y-121000000D01*
X140500000Y-121000000D02*
X140500000Y-120931328D01*
X141812500Y-120312500D02*
X141897000Y-120397000D01*
X137917231Y-118864349D02*
X137817568Y-118764686D01*
X138990500Y-116203172D02*
X138990500Y-116100000D01*
X137141281Y-118824209D02*
X136677672Y-118360600D01*
X133847709Y-115400744D02*
X133830911Y-115417542D01*
X138225000Y-122100000D02*
X139470499Y-120854501D01*
X136271328Y-118360600D02*
X136131928Y-118500000D01*
X132275000Y-114000000D02*
X133000000Y-114725000D01*
X133692542Y-115417542D02*
X133000000Y-114725000D01*
X138400000Y-75500000D02*
X136834500Y-73934500D01*
X138887499Y-122100000D02*
X139500000Y-122712501D01*
X139403010Y-118746000D02*
X139254110Y-118597100D01*
X140500000Y-120931328D02*
X141118828Y-120312500D01*
X136131928Y-118500000D02*
X134819600Y-118500000D01*
X140056907Y-118746000D02*
X139403010Y-118746000D01*
X138706586Y-124481586D02*
X138225000Y-124000000D01*
X138225000Y-122100000D02*
X138887499Y-122100000D01*
X137817568Y-118764686D02*
X137200804Y-118764686D01*
X139000000Y-124000000D02*
X138225000Y-124000000D01*
X141897000Y-120397000D02*
X143169028Y-120397000D01*
X141026804Y-128550000D02*
X139680045Y-127203241D01*
X138184480Y-118597100D02*
X137917231Y-118864349D01*
X144000000Y-121000000D02*
X144004131Y-121004131D01*
X140850000Y-116875000D02*
X140350000Y-116875000D01*
X144004131Y-121004131D02*
X144004131Y-121465386D01*
X141026804Y-128550000D02*
X141225000Y-128550000D01*
X139680045Y-127203241D02*
X139680045Y-125490500D01*
X134819600Y-118500000D02*
X134819600Y-118420900D01*
X141118828Y-120312500D02*
X141812500Y-120312500D01*
X140159499Y-116272000D02*
X140350000Y-116462501D01*
X133830911Y-115417542D02*
X133692542Y-115417542D01*
X134819600Y-118420900D02*
X134740500Y-118500000D01*
X137200804Y-118764686D02*
X137141281Y-118824209D01*
X132063500Y-114000000D02*
X132275000Y-114000000D01*
X140350000Y-116462501D02*
X140350000Y-116875000D01*
%TO.N,/ANT*%
X132835000Y-102475000D02*
X132835000Y-99165000D01*
X132835000Y-99165000D02*
X133000000Y-99000000D01*
X132860000Y-102500000D02*
X132835000Y-102475000D01*
X133000000Y-102500000D02*
X132860000Y-102500000D01*
X133000000Y-99000000D02*
X133000000Y-98500000D01*
%TO.N,Net-(J4-Pin_1)*%
X144950000Y-114228777D02*
X144950000Y-78060312D01*
X142449188Y-77509500D02*
X143000000Y-78060312D01*
X144500000Y-120500000D02*
X144687500Y-120312500D01*
X141296828Y-77509500D02*
X142449188Y-77509500D01*
X141000000Y-80000000D02*
X141000000Y-77806328D01*
X144800000Y-114378777D02*
X144950000Y-114228777D01*
X138000000Y-80000000D02*
X141000000Y-80000000D01*
X141000000Y-77806328D02*
X141296828Y-77509500D01*
X144500000Y-121663157D02*
X144500000Y-120500000D01*
X144950000Y-78060312D02*
X143000000Y-78060312D01*
X144354308Y-121808849D02*
X144500000Y-121663157D01*
%TO.N,Net-(J4-Pin_2)*%
X143989500Y-125489500D02*
X144000000Y-125500000D01*
X143989500Y-122895828D02*
X143989500Y-125489500D01*
X144375000Y-119812500D02*
X144787499Y-119812500D01*
X141000000Y-131000000D02*
X144000000Y-131000000D01*
X140985464Y-130985464D02*
X141000000Y-131000000D01*
X144787499Y-119812500D02*
X145000000Y-120025001D01*
X145000000Y-120025001D02*
X145000000Y-121885328D01*
X143600000Y-80000000D02*
X142600000Y-80000000D01*
X145000000Y-121885328D02*
X143989500Y-122895828D01*
%TO.N,VCC*%
X141659500Y-110359500D02*
X141850000Y-110550000D01*
X141480000Y-122500000D02*
X140900000Y-122500000D01*
X139258672Y-112720800D02*
X138852328Y-112720800D01*
X140648196Y-125000000D02*
X139148196Y-125000000D01*
X140200000Y-104900000D02*
X141659500Y-106359500D01*
X134500000Y-134712500D02*
X134612700Y-134712500D01*
X137000000Y-86000000D02*
X136500000Y-86500000D01*
X137390500Y-114569500D02*
X137000000Y-114569500D01*
X135500500Y-91780780D02*
X135000000Y-92281280D01*
X139297500Y-129555210D02*
X139102711Y-129749999D01*
X142700000Y-111000000D02*
X143490500Y-111000000D01*
X133500000Y-91520000D02*
X134238720Y-91520000D01*
X135000000Y-120000000D02*
X135000000Y-119746000D01*
X133225000Y-141500000D02*
X133225000Y-139275000D01*
X134895960Y-101615332D02*
X134895960Y-101842477D01*
X137509186Y-119509186D02*
X137509186Y-120509186D01*
X135520000Y-86980000D02*
X135520000Y-87520000D01*
X137779200Y-112574681D02*
X137923709Y-112430172D01*
X134078093Y-116078093D02*
X134250000Y-115906186D01*
X134941600Y-102394472D02*
X135228928Y-102681800D01*
X134250000Y-115750000D02*
X134409500Y-115590500D01*
X139960999Y-119980999D02*
X139960999Y-120387343D01*
X136239928Y-96750000D02*
X138500000Y-96750000D01*
X135500000Y-103400000D02*
X136600000Y-104500000D01*
X134991606Y-101938123D02*
X134941600Y-101988128D01*
X139102711Y-129749999D02*
X138437499Y-129749999D01*
X140200000Y-104500000D02*
X140200000Y-104900000D01*
X135000000Y-95510072D02*
X136239928Y-96750000D01*
X138979999Y-120387343D02*
X138979999Y-119980999D01*
X143010000Y-123000000D02*
X143010000Y-123683672D01*
X132500000Y-134000000D02*
X132500000Y-133936500D01*
X134941600Y-101988128D02*
X134941600Y-102394472D01*
X137729711Y-117402711D02*
X137711668Y-117384668D01*
X137779200Y-112720800D02*
X137779200Y-112574681D01*
X134238720Y-91520000D02*
X135000000Y-92281280D01*
X137923709Y-112428883D02*
X138200000Y-112152592D01*
X139673671Y-119693671D02*
X139960999Y-119980999D01*
X134500000Y-134712500D02*
X133713500Y-134712500D01*
X135350000Y-105750000D02*
X135350000Y-106150000D01*
X136000000Y-86500000D02*
X136500000Y-86500000D01*
X137500000Y-119500000D02*
X135000000Y-119500000D01*
X134746000Y-90286000D02*
X135000000Y-90540000D01*
X134746000Y-88294000D02*
X134746000Y-90286000D01*
X136200000Y-104500000D02*
X136200000Y-105300000D01*
X137000000Y-114569500D02*
X137000000Y-113785630D01*
X135000000Y-94000000D02*
X135000000Y-95510072D01*
X137711668Y-117384668D02*
X137711668Y-116161828D01*
X137000000Y-113785630D02*
X137687209Y-113098421D01*
X134630500Y-115369500D02*
X135000000Y-115000000D01*
X133501000Y-133499000D02*
X134088500Y-133499000D01*
X135000000Y-119500000D02*
X134500000Y-120000000D01*
X139489736Y-112489736D02*
X139258672Y-112720800D01*
X138200000Y-112152592D02*
X138200000Y-111400000D01*
X135520000Y-87520000D02*
X135500000Y-87540000D01*
X135000000Y-92281280D02*
X135000000Y-94000000D01*
X135520000Y-86980000D02*
X134000000Y-86980000D01*
X142250000Y-110550000D02*
X142700000Y-111000000D01*
X141480000Y-124168196D02*
X140648196Y-125000000D01*
X142193672Y-124500000D02*
X141990000Y-124500000D01*
X137923709Y-112430172D02*
X137923709Y-112428883D01*
X138852328Y-112720800D02*
X138565000Y-112433472D01*
X134000000Y-119000000D02*
X133746000Y-118746000D01*
X134500000Y-94000000D02*
X135000000Y-94000000D01*
X134250000Y-115906186D02*
X134250000Y-115750000D01*
X137687209Y-112812791D02*
X137779200Y-112720800D01*
X133500000Y-137287500D02*
X134500000Y-136287500D01*
X141659500Y-106359500D02*
X141659500Y-110359500D01*
X137390500Y-115840660D02*
X137390500Y-115430500D01*
X143010000Y-123683672D02*
X142193672Y-124500000D01*
X135520000Y-86980000D02*
X136000000Y-86500000D01*
X139000000Y-125500000D02*
X139297500Y-125797500D01*
X140500000Y-122100000D02*
X139724499Y-121324499D01*
X134409500Y-115369500D02*
X134630500Y-115369500D01*
X133500000Y-139000000D02*
X133500000Y-137287500D01*
X136200000Y-105300000D02*
X135750000Y-105750000D01*
X133225000Y-139275000D02*
X133500000Y-139000000D01*
X135000000Y-120000000D02*
X134500000Y-120000000D01*
X137390500Y-115430500D02*
X137390500Y-115369500D01*
X141480000Y-122500000D02*
X141480000Y-124168196D01*
X140216028Y-112720800D02*
X139720800Y-112720800D01*
X139216499Y-120749291D02*
X139216499Y-120623843D01*
X133501000Y-134500000D02*
X133501000Y-133499000D01*
X139960999Y-120387343D02*
X139724499Y-120623843D01*
X135000000Y-120000000D02*
X134250000Y-119250000D01*
X132500000Y-135490000D02*
X132500000Y-134000000D01*
X138565000Y-112152592D02*
X138200000Y-112152592D01*
X139267327Y-119693671D02*
X139673671Y-119693671D01*
X135000000Y-90540000D02*
X135500500Y-91040500D01*
X133902000Y-116139170D02*
X133963077Y-116078093D01*
X139148196Y-125000000D02*
X139000000Y-125148196D01*
X134250000Y-119250000D02*
X134000000Y-119000000D01*
X133000000Y-119500000D02*
X133000000Y-119492000D01*
X137509186Y-119509186D02*
X137500000Y-119500000D01*
X136200000Y-104500000D02*
X136600000Y-104500000D01*
X134500000Y-134712500D02*
X134500000Y-136287500D01*
X135200000Y-115000000D02*
X135000000Y-115000000D01*
X137518372Y-119500000D02*
X137509186Y-119509186D01*
X139000000Y-125148196D02*
X139000000Y-125500000D01*
X139720800Y-112720800D02*
X139489736Y-112489736D01*
X134088500Y-133499000D02*
X138137500Y-129450000D01*
X135246000Y-119500000D02*
X135000000Y-119746000D01*
X138000000Y-121000000D02*
X138965790Y-121000000D01*
X137390500Y-115369500D02*
X137390500Y-114569500D01*
X140900000Y-122500000D02*
X140500000Y-122100000D01*
X133963077Y-116078093D02*
X134078093Y-116078093D01*
X137000000Y-85500000D02*
X137000000Y-86000000D01*
X139724499Y-120623843D02*
X139724499Y-120724499D01*
X135500500Y-91040500D02*
X135500500Y-91780780D01*
X140386492Y-112891264D02*
X140216028Y-112720800D01*
X137711668Y-116161828D02*
X137390500Y-115840660D01*
X138565000Y-112433472D02*
X138565000Y-112152592D01*
X138437499Y-129749999D02*
X138137500Y-129450000D01*
X135500000Y-102681800D02*
X135500000Y-103400000D01*
X133000000Y-119492000D02*
X133746000Y-118746000D01*
X134895960Y-101842477D02*
X134991606Y-101938123D01*
X135546600Y-106150000D02*
X135350000Y-106150000D01*
X139297500Y-125797500D02*
X139297500Y-129555210D01*
X138979999Y-119980999D02*
X139267327Y-119693671D01*
X141850000Y-110550000D02*
X142250000Y-110550000D01*
X137687209Y-113098421D02*
X137687209Y-112812791D01*
X137509186Y-120509186D02*
X138000000Y-121000000D01*
X137799013Y-117402711D02*
X137729711Y-117402711D01*
X135500000Y-87540000D02*
X134746000Y-88294000D01*
X139724499Y-121324499D02*
X139724499Y-120724499D01*
X141811804Y-124500000D02*
X141480000Y-124168196D01*
X135750000Y-105750000D02*
X135350000Y-105750000D01*
X134409500Y-115590500D02*
X134409500Y-115369500D01*
X139216499Y-120623843D02*
X138979999Y-120387343D01*
X140673400Y-112891264D02*
X140386492Y-112891264D01*
X141990000Y-124500000D02*
X141811804Y-124500000D01*
X138965790Y-121000000D02*
X139216499Y-120749291D01*
X133713500Y-134712500D02*
X133501000Y-134500000D01*
X135228928Y-102681800D02*
X135500000Y-102681800D01*
%TO.N,Net-(U1-CHIP_PU)*%
X143470500Y-124039500D02*
X143010000Y-124500000D01*
X143470500Y-122676432D02*
X143470500Y-124039500D01*
X134456900Y-107259500D02*
X134456900Y-106929900D01*
X142500000Y-122000000D02*
X142794068Y-122000000D01*
X142794068Y-122000000D02*
X143470500Y-122676432D01*
X133627000Y-107000000D02*
X133500000Y-107000000D01*
X134836800Y-106550000D02*
X135350000Y-106550000D01*
X133886500Y-107259500D02*
X133627000Y-107000000D01*
X134456900Y-107259500D02*
X133886500Y-107259500D01*
X134456900Y-106929900D02*
X134836800Y-106550000D01*
%TO.N,Net-(J3-Pin_5)*%
X132591000Y-108875300D02*
X132591000Y-112059300D01*
X132591000Y-112059300D02*
X133623300Y-113091600D01*
X133716300Y-107750000D02*
X132591000Y-108875300D01*
X135350000Y-107750000D02*
X133716300Y-107750000D01*
X135000000Y-117720000D02*
X135972998Y-117720000D01*
%TO.N,Net-(J3-Pin_4)*%
X135618900Y-102004500D02*
X135432100Y-102191300D01*
X137095600Y-101715400D02*
X136806500Y-102004500D01*
X135792200Y-117000000D02*
X135000000Y-117000000D01*
X139342200Y-96250000D02*
X139342200Y-97627700D01*
X136806500Y-102004500D02*
X135618900Y-102004500D01*
X138500000Y-96250000D02*
X139342200Y-96250000D01*
X135984799Y-116807401D02*
X135792200Y-117000000D01*
X135885199Y-116599600D02*
X135984799Y-116699200D01*
X133666600Y-108550000D02*
X133131100Y-109085500D01*
X137095600Y-99874300D02*
X137095600Y-101715400D01*
X139342200Y-97627700D02*
X137095600Y-99874300D01*
X135350000Y-108550000D02*
X133666600Y-108550000D01*
X135984799Y-116699200D02*
X135984799Y-116807401D01*
%TO.N,Net-(J3-Pin_3)*%
X135590500Y-116070500D02*
X135590500Y-115974000D01*
X133929300Y-111692600D02*
X133747300Y-111510600D01*
X135000000Y-116070500D02*
X135590500Y-116070500D01*
X135000000Y-116360000D02*
X135000000Y-116070500D01*
X136044500Y-115535710D02*
X136044500Y-114955500D01*
X135606210Y-115974000D02*
X136044500Y-115535710D01*
X136044500Y-114955500D02*
X136091900Y-114908100D01*
X136091900Y-113855200D02*
X133929300Y-111692600D01*
X133747300Y-111510600D02*
X133747300Y-109379400D01*
X138500000Y-95750000D02*
X135933600Y-95750000D01*
X133747300Y-109379400D02*
X134267300Y-108859400D01*
X135590500Y-115974000D02*
X135606210Y-115974000D01*
X136091900Y-114908100D02*
X136091900Y-113855200D01*
X134267300Y-108859400D02*
X135259400Y-108859400D01*
X135259400Y-108859400D02*
X135350000Y-108950000D01*
%TO.N,Net-(U1-GPIO6)*%
X135350000Y-109350000D02*
X134505400Y-109350000D01*
X136192600Y-89250000D02*
X138500000Y-89250000D01*
X134505400Y-109350000D02*
X134503800Y-109351600D01*
%TO.N,Net-(U1-GPIO7)*%
X137381800Y-88685400D02*
X137593200Y-88685400D01*
X135350000Y-109750000D02*
X135714200Y-109750000D01*
X135714200Y-109750000D02*
X136186100Y-109278100D01*
X138500000Y-88750000D02*
X137657800Y-88750000D01*
X137593200Y-88685400D02*
X137657800Y-88750000D01*
%TO.N,Net-(U1-GPIO8)*%
X138500000Y-94750000D02*
X135495100Y-94750000D01*
X135350000Y-110150000D02*
X134261200Y-110150000D01*
%TO.N,Net-(J2-Pin_3)*%
X133747367Y-121000000D02*
X134500000Y-121000000D01*
X135350000Y-110550000D02*
X134828500Y-111071500D01*
X134828500Y-111071500D02*
X134828500Y-111097800D01*
X133454111Y-120706744D02*
X133747367Y-121000000D01*
%TO.N,/GPIO10*%
X139148900Y-118851100D02*
X138289690Y-118851100D01*
X141429374Y-118263500D02*
X141233079Y-118263500D01*
X134432297Y-121432297D02*
X134500000Y-121500000D01*
X138603000Y-113397000D02*
X138500000Y-113500000D01*
X139884091Y-119185671D02*
X139483471Y-119185671D01*
X143088890Y-118026390D02*
X143187500Y-118125000D01*
X138289690Y-118851100D02*
X137917231Y-119223559D01*
X136869400Y-119246000D02*
X136474500Y-118851100D01*
X140097499Y-119399080D02*
X139884091Y-119185671D01*
X139483471Y-119185671D02*
X139148900Y-118851100D01*
X137917231Y-119223559D02*
X137712358Y-119018686D01*
X143088890Y-117285979D02*
X143088890Y-118026390D01*
X136200000Y-111400000D02*
X135672600Y-111927400D01*
X135672600Y-111927400D02*
X135671000Y-111927400D01*
X141233079Y-118263500D02*
X140097499Y-119399080D01*
X140350000Y-113727972D02*
X140019028Y-113397000D01*
X140350000Y-114000000D02*
X140350000Y-113727972D01*
X133500000Y-121432297D02*
X133591597Y-121340700D01*
X133500000Y-121432297D02*
X134432297Y-121432297D01*
X141500000Y-118260500D02*
X141432374Y-118260500D01*
X141432374Y-118260500D02*
X141429374Y-118263500D01*
X137078700Y-119246000D02*
X136869400Y-119246000D01*
X137306014Y-119018686D02*
X137078700Y-119246000D01*
X140019028Y-113397000D02*
X138603000Y-113397000D01*
X137712358Y-119018686D02*
X137306014Y-119018686D01*
%TO.N,/GPIO11*%
X140072495Y-118000000D02*
X140100097Y-118000000D01*
X141105210Y-117754000D02*
X141468328Y-117754000D01*
X138033200Y-112826010D02*
X138033200Y-112679891D01*
X137846199Y-113298641D02*
X137941209Y-113203631D01*
X142509500Y-116703172D02*
X142743763Y-116937435D01*
X138177709Y-112534093D02*
X138242060Y-112469742D01*
X134340700Y-122159300D02*
X134500000Y-122000000D01*
X139785167Y-118322522D02*
X140072495Y-118035194D01*
X141484328Y-117770000D02*
X142145000Y-117770000D01*
X142259900Y-117780572D02*
X142259900Y-118125000D01*
X141468328Y-117754000D02*
X141484328Y-117770000D01*
X138033200Y-112679891D02*
X138177709Y-112535382D01*
X142090672Y-113397000D02*
X143500000Y-114806328D01*
X139350000Y-114000000D02*
X138000000Y-114000000D01*
X138242060Y-112469742D02*
X138747118Y-112974800D01*
X140470228Y-113381764D02*
X140876572Y-113381764D01*
X140203212Y-118000000D02*
X140287328Y-118000000D01*
X139379898Y-118322522D02*
X139785167Y-118322522D01*
X140182900Y-113094436D02*
X140470228Y-113381764D01*
X138102094Y-113971731D02*
X138130363Y-114000000D01*
X137846199Y-113846199D02*
X137846199Y-113298641D01*
X138000000Y-114000000D02*
X137846199Y-113846199D01*
X140072495Y-118035194D02*
X140072495Y-118000000D01*
X140962374Y-117896836D02*
X141105210Y-117754000D01*
X136600000Y-111400000D02*
X136600000Y-112357130D01*
X138079270Y-118343100D02*
X139359320Y-118343100D01*
X137941209Y-112918001D02*
X138033200Y-112826010D01*
X139615590Y-112974800D02*
X140110818Y-112974800D01*
X137571299Y-113971731D02*
X138102094Y-113971731D01*
X140876572Y-113381764D02*
X141129168Y-113129168D01*
X142551321Y-117489151D02*
X142259900Y-117780572D01*
X136600000Y-112357130D02*
X136509501Y-112447629D01*
X138052820Y-118369549D02*
X138079270Y-118343100D01*
X137851972Y-118168701D02*
X138052820Y-118369549D01*
X143500000Y-116009500D02*
X142796828Y-116009500D01*
X142796828Y-116009500D02*
X142509500Y-116296828D01*
X142145000Y-117770000D02*
X142187500Y-117812500D01*
X140182900Y-113046882D02*
X140182900Y-113094436D01*
X140390492Y-117896836D02*
X140962374Y-117896836D01*
X138130363Y-114000000D02*
X139350000Y-114000000D01*
X138177709Y-112535382D02*
X138177709Y-112534093D01*
X143500000Y-115784068D02*
X143500000Y-116009500D01*
X140203212Y-118103115D02*
X140203212Y-118000000D01*
X142598390Y-117489151D02*
X142551321Y-117489151D01*
X143500000Y-114806328D02*
X143500000Y-115215932D01*
X137941209Y-113203631D02*
X137941209Y-112918001D01*
X140100097Y-118000000D02*
X140203212Y-118103115D01*
X139359320Y-118343100D02*
X139379898Y-118322522D01*
X143489500Y-115226432D02*
X143489500Y-115773568D01*
X141397000Y-113397000D02*
X142090672Y-113397000D01*
X142509500Y-116296828D02*
X142509500Y-116703172D01*
X133500000Y-122159300D02*
X134340700Y-122159300D01*
X138747118Y-112974800D02*
X139363882Y-112974800D01*
X142598390Y-117082807D02*
X142598390Y-117489151D01*
X141129168Y-113129168D02*
X141397000Y-113397000D01*
X143489500Y-115773568D02*
X143500000Y-115784068D01*
X139363882Y-112974800D02*
X139489736Y-112848946D01*
X140287328Y-118000000D02*
X140390492Y-117896836D01*
X142743763Y-116937435D02*
X142598390Y-117082807D01*
X139489736Y-112848946D02*
X139615590Y-112974800D01*
X143500000Y-115215932D02*
X143489500Y-115226432D01*
X140110818Y-112974800D02*
X140182900Y-113046882D01*
%TO.N,/GPIO12*%
X140897000Y-119143472D02*
X141043472Y-118997000D01*
X138250001Y-114687500D02*
X138662500Y-114687500D01*
X138059500Y-116630328D02*
X138059500Y-114878001D01*
X137313285Y-113113135D02*
X137247035Y-113113135D01*
X137433209Y-112993211D02*
X137313285Y-113113135D01*
X137000000Y-112866100D02*
X137000000Y-111400000D01*
X141315500Y-118997000D02*
X141500000Y-118812500D01*
X138966045Y-119439671D02*
X139778881Y-119439671D01*
X140897000Y-119254000D02*
X140897000Y-119143472D01*
X138235500Y-116772997D02*
X138202169Y-116772997D01*
X140158664Y-119819454D02*
X140158664Y-119697125D01*
X137433209Y-112227000D02*
X137433209Y-112993211D01*
X138202168Y-116772996D02*
X138059500Y-116630328D01*
X141043472Y-118997000D02*
X141315500Y-118997000D01*
X138059500Y-114878001D02*
X138250001Y-114687500D01*
X140601789Y-119254000D02*
X140897000Y-119254000D01*
X140158664Y-119697125D02*
X140601789Y-119254000D01*
X137247035Y-113113135D02*
X137000000Y-112866100D01*
X138202169Y-116772997D02*
X138202168Y-116772996D01*
X141500000Y-118812500D02*
X141812500Y-118812500D01*
X138101586Y-120304130D02*
X138966045Y-119439671D01*
X139778881Y-119439671D02*
X140158664Y-119819454D01*
%TO.N,Net-(U1-GPIO13)*%
X136570524Y-110328200D02*
X136697800Y-110328200D01*
X137400000Y-111030400D02*
X137400000Y-111400000D01*
X138500000Y-95250000D02*
X137401500Y-95250000D01*
X136697800Y-110328200D02*
X137400000Y-111030400D01*
%TO.N,Net-(U1-GPIO14)*%
X137549200Y-94141400D02*
X137657800Y-94250000D01*
X138398649Y-110401351D02*
X138597904Y-110401351D01*
X137800000Y-111000000D02*
X138398649Y-110401351D01*
X137800000Y-111000000D02*
X137800000Y-111400000D01*
X138500000Y-94250000D02*
X137657800Y-94250000D01*
X137410100Y-94141400D02*
X137549200Y-94141400D01*
%TO.N,Net-(U1-GPIO18)*%
X134925328Y-126325500D02*
X136913000Y-126325500D01*
X136913000Y-126325500D02*
X137403500Y-126816000D01*
X132500000Y-136510000D02*
X133010500Y-135999500D01*
X139800000Y-111400000D02*
X139800000Y-111752100D01*
X133010500Y-128240328D02*
X134925328Y-126325500D01*
X139800000Y-111752100D02*
X139321800Y-112230300D01*
X133010500Y-135999500D02*
X133010500Y-128240328D01*
X139321800Y-112230300D02*
X139055500Y-112230300D01*
X137403500Y-126816000D02*
X138137500Y-127550000D01*
%TO.N,Net-(U1-GPIO19{slash}USB_D-)*%
X142052882Y-113000000D02*
X141477890Y-113000000D01*
X144000000Y-115500000D02*
X144000000Y-114947118D01*
X141477890Y-113000000D02*
X140468390Y-111990500D01*
X144000000Y-114947118D02*
X142052882Y-113000000D01*
X140390500Y-111990500D02*
X140200000Y-111800000D01*
X140468390Y-111990500D02*
X140390500Y-111990500D01*
X140200000Y-111800000D02*
X140200000Y-111400000D01*
%TO.N,Net-(U1-GPIO20{slash}USB_D+)*%
X140600000Y-111400000D02*
X140600000Y-111762900D01*
X144510500Y-116506131D02*
X144741428Y-116737059D01*
X141177700Y-112340600D02*
X142068152Y-112340600D01*
X144510500Y-115226432D02*
X144510500Y-115773568D01*
X140600000Y-111762900D02*
X141177700Y-112340600D01*
X144800000Y-122779000D02*
X144800000Y-123180000D01*
X144500000Y-115215932D02*
X144510500Y-115226432D01*
X144500000Y-116235932D02*
X144510500Y-116246432D01*
X144500000Y-114772448D02*
X144500000Y-115215932D01*
X142068152Y-112340600D02*
X144500000Y-114772448D01*
X144500000Y-115784068D02*
X144500000Y-116235932D01*
X144510500Y-115773568D02*
X144500000Y-115784068D01*
X144800000Y-123180000D02*
X144500000Y-123480000D01*
X144510500Y-116246432D02*
X144510500Y-116506131D01*
%TO.N,Net-(U1-GPIO21)*%
X138500000Y-93750000D02*
X139588700Y-93750000D01*
X141000000Y-111400000D02*
X141000000Y-110561200D01*
%TO.N,Net-(U1-GPIO38)*%
X139326300Y-89750000D02*
X138500000Y-89750000D01*
X142000000Y-100240500D02*
X142924700Y-100240500D01*
X141500000Y-102500000D02*
X141627372Y-102500000D01*
X141950000Y-103950000D02*
X141500000Y-103500000D01*
X141500000Y-101500000D02*
X141500000Y-100500000D01*
X141627372Y-102500000D02*
X142000000Y-102127372D01*
X142000000Y-101872628D02*
X141627372Y-101500000D01*
X141740500Y-100500000D02*
X142000000Y-100240500D01*
X141284700Y-89590700D02*
X139485600Y-89590700D01*
X141400000Y-104500000D02*
X141950000Y-103950000D01*
X141500000Y-103500000D02*
X141500000Y-102500000D01*
X143092100Y-91398100D02*
X141284700Y-89590700D01*
X142924700Y-100240500D02*
X143092100Y-100407900D01*
X141627372Y-101500000D02*
X141500000Y-101500000D01*
X141500000Y-100500000D02*
X141740500Y-100500000D01*
X139485600Y-89590700D02*
X139326300Y-89750000D01*
X142000000Y-102127372D02*
X142000000Y-101872628D01*
X143092100Y-100407900D02*
X143092100Y-91398100D01*
%TO.N,Net-(U1-MTCK)*%
X142268600Y-104987700D02*
X142160100Y-104879200D01*
X141634300Y-105115700D02*
X141211300Y-105115700D01*
X142160100Y-104879200D02*
X141870800Y-104879200D01*
X142448600Y-104987700D02*
X142965300Y-104987700D01*
X142448600Y-104987700D02*
X142268600Y-104987700D01*
X141000000Y-104904400D02*
X141000000Y-104500000D01*
X141211300Y-105115700D02*
X141000000Y-104904400D01*
X139485600Y-90409300D02*
X139326300Y-90250000D01*
X141870800Y-104879200D02*
X141634300Y-105115700D01*
X138500000Y-90250000D02*
X139326300Y-90250000D01*
X141340000Y-90409300D02*
X139485600Y-90409300D01*
%TO.N,Net-(U1-MTDO)*%
X138500000Y-90750000D02*
X139326300Y-90750000D01*
X139485600Y-90909300D02*
X140382400Y-90909300D01*
X140500000Y-104400000D02*
X140600000Y-104500000D01*
X139326300Y-90750000D02*
X139485600Y-90909300D01*
X140500000Y-103500000D02*
X140500000Y-104400000D01*
%TO.N,Net-(U1-MTDI)*%
X138500000Y-91250000D02*
X139342200Y-91250000D01*
X139800000Y-104500000D02*
X139800000Y-104046500D01*
X139789900Y-103238600D02*
X139789900Y-98609800D01*
X139800000Y-104046500D02*
X139984500Y-103862000D01*
X139984500Y-103862000D02*
X139984500Y-103433200D01*
X140726800Y-92398900D02*
X139577900Y-91250000D01*
X139789900Y-98609800D02*
X140726800Y-97672900D01*
X140726800Y-97672900D02*
X140726800Y-92398900D01*
X139577900Y-91250000D02*
X139342200Y-91250000D01*
X139984500Y-103433200D02*
X139789900Y-103238600D01*
%TO.N,Net-(U1-MTMS)*%
X138500000Y-91750000D02*
X137416000Y-91750000D01*
X139400000Y-104500000D02*
X139400000Y-103750400D01*
X139400000Y-103750400D02*
X139492300Y-103658100D01*
%TO.N,Net-(U1-U0TXD)*%
X139989800Y-92358000D02*
X139450200Y-92358000D01*
X138500000Y-92250000D02*
X139342200Y-92250000D01*
X139000000Y-98703600D02*
X140234600Y-97469000D01*
X139450200Y-92358000D02*
X139342200Y-92250000D01*
X139000000Y-104500000D02*
X139000000Y-98703600D01*
%TO.N,Net-(U1-U0RXD)*%
X139222500Y-92750000D02*
X139342200Y-92750000D01*
X139742400Y-97599600D02*
X138744300Y-98597700D01*
X139742400Y-97265200D02*
X139742400Y-97599600D01*
X138500000Y-92750000D02*
X139222500Y-92750000D01*
X139342200Y-92750000D02*
X140110500Y-93518300D01*
X138744300Y-103831900D02*
X138600000Y-103976200D01*
X138600000Y-103976200D02*
X138600000Y-104500000D01*
X140110500Y-93518300D02*
X140110500Y-96897100D01*
X138744300Y-98597700D02*
X138744300Y-103831900D01*
X140110500Y-96897100D02*
X139742400Y-97265200D01*
%TO.N,Net-(U1-GPIO45)*%
X138200000Y-104500000D02*
X138200000Y-103655900D01*
X138500000Y-93250000D02*
X137417100Y-93250000D01*
%TO.N,Net-(U1-XTAL_N)*%
X137400000Y-104854600D02*
X137400000Y-104500000D01*
X140500000Y-102000000D02*
X141192200Y-102000000D01*
X141192200Y-102000000D02*
X141433700Y-102000000D01*
X143000000Y-103000000D02*
X142500000Y-102500000D01*
X142500000Y-101000000D02*
X142474800Y-101000000D01*
X139357500Y-105327000D02*
X139190500Y-105494000D01*
X139190500Y-105494000D02*
X138039400Y-105494000D01*
X142500000Y-102500000D02*
X142500000Y-101000000D01*
X138039400Y-105494000D02*
X137400000Y-104854600D01*
%TO.N,Net-(U1-XTAL_P)*%
X136827800Y-102480000D02*
X137307800Y-102000000D01*
X136500000Y-102480000D02*
X137000000Y-102980000D01*
X137000000Y-102980000D02*
X137000000Y-104500000D01*
X136500000Y-102480000D02*
X136827800Y-102480000D01*
X138000000Y-102000000D02*
X137307800Y-102000000D01*
%TO.N,Net-(M1-OUT)*%
X134000000Y-89500000D02*
X133500000Y-90000000D01*
X134000000Y-88000000D02*
X134000000Y-89500000D01*
X134000000Y-88000000D02*
X134000000Y-88227700D01*
X134000000Y-88000000D02*
X133000000Y-87000000D01*
X134500000Y-85500000D02*
X134500000Y-82625000D01*
X134500000Y-84000000D02*
X134500000Y-82625000D01*
X133000000Y-87000000D02*
X134500000Y-85500000D01*
%TO.N,Net-(U5-IN+)*%
X133109000Y-88000000D02*
X133109000Y-88649000D01*
X135128500Y-126816000D02*
X135862500Y-127550000D01*
X133109000Y-88649000D02*
X133500000Y-89040000D01*
%TO.N,Net-(U5-IN-)*%
X141537013Y-125047013D02*
X141990000Y-125500000D01*
X141341695Y-125000174D02*
X141388534Y-125047013D01*
X137137200Y-128041300D02*
X136678500Y-128500000D01*
X141388534Y-125047013D02*
X141537013Y-125047013D01*
X141990000Y-123000000D02*
X141990000Y-123490000D01*
X141990000Y-123490000D02*
X142250000Y-123750000D01*
X136678500Y-128500000D02*
X135862500Y-128500000D01*
%TO.N,Net-(J5-Pin_1)*%
X139969819Y-117642836D02*
X140857164Y-117642836D01*
X141973183Y-117500000D02*
X142000000Y-117500000D01*
X140857164Y-117642836D02*
X141000000Y-117500000D01*
X141640459Y-116187500D02*
X141537500Y-116187500D01*
X142259899Y-117240101D02*
X142259899Y-116806940D01*
X133300000Y-80500000D02*
X134000000Y-79800000D01*
X141972571Y-117500612D02*
X141973183Y-117500000D01*
X141566227Y-117500612D02*
X141972571Y-117500612D01*
X141565615Y-117500000D02*
X141566227Y-117500612D01*
X139581995Y-117832022D02*
X139780633Y-117832022D01*
X134000000Y-81000000D02*
X133000000Y-82000000D01*
X139780633Y-117832022D02*
X139969819Y-117642836D01*
X141000000Y-117500000D02*
X141565615Y-117500000D01*
X142000000Y-117500000D02*
X142259899Y-117240101D01*
X134000000Y-79800000D02*
X134000000Y-81000000D01*
X142259899Y-116806940D02*
X141640459Y-116187500D01*
%TO.N,Net-(J5-Pin_2)*%
X137403800Y-83403800D02*
X137403800Y-83472800D01*
X142000000Y-114000000D02*
X141771100Y-114000000D01*
X137403800Y-83472800D02*
X144254000Y-90323000D01*
X142873097Y-114873097D02*
X142000000Y-114000000D01*
X144254000Y-90323000D02*
X144254000Y-111246000D01*
X141648800Y-114122300D02*
X141771100Y-114000000D01*
X141648800Y-114151200D02*
X141648800Y-114122300D01*
X142585769Y-115707961D02*
X142873097Y-115420633D01*
X135500000Y-76700000D02*
X135500000Y-81500000D01*
X135500000Y-81500000D02*
X137403800Y-83403800D01*
X141557961Y-115707961D02*
X142585769Y-115707961D01*
X142873097Y-115420633D02*
X142873097Y-114873097D01*
X134000000Y-75200000D02*
X135500000Y-76700000D01*
X144254000Y-111246000D02*
X143000000Y-112500000D01*
X141537500Y-115687500D02*
X141557961Y-115707961D01*
%TD*%
%TA.AperFunction,Conductor*%
%TO.N,GND*%
G36*
X135680703Y-135973686D02*
G01*
X135702602Y-135998508D01*
X135785509Y-136122587D01*
X135785510Y-136122588D01*
X135785511Y-136122589D01*
X135806981Y-136144059D01*
X135840466Y-136205380D01*
X135843300Y-136231740D01*
X135843300Y-138626747D01*
X135843300Y-138626748D01*
X135843300Y-138775252D01*
X135881735Y-138918696D01*
X135955987Y-139047304D01*
X136060996Y-139152313D01*
X136189604Y-139226565D01*
X136287312Y-139252745D01*
X136346971Y-139289108D01*
X136374294Y-139337924D01*
X136398253Y-139420393D01*
X136398255Y-139420396D01*
X136481917Y-139561862D01*
X136481923Y-139561870D01*
X136598129Y-139678076D01*
X136598133Y-139678079D01*
X136598135Y-139678081D01*
X136739602Y-139761744D01*
X136781224Y-139773836D01*
X136897426Y-139807597D01*
X136897429Y-139807597D01*
X136897431Y-139807598D01*
X136928073Y-139810009D01*
X136993361Y-139834891D01*
X137034833Y-139891122D01*
X137039322Y-139960847D01*
X137005401Y-140021930D01*
X136981061Y-140039849D01*
X136981151Y-140039983D01*
X136978229Y-140041934D01*
X136976813Y-140042978D01*
X136976090Y-140043364D01*
X136812218Y-140152860D01*
X136812214Y-140152863D01*
X136672863Y-140292214D01*
X136672860Y-140292218D01*
X136563371Y-140456079D01*
X136563364Y-140456092D01*
X136487950Y-140638160D01*
X136487947Y-140638170D01*
X136449500Y-140831456D01*
X136449500Y-140831459D01*
X136449500Y-141028541D01*
X136449500Y-141028543D01*
X136449499Y-141028543D01*
X136487947Y-141221829D01*
X136487950Y-141221839D01*
X136563364Y-141403907D01*
X136563371Y-141403920D01*
X136672860Y-141567781D01*
X136672863Y-141567785D01*
X136812214Y-141707136D01*
X136812218Y-141707139D01*
X136909884Y-141772398D01*
X136954689Y-141826010D01*
X136963396Y-141895335D01*
X136933241Y-141958363D01*
X136873798Y-141995082D01*
X136840993Y-141999500D01*
X134292263Y-141999500D01*
X134225224Y-141979815D01*
X134179469Y-141927011D01*
X134168905Y-141862897D01*
X134169421Y-141857853D01*
X134175500Y-141798345D01*
X134175499Y-141201656D01*
X134165349Y-141102292D01*
X134112003Y-140941303D01*
X134111999Y-140941297D01*
X134111998Y-140941294D01*
X134022970Y-140796959D01*
X134022967Y-140796955D01*
X133903043Y-140677031D01*
X133847902Y-140643019D01*
X133801178Y-140591070D01*
X133789000Y-140537481D01*
X133789000Y-140082628D01*
X133808685Y-140015589D01*
X133861489Y-139969834D01*
X133873992Y-139964923D01*
X134033697Y-139912003D01*
X134178044Y-139822968D01*
X134297968Y-139703044D01*
X134387003Y-139558697D01*
X134440349Y-139397708D01*
X134450500Y-139298345D01*
X134450499Y-138701656D01*
X134448403Y-138681141D01*
X134440349Y-138602292D01*
X134440348Y-138602289D01*
X134397411Y-138472713D01*
X134387003Y-138441303D01*
X134386999Y-138441297D01*
X134386998Y-138441294D01*
X134297970Y-138296959D01*
X134297967Y-138296955D01*
X134178043Y-138177031D01*
X134122902Y-138143019D01*
X134076178Y-138091070D01*
X134064000Y-138037481D01*
X134064000Y-137572478D01*
X134083685Y-137505439D01*
X134100319Y-137484797D01*
X134323297Y-137261819D01*
X134384620Y-137228334D01*
X134410978Y-137225500D01*
X134804169Y-137225500D01*
X134804174Y-137225500D01*
X134902685Y-137215436D01*
X135062287Y-137162549D01*
X135205391Y-137074281D01*
X135324281Y-136955391D01*
X135412549Y-136812287D01*
X135465436Y-136652685D01*
X135475500Y-136554174D01*
X135475500Y-136067399D01*
X135495185Y-136000360D01*
X135547989Y-135954605D01*
X135617147Y-135944661D01*
X135680703Y-135973686D01*
G37*
%TD.AperFunction*%
%TA.AperFunction,Conductor*%
G36*
X140066703Y-128880010D02*
G01*
X140104477Y-128938788D01*
X140104547Y-128939028D01*
X140110756Y-128960398D01*
X140157597Y-129039602D01*
X140194417Y-129101862D01*
X140194423Y-129101870D01*
X140310629Y-129218076D01*
X140310633Y-129218079D01*
X140310635Y-129218081D01*
X140452102Y-129301744D01*
X140493724Y-129313836D01*
X140609926Y-129347597D01*
X140609929Y-129347597D01*
X140609931Y-129347598D01*
X140646806Y-129350500D01*
X140646814Y-129350500D01*
X141404263Y-129350500D01*
X141471302Y-129370185D01*
X141517057Y-129422989D01*
X141527001Y-129492147D01*
X141497976Y-129555703D01*
X141491944Y-129562181D01*
X141431398Y-129622726D01*
X141431395Y-129622730D01*
X141343794Y-129753833D01*
X141343787Y-129753846D01*
X141283449Y-129899517D01*
X141283446Y-129899529D01*
X141252685Y-130054172D01*
X141252685Y-130071340D01*
X141233000Y-130138379D01*
X141180196Y-130184134D01*
X141111038Y-130194078D01*
X141104494Y-130192957D01*
X141064310Y-130184964D01*
X141064306Y-130184964D01*
X140906622Y-130184964D01*
X140906619Y-130184964D01*
X140751974Y-130215725D01*
X140751962Y-130215728D01*
X140606291Y-130276066D01*
X140606278Y-130276073D01*
X140475175Y-130363674D01*
X140475171Y-130363677D01*
X140363677Y-130475171D01*
X140363674Y-130475175D01*
X140276073Y-130606278D01*
X140276066Y-130606291D01*
X140215728Y-130751962D01*
X140215725Y-130751974D01*
X140184964Y-130906617D01*
X140184964Y-131064310D01*
X140215725Y-131218953D01*
X140215728Y-131218965D01*
X140276066Y-131364636D01*
X140276073Y-131364649D01*
X140363674Y-131495752D01*
X140363677Y-131495756D01*
X140475171Y-131607250D01*
X140475175Y-131607253D01*
X140606278Y-131694854D01*
X140606291Y-131694861D01*
X140685841Y-131727811D01*
X140751967Y-131755201D01*
X140757709Y-131756343D01*
X140819621Y-131788726D01*
X140854197Y-131849440D01*
X140850460Y-131919210D01*
X140848083Y-131925413D01*
X140817950Y-131998160D01*
X140817947Y-131998170D01*
X140779500Y-132191456D01*
X140779500Y-132191459D01*
X140779500Y-132388541D01*
X140779500Y-132388543D01*
X140779499Y-132388543D01*
X140817947Y-132581829D01*
X140817950Y-132581839D01*
X140893364Y-132763907D01*
X140893371Y-132763920D01*
X141002860Y-132927781D01*
X141002863Y-132927785D01*
X141142214Y-133067136D01*
X141142218Y-133067139D01*
X141306079Y-133176628D01*
X141306092Y-133176635D01*
X141450737Y-133236548D01*
X141488165Y-133252051D01*
X141518103Y-133258006D01*
X141580013Y-133290389D01*
X141614588Y-133351105D01*
X141610849Y-133420874D01*
X141581593Y-133467304D01*
X138927717Y-136121181D01*
X138866394Y-136154666D01*
X138840036Y-136157500D01*
X138617568Y-136157500D01*
X138550529Y-136137815D01*
X138504774Y-136085011D01*
X138494629Y-136017314D01*
X138495554Y-136010292D01*
X138500500Y-135972720D01*
X138500500Y-135747280D01*
X138485687Y-135634764D01*
X138485686Y-135634763D01*
X138484626Y-135626705D01*
X138487689Y-135626301D01*
X138487689Y-135593698D01*
X138484626Y-135593295D01*
X138486528Y-135578846D01*
X138500500Y-135472720D01*
X138500500Y-135247280D01*
X138485687Y-135134764D01*
X138485686Y-135134763D01*
X138484626Y-135126705D01*
X138487689Y-135126301D01*
X138487689Y-135093698D01*
X138484626Y-135093295D01*
X138489205Y-135058516D01*
X138500500Y-134972720D01*
X138500500Y-134747280D01*
X138485687Y-134634764D01*
X138479948Y-134620910D01*
X138472477Y-134551445D01*
X138475427Y-134538876D01*
X138497598Y-134462569D01*
X138500500Y-134425694D01*
X138500500Y-134307288D01*
X138520185Y-134240249D01*
X138572989Y-134194494D01*
X138592399Y-134187515D01*
X138683536Y-134163095D01*
X138791964Y-134100495D01*
X138880495Y-134011964D01*
X138943095Y-133903536D01*
X138975500Y-133782601D01*
X138975500Y-133657399D01*
X138943095Y-133536464D01*
X138880495Y-133428036D01*
X138875955Y-133423496D01*
X138842470Y-133362173D01*
X138847454Y-133292481D01*
X138889326Y-133236548D01*
X138916175Y-133221258D01*
X139023914Y-133176632D01*
X139187782Y-133067139D01*
X139327139Y-132927782D01*
X139436632Y-132763914D01*
X139512051Y-132581835D01*
X139550500Y-132388541D01*
X139550500Y-132191459D01*
X139550500Y-132191456D01*
X139512052Y-131998170D01*
X139512051Y-131998169D01*
X139512051Y-131998165D01*
X139512049Y-131998160D01*
X139436635Y-131816092D01*
X139436628Y-131816079D01*
X139327139Y-131652218D01*
X139327136Y-131652214D01*
X139187785Y-131512863D01*
X139187781Y-131512860D01*
X139023920Y-131403371D01*
X139023907Y-131403364D01*
X138841839Y-131327950D01*
X138841829Y-131327947D01*
X138648543Y-131289500D01*
X138648541Y-131289500D01*
X137394978Y-131289500D01*
X137327939Y-131269815D01*
X137282184Y-131217011D01*
X137272240Y-131147853D01*
X137301265Y-131084297D01*
X137307297Y-131077819D01*
X137778838Y-130606278D01*
X138083259Y-130301857D01*
X138144580Y-130268374D01*
X138214272Y-130273358D01*
X138218389Y-130274978D01*
X138219795Y-130275559D01*
X138219803Y-130275564D01*
X138363247Y-130314000D01*
X138363250Y-130314000D01*
X138519348Y-130314000D01*
X138519364Y-130313999D01*
X139176962Y-130313999D01*
X139176964Y-130313999D01*
X139320407Y-130275564D01*
X139361664Y-130251744D01*
X139449015Y-130201312D01*
X139554024Y-130096303D01*
X139554024Y-130096301D01*
X139564228Y-130086098D01*
X139564232Y-130086093D01*
X139633594Y-130016731D01*
X139633599Y-130016727D01*
X139643802Y-130006523D01*
X139643804Y-130006523D01*
X139748813Y-129901514D01*
X139823065Y-129772906D01*
X139838395Y-129715694D01*
X139861500Y-129629463D01*
X139861500Y-129480958D01*
X139861500Y-128973723D01*
X139881185Y-128906684D01*
X139933989Y-128860929D01*
X140003147Y-128850985D01*
X140066703Y-128880010D01*
G37*
%TD.AperFunction*%
%TA.AperFunction,Conductor*%
G36*
X136368834Y-132118796D02*
G01*
X136424767Y-132160668D01*
X136449184Y-132226132D01*
X136449500Y-132234978D01*
X136449500Y-132388541D01*
X136449500Y-132388543D01*
X136449499Y-132388543D01*
X136487947Y-132581829D01*
X136487950Y-132581839D01*
X136563364Y-132763907D01*
X136563371Y-132763920D01*
X136672860Y-132927781D01*
X136672863Y-132927785D01*
X136812214Y-133067136D01*
X136812218Y-133067139D01*
X136976087Y-133176633D01*
X136976799Y-133177014D01*
X136977101Y-133177311D01*
X136981151Y-133180017D01*
X136980637Y-133180784D01*
X137026643Y-133225976D01*
X137042104Y-133294113D01*
X137018273Y-133359793D01*
X136962715Y-133402162D01*
X136928076Y-133409990D01*
X136897431Y-133412401D01*
X136897426Y-133412402D01*
X136739606Y-133458254D01*
X136739603Y-133458255D01*
X136598137Y-133541917D01*
X136598129Y-133541923D01*
X136481923Y-133658129D01*
X136481917Y-133658137D01*
X136398255Y-133799603D01*
X136398254Y-133799604D01*
X136374294Y-133882076D01*
X136336687Y-133940961D01*
X136287311Y-133967255D01*
X136189604Y-133993435D01*
X136189601Y-133993436D01*
X136060999Y-134067685D01*
X136060993Y-134067689D01*
X135955989Y-134172693D01*
X135955985Y-134172699D01*
X135881736Y-134301301D01*
X135881735Y-134301304D01*
X135843300Y-134444748D01*
X135843300Y-134992859D01*
X135823615Y-135059898D01*
X135806981Y-135080540D01*
X135785513Y-135102007D01*
X135785510Y-135102011D01*
X135697909Y-135233114D01*
X135697902Y-135233127D01*
X135637564Y-135378798D01*
X135637561Y-135378810D01*
X135606800Y-135533453D01*
X135606800Y-135640406D01*
X135587115Y-135707445D01*
X135534311Y-135753200D01*
X135465153Y-135763144D01*
X135401597Y-135734119D01*
X135377262Y-135705503D01*
X135324283Y-135619612D01*
X135324280Y-135619608D01*
X135292353Y-135587681D01*
X135258868Y-135526358D01*
X135263852Y-135456666D01*
X135292353Y-135412319D01*
X135324281Y-135380391D01*
X135412549Y-135237287D01*
X135465436Y-135077685D01*
X135475500Y-134979174D01*
X135475500Y-134445826D01*
X135465436Y-134347315D01*
X135412549Y-134187713D01*
X135412545Y-134187707D01*
X135412544Y-134187704D01*
X135324283Y-134044612D01*
X135324280Y-134044608D01*
X135205391Y-133925719D01*
X135205387Y-133925716D01*
X135062295Y-133837455D01*
X135062289Y-133837452D01*
X135062287Y-133837451D01*
X134902685Y-133784564D01*
X134902683Y-133784563D01*
X134888151Y-133783079D01*
X134823460Y-133756681D01*
X134783310Y-133699500D01*
X134780448Y-133629689D01*
X134813073Y-133572042D01*
X136237819Y-132147297D01*
X136299142Y-132113812D01*
X136368834Y-132118796D01*
G37*
%TD.AperFunction*%
%TA.AperFunction,Conductor*%
G36*
X132205703Y-120207161D02*
G01*
X132212181Y-120213193D01*
X132296955Y-120297967D01*
X132296959Y-120297970D01*
X132441294Y-120386998D01*
X132441297Y-120386999D01*
X132441303Y-120387003D01*
X132581453Y-120433443D01*
X132638897Y-120473215D01*
X132665720Y-120537731D01*
X132664066Y-120575339D01*
X132653611Y-120627902D01*
X132653611Y-120785590D01*
X132684372Y-120940233D01*
X132684375Y-120940245D01*
X132741211Y-121077460D01*
X132748680Y-121146929D01*
X132741213Y-121172361D01*
X132730262Y-121198799D01*
X132730261Y-121198802D01*
X132699500Y-121353450D01*
X132699500Y-121511143D01*
X132730261Y-121665786D01*
X132730264Y-121665798D01*
X132764456Y-121748346D01*
X132771925Y-121817816D01*
X132764457Y-121843249D01*
X132730262Y-121925806D01*
X132730260Y-121925811D01*
X132699500Y-122080453D01*
X132699500Y-122238146D01*
X132730261Y-122392789D01*
X132730264Y-122392801D01*
X132790602Y-122538472D01*
X132790609Y-122538485D01*
X132878210Y-122669588D01*
X132878213Y-122669592D01*
X132989707Y-122781086D01*
X132989711Y-122781089D01*
X133120814Y-122868690D01*
X133120827Y-122868697D01*
X133232409Y-122914915D01*
X133266503Y-122929037D01*
X133400496Y-122955690D01*
X133421153Y-122959799D01*
X133421156Y-122959800D01*
X133475501Y-122959800D01*
X133542540Y-122979485D01*
X133588295Y-123032289D01*
X133599501Y-123083800D01*
X133599501Y-123197878D01*
X133603679Y-123236745D01*
X133603679Y-123263250D01*
X133599500Y-123302122D01*
X133599500Y-123697870D01*
X133599501Y-123697876D01*
X133605908Y-123757483D01*
X133656202Y-123892328D01*
X133656206Y-123892335D01*
X133742452Y-124007544D01*
X133742455Y-124007547D01*
X133857664Y-124093793D01*
X133857671Y-124093797D01*
X133992517Y-124144091D01*
X133992516Y-124144091D01*
X133999444Y-124144835D01*
X134052127Y-124150500D01*
X134947872Y-124150499D01*
X135007483Y-124144091D01*
X135142331Y-124093796D01*
X135257546Y-124007546D01*
X135300734Y-123949854D01*
X135356667Y-123907984D01*
X135426359Y-123903000D01*
X135487682Y-123936485D01*
X135499263Y-123949850D01*
X135542454Y-124007546D01*
X135588643Y-124042123D01*
X135657664Y-124093793D01*
X135657671Y-124093797D01*
X135792517Y-124144091D01*
X135792516Y-124144091D01*
X135799444Y-124144835D01*
X135852127Y-124150500D01*
X136747872Y-124150499D01*
X136807483Y-124144091D01*
X136895218Y-124111367D01*
X136964907Y-124106384D01*
X137026230Y-124139868D01*
X137059715Y-124201191D01*
X137062167Y-124217820D01*
X137064901Y-124252568D01*
X137064902Y-124252573D01*
X137110754Y-124410393D01*
X137110755Y-124410396D01*
X137110756Y-124410398D01*
X137125897Y-124436000D01*
X137194417Y-124551862D01*
X137194423Y-124551870D01*
X137310629Y-124668076D01*
X137310633Y-124668079D01*
X137310635Y-124668081D01*
X137452102Y-124751744D01*
X137493724Y-124763836D01*
X137609926Y-124797597D01*
X137609929Y-124797597D01*
X137609931Y-124797598D01*
X137646806Y-124800500D01*
X138018586Y-124800500D01*
X138085625Y-124820185D01*
X138131380Y-124872989D01*
X138142586Y-124924500D01*
X138142586Y-125587145D01*
X138122901Y-125654184D01*
X138106267Y-125674826D01*
X138084799Y-125696293D01*
X138084796Y-125696297D01*
X137997195Y-125827400D01*
X137997188Y-125827413D01*
X137936850Y-125973084D01*
X137936847Y-125973093D01*
X137930053Y-126007251D01*
X137897667Y-126069162D01*
X137836951Y-126103735D01*
X137767181Y-126099994D01*
X137760984Y-126097619D01*
X137637001Y-126046264D01*
X137636989Y-126046261D01*
X137482345Y-126015500D01*
X137482342Y-126015500D01*
X137451979Y-126015500D01*
X137384940Y-125995815D01*
X137364298Y-125979181D01*
X137259306Y-125874189D01*
X137259304Y-125874187D01*
X137130698Y-125799936D01*
X137130697Y-125799935D01*
X137115734Y-125795926D01*
X137100772Y-125791917D01*
X137100771Y-125791916D01*
X137017669Y-125769649D01*
X136987253Y-125761500D01*
X136987252Y-125761500D01*
X135007193Y-125761500D01*
X135007177Y-125761499D01*
X134999581Y-125761499D01*
X134851076Y-125761499D01*
X134733260Y-125793068D01*
X134707628Y-125799936D01*
X134579027Y-125874184D01*
X134579021Y-125874189D01*
X132559189Y-127894021D01*
X132559185Y-127894027D01*
X132497244Y-128001312D01*
X132484934Y-128022633D01*
X132484933Y-128022634D01*
X132453595Y-128139599D01*
X132453594Y-128139603D01*
X132446500Y-128166075D01*
X132446500Y-133029194D01*
X132426815Y-133096233D01*
X132374011Y-133141988D01*
X132346693Y-133150811D01*
X132266507Y-133166761D01*
X132171952Y-133205927D01*
X132102482Y-133213395D01*
X132040003Y-133182119D01*
X132004351Y-133122030D01*
X132000500Y-133091365D01*
X132000500Y-120300874D01*
X132020185Y-120233835D01*
X132072989Y-120188080D01*
X132142147Y-120178136D01*
X132205703Y-120207161D01*
G37*
%TD.AperFunction*%
%TA.AperFunction,Conductor*%
G36*
X134618834Y-127532124D02*
G01*
X134674767Y-127573996D01*
X134699184Y-127639460D01*
X134699500Y-127648306D01*
X134699500Y-127765701D01*
X134702401Y-127802567D01*
X134702402Y-127802573D01*
X134748254Y-127960393D01*
X134748254Y-127960394D01*
X134748255Y-127960396D01*
X134748256Y-127960398D01*
X134749133Y-127961881D01*
X134749466Y-127963195D01*
X134751353Y-127967554D01*
X134750649Y-127967858D01*
X134766315Y-128029604D01*
X134750861Y-128082233D01*
X134751353Y-128082446D01*
X134749630Y-128086426D01*
X134749133Y-128088118D01*
X134748506Y-128089177D01*
X134748254Y-128089605D01*
X134748254Y-128089606D01*
X134702402Y-128247426D01*
X134702401Y-128247432D01*
X134699500Y-128284298D01*
X134699500Y-128715701D01*
X134702401Y-128752567D01*
X134702402Y-128752573D01*
X134748254Y-128910393D01*
X134748255Y-128910396D01*
X134831917Y-129051862D01*
X134831923Y-129051870D01*
X134948129Y-129168076D01*
X134948133Y-129168079D01*
X134948135Y-129168081D01*
X135089602Y-129251744D01*
X135103532Y-129255791D01*
X135247426Y-129297597D01*
X135247429Y-129297597D01*
X135247431Y-129297598D01*
X135284306Y-129300500D01*
X135284314Y-129300500D01*
X136440686Y-129300500D01*
X136440694Y-129300500D01*
X136477569Y-129297598D01*
X136477571Y-129297597D01*
X136477573Y-129297597D01*
X136579806Y-129267895D01*
X136635398Y-129251744D01*
X136760048Y-129178026D01*
X136783580Y-129164110D01*
X136784655Y-129165928D01*
X136839532Y-129144381D01*
X136908050Y-129158059D01*
X136958296Y-129206609D01*
X136974500Y-129267895D01*
X136974500Y-129665701D01*
X136977401Y-129702563D01*
X136977403Y-129702572D01*
X136981687Y-129717320D01*
X136981484Y-129787190D01*
X136950290Y-129839591D01*
X133891203Y-132898681D01*
X133829880Y-132932166D01*
X133803522Y-132935000D01*
X133698500Y-132935000D01*
X133631461Y-132915315D01*
X133585706Y-132862511D01*
X133574500Y-132811000D01*
X133574500Y-128525306D01*
X133594185Y-128458267D01*
X133610819Y-128437625D01*
X134487819Y-127560625D01*
X134549142Y-127527140D01*
X134618834Y-127532124D01*
G37*
%TD.AperFunction*%
%TA.AperFunction,Conductor*%
G36*
X143142539Y-125340184D02*
G01*
X143188294Y-125392988D01*
X143199500Y-125444499D01*
X143199500Y-125578846D01*
X143230261Y-125733489D01*
X143230264Y-125733501D01*
X143290602Y-125879172D01*
X143290609Y-125879185D01*
X143378210Y-126010288D01*
X143378213Y-126010292D01*
X143489707Y-126121786D01*
X143489711Y-126121789D01*
X143620814Y-126209390D01*
X143620827Y-126209397D01*
X143766498Y-126269735D01*
X143766503Y-126269737D01*
X143821893Y-126280754D01*
X143836191Y-126283599D01*
X143898102Y-126315983D01*
X143932676Y-126376699D01*
X143936000Y-126405216D01*
X143936000Y-126675500D01*
X143916315Y-126742539D01*
X143863511Y-126788294D01*
X143812000Y-126799500D01*
X142921798Y-126799500D01*
X142884932Y-126802401D01*
X142884926Y-126802402D01*
X142727106Y-126848254D01*
X142727103Y-126848255D01*
X142585637Y-126931917D01*
X142585629Y-126931923D01*
X142469423Y-127048129D01*
X142469414Y-127048140D01*
X142469229Y-127048455D01*
X142469019Y-127048650D01*
X142464639Y-127054298D01*
X142463727Y-127053591D01*
X142418157Y-127096136D01*
X142349415Y-127108637D01*
X142284827Y-127081988D01*
X142260643Y-127054078D01*
X142260361Y-127054298D01*
X142256323Y-127049092D01*
X142255771Y-127048455D01*
X142255585Y-127048140D01*
X142255576Y-127048129D01*
X142139370Y-126931923D01*
X142139362Y-126931917D01*
X142061181Y-126885681D01*
X141997898Y-126848256D01*
X141997897Y-126848255D01*
X141997896Y-126848255D01*
X141997893Y-126848254D01*
X141840073Y-126802402D01*
X141840067Y-126802401D01*
X141803201Y-126799500D01*
X141803194Y-126799500D01*
X140646806Y-126799500D01*
X140646798Y-126799500D01*
X140609932Y-126802401D01*
X140609926Y-126802402D01*
X140452106Y-126848254D01*
X140452101Y-126848256D01*
X140431164Y-126860638D01*
X140363440Y-126877819D01*
X140297178Y-126855659D01*
X140253415Y-126801192D01*
X140244045Y-126753905D01*
X140244045Y-126109940D01*
X140263730Y-126042901D01*
X140280360Y-126022262D01*
X140301834Y-126000789D01*
X140389439Y-125869679D01*
X140449782Y-125723997D01*
X140459563Y-125674826D01*
X140461755Y-125663808D01*
X140494140Y-125601897D01*
X140554856Y-125567323D01*
X140583372Y-125564000D01*
X140722080Y-125564000D01*
X140789119Y-125583685D01*
X140809761Y-125600319D01*
X140831402Y-125621960D01*
X140831406Y-125621963D01*
X140962509Y-125709564D01*
X140962522Y-125709571D01*
X141049925Y-125745773D01*
X141108198Y-125769911D01*
X141150747Y-125778374D01*
X141212657Y-125810757D01*
X141245632Y-125865396D01*
X141267128Y-125939388D01*
X141267130Y-125939391D01*
X141267131Y-125939393D01*
X141290670Y-125979196D01*
X141348863Y-126077595D01*
X141348869Y-126077603D01*
X141462396Y-126191130D01*
X141462400Y-126191133D01*
X141462402Y-126191135D01*
X141600607Y-126272869D01*
X141637540Y-126283599D01*
X141754791Y-126317664D01*
X141754794Y-126317664D01*
X141754796Y-126317665D01*
X141790819Y-126320500D01*
X142189180Y-126320499D01*
X142225204Y-126317665D01*
X142379393Y-126272869D01*
X142517598Y-126191135D01*
X142631135Y-126077598D01*
X142712869Y-125939393D01*
X142757665Y-125785204D01*
X142760500Y-125749181D01*
X142760499Y-125444497D01*
X142764144Y-125432081D01*
X142763111Y-125419184D01*
X142773798Y-125399204D01*
X142780183Y-125377460D01*
X142789963Y-125368985D01*
X142796067Y-125357575D01*
X142815861Y-125346544D01*
X142832987Y-125331705D01*
X142848576Y-125328313D01*
X142857100Y-125323564D01*
X142867425Y-125324213D01*
X142884495Y-125320499D01*
X143075501Y-125320499D01*
X143142539Y-125340184D01*
G37*
%TD.AperFunction*%
%TA.AperFunction,Conductor*%
G36*
X137387617Y-122813608D02*
G01*
X137452102Y-122851744D01*
X137457465Y-122853302D01*
X137609926Y-122897597D01*
X137609929Y-122897597D01*
X137609931Y-122897598D01*
X137646806Y-122900500D01*
X137646814Y-122900500D01*
X138803186Y-122900500D01*
X138803194Y-122900500D01*
X138803201Y-122900499D01*
X138805632Y-122900404D01*
X138805667Y-122901297D01*
X138870608Y-122914915D01*
X138920383Y-122963948D01*
X138936000Y-123024190D01*
X138936000Y-123075809D01*
X138916315Y-123142848D01*
X138863511Y-123188603D01*
X138805661Y-123198836D01*
X138805632Y-123199596D01*
X138803201Y-123199500D01*
X138803194Y-123199500D01*
X137646806Y-123199500D01*
X137646798Y-123199500D01*
X137609932Y-123202401D01*
X137609926Y-123202402D01*
X137452106Y-123248254D01*
X137452101Y-123248256D01*
X137387618Y-123286390D01*
X137319894Y-123303571D01*
X137253632Y-123281411D01*
X137209869Y-123226944D01*
X137200499Y-123179661D01*
X137200499Y-122920339D01*
X137220184Y-122853302D01*
X137272988Y-122807547D01*
X137342146Y-122797603D01*
X137387617Y-122813608D01*
G37*
%TD.AperFunction*%
%TA.AperFunction,Conductor*%
G36*
X142745627Y-118895706D02*
G01*
X142762978Y-118906856D01*
X142841071Y-118966779D01*
X142978028Y-119023509D01*
X143088099Y-119038000D01*
X143286900Y-119037999D01*
X143286901Y-119037999D01*
X143378649Y-119025921D01*
X143447684Y-119036687D01*
X143499939Y-119083067D01*
X143509394Y-119101407D01*
X143533219Y-119158926D01*
X143533221Y-119158929D01*
X143593137Y-119237014D01*
X143618331Y-119302183D01*
X143604292Y-119370628D01*
X143593137Y-119387986D01*
X143533221Y-119466070D01*
X143533219Y-119466073D01*
X143476491Y-119603027D01*
X143476490Y-119603029D01*
X143462000Y-119713098D01*
X143462000Y-119730005D01*
X143442315Y-119797044D01*
X143389511Y-119842799D01*
X143320353Y-119852743D01*
X143305908Y-119849780D01*
X143243282Y-119833000D01*
X143243281Y-119833000D01*
X143243280Y-119833000D01*
X142273475Y-119833000D01*
X142206436Y-119813315D01*
X142197989Y-119807376D01*
X142133929Y-119758221D01*
X142133926Y-119758219D01*
X141996972Y-119701491D01*
X141996970Y-119701490D01*
X141886910Y-119687001D01*
X141886907Y-119687000D01*
X141886901Y-119687000D01*
X141886894Y-119687000D01*
X141711161Y-119687000D01*
X141644122Y-119667315D01*
X141598367Y-119614511D01*
X141588423Y-119545353D01*
X141617448Y-119481797D01*
X141649167Y-119455609D01*
X141650901Y-119454608D01*
X141712895Y-119437999D01*
X141886903Y-119437999D01*
X141996963Y-119423511D01*
X141996967Y-119423509D01*
X141996972Y-119423509D01*
X142133929Y-119366779D01*
X142251536Y-119276536D01*
X142341779Y-119158929D01*
X142378403Y-119070509D01*
X142422242Y-119016108D01*
X142445503Y-119003405D01*
X142533929Y-118966779D01*
X142612015Y-118906860D01*
X142677182Y-118881668D01*
X142745627Y-118895706D01*
G37*
%TD.AperFunction*%
%TA.AperFunction,Conductor*%
G36*
X132205703Y-115432161D02*
G01*
X132212181Y-115438193D01*
X132296955Y-115522967D01*
X132296959Y-115522970D01*
X132441294Y-115611998D01*
X132441297Y-115611999D01*
X132441303Y-115612003D01*
X132602292Y-115665349D01*
X132701655Y-115675500D01*
X133042025Y-115675499D01*
X133109064Y-115695183D01*
X133154819Y-115747987D01*
X133164763Y-115817146D01*
X133156586Y-115846951D01*
X133132264Y-115905668D01*
X133132261Y-115905680D01*
X133101500Y-116060323D01*
X133101500Y-116218016D01*
X133132261Y-116372659D01*
X133132264Y-116372671D01*
X133192602Y-116518342D01*
X133192609Y-116518355D01*
X133280210Y-116649458D01*
X133280213Y-116649462D01*
X133391707Y-116760956D01*
X133391711Y-116760959D01*
X133522814Y-116848560D01*
X133522827Y-116848567D01*
X133668498Y-116908905D01*
X133668503Y-116908907D01*
X133823153Y-116939669D01*
X133823156Y-116939670D01*
X133975501Y-116939670D01*
X134042540Y-116959355D01*
X134088295Y-117012159D01*
X134099501Y-117063670D01*
X134099501Y-117207876D01*
X134105908Y-117267483D01*
X134109334Y-117276667D01*
X134114318Y-117346359D01*
X134109335Y-117363329D01*
X134105910Y-117372510D01*
X134105908Y-117372520D01*
X134099501Y-117432117D01*
X134099500Y-117432137D01*
X134099500Y-117980844D01*
X134079815Y-118047883D01*
X134078604Y-118049733D01*
X134031106Y-118120821D01*
X134030225Y-118122949D01*
X134029461Y-118123896D01*
X134028233Y-118126195D01*
X134027797Y-118125961D01*
X133986385Y-118177354D01*
X133927043Y-118197107D01*
X133927220Y-118198903D01*
X133917584Y-118199852D01*
X133873339Y-118196224D01*
X133820253Y-118182000D01*
X133820252Y-118182000D01*
X133671747Y-118182000D01*
X133528303Y-118220435D01*
X133399696Y-118294688D01*
X133399693Y-118294690D01*
X133181202Y-118513181D01*
X133119879Y-118546666D01*
X133093521Y-118549500D01*
X132701662Y-118549500D01*
X132701644Y-118549501D01*
X132602292Y-118559650D01*
X132602289Y-118559651D01*
X132441305Y-118612996D01*
X132441294Y-118613001D01*
X132296959Y-118702029D01*
X132296955Y-118702032D01*
X132212181Y-118786807D01*
X132150858Y-118820292D01*
X132081166Y-118815308D01*
X132025233Y-118773436D01*
X132000816Y-118707972D01*
X132000500Y-118699126D01*
X132000500Y-115525874D01*
X132020185Y-115458835D01*
X132072989Y-115413080D01*
X132142147Y-115403136D01*
X132205703Y-115432161D01*
G37*
%TD.AperFunction*%
%TA.AperFunction,Conductor*%
G36*
X139908127Y-114770706D02*
G01*
X139925478Y-114781856D01*
X140003571Y-114841779D01*
X140140528Y-114898509D01*
X140250599Y-114913000D01*
X140449400Y-114912999D01*
X140449401Y-114912999D01*
X140541149Y-114900921D01*
X140610184Y-114911687D01*
X140662439Y-114958067D01*
X140671894Y-114976407D01*
X140695719Y-115033926D01*
X140695721Y-115033929D01*
X140755637Y-115112014D01*
X140780831Y-115177183D01*
X140766792Y-115245628D01*
X140755637Y-115262986D01*
X140695721Y-115341070D01*
X140695719Y-115341073D01*
X140638991Y-115478027D01*
X140638990Y-115478029D01*
X140624500Y-115588098D01*
X140624500Y-115674442D01*
X140604815Y-115741481D01*
X140552011Y-115787236D01*
X140482853Y-115797180D01*
X140438501Y-115781829D01*
X140377201Y-115746437D01*
X140377196Y-115746435D01*
X140358073Y-115741311D01*
X140338952Y-115736188D01*
X140338951Y-115736187D01*
X140261939Y-115715552D01*
X140233752Y-115708000D01*
X140233751Y-115708000D01*
X139447479Y-115708000D01*
X139380440Y-115688315D01*
X139359798Y-115671681D01*
X139336806Y-115648689D01*
X139336804Y-115648687D01*
X139208198Y-115574436D01*
X139208197Y-115574435D01*
X139103786Y-115546459D01*
X139044126Y-115510094D01*
X139013597Y-115447247D01*
X139021892Y-115377871D01*
X139066377Y-115323993D01*
X139119694Y-115303745D01*
X139159472Y-115298509D01*
X139296429Y-115241779D01*
X139414036Y-115151536D01*
X139504279Y-115033929D01*
X139540903Y-114945509D01*
X139584742Y-114891108D01*
X139608003Y-114878405D01*
X139696429Y-114841779D01*
X139774515Y-114781860D01*
X139839682Y-114756668D01*
X139908127Y-114770706D01*
G37*
%TD.AperFunction*%
%TA.AperFunction,Conductor*%
G36*
X134572224Y-113150313D02*
G01*
X134618653Y-113179569D01*
X135486903Y-114047819D01*
X135520388Y-114109142D01*
X135515404Y-114178834D01*
X135473532Y-114234767D01*
X135408068Y-114259184D01*
X135399222Y-114259500D01*
X134614287Y-114259500D01*
X134547248Y-114239815D01*
X134511185Y-114204390D01*
X134469501Y-114142006D01*
X134469495Y-114141998D01*
X134358001Y-114030504D01*
X134357997Y-114030501D01*
X134226894Y-113942900D01*
X134226881Y-113942893D01*
X134170082Y-113919367D01*
X134115678Y-113875527D01*
X134093613Y-113809233D01*
X134110892Y-113741533D01*
X134129853Y-113717124D01*
X134133585Y-113713391D01*
X134133589Y-113713389D01*
X134245089Y-113601889D01*
X134332694Y-113470779D01*
X134393037Y-113325097D01*
X134409356Y-113243056D01*
X134441739Y-113181149D01*
X134502454Y-113146574D01*
X134572224Y-113150313D01*
G37*
%TD.AperFunction*%
%TA.AperFunction,Conductor*%
G36*
X136891881Y-105398696D02*
G01*
X136906897Y-105400500D01*
X137096809Y-105400500D01*
X137096809Y-105402562D01*
X137156935Y-105415987D01*
X137184596Y-105436812D01*
X137583746Y-105835962D01*
X137583756Y-105835973D01*
X137588086Y-105840303D01*
X137588087Y-105840304D01*
X137693096Y-105945313D01*
X137810673Y-106013196D01*
X137810674Y-106013197D01*
X137817423Y-106017093D01*
X137821704Y-106019565D01*
X137965147Y-106058000D01*
X137965148Y-106058000D01*
X139005819Y-106058000D01*
X139053269Y-106067438D01*
X139124003Y-106096737D01*
X139278653Y-106127499D01*
X139278656Y-106127500D01*
X139278658Y-106127500D01*
X139436344Y-106127500D01*
X139436345Y-106127499D01*
X139590997Y-106096737D01*
X139703666Y-106050067D01*
X139736672Y-106036397D01*
X139736672Y-106036396D01*
X139736679Y-106036394D01*
X139867789Y-105948789D01*
X139979289Y-105837289D01*
X140039696Y-105746882D01*
X140093306Y-105702080D01*
X140162631Y-105693372D01*
X140225659Y-105723526D01*
X140230478Y-105728094D01*
X141059181Y-106556797D01*
X141092666Y-106618120D01*
X141095500Y-106644478D01*
X141095500Y-109636700D01*
X141075815Y-109703739D01*
X141023011Y-109749494D01*
X140971500Y-109760700D01*
X140921155Y-109760700D01*
X140766510Y-109791461D01*
X140766498Y-109791464D01*
X140620827Y-109851802D01*
X140620814Y-109851809D01*
X140489711Y-109939410D01*
X140489707Y-109939413D01*
X140378213Y-110050907D01*
X140378210Y-110050911D01*
X140290609Y-110182014D01*
X140290602Y-110182027D01*
X140230264Y-110327698D01*
X140230261Y-110327707D01*
X140215816Y-110400327D01*
X140183430Y-110462237D01*
X140122714Y-110496811D01*
X140108982Y-110499250D01*
X140106900Y-110499500D01*
X140106898Y-110499500D01*
X140082847Y-110502388D01*
X140014783Y-110510561D01*
X139985217Y-110510561D01*
X139936559Y-110504718D01*
X139893102Y-110499500D01*
X139706898Y-110499500D01*
X139663440Y-110504718D01*
X139614783Y-110510561D01*
X139585217Y-110510561D01*
X139539915Y-110505121D01*
X139507619Y-110501243D01*
X139443407Y-110473707D01*
X139404273Y-110415825D01*
X139398404Y-110378128D01*
X139398404Y-110322506D01*
X139398403Y-110322504D01*
X139367641Y-110167854D01*
X139357155Y-110142539D01*
X139307301Y-110022178D01*
X139307294Y-110022165D01*
X139219693Y-109891062D01*
X139219690Y-109891058D01*
X139108196Y-109779564D01*
X139108192Y-109779561D01*
X138977089Y-109691960D01*
X138977076Y-109691953D01*
X138831405Y-109631615D01*
X138831393Y-109631612D01*
X138676749Y-109600851D01*
X138676746Y-109600851D01*
X138519062Y-109600851D01*
X138519059Y-109600851D01*
X138364414Y-109631612D01*
X138364402Y-109631615D01*
X138218731Y-109691953D01*
X138218718Y-109691960D01*
X138087615Y-109779561D01*
X138087611Y-109779564D01*
X137976117Y-109891058D01*
X137976114Y-109891062D01*
X137888513Y-110022165D01*
X137888508Y-110022174D01*
X137833107Y-110155927D01*
X137824133Y-110167062D01*
X137819433Y-110180570D01*
X137806227Y-110196155D01*
X137672480Y-110329902D01*
X137611157Y-110363387D01*
X137541465Y-110358403D01*
X137497118Y-110329902D01*
X137386310Y-110219094D01*
X137378411Y-110204628D01*
X137366500Y-110193233D01*
X137362011Y-110174595D01*
X137352825Y-110157771D01*
X137352401Y-110155738D01*
X137340261Y-110094703D01*
X137280324Y-109950000D01*
X137279921Y-109949027D01*
X137279914Y-109949014D01*
X137192313Y-109817911D01*
X137192310Y-109817907D01*
X137080816Y-109706413D01*
X137080812Y-109706410D01*
X137004228Y-109655238D01*
X136959423Y-109601626D01*
X136950716Y-109532301D01*
X136954460Y-109516137D01*
X136955834Y-109511602D01*
X136955837Y-109511597D01*
X136986600Y-109356942D01*
X136986600Y-109199258D01*
X136986600Y-109199255D01*
X136986599Y-109199253D01*
X136955838Y-109044610D01*
X136955837Y-109044603D01*
X136955215Y-109043102D01*
X136895497Y-108898927D01*
X136895490Y-108898914D01*
X136807889Y-108767811D01*
X136807886Y-108767807D01*
X136696392Y-108656313D01*
X136696388Y-108656310D01*
X136565285Y-108568709D01*
X136565272Y-108568702D01*
X136419601Y-108508364D01*
X136419591Y-108508361D01*
X136340894Y-108492707D01*
X136278983Y-108460322D01*
X136244409Y-108399606D01*
X136241971Y-108385877D01*
X136239877Y-108368436D01*
X136239875Y-108368433D01*
X136239438Y-108364787D01*
X136239438Y-108335215D01*
X136239876Y-108331565D01*
X136239877Y-108331564D01*
X136250500Y-108243102D01*
X136250500Y-108056898D01*
X136239877Y-107968436D01*
X136239876Y-107968434D01*
X136239438Y-107964785D01*
X136239438Y-107935215D01*
X136239876Y-107931565D01*
X136239877Y-107931564D01*
X136250500Y-107843102D01*
X136250500Y-107656898D01*
X136239877Y-107568436D01*
X136239876Y-107568434D01*
X136239438Y-107564785D01*
X136239438Y-107535215D01*
X136239876Y-107531565D01*
X136239877Y-107531564D01*
X136250500Y-107443102D01*
X136250500Y-107256898D01*
X136239877Y-107168436D01*
X136239876Y-107168434D01*
X136239438Y-107164785D01*
X136239438Y-107135215D01*
X136239876Y-107131565D01*
X136239877Y-107131564D01*
X136250500Y-107043102D01*
X136250500Y-106856898D01*
X136239877Y-106768436D01*
X136239876Y-106768434D01*
X136239438Y-106764785D01*
X136239438Y-106735215D01*
X136239876Y-106731565D01*
X136239877Y-106731564D01*
X136250500Y-106643102D01*
X136250500Y-106456898D01*
X136239877Y-106368436D01*
X136239876Y-106368434D01*
X136239438Y-106364785D01*
X136239438Y-106335215D01*
X136239876Y-106331565D01*
X136239877Y-106331564D01*
X136250500Y-106243102D01*
X136250500Y-106098477D01*
X136270185Y-106031438D01*
X136286819Y-106010796D01*
X136383616Y-105913999D01*
X136536094Y-105761521D01*
X136536099Y-105761517D01*
X136546302Y-105751313D01*
X136546304Y-105751313D01*
X136651313Y-105646304D01*
X136725565Y-105517696D01*
X136733817Y-105486896D01*
X136770179Y-105427238D01*
X136833025Y-105396706D01*
X136868375Y-105395874D01*
X136891881Y-105398696D01*
G37*
%TD.AperFunction*%
%TA.AperFunction,Conductor*%
G36*
X143609334Y-105578259D02*
G01*
X143665267Y-105620131D01*
X143689684Y-105685595D01*
X143690000Y-105694441D01*
X143690000Y-110075500D01*
X143670315Y-110142539D01*
X143617511Y-110188294D01*
X143566000Y-110199500D01*
X143411655Y-110199500D01*
X143298691Y-110221970D01*
X143229100Y-110215743D01*
X143173922Y-110172880D01*
X143150678Y-110106990D01*
X143150500Y-110100353D01*
X143150500Y-110056897D01*
X143148569Y-110040821D01*
X143139877Y-109968436D01*
X143139876Y-109968434D01*
X143139438Y-109964785D01*
X143139438Y-109935215D01*
X143139876Y-109931565D01*
X143139877Y-109931564D01*
X143150500Y-109843102D01*
X143150500Y-109656898D01*
X143139877Y-109568436D01*
X143139876Y-109568434D01*
X143139438Y-109564785D01*
X143139438Y-109535215D01*
X143139876Y-109531565D01*
X143139877Y-109531564D01*
X143150500Y-109443102D01*
X143150500Y-109256898D01*
X143139877Y-109168436D01*
X143139876Y-109168434D01*
X143139438Y-109164785D01*
X143139438Y-109135215D01*
X143139876Y-109131565D01*
X143139877Y-109131564D01*
X143150500Y-109043102D01*
X143150500Y-108856898D01*
X143139877Y-108768436D01*
X143139876Y-108768434D01*
X143139438Y-108764785D01*
X143139438Y-108735215D01*
X143139876Y-108731565D01*
X143139877Y-108731564D01*
X143150500Y-108643102D01*
X143150500Y-108456898D01*
X143139877Y-108368436D01*
X143139876Y-108368434D01*
X143139438Y-108364785D01*
X143139438Y-108335215D01*
X143139876Y-108331565D01*
X143139877Y-108331564D01*
X143150500Y-108243102D01*
X143150500Y-108056898D01*
X143139877Y-107968436D01*
X143139876Y-107968434D01*
X143139438Y-107964785D01*
X143139438Y-107935215D01*
X143139876Y-107931565D01*
X143139877Y-107931564D01*
X143150500Y-107843102D01*
X143150500Y-107656898D01*
X143139877Y-107568436D01*
X143139876Y-107568434D01*
X143139438Y-107564785D01*
X143139438Y-107535215D01*
X143139876Y-107531565D01*
X143139877Y-107531564D01*
X143150500Y-107443102D01*
X143150500Y-107256898D01*
X143139877Y-107168436D01*
X143139876Y-107168434D01*
X143139438Y-107164785D01*
X143139438Y-107135215D01*
X143139876Y-107131565D01*
X143139877Y-107131564D01*
X143150500Y-107043102D01*
X143150500Y-106856898D01*
X143139877Y-106768436D01*
X143139876Y-106768434D01*
X143139438Y-106764785D01*
X143139438Y-106735215D01*
X143139876Y-106731565D01*
X143139877Y-106731564D01*
X143150500Y-106643102D01*
X143150500Y-106456898D01*
X143139877Y-106368436D01*
X143139876Y-106368434D01*
X143139438Y-106364785D01*
X143139438Y-106335215D01*
X143139876Y-106331565D01*
X143139877Y-106331564D01*
X143150500Y-106243102D01*
X143150500Y-106056898D01*
X143139877Y-105968436D01*
X143139876Y-105968434D01*
X143139438Y-105964785D01*
X143139438Y-105935215D01*
X143139876Y-105931566D01*
X143139877Y-105931564D01*
X143150149Y-105846022D01*
X143177686Y-105781809D01*
X143225812Y-105746247D01*
X143344472Y-105697097D01*
X143344472Y-105697096D01*
X143344479Y-105697094D01*
X143475589Y-105609489D01*
X143475592Y-105609486D01*
X143478319Y-105606760D01*
X143480099Y-105605787D01*
X143480299Y-105605624D01*
X143480330Y-105605661D01*
X143539642Y-105573275D01*
X143609334Y-105578259D01*
G37*
%TD.AperFunction*%
%TA.AperFunction,Conductor*%
G36*
X132832703Y-105090765D02*
G01*
X132839181Y-105096797D01*
X133434346Y-105691962D01*
X133434356Y-105691973D01*
X133438686Y-105696303D01*
X133438687Y-105696304D01*
X133543696Y-105801313D01*
X133543698Y-105801314D01*
X133543702Y-105801317D01*
X133616071Y-105843099D01*
X133616073Y-105843099D01*
X133616077Y-105843102D01*
X133672303Y-105875565D01*
X133815747Y-105914000D01*
X133815748Y-105914000D01*
X134326879Y-105914000D01*
X134393918Y-105933685D01*
X134439673Y-105986489D01*
X134449994Y-106052787D01*
X134449500Y-106056899D01*
X134449500Y-106088320D01*
X134429815Y-106155359D01*
X134413181Y-106176001D01*
X134240174Y-106349007D01*
X134178851Y-106382492D01*
X134109159Y-106377508D01*
X134072439Y-106353909D01*
X134071853Y-106354666D01*
X134065684Y-106349881D01*
X133926393Y-106267505D01*
X133926390Y-106267504D01*
X133770997Y-106222357D01*
X133770991Y-106222356D01*
X133734697Y-106219500D01*
X133734690Y-106219500D01*
X133265310Y-106219500D01*
X133265302Y-106219500D01*
X133229008Y-106222356D01*
X133229002Y-106222357D01*
X133073609Y-106267504D01*
X133073606Y-106267505D01*
X132934315Y-106349881D01*
X132934307Y-106349887D01*
X132839181Y-106445014D01*
X132777858Y-106478499D01*
X132708166Y-106473515D01*
X132652233Y-106431643D01*
X132627816Y-106366179D01*
X132627500Y-106357333D01*
X132627500Y-105184478D01*
X132647185Y-105117439D01*
X132699989Y-105071684D01*
X132769147Y-105061740D01*
X132832703Y-105090765D01*
G37*
%TD.AperFunction*%
%TA.AperFunction,Conductor*%
G36*
X134815493Y-103065982D02*
G01*
X134882624Y-103133113D01*
X134882630Y-103133116D01*
X134887484Y-103136841D01*
X134928688Y-103193268D01*
X134936000Y-103235219D01*
X134936000Y-103474252D01*
X134960048Y-103564002D01*
X134974433Y-103617693D01*
X134974434Y-103617694D01*
X134974435Y-103617696D01*
X135048687Y-103746304D01*
X135048689Y-103746306D01*
X135160761Y-103858378D01*
X135160767Y-103858383D01*
X135563181Y-104260797D01*
X135596666Y-104322120D01*
X135599500Y-104348478D01*
X135599500Y-104625500D01*
X135579815Y-104692539D01*
X135527011Y-104738294D01*
X135475500Y-104749500D01*
X134956898Y-104749500D01*
X134923713Y-104753485D01*
X134868436Y-104760122D01*
X134824742Y-104777354D01*
X134779251Y-104786000D01*
X134174978Y-104786000D01*
X134107939Y-104766315D01*
X134087297Y-104749681D01*
X133356819Y-104019203D01*
X133323334Y-103957880D01*
X133320500Y-103931522D01*
X133320500Y-103797286D01*
X133340185Y-103730247D01*
X133392989Y-103684492D01*
X133428318Y-103674346D01*
X133434742Y-103673500D01*
X133434753Y-103673500D01*
X133578196Y-103635065D01*
X133608280Y-103617696D01*
X133615207Y-103613697D01*
X133615208Y-103613696D01*
X133706804Y-103560813D01*
X133811813Y-103455804D01*
X133811813Y-103455802D01*
X133822017Y-103445599D01*
X133822021Y-103445594D01*
X133836094Y-103431521D01*
X133836099Y-103431517D01*
X133846302Y-103421313D01*
X133846304Y-103421313D01*
X133910798Y-103356819D01*
X133972121Y-103323334D01*
X133998479Y-103320500D01*
X134182932Y-103320500D01*
X134182940Y-103320500D01*
X134219675Y-103317609D01*
X134219677Y-103317608D01*
X134219679Y-103317608D01*
X134376892Y-103271933D01*
X134376893Y-103271932D01*
X134376897Y-103271931D01*
X134517820Y-103188590D01*
X134573299Y-103133111D01*
X134639107Y-103067304D01*
X134641238Y-103069435D01*
X134686438Y-103036770D01*
X134756204Y-103032958D01*
X134815493Y-103065982D01*
G37*
%TD.AperFunction*%
%TA.AperFunction,Conductor*%
G36*
X143609334Y-100790797D02*
G01*
X143665267Y-100832669D01*
X143689684Y-100898133D01*
X143690000Y-100906979D01*
X143690000Y-102206006D01*
X143670315Y-102273045D01*
X143617511Y-102318800D01*
X143548353Y-102328744D01*
X143502880Y-102312738D01*
X143426397Y-102267507D01*
X143426390Y-102267504D01*
X143270997Y-102222357D01*
X143270991Y-102222356D01*
X143234697Y-102219500D01*
X143234690Y-102219500D01*
X143188000Y-102219500D01*
X143120961Y-102199815D01*
X143075206Y-102147011D01*
X143064000Y-102095500D01*
X143064000Y-101594240D01*
X143083685Y-101527201D01*
X143093206Y-101515395D01*
X143092724Y-101514999D01*
X143096584Y-101510293D01*
X143096589Y-101510289D01*
X143184194Y-101379179D01*
X143244537Y-101233497D01*
X143275300Y-101078842D01*
X143275300Y-101024972D01*
X143294985Y-100957933D01*
X143337298Y-100917586D01*
X143438404Y-100859213D01*
X143478319Y-100819298D01*
X143539642Y-100785813D01*
X143609334Y-100790797D01*
G37*
%TD.AperFunction*%
%TA.AperFunction,Conductor*%
G36*
X132832703Y-92068954D02*
G01*
X132839181Y-92074986D01*
X132934307Y-92170112D01*
X132934311Y-92170115D01*
X132934313Y-92170117D01*
X133073605Y-92252494D01*
X133100432Y-92260288D01*
X133229002Y-92297642D01*
X133229005Y-92297642D01*
X133229007Y-92297643D01*
X133265310Y-92300500D01*
X133265318Y-92300500D01*
X133734682Y-92300500D01*
X133734690Y-92300500D01*
X133770993Y-92297643D01*
X133770995Y-92297642D01*
X133770997Y-92297642D01*
X133846995Y-92275562D01*
X133926395Y-92252494D01*
X133998943Y-92209589D01*
X134066663Y-92192406D01*
X134132926Y-92214565D01*
X134149743Y-92228640D01*
X134399681Y-92478577D01*
X134433166Y-92539900D01*
X134436000Y-92566258D01*
X134436000Y-93094783D01*
X134416315Y-93161822D01*
X134363511Y-93207577D01*
X134336192Y-93216400D01*
X134266508Y-93230261D01*
X134266498Y-93230264D01*
X134120827Y-93290602D01*
X134120814Y-93290609D01*
X133989711Y-93378210D01*
X133989707Y-93378213D01*
X133878213Y-93489707D01*
X133878210Y-93489711D01*
X133790609Y-93620814D01*
X133790602Y-93620827D01*
X133730264Y-93766498D01*
X133730261Y-93766510D01*
X133699500Y-93921153D01*
X133699500Y-94078846D01*
X133730261Y-94233489D01*
X133730264Y-94233501D01*
X133790602Y-94379172D01*
X133790609Y-94379185D01*
X133878210Y-94510288D01*
X133878213Y-94510292D01*
X133989707Y-94621786D01*
X133989711Y-94621789D01*
X134120814Y-94709390D01*
X134120827Y-94709397D01*
X134266498Y-94769735D01*
X134266503Y-94769737D01*
X134321893Y-94780754D01*
X134336191Y-94783599D01*
X134398102Y-94815983D01*
X134432676Y-94876699D01*
X134436000Y-94905216D01*
X134436000Y-95584324D01*
X134473538Y-95724422D01*
X134473541Y-95724433D01*
X134473542Y-95724435D01*
X134474435Y-95727768D01*
X134548687Y-95856376D01*
X134548689Y-95856378D01*
X134660761Y-95968450D01*
X134660767Y-95968455D01*
X135784274Y-97091962D01*
X135784284Y-97091973D01*
X135788614Y-97096303D01*
X135788615Y-97096304D01*
X135893624Y-97201313D01*
X136022232Y-97275565D01*
X136165675Y-97314000D01*
X136165676Y-97314000D01*
X137526595Y-97314000D01*
X137593634Y-97333685D01*
X137600907Y-97338734D01*
X137607668Y-97343795D01*
X137607671Y-97343797D01*
X137742517Y-97394091D01*
X137742516Y-97394091D01*
X137749444Y-97394835D01*
X137802127Y-97400500D01*
X138472422Y-97400499D01*
X138539460Y-97420183D01*
X138585215Y-97472987D01*
X138595159Y-97542146D01*
X138566134Y-97605702D01*
X138560102Y-97612180D01*
X136749298Y-99422985D01*
X136644288Y-99527994D01*
X136644284Y-99527999D01*
X136593298Y-99616311D01*
X136593298Y-99616312D01*
X136570033Y-99656605D01*
X136554406Y-99714933D01*
X136554406Y-99714934D01*
X136531600Y-99800048D01*
X136531600Y-101316500D01*
X136511915Y-101383539D01*
X136459111Y-101429294D01*
X136407600Y-101440500D01*
X135772851Y-101440500D01*
X135705812Y-101420815D01*
X135660057Y-101368011D01*
X135658290Y-101363952D01*
X135605357Y-101236159D01*
X135605350Y-101236146D01*
X135517749Y-101105043D01*
X135517746Y-101105039D01*
X135406252Y-100993545D01*
X135406248Y-100993542D01*
X135275145Y-100905941D01*
X135275132Y-100905934D01*
X135129461Y-100845596D01*
X135129449Y-100845593D01*
X134974805Y-100814832D01*
X134974802Y-100814832D01*
X134817118Y-100814832D01*
X134817115Y-100814832D01*
X134662470Y-100845593D01*
X134662458Y-100845596D01*
X134516787Y-100905934D01*
X134516774Y-100905941D01*
X134385671Y-100993542D01*
X134385667Y-100993545D01*
X134274173Y-101105039D01*
X134274170Y-101105043D01*
X134186569Y-101236146D01*
X134186562Y-101236159D01*
X134126224Y-101381830D01*
X134126221Y-101381842D01*
X134095460Y-101536485D01*
X134095460Y-101555500D01*
X134075775Y-101622539D01*
X134022971Y-101668294D01*
X133971460Y-101679500D01*
X133757052Y-101679500D01*
X133720326Y-101682390D01*
X133720320Y-101682391D01*
X133614095Y-101713253D01*
X133544225Y-101713054D01*
X133485555Y-101675112D01*
X133456712Y-101611473D01*
X133455500Y-101594177D01*
X133455500Y-101265317D01*
X133455499Y-101265302D01*
X133452643Y-101229008D01*
X133452642Y-101229002D01*
X133405318Y-101066114D01*
X133406744Y-101065699D01*
X133399000Y-101028297D01*
X133399000Y-99589082D01*
X133418685Y-99522043D01*
X133471489Y-99476288D01*
X133483997Y-99471376D01*
X133529513Y-99456294D01*
X133568516Y-99450000D01*
X135625000Y-99450000D01*
X135625000Y-97550000D01*
X133568516Y-97550000D01*
X133529512Y-97543706D01*
X133524804Y-97542146D01*
X133427797Y-97510001D01*
X133427795Y-97510000D01*
X133325016Y-97499500D01*
X132751500Y-97499500D01*
X132684461Y-97479815D01*
X132638706Y-97427011D01*
X132627500Y-97375500D01*
X132627500Y-92162667D01*
X132647185Y-92095628D01*
X132699989Y-92049873D01*
X132769147Y-92039929D01*
X132832703Y-92068954D01*
G37*
%TD.AperFunction*%
%TA.AperFunction,Conductor*%
G36*
X136960703Y-83827766D02*
G01*
X136967181Y-83833798D01*
X137064561Y-83931178D01*
X137064567Y-83931183D01*
X143653681Y-90520297D01*
X143687166Y-90581620D01*
X143690000Y-90607978D01*
X143690000Y-90899021D01*
X143670315Y-90966060D01*
X143617511Y-91011815D01*
X143548353Y-91021759D01*
X143484797Y-90992734D01*
X143478319Y-90986702D01*
X141743083Y-89251467D01*
X141743081Y-89251464D01*
X141631006Y-89139389D01*
X141631004Y-89139387D01*
X141502396Y-89065135D01*
X141484187Y-89060256D01*
X141484185Y-89060255D01*
X141404789Y-89038981D01*
X141358953Y-89026700D01*
X141358952Y-89026700D01*
X139774500Y-89026700D01*
X139707461Y-89007015D01*
X139661706Y-88954211D01*
X139650500Y-88902700D01*
X139650499Y-88552130D01*
X139650498Y-88552123D01*
X139644091Y-88492516D01*
X139593797Y-88357671D01*
X139593793Y-88357664D01*
X139507547Y-88242455D01*
X139507544Y-88242452D01*
X139392335Y-88156206D01*
X139392328Y-88156202D01*
X139257482Y-88105908D01*
X139257483Y-88105908D01*
X139197883Y-88099501D01*
X139197881Y-88099500D01*
X139197873Y-88099500D01*
X139197865Y-88099500D01*
X137979341Y-88099500D01*
X137912302Y-88079815D01*
X137896874Y-88067383D01*
X137896799Y-88067476D01*
X137892088Y-88063610D01*
X137760985Y-87976009D01*
X137760972Y-87976002D01*
X137615301Y-87915664D01*
X137615289Y-87915661D01*
X137460645Y-87884900D01*
X137460642Y-87884900D01*
X137302958Y-87884900D01*
X137302955Y-87884900D01*
X137148310Y-87915661D01*
X137148298Y-87915664D01*
X137002627Y-87976002D01*
X137002614Y-87976009D01*
X136871511Y-88063610D01*
X136871507Y-88063613D01*
X136760013Y-88175107D01*
X136760010Y-88175111D01*
X136672409Y-88306214D01*
X136672404Y-88306224D01*
X136622254Y-88427297D01*
X136578413Y-88481700D01*
X136512118Y-88503765D01*
X136460242Y-88494406D01*
X136448602Y-88489584D01*
X136426097Y-88480263D01*
X136426093Y-88480262D01*
X136426089Y-88480261D01*
X136271445Y-88449500D01*
X136271442Y-88449500D01*
X136113758Y-88449500D01*
X136113756Y-88449500D01*
X136093814Y-88453466D01*
X136024222Y-88447236D01*
X135969046Y-88404372D01*
X135945804Y-88338481D01*
X135961874Y-88270485D01*
X136006504Y-88225117D01*
X136065687Y-88190117D01*
X136180117Y-88075687D01*
X136262494Y-87936395D01*
X136307643Y-87780993D01*
X136310500Y-87744690D01*
X136310500Y-87404500D01*
X136330185Y-87337461D01*
X136382989Y-87291706D01*
X136434500Y-87280500D01*
X136734682Y-87280500D01*
X136734690Y-87280500D01*
X136770993Y-87277643D01*
X136770995Y-87277642D01*
X136770997Y-87277642D01*
X136811975Y-87265736D01*
X136926395Y-87232494D01*
X137065687Y-87150117D01*
X137180117Y-87035687D01*
X137262494Y-86896395D01*
X137307643Y-86740993D01*
X137310500Y-86704690D01*
X137310500Y-86538479D01*
X137330185Y-86471440D01*
X137346819Y-86450798D01*
X137381617Y-86416000D01*
X137451313Y-86346304D01*
X137525565Y-86217696D01*
X137527759Y-86209505D01*
X137527762Y-86209501D01*
X137527761Y-86209501D01*
X137549678Y-86127704D01*
X137557661Y-86097909D01*
X137589756Y-86042322D01*
X137621786Y-86010292D01*
X137621789Y-86010289D01*
X137709394Y-85879179D01*
X137769737Y-85733497D01*
X137800500Y-85578842D01*
X137800500Y-85421158D01*
X137800500Y-85421155D01*
X137800499Y-85421153D01*
X137769738Y-85266510D01*
X137769737Y-85266503D01*
X137767958Y-85262209D01*
X137709397Y-85120827D01*
X137709390Y-85120814D01*
X137621789Y-84989711D01*
X137621786Y-84989707D01*
X137510292Y-84878213D01*
X137510288Y-84878210D01*
X137379185Y-84790609D01*
X137379172Y-84790602D01*
X137233501Y-84730264D01*
X137233489Y-84730261D01*
X137078845Y-84699500D01*
X137078842Y-84699500D01*
X136921158Y-84699500D01*
X136921155Y-84699500D01*
X136827812Y-84718067D01*
X136758221Y-84711840D01*
X136703043Y-84668977D01*
X136679799Y-84603087D01*
X136683846Y-84564356D01*
X136708332Y-84472975D01*
X136721232Y-84408122D01*
X136751175Y-84180682D01*
X136755500Y-84114701D01*
X136755500Y-83921479D01*
X136775185Y-83854440D01*
X136827989Y-83808685D01*
X136897147Y-83798741D01*
X136960703Y-83827766D01*
G37*
%TD.AperFunction*%
%TA.AperFunction,Conductor*%
G36*
X145042539Y-73520185D02*
G01*
X145088294Y-73572989D01*
X145099500Y-73624500D01*
X145099500Y-77372312D01*
X145079815Y-77439351D01*
X145027011Y-77485106D01*
X144975500Y-77496312D01*
X143284978Y-77496312D01*
X143217939Y-77476627D01*
X143197297Y-77459993D01*
X142907571Y-77170267D01*
X142907569Y-77170264D01*
X142795494Y-77058189D01*
X142795492Y-77058187D01*
X142666884Y-76983935D01*
X142523441Y-76945500D01*
X142523440Y-76945500D01*
X141371080Y-76945500D01*
X141222575Y-76945500D01*
X141079132Y-76983935D01*
X141079129Y-76983936D01*
X140950527Y-77058185D01*
X140950521Y-77058189D01*
X140548689Y-77460021D01*
X140548685Y-77460027D01*
X140477253Y-77583751D01*
X140477253Y-77583752D01*
X140474435Y-77588632D01*
X140437311Y-77727186D01*
X140437308Y-77727197D01*
X140436000Y-77732076D01*
X140436000Y-79312000D01*
X140416315Y-79379039D01*
X140363511Y-79424794D01*
X140312000Y-79436000D01*
X139699499Y-79436000D01*
X139632460Y-79416315D01*
X139586705Y-79363511D01*
X139575499Y-79312000D01*
X139575499Y-79124998D01*
X139575498Y-79124981D01*
X139564999Y-79022203D01*
X139564998Y-79022200D01*
X139548902Y-78973627D01*
X139509814Y-78855666D01*
X139417712Y-78706344D01*
X139293656Y-78582288D01*
X139144334Y-78490186D01*
X138977797Y-78435001D01*
X138977795Y-78435000D01*
X138875010Y-78424500D01*
X137124998Y-78424500D01*
X137124981Y-78424501D01*
X137022203Y-78435000D01*
X137022200Y-78435001D01*
X136855668Y-78490185D01*
X136855663Y-78490187D01*
X136706342Y-78582289D01*
X136582289Y-78706342D01*
X136490187Y-78855663D01*
X136490186Y-78855666D01*
X136435001Y-79022203D01*
X136435001Y-79022204D01*
X136435000Y-79022204D01*
X136424500Y-79124983D01*
X136424500Y-80875001D01*
X136424501Y-80875018D01*
X136435000Y-80977796D01*
X136435001Y-80977799D01*
X136451097Y-81026372D01*
X136490186Y-81144334D01*
X136582288Y-81293656D01*
X136706344Y-81417712D01*
X136855666Y-81509814D01*
X137022203Y-81564999D01*
X137124991Y-81575500D01*
X138875008Y-81575499D01*
X138977797Y-81564999D01*
X139144334Y-81509814D01*
X139293656Y-81417712D01*
X139417712Y-81293656D01*
X139509814Y-81144334D01*
X139564999Y-80977797D01*
X139575500Y-80875009D01*
X139575500Y-80688000D01*
X139595185Y-80620961D01*
X139647989Y-80575206D01*
X139699500Y-80564000D01*
X141043160Y-80564000D01*
X141110199Y-80583685D01*
X141153644Y-80631704D01*
X141252511Y-80825742D01*
X141398276Y-81026370D01*
X141573630Y-81201724D01*
X141774258Y-81347489D01*
X141995218Y-81460073D01*
X142231069Y-81536706D01*
X142322920Y-81551253D01*
X142476000Y-81575500D01*
X142476005Y-81575500D01*
X142724000Y-81575500D01*
X142860070Y-81553947D01*
X142968931Y-81536706D01*
X143204782Y-81460073D01*
X143425742Y-81347489D01*
X143626370Y-81201724D01*
X143801724Y-81026370D01*
X143947489Y-80825742D01*
X144060073Y-80604782D01*
X144136706Y-80368931D01*
X144139527Y-80351121D01*
X144169456Y-80287986D01*
X144228768Y-80251055D01*
X144298630Y-80252053D01*
X144356863Y-80290663D01*
X144384977Y-80354627D01*
X144386000Y-80370519D01*
X144386000Y-89358022D01*
X144366315Y-89425061D01*
X144313511Y-89470816D01*
X144244353Y-89480760D01*
X144180797Y-89451735D01*
X144174319Y-89445703D01*
X137957162Y-83228546D01*
X137933484Y-83193110D01*
X137933429Y-83193143D01*
X137932939Y-83192295D01*
X137930282Y-83188318D01*
X137929366Y-83186107D01*
X137929365Y-83186104D01*
X137894950Y-83126496D01*
X137855113Y-83057496D01*
X137778922Y-82981305D01*
X137778919Y-82981301D01*
X137745785Y-82948167D01*
X137745762Y-82948146D01*
X137699751Y-82902135D01*
X140149500Y-82902135D01*
X140149500Y-84797870D01*
X140149501Y-84797876D01*
X140155908Y-84857483D01*
X140206202Y-84992328D01*
X140206206Y-84992335D01*
X140292452Y-85107544D01*
X140292455Y-85107547D01*
X140407664Y-85193793D01*
X140407671Y-85193797D01*
X140542517Y-85244091D01*
X140542516Y-85244091D01*
X140549444Y-85244835D01*
X140602127Y-85250500D01*
X142897872Y-85250499D01*
X142957483Y-85244091D01*
X143092331Y-85193796D01*
X143207546Y-85107546D01*
X143293796Y-84992331D01*
X143344091Y-84857483D01*
X143350500Y-84797873D01*
X143350499Y-82902128D01*
X143344091Y-82842517D01*
X143305030Y-82737790D01*
X143293797Y-82707671D01*
X143293793Y-82707664D01*
X143207547Y-82592455D01*
X143207544Y-82592452D01*
X143092335Y-82506206D01*
X143092328Y-82506202D01*
X142957482Y-82455908D01*
X142957483Y-82455908D01*
X142897883Y-82449501D01*
X142897881Y-82449500D01*
X142897873Y-82449500D01*
X142897864Y-82449500D01*
X140602129Y-82449500D01*
X140602123Y-82449501D01*
X140542516Y-82455908D01*
X140407671Y-82506202D01*
X140407664Y-82506206D01*
X140292455Y-82592452D01*
X140292452Y-82592455D01*
X140206206Y-82707664D01*
X140206202Y-82707671D01*
X140155908Y-82842517D01*
X140149501Y-82902116D01*
X140149501Y-82902123D01*
X140149500Y-82902135D01*
X137699751Y-82902135D01*
X136100319Y-81302703D01*
X136066834Y-81241380D01*
X136064000Y-81215022D01*
X136064000Y-76625748D01*
X136063999Y-76625742D01*
X136050537Y-76575500D01*
X136025565Y-76482303D01*
X135979042Y-76401724D01*
X135979042Y-76401723D01*
X135979041Y-76401722D01*
X135951316Y-76353702D01*
X135951313Y-76353696D01*
X135846304Y-76248687D01*
X135846303Y-76248686D01*
X135841973Y-76244356D01*
X135841962Y-76244346D01*
X135499659Y-75902043D01*
X135466174Y-75840720D01*
X135469408Y-75776049D01*
X135536706Y-75568931D01*
X135557866Y-75435329D01*
X135575500Y-75324000D01*
X135575500Y-75075999D01*
X135536706Y-74831072D01*
X135536706Y-74831071D01*
X135536706Y-74831069D01*
X135481388Y-74660818D01*
X135479393Y-74590977D01*
X135515473Y-74531144D01*
X135578174Y-74500316D01*
X135599319Y-74498500D01*
X136549522Y-74498500D01*
X136616561Y-74518185D01*
X136637203Y-74534819D01*
X136788181Y-74685797D01*
X136821666Y-74747120D01*
X136824500Y-74773478D01*
X136824500Y-76375001D01*
X136824501Y-76375018D01*
X136835000Y-76477796D01*
X136835001Y-76477799D01*
X136890185Y-76644331D01*
X136890187Y-76644336D01*
X136899894Y-76660073D01*
X136982288Y-76793656D01*
X137106344Y-76917712D01*
X137255666Y-77009814D01*
X137422203Y-77064999D01*
X137524991Y-77075500D01*
X139275008Y-77075499D01*
X139377797Y-77064999D01*
X139544334Y-77009814D01*
X139693656Y-76917712D01*
X139817712Y-76793656D01*
X139909814Y-76644334D01*
X139964999Y-76477797D01*
X139975500Y-76375009D01*
X139975499Y-74624992D01*
X139964999Y-74522203D01*
X139909814Y-74355666D01*
X139817712Y-74206344D01*
X139693656Y-74082288D01*
X139544334Y-73990186D01*
X139377797Y-73935001D01*
X139377795Y-73935000D01*
X139275016Y-73924500D01*
X139275009Y-73924500D01*
X137673478Y-73924500D01*
X137606439Y-73904815D01*
X137585797Y-73888181D01*
X137409797Y-73712181D01*
X137376312Y-73650858D01*
X137381296Y-73581166D01*
X137423168Y-73525233D01*
X137488632Y-73500816D01*
X137497478Y-73500500D01*
X144975500Y-73500500D01*
X145042539Y-73520185D01*
G37*
%TD.AperFunction*%
%TA.AperFunction,Conductor*%
G36*
X135801098Y-88340185D02*
G01*
X135846853Y-88392989D01*
X135856797Y-88462147D01*
X135827772Y-88525703D01*
X135802950Y-88547602D01*
X135682311Y-88628210D01*
X135682307Y-88628213D01*
X135570813Y-88739707D01*
X135570810Y-88739711D01*
X135537102Y-88790159D01*
X135483489Y-88834964D01*
X135414164Y-88843671D01*
X135351137Y-88813516D01*
X135314418Y-88754073D01*
X135310000Y-88721268D01*
X135310000Y-88578978D01*
X135329685Y-88511939D01*
X135346319Y-88491297D01*
X135480797Y-88356819D01*
X135506949Y-88342538D01*
X135531779Y-88326055D01*
X135537286Y-88325973D01*
X135542120Y-88323334D01*
X135568478Y-88320500D01*
X135734059Y-88320500D01*
X135801098Y-88340185D01*
G37*
%TD.AperFunction*%
%TA.AperFunction,Conductor*%
G36*
X132832703Y-85522908D02*
G01*
X132839181Y-85528940D01*
X132986221Y-85675980D01*
X132986227Y-85675985D01*
X133035940Y-85719583D01*
X133176611Y-85827523D01*
X133217812Y-85883950D01*
X133221967Y-85953696D01*
X133188804Y-86013579D01*
X132839181Y-86363202D01*
X132777858Y-86396687D01*
X132708166Y-86391703D01*
X132652233Y-86349831D01*
X132627816Y-86284367D01*
X132627500Y-86275521D01*
X132627500Y-85616621D01*
X132647185Y-85549582D01*
X132699989Y-85503827D01*
X132769147Y-85493883D01*
X132832703Y-85522908D01*
G37*
%TD.AperFunction*%
%TA.AperFunction,Conductor*%
G36*
X142231249Y-78093185D02*
G01*
X142251891Y-78109819D01*
X142382104Y-78240032D01*
X142415589Y-78301355D01*
X142410605Y-78371047D01*
X142368733Y-78426980D01*
X142313823Y-78450186D01*
X142231070Y-78463293D01*
X141995215Y-78539928D01*
X141774254Y-78652512D01*
X141760884Y-78662227D01*
X141695077Y-78685706D01*
X141627024Y-78669880D01*
X141578330Y-78619773D01*
X141564000Y-78561908D01*
X141564000Y-78197500D01*
X141583685Y-78130461D01*
X141636489Y-78084706D01*
X141688000Y-78073500D01*
X142164210Y-78073500D01*
X142231249Y-78093185D01*
G37*
%TD.AperFunction*%
%TD*%
M02*
